<?xml version="1.0" encoding="utf-8"?>
<!-- Generator: Adobe Illustrator 24.0.0, SVG Export Plug-In . SVG Version: 6.00 Build 0)  -->
<svg version="1.1" xmlns="http://www.w3.org/2000/svg" xmlns:xlink="http://www.w3.org/1999/xlink" x="0px" y="0px"
	 viewBox="0 0 798.4 404.1" style="enable-background:new 0 0 798.4 404.1;" xml:space="preserve">
<style type="text/css">
	.st0{fill:#FFFFFF;}
	.st1{fill:#A57127;}
	.st2{fill:#DC9C2E;}
	.st3{fill:none;}
	.st4{fill:#E6E6E6;}
</style>
<g id="BACKGROUND">
</g>
<g id="OBJECTS">
	<g>
		<path class="st1" d="M181.2,135.9c-0.1,0.1-0.2,0.1-0.3,0.2c-0.5,0.4-1.1,0.6-1.7,0.9c0.2,0,0.5,0,0.7,0
			C180.4,136.6,180.8,136.3,181.2,135.9C181.3,135.9,181.2,135.9,181.2,135.9C181.2,135.9,181.2,135.9,181.2,135.9"/>
		<g>
			<path class="st1" d="M183.5,123.9c-2.1-1.8-4.5-3.4-7-4.7c-2.4-1.2-4.9-2.1-7.5-2.8c-2.8-0.8-5.7-1.3-8.7-1.6
				c-2.6-0.3-5.3-0.4-7.9-0.4c-0.3,0-0.5,0-0.8,0c-1.4,0-2.7,0.1-4.1,0.2c-1.4,0.1-2.9,0.2-4.3,0.5c-0.4,0.1-0.8,0.3-0.9,0.7
				c-0.2,0.5-0.1,1,0.3,1.4c0.7,0.6,1.4,1.3,2,2c3.9,4.4,7.1,9.4,10.9,13.9c1.3,1.5,2.7,3,4.2,4.3c0.3,0,0.6,0,0.8,0
				c0.6,0,1.2,0,1.7,0c-0.2-0.1-0.3-0.3-0.5-0.4c-1.2-1-2.3-2.1-3.3-3.3c0,0,0,0,0,0c0,0-0.1-0.1-0.1-0.1c-0.7-0.8-1.3-1.6-2-2.4
				c1.9,0.1,3.7,0.3,5.6,0.4c1.1,0.1,2.2,0.1,3.2,0c0.5,0,1-0.1,1.6-0.2c0.4-0.1,0.7-0.2,1.1-0.3c2.1,1.3,4.3,2.6,6.6,3.7
				c1.5,0.8,3,1.5,4.5,2.1c2.2,0,4.4-0.1,6.7-0.1c-1.3-0.5-2.6-1.1-3.8-1.7c-0.9-0.4-1.8-0.9-2.7-1.3c0,0,0,0,0-0.1c0,0,0,0,0,0
				c-0.7-1.1-1.2-2.2-1.7-3.4c-0.5-1.2-1-2.3-1.6-3.5c-0.7-1.3-1.5-2.5-2.2-3.7c-0.7-1-1.4-2.1-2.1-3.1c2.7,0.9,5.3,2.1,7.8,3.6
				c1.1,0.7,2.1,1.5,3.1,2.3c1,1.9,2.1,3.9,3.1,5.8c0.9,1.7,1.9,3.3,3,4.9c0.2,0,0.4,0,0.6,0c-1-1.7-1.9-3.5-2.9-5.2
				c-1-1.7-2-3.3-3-4.9c0.5,0.4,0.9,0.7,1.4,1.1c1.8,1.6,3.5,3.3,5.1,5c1.2,1.3,2.5,2.6,3.7,3.9c0.5,0,0.9,0,1.4,0
				c-1.8-2.4-3.6-4.9-5.5-7.2C187.3,127.5,185.5,125.6,183.5,123.9z M153.5,117c0.1,0,0.1,0,0.2,0c0,0-0.1,0-0.1,0c0,0,0.1,0,0.1,0
				h-0.1c2.4,0.1,4.8,0.3,7.2,0.7c1.5,2.4,3.1,4.7,4.5,7.2c0.5,1,1,1.9,1.6,2.9c-3.1-1.6-6.3-3.3-9.4-4.9c-0.9-1.2-1.7-2.3-2.6-3.4
				c-0.7-0.9-1.5-1.7-2.3-2.4C152.9,117,153.2,117,153.5,117z M148.3,117c1.3-0.1,2.7-0.1,4,0c0.2,0.2,0.3,0.3,0.5,0.5
				c0.6,0.7,1.2,1.4,1.8,2.2c0.6,0.7,1.2,1.5,1.7,2.2c0.2,0.2,0.4,0.4,0.6,0.7c-0.1-0.1-0.2-0.1-0.4-0.2c-3.3-1.8-6.7-3.5-10.1-5.2
				C147.1,117.1,147.7,117.1,148.3,117z M148.1,119.9c-0.5-0.7-1.1-1.4-1.7-2c-0.2-0.2-0.4-0.4-0.5-0.6c0.1,0,0.1,0,0.2,0
				c1.8,1,3.5,2.1,5.2,3.1c0,0-0.1,0-0.1-0.1c2.2,1.4,4.4,2.9,6.6,4.3c-0.9-0.2-1.8-0.3-2.6-0.5c-1.3-0.2-2.6-0.3-3.9-0.3
				c-0.1,0-0.2,0-0.3,0C150,122.5,149.1,121.2,148.1,119.9z M166.8,131.1L166.8,131.1c-0.8,0.1-1.7,0.1-2.6,0.1
				c-1.1,0-2.1-0.1-3.2-0.1c-1.6-0.1-3.1-0.1-4.7-0.1c-1.7-2.1-3.3-4.2-4.8-6.4c-0.1-0.2-0.3-0.4-0.5-0.6c1.2,0.1,2.4,0.2,3.6,0.4
				c1.1,0.2,2.3,0.3,3.4,0.4c1.5,1,2.9,1.9,4.4,2.9c1.7,1.1,3.5,2.3,5.3,3.3C167.4,131,167.1,131,166.8,131.1z M173.3,124
				c0.9,1.6,1.7,3.2,2.5,4.8c0.7,1.4,1.3,2.8,2.2,4.2c0.1,0.2,0.3,0.4,0.4,0.5c-0.9-0.4-1.8-0.8-2.7-1.3c-1-0.5-2-1-3.1-1.5
				c-1.2-0.6-2.3-1.2-3.5-1.8c-0.5-0.2-0.9-0.5-1.4-0.7c-0.4-0.7-0.7-1.4-1.1-2.1c-0.2-0.5-0.5-1-0.7-1.5c-0.3-0.6-0.6-1.1-0.9-1.6
				c-0.7-1.1-1.5-2-2.2-3c-0.6-0.7-1.1-1.5-1.7-2.2c2.9,0.4,5.8,1.1,8.7,1.9c0.4,0.1,0.9,0.3,1.3,0.4
				C171.8,121.4,172.6,122.7,173.3,124z"/>
			<path class="st1" d="M232.1,61.5c0-0.5-0.1-0.9-0.2-1.4c0-0.3-0.2-0.5-0.5-0.6c-0.1,0-0.2-0.1-0.3-0.1c-0.3,0-0.5,0.1-0.7,0.3
				c-1.5,1.9-2.9,3.7-4.4,5.5c-1.5,1.8-2.9,3.7-4.5,5.4c-2.3,2.5-4.9,4.8-7.4,7.2c-2.4,2.2-4.7,4.5-6.9,6.8
				c-2.3,2.5-4.4,5.2-6.2,8.1c-1.9,3.1-3.4,6.4-4.4,9.9c-0.9,3-1.3,6-1.4,9.1c-0.1,3.2,0.1,6.3,0.5,9.4c0.4,3.2,1,6.3,1.6,9.5
				c0.2,0.9,0.3,1.9,0.5,2.8c-0.1-0.3-0.2-0.5-0.3-0.8c-2.7-7.8-6.3-15.2-10.6-22.3c-4.2-6.9-9.1-13.4-14.3-19.5
				c-1.1-1.3-2.3-2.6-3.5-3.9c0-0.1,0-0.1,0-0.2c0.5-0.4,1.1-0.9,1.6-1.3c0.8-0.6,1.6-1.2,2.4-1.8c0.1,0,0.1-0.1,0.2-0.1
				c2-1.1,3.9-2.3,5.8-3.5c1.9-1.3,3.7-2.6,5.5-4c1.9-1.4,3.8-2.9,5.6-4.5c3.6-3.1,7-6.3,10.6-9.3c0.9-0.8,1.8-1.5,2.7-2.2
				c2,0,4,0.1,5.9,0.3c1,0.1,2.1,0.2,3.1,0.3c0.2,0,0.4,0,0.7,0c1.8,0,3.2-0.1,4.6-0.3c0.9-0.1,1.9-0.3,2.9-0.7
				c0.9-0.3,1.7-0.7,2.6-1.3c0.7-0.5,1.3-1.1,1.7-1.9c0.5-0.8,0.8-1.8,1-3c0.2-1.2,0.1-2.5-0.1-3.6c-0.1-0.8-0.3-1.5-0.5-2.3
				c-0.2-0.8-0.6-1.6-1.1-2.5c-0.7-1.2-1.6-2.3-2.8-3.3c-0.5-0.4-1.1-0.8-1.8-1.2c-0.8-0.4-1.6-0.7-2.3-0.8
				c-0.6-0.1-1.2-0.2-1.7-0.2h-0.4c-0.4,0-0.8,0.1-1.2,0.1c-0.3,0.1-0.7,0.2-1,0.3c-1.6,0.5-2.9,1.3-4.1,2.4
				c-0.8,0.8-1.6,1.8-2.2,3.1c-0.6,1.2-1.2,2.6-1.7,4.4c-0.3,0.9-0.5,1.9-0.8,2.9c-0.2,0.9-0.5,1.9-0.8,2.8
				c-0.1,0.8-0.3,1.5-0.5,2.2c-0.1,0.5-0.3,1.1-0.5,1.6c-0.4,0.3-0.9,0.6-1.3,0.9c-4,2.8-7.9,5.6-11.9,8.5c-3.8,2.7-7.4,5.6-11,8.6
				c-1.5,1.2-3,2.5-4.5,3.8c-0.2,0.1-0.4,0.2-0.6,0.4c-1.4,1-2.7,2-3.8,3.3c-0.1,0.1-0.1,0.1-0.2,0.2c0.2-1.1,0.4-2.2,0.7-3.4
				c0,0,0,0,0,0c1-4.6,2.3-9.2,3.7-13.7c0.7-2.3,1.4-4.6,2.2-6.9c0.4-1.1,0.8-2.3,1.2-3.4c0.5-1.3,0.9-2.6,1.4-3.9
				c0.8-2.3,1.7-4.5,2.6-6.7c0.9-2.2,1.9-4.4,2.9-6.6c0.3-0.6,0.5-1.1,0.8-1.6c0.1,0,0.1,0,0.2,0c0.6-0.4,1.2-0.7,1.9-1l0.5-0.3
				c1.1-0.6,2.1-1.2,3.2-1.8c2.5-1.5,4.6-2.9,6.4-4.3c2.2-1.7,3.8-3.4,4.9-5.1c0.5-0.8,0.9-1.7,1.1-2.6c0.2-0.9,0.3-1.9,0.1-2.8
				c-0.2-0.8-0.5-1.6-1.2-2.5c-0.4-0.5-0.8-0.9-1.2-1.3c-0.5-0.5-1.1-0.9-1.8-1.4c-0.6-0.4-1.2-0.7-1.8-1.1
				c-0.6-0.3-1.2-0.6-1.8-0.8c-1.1-0.4-2.2-0.7-3.3-0.8c-0.2,0-0.4,0-0.6,0c-0.6,0-1.3,0.1-1.9,0.3c-0.8,0.2-1.5,0.6-2.2,1.2
				c-0.5,0.4-1.1,1-1.5,1.8c-0.5,0.7-0.8,1.5-1.2,2.5c-0.4,1.3-0.8,2.7-1,4.5c-0.2,1.5-0.3,3-0.3,5c0,1.1,0,2.3,0.1,3.5
				c0,0.3,0,0.5,0.1,0.8c0.1,0.6,0.2,1.3,0.3,1.9c0.1,0.6,0.2,1.2,0.3,1.8c0.1,0.5,0.1,1.1,0.2,1.6c-0.6,1.1-1.3,2.2-1.9,3.3
				c-1.4,2.5-2.7,5-4,7.5c-1.3,2.6-2.7,5.2-3.8,7.9c-2.1,5-3.8,10.2-4.8,15.6c-0.5,2.7-0.8,5.4-0.9,8.1c-0.1,1,0,2-0.1,3
				c-0.5-2.4-1.1-4.8-1.9-7.1c-0.8-2.4-1.6-4.8-2.6-7.2c-1-2.4-2-4.8-3.1-7.2c-3.8-8.8-8.1-17.3-11.3-26.4c0.2-0.5,0.3-1,0.5-1.5
				c0.4-1.2,0.8-2.2,1.2-3.1l0.1-0.3c0.8-2.1,1.6-4.3,2.3-6.4c0.9-2.6,1.5-4.9,1.9-7.1c0.5-2.4,0.5-4.5,0.2-6.4
				c-0.2-0.9-0.5-1.8-0.9-2.5c-0.4-0.8-1.1-1.6-1.9-2.2c-0.3-0.3-0.7-0.5-1.1-0.7c-0.5-0.3-1-0.4-1.4-0.6c-1-0.3-2.1-0.4-3.1-0.4
				c-0.3,0-0.5,0-0.8,0c-1.5,0.1-2.9,0.5-4.3,1.2c-1.2,0.6-2.4,1.6-3.6,3c-0.8,1-1.6,2.2-2.2,3.8c-0.6,1.4-0.8,3.1-0.8,4.7
				c0,1.6,0.4,3.3,1.1,5.1c0.8,1.9,2,3.6,3.1,5.1c1.4,1.8,2.9,3.4,4.4,5c0.7,0.7,1.3,1.4,2,2.1c0.4,0.3,0.7,0.6,1.1,1
				c0.3,0.2,0.6,0.5,0.9,0.7c1.6,5.8,3.7,11.5,6,17.1c2.3,5.7,4.9,11.3,7.3,17c2.1,5.1,4.2,10.3,6,15.5c-1-1-1.9-2-2.9-3
				c-2.6-2.5-5.3-4.8-8-7.1c-3.1-2.5-6.2-4.9-9.3-7.3l0.3,0.3c-2.5-1.9-5.1-3.8-7.7-5.8l0.3,0.2c-1-0.7-2-1.5-3-2.2l0,0
				c-4.7-3.6-9.2-7.2-13.6-11.1c-3.7-3.2-7.1-6.8-10.3-10.5c-0.4-1.7-0.7-3.4-0.9-5.1c0,0,0-0.1,0-0.1c-0.2-0.9-0.3-1.8-0.4-2.7
				c-0.2-1-0.3-2-0.4-3c-0.2-1.2-0.3-2.4-0.5-3.6c-0.4-2.6-0.8-4.5-1.4-6.3c-0.6-2.1-1.4-3.6-2.4-4.9c-1.1-1.3-2.5-2.2-4.1-2.6
				c-0.5-0.1-1.1-0.2-1.7-0.2c-1.3,0-2.7,0.3-4.3,0.8c-2.3,0.8-5.4,2.3-6.7,5.2c-0.3,0.6-0.5,1.2-0.6,1.8c-0.1,0.7-0.2,1.4-0.2,2
				c0,1.3,0.3,2.7,1,4.3c0.4,1,1,1.9,1.5,2.7c0.6,0.8,1.3,1.7,2.2,2.6c1.4,1.4,3.2,2.7,5.5,4c2.6,1.5,5.5,2.6,8.2,3.7
				c1.2,0.4,2.3,0.9,3.4,1.4c0,0,0,0,0,0c0.1,0,0.3,0.1,0.4,0.1c0.1,0,0.2,0.1,0.3,0.1c1,1.4,2.1,2.7,3.2,4.1
				c4.4,5.4,9.4,10.2,14.6,14.8c5.2,4.5,10.7,8.8,16,13.3c5.4,4.5,10.8,9.2,15.7,14.3c0.1,0.1,0.2,0.2,0.2,0.3c-0.7,0-1.5,0-2.2,0
				c-2.8-0.1-5.5-0.2-8.3-0.4c-2-0.1-4-0.4-6-0.6c-1.7-0.2-3.3-0.4-5-0.6c0.1,0,0.2,0,0.4,0c-5.2-0.7-10.3-1.5-15.4-2.4
				c-2.6-0.5-5.2-1.1-7.8-1.8c-1.5-0.4-3-0.9-4.4-1.4c-0.7-0.9-1.4-1.7-2-2.7c-0.3-0.5-0.6-1-0.9-1.5c-1-1.3-1.8-2.7-2.7-4.1
				c-2.1-3.4-4.3-6.8-7.6-9.3c-0.9-0.7-1.9-1.3-3.2-1.8c-1.1-0.5-2.3-0.8-3.7-1c-0.5-0.1-1.1-0.1-1.7-0.1c-0.6,0-1.2,0-1.7,0.1
				c-1.1,0.1-2.2,0.5-3.3,1.1c-0.9,0.5-1.7,1.2-2.4,2.1c-0.7,0.9-1.2,2.1-1.6,3.6c-0.3,1.2-0.4,2.4-0.3,3.8c0,0.6,0.1,1.1,0.2,1.7
				c0.1,0.6,0.3,1.1,0.5,1.7c0.8,2.2,2.4,3.7,3.7,4.5c0.7,0.5,1.6,1,2.6,1.4c0.9,0.4,2,0.7,3.3,1c2.5,0.6,5.3,0.8,8.7,0.8
				c0.5,0,1,0,1.5,0c2.5-0.1,5-0.2,7.4-0.4c0.6-0.1,1.2-0.2,1.7-0.3c0.7,0.3,1.4,0.6,2.1,0.9c2.7,1.1,5.4,2,8.2,2.9
				c1.4,0.4,2.8,0.9,4.2,1.3c1.4,0.4,2.8,0.8,4.3,1.1c2.6,0.6,5.3,1.1,7.9,1.5c2.5,0.4,4.9,0.7,7.4,1c3.4,0.3,6.9,0.4,10.3,0.1
				c2.2-0.2,4.4-0.5,6.6-1c0.3,0.3,0.6,0.7,0.9,1c-1.2,1.2-2.5,2.3-3.8,3.4c-2.3,1.9-4.6,3.8-6.9,5.6c-7.1,5.4-14.9,9.9-23.1,13.3
				c0,0,0.1,0,0.1-0.1c-1.9,0.8-3.9,1.4-5.9,2.1c-1.1-0.5-2.2-1-3.2-1.5l-1.6-0.7c-2.3-1.1-4.6-2.1-6.9-3.1c-2.7-1.1-5.2-2-7.6-2.7
				c-2.7-0.8-5-1.2-7.1-1.2c-0.2,0-0.3,0-0.5,0c-2.1,0-3.8,0.4-5.2,1.3c-0.8,0.5-1.4,1.1-1.9,1.8c-0.6,0.8-1.1,1.8-1.4,3
				c-0.3,1.2-0.3,2.6,0,4c0.3,1.3,0.9,2.6,1.8,4.1c0.7,1.1,1.6,2.1,2.9,3.3c1.1,1,2.4,1.8,4,2.6c0.8,0.4,1.7,0.7,2.7,0.9
				c0.7,0.2,1.4,0.2,2.2,0.2c0.2,0,0.5,0,0.7,0c2.3-0.1,4.6-0.7,7.3-1.9c2.5-1.1,4.9-2.5,7.1-3.9c1.2-0.8,2.4-1.6,3.7-2.4l1.1-0.7
				c0,0,0.1-0.1,0.1-0.1c0.1-0.1,0.2-0.2,0.4-0.3c0,0-0.1,0.1-0.1,0.1c0.8-0.6,1.5-1.3,2.2-1.9c1.3-0.3,2.6-0.6,3.9-1
				c2.6-0.7,5.1-1.4,7.6-2.3c2.5-0.9,4.9-2,7.3-3.1c2.4-1.2,4.7-2.6,7-4c2.2-1.5,4.4-3.1,6.3-4.8c2-1.8,3.8-3.7,5.4-5.8
				c0.8-1,1.5-2,2.1-3.1c2.8,3.1,5.5,6.2,8.1,9.5c2.4,3.1,4.7,6.4,6.9,9.7c2.3,3.4,4.4,7,6.4,10.5c3.3,5.7,6.4,11.6,9.1,17.6
				c1,0,2,0,3,0c-0.1-0.3-0.2-0.6-0.3-0.9c0-0.4-0.1-0.8-0.1-1.2c0.1-0.3,0.3-0.5,0.4-0.8c0.9-0.7,1.7-1.4,2.6-2.1
				c1.6-1.3,3.3-2.5,5.1-3.6c3.3-2.3,6.6-4.4,9.9-6.8c3.3-2.3,6.3-4.9,9.1-7.8c1.3-1.4,2.5-2.9,3.7-4.5c0,0,0-0.1,0.1-0.1
				c-0.3-0.8-0.7-1.6-0.9-2.4c-0.2-0.4-0.3-0.9-0.5-1.4c-0.8,1.4-1.7,2.7-2.6,4c-0.5,0.7-1.1,1.4-1.6,2.1c-0.9,0.5-1.8,1-2.8,1.5
				c-2.1,1.1-4.4,2.1-6.6,3c-0.8,0.3-1.7,0.7-2.5,1c-0.9,0.4-1.8,0.8-2.7,1.3c-0.8,0.4-1.5,1-2.1,1.5c0.8-1.2,1.5-2.5,2.3-3.7
				c2.1-3.5,4-7.1,5.6-10.8c0.2-0.1,0.3-0.3,0.5-0.5l-0.1,0c1.3-0.8,2.7-1.4,4.2-2c1.5-0.6,3-1.3,4.4-2c0.8-0.4,1.5-0.8,2.3-1.2
				c0-0.2-0.1-0.4-0.1-0.7c-0.3,0.1-0.6,0.3-0.8,0.4c-1,0.4-2,0.9-2.9,1.3c-0.8,0.4-1.7,0.8-2.5,1.1c-1.4,0.6-2.8,1.3-4.1,2.2
				c-0.1,0.1-0.2,0.2-0.3,0.2c0.8-1.9,1.6-3.7,2.4-5.6c0.9-2.2,1.6-4.5,2.4-6.8c0.1,0,0.1-0.1,0.2-0.1c0,0,0,0,0,0
				c0.9-0.6,1.9-1.1,2.9-1.6c0.7-0.4,1.4-0.8,2.1-1.2c0-0.3,0-0.6,0.1-0.9c-0.5,0.3-0.9,0.6-1.4,0.8c-0.7,0.4-1.5,0.8-2.2,1.2
				c-0.5,0.3-0.9,0.7-1.4,1c1.2-3.5,2.4-7,3.5-10.6c0.5-1.5,1-3.1,1.5-4.6c1-0.9,1.9-1.8,2.7-2.8c0.9-1.1,1.8-2.2,2.6-3.2
				c0.1,0.7,0.1,1.4,0.2,2.2c0,0.4,0.1,0.7,0.1,1.1c0.6-0.8,1.3-1.6,2.1-2.3C232.8,67.5,232.5,64.5,232.1,61.5z M197.5,105.2
				C197.5,105.2,197.5,105.2,197.5,105.2c0.4-1.6,0.9-3.2,1.5-4.8c0.7-1.8,1.5-3.5,2.3-5.1c0,0.1-0.1,0.1-0.1,0.2
				c0.1-0.1,0.1-0.2,0.2-0.3c0.2,4.3,1.2,8.5,2.4,12.6c0.5,1.7,0.9,3.4,1.6,5c0.3,0.6,0.6,1.3,1,1.9c0.1,0.2,0.3,0.4,0.4,0.5
				c-1.4,2.6-2.8,5.3-4.1,8c-0.3,0.5-0.4,1.1-0.7,1.6c-0.4-0.6-0.7-1.2-1-1.9c-0.4-0.8-0.6-1.6-0.9-2.4c0,0,0,0,0,0
				c-0.6-1.9-1.1-3.8-1.7-5.8c-0.4-1.4-1-2.8-1.6-4.1C196.8,108.9,197.1,107,197.5,105.2z M198.5,133.7
				C198.4,133.8,198.4,133.8,198.5,133.7c-0.3-1.6-0.5-3.3-0.7-5c-0.5-3.8-1-7.7-1.2-11.5c-0.1-1.9-0.1-3.8,0.1-5.7
				c0-0.1,0-0.2,0-0.3c0.1,0.2,0.1,0.3,0.2,0.5v0c0,0,0,0,0,0c0,0,0,0,0,0c0,0,0,0,0,0c0,0,0,0,0,0v0c0.8,2.6,1.3,5.3,2.1,7.9
				c0.3,1.1,0.8,2.2,1.3,3.2c0.4,0.8,0.9,1.5,1.5,2.2c-0.6,1.4-1.3,2.7-1.8,4.2C199.4,130.6,198.9,132.2,198.5,133.7z M209.2,124.4
				c-2.1,1.7-4.2,3.4-6.3,5.2c-1.1,0.9-2.1,1.9-3.2,2.9c-0.2,0.1-0.3,0.3-0.5,0.4c0.2-0.4,0.4-0.7,0.5-1.1c0.8-1.6,1.8-3.1,2.6-4.6
				c1.8-0.8,3.7-1.6,5.6-2.4c0.6-0.3,1.1-0.6,1.7-0.8C209.5,124.2,209.4,124.3,209.2,124.4z M211.5,117.9c0.8-0.3,1.5-0.6,2.3-0.9
				c1-0.4,1.9-0.8,2.9-1.3c1.8-0.9,3.6-2,5.4-3.1c0.2-0.1,0.5-0.3,0.7-0.5c-0.4,0.5-0.8,0.9-1.2,1.4l0.2-0.3
				c-3.3,3.5-7,6.6-10.7,9.7c-0.1,0-0.1,0.1-0.2,0.1c-1.1,0.5-2.3,1-3.4,1.5c-1.2,0.5-2.3,0.9-3.4,1.5c-0.4,0.2-0.8,0.4-1.2,0.6
				c1.2-2,2.4-4,3.6-6c0.2-0.2,0.4-0.4,0.6-0.5c0,0,0,0,0,0C208.4,119.2,209.9,118.5,211.5,117.9z M208.6,111.6
				c-0.6,1.1-1.2,2.1-1.7,3.2c-0.3-0.6-0.6-1.3-0.9-2c0,0,0,0,0,0c-0.4-1.2-0.6-2.3-0.9-3.5c-0.4-1.6-0.9-3.3-1.4-4.9
				c-0.5-1.6-0.9-3.2-1.3-4.8c-0.4-1.6-0.7-3.1-0.9-4.7c1-1.7,2-3.4,3.2-5c1.2-1.6,2.5-3.2,3.9-4.6c0,0,0.1-0.1,0.1-0.1c0,0,0,0,0,0
				c0,0,0,0,0,0l0,0c0.2-0.2,0.4-0.4,0.6-0.6c0,0.5,0,1,0,1.5c0.1,1,0.3,1.9,0.6,2.8c0.5,1.8,1.2,3.4,1.7,5.2
				c0.8,2.5,1.3,5.1,1.8,7.7C211.9,105.1,210.3,108.4,208.6,111.6z M214.6,99.3c-0.3,0.6-0.6,1.2-0.9,1.8c0-0.4-0.1-0.8-0.1-1.3
				c-0.1-1.5-0.4-3-0.7-4.5c-0.3-1.2-0.8-2.3-1.2-3.4c-0.6-1.3-1.1-2.7-1.6-4.1c0,0,0,0,0,0c-0.2-0.6-0.4-1.2-0.5-1.8
				c-0.1-0.5-0.1-1-0.2-1.5c2.6-2.7,5.3-5.2,8-7.7c0.1,0.8,0.1,1.5,0.3,2.3c0.2,1.1,0.5,2.2,0.7,3.3c0.3,1.1,0.5,2.1,0.7,3.2
				c0.2,0.8,0.2,1.7,0.3,2.5C217.9,91.8,216.3,95.5,214.6,99.3z M219.9,86.9c-0.1,0.1-0.1,0.3-0.2,0.4c0-0.3,0-0.6,0-1
				c-0.1-1.1-0.3-2.2-0.6-3.3c-0.3-1.1-0.6-2.1-0.9-3.2c-0.3-1.1-0.5-2.2-0.7-3.3c1-0.9,1.9-1.8,2.9-2.7c1.2-1.1,2.3-2.3,3.4-3.6
				c0.2,1.7,0.6,3.3,0.7,5v0c0,0.1,0,0.2,0,0.3C223,79.4,221.5,83.2,219.9,86.9z M224.7,75.1c0-0.1,0-0.1,0-0.2c0-0.5-0.1-1-0.2-1.5
				c-0.1-0.7-0.3-1.3-0.4-2c-0.1-0.4-0.1-0.7-0.2-1.1c0.7-0.8,1.4-1.7,2.1-2.5c1.2-1.5,2.4-3,3.6-4.5
				C227.9,67.2,226.3,71.1,224.7,75.1z M226.9,73.7L226.9,73.7c-0.4,0.5-0.8,0.9-1.2,1.4c1.4-4.1,2.7-8.2,4.2-12.2
				c0.1-0.2,0.3-0.3,0.4-0.5c0,0.2,0,0.4,0,0.6c0,1,0.1,2,0.2,3c0.1,1.1,0.2,2.3,0.3,3.4C229.5,70.7,228.2,72.2,226.9,73.7z
				 M231.3,61.3L231.3,61.3C231.4,61.2,231.4,61.2,231.3,61.3C231.4,61.2,231.4,61.2,231.3,61.3z"/>
		</g>
		<g>
			<path class="st2" d="M275,51.6c0.5,2.6,0.9,5.2,1.1,7.8c0,0,0,0,0,0c0.3,3.7,0.4,7.4,0.4,11.1c0,3.8-0.3,7.6-0.9,11.4v0
				c0,0.2-0.1,0.3-0.1,0.5c0,0,0.1,0.1,0.1,0c0.5-1.2,0.9-2.5,1.3-3.7c0.3-1.2,0.5-2.4,0.7-3.5c0.4-2.7,0.5-5.4,0.4-8.1
				c-0.1-2.6-0.5-5.2-1-7.7C276.4,56.7,275.8,54.1,275,51.6C275.1,51.6,275.1,51.6,275,51.6C275,51.6,275,51.6,275,51.6"/>
			<path class="st2" d="M301.7,50.7c-0.1,2.3-0.4,4.7-0.8,7c0,0,0,0,0,0c-0.5,2.9-1.3,5.6-2.1,8.4c-0.8,2.9-1.8,5.7-2.8,8.5
				c0,0,0,0.1,0.1,0c1.1-1.7,2.1-3.5,3-5.3c0.9-1.9,1.5-4,2-6.1C301.9,59.2,302.1,54.9,301.7,50.7C301.8,50.7,301.8,50.7,301.7,50.7
				C301.7,50.7,301.7,50.7,301.7,50.7 M301,57.6C301,57.6,301,57.6,301,57.6C301,57.6,301,57.6,301,57.6"/>
			<path class="st2" d="M320.7,59.3c-0.5,0.7-1.1,1.3-1.6,2l0,0c-2.5,3-5.1,5.8-7.5,9c-2.3,3.1-4.1,6.6-5.4,10.3c0,0,0,0.1,0.1,0
				c2.3-3.5,4.8-6.9,7.2-10.3C316.1,66.7,318.5,63,320.7,59.3C320.8,59.3,320.8,59.3,320.7,59.3C320.8,59.3,320.8,59.3,320.7,59.3"
				/>
			<path class="st2" d="M333.2,69.8c-4.2,2.5-8.4,5.1-12.1,8.3c-1.8,1.5-3.4,3.2-4.9,5c-1.7,2-3.1,4.1-4.4,6.4c0,0,0,0.1,0.1,0
				c3.3-3.5,6.8-6.9,10.4-10.2c1.8-1.7,3.6-3.3,5.4-4.9C329.4,72.8,331.3,71.3,333.2,69.8C333.2,69.8,333.2,69.8,333.2,69.8
				C333.2,69.8,333.2,69.8,333.2,69.8"/>
			<path class="st2" d="M270.6,51.2c-0.1,1.9,1.5,3.7,3.4,3.7c1.9,0,3.6-1.4,3.7-3.4c0.1-1.9-1.5-3.7-3.4-3.7
				C272.4,47.8,270.7,49.2,270.6,51.2"/>
			<path class="st2" d="M297.5,50.6c-0.1,2,1.5,3.9,3.5,3.9c2,0,3.8-1.5,3.9-3.5c0.1-2-1.5-3.9-3.5-3.9
				C299.3,47,297.6,48.5,297.5,50.6"/>
			<path class="st2" d="M317,59.6c-0.1,1.7,1.4,3.5,3.2,3.5c1.8,0,3.4-1.3,3.5-3.2c0.1-1.7-1.4-3.5-3.2-3.5
				C318.7,56.4,317.1,57.7,317,59.6"/>
			<path class="st2" d="M329.7,69.6c-0.1,2.2,1.7,4.4,4,4.4c2.3,0,4.3-1.7,4.4-4c0.1-2.2-1.7-4.4-4-4.4
				C331.8,65.5,329.8,67.2,329.7,69.6"/>
			<path class="st2" d="M244.2,61.8c-5.2,1.7-9.6,4.6-12.8,8.5c-0.8,1-1.6,2.2-2.3,3.4c-0.6,1.1-1.2,2.3-1.9,4
				c-0.9,2.3-1.5,4.8-1.9,8.1c-0.6,5.1-0.2,10.7,1.2,17.1c1.2,5.3,3.1,10.6,5.7,15.7c3.1,6.2,7.3,11.9,12.5,17
				c0.7,0.7,1.4,1.3,2.1,2c3.9-0.4,7.7-0.6,11.6-0.7c-1.3-1.3-2.6-2.7-3.8-4c-4.6-5-9-10.2-12.8-15.9c-3.7-5.5-6.8-11.4-8.7-17.7
				c-0.9-3.1-1.5-6.3-1.7-9.5c-0.1-1.8-0.2-3.5-0.1-5.3c0.1-1.7,0.2-3.4,0.5-5.1c0,0,0,0,0,0c0,0,0,0,0,0c-0.2,2.7-0.1,5.3,0.1,8
				l0,0c0.2,2.4,0.6,4.7,1.2,7.1c0.5,2.3,1.3,4.6,2.1,6.8l-0.1-0.2c1.1,3,2.4,5.9,3.9,8.7c1.5,2.8,3.2,5.5,5.1,8.1
				c2.3,3.2,4.7,6.3,7.3,9.3c2.5,2.9,5.2,5.8,7.8,8.6c0.3,0.3,0.6,0.7,1,1c0.9,0,1.7,0,2.6,0c0.6-0.4,1.2-0.6,1.8-0.7
				c-1-2.2-2.1-4.4-3.2-6.6c-1.5-3.1-3.1-6.2-4.6-9.3c-1.6-3.1-3.1-6.2-4.6-9.3c-1.5-3.1-2.9-6.2-4.3-9.4c-1.3-3-2.5-6.1-3.4-9.3
				c-1-3.2-1.8-6.5-2.4-9.8c-0.5-3.2-0.8-6.4-0.8-9.6c0,0,0,0,0,0c0,0,0,0,0,0c0.4,3.6,1,7.2,1.9,10.8c0.9,3.7,2.1,7.4,3.5,11
				c0,0,0-0.1,0-0.1c1.8,4.8,3.8,9.5,6,14.1c2.2,4.5,4.4,9,6.7,13.5c2.3,4.5,4.5,9.1,6.4,13.9c0.1,0,0.2,0,0.3,0
				c1.4,0,2.9-0.1,4.3-0.1c1.5,0,3,0,4.4,0.1v-0.1c0.1-8.2,0-16.9-0.8-25.9c-0.4-5-1-9.5-1.6-13.7c-0.7-4.6-1.5-8.7-2.4-12.4
				c-1-4-2.3-7.5-3.8-10.7c-1.5-3.2-3.3-5.8-5.3-7.8c-2.1-2.1-4.7-3.6-7.3-4.2c-1-0.2-2.1-0.4-3.2-0.4
				C248.4,60.7,246.3,61.1,244.2,61.8 M252.5,77.9C252.5,77.8,252.5,77.8,252.5,77.9C252.5,77.8,252.5,77.8,252.5,77.9
				c1.9,4.6,3.9,9.2,5.8,13.8c1.9,4.5,3.7,9,5.4,13.5c1.7,4.7,3.3,9.4,4.5,14.2c0.6,2.5,1.2,5,1.6,7.6c0.4,2.4,0.7,4.8,0.9,7.3
				c0,0-0.1,0.1-0.1,0c-0.9-5.1-2.2-10.1-3.7-15.1c-1.5-4.7-3.1-9.4-4.8-14.1l0.1,0.2C258.8,96.1,255.3,87.1,252.5,77.9"/>
			<path class="st2" d="M329.4,83.6c-2.8,0.1-5.8,0.7-8.8,1.7c-2.7,0.8-5.3,2.1-7.8,3.6c-2.1,1.3-4.3,3-7,5.4
				c-3.8,3.4-7.4,7.6-11.1,13c-3.6,5.1-6.7,10.6-9.5,16.5c-1.9,4-3.5,8.2-5,12.5c2,0.1,4,0.2,5.9,0.3c2.2,0.1,4.5,0.3,6.7,0.4
				c2.2,0,4.3,0.1,6.5,0.1c2.2,0,4.4,0,6.6,0c1.3,0,2.6-0.1,3.9-0.1c3.2-1.8,6.2-3.8,9.2-5.9c-0.1,0-0.1,0.1-0.2,0.1
				c3.4-2.4,6.6-5,9.7-7.7c3.1-2.8,6.1-5.9,8.8-9.1c0,0-0.1,0.1-0.1,0.1c2.9-3.4,5.5-7,7.9-10.8c0,0,0,0,0,0c0,0,0,0,0,0.1
				c-0.5,0.9-1,1.9-1.5,2.8c-3.5,6.2-7.9,11.9-13,16.8c-4.9,4.7-10.4,8.8-16.2,12.4c-0.6,0.4-1.2,0.7-1.8,1.1
				c6.4-0.2,12.7-0.6,19.1-0.7c1.5-1.2,2.9-2.5,4.3-3.7c2.3-2.1,4.5-4.6,6.6-7.4c2.2-2.9,4.1-5.8,5.5-8.8c1.6-3.2,2.6-6.4,3-9.5
				c0.5-3.3,0.3-6.5-0.7-9.7c-0.9-3-2.6-5.9-5-8.2c-1.9-1.9-4.5-3.4-7.6-4.3c-2-0.6-4.3-1-6.9-1C330.6,83.5,330,83.5,329.4,83.6
				 M304.1,115.8c1.6-2.7,3.3-5.4,5.3-7.9c1.8-2.3,3.7-4.5,5.8-6.4c2.2-2,4.6-3.9,7.2-5.5c1.3-0.8,2.6-1.5,3.9-2.1
				c1.2-0.6,2.5-1.1,3.8-1.5h0c0,0,0,0,0,0.1c-2.4,1.2-4.8,2.6-7,4.1c0,0,0.1,0,0.1-0.1c-5.4,3.8-10,8.5-14.3,13.4
				C307.3,111.8,305.7,113.8,304.1,115.8C304.2,115.9,304.1,115.9,304.1,115.8C304.1,115.9,304.1,115.8,304.1,115.8 M301.7,128.1
				c6.2-4.4,12.2-9,17.9-14.1c2.9-2.5,5.7-5.2,8.4-7.9c2.8-2.8,5.4-5.6,8-8.6h0c0,0,0.1,0,0,0.1c-5.6,7.5-11.9,14.5-19.1,20.6
				c-3.4,2.8-7,5.5-10.7,7.9c-4,2.6-8.2,5.1-12.4,7.4c0,0-0.1,0,0-0.1C296.5,131.7,299.1,129.9,301.7,128.1
				C301.7,128.1,301.7,128.1,301.7,128.1C301.7,128.1,301.7,128.1,301.7,128.1L301.7,128.1z M309,109.8
				C309,109.8,308.9,109.9,309,109.8C308.9,109.9,309,109.8,309,109.8 M308.9,109.9C308.9,109.9,308.9,109.9,308.9,109.9
				L308.9,109.9z M301.7,128.1C301.6,128.1,301.6,128.1,301.7,128.1C301.6,128.1,301.6,128.1,301.7,128.1"/>
			<path class="st1" d="M283,68.4c-4.5,2.2-8.5,5.4-11.9,9.6c-1.6,1.9-2.9,4.1-4.2,6.7c-1.4,3-2.6,6.1-3.5,9.4
				c-1.8,6.5-2.6,13.5-2.4,20.7c0.2,7,1.5,14,3.8,20.9c0,0.1,0.1,0.3,0.1,0.4c0.4-0.1,0.8-0.1,1.2-0.1c1.4-0.1,2.9-0.1,4.3-0.1
				c5.2,0,10.4,0.3,15.6,0.6c2.2,0.1,4.5,0.3,6.7,0.4c1.5,0,3,0,4.5,0.1c3.2-3.7,6.1-7.6,8.5-11.7c1.9-3.1,3.6-6.4,5.3-10.3
				c1.5-3.3,2.7-6.9,3.6-10.6c2-7.6,2.4-14.8,1.3-21.4c-0.9-5.4-3.3-10.1-6.8-13.1c-1.8-1.6-3.8-2.7-6-3.5c-1.9-0.7-4.1-1.1-6.5-1.2
				h-0.4l-0.4,0C291.9,65.2,287.3,66.3,283,68.4"/>
			<path class="st2" d="M284.6,72.9c-2.3,2.9-4.5,5.9-6.5,9.1c-1.8,2.9-3.4,5.9-4.9,9.1c-1.4,3.1-2.6,6.3-3.5,9.6
				c-0.9,3.3-1.6,6.7-2,10.1c-0.8,6.6-0.4,13.3,0.8,19.9c0.3,1.8,0.7,3.6,1.2,5.4c0.2,0,0.5,0,0.7,0c0.1,0,0.2,0,0.3,0
				c-0.6-2.8-1-5.6-1.2-8.5c0,0,0,0,0,0.1c-0.3-3.5-0.4-6.9-0.2-10.4c0.2-3.5,0.6-6.9,1.2-10.4c0,0.1,0,0.2,0,0.3
				c0.7-3.6,1.6-7.2,2.7-10.7c1.2-3.7,2.7-7.3,4.3-10.9c0,0,0,0,0,0C279.6,81.2,282,77,284.6,72.9C284.7,72.9,284.7,72.9,284.6,72.9
				C284.6,72.9,284.6,72.9,284.6,72.9"/>
			<path class="st2" d="M277.5,85.6c0,0,0-0.1,0-0.1C277.5,85.5,277.5,85.5,277.5,85.6"/>
			<path class="st2" d="M269.6,127.7c0,0,0-0.1,0-0.1C269.6,127.6,269.6,127.6,269.6,127.7"/>
			<path class="st2" d="M293.6,69.1c-3.8,9.5-5.6,19.6-6.9,29.7c-1.4,10.5-2.1,21.1-4,31.5c0-0.1,0-0.1,0-0.2
				c-0.4,2.1-0.8,4.1-1.3,6.2c0.4,0,0.9,0,1.3,0.1c0-0.1,0.1-0.2,0.1-0.3c1.6-5.7,2.7-11.6,3.4-17.5c1.6-12.1,1.9-24.3,4.1-36.2v0
				C291.2,77.9,292.2,73.5,293.6,69.1C293.7,69.1,293.7,69.1,293.6,69.1C293.6,69.1,293.6,69.1,293.6,69.1"/>
			<path class="st2" d="M304.2,75.6c0.2,1.1,0.3,2.1,0.4,3.2c0,0,0,0,0,0c0.5,5.8,0.1,11.6-0.9,17.4c0,0.1,0,0.2,0,0.3
				c0-0.1,0-0.1,0-0.1c0,0.1,0,0.1,0,0.2c0,0,0,0,0-0.1c-1,5.3-2.4,10.6-4.1,15.7c-0.9,2.6-1.8,5.1-2.8,7.7c-1,2.7-2.2,5.3-3.4,7.9
				l0.1-0.2c-1.5,3.1-3.1,6.2-4.9,9.2c0.4,0,0.8,0,1.1,0.1c0.7-1,1.3-2,2-3.1c1.9-3,3.6-6,5.3-9.1c1.6-3.1,3.1-6.2,4.4-9.4
				c2.6-6.4,4.3-13.2,4.9-20c0.3-3.3,0.2-6.6,0-9.8C305.9,82,305.2,78.7,304.2,75.6C304.3,75.5,304.2,75.5,304.2,75.6
				C304.2,75.5,304.2,75.5,304.2,75.6"/>
		</g>
		<g>
			<path class="st1" d="M615.7,280.2c2.1,1.8,4.5,3.4,7,4.7c2.4,1.2,4.9,2.1,7.5,2.8c2.8,0.8,5.7,1.3,8.7,1.6
				c2.6,0.3,5.3,0.4,7.9,0.4c0.2,0,0.5,0,0.8,0c1.4,0,2.7-0.1,4.1-0.2c1.4-0.1,2.9-0.2,4.3-0.5c0.4-0.1,0.8-0.3,0.9-0.7
				c0.2-0.5,0.1-1-0.3-1.4c-0.7-0.6-1.4-1.3-2-2c-3.9-4.4-7.1-9.4-10.9-13.9c-1.9-2.2-3.9-4.2-6.2-6c-0.4-0.3-0.8-0.6-1.3-0.9
				c-1,0-1.9,0.1-2.9,0.1c0.3,0.2,0.6,0.4,0.9,0.5c0,0,0,0,0,0c-1,0-2.1,0-3.1,0c-1.7,0-3.3,0-5,0.2c-1.5,0.1-3,0.4-4.4,0.9
				c-0.7,0.3-1.4,0.5-2,0.9c0,0,0,0,0,0c-2.3-1-4.7-1.8-7.1-2.5c-2.5,0-5-0.1-7.5-0.3c1.4,0.4,2.8,1,4.2,1.5
				c1.3,2.3,2.6,4.6,3.9,6.9c1,1.7,2,3.3,3,4.9c-0.5-0.4-0.9-0.7-1.4-1.1c-1.8-1.6-3.5-3.3-5.1-5c-1.5-1.6-3.1-3.3-4.6-4.9
				c-0.8-0.8-1.5-1.6-2.3-2.4c-0.2,0-0.5,0-0.7,0c2.7,3.5,5.2,7.2,8,10.6C611.9,276.6,613.8,278.5,615.7,280.2z M629.5,284.5
				c-0.4-0.1-0.9-0.3-1.3-0.4c-0.8-1.3-1.5-2.6-2.3-3.9c-0.9-1.6-1.7-3.2-2.5-4.8c-0.7-1.4-1.3-2.8-2.2-4.2
				c-0.1-0.2-0.3-0.4-0.4-0.6c0.9,0.4,1.8,0.9,2.7,1.3c1,0.5,2,1,3.1,1.5c1.2,0.6,2.3,1.2,3.5,1.8c0.5,0.2,0.9,0.5,1.4,0.7
				c0.4,0.7,0.7,1.4,1.1,2.1c0.2,0.5,0.5,1,0.7,1.5c0.3,0.6,0.6,1.1,1,1.6c0.7,1.1,1.5,2,2.2,3c0.6,0.7,1.1,1.5,1.7,2.2
				C635.2,286,632.3,285.3,629.5,284.5z M645.6,287.1c0,0-0.1,0-0.1,0L645.6,287.1c-2.5-0.1-4.9-0.3-7.2-0.7
				c-1.5-2.4-3.1-4.7-4.5-7.2c-0.5-1-1-1.9-1.6-2.9c3.1,1.6,6.3,3.3,9.4,4.9c0.9,1.2,1.7,2.3,2.6,3.5c0.7,0.9,1.5,1.7,2.3,2.4
				c-0.3,0-0.6,0-0.9,0H645.6z M650.9,287.1c-1.3,0.1-2.7,0.1-4,0c-0.2-0.2-0.3-0.3-0.5-0.5c-0.6-0.7-1.2-1.4-1.8-2.2
				c-0.6-0.7-1.1-1.5-1.7-2.2c-0.2-0.2-0.4-0.5-0.6-0.7c0.1,0.1,0.2,0.1,0.4,0.2c3.3,1.8,6.7,3.5,10.1,5.2
				C652.2,287,651.6,287.1,650.9,287.1z M652.9,286.3c0.2,0.2,0.4,0.4,0.6,0.6c-0.1,0-0.1,0-0.2,0c-1.8-1-3.5-2-5.2-3.1
				c0,0,0.1,0,0.1,0.1c-2.2-1.4-4.4-2.9-6.6-4.3c0.9,0.2,1.8,0.3,2.6,0.5c1.3,0.2,2.6,0.3,3.9,0.3c0.1,0,0.2,0,0.3,0
				c0.9,1.3,1.9,2.6,2.9,3.9C651.7,284.9,652.3,285.6,652.9,286.3z M648.2,280.2c-1.2-0.1-2.4-0.2-3.6-0.4c-1.1-0.2-2.3-0.3-3.4-0.4
				c-1.5-1-2.9-1.9-4.4-2.9c-1.7-1.1-3.5-2.3-5.3-3.3c0.3,0,0.6-0.1,0.9-0.1h0c0.9-0.1,1.8-0.1,2.6-0.1c1.1,0,2.1,0.1,3.2,0.1
				c1.6,0.1,3.1,0.1,4.7,0.1c1.7,2.1,3.3,4.2,4.8,6.4C647.9,279.8,648.1,280,648.2,280.2z M620.5,267c1.6-0.6,3.3-0.9,5-1.1
				c1.7-0.2,3.5-0.4,5.2-0.5c0,0,0,0,0,0c1.3-0.1,2.5-0.2,3.8-0.3c1,0.7,2,1.4,2.9,2.2c1.2,1,2.3,2.1,3.3,3.2
				c0.7,0.8,1.4,1.7,2.1,2.5c-1.9-0.1-3.7-0.3-5.6-0.4c-1.1-0.1-2.2-0.1-3.2,0c-0.5,0-1.1,0.1-1.6,0.2c-0.4,0.1-0.7,0.2-1.1,0.3
				c-2.1-1.3-4.3-2.6-6.6-3.7c-1.5-0.8-3.1-1.5-4.6-2.1C620.3,267.1,620.4,267.1,620.5,267z M613.9,272.2c-1.2-2.3-2.6-4.4-4.2-6.4
				c2.6,1,5.2,2,7.7,3.2c0.9,0.4,1.8,0.9,2.7,1.3c0,0,0,0,0.1,0.1c0,0,0,0,0,0c0.7,1.1,1.2,2.2,1.7,3.4c0.5,1.2,1,2.3,1.6,3.5
				c0.7,1.3,1.5,2.5,2.2,3.7c0.7,1,1.4,2.1,2.1,3.1c-2.7-0.9-5.3-2.1-7.8-3.6c-1.1-0.7-2.1-1.5-3.1-2.3
				C616,276.1,615,274.2,613.9,272.2z"/>
			<path class="st1" d="M645.6,287.1h0.1C645.7,287.1,645.6,287.1,645.6,287.1C645.6,287.1,645.6,287.1,645.6,287.1z"/>
			<polygon class="st1" points="602.4,292.5 602.4,292.5 602.4,292.5 			"/>
			<path class="st1" d="M716.1,333.2c-0.1-0.6-0.3-1.1-0.5-1.7c-0.8-2.2-2.4-3.7-3.7-4.5c-0.7-0.5-1.6-1-2.6-1.4
				c-0.9-0.4-2-0.7-3.3-1c-2.5-0.6-5.3-0.8-8.7-0.8c-0.5,0-1,0-1.5,0c-2.5,0.1-5,0.2-7.4,0.4c-0.6,0.1-1.2,0.2-1.7,0.3
				c-0.7-0.3-1.4-0.6-2.1-0.9c-2.7-1.1-5.4-2-8.2-2.9c-1.4-0.4-2.8-0.9-4.2-1.3c-1.4-0.4-2.8-0.8-4.3-1.1c-2.6-0.6-5.3-1.1-7.9-1.5
				c-2.5-0.4-4.9-0.7-7.4-1c-3.4-0.3-6.9-0.4-10.3-0.1c-2.2,0.2-4.4,0.5-6.6,1c-0.3-0.3-0.6-0.7-0.9-1c1.2-1.2,2.5-2.3,3.8-3.4
				c2.3-1.9,4.6-3.8,6.9-5.6c7.1-5.4,14.9-9.9,23.1-13.3c0,0-0.1,0-0.1,0.1c1.9-0.8,3.9-1.4,5.8-2.1c1.1,0.5,2.2,1,3.2,1.5l1.6,0.7
				c2.3,1.1,4.6,2.1,6.9,3.1c2.7,1.1,5.2,2,7.6,2.7c2.7,0.8,5,1.2,7.1,1.2c0.2,0,0.3,0,0.5,0c2.1,0,3.8-0.4,5.2-1.3
				c0.8-0.5,1.4-1.1,1.9-1.8c0.6-0.8,1.1-1.8,1.4-3c0.3-1.2,0.3-2.6,0-4c-0.3-1.3-0.9-2.6-1.8-4.1c-0.7-1.1-1.6-2.1-2.9-3.3
				c-1.1-1-2.4-1.8-4-2.6c-0.8-0.4-1.7-0.7-2.7-0.9c-0.7-0.2-1.4-0.2-2.2-0.2c-0.2,0-0.5,0-0.7,0c-2.3,0.1-4.6,0.7-7.3,1.9
				c-2.5,1.1-4.9,2.5-7.1,3.9c-1.2,0.8-2.4,1.6-3.7,2.4l-1.1,0.7c0,0-0.1,0.1-0.1,0.1c-0.1,0.1-0.2,0.2-0.4,0.3c0,0,0.1-0.1,0.1-0.1
				c-0.8,0.6-1.5,1.3-2.2,1.9c-1.3,0.3-2.6,0.6-3.9,1c-2.6,0.7-5.1,1.4-7.6,2.3c-2.5,0.9-4.9,2-7.3,3.1c-2.4,1.2-4.7,2.6-7,4
				c-2.2,1.5-4.4,3.1-6.3,4.8c-2,1.8-3.8,3.7-5.4,5.8c-0.8,1-1.5,2-2.1,3.1c-2.8-3.1-5.5-6.2-8.1-9.5c-2.4-3.1-4.7-6.4-6.9-9.7
				c-2.3-3.4-4.4-7-6.4-10.5c-3.9-6.8-7.6-13.8-10.6-21.1c-0.8-0.1-1.7-0.1-2.5-0.2c0.4,1.6,0.9,3.2,1.4,4.7c0,0.4,0.1,0.7,0.1,1.1
				c-0.1,0.3-0.3,0.6-0.4,0.9c-0.9,0.7-1.7,1.4-2.6,2.1c-1.6,1.3-3.3,2.5-5.1,3.6c-3.3,2.3-6.6,4.4-9.9,6.8
				c-3.3,2.3-6.3,4.9-9.1,7.8c-1.3,1.4-2.5,2.9-3.7,4.5c0,0,0,0.1-0.1,0.1c0.3,0.8,0.6,1.6,0.9,2.4c0.2,0.4,0.3,0.9,0.5,1.4
				c0.8-1.4,1.7-2.7,2.6-4c0.5-0.7,1.1-1.4,1.6-2.1c0.9-0.5,1.8-1,2.8-1.5c2.1-1.1,4.4-2.1,6.6-3c0.8-0.3,1.7-0.7,2.5-1
				c0.9-0.4,1.8-0.8,2.7-1.3c0.8-0.4,1.5-1,2.1-1.5c-0.8,1.2-1.5,2.5-2.3,3.7c-2.1,3.5-4,7.1-5.6,10.8c-0.2,0.1-0.3,0.3-0.6,0.5
				l0.1,0c-1.3,0.8-2.7,1.4-4.2,2c-1.5,0.6-3,1.3-4.4,2c-0.8,0.4-1.5,0.8-2.3,1.2c0,0.2,0.1,0.4,0.1,0.7c0.3-0.1,0.6-0.3,0.8-0.4
				c1-0.4,2-0.9,2.9-1.3c0.8-0.4,1.7-0.8,2.5-1.1c1.4-0.6,2.8-1.3,4.1-2.2c0.1-0.1,0.2-0.2,0.3-0.2c-0.8,1.9-1.6,3.7-2.4,5.6
				c-0.9,2.2-1.6,4.5-2.4,6.8c-0.1,0-0.1,0.1-0.2,0.1c0,0,0,0,0,0c-0.9,0.6-1.9,1.1-2.9,1.6c-0.7,0.4-1.4,0.8-2.1,1.2
				c0,0.3,0,0.6-0.1,0.9c0.5-0.3,0.9-0.6,1.4-0.8c0.7-0.4,1.5-0.8,2.2-1.2c0.5-0.3,0.9-0.7,1.4-1c-1.2,3.5-2.4,7-3.5,10.6
				c-0.5,1.5-1,3.1-1.5,4.6c-1,0.9-1.9,1.8-2.7,2.8c-0.9,1.1-1.7,2.1-2.6,3.2c-0.1-0.7-0.1-1.4-0.2-2.2c0-0.4-0.1-0.7-0.1-1.1
				c-0.6,0.8-1.3,1.6-2.1,2.3c0.4,3,0.8,6,1.1,9c0,0.5,0.1,0.9,0.2,1.4c0,0.3,0.2,0.5,0.5,0.6c0.1,0,0.2,0.1,0.3,0.1
				c0.3,0,0.5-0.1,0.7-0.3c1.5-1.9,2.9-3.7,4.4-5.5c1.5-1.8,2.9-3.7,4.5-5.4c2.3-2.5,4.9-4.8,7.4-7.2c2.4-2.2,4.7-4.5,6.9-6.8
				c2.3-2.5,4.4-5.2,6.2-8.1c1.9-3.1,3.4-6.4,4.4-9.9c0.9-3,1.3-6,1.4-9.1c0.1-3.2-0.1-6.3-0.5-9.4c-0.4-3.2-1-6.3-1.6-9.5
				c-0.2-0.9-0.3-1.9-0.5-2.8c0.1,0.3,0.2,0.5,0.3,0.8c2.7,7.8,6.3,15.2,10.6,22.3c4.2,6.9,9.1,13.4,14.3,19.5
				c1.1,1.3,2.3,2.6,3.5,3.9c0,0.1,0,0.1,0,0.2c-0.5,0.4-1.1,0.9-1.6,1.3c-0.8,0.6-1.6,1.2-2.4,1.8c-0.1,0-0.1,0.1-0.2,0.1
				c-2,1.1-3.9,2.3-5.8,3.5c-1.9,1.3-3.7,2.6-5.5,4c-1.9,1.4-3.8,2.9-5.6,4.5c-3.6,3.1-7,6.3-10.6,9.3c-0.9,0.8-1.8,1.5-2.7,2.2
				c-2,0-4-0.1-5.9-0.3c-1-0.1-2.1-0.2-3.1-0.3c-0.2,0-0.4,0-0.7,0c-1.8,0-3.2,0.1-4.6,0.3c-0.9,0.1-1.9,0.3-2.9,0.7
				c-0.9,0.3-1.7,0.7-2.6,1.3c-0.7,0.5-1.3,1.1-1.7,1.9c-0.5,0.8-0.8,1.8-1,3c-0.2,1.2-0.1,2.5,0.1,3.6c0.1,0.8,0.3,1.5,0.5,2.3
				c0.2,0.8,0.6,1.6,1.1,2.5c0.7,1.2,1.6,2.3,2.8,3.3c0.5,0.4,1.1,0.8,1.8,1.2c0.8,0.4,1.6,0.7,2.3,0.8c0.6,0.1,1.2,0.2,1.7,0.2h0.4
				c0.4,0,0.8-0.1,1.2-0.1c0.3-0.1,0.7-0.2,1-0.3c1.6-0.5,2.9-1.3,4.1-2.4c0.8-0.8,1.6-1.8,2.2-3.1c0.6-1.2,1.2-2.6,1.7-4.4
				c0.3-0.9,0.5-1.9,0.8-2.9c0.2-0.9,0.5-1.9,0.8-2.8c0.1-0.8,0.3-1.5,0.5-2.2c0.1-0.5,0.3-1.1,0.5-1.6c0.4-0.3,0.9-0.6,1.3-0.9
				c4-2.8,7.9-5.6,11.9-8.5c3.8-2.8,7.4-5.6,11-8.6c1.5-1.2,3-2.5,4.5-3.8c0.2-0.1,0.4-0.2,0.6-0.4c1.4-1,2.7-2,3.8-3.3
				c0.1-0.1,0.1-0.1,0.2-0.2c-0.2,1.1-0.4,2.2-0.7,3.4c0,0,0,0,0,0c-1,4.6-2.3,9.2-3.7,13.7c-0.7,2.3-1.4,4.6-2.2,6.8
				c-0.4,1.1-0.8,2.3-1.2,3.4c-0.5,1.3-0.9,2.6-1.4,3.9c-0.8,2.3-1.7,4.5-2.6,6.7c-0.9,2.2-1.9,4.4-2.9,6.6
				c-0.3,0.6-0.5,1.1-0.8,1.6c-0.1,0-0.1,0-0.2,0c-0.6,0.4-1.2,0.7-1.9,1l-0.5,0.3c-1.1,0.6-2.1,1.2-3.2,1.8
				c-2.5,1.5-4.6,2.9-6.4,4.3c-2.2,1.7-3.8,3.4-4.9,5.1c-0.5,0.8-0.9,1.7-1.1,2.6c-0.2,0.9-0.3,1.9-0.1,2.8c0.2,0.8,0.5,1.6,1.2,2.5
				c0.4,0.5,0.8,0.9,1.2,1.3c0.5,0.5,1.1,0.9,1.8,1.4c0.6,0.4,1.2,0.7,1.8,1.1c0.6,0.3,1.2,0.6,1.8,0.8c1.1,0.4,2.2,0.7,3.3,0.8
				c0.2,0,0.4,0,0.6,0c0.6,0,1.3-0.1,1.9-0.3c0.8-0.2,1.5-0.6,2.2-1.2c0.5-0.4,1.1-1,1.5-1.8c0.5-0.7,0.8-1.5,1.2-2.5
				c0.4-1.3,0.8-2.7,1-4.5c0.2-1.5,0.3-3,0.3-5c0-1.1,0-2.3-0.1-3.5c0-0.3,0-0.5-0.1-0.8c-0.1-0.6-0.2-1.3-0.3-1.9
				c-0.1-0.6-0.2-1.2-0.3-1.8c-0.1-0.5-0.1-1.1-0.2-1.6c0.6-1.1,1.3-2.2,1.9-3.3c1.4-2.5,2.7-5,4-7.5c1.3-2.6,2.7-5.2,3.8-7.9
				c2.1-5,3.8-10.2,4.8-15.6c0.5-2.7,0.8-5.4,0.9-8.1c0.1-1,0-2,0-3c0.5,2.4,1.1,4.8,1.9,7.1c0.8,2.4,1.6,4.8,2.6,7.2
				c1,2.4,2,4.8,3.1,7.2c3.8,8.8,8.1,17.3,11.3,26.4c-0.2,0.5-0.3,1-0.5,1.5c-0.4,1.2-0.8,2.2-1.2,3.1l-0.1,0.3
				c-0.8,2.1-1.6,4.3-2.3,6.4c-0.9,2.6-1.5,4.9-1.9,7.1c-0.5,2.4-0.5,4.5-0.2,6.4c0.2,0.9,0.5,1.8,0.9,2.5c0.4,0.8,1.1,1.6,1.9,2.2
				c0.3,0.3,0.7,0.5,1.1,0.7c0.5,0.3,1,0.4,1.4,0.6c1,0.3,2.1,0.4,3.1,0.4c0.3,0,0.5,0,0.8,0c1.5-0.1,2.9-0.5,4.3-1.2
				c1.2-0.6,2.4-1.6,3.6-3c0.8-1,1.6-2.2,2.2-3.8c0.6-1.4,0.8-3,0.8-4.7c0-1.6-0.4-3.3-1.1-5.1c-0.8-1.9-2-3.6-3.1-5.1
				c-1.4-1.8-2.9-3.4-4.4-5c-0.7-0.7-1.3-1.4-2-2.1c-0.4-0.3-0.7-0.6-1.1-1c-0.3-0.2-0.6-0.5-0.9-0.7c-1.6-5.8-3.7-11.5-6-17.1
				c-2.3-5.7-4.9-11.3-7.3-17c-2.1-5.1-4.2-10.3-6-15.5c1,1,1.9,2,2.9,3c2.6,2.5,5.3,4.8,8,7.1c3.1,2.5,6.2,4.9,9.3,7.3l-0.3-0.3
				c2.5,1.9,5.1,3.8,7.7,5.8l-0.3-0.2c1,0.7,2,1.5,2.9,2.2l0,0c4.7,3.6,9.2,7.2,13.6,11.1c3.7,3.2,7.1,6.7,10.3,10.5
				c0.4,1.7,0.7,3.4,0.9,5.1c0,0,0,0.1,0,0.1c0.2,0.9,0.3,1.8,0.4,2.7c0.2,1,0.3,2,0.4,3c0.2,1.2,0.3,2.4,0.5,3.6
				c0.4,2.6,0.8,4.5,1.4,6.3c0.6,2.1,1.4,3.6,2.4,4.9c1.1,1.3,2.5,2.2,4.1,2.6c0.5,0.1,1.1,0.2,1.7,0.2c1.3,0,2.7-0.3,4.3-0.8
				c2.3-0.8,5.4-2.3,6.7-5.2c0.3-0.6,0.5-1.2,0.6-1.8c0.1-0.7,0.2-1.4,0.2-2c0-1.3-0.3-2.7-1-4.3c-0.4-1-1-1.9-1.5-2.7
				c-0.6-0.8-1.3-1.7-2.2-2.6c-1.4-1.4-3.2-2.7-5.5-4c-2.6-1.5-5.5-2.6-8.2-3.7c-1.2-0.4-2.3-0.9-3.4-1.4c0,0,0,0,0,0
				c-0.1,0-0.3-0.1-0.4-0.1c-0.1,0-0.2-0.1-0.3-0.1c-1-1.4-2.1-2.7-3.2-4.1c-4.4-5.4-9.4-10.2-14.6-14.8c-5.2-4.5-10.7-8.8-16-13.3
				c-5.4-4.5-10.8-9.2-15.7-14.3c-0.1-0.1-0.2-0.2-0.2-0.3c0.7,0,1.5,0,2.2,0c2.8,0.1,5.5,0.2,8.3,0.4c2,0.1,4,0.4,6,0.6
				c1.7,0.2,3.3,0.4,5,0.6c-0.1,0-0.2,0-0.4,0c5.2,0.7,10.3,1.5,15.4,2.4c2.6,0.5,5.2,1.1,7.8,1.8c1.5,0.4,3,0.9,4.4,1.4
				c0.7,0.9,1.4,1.7,2,2.7c0.3,0.5,0.6,1,0.9,1.5c1,1.3,1.8,2.7,2.7,4.1c2.1,3.4,4.3,6.8,7.6,9.3c0.9,0.7,1.9,1.3,3.2,1.8
				c1.1,0.5,2.3,0.8,3.7,1c0.5,0.1,1.1,0.1,1.7,0.1c0.6,0,1.2,0,1.7-0.1c1.1-0.1,2.2-0.5,3.3-1.1c0.9-0.5,1.7-1.2,2.4-2.1
				c0.7-0.9,1.2-2.1,1.6-3.6c0.3-1.2,0.4-2.4,0.3-3.8C716.2,334.3,716.2,333.7,716.1,333.2z M596.3,274.5c1.1-0.9,2.1-1.9,3.2-2.9
				c0.2-0.1,0.3-0.3,0.4-0.4c-0.2,0.4-0.4,0.7-0.5,1.1c-0.8,1.6-1.8,3.1-2.6,4.6c-1.8,0.8-3.7,1.6-5.6,2.4c-0.6,0.2-1.1,0.5-1.6,0.8
				c0.2-0.1,0.3-0.3,0.5-0.4C592.2,278,594.3,276.3,596.3,274.5z M592.3,284c-1.4,0.9-3,1.6-4.5,2.2c-0.8,0.3-1.5,0.6-2.3,0.9
				c-1,0.4-1.9,0.8-2.9,1.3c-1.8,0.9-3.6,2-5.4,3.1c-0.2,0.1-0.4,0.3-0.7,0.4c0.4-0.5,0.8-0.9,1.2-1.4l-0.2,0.3
				c3.3-3.5,7-6.7,10.8-9.7c0,0,0.1,0,0.1-0.1c1.1-0.5,2.3-1,3.4-1.5c1.2-0.5,2.3-0.9,3.4-1.5c0.4-0.2,0.8-0.4,1.2-0.6
				c-1.2,2-2.4,4-3.6,6C592.7,283.6,592.5,283.8,592.3,284C592.3,284,592.3,284,592.3,284z M567.9,342.9
				C567.9,342.9,567.9,342.9,567.9,342.9C567.9,342.9,567.9,342.9,567.9,342.9L567.9,342.9z M568.7,338.2c-0.1-1.1-0.2-2.3-0.3-3.4
				c1.3-1.4,2.6-2.9,3.9-4.4c0,0,0,0,0,0c0.4-0.5,0.8-0.9,1.3-1.4c-1.4,4.1-2.8,8.2-4.3,12.2c-0.1,0.2-0.3,0.3-0.4,0.5
				c0-0.2,0-0.4,0-0.6C568.9,340.2,568.8,339.2,568.7,338.2z M569.7,340.9c1.7-3.9,3.3-7.9,4.9-11.8c0,0.1,0,0.1,0,0.2
				c0,0.5,0.1,1,0.2,1.5c0.1,0.7,0.3,1.3,0.4,2c0.1,0.4,0.2,0.7,0.2,1.1c-0.7,0.8-1.4,1.7-2.1,2.5
				C572.1,337.8,570.9,339.4,569.7,340.9z M575.5,333.7c-0.2-1.7-0.6-3.3-0.7-5v0c0-0.1,0-0.2,0-0.3c1.5-3.8,3-7.5,4.5-11.2
				c0.1-0.1,0.1-0.3,0.2-0.4c0,0.3,0,0.6,0,1c0.1,1.1,0.3,2.2,0.6,3.3c0.3,1.1,0.6,2.1,0.9,3.2c0.3,1.1,0.5,2.2,0.7,3.3
				c-1,0.9-1.9,1.8-2.9,2.7C577.7,331.3,576.6,332.5,575.5,333.7z M581.9,327.4c-0.1-0.8-0.1-1.5-0.3-2.3c-0.2-1.1-0.5-2.2-0.7-3.3
				c-0.3-1.1-0.5-2.1-0.7-3.2c-0.2-0.8-0.2-1.7-0.3-2.5c1.6-3.8,3.2-7.5,4.8-11.2c0.3-0.6,0.6-1.2,0.9-1.8c0,0.4,0.1,0.8,0.1,1.3
				c0.1,1.5,0.4,3,0.7,4.5c0.3,1.2,0.8,2.3,1.2,3.4c0.6,1.3,1.1,2.7,1.6,4.1c0,0,0,0,0,0c0.2,0.6,0.4,1.2,0.5,1.8
				c0.1,0.5,0.1,1,0.2,1.6C587.3,322.3,584.6,324.8,581.9,327.4z M590.7,318.8C590.7,318.8,590.6,318.8,590.7,318.8
				c-0.1,0.1-0.1,0.1-0.1,0.1c-0.2,0.2-0.4,0.4-0.6,0.6c0-0.5,0-1,0-1.5c-0.1-1-0.3-1.9-0.6-2.8c-0.5-1.8-1.2-3.4-1.7-5.2
				c-0.8-2.5-1.3-5.1-1.8-7.7c1.5-3.3,3.1-6.6,4.8-9.8c0.6-1.1,1.2-2.1,1.7-3.2c0.3,0.6,0.6,1.3,0.9,2c0,0,0,0,0,0
				c0.4,1.2,0.6,2.3,0.9,3.5c0.4,1.6,0.9,3.3,1.4,4.9c0.5,1.6,0.9,3.2,1.3,4.8c0.4,1.6,0.7,3.1,0.9,4.7c-1,1.7-2,3.4-3.2,5
				C593.4,315.8,592,317.3,590.7,318.8z M601.8,298.9L601.8,298.9c-0.4,1.6-0.9,3.2-1.5,4.8c-0.7,1.8-1.5,3.5-2.3,5.1
				c0-0.1,0.1-0.1,0.1-0.2c-0.1,0.1-0.1,0.2-0.2,0.4c-0.2-4.3-1.2-8.5-2.4-12.6c-0.5-1.7-0.9-3.4-1.6-5c-0.3-0.6-0.6-1.3-1-1.9
				c-0.1-0.2-0.3-0.4-0.4-0.5c1.4-2.6,2.8-5.3,4.1-8c0.3-0.5,0.4-1.1,0.7-1.6c0.4,0.6,0.7,1.2,1,1.9c0.4,0.8,0.6,1.6,0.9,2.4
				c0,0,0,0,0,0c0.6,1.9,1.1,3.8,1.7,5.8c0.4,1.4,1,2.8,1.6,4.1C602.5,295.3,602.2,297.1,601.8,298.9z M602.8,286.9
				c0.1,1.9,0.1,3.8-0.1,5.7c0,0.1,0,0.2,0,0.4c-0.1-0.2-0.2-0.4-0.2-0.6c0,0,0,0,0,0c-0.8-2.6-1.3-5.3-2.1-7.9
				c-0.3-1.1-0.8-2.2-1.3-3.2c-0.4-0.8-0.9-1.5-1.5-2.2c0.6-1.4,1.3-2.8,1.8-4.2c0.6-1.5,1.1-3.1,1.5-4.6c0,0,0,0,0.1-0.1
				c0.2,1.7,0.4,3.4,0.7,5.1C602.1,279.3,602.6,283.1,602.8,286.9z"/>
		</g>
		<g>
			<path class="st2" d="M524.3,352.5c-0.5-2.6-0.9-5.2-1.1-7.8c0,0,0,0,0,0c-0.3-3.7-0.4-7.4-0.4-11.1c0-3.8,0.3-7.6,1-11.4v0
				c0-0.2,0.1-0.3,0.1-0.5c0,0-0.1-0.1-0.1,0c-0.5,1.2-0.9,2.5-1.3,3.7c-0.3,1.2-0.5,2.4-0.7,3.5c-0.4,2.7-0.5,5.4-0.4,8.1
				c0.1,2.6,0.5,5.2,1,7.7C522.9,347.4,523.5,350,524.3,352.5C524.2,352.5,524.2,352.6,524.3,352.5
				C524.2,352.6,524.3,352.5,524.3,352.5"/>
			<path class="st2" d="M497.5,353.4c0.1-2.3,0.4-4.7,0.8-7c0,0,0,0,0,0c0.5-2.9,1.3-5.6,2.1-8.4c0.8-2.9,1.8-5.7,2.8-8.5
				c0,0,0-0.1-0.1,0c-1.1,1.7-2.1,3.5-3,5.3c-0.9,1.9-1.5,4-2,6.1C497.3,345,497.2,349.2,497.5,353.4
				C497.5,353.4,497.5,353.4,497.5,353.4C497.5,353.4,497.5,353.4,497.5,353.4 M498.3,346.5C498.3,346.5,498.3,346.5,498.3,346.5
				C498.3,346.5,498.3,346.5,498.3,346.5"/>
			<path class="st2" d="M478.5,344.8c0.5-0.7,1.1-1.3,1.6-2l0,0c2.5-3,5.1-5.8,7.5-9c2.3-3.1,4.1-6.6,5.4-10.3c0,0,0-0.1-0.1,0
				c-2.3,3.5-4.8,6.9-7.2,10.3C483.2,337.5,480.8,341.1,478.5,344.8C478.5,344.8,478.5,344.8,478.5,344.8
				C478.5,344.8,478.5,344.8,478.5,344.8"/>
			<path class="st2" d="M466.1,334.3c4.2-2.5,8.4-5.1,12.1-8.3c1.8-1.5,3.4-3.2,4.9-5c1.7-2,3.1-4.1,4.4-6.4c0,0,0-0.1-0.1,0
				c-3.3,3.5-6.8,6.9-10.4,10.2c-1.8,1.7-3.6,3.3-5.4,4.9C469.9,331.3,468,332.8,466.1,334.3C466,334.3,466.1,334.3,466.1,334.3
				C466.1,334.3,466.1,334.3,466.1,334.3"/>
			<path class="st2" d="M528.6,352.9c0.1-1.9-1.5-3.7-3.4-3.7c-1.9,0-3.6,1.4-3.7,3.4c-0.1,1.9,1.5,3.7,3.4,3.7
				C526.9,356.3,528.5,354.9,528.6,352.9"/>
			<path class="st2" d="M501.8,353.6c0.1-2-1.5-3.9-3.5-3.9s-3.8,1.5-3.9,3.5c-0.1,2,1.5,3.9,3.5,3.9
				C500,357.1,501.7,355.6,501.8,353.6"/>
			<path class="st2" d="M482.3,344.5c0.1-1.7-1.4-3.5-3.2-3.5c-1.8,0-3.4,1.3-3.5,3.2c-0.1,1.7,1.4,3.5,3.2,3.5
				C480.6,347.7,482.2,346.4,482.3,344.5"/>
			<path class="st2" d="M469.6,334.6c0.1-2.2-1.7-4.4-4-4.4c-2.3,0-4.3,1.7-4.4,4c-0.1,2.2,1.7,4.4,4,4.4
				C467.5,338.6,469.5,336.9,469.6,334.6"/>
			<path class="st2" d="M463.2,271.7c-2.3,2.1-4.5,4.6-6.6,7.4c-2.2,2.9-4.1,5.8-5.5,8.8c-1.6,3.2-2.6,6.4-3,9.5
				c-0.5,3.3-0.3,6.5,0.7,9.7c0.9,3,2.6,5.9,5,8.2c1.9,1.9,4.5,3.4,7.6,4.3c2,0.6,4.3,1,6.9,1c0.6,0,1.2,0,1.7,0
				c2.8-0.1,5.8-0.7,8.8-1.7c2.7-0.8,5.3-2.1,7.8-3.6c2.1-1.3,4.3-3,7-5.4c3.8-3.4,7.4-7.6,11.1-13c3.6-5.1,6.7-10.6,9.5-16.5
				c2-4.4,3.9-9,5.4-13.9c-1.4,0-2.8-0.1-4.1-0.1c-7.7-0.2-15.3-0.5-23-0.9c-0.8,0.4-1.6,0.9-2.4,1.3c-3.3,1.9-6.6,4-9.8,6.2
				c0.1,0,0.1-0.1,0.2-0.1c-3.4,2.4-6.6,4.9-9.7,7.7c-3.1,2.8-6.1,5.9-8.8,9.1c0,0,0.1-0.1,0.1-0.1c-2.9,3.4-5.5,7-7.9,10.8
				c0,0,0,0,0,0c0,0,0,0,0-0.1c0.5-1,1-1.9,1.5-2.8c3.5-6.2,7.9-11.9,13-16.8c4.9-4.7,10.4-8.8,16.2-12.4c1.6-1,3.3-2,5-2.9
				c-0.8,0-1.5-0.1-2.3-0.1c-4.9-0.3-9.9-0.7-14.8-1.2C469.3,266.4,466.1,269,463.2,271.7 M463.2,306.5c5.6-7.5,11.9-14.5,19.1-20.6
				c3.4-2.8,7-5.5,10.7-7.9c4-2.6,8.2-5.1,12.4-7.4c0,0,0.1,0,0,0.1c-2.6,1.7-5.3,3.5-7.9,5.3c0,0,0,0,0,0c0,0,0,0,0,0l0,0
				c-6.2,4.4-12.2,9-17.9,14.1c-2.9,2.5-5.7,5.2-8.4,7.9C468.6,300.8,465.9,303.6,463.2,306.5L463.2,306.5
				C463.2,306.6,463.2,306.5,463.2,306.5 M497.7,276C497.7,276,497.6,276,497.7,276C497.6,276,497.7,276,497.7,276 M490.4,294.2
				c1.6-1.9,3.2-3.9,4.7-6c0,0,0,0,0,0c0,0,0,0,0,0.1c-1.6,2.7-3.3,5.4-5.3,7.9c-1.8,2.3-3.7,4.5-5.8,6.4c-2.2,2-4.6,3.9-7.2,5.5
				c-1.3,0.8-2.6,1.5-3.9,2.1c-1.2,0.6-2.5,1.1-3.8,1.5h0c0,0,0,0,0-0.1c2.4-1.2,4.8-2.6,7-4.1c0,0-0.1,0-0.1,0.1
				C481.5,303.9,486.2,299.2,490.4,294.2L490.4,294.2C490.4,294.2,490.4,294.2,490.4,294.2 M490.4,294.2
				C490.4,294.3,490.3,294.3,490.4,294.2C490.3,294.3,490.4,294.3,490.4,294.2"/>
			<path class="st2" d="M524.4,268.2c-0.1,8.2,0,16.9,0.8,25.9c0.4,5,1,9.5,1.6,13.7c0.7,4.6,1.5,8.7,2.4,12.4c1,4,2.3,7.5,3.8,10.7
				c1.5,3.2,3.3,5.8,5.3,7.8c2.1,2.1,4.7,3.6,7.3,4.2c1,0.2,2.1,0.4,3.2,0.4c1.9,0,4-0.4,6.2-1.1c5.2-1.7,9.6-4.6,12.8-8.5
				c0.8-1,1.6-2.2,2.3-3.4c0.6-1.1,1.2-2.3,1.9-4c0.9-2.3,1.5-4.8,1.9-8.1c0.6-5.1,0.2-10.7-1.2-17.1c-1.2-5.3-3.1-10.6-5.7-15.7
				c-3.1-6.2-7.3-11.9-12.5-17c-0.5-0.5-1.1-1.1-1.7-1.6c-3.2,0-6.3,0.1-9.5,0.1c-0.9,0-1.8,0-2.8,0c1.4,1.4,2.7,2.8,4,4.3
				c4.6,5,9,10.2,12.8,15.9c3.7,5.5,6.8,11.4,8.6,17.7c0.9,3.1,1.5,6.3,1.7,9.5c0.1,1.8,0.2,3.5,0.1,5.3c-0.1,1.7-0.2,3.4-0.5,5.1
				c0,0,0,0,0,0c0,0,0,0,0,0c0.2-2.7,0.1-5.3-0.1-8l0,0c-0.2-2.4-0.6-4.7-1.2-7.1c-0.5-2.3-1.3-4.6-2.1-6.8l0.1,0.2
				c-1.1-3-2.4-5.9-3.9-8.7c-1.5-2.8-3.2-5.5-5.1-8.1c-2.3-3.2-4.7-6.3-7.3-9.3c-2.5-2.9-5.2-5.8-7.8-8.6c-0.4-0.4-0.8-0.8-1.2-1.3
				c-1.5,0-3.1,0-4.6-0.1c1.2,2.6,2.4,5.1,3.7,7.6c1.5,3.1,3.1,6.2,4.6,9.3c1.6,3.1,3.1,6.2,4.6,9.3c1.5,3.1,2.9,6.2,4.3,9.4
				c1.3,3,2.5,6.1,3.4,9.3c1,3.2,1.8,6.5,2.4,9.8c0.5,3.2,0.8,6.4,0.8,9.6c0,0,0,0,0,0c0,0,0,0,0,0c-0.4-3.6-1-7.2-1.9-10.8
				c-0.9-3.7-2.1-7.4-3.5-11c0,0,0,0.1,0,0.1c-1.8-4.8-3.8-9.5-6-14.1c-2.2-4.5-4.4-9-6.7-13.5c-2.3-4.6-4.6-9.3-6.5-14.1
				c-0.1-0.3-0.3-0.7-0.4-1c-2.9,0-5.7-0.1-8.6-0.2L524.4,268.2z M546.7,326.3c-1.9-4.6-3.8-9.2-5.8-13.8c-1.9-4.5-3.7-9-5.4-13.5
				c-1.7-4.7-3.3-9.4-4.5-14.2c-0.6-2.5-1.2-5-1.6-7.6c-0.4-2.4-0.7-4.8-0.9-7.3c0,0,0.1-0.1,0.1,0c0.9,5.1,2.2,10.1,3.7,15.1
				c1.5,4.7,3.1,9.4,4.8,14.1l-0.1-0.2C540.4,308,544,317,546.7,326.3C546.8,326.3,546.8,326.3,546.7,326.3
				C546.8,326.3,546.7,326.3,546.7,326.3"/>
			<path class="st1" d="M493.4,278.8c-1.9,3.1-3.6,6.4-5.3,10.3c-1.4,3.3-2.7,6.9-3.6,10.6c-2,7.6-2.4,14.8-1.3,21.4
				c0.9,5.4,3.3,10.1,6.8,13.1c1.8,1.6,3.8,2.7,6,3.5c1.9,0.7,4.1,1.1,6.5,1.2l0.4,0h0.4c4.2,0,8.7-1.1,13.1-3.3
				c4.4-2.2,8.5-5.4,11.9-9.6c1.6-1.9,2.9-4.1,4.2-6.7c1.4-3,2.6-6.1,3.5-9.4c1.8-6.5,2.6-13.5,2.4-20.7c-0.2-7-1.5-14-3.8-20.9
				c-0.2-0.5-0.3-1-0.5-1.5c-6.2-0.1-12.4-0.3-18.5-0.5c-4.2-0.1-8.3-0.3-12.5-0.4C499.3,270,496.1,274.3,493.4,278.8"/>
			<path class="st2" d="M529.7,276.5C529.7,276.5,529.7,276.5,529.7,276.5C529.7,276.5,529.7,276.5,529.7,276.5L529.7,276.5
				c0,0.1,0,0.1,0,0.1C529.7,276.6,529.7,276.6,529.7,276.5c0.3,3.6,0.4,7,0.2,10.5c-0.2,3.5-0.6,6.9-1.2,10.4c0-0.1,0-0.2,0-0.3
				c-0.7,3.6-1.6,7.2-2.7,10.7c-1.2,3.7-2.7,7.3-4.3,10.9c0,0,0,0,0,0c0,0,0,0,0,0c0,0,0,0,0,0.1c-2.1,4.3-4.5,8.5-7.1,12.5
				c0,0,0,0.1,0,0.1c0,0,0,0,0,0c2.3-2.9,4.5-5.9,6.5-9.1c1.8-2.9,3.4-5.9,4.9-9.1c1.4-3.1,2.6-6.3,3.5-9.6c0.9-3.3,1.6-6.7,2-10.1
				c0.8-6.6,0.4-13.3-0.8-19.9c-0.4-2.3-0.9-4.5-1.6-6.7c-0.3,0-0.7,0-1,0C528.9,270,529.4,273.2,529.7,276.5"/>
			<path class="st2" d="M521.8,318.6C521.8,318.6,521.8,318.6,521.8,318.6C521.8,318.6,521.8,318.6,521.8,318.6"/>
			<path class="st2" d="M521.7,318.7C521.7,318.6,521.7,318.6,521.7,318.7C521.7,318.6,521.7,318.6,521.7,318.7"/>
			<path class="st2" d="M521.7,318.7C521.7,318.7,521.7,318.7,521.7,318.7C521.7,318.7,521.7,318.7,521.7,318.7"/>
			<path class="st2" d="M516.5,268.1c-1.6,5.7-2.7,11.6-3.4,17.5c-1.6,12.1-1.9,24.3-4.1,36.2c0,0,0,0,0,0
				c-0.8,4.5-1.9,8.9-3.4,13.2c0,0,0,0,0,0c0,0,0,0,0,0c3.8-9.5,5.6-19.6,6.9-29.7c1.4-10.5,2.1-21.1,4-31.5c0,0.1,0,0.1,0,0.2
				c0.5-2.5,1-5,1.6-7.5c-0.4,0-0.8,0-1.2,0C516.8,267,516.6,267.5,516.5,268.1"/>
			<path class="st2" d="M507.6,270.5c-1.9,2.9-3.6,6-5.3,9.1c-1.6,3.1-3.1,6.2-4.4,9.4c-2.6,6.4-4.3,13.2-4.9,20
				c-0.3,3.3-0.2,6.6,0,9.8c0.3,3.3,1,6.6,1.9,9.7c0,0,0,0,0,0c0,0,0,0,0,0c-0.2-1.1-0.3-2.1-0.4-3.2c0,0,0,0,0,0
				c-0.5-5.8-0.1-11.6,0.9-17.4c0-0.1,0-0.2,0.1-0.3v0.1c1-5.3,2.4-10.6,4.1-15.7c0.9-2.6,1.8-5.1,2.8-7.7c1-2.7,2.2-5.3,3.4-7.9
				l-0.1,0.2c1.7-3.5,3.5-7,5.5-10.4c-0.4,0-0.7,0-1.1,0C509.4,267.7,508.5,269.1,507.6,270.5"/>
			<path class="st2" d="M495.6,308.1c0-0.1,0-0.2,0.1-0.2C495.6,307.9,495.6,308,495.6,308.1"/>
		</g>
		<g>
			<path class="st1" d="M213.5,264c-4.7,0.2-9.4,0.5-14.1,0.7c-4.7,0.2-9.4,0.3-14,0.5c-4.7,0.1-9.4,0.2-14.1,0.3
				c-4.7,0.1-9.4,0.2-14.1,0.2c-2.5,0-4.9,0-7.4-0.1c-2.3-0.1-4.6-0.2-6.8-0.3c-4-0.2-8-0.3-12.1-0.4c-0.1,0-0.1,0-0.2,0
				c0,0-0.1,0.1-0.1,0.1c0,0-0.1-0.1-0.1-0.1c-0.1,0-0.2,0-0.3,0c3.6,3.7,8.2,7.1,13.9,10.3c5.6,3.1,12,5.8,19.5,8.3
				c6.1,2,12.5,3.6,19.7,5c4.9,0.9,10.5,2,15.9,2.5c1.8,0.2,3.5,0.3,5.2,0.3c0.9,0,1.8,0,2.6-0.1c2.5-0.1,4.6-0.6,6.5-1.3
				c1.7-0.7,3.3-1.9,4.5-3.6c1-1.5,1.7-3.4,2-5.9c0.3-2.5,0.1-5-0.2-6.9c-0.3-2.1-0.7-4.5-1.5-7.4c-0.2-0.8-0.4-1.5-0.6-2.3
				C216.2,263.9,214.9,263.9,213.5,264"/>
			<path class="st1" d="M584.8,137.2c4.7-0.2,9.4-0.5,14.1-0.7c4.7-0.2,9.4-0.3,14-0.5c4.7-0.1,9.4-0.2,14.1-0.3
				c4.7-0.1,9.4-0.2,14.1-0.2c2.5,0,4.9,0,7.4,0.1c2.3,0.1,4.6,0.2,6.8,0.3c4,0.2,8,0.3,12.1,0.4c0.1,0,0.1,0,0.2,0
				c0,0,0.1-0.1,0.1-0.1c0,0,0.1,0.1,0.1,0.1c0.1,0,0.2,0,0.3,0c-3.6-3.7-8.2-7.1-13.9-10.3c-5.6-3.1-12-5.8-19.5-8.3
				c-6.1-2-12.5-3.6-19.7-5c-4.9-0.9-10.5-2-15.9-2.5c-1.8-0.2-3.5-0.3-5.2-0.3c-0.9,0-1.8,0-2.6,0.1c-2.5,0.1-4.6,0.6-6.5,1.3
				c-1.7,0.7-3.3,1.9-4.5,3.6c-1,1.5-1.7,3.4-2,5.9c-0.3,2.5-0.1,5,0.2,6.9c0.3,2.1,0.7,4.5,1.5,7.4c0.2,0.8,0.4,1.5,0.6,2.3
				C582.2,137.3,583.5,137.3,584.8,137.2"/>
			<g>
				<path class="st2" d="M212.1,291.1L212.1,291.1c-6.2,4.1-13.1,7-20.2,9.4c-9,2.9-18.3,4.9-27.7,6.4c-9.7,1.5-19.4,2.4-29.2,2.9
					h0.1c-12.7,0.7-25.5,0.8-38.3,0.9c-16.4,0.1-32.8-0.2-49.1-1.9c-7.7-0.8-15.3-2-22.8-3.6c0,0-0.1,0-0.1,0
					c-3.8-0.8-7.6-1.8-11.3-2.9c-1.8-0.5-3.5-1.1-5.3-1.7c1.4-0.4,2.7-0.8,4.1-1.2c3.5-1.1,7-2.5,10.4-4c6.7-3,13.1-6.8,19-11.3
					c11.4-8.7,20.8-20.1,27.6-32.7c-0.1-0.1-0.2-0.2-0.3-0.2c-1.9,2.3-3.9,4.5-5.9,6.7l0.1-0.1c-8.9,9.7-18.8,18.5-29.8,25.7
					c-7.8,5-16.1,9.3-24.9,12.3c-2.5,0.8-5.1,1.5-7.6,2.2c-0.9,0.2-1.6,0.9-1.7,1.9c-0.1,0.9,0.5,1.9,1.4,2.2
					c0.9,0.3,1.8,0.5,2.7,0.8c0.9,0.3,1.8,0.6,2.7,0.9c2,0.6,3.9,1.2,5.9,1.8c3.9,1.1,7.8,2,11.7,2.8c8,1.7,16.2,2.8,24.4,3.6
					c16.3,1.6,32.7,1.7,49.1,1.5c12.7-0.2,25.5-0.3,38.2-1.1c13.7-0.8,27.4-2.1,40.8-5.2c7.8-1.8,15.4-4.2,22.7-7.6
					c6.8-3.1,13.2-7.1,18.6-12.2c0,0,0-0.1,0-0.1C215.6,288.7,213.8,290,212.1,291.1z"/>
				<path class="st2" d="M797.8,99.2c-0.9-0.3-1.8-0.5-2.7-0.8c-0.9-0.3-1.8-0.6-2.7-0.9c-2-0.6-3.9-1.2-5.9-1.8
					c-3.9-1.1-7.8-2-11.7-2.8c-8-1.7-16.2-2.8-24.4-3.6c-16.3-1.6-32.7-1.7-49.1-1.5c-12.7,0.2-25.5,0.3-38.2,1.1
					c-13.7,0.8-27.4,2.1-40.8,5.2c-7.8,1.8-15.4,4.2-22.7,7.6c-6.8,3.1-13.2,7.1-18.6,12.2c0,0,0,0.1,0,0.1c1.7-1.3,3.4-2.6,5.2-3.8
					h0c6.2-4.1,13.1-7,20.2-9.4c9-2.9,18.3-4.9,27.7-6.4c9.7-1.5,19.4-2.4,29.2-2.9h-0.1c12.7-0.7,25.5-0.8,38.3-0.9
					c16.4-0.1,32.8,0.2,49.1,1.9c7.7,0.8,15.3,2,22.8,3.6c0,0,0.1,0,0.1,0c3.8,0.8,7.6,1.8,11.3,2.9c1.8,0.5,3.5,1.1,5.3,1.7
					c-1.4,0.4-2.7,0.8-4.1,1.2c-3.5,1.1-7,2.5-10.4,4c-6.7,3-13.1,6.8-19,11.3c-11.4,8.7-20.8,20-27.6,32.7c0.1,0.1,0.2,0.2,0.3,0.2
					c1.9-2.3,3.9-4.5,5.9-6.7l-0.1,0.1c8.9-9.7,18.8-18.5,29.8-25.7c7.8-5,16.1-9.3,24.9-12.3c2.5-0.8,5.1-1.5,7.6-2.2
					c0.9-0.2,1.6-0.9,1.7-1.9C799.2,100.5,798.7,99.5,797.8,99.2z"/>
				<path class="st2" d="M790.9,207.1L790.9,207.1c-7.6-11.6-15.1-23.5-25-33.3c-4.8-4.8-9.9-9.1-15.5-12.9
					c-5.9-4-12.2-7.2-18.8-9.9c-0.6-0.3-1.3-0.5-2-0.7c0.3,0.2,0.7,0.4,1,0.7c8.2,4.4,15.8,9.7,22.8,15.9c4.7,4.3,9,9,12.9,13.9
					c4.1,5.1,8,10.4,11.5,15.9c1.6,2.4,3.1,4.8,4.5,7.3c0.2,0.3,0.4,0.6,0.6,1c-0.9-0.3-1.8-0.6-2.7-0.9c-3.6-1.1-7.3-2.1-11-2.9
					c-7.7-1.8-15.6-3.1-23.5-3.8c-7.9-0.8-15.8-1.1-23.7-0.8c-8,0.3-16,1.4-23.8,3.2c-2.2,0.5-4.3,1.1-6.5,1.7
					c-1.5,0.3-3,0.7-4.5,1.1c-1.6,0.4-3.2,0.8-4.8,1.4c0.2-3.8,0.3-7.7,0.4-11.5c0.2-6.7,0.2-13.5-0.4-20.2
					c-0.5-6.7-1.6-13.4-3.6-19.8c-1.8-5.9-4.5-11.6-8.6-16.3c0,0,0,0,0,0c0,0,0,0,0,0c-0.1-0.1-0.1-0.1-0.2-0.2c0,0-0.1-0.1-0.1-0.1
					c-0.2,0-0.4,0-0.6,0c-5.5-4.6-11.4-8.6-17.7-12c-6.5-3.5-13.3-6.3-20.3-8.6c-1.7-0.5-3.4-1-5.1-1.4c-1.9-0.5-3.8-0.9-5.7-1.3
					c-3.6-0.7-7.3-1.3-10.9-1.7c-1.8-0.2-3.5-0.4-5.3-0.5c-2-0.2-3.9-0.3-5.9-0.4c-3.7-0.1-7.4,0.1-10.9,1.2c0,0,0,0.1,0,0.1
					c0.5-0.1,0.9-0.2,1.4-0.2h0c3.3-0.3,6.6,0,9.9,0.5c4.3,0.7,8.6,1.5,12.8,2.3c4.4,0.9,8.9,1.8,13.3,2.9
					c8.6,2.1,17.1,4.7,25.2,8.2c3.3,1.5,6.6,3.1,9.8,4.9c0.9,0.5,1.9,1.1,2.8,1.7c-0.1,0-0.2-0.1-0.3-0.1c0,0,0,0,0,0c0,0,0,0,0,0
					c-2.1-1.2-4.3-2.1-6.5-3.1c0,0-0.1,0,0,0.1c1.9,1.2,3.8,2.3,5.8,3.3c0.8,0.4,1.6,0.8,2.3,1.3c-0.5-0.2-0.9-0.3-1.4-0.5
					c0,0-0.1,0,0,0.1c1,0.5,1.9,1,2.9,1.4c-0.4-0.1-0.9-0.2-1.3-0.3c0,0-0.1,0.1,0,0.1c0.1,0.1,0.3,0.1,0.4,0.2l0,0
					c0.5,0.2,0.9,0.4,1.4,0.6c-0.5-0.1-1-0.2-1.5-0.3c0,0-0.1,0.1,0,0.1c0.5,0.2,1.1,0.4,1.6,0.6c-0.4,0-0.8,0-1.1,0
					c0,0,0,0.1,0,0.1c0.3,0.1,0.5,0.1,0.8,0.2c0,0-0.1,0-0.1,0c0,0-0.1,0.1,0,0.1c0.5,0.1,1,0.2,1.6,0.3c0.2,0.1,0.5,0.1,0.7,0.2
					c-2.5-0.2-4.9-0.3-7.4-0.4c-10.9-0.6-21.8-0.9-32.7-1.2c-6.7-0.1-13.4-0.1-20.1-0.1c-7.9,0-15.9,0-23.8,0c-15.6,0-31.2,0-46.8,0
					c-32.8,0-65.6-0.1-98.4-0.2c-32.8-0.1-65.5-0.3-98.3-0.3c-11.7,0-23.4,0-35.1,0c-20.6,0-41.3,0-61.9,0.1
					c-15.7,0.1-31.4,0.1-47.2,0.2c-7.7,0-15.4,0-23.2,0.2c-6.6,0.1-13.3,0.4-19.9,0.6c-8.9,0.3-17.9,0.8-26.8,1.3
					c0.1-0.1,0.1-0.1,0.1-0.2c0,0,0-0.1,0-0.1c0,0,0,0,0,0c-0.1,0.1-0.1,0.2-0.2,0.3c-0.2,0-0.3,0-0.5,0c0,0,0,0.1,0,0.1
					c0.1,0,0.3,0,0.4,0c-2.3,2.6-4.2,5.6-5.7,8.7c-1.6,3.3-2.7,6.9-3.7,10.5c-0.9,3.7-1.6,7.5-2.2,11.2c-0.6,4.1-1.2,8.3-1.6,12.4
					c-0.5,5-0.8,10-0.9,15.1c-9.3,1.7-18.6,2.8-28,3.3c-8.8,0.5-17.6,0.6-26.5,0c-9-0.6-17.9-1.9-26.7-3.8
					c-3.5-0.8-6.9-1.7-10.4-2.6c-3.6-1-7.1-2.2-10.6-3.3c-0.3-0.1-0.7-0.2-1-0.2c-1,0-1.9,0.4-2.5,1.3c-0.3,0.4-0.5,0.9-0.5,1.5
					c-0.1,0.9,0.2,1.5,0.7,2.2c0.4,0.5,0.7,1.1,1.1,1.6c0,0,0,0,0,0c7.6,11.6,15.1,23.5,25,33.3c4.8,4.8,9.9,9.1,15.5,12.9
					c5.9,4,12.2,7.2,18.8,9.9c0.6,0.3,1.3,0.5,2,0.7c-0.3-0.2-0.7-0.5-1-0.7c-8.2-4.4-15.8-9.7-22.8-15.9c-4.7-4.3-9-9-12.9-13.9
					c-4.1-5.1-8-10.4-11.5-15.9c-1.6-2.4-3.1-4.8-4.5-7.3c-0.2-0.3-0.4-0.6-0.6-1c0.9,0.3,1.8,0.6,2.7,0.9c3.6,1.1,7.3,2.1,11,2.9
					c7.7,1.8,15.6,3.1,23.5,3.8c7.9,0.8,15.8,1.1,23.7,0.8c8-0.3,16-1.4,23.8-3.2c4-0.9,7.9-2.1,11.7-3.4c0,3,0,5.9,0.1,8.9
					c0.3,8.9,1.5,17.8,3.4,26.5c1.3,5.8,2.9,11.5,5.2,17c1.1,2.7,2.4,5.4,3.8,7.9c0.7,1.3,1.5,2.6,2.3,3.8c0.5,0.9,1.1,1.7,1.8,2.5
					l0.2,0.2c0,0,0,0,0,0c0.1,0.1,0.2,0.2,0.3,0.2c0,0,0.1,0,0.1,0c5.5,4.6,11.4,8.6,17.6,12c6.5,3.5,13.3,6.3,20.3,8.6
					c1.7,0.5,3.4,1,5.1,1.4c1.9,0.5,3.8,0.9,5.7,1.3c3.6,0.7,7.3,1.3,10.9,1.7c1.8,0.2,3.5,0.4,5.3,0.5c2,0.2,3.9,0.3,5.9,0.4
					c3.7,0.1,7.4-0.1,10.9-1.2c0,0,0-0.1,0-0.1c-0.5,0.1-0.9,0.2-1.4,0.2h0c-3.3,0.3-6.7,0-9.9-0.5c-4.3-0.7-8.5-1.5-12.7-2.3
					c-4.4-0.9-8.9-1.8-13.3-3c-8.6-2.1-17.1-4.7-25.2-8.2c-3.3-1.5-6.6-3.1-9.8-4.9c-0.9-0.5-1.9-1.1-2.8-1.7c0.1,0,0.2,0.1,0.3,0.1
					c0,0,0,0,0,0c0,0,0,0,0,0c2.1,1.2,4.3,2.1,6.5,3.1c0,0,0.1,0,0-0.1c-1.9-1.2-3.8-2.3-5.8-3.3c-0.8-0.4-1.6-0.8-2.3-1.3
					c0.5,0.2,0.9,0.3,1.4,0.5c0,0,0.1,0,0-0.1c-1-0.5-1.9-1-2.9-1.4c0.4,0.1,0.9,0.2,1.3,0.3c0,0,0.1-0.1,0-0.1
					c-0.1-0.1-0.3-0.1-0.4-0.2c0,0,0,0,0,0c-0.5-0.2-0.9-0.4-1.4-0.6c0.5,0.1,1,0.2,1.5,0.3c0,0,0.1-0.1,0-0.1
					c-0.5-0.2-1.1-0.4-1.6-0.6c0.4,0,0.8,0,1.1,0c0,0,0-0.1,0-0.1c-0.3-0.1-0.5-0.1-0.8-0.2c0,0,0.1,0,0.1,0c0,0,0.1-0.1,0-0.1
					c-0.5-0.1-1.1-0.2-1.6-0.3c-0.2-0.1-0.4-0.1-0.6-0.2c16.8,1.3,33.5,2.3,50.3,2.6c6.8,0.1,13.6,0,20.4,0h20.2
					c14.6,0,29.2,0.1,43.8,0.1c63.7,0.1,127.4,0.2,191.1,0.2c31.6,0,63.3-0.1,94.9-0.2c16.4-0.1,32.9-0.1,49.3-0.2
					c8,0,16-0.1,24.1-0.3c7.9-0.2,15.8-0.6,23.7-1c5.6-0.3,11.3-0.7,16.9-1c0.1-0.2,0.2-0.3,0.4-0.5c0,0,0.1-0.1,0.1-0.1
					c-13.7-0.9-27.4-1.7-41.1-2.1c-8-0.2-16-0.2-24.1-0.3c-8.4,0-16.7-0.1-25.1-0.1c-31.7-0.1-63.4-0.2-95.1-0.3
					c-19.3,0-38.7-0.1-58-0.1c-44.3,0-88.6,0.1-132.9,0.1c-29.3,0-58.7,0.1-88,0.1c-6.8,0-13.6,0-20.4,0c-5.6,0.1-11.2,0.2-16.8,0.4
					c-10,0.4-19.9,1-29.9,1.8c-1.9,0.1-3.7,0.3-5.6,0.4c-1.2-1.9-2.1-4-3-6c-4.8-11.5-7.1-24-8.8-36.3l0.1,0.5
					c-0.7-5.3-1.2-10.7-1.5-16.1c-0.3-5.6-0.3-11.2-0.2-16.7c0.2-5.4,0.5-10.8,0.9-16.1c0.4-4.6,0.8-9.2,1.4-13.8
					c0.8-5.5,1.9-11.1,4-16.3c0,0,0,0,0,0c1.2-2.8,2.7-5.4,4.5-7.9c13.9,0.8,27.7,1.4,41.6,1.8c15.3,0.4,30.7,0.3,46,0.4
					c31.6,0.1,63.2,0.2,94.9,0.2c32.9,0,65.8-0.2,98.7-0.3c32.7-0.1,65.4-0.2,98.1-0.2c31.9,0,63.7,0,95.6,0.1
					c6.9,0,13.8,0.1,20.7,0c7.3-0.1,14.6-0.3,21.9-0.6c7.5-0.3,15.1-0.6,22.6-1c1.3-0.1,2.6-0.2,3.8-0.2c0,0,0,0,0,0
					c1.8,2.4,3.2,5,4.4,7.7c0,0,0,0,0,0c2,4.8,3.2,9.9,3.9,15.1c0,0,0,0,0,0c1.2,9.3,1,18.7,0.6,28c-0.2,4.2-0.4,8.4-0.6,12.6
					c-0.3,5.9-0.9,11.8-1.6,17.6c0,0.1,0,0.3-0.1,0.4c-1.1,7.9-2.4,15.8-4.2,23.6c-0.9,3.9-1.9,7.8-3,11.7c-0.6,2-1.2,4-1.8,6
					c-0.6,1.9-1.1,3.7-1.8,5.5c0.2-0.2,0.4-0.5,0.6-0.7c0.8-1.4,1.5-2.9,2.2-4.4c0.9-2,1.9-4.1,2.8-6.1c1.7-4,3.2-8,4.5-12.1
					c2.7-8.5,4.5-17.1,5.5-26c0.3-2.3,0.4-4.7,0.6-7c1.3-0.4,2.5-0.7,3.8-1.1c9.4-1.8,19-2.8,28.5-3.4c8.8-0.5,17.6-0.6,26.5,0
					c9,0.6,17.9,1.9,26.7,3.8c3.5,0.8,6.9,1.7,10.4,2.6c3.6,1,7.1,2.2,10.6,3.3c0.3,0.1,0.7,0.2,1,0.2c1,0,1.9-0.4,2.5-1.3
					c0.3-0.4,0.5-0.9,0.5-1.5c0.1-0.9-0.2-1.5-0.7-2.2C791.6,208.1,791.2,207.6,790.9,207.1z M129.8,265.4c-0.1,0-0.2-0.1-0.3-0.1
					c0.1,0,0.1,0,0.2,0C129.7,265.3,129.8,265.3,129.8,265.4z M668.6,135.9c0.1,0,0.2,0.1,0.3,0.1c-0.1,0-0.1,0-0.2,0
					C668.6,135.9,668.6,135.9,668.6,135.9z M682.5,205c-0.1,0-0.1,0.1-0.2,0.1c0,0,0,0,0,0C682.4,205,682.4,205,682.5,205z"/>
				<path class="st2" d="M289.9,247.9c-2.4,0-4.8,0-7.2,0c-8.5,0-17.1,0-25.7,0c-4.1,0-8.3,0-12.4,0c-13.4,0-26.8,0-40.2,0
					c-8.7,0-17.4,0.1-26.1,0.4c-8.5,0.2-17,0.6-25.4,0.9c-3.2,0.1-6.4,0.2-9.6,0.3c0,0,0,0.1,0,0.1c17,0.7,34,1.3,51,1.5
					c8.8,0.1,17.6,0.1,26.4,0.1c8.8,0,17.7,0,26.5,0c17.4,0,34.9,0,52.3-0.1c8.6,0,17.2-0.1,25.9-0.3c8.6-0.2,17.1-0.5,25.7-0.8
					c3.2-0.1,6.4-0.3,9.7-0.4c0,0,0-0.1,0-0.1c-8.6-0.4-17.2-0.7-25.8-1c-8.4-0.3-16.9-0.4-25.3-0.5
					C303.1,247.9,296.5,247.9,289.9,247.9z"/>
				<path class="st2" d="M400.5,249c-3.3,0.1-6.5,0.3-9.8,0.5c0,0,0,0.1,0,0.1c6.7,0.4,13.4,0.8,20,0.8c6.6,0.1,13.3-0.3,19.9-0.8
					c0,0,0-0.1,0-0.1c-6.3-0.5-12.7-0.8-19-0.8c-0.3,0-0.6,0-0.8,0C407.4,248.7,404,248.8,400.5,249z"/>
				<path class="st2" d="M547,251.3c8.6-0.3,17.1-0.8,25.7-1.4c1.3-0.1,2.5-0.2,3.8-0.3c0,0,0-0.1,0-0.1c-8.4-0.6-16.8-1.1-25.2-1.5
					c-8.1-0.4-16.2-0.6-24.4-0.6c-0.4,0-0.8,0-1.2,0c-8.3,0-16.6,0.3-24.9,0.7c-7.8,0.3-15.6,0.8-23.5,1.2c-1.5,0.1-3,0.1-4.5,0.2
					c0,0,0,0.1,0,0.1c16.3,0.7,32.5,1.8,48.8,2C530.1,251.7,538.6,251.6,547,251.3z"/>
				<path class="st2" d="M592,157c9.1-0.1,18.1-0.1,27.2-0.3c14.7-0.3,29.3-0.8,44-1.4c0,0,0-0.1,0-0.1c-17.4-0.6-34.8-1.3-52.2-1.5
					c-9.1-0.1-18.2-0.1-27.3-0.2c-6.6,0-13.1-0.1-19.7-0.1c-2.7,0-5.4,0-8,0c-7.6,0.1-15.1,0.3-22.7,0.6c-7,0.3-14.1,0.7-21.1,1.2
					c0,0,0,0.1,0,0.1c3.9,0.2,7.8,0.5,11.7,0.7c4.3,0.2,8.6,0.4,12.9,0.6c9.2,0.3,18.4,0.5,27.6,0.5c4.6,0,9.2,0,13.8-0.1
					C582.9,157.1,587.5,157.1,592,157z"/>
				<path class="st2" d="M485.6,156c2.9-0.1,5.8-0.3,8.7-0.5c0.1,0,0.1-0.1,0-0.1c-5.5-0.4-11-0.7-16.5-0.8c-0.6,0-1.1,0-1.7,0
					c-5.3,0-10.6,0.3-15.9,0.8c-0.1,0-0.1,0.1,0,0.1c5.6,0.5,11.3,0.8,17,0.8C480,156.2,482.8,156.1,485.6,156z"/>
			</g>
		</g>
	</g>
	<g>
		<rect x="125.4" y="182.7" class="st3" width="540.5" height="35.7"/>
		<path class="st4" d="M164.4,208.9v3.5h-20.1v-2.7l11.4-11c1.4-1.3,2.3-2.5,2.8-3.5c0.5-1,0.7-2,0.7-2.9c0-1.5-0.5-2.6-1.5-3.4
			c-1-0.8-2.5-1.2-4.4-1.2c-3.1,0-5.5,1-7.2,3l-2.7-2.4c1.1-1.3,2.5-2.4,4.3-3.1c1.8-0.7,3.8-1.1,5.9-1.1c2.9,0,5.3,0.7,7,2.1
			c1.7,1.4,2.6,3.3,2.6,5.7c0,1.5-0.3,2.9-1,4.2c-0.6,1.3-1.9,2.9-3.6,4.6l-8.6,8.2H164.4z"/>
		<path class="st4" d="M187.9,184.4v2.7l-11.3,25.3h-4.2l11.1-24.5h-12.8v5h-3.8v-8.5H187.9z"/>
		<path class="st4" d="M223.9,182.7v29.7h-3.7v-3.4c-0.9,1.2-1.9,2.1-3.2,2.7s-2.7,0.9-4.3,0.9c-2.1,0-3.9-0.5-5.5-1.4
			c-1.6-0.9-2.9-2.2-3.8-3.8c-0.9-1.6-1.4-3.5-1.4-5.7s0.5-4,1.4-5.6c0.9-1.6,2.2-2.9,3.8-3.8c1.6-0.9,3.5-1.4,5.5-1.4
			c1.5,0,2.9,0.3,4.2,0.9c1.3,0.6,2.3,1.4,3.2,2.5v-11.7H223.9z M216.7,208.4c1.1-0.6,1.9-1.5,2.6-2.6c0.6-1.1,0.9-2.4,0.9-3.9
			s-0.3-2.8-0.9-3.9c-0.6-1.1-1.5-2-2.6-2.6c-1.1-0.6-2.3-0.9-3.6-0.9c-1.4,0-2.6,0.3-3.7,0.9c-1.1,0.6-1.9,1.5-2.6,2.6
			c-0.6,1.1-0.9,2.4-0.9,3.9s0.3,2.8,0.9,3.9c0.6,1.1,1.5,2,2.6,2.6c1.1,0.6,2.3,0.9,3.7,0.9C214.4,209.3,215.6,209,216.7,208.4z"/>
		<path class="st4" d="M250.3,203.1h-17.2c0.2,1.9,1.1,3.4,2.5,4.5c1.4,1.1,3.1,1.7,5.2,1.7c2.5,0,4.6-0.9,6.1-2.6l2.1,2.5
			c-1,1.1-2.2,2-3.6,2.6c-1.4,0.6-3,0.9-4.8,0.9c-2.2,0-4.2-0.5-6-1.4s-3.1-2.2-4-3.9s-1.4-3.5-1.4-5.6c0-2.1,0.5-3.9,1.4-5.6
			c0.9-1.7,2.2-2.9,3.8-3.9c1.6-0.9,3.4-1.4,5.5-1.4c2,0,3.8,0.5,5.4,1.4c1.6,0.9,2.8,2.2,3.7,3.9c0.9,1.7,1.3,3.5,1.3,5.7
			C250.4,202.2,250.4,202.6,250.3,203.1z M235.3,195.9c-1.2,1.1-2,2.6-2.2,4.4h13.6c-0.2-1.8-0.9-3.2-2.2-4.4
			c-1.2-1.1-2.8-1.7-4.6-1.7S236.5,194.8,235.3,195.9z"/>
		<path class="st4" d="M291.1,184.4v28h-3.3L271,191.5v20.9h-4v-28h3.3l16.8,20.9v-20.9H291.1z"/>
		<path class="st4" d="M302.3,211.3c-1.7-0.9-3-2.2-3.9-3.9c-0.9-1.6-1.4-3.5-1.4-5.6s0.5-3.9,1.4-5.6c0.9-1.6,2.3-2.9,3.9-3.8
			c1.7-0.9,3.6-1.4,5.7-1.4s4,0.5,5.7,1.4c1.7,0.9,3,2.2,3.9,3.8c0.9,1.6,1.4,3.5,1.4,5.6s-0.5,3.9-1.4,5.6
			c-0.9,1.6-2.3,2.9-3.9,3.9c-1.7,0.9-3.6,1.4-5.7,1.4S304,212.2,302.3,211.3z M311.7,208.4c1.1-0.6,1.9-1.5,2.5-2.6
			c0.6-1.1,0.9-2.4,0.9-3.9s-0.3-2.8-0.9-3.9c-0.6-1.1-1.5-2-2.5-2.6c-1.1-0.6-2.3-0.9-3.7-0.9c-1.4,0-2.6,0.3-3.7,0.9
			c-1.1,0.6-1.9,1.5-2.6,2.6c-0.6,1.1-0.9,2.4-0.9,3.9s0.3,2.8,0.9,3.9c0.6,1.1,1.5,2,2.6,2.6c1.1,0.6,2.3,0.9,3.7,0.9
			C309.4,209.3,310.6,209,311.7,208.4z"/>
		<path class="st4" d="M342.5,191.2l-9.3,21.2h-3.9l-9.3-21.2h4l7.3,17l7.4-17H342.5z"/>
		<path class="st4" d="M346.2,186.4c-0.5-0.5-0.7-1.1-0.7-1.8s0.2-1.3,0.7-1.8c0.5-0.5,1.1-0.7,1.9-0.7c0.7,0,1.4,0.2,1.9,0.7
			c0.5,0.5,0.7,1,0.7,1.7c0,0.7-0.2,1.3-0.7,1.8c-0.5,0.5-1.1,0.7-1.9,0.7C347.3,187.1,346.7,186.9,346.2,186.4z M346.1,191.2h3.8
			v21.2h-3.8V191.2z"/>
		<path class="st4" d="M376.3,203.1h-17.2c0.2,1.9,1.1,3.4,2.5,4.5c1.4,1.1,3.1,1.7,5.2,1.7c2.5,0,4.6-0.9,6.1-2.6l2.1,2.5
			c-1,1.1-2.2,2-3.6,2.6c-1.4,0.6-3,0.9-4.8,0.9c-2.2,0-4.2-0.5-6-1.4s-3.1-2.2-4-3.9s-1.4-3.5-1.4-5.6c0-2.1,0.5-3.9,1.4-5.6
			c0.9-1.7,2.2-2.9,3.8-3.9c1.6-0.9,3.4-1.4,5.5-1.4c2,0,3.8,0.5,5.4,1.4c1.6,0.9,2.8,2.2,3.7,3.9c0.9,1.7,1.3,3.5,1.3,5.7
			C376.4,202.2,376.4,202.6,376.3,203.1z M361.3,195.9c-1.2,1.1-2,2.6-2.2,4.4h13.6c-0.2-1.8-0.9-3.2-2.2-4.4
			c-1.2-1.1-2.8-1.7-4.6-1.7S362.6,194.8,361.3,195.9z"/>
		<path class="st4" d="M414.6,193.3c1.6,1.5,2.3,3.8,2.3,6.9v12.2h-3.8v-11.8c0-2.1-0.5-3.6-1.4-4.6c-0.9-1-2.3-1.6-4.1-1.6
			c-1.9,0-3.5,0.6-4.6,1.8s-1.7,3-1.7,5.2v10.9h-3.8v-11.8c0-2.1-0.5-3.6-1.4-4.6c-0.9-1-2.3-1.6-4.1-1.6c-1.9,0-3.5,0.6-4.6,1.8
			c-1.1,1.2-1.7,3-1.7,5.2v10.9h-3.8v-21.2h3.7v3.2c0.8-1.1,1.8-1.9,3-2.5c1.3-0.6,2.7-0.9,4.3-0.9c1.7,0,3.1,0.3,4.4,1
			c1.3,0.7,2.3,1.6,3,2.9c0.8-1.2,1.9-2.2,3.3-2.9c1.4-0.7,3-1,4.8-1C410.9,191,413,191.8,414.6,193.3z"/>
		<path class="st4" d="M440.8,192.4c1.6,0.9,2.9,2.2,3.8,3.8c0.9,1.6,1.4,3.5,1.4,5.6s-0.5,4-1.4,5.7c-0.9,1.6-2.2,2.9-3.8,3.8
			c-1.6,0.9-3.5,1.4-5.5,1.4c-1.6,0-3-0.3-4.3-0.9s-2.4-1.5-3.2-2.7v3.4H424v-29.7h3.8v11.7c0.9-1.1,1.9-2,3.2-2.5
			c1.3-0.6,2.7-0.9,4.2-0.9C437.3,191,439.2,191.5,440.8,192.4z M438.6,208.4c1.1-0.6,1.9-1.5,2.6-2.6c0.6-1.1,0.9-2.4,0.9-3.9
			s-0.3-2.8-0.9-3.9c-0.6-1.1-1.5-2-2.6-2.6c-1.1-0.6-2.3-0.9-3.7-0.9c-1.3,0-2.5,0.3-3.6,0.9c-1.1,0.6-1.9,1.5-2.6,2.6
			c-0.6,1.1-0.9,2.4-0.9,3.9s0.3,2.8,0.9,3.9c0.6,1.1,1.5,2,2.6,2.6c1.1,0.6,2.3,0.9,3.6,0.9C436.3,209.3,437.5,209,438.6,208.4z"/>
		<path class="st4" d="M457.9,192c1.3-0.6,2.9-1,4.8-1v3.7c-0.2,0-0.5,0-0.9,0c-2.1,0-3.7,0.6-4.9,1.9c-1.2,1.2-1.8,3-1.8,5.3v10.6
			h-3.8v-21.2h3.7v3.6C455.6,193.5,456.6,192.6,457.9,192z"/>
		<path class="st4" d="M486.3,203.1h-17.2c0.2,1.9,1.1,3.4,2.5,4.5c1.4,1.1,3.1,1.7,5.2,1.7c2.5,0,4.6-0.9,6.1-2.6l2.1,2.5
			c-1,1.1-2.2,2-3.6,2.6c-1.4,0.6-3,0.9-4.8,0.9c-2.2,0-4.2-0.5-6-1.4s-3.1-2.2-4-3.9s-1.4-3.5-1.4-5.6c0-2.1,0.5-3.9,1.4-5.6
			c0.9-1.7,2.2-2.9,3.8-3.9c1.6-0.9,3.4-1.4,5.5-1.4c2,0,3.8,0.5,5.4,1.4c1.6,0.9,2.8,2.2,3.7,3.9c0.9,1.7,1.3,3.5,1.3,5.7
			C486.4,202.2,486.4,202.6,486.3,203.1z M471.3,195.9c-1.2,1.1-2,2.6-2.2,4.4h13.6c-0.2-1.8-0.9-3.2-2.2-4.4
			c-1.2-1.1-2.8-1.7-4.6-1.7S472.5,194.8,471.3,195.9z"/>
		<path class="st4" d="M522.5,182.7v29.7h-3.7v-3.4c-0.9,1.2-1.9,2.1-3.2,2.7s-2.7,0.9-4.3,0.9c-2.1,0-3.9-0.5-5.5-1.4
			c-1.6-0.9-2.9-2.2-3.8-3.8c-0.9-1.6-1.4-3.5-1.4-5.7s0.5-4,1.4-5.6c0.9-1.6,2.2-2.9,3.8-3.8c1.6-0.9,3.5-1.4,5.5-1.4
			c1.5,0,2.9,0.3,4.2,0.9c1.3,0.6,2.3,1.4,3.2,2.5v-11.7H522.5z M515.2,208.4c1.1-0.6,1.9-1.5,2.6-2.6c0.6-1.1,0.9-2.4,0.9-3.9
			s-0.3-2.8-0.9-3.9c-0.6-1.1-1.5-2-2.6-2.6c-1.1-0.6-2.3-0.9-3.6-0.9c-1.4,0-2.6,0.3-3.7,0.9c-1.1,0.6-1.9,1.5-2.6,2.6
			c-0.6,1.1-0.9,2.4-0.9,3.9s0.3,2.8,0.9,3.9c0.6,1.1,1.5,2,2.6,2.6c1.1,0.6,2.3,0.9,3.7,0.9C512.9,209.3,514.1,209,515.2,208.4z"/>
		<path class="st4" d="M548.8,203.1h-17.2c0.2,1.9,1.1,3.4,2.5,4.5c1.4,1.1,3.1,1.7,5.2,1.7c2.5,0,4.6-0.9,6.1-2.6l2.1,2.5
			c-1,1.1-2.2,2-3.6,2.6c-1.4,0.6-3,0.9-4.8,0.9c-2.2,0-4.2-0.5-6-1.4s-3.1-2.2-4-3.9s-1.4-3.5-1.4-5.6c0-2.1,0.5-3.9,1.4-5.6
			c0.9-1.7,2.2-2.9,3.8-3.9c1.6-0.9,3.4-1.4,5.5-1.4c2,0,3.8,0.5,5.4,1.4c1.6,0.9,2.8,2.2,3.7,3.9c0.9,1.7,1.3,3.5,1.3,5.7
			C548.9,202.2,548.9,202.6,548.8,203.1z M533.8,195.9c-1.2,1.1-2,2.6-2.2,4.4h13.6c-0.2-1.8-0.9-3.2-2.2-4.4
			c-1.2-1.1-2.8-1.7-4.6-1.7S535,194.8,533.8,195.9z"/>
		<path class="st4" d="M582.9,208.9v3.5h-20.1v-2.7l11.4-11c1.4-1.3,2.3-2.5,2.8-3.5c0.5-1,0.7-2,0.7-2.9c0-1.5-0.5-2.6-1.5-3.4
			c-1-0.8-2.5-1.2-4.4-1.2c-3.1,0-5.5,1-7.2,3l-2.7-2.4c1.1-1.3,2.5-2.4,4.3-3.1c1.8-0.7,3.8-1.1,5.9-1.1c2.9,0,5.3,0.7,7,2.1
			c1.7,1.4,2.6,3.3,2.6,5.7c0,1.5-0.3,2.9-1,4.2c-0.6,1.3-1.9,2.9-3.6,4.6l-8.6,8.2H582.9z"/>
		<path class="st4" d="M591.6,211c-1.7-1.1-3.1-2.8-4.1-4.9c-1-2.2-1.5-4.7-1.5-7.7s0.5-5.5,1.5-7.7c1-2.2,2.3-3.8,4.1-4.9
			c1.7-1.1,3.7-1.7,5.9-1.7c2.2,0,4.1,0.6,5.9,1.7c1.7,1.1,3.1,2.8,4.1,4.9c1,2.2,1.5,4.7,1.5,7.7s-0.5,5.5-1.5,7.7
			c-1,2.2-2.3,3.8-4.1,4.9c-1.7,1.1-3.7,1.7-5.9,1.7C595.3,212.7,593.4,212.2,591.6,211z M602.9,206.4c1.3-1.8,2-4.5,2-8
			c0-3.5-0.7-6.2-2-8c-1.3-1.8-3.1-2.8-5.4-2.8c-2.3,0-4.1,0.9-5.4,2.8c-1.3,1.8-2,4.5-2,8c0,3.5,0.7,6.2,2,8
			c1.3,1.8,3.2,2.8,5.4,2.8C599.8,209.2,601.6,208.3,602.9,206.4z"/>
		<path class="st4" d="M632.3,208.9v3.5h-20.1v-2.7l11.4-11c1.4-1.3,2.3-2.5,2.8-3.5c0.5-1,0.7-2,0.7-2.9c0-1.5-0.5-2.6-1.5-3.4
			c-1-0.8-2.5-1.2-4.4-1.2c-3.1,0-5.5,1-7.2,3l-2.7-2.4c1.1-1.3,2.5-2.4,4.3-3.1c1.8-0.7,3.8-1.1,5.9-1.1c2.9,0,5.3,0.7,7,2.1
			c1.7,1.4,2.6,3.3,2.6,5.7c0,1.5-0.3,2.9-1,4.2c-0.6,1.3-1.9,2.9-3.6,4.6l-8.6,8.2H632.3z"/>
		<path class="st4" d="M644.3,184.4v28h-4v-24.5H634v-3.5H644.3z"/>
	</g>
</g>
</svg>
