<?xml version="1.0" encoding="utf-8"?>
<!-- Generator: Adobe Illustrator 24.0.0, SVG Export Plug-In . SVG Version: 6.00 Build 0)  -->
<svg version="1.1" xmlns="http://www.w3.org/2000/svg" xmlns:xlink="http://www.w3.org/1999/xlink" x="0px" y="0px"
	 viewBox="0 0 500.2 500.2" style="enable-background:new 0 0 500.2 500.2;" xml:space="preserve">
<style type="text/css">
	.st0{fill:url(#SVGID_1_);}
	.st1{fill:url(#SVGID_2_);}
	.st2{fill:url(#SVGID_3_);}
	.st3{fill:url(#SVGID_4_);}
	.st4{display:none;}
	.st5{display:inline;}
	.st6{fill:none;stroke:#FFFFFF;stroke-width:1.5;stroke-miterlimit:10;}
	.st7{fill:none;stroke:#FFFFFF;stroke-width:1.5;stroke-miterlimit:10;stroke-dasharray:12.1214,12.1214;}
</style>
<g id="Ñëîé_2">
	
		<linearGradient id="SVGID_1_" gradientUnits="userSpaceOnUse" x1="69.9411" y1="569.9412" x2="569.9411" y2="69.9411" gradientTransform="matrix(6.123234e-17 1 -1 6.123234e-17 500.2045 3.160205e-05)">
		<stop  offset="0" style="stop-color:#BE965D"/>
		<stop  offset="0.2784" style="stop-color:#976F40"/>
		<stop  offset="0.4259" style="stop-color:#C99B61"/>
		<stop  offset="0.5584" style="stop-color:#F0BE7B"/>
		<stop  offset="0.6275" style="stop-color:#FFCB85"/>
		<stop  offset="0.7085" style="stop-color:#EEBC79"/>
		<stop  offset="0.8693" style="stop-color:#C0935B"/>
		<stop  offset="1" style="stop-color:#976F40"/>
	</linearGradient>
	<path class="st0" d="M500,500.2v-23.8V371.6c1.8-15.5-8.2-32.5-30.2-31.5c-1.3-3.6-3.3-6.8-5.9-9.3c0.6-2.5,0.8-4.6,0.7-6.9
		c40.4-13.3,15.9-70.5-21.4-51.2c-1.5-1.6-3.2-2.9-5.2-4.1c0-3.7-0.8-7.5-2.5-10.9c14.5-13.2,13.3-30.1,1.5-41.4
		c-12.6-12.1-29.7-11.1-41.5,3.1c-2.5-1.1-5-1.7-7.8-1.9c-1.4-3.2-3.4-6.1-6-8.4c17.7-38.4-40.7-59.7-52.1-19
		c-8.5-0.2-15.8,4-20.2,10.7c-1-2.1-2.4-4.1-4.1-5.8c-1.7-1.7-3.6-3.1-5.8-4.1c6.8-4.4,10.9-11.8,10.7-20.2
		c40.7-11.4,19.4-69.8-19-52.1c-2.3-2.6-5.2-4.6-8.4-6c-0.2-2.8-0.9-5.3-1.9-7.8C295,92.8,296,75.7,284,63.1
		c-11.3-11.8-28.2-13-41.4,1.5c-3.5-1.7-7.2-2.5-10.9-2.5c-1.1-1.9-2.5-3.7-4.1-5.2c19.3-37.3-37.9-61.8-51.2-21.4
		c-2.3-0.1-4.4,0.1-6.9,0.7c-2.5-2.6-5.7-4.6-9.3-5.9c1-22-16-32-31.5-30.2H23.8H0v500H500z M438.8,425.9
		c11.3,0.2,37.1,2.3,27.9,19.1c-8.2,15.1-26.1-4.9-32.1-12c0,0,0,0,0-0.1c-0.2-0.2-0.4-0.5-0.5-0.7c0,0,0,0,0,0
		c-0.1-0.2-0.2-0.5-0.3-0.7c0-0.1,0-0.2-0.1-0.2c-0.5-2,0.3-4.4,2.5-5.2C437,425.7,437.9,425.6,438.8,425.9z M440,403.3
		c9.6,0.9,13,12.6,2.1,14.4c-9.8,1.6-21.1,1.3-31.8-0.2c7.7,7.1,14.6,15.1,20.3,23.4c6.2,9.2-4.3,15.7-11.6,8.6
		c-6.4-6.2-11.1-14.3-17-21c-6-6.8-12.7-12.6-20.6-17.1c-14.3-8.1-30.2-12.9-43.4-23c-0.2-0.2-0.4-0.3-0.5-0.5c0,0,0,0-0.1-0.1
		c0,0-0.1-0.1-0.1-0.1c-1.7-1.5-1.5-4.2,0-5.9c0.9-1.2,2.2-1.8,3.7-1.4c0.1,0,0.2,0,0.4,0c16.2,3.7,30.1,12.7,45.5,18.4
		c8.9,3.3,18,4.7,27.5,4.9C422.8,403.9,431.6,402.5,440,403.3z M234.4,421.6c-11.6,11.3-15.5,28.5-28,39.2
		c-29.7,25.5-68.8,0.3-101.1-3.3c-0.4,0-0.8-0.2-1.1-0.3c0,0-0.1,0-0.1,0c-5.4,0-5.4-8.4,0-8.4c21.3,0,40.6,11.4,61.7,11.7
		c21.3,0.3,35.3-15,47.6-30.4c10.3-12.9,21.2-27.9,38.3-31.5c17.6-3.8,34.3,4.1,49.7,11.8c4.9,2.4,0.6,9.5-4.3,7.3
		C277.2,408.3,251.6,404.9,234.4,421.6z M264,434.7c-3.9,0.6-8,1.4-11.4,3.5c-1,0.8-2,1.6-3,2.3c-0.9,0.8-1.5,1.7-1.9,2.5
		c0.3-0.1,0.7-0.3,1.1-0.4c4.2-1.1,7.3,1.1,8.8,4.2c1.7,2.3,2.2,5.5,0.8,8.9c-4.3,10-18.1,7.4-23.1-0.4c-6.8-10.5,1.2-23,11.3-27.5
		c12.9-5.7,28.9-3.4,41.6,1.4c0.5,0.2,1,0.5,1.3,0.8c0.1,0,0.1,0,0.2,0.1c5,2.1,0.7,9.4-4.3,7.3C278.5,434.4,271.3,433.6,264,434.7z
		 M77,311.5c5.3,2.1,8.6,6.3,10.2,11.3c4.7-2.3,10-3,15.3-0.7c6.5,2.9,11,9.8,10.2,16.9c-1,9.1-9,14.7-15.7,19.9
		c-10.3,7.9-20.6,15.8-30.9,23.7c-2.9,2.2-6-0.9-6.3-3.6c-1.7-12.9-3.4-25.7-5.1-38.6c-1.1-8.2-2.5-17.7,3.4-24.6
		C62.7,310.5,70.6,309,77,311.5z M90.9,309.9c-4.6-3.9-6.5-10.7-3.2-16.1c3-4.9,8.9-7,14.1-4.6c5,2.3,7.1,8.3,5.5,13.5
		c-1.7,5.8-7.7,8.9-13.5,8.5c-0.5,0-0.9-0.2-1.4-0.3c-0.1,0-0.1-0.1-0.2-0.1c-0.1,0-0.1-0.1-0.2-0.1
		C91.6,310.5,91.2,310.3,90.9,309.9z M105.5,370.5c19.3-14,22-34,19.8-56.3c-1.8-18.1-6.2-38.6,4.8-54.8c9.8-14.6,27-20.7,42.9-26
		c5.2-1.7,7.3,6.3,2.2,8.1c-19.7,7.2-39.8,21.9-41.4,44.6c-1.3,17.9,9.9,34.3,7.6,52.4c-4.9,37.5-48.6,46.8-73.6,66.8
		c-0.3,0.3-0.7,0.5-1,0.6c0,0-0.1,0.1-0.1,0.1c-3.8,3.9-9.8-2.1-6-6C73.6,387,90.9,381.1,105.5,370.5z M104.5,279.8
		c-3.1-1.7-4.3-5.8-2.7-9c1.3-2.6,4.1-3.7,6.8-3.5c0.5,0,1.1,0.1,1.6,0.3c0.6,0.2,1.1,0.6,1.5,1.1c2.3,2.1,3.3,5.4,1.7,8.3
		C111.7,279.9,107.5,281.4,104.5,279.8z M188.9,344.1c-3.3-9,3.4-21.4,14.1-19c4.4,1,6.6,3.9,7.1,7c1.3,3.2,0.8,7.1-3.1,9.4
		c-0.4,0.2-0.7,0.4-1,0.5c0.8,0.3,1.8,0.4,3,0.4c2.8,0,5.4-0.7,7.8-2c2.7-1.3,5.4-3.1,7.7-5c5.3-4.3,9.5-9.8,12-16.2
		c2-5,10.2-2.8,8.1,2.2c0,0.1-0.1,0.2-0.1,0.2c0,0.5-0.1,1-0.4,1.4c-5.5,12.2-14.8,24.4-27.3,29.9
		C206.9,357.6,193,355.4,188.9,344.1z M159,342.8c-0.3-0.2-0.6-0.4-0.9-0.7c-0.3-0.3-0.5-0.6-0.7-0.9c-3.2-4.2-3.2-10.1,0.7-14
		c4.1-4.1,10.8-4,14.9,0c4,4,4,10.9,0,14.9C169.1,345.9,163.2,346,159,342.8z M183.7,321.7c-3.2,0.8-5.9-2-5.2-5.2
		c5.8-24.3,12.8-48.3,21-72c0.7-2.7,3.3-3.4,5.4-2.7c2,0.5,3.7,2.4,2.8,5c-5.3,19.5-9.7,39.1-13.2,59c19.9-3.5,39.5-7.9,59-13.2
		c2.6-0.9,4.4,0.7,5,2.8c0.7,2.1,0,4.6-2.7,5.4C232,308.9,208,315.9,183.7,321.7z M159,292.8c2.7-3.8,6.6-4,9.8-2.4
		c3.1,0.8,5.9,3.4,6.5,7.9c1.4,10.2-10.6,16.1-19.2,13c-12-4.4-13.4-19.1-8.5-29.2c5.8-11.9,17.5-20.8,29.4-26.1
		c0.5-0.2,1-0.3,1.4-0.4c0.1,0,0.2-0.1,0.2-0.1c5-2,7.2,6.1,2.2,8.1c-6.4,2.6-11.9,6.7-16.2,12c-1.9,2.3-3.7,5-5,7.7
		c-1.3,2.4-2,5-2,7.8c0,1.2,0.1,2.2,0.4,3C158.4,293.8,158.7,293.4,159,292.8z M259.2,251.1c0.9-0.2,1.6-0.1,2.3,0.1
		c1.8,0.5,2.6,2.3,2.4,4.1c0,1.7-0.9,3.3-2.9,4c-6.9,2.4-13.9,4.4-21.1,6.1c-3.2,0.8-5.9-2-5.2-5.2c1.7-7.1,3.8-14.1,6.1-21.1
		c0.7-2,2.3-2.9,4-2.9c1.8-0.2,3.6,0.7,4.1,2.4c0.3,0.6,0.3,1.4,0.1,2.3c-0.3,3.5-0.4,7-0.4,10.5
		C252.2,251.5,255.7,251.4,259.2,251.1z M226.5,239.2c2.1,0.5,3.8,2.4,2.9,5c-2.4,10.7-4.3,21.4-5.7,32.2
		c10.8-1.4,21.5-3.3,32.2-5.7c2.7-0.9,4.5,0.8,5,2.9c0.7,2.1,0,4.6-2.8,5.2c-14.7,5-29.6,9.4-44.8,13c-3.2,0.8-5.9-2-5.2-5.2
		c3.6-15.1,8-30,13-44.8C222,239.2,224.4,238.5,226.5,239.2z M266.2,302.2c0.4-1.3,0.8-2.7,1.2-4c0.1-0.5,0.2-0.9,0.4-1.4
		c0.2-0.9,0.4-1.7,0.6-2.6c3.1-14.3,2.9-28.9,4.4-43.5c0-0.2,0-0.3,0.1-0.5c0.1-1.4,0.3-2.7,0.5-4.1c0.8-5.9,3-12.5-1.9-17.4
		c-5-5-11.4-2.7-17.4-1.9c-1.3,0.2-2.7,0.3-4,0.5c-0.2,0-0.3,0-0.5,0.1c-14.6,1.6-29.3,1.3-43.6,4.5c-0.9,0.2-1.7,0.4-2.5,0.6
		c-0.5,0.1-0.9,0.2-1.4,0.4c-1.3,0.4-2.7,0.7-4,1.2c-5.2,1.7-7.4-6.5-2.2-8.1c0.9-0.3,1.9-0.6,2.8-0.9c0.2-0.1,0.4-0.1,0.6-0.2
		c0.7-0.2,1.5-0.4,2.2-0.6c0.2,0,0.3-0.1,0.5-0.1c0.8-0.2,1.6-0.4,2.4-0.6c0.1,0,0.2,0,0.2,0c11.8-2.6,23.9-3,35.9-3.8
		c0.8-0.1,1.6-0.1,2.4-0.2c4.8-0.4,10-1.6,15.2-2.1c10.4-2.1,20.4-5.5,30.1-11.1c3.7-2.1,7.9,2.1,5.8,5.8c-5.5,9.7-9,19.6-11.1,30.1
		c-0.5,5.1-1.6,10.3-2.1,15.1c-0.1,0.8-0.1,1.6-0.2,2.4c-0.8,12.1-1.2,24.2-3.8,36c0,0.1,0,0.1,0,0.2c-0.2,0.8-0.4,1.6-0.6,2.4
		c0,0.2-0.1,0.3-0.1,0.5c-0.2,0.7-0.4,1.5-0.6,2.2c-0.1,0.2-0.1,0.4-0.2,0.6c-0.3,0.9-0.6,1.9-0.9,2.8
		C272.6,309.6,264.5,307.4,266.2,302.2z M161.7,358.8c18.5-2.4,35.4,9.4,53.8,7.5c22.1-2.4,36.2-22,43.3-41.3c1.8-5,9.9-3,8.1,2.2
		c-5.5,16.4-11.8,34-27.1,43.6c-16.1,10.1-36,5.8-53.7,4.1c-23-2.3-43.1,0.9-57.1,20.9c-10,14.4-16.1,31.1-28.7,43.6
		c-3.9,3.8-9.8-2.1-6-6c0,0,0.1-0.1,0.1-0.1c0.2-0.3,0.3-0.7,0.6-1C114.9,407.4,124.2,363.7,161.7,358.8z M220.4,395.7
		c-1.7-3-0.1-7.4,2.9-8.9c3-1.5,6.2-0.5,8.3,1.8c0.4,0.4,0.8,0.9,1,1.4c0.3,0.6,0.4,1.1,0.3,1.7c0,0,0,0.1,0,0.1c0,0,0,0,0,0.1
		c0.1,2.8-1.2,5.6-4,6.7C225.9,400,222.1,398.6,220.4,395.7z M206,412.8c-5.4,3.1-11.9,1.1-15.8-3.4c-0.3-0.4-0.6-0.8-0.7-1.2
		c0-0.1,0-0.1-0.1-0.2c0-0.1-0.1-0.2-0.1-0.3c-0.2-0.4-0.3-0.9-0.3-1.4c-0.5-6,2.9-11.9,8.9-13.6c5.1-1.4,10.8,0.7,13.1,5.6
		C213.5,403.8,211.1,409.9,206,412.8z M268.4,378.8c-1.7-0.2-2.6-1.2-2.9-2.4c-0.6-1.1-0.6-2.4,0.4-3.8c11.7-15.4,13.7-44.1,37.2-47
		c16.3-2,25.8,14.7,19.4,27.3c13.1,4.3,18.6,22.1,6.3,32.4C310.2,400.8,287.7,381.5,268.4,378.8z M121.3,440.4
		c-2.7-0.4-5.8-3.5-3.6-6.3c7.9-10.3,15.8-20.6,23.7-30.9c5.1-6.7,10.8-14.7,19.9-15.7c7.2-0.8,14.1,3.7,16.9,10.2
		c2.3,5.3,1.6,10.6-0.7,15.3c5,1.7,9.2,4.9,11.3,10.2c2.5,6.4,1,14.3-4.3,18.9c-6.8,5.9-16.4,4.5-24.6,3.4
		C147,443.8,134.1,442.1,121.3,440.4z M482.8,368.3c-0.5,18.5-25.6,7.1-34.7,2.7c-1.6-0.8-2.2-2.1-2.1-3.5c-0.3-1.5,0.3-3,2.1-3.8
		C457.6,359.7,483.4,349.3,482.8,368.3z M453.5,345.8c1.6,4.6-2.2,7.5-5.8,9.3c-9.1,4.6-18.5,8.7-28.3,11.6c2.4,0.9,4.8,1.8,7.2,2.8
		c7.1,3,17.5,6.5,23.4,11.7c7.5,6.5-0.5,14.3-8.4,11.7c-7.8-2.6-15.2-8-22.6-11.6c-8.3-4-16.8-7-25.9-8.1
		c-17.2-2.1-34.5,0.1-51.4-3.9c-2.3-0.5-3.2-2.4-3-4.2c-0.2-1.8,0.6-3.7,3-4.2c18.2-3.5,36.5,0.2,54.8-2c9.5-1.1,18.4-4.5,27-8.4
		c6.5-3,13.2-7.6,20.1-9.3C447.4,340.3,452.1,341.6,453.5,345.8z M466.7,292.1c8,17.2-18.2,17.9-29.1,17.6c-0.8,0.1-1.6,0-2.4-0.4
		c-1-0.4-1.7-1.2-2.1-2.1c0-0.1-0.1-0.2-0.1-0.2c0-0.1,0-0.1-0.1-0.2c-0.4-0.9-0.4-2,0-3c0.3-0.8,0.7-1.4,1.4-1.9
		C441.3,294.5,459.5,276.6,466.7,292.1z M430.1,294.6c-6.1,7.9-13.2,15.6-21.1,22.3c10.8-1.1,22.1-0.9,31.9,1.2
		c9.6,2,8.1,13.2-1.3,14.3c-8.7,1-18.3-1.4-27-1.6c-9.1-0.3-18.1,0.6-26.8,3.3c-16,5-30.5,13.7-47.2,16.7c-0.2,0-0.4,0-0.6,0
		c-2,0.4-3.7-1.1-4.4-2.9c-0.6-1.7-0.4-3.6,1.2-4.6c0.1-0.1,0.3-0.2,0.4-0.3c14-9.7,30.6-13.8,45.6-21.7c8.1-4.3,14.9-10,21.1-16.6
		c5.8-6.1,10.7-13.6,16.9-19.2C426.8,278.3,437,285.6,430.1,294.6z M410.8,262.2c4.2-1,8.7-0.3,9.9,4.5c1.2,5.1-3,8.2-7,10
		c-17.6,7.5-34.8,11.4-49.2,24.9c-11.4,10.8-20.9,23.2-34.1,32c-2,1.4-4,0.6-5.1-0.8c-1.4-1.2-2-3.1-0.8-5.1
		c8.5-13.9,21-24.1,31.4-36.4c12.1-14.4,15.4-31.5,21.6-48.8c1.6-4.3,4.7-8.9,10-7.8c4.4,0.9,5.5,4.9,4.9,8.9
		c-1.3,8.4-5.4,17.4-8.6,25.2c-0.8,1.8-1.5,3.6-2.4,5.4C390.7,268.9,400.9,264.7,410.8,262.2z M425.1,228.7
		c13.3,12.7-11.8,23.7-21.5,27.5c-1.9,0.8-3.4,0-4.3-1.2c-1-0.9-1.5-2.3-0.9-4C402,241,411.8,216,425.1,228.7z M370,234
		c-5.7,6.9-13.3,12.3-19.5,18.8c-6.3,6.6-11.4,13.8-15.2,22.1c-6.9,15-10.3,31.2-19.2,45.2c-0.1,0.1-0.1,0.2-0.2,0.3
		c-0.6,1.2-1.9,1.8-3.2,1.7c-2.3,0.1-4.7-1.8-4.6-4.2c0-0.3,0-0.7,0-1c2.3-16.7,10.4-31.6,14.7-47.8c2.5-9.4,2.8-18.8,2-28.4
		c-0.6-8.2-3.6-17.8-2.6-26c1.2-10.2,12.8-9.4,14.4,0.2c1.7,9.9,2.5,20.3,2.1,30.5c6.5-8.7,14.3-16.9,22.5-22.8
		C370.2,215.9,376.1,226.6,370,234z M361.5,186.5c15.5,6.4-1.3,25.2-8.4,32.5c-0.4,0.8-1.1,1.4-2,1.7c-2.1,1.1-4.4-0.1-5.5-1.9
		c0-0.1-0.1-0.1-0.1-0.2c-0.3-0.5-0.4-1.1-0.5-1.6c0,0,0,0,0-0.1C344.2,206.3,343.4,179,361.5,186.5z M174.6,197.1
		c-2.9,23.5-31.7,25.6-47,37.2c-1.4,1-2.7,1-3.8,0.4c-1.2-0.3-2.2-1.2-2.4-2.9c-2.6-19.2-22-41.8-6.4-60.3
		c10.4-12.3,28.1-6.8,32.4,6.3C159.9,171.3,176.6,180.8,174.6,197.1z M313.7,138.8c7.7,18-20,17.3-30.4,16.4c0,0,0,0-0.1,0
		c-0.6,0-1.1-0.2-1.6-0.5c-0.1,0-0.1-0.1-0.2-0.1c-1.8-1.1-3-3.4-1.9-5.5c0.3-0.8,0.9-1.6,1.7-2C288.6,140,307.2,123.3,313.7,138.8z
		 M277.2,139.7c-6.4,7.8-14.1,15.3-22.4,21.7c10.5-0.5,21.2,0.4,31.2,2.2c9.5,1.8,9.2,13.1-0.4,14.3c-8.7,1.1-18.9-2.1-27.7-2.7
		c-9.6-0.7-18.8-0.1-28.1,2.5c-15.7,4.4-30.2,12.1-46.5,14.3c-0.4,0-0.7,0.1-1,0c-2.4,0.1-4.3-2.2-4.2-4.6c-0.1-1.3,0.5-2.5,1.7-3.2
		c0.1-0.1,0.2-0.1,0.3-0.2c14.4-9.1,31.2-12.5,46.5-19.7c16.8-7.9,25.8-22.6,39.6-34.1C274.3,123.5,284.4,130.9,277.2,139.7z
		 M225.8,119c2.3-1.1,4.6-2.1,7-3.1c7.4-3,16.8-7.7,24.8-8.3c4-0.3,7.4,1.4,8,5.7c0.7,5.1-3.7,7.9-7.9,9.4
		c-17.7,6.4-35.1,9.8-49.7,22.5c-11.8,10.2-21.9,22.3-35.4,30.6c-2,1.2-3.9,0.6-5.1-0.8c-1.5-1.1-2.2-3.1-0.8-5.1
		c9.1-13.5,22-23.2,32.9-35c13-14.1,16.7-31.2,24-48.2c4.6-10.8,17.8-7.9,14,4.1C234.5,100.4,230.6,110,225.8,119z M271.5,75.1
		c12.7,13.3-12.3,23.2-22.3,26.6c-1.7,0.6-3.1,0.1-4-0.9c-1.3-0.9-2-2.4-1.2-4.3C247.8,86.8,258.8,61.8,271.5,75.1z M214.8,81.3
		c-5.9,6.6-13.8,11.7-20.3,17.9c-6.5,6.3-12,13.3-16.2,21.3c-7.5,14.6-11.6,30.7-21.1,44.4c-0.1,0.2-0.2,0.3-0.3,0.4
		c-1,1.6-2.9,1.9-4.6,1.2c-1.9-0.6-3.4-2.4-3-4.4c0-0.2,0-0.4,0-0.6c3.1-17.1,12.3-32,17.1-48.5c2.6-8.8,3.2-17.8,2.9-27
		c-0.3-8.2-2.5-17.3-1.6-25.4c1.1-9.7,12.8-10.8,14.4-0.7c1.5,10,1.9,20.8,0.9,31.4c6.8-8.1,14.7-15.6,22.8-21.5
		C215.1,63.2,221.6,73.7,214.8,81.3z M130.9,158.6c-4.2-17.8-1.4-36-4.2-53.9c-1.4-8.7-4.5-16.9-8.5-24.8c-3.5-7-8.5-13.9-11-21.3
		c-2.9-8.7,6.1-15.8,12.2-7.6c4.8,6.5,8.2,15.6,11.4,23.1c0.9,2.1,1.7,4.2,2.5,6.3c2.9-10.4,7.1-20.7,12.4-29.3
		c5-8.1,15.6-4,13.3,5.6c-1.8,7.4-6.8,14.6-9.9,21.4c-3.9,8.7-7,17.6-8,27.2c-1.8,17.8,1.5,35.5-1.8,53.2c-0.5,2.4-2.3,3.2-4.2,3
		C133.3,161.8,131.5,160.9,130.9,158.6z M208.1,33.5c15.6,7.1-2.4,25.5-9.8,32.3c-0.5,0.7-1.2,1.1-1.9,1.4c-1,0.4-2.1,0.4-3,0
		c0,0-0.1,0-0.1,0c-0.1,0-0.2-0.1-0.3-0.1c-0.9-0.4-1.7-1.1-2.1-2.1c-0.4-0.7-0.5-1.5-0.4-2.4C190.2,51.6,190.8,25.6,208.1,33.5z
		 M131.9,17.4c19-0.7,8.6,25.4,4.5,34.7c-0.8,1.9-2.4,2.4-3.8,2.1c-1.3,0.1-2.7-0.5-3.4-2.1C124.7,42.9,113.5,18.1,131.9,17.4z
		 M68.9,66.5c-0.1,0-0.2,0-0.3-0.1c-0.2-0.1-0.4-0.2-0.6-0.3c0,0-0.1,0-0.1,0c-0.3-0.1-0.5-0.3-0.7-0.5c0,0,0,0-0.1-0.1
		c-7-6-27-23.9-12-32.1c16.9-9.2,19,16.6,19.1,27.9c0.3,0.9,0.2,1.8-0.2,2.6C73.4,66.2,71,67,68.9,66.5z M59.7,70
		c8.3,6,16.4,12.8,23.4,20.5c-0.3-2.9-0.6-5.8-0.7-8.7C82,74,81,64.7,82.6,57.1c2.3-10.5,13.5-5.6,14.3,3c0.8,9-0.7,18.3-0.5,27.3
		c0.2,9.5,1.9,18.4,5.3,27.3c5.8,14.9,14.4,28.5,17.9,44.3c0,0.1,0,0.2,0,0.4c0.5,1.5-0.2,2.8-1.3,3.7c-1.7,1.5-4.4,1.7-5.9,0
		c-0.1,0-0.1-0.1-0.1-0.1c0,0,0,0,0,0c-0.2-0.2-0.3-0.3-0.5-0.5c-10.3-13.6-15.1-30-23.7-44.6c-4.6-7.9-10.6-14.4-17.5-20.4
		c-6.4-5.5-14.1-10-19.9-16.1C43.2,73.6,50.6,63.5,59.7,70z M41.2,142.1c-1.2-1.4-2.4-2.9-3.5-4.4c-3.7-4.8-6.9-11.4-13.9-11.6V95.5
		c1.7,0.1,3.3,1.1,3.8,3c2.9,10.8,7.6,20.3,13.5,29.2c3,3.7,5.7,7.8,8.5,11.3c1.1,1.3,2.1,2.6,3.3,3.8c4.5,5.1,9,10.1,13.3,15.4
		c0,0.1,0.1,0.1,0.1,0.2c1,1.3,2,2.6,3,3.8c0.2,0.3,0.4,0.5,0.6,0.8c0.9,1.1,1.7,2.3,2.5,3.5c0.3,0.4,0.6,0.8,0.9,1.2
		c0.8,1.1,1.5,2.3,2.2,3.5c0.3,0.4,0.6,0.9,0.8,1.3c1,1.6,1.9,3.3,2.7,5c2.4,4.8-4.8,9.1-7.3,4.3c-0.6-1.3-1.3-2.5-2-3.8
		c-0.2-0.4-0.4-0.7-0.6-1.1c-0.6-1.1-1.3-2.1-2-3.2c-0.4-0.6-0.8-1.2-1.2-1.8c-0.3-0.4-0.6-0.8-0.9-1.3c-7-9.9-15.6-18.6-23.4-28
		C41.5,142.5,41.4,142.3,41.2,142.1z M23.8,157.9c2.4-2.4,4.7-4.8,6.8-7.4c0.5-0.8,1.1-1.3,1.8-1.5c1.8-0.9,3.8,0.1,4.9,1.7
		c0.9,1.2,1.2,2.8,0.4,4.5c-3.2,6.6-6.7,13-10.5,19.2c-0.8,1.3-2,1.9-3.3,2V157.9z M23.8,193.1c6.6-8.5,12.7-17.3,18.5-26.4
		c1.2-2.5,3.7-2.6,5.5-1.5c2,1,3.3,3.3,1.8,5.7c-6.8,14-14.3,27.6-22.4,40.9c-0.8,1.3-2,1.9-3.3,2V193.1z M23.8,234.6
		C35.3,218.2,46,201.3,56,183.9c1.1-2.2,3.2-2.5,5-1.8c2.2,0.8,3.8,3.4,2.3,6c-11,22.5-22.9,44.4-36.1,65.7c-0.8,1.3-2,1.9-3.3,2
		V234.6z M45.1,241.7c3.5-1.3,6.6-0.5,8.7,1.3c3.1,1.6,5.2,4.9,3.8,9.1c-0.1,0.2-0.1,0.3-0.2,0.5c0.8-0.4,1.5-1,2.4-1.8
		c1.5-1.4,2.6-3.1,3.2-5c1.4-3,2.1-6.2,2.6-9.4c1.1-7.3,0.2-14.5-2.7-21.4c-2.1-4.9,5.2-9.2,7.3-4.3c0,0.1,0,0.1,0.1,0.2
		c0.3,0.4,0.6,0.8,0.8,1.3c4.9,13.1,7.2,29.8,0.8,42.8c-4.7,9.6-16.9,16.6-26.9,10.1C37.1,259.9,34.5,245.5,45.1,241.7z M23.8,265.2
		c5.6,0.2,10.2,4.9,10.2,10.5c0,5.4-4,9.5-9.1,10.4c-0.3,0.1-0.7,0.2-1.1,0.2V265.2z M39.4,293.8c11-12.7,28.6-16.7,40-28.9
		c16-17,12.2-42.5,3.2-61.8c-2.3-4.9,4.8-9.1,7.3-4.3c7.8,15.7,16.1,33.2,11.5,51.2c-4.2,16.4-18.7,26.9-31.2,36.9
		C54.3,299.6,38.9,314,39.9,336c0.9,20.6,11.6,39.3,11.6,60.2c0,5.4-8.4,5.4-8.4,0c0,0,0-0.1,0-0.1c-0.1-0.4-0.2-0.7-0.3-1.1
		C39.1,362.7,13.9,323.3,39.4,293.8z M23.8,378.8c1.6,0.1,3.1,1.1,3.8,3c8.1,23.3,10.9,45.4-0.4,68.2c-0.8,1.6-2.1,2.2-3.3,2.1
		V378.8z M40.9,459.3c-1.1-0.9-1.7-2.3-1.1-4.1c8-24.1,25.8-37.7,47.9-48.5c3.9-1.9,7.6,1.9,5.8,5.8c-10.8,22.1-24.4,39.8-48.5,47.9
		C43.2,461,41.8,460.4,40.9,459.3z M23.8,476.4v-7c0,0,0.1,0,0.1,0c0.9,0,1.8-0.1,2.7-0.2c0.6,0.8,1.3,1.6,2,2.3
		c0.7,0.7,1.5,1.4,2.3,2c-0.1,0.9-0.2,1.8-0.2,2.7c0,0,0,0.1,0,0.1H23.8z M48.1,476.4c0-1.3,0.6-2.6,2.1-3.3
		c22.8-11.3,44.9-8.5,68.2-0.4c1.9,0.7,2.9,2.2,3,3.8H48.1z M213.9,476.4c0-0.4,0.1-0.8,0.2-1.2c0.9-5.2,5.1-9.3,10.7-9.1
		c5.5,0.2,10.1,4.7,10.2,10.2H213.9z M244.2,476.4c0.1-1.3,0.8-2.6,2-3.3c21.3-13.1,43.3-25.1,65.7-36.1c2.7-1.5,5.2,0.1,6,2.3
		c0.8,1.7,0.5,3.9-1.8,4.9c-17.4,9.9-34.3,20.6-50.7,32.1H244.2z M286.4,476.4c0.1-1.3,0.8-2.6,2-3.3c13.3-8.1,26.9-15.6,40.9-22.4
		c2.4-1.5,4.7-0.2,5.7,1.7c1.1,1.8,1,4.3-1.4,5.5c-9.1,5.8-17.9,11.9-26.4,18.5H286.4z M323.8,476.4c0.1-1.3,0.8-2.6,2-3.3
		c6.2-3.8,12.7-7.3,19.2-10.5c1.7-0.8,3.3-0.5,4.5,0.4c1.6,1.1,2.6,3.1,1.7,4.9c-0.3,0.7-0.8,1.3-1.5,1.8c-2.6,2.2-5,4.5-7.4,6.8
		H323.8z M374.1,476.4c-0.2-7-6.8-10.1-11.6-13.9c-1.5-1.1-2.9-2.3-4.4-3.5c-0.2-0.2-0.4-0.3-0.6-0.5c-9.4-7.8-18.1-16.4-28-23.4
		c-0.5-0.3-1-0.7-1.4-1c-0.5-0.4-1.1-0.7-1.6-1.1c-1.1-0.7-2.2-1.4-3.3-2c-0.3-0.2-0.7-0.4-1-0.6c-1.2-0.7-2.5-1.4-3.8-2
		c-4.9-2.4-0.6-9.7,4.3-7.3c1.7,0.9,3.4,1.8,5.1,2.8c0.5,0.3,0.9,0.6,1.4,0.9c1.2,0.7,2.3,1.5,3.5,2.2c0.5,0.3,0.9,0.7,1.4,1
		c1.1,0.8,2.3,1.6,3.4,2.4c0.4,0.3,0.8,0.6,1.1,0.9c1.2,0.9,2.4,1.9,3.7,2.9c0.2,0.2,0.4,0.3,0.6,0.5c4.9,4,9.6,8.3,14.4,12.5
		c0.2,0.1,0.3,0.3,0.5,0.4c1.7,1.5,3.4,2.9,5.1,4.3c2.8,2.2,6,4.3,8.9,6.6c9.1,6.2,18.9,11.1,30,14.1c1.9,0.5,2.9,2.1,3,3.8H374.1z"
		/>
</g>
<g id="Ñëîé_2__x28_êîïèÿ_x29_" class="st4">
</g>
</svg>
