<?xml version="1.0" encoding="utf-8"?>
<!-- Generator: Adobe Illustrator 24.0.0, SVG Export Plug-In . SVG Version: 6.00 Build 0)  -->
<svg version="1.1" xmlns="http://www.w3.org/2000/svg" xmlns:xlink="http://www.w3.org/1999/xlink" x="0px" y="0px"
	 viewBox="0 0 500.2 500.2" style="enable-background:new 0 0 500.2 500.2;" xml:space="preserve">
<style type="text/css">
	.st0{fill:url(#SVGID_1_);}
	.st1{fill:url(#SVGID_2_);}
	.st2{fill:url(#SVGID_3_);}
	.st3{fill:url(#SVGID_4_);}
	.st4{display:none;}
	.st5{display:inline;}
	.st6{fill:none;stroke:#FFFFFF;stroke-width:1.5;stroke-miterlimit:10;}
	.st7{fill:none;stroke:#FFFFFF;stroke-width:1.5;stroke-miterlimit:10;stroke-dasharray:12.1214,12.1214;}
</style>
<g id="Ñëîé_2">
	
		<linearGradient id="SVGID_1_" gradientUnits="userSpaceOnUse" x1="69.9411" y1="569.9412" x2="569.9411" y2="69.9411" gradientTransform="matrix(6.123234e-17 -1 1 6.123234e-17 -3.160206e-05 500.2045)">
		<stop  offset="0" style="stop-color:#BE965D"/>
		<stop  offset="0.2784" style="stop-color:#976F40"/>
		<stop  offset="0.4259" style="stop-color:#C99B61"/>
		<stop  offset="0.5584" style="stop-color:#F0BE7B"/>
		<stop  offset="0.6275" style="stop-color:#FFCB85"/>
		<stop  offset="0.7085" style="stop-color:#EEBC79"/>
		<stop  offset="0.8693" style="stop-color:#C0935B"/>
		<stop  offset="1" style="stop-color:#976F40"/>
	</linearGradient>
	<path class="st0" d="M0.2,0v23.8v104.8c-1.8,15.5,8.2,32.5,30.2,31.5c1.3,3.6,3.3,6.8,5.9,9.3c-0.6,2.5-0.8,4.6-0.7,6.9
		c-40.4,13.3-15.9,70.5,21.4,51.2c1.5,1.6,3.2,2.9,5.2,4.1c0,3.7,0.8,7.5,2.5,10.9c-14.5,13.2-13.3,30.1-1.5,41.4
		c12.6,12.1,29.7,11.1,41.5-3.1c2.5,1.1,5,1.7,7.8,1.9c1.4,3.2,3.4,6.1,6,8.4c-17.7,38.4,40.7,59.7,52.1,19
		c8.5,0.2,15.8-4,20.2-10.7c1,2.1,2.4,4.1,4.1,5.8c1.7,1.7,3.6,3.1,5.8,4.1c-6.8,4.4-10.9,11.8-10.7,20.2
		c-40.7,11.4-19.4,69.8,19,52.1c2.3,2.6,5.2,4.6,8.4,6c0.2,2.8,0.9,5.3,1.9,7.8c-14.2,11.8-15.2,28.9-3.1,41.5
		c11.3,11.8,28.2,13,41.4-1.5c3.5,1.7,7.2,2.5,10.9,2.5c1.1,1.9,2.5,3.7,4.1,5.2c-19.3,37.3,37.9,61.8,51.2,21.4
		c2.3,0.1,4.4-0.1,6.9-0.7c2.5,2.6,5.7,4.6,9.3,5.9c-1,22,16,32,31.5,30.2h104.8h23.8V0H0.2z M61.4,74.3
		c-11.3-0.2-37.1-2.3-27.9-19.1c8.2-15.1,26.1,4.9,32.1,12c0,0,0,0,0,0.1c0.2,0.2,0.4,0.5,0.5,0.7c0,0,0,0,0,0
		c0.1,0.2,0.2,0.5,0.3,0.7c0,0.1,0,0.2,0.1,0.2c0.5,2-0.3,4.4-2.5,5.2C63.2,74.5,62.3,74.6,61.4,74.3z M60.2,96.9
		c-9.6-0.9-13-12.6-2.1-14.4c9.8-1.6,21.1-1.3,31.8,0.2c-7.7-7.1-14.6-15.1-20.3-23.4c-6.2-9.2,4.3-15.7,11.6-8.6
		c6.4,6.2,11.1,14.3,17,21c6,6.8,12.7,12.6,20.6,17.1c14.3,8.1,30.2,12.9,43.4,23c0.2,0.2,0.4,0.3,0.5,0.5c0,0,0,0,0.1,0.1
		c0,0,0.1,0.1,0.1,0.1c1.7,1.5,1.5,4.2,0,5.9c-0.9,1.2-2.2,1.8-3.7,1.4c-0.1,0-0.2,0-0.4,0c-16.2-3.7-30.1-12.7-45.5-18.4
		c-8.9-3.3-18-4.7-27.5-4.9C77.4,96.3,68.6,97.7,60.2,96.9z M265.8,78.6c11.6-11.3,15.5-28.5,28-39.2c29.7-25.5,68.8-0.3,101.1,3.3
		c0.4,0,0.8,0.2,1.1,0.3c0,0,0.1,0,0.1,0c5.4,0,5.4,8.4,0,8.4c-21.3,0-40.6-11.4-61.7-11.7c-21.3-0.3-35.3,15-47.6,30.4
		C276.6,83,265.7,98,248.6,101.7c-17.6,3.8-34.3-4.1-49.7-11.8c-4.9-2.4-0.6-9.5,4.3-7.3C223,91.9,248.6,95.3,265.8,78.6z
		 M236.2,65.5c3.9-0.6,8-1.4,11.4-3.5c1-0.8,2-1.6,3-2.3c0.9-0.8,1.5-1.7,1.9-2.5c-0.3,0.1-0.7,0.3-1.1,0.4
		c-4.2,1.1-7.3-1.1-8.8-4.2c-1.7-2.3-2.2-5.5-0.8-8.9c4.3-10,18.1-7.4,23.1,0.4c6.8,10.5-1.2,23-11.3,27.5
		c-12.9,5.7-28.9,3.4-41.6-1.4c-0.5-0.2-1-0.5-1.3-0.8c-0.1,0-0.1,0-0.2-0.1c-5-2.1-0.7-9.4,4.3-7.3
		C221.7,65.8,228.9,66.6,236.2,65.5z M423.2,188.7c-5.3-2.1-8.6-6.3-10.2-11.3c-4.7,2.3-10,3-15.3,0.7c-6.5-2.9-11-9.8-10.2-16.9
		c1-9.1,9-14.7,15.7-19.9c10.3-7.9,20.6-15.8,30.9-23.7c2.9-2.2,6,0.9,6.3,3.6c1.7,12.9,3.4,25.7,5.1,38.6
		c1.1,8.2,2.5,17.7-3.4,24.6C437.5,189.7,429.6,191.2,423.2,188.7z M409.4,190.3c4.6,3.9,6.5,10.7,3.2,16.1c-3,4.9-8.9,7-14.1,4.6
		c-5-2.3-7.1-8.3-5.5-13.5c1.7-5.8,7.7-8.9,13.5-8.5c0.5,0,0.9,0.2,1.4,0.3c0.1,0,0.1,0.1,0.2,0.1c0.1,0,0.1,0.1,0.2,0.1
		C408.6,189.7,409,189.9,409.4,190.3z M394.7,129.7c-19.3,14-22,34-19.8,56.3c1.8,18.1,6.2,38.6-4.8,54.8c-9.8,14.6-27,20.7-42.9,26
		c-5.2,1.7-7.3-6.3-2.2-8.1c19.7-7.2,39.8-21.9,41.4-44.6c1.3-17.9-9.9-34.3-7.6-52.4c4.9-37.5,48.6-46.8,73.6-66.8
		c0.3-0.3,0.7-0.5,1-0.6c0,0,0.1-0.1,0.1-0.1c3.8-3.9,9.8,2.1,6,6C426.6,113.2,409.3,119.2,394.7,129.7z M395.7,220.4
		c3.1,1.7,4.3,5.8,2.7,9c-1.3,2.6-4.1,3.7-6.8,3.5c-0.5,0-1.1-0.1-1.6-0.3c-0.6-0.2-1.1-0.6-1.5-1.1c-2.3-2.1-3.3-5.4-1.7-8.3
		C388.5,220.3,392.7,218.8,395.7,220.4z M311.4,156.1c3.3,9-3.4,21.4-14.1,19c-4.4-1-6.6-3.9-7.1-7c-1.3-3.2-0.8-7.1,3.1-9.4
		c0.4-0.2,0.7-0.4,1-0.5c-0.8-0.3-1.8-0.4-3-0.4c-2.8,0-5.4,0.7-7.8,2c-2.7,1.3-5.4,3.1-7.7,5c-5.3,4.3-9.5,9.8-12,16.2
		c-2,5-10.2,2.8-8.1-2.2c0-0.1,0.1-0.2,0.1-0.2c0-0.5,0.1-1,0.4-1.4c5.5-12.2,14.8-24.4,27.3-29.9
		C293.3,142.6,307.2,144.8,311.4,156.1z M341.2,157.4c0.3,0.2,0.6,0.4,0.9,0.7c0.3,0.3,0.5,0.6,0.7,0.9c3.2,4.2,3.2,10.1-0.7,14
		c-4.1,4.1-10.8,4-14.9,0c-4-4-4-10.9,0-14.9C331.1,154.3,337,154.2,341.2,157.4z M316.5,178.5c3.2-0.8,5.9,2,5.2,5.2
		c-5.8,24.3-12.8,48.3-21,72c-0.7,2.7-3.3,3.4-5.4,2.7c-2-0.5-3.7-2.4-2.8-5c5.3-19.5,9.7-39.1,13.2-59c-19.9,3.5-39.5,7.9-59,13.2
		c-2.6,0.9-4.4-0.7-5-2.8c-0.7-2.1,0-4.6,2.7-5.4C268.2,191.3,292.2,184.3,316.5,178.5z M341.2,207.4c-2.7,3.8-6.6,4-9.8,2.4
		c-3.1-0.8-5.9-3.4-6.5-7.9c-1.4-10.2,10.6-16.1,19.2-13c12,4.4,13.4,19.1,8.5,29.2c-5.8,11.9-17.5,20.8-29.4,26.1
		c-0.5,0.2-1,0.3-1.4,0.4c-0.1,0-0.2,0.1-0.2,0.1c-5,2-7.2-6.1-2.2-8.1c6.4-2.6,11.9-6.7,16.2-12c1.9-2.3,3.7-5,5-7.7
		c1.3-2.4,2-5,2-7.8c0-1.2-0.1-2.2-0.4-3C341.8,206.4,341.5,206.8,341.2,207.4z M241,249.1c-0.9,0.2-1.6,0.1-2.3-0.1
		c-1.8-0.5-2.6-2.3-2.4-4.1c0-1.7,0.9-3.3,2.9-4c6.9-2.4,13.9-4.4,21.1-6.1c3.2-0.8,5.9,2,5.2,5.2c-1.7,7.1-3.8,14.1-6.1,21.1
		c-0.7,2-2.3,2.9-4,2.9c-1.8,0.2-3.6-0.7-4.1-2.4c-0.3-0.6-0.3-1.4-0.1-2.3c0.3-3.5,0.4-7,0.4-10.5C248,248.7,244.5,248.8,241,249.1
		z M273.7,261c-2.1-0.5-3.8-2.4-2.9-5c2.4-10.7,4.3-21.4,5.7-32.2c-10.8,1.4-21.5,3.3-32.2,5.7c-2.7,0.9-4.5-0.8-5-2.9
		c-0.7-2.1,0-4.6,2.8-5.2c14.7-5,29.6-9.4,44.8-13c3.2-0.8,5.9,2,5.2,5.2c-3.6,15.1-8,30-13,44.8C278.3,261,275.8,261.7,273.7,261z
		 M234,198c-0.4,1.3-0.8,2.7-1.2,4c-0.1,0.5-0.2,0.9-0.4,1.4c-0.2,0.9-0.4,1.7-0.6,2.6c-3.1,14.3-2.9,28.9-4.4,43.5
		c0,0.2,0,0.3-0.1,0.5c-0.1,1.4-0.3,2.7-0.5,4.1c-0.8,5.9-3,12.5,1.9,17.4c5,5,11.4,2.7,17.4,1.9c1.3-0.2,2.7-0.3,4-0.5
		c0.2,0,0.3,0,0.5-0.1c14.6-1.6,29.3-1.3,43.6-4.5c0.9-0.2,1.7-0.4,2.5-0.6c0.5-0.1,0.9-0.2,1.4-0.4c1.3-0.4,2.7-0.7,4-1.2
		c5.2-1.7,7.4,6.5,2.2,8.1c-0.9,0.3-1.9,0.6-2.8,0.9c-0.2,0.1-0.4,0.1-0.6,0.2c-0.7,0.2-1.5,0.4-2.2,0.6c-0.2,0-0.3,0.1-0.5,0.1
		c-0.8,0.2-1.6,0.4-2.4,0.6c-0.1,0-0.2,0-0.2,0c-11.8,2.6-23.9,3-35.9,3.8c-0.8,0.1-1.6,0.1-2.4,0.2c-4.8,0.4-10,1.6-15.2,2.1
		c-10.4,2.1-20.4,5.5-30.1,11.1c-3.7,2.1-7.9-2.1-5.8-5.8c5.5-9.7,9-19.6,11.1-30.1c0.5-5.1,1.6-10.3,2.1-15.1
		c0.1-0.8,0.1-1.6,0.2-2.4c0.8-12.1,1.2-24.2,3.8-36c0-0.1,0-0.1,0-0.2c0.2-0.8,0.4-1.6,0.6-2.4c0-0.2,0.1-0.3,0.1-0.5
		c0.2-0.7,0.4-1.5,0.6-2.2c0.1-0.2,0.1-0.4,0.2-0.6c0.3-0.9,0.6-1.9,0.9-2.8C227.6,190.6,235.7,192.8,234,198z M338.5,141.4
		c-18.5,2.4-35.4-9.4-53.8-7.5c-22.1,2.4-36.2,22-43.3,41.3c-1.8,5-9.9,3-8.1-2.2c5.5-16.4,11.8-34,27.1-43.6
		c16.1-10.1,36-5.8,53.7-4.1c23,2.3,43.1-0.9,57.1-20.9c10-14.4,16.1-31.1,28.7-43.6c3.9-3.8,9.8,2.1,6,6c0,0-0.1,0.1-0.1,0.1
		c-0.2,0.3-0.3,0.7-0.6,1C385.3,92.8,376,136.5,338.5,141.4z M279.8,104.5c1.7,3,0.1,7.4-2.9,8.9c-3,1.5-6.2,0.5-8.3-1.8
		c-0.4-0.4-0.8-0.9-1-1.4c-0.3-0.6-0.4-1.1-0.3-1.7c0,0,0-0.1,0-0.1c0,0,0,0,0-0.1c-0.1-2.8,1.2-5.6,4-6.7
		C274.3,100.3,278.1,101.6,279.8,104.5z M294.2,87.4c5.4-3.1,11.9-1.1,15.8,3.4c0.3,0.4,0.6,0.8,0.7,1.2c0,0.1,0,0.1,0.1,0.2
		c0,0.1,0.1,0.2,0.1,0.3c0.2,0.4,0.3,0.9,0.3,1.4c0.5,6-2.9,11.9-8.9,13.6c-5.1,1.4-10.8-0.7-13.1-5.6
		C286.7,96.4,289.1,90.4,294.2,87.4z M231.8,121.4c1.7,0.2,2.6,1.2,2.9,2.4c0.6,1.1,0.6,2.4-0.4,3.8c-11.7,15.4-13.7,44.1-37.2,47
		c-16.3,2-25.8-14.7-19.4-27.3c-13.1-4.3-18.6-22.1-6.3-32.4C190,99.4,212.5,118.7,231.8,121.4z M378.9,59.8
		c2.7,0.4,5.8,3.5,3.6,6.3c-7.9,10.3-15.8,20.6-23.7,30.9c-5.1,6.7-10.8,14.7-19.9,15.7c-7.2,0.8-14.1-3.7-16.9-10.2
		c-2.3-5.3-1.6-10.6,0.7-15.3c-5-1.7-9.2-4.9-11.3-10.2c-2.5-6.4-1-14.3,4.3-18.9c6.8-5.9,16.4-4.5,24.6-3.4
		C353.2,56.4,366.1,58.1,378.9,59.8z M17.4,131.9c0.5-18.5,25.6-7.1,34.7-2.7c1.6,0.8,2.2,2.1,2.1,3.5c0.3,1.5-0.3,3-2.1,3.8
		C42.6,140.5,16.8,150.9,17.4,131.9z M46.7,154.4c-1.6-4.6,2.2-7.5,5.8-9.3c9.1-4.6,18.5-8.7,28.3-11.6c-2.4-0.9-4.8-1.8-7.2-2.8
		c-7.1-3-17.5-6.5-23.4-11.7c-7.5-6.5,0.5-14.3,8.4-11.7c7.8,2.6,15.2,8,22.6,11.6c8.3,4,16.8,7,25.9,8.1
		c17.2,2.1,34.5-0.1,51.4,3.9c2.3,0.5,3.2,2.4,3,4.2c0.2,1.8-0.6,3.7-3,4.2c-18.2,3.5-36.5-0.2-54.8,2c-9.5,1.1-18.4,4.5-27,8.4
		c-6.5,3-13.2,7.6-20.1,9.3C52.8,159.9,48.1,158.6,46.7,154.4z M33.5,208.1c-8-17.2,18.2-17.9,29.1-17.6c0.8-0.1,1.6,0,2.4,0.4
		c1,0.4,1.7,1.2,2.1,2.1c0,0.1,0.1,0.2,0.1,0.2c0,0.1,0,0.1,0.1,0.2c0.4,0.9,0.4,2,0,3c-0.3,0.8-0.7,1.4-1.4,1.9
		C58.9,205.7,40.7,223.6,33.5,208.1z M70.1,205.6c6.1-7.9,13.2-15.6,21.1-22.3c-10.8,1.1-22.1,0.9-31.9-1.2
		c-9.6-2-8.1-13.2,1.3-14.3c8.7-1,18.3,1.4,27,1.6c9.1,0.3,18.1-0.6,26.8-3.3c16-5,30.5-13.7,47.2-16.7c0.2,0,0.4,0,0.6,0
		c2-0.4,3.7,1.1,4.4,2.9c0.6,1.7,0.4,3.6-1.2,4.6c-0.1,0.1-0.3,0.2-0.4,0.3c-14,9.7-30.6,13.8-45.6,21.7c-8.1,4.3-14.9,10-21.1,16.6
		c-5.8,6.1-10.7,13.6-16.9,19.2C73.4,221.9,63.2,214.6,70.1,205.6z M89.4,238c-4.2,1-8.7,0.3-9.9-4.5c-1.2-5.1,3-8.2,7-10
		c17.6-7.5,34.8-11.4,49.2-24.9c11.4-10.8,20.9-23.2,34.1-32c2-1.4,4-0.6,5.1,0.8c1.4,1.2,2,3.1,0.8,5.1
		c-8.5,13.9-21,24.1-31.4,36.4c-12.1,14.4-15.4,31.5-21.6,48.8c-1.6,4.3-4.7,8.9-10,7.8c-4.4-0.9-5.5-4.9-4.9-8.9
		c1.3-8.4,5.4-17.4,8.6-25.2c0.8-1.8,1.5-3.6,2.4-5.4C109.5,231.3,99.3,235.5,89.4,238z M75.1,271.5c-13.3-12.7,11.8-23.7,21.5-27.5
		c1.9-0.8,3.4,0,4.3,1.2c1,0.9,1.5,2.3,0.9,4C98.3,259.2,88.4,284.3,75.1,271.5z M130.3,266.2c5.7-6.9,13.3-12.3,19.5-18.8
		c6.3-6.6,11.4-13.8,15.2-22.1c6.9-15,10.3-31.2,19.2-45.2c0.1-0.1,0.1-0.2,0.2-0.3c0.6-1.2,1.9-1.8,3.2-1.7
		c2.3-0.1,4.7,1.8,4.6,4.2c0,0.3,0,0.7,0,1c-2.3,16.7-10.4,31.6-14.7,47.8c-2.5,9.4-2.8,18.8-2,28.4c0.6,8.2,3.6,17.8,2.6,26
		c-1.2,10.2-12.8,9.4-14.4-0.2c-1.7-9.9-2.5-20.3-2.1-30.5c-6.5,8.7-14.3,16.9-22.5,22.8C130,284.3,124.1,273.6,130.3,266.2z
		 M138.8,313.7c-15.5-6.4,1.3-25.2,8.4-32.5c0.4-0.8,1.1-1.4,2-1.7c2.1-1.1,4.4,0.1,5.5,1.9c0,0.1,0.1,0.1,0.1,0.2
		c0.3,0.5,0.4,1.1,0.5,1.6c0,0,0,0,0,0.1C156,293.9,156.8,321.2,138.8,313.7z M325.6,303.1c2.9-23.5,31.7-25.6,47-37.2
		c1.4-1,2.7-1,3.8-0.4c1.2,0.3,2.2,1.2,2.4,2.9c2.6,19.2,22,41.8,6.4,60.3c-10.4,12.3-28.1,6.8-32.4-6.3
		C340.3,328.9,323.6,319.4,325.6,303.1z M186.5,361.5c-7.7-18,20-17.3,30.4-16.4c0,0,0,0,0.1,0c0.6,0,1.1,0.2,1.6,0.5
		c0.1,0,0.1,0.1,0.2,0.1c1.8,1.1,3,3.4,1.9,5.5c-0.3,0.8-0.9,1.6-1.7,2C211.6,360.2,193,376.9,186.5,361.5z M223,360.5
		c6.4-7.8,14.1-15.3,22.4-21.7c-10.5,0.5-21.2-0.4-31.2-2.2c-9.5-1.8-9.2-13.1,0.4-14.3c8.7-1.1,18.9,2.1,27.7,2.7
		c9.6,0.7,18.8,0.1,28.1-2.5c15.7-4.4,30.2-12.1,46.5-14.3c0.4,0,0.7-0.1,1,0c2.4-0.1,4.3,2.2,4.2,4.6c0.1,1.3-0.5,2.5-1.7,3.2
		c-0.1,0.1-0.2,0.1-0.3,0.2c-14.4,9.1-31.2,12.5-46.5,19.7c-16.8,7.9-25.8,22.6-39.6,34.1C225.9,376.7,215.8,369.3,223,360.5z
		 M274.4,381.2c-2.3,1.1-4.6,2.1-7,3.1c-7.4,3-16.8,7.7-24.8,8.3c-4,0.3-7.4-1.4-8-5.7c-0.7-5.1,3.7-7.9,7.9-9.4
		c17.7-6.4,35.1-9.8,49.7-22.5c11.8-10.2,21.9-22.3,35.4-30.6c2-1.2,3.9-0.6,5.1,0.8c1.5,1.1,2.2,3.1,0.8,5.1
		c-9.1,13.5-22,23.2-32.9,35c-13,14.1-16.7,31.2-24,48.2c-4.6,10.8-17.8,7.9-14-4.1C265.7,399.8,269.6,390.2,274.4,381.2z
		 M228.7,425.1C216,411.8,241,402,251,398.5c1.7-0.6,3.1-0.1,4,0.9c1.3,0.9,2,2.4,1.2,4.3C252.4,413.4,241.4,438.4,228.7,425.1z
		 M285.4,418.9c5.9-6.6,13.8-11.7,20.3-17.9c6.5-6.3,12-13.3,16.2-21.3c7.5-14.6,11.6-30.7,21.1-44.4c0.1-0.2,0.2-0.3,0.3-0.4
		c1-1.6,2.9-1.9,4.6-1.2c1.9,0.6,3.4,2.4,3,4.4c0,0.2,0,0.4,0,0.6c-3.1,17.1-12.3,32-17.1,48.5c-2.6,8.8-3.2,17.8-2.9,27
		c0.3,8.2,2.5,17.3,1.6,25.4c-1.1,9.7-12.8,10.8-14.4,0.7c-1.5-10-1.9-20.8-0.9-31.4c-6.8,8.1-14.7,15.6-22.8,21.5
		C285.1,437,278.6,426.5,285.4,418.9z M369.3,341.6c4.2,17.8,1.4,36,4.2,53.9c1.4,8.7,4.5,16.9,8.5,24.8c3.5,7,8.5,13.9,11,21.3
		c2.9,8.7-6.1,15.8-12.2,7.6c-4.8-6.5-8.2-15.6-11.4-23.1c-0.9-2.1-1.7-4.2-2.5-6.3c-2.9,10.4-7.1,20.7-12.4,29.3
		c-5,8.1-15.6,4-13.3-5.6c1.8-7.4,6.8-14.6,9.9-21.4c3.9-8.7,7-17.6,8-27.2c1.8-17.8-1.5-35.5,1.8-53.2c0.5-2.4,2.3-3.2,4.2-3
		C366.9,338.4,368.7,339.3,369.3,341.6z M292.1,466.7c-15.6-7.1,2.4-25.5,9.8-32.3c0.5-0.7,1.2-1.1,1.9-1.4c1-0.4,2.1-0.4,3,0
		c0,0,0.1,0,0.1,0c0.1,0,0.2,0.1,0.3,0.1c0.9,0.4,1.7,1.1,2.1,2.1c0.4,0.7,0.5,1.5,0.4,2.4C310.1,448.6,309.4,474.7,292.1,466.7z
		 M368.3,482.8c-19,0.7-8.6-25.4-4.5-34.7c0.8-1.9,2.4-2.4,3.8-2.1c1.3-0.1,2.7,0.5,3.4,2.1C375.5,457.3,386.8,482.1,368.3,482.8z
		 M431.3,433.7c0.1,0,0.2,0,0.3,0.1c0.2,0.1,0.4,0.2,0.6,0.3c0,0,0.1,0,0.1,0c0.3,0.1,0.5,0.3,0.7,0.5c0,0,0,0,0.1,0.1
		c7,6,27,23.9,12,32.1c-16.9,9.2-19-16.6-19.1-27.9c-0.3-0.9-0.2-1.8,0.2-2.6C426.8,434,429.2,433.2,431.3,433.7z M440.5,430.2
		c-8.3-6-16.4-12.8-23.4-20.5c0.3,2.9,0.6,5.8,0.7,8.7c0.4,7.7,1.4,17-0.2,24.6c-2.3,10.5-13.5,5.6-14.3-3c-0.8-9,0.7-18.3,0.5-27.3
		c-0.2-9.5-1.9-18.4-5.3-27.3c-5.8-14.9-14.4-28.5-17.9-44.3c0-0.1,0-0.2,0-0.4c-0.5-1.5,0.2-2.8,1.3-3.7c1.7-1.5,4.4-1.7,5.9,0
		c0.1,0,0.1,0.1,0.1,0.1c0,0,0,0,0,0c0.2,0.2,0.3,0.3,0.5,0.5c10.3,13.6,15.1,30,23.7,44.6c4.6,7.9,10.6,14.4,17.5,20.4
		c6.4,5.5,14.1,10,19.9,16.1C457,426.6,449.6,436.7,440.5,430.2z M459,358.1c1.2,1.4,2.4,2.9,3.5,4.4c3.7,4.8,6.9,11.4,13.9,11.6
		v30.6c-1.7-0.1-3.3-1.1-3.8-3c-2.9-10.8-7.6-20.3-13.5-29.2c-3-3.7-5.7-7.8-8.5-11.3c-1.1-1.3-2.1-2.6-3.3-3.8
		c-4.5-5.1-9-10.1-13.3-15.4c0-0.1-0.1-0.1-0.1-0.2c-1-1.3-2-2.6-3-3.8c-0.2-0.3-0.4-0.5-0.6-0.8c-0.9-1.1-1.7-2.3-2.5-3.5
		c-0.3-0.4-0.6-0.8-0.9-1.2c-0.8-1.1-1.5-2.3-2.2-3.5c-0.3-0.4-0.6-0.9-0.8-1.3c-1-1.6-1.9-3.3-2.7-5c-2.4-4.8,4.8-9.1,7.3-4.3
		c0.6,1.3,1.3,2.5,2,3.8c0.2,0.4,0.4,0.7,0.6,1.1c0.6,1.1,1.3,2.1,2,3.2c0.4,0.6,0.8,1.2,1.2,1.8c0.3,0.4,0.6,0.8,0.9,1.3
		c7,9.9,15.6,18.6,23.4,28C458.7,357.7,458.8,357.9,459,358.1z M476.4,342.3c-2.4,2.4-4.7,4.8-6.8,7.4c-0.5,0.8-1.1,1.3-1.8,1.5
		c-1.8,0.9-3.8-0.1-4.9-1.7c-0.9-1.2-1.2-2.8-0.4-4.5c3.2-6.6,6.7-13,10.5-19.2c0.8-1.3,2-1.9,3.3-2V342.3z M476.4,307.1
		c-6.6,8.5-12.7,17.3-18.5,26.4c-1.2,2.5-3.7,2.6-5.5,1.5c-2-1-3.3-3.3-1.8-5.7c6.8-14,14.3-27.6,22.4-40.9c0.8-1.3,2-1.9,3.3-2
		V307.1z M476.4,265.6c-11.5,16.4-22.2,33.3-32.1,50.7c-1.1,2.2-3.2,2.5-5,1.8c-2.2-0.8-3.8-3.4-2.3-6c11-22.5,22.9-44.4,36.1-65.7
		c0.8-1.3,2-1.9,3.3-2V265.6z M455.1,258.5c-3.5,1.3-6.6,0.5-8.7-1.3c-3.1-1.6-5.2-4.9-3.8-9.1c0.1-0.2,0.1-0.3,0.2-0.5
		c-0.8,0.4-1.5,1-2.4,1.8c-1.5,1.4-2.6,3.1-3.2,5c-1.4,3-2.1,6.2-2.6,9.4c-1.1,7.3-0.2,14.5,2.7,21.4c2.1,4.9-5.2,9.2-7.3,4.3
		c0-0.1,0-0.1-0.1-0.2c-0.3-0.4-0.6-0.8-0.8-1.3c-4.9-13.1-7.2-29.8-0.8-42.8c4.7-9.6,16.9-16.6,26.9-10.1
		C463.1,240.3,465.7,254.7,455.1,258.5z M476.4,235c-5.6-0.2-10.2-4.9-10.2-10.5c0-5.4,4-9.5,9.1-10.4c0.3-0.1,0.7-0.2,1.1-0.2V235z
		 M460.8,206.4c-11,12.7-28.6,16.7-40,28.9c-16,17-12.2,42.5-3.2,61.8c2.3,4.9-4.8,9.1-7.3,4.3c-7.8-15.7-16.1-33.2-11.5-51.2
		c4.2-16.4,18.7-26.9,31.2-36.9c15.9-12.7,31.3-27.1,30.3-49.1c-0.9-20.6-11.6-39.3-11.6-60.2c0-5.4,8.4-5.4,8.4,0c0,0,0,0.1,0,0.1
		c0.1,0.4,0.2,0.7,0.3,1.1C461.1,137.5,486.3,176.9,460.8,206.4z M476.4,121.4c-1.6-0.1-3.1-1.1-3.8-3c-8.1-23.3-10.9-45.4,0.4-68.2
		c0.8-1.6,2.1-2.2,3.3-2.1V121.4z M459.3,40.9c1.1,0.9,1.7,2.3,1.1,4.1c-8,24.1-25.8,37.7-47.9,48.5c-3.9,1.9-7.6-1.9-5.8-5.8
		c10.8-22.1,24.4-39.8,48.5-47.9C457,39.2,458.4,39.8,459.3,40.9z M476.4,23.8v7c0,0-0.1,0-0.1,0c-0.9,0-1.8,0.1-2.7,0.2
		c-0.6-0.8-1.3-1.6-2-2.3c-0.7-0.7-1.5-1.4-2.3-2c0.1-0.9,0.2-1.8,0.2-2.7c0,0,0-0.1,0-0.1H476.4z M452.2,23.8
		c0,1.3-0.6,2.6-2.1,3.3c-22.8,11.3-44.9,8.5-68.2,0.4c-1.9-0.7-2.9-2.2-3-3.8H452.2z M286.3,23.8c0,0.4-0.1,0.8-0.2,1.2
		c-0.9,5.2-5.1,9.3-10.7,9.1c-5.5-0.2-10.1-4.7-10.2-10.2H286.3z M256,23.8c-0.1,1.3-0.8,2.6-2,3.3c-21.3,13.1-43.3,25.1-65.7,36.1
		c-2.7,1.5-5.2-0.1-6-2.3c-0.8-1.7-0.5-3.9,1.8-4.9c17.4-9.9,34.3-20.6,50.7-32.1H256z M213.8,23.8c-0.1,1.3-0.8,2.6-2,3.3
		c-13.3,8.1-26.9,15.6-40.9,22.4c-2.4,1.5-4.7,0.2-5.7-1.7c-1.1-1.8-1-4.3,1.4-5.5c9.1-5.8,17.9-11.9,26.4-18.5H213.8z M176.4,23.8
		c-0.1,1.3-0.8,2.6-2,3.3c-6.2,3.8-12.7,7.3-19.2,10.5c-1.7,0.8-3.3,0.5-4.5-0.4c-1.6-1.1-2.6-3.1-1.7-4.9c0.3-0.7,0.8-1.3,1.5-1.8
		c2.6-2.2,5-4.5,7.4-6.8H176.4z M126.1,23.8c0.2,7,6.8,10.1,11.6,13.9c1.5,1.1,2.9,2.3,4.4,3.5c0.2,0.2,0.4,0.3,0.6,0.5
		c9.4,7.8,18.1,16.4,28,23.4c0.5,0.3,1,0.7,1.4,1c0.5,0.4,1.1,0.7,1.6,1.1c1.1,0.7,2.2,1.4,3.3,2c0.3,0.2,0.7,0.4,1,0.6
		c1.2,0.7,2.5,1.4,3.8,2c4.9,2.4,0.6,9.7-4.3,7.3c-1.7-0.9-3.4-1.8-5.1-2.8c-0.5-0.3-0.9-0.6-1.4-0.9c-1.2-0.7-2.3-1.5-3.5-2.2
		c-0.5-0.3-0.9-0.7-1.4-1c-1.1-0.8-2.3-1.6-3.4-2.4c-0.4-0.3-0.8-0.6-1.1-0.9c-1.2-0.9-2.4-1.9-3.7-2.9c-0.2-0.2-0.4-0.3-0.6-0.5
		c-4.9-4-9.6-8.3-14.4-12.5c-0.2-0.1-0.3-0.3-0.5-0.4c-1.7-1.5-3.4-2.9-5.1-4.3c-2.8-2.2-6-4.3-8.9-6.6c-9.1-6.2-18.9-11.1-30-14.1
		c-1.9-0.5-2.9-2.1-3-3.8H126.1z"/>
</g>
<g id="Ñëîé_2__x28_êîïèÿ_x29_" class="st4">
</g>
</svg>
