<?xml version="1.0" encoding="utf-8"?>
<!-- Generator: Adobe Illustrator 24.0.0, SVG Export Plug-In . SVG Version: 6.00 Build 0)  -->
<svg version="1.1" xmlns="http://www.w3.org/2000/svg" xmlns:xlink="http://www.w3.org/1999/xlink" x="0px" y="0px"
	 viewBox="0 0 500.2 500.2" style="enable-background:new 0 0 500.2 500.2;" xml:space="preserve">
<style type="text/css">
	.st0{fill:url(#SVGID_1_);}
	.st1{fill:url(#SVGID_2_);}
	.st2{fill:url(#SVGID_3_);}
	.st3{fill:url(#SVGID_4_);}
	.st4{display:none;}
	.st5{display:inline;}
	.st6{fill:none;stroke:#FFFFFF;stroke-width:1.5;stroke-miterlimit:10;}
	.st7{fill:none;stroke:#FFFFFF;stroke-width:1.5;stroke-miterlimit:10;stroke-dasharray:12.1214,12.1214;}
</style>
<g id="Ñëîé_2">
	<linearGradient id="SVGID_1_" gradientUnits="userSpaceOnUse" x1="69.9411" y1="569.9412" x2="569.9411" y2="69.9411">
		<stop  offset="0" style="stop-color:#BE965D"/>
		<stop  offset="0.2784" style="stop-color:#976F40"/>
		<stop  offset="0.4259" style="stop-color:#C99B61"/>
		<stop  offset="0.5584" style="stop-color:#F0BE7B"/>
		<stop  offset="0.6275" style="stop-color:#FFCB85"/>
		<stop  offset="0.7085" style="stop-color:#EEBC79"/>
		<stop  offset="0.8693" style="stop-color:#C0935B"/>
		<stop  offset="1" style="stop-color:#976F40"/>
	</linearGradient>
	<path class="st0" d="M500.2,0.2h-23.8H371.6c-15.5-1.8-32.5,8.2-31.5,30.2c-3.6,1.3-6.8,3.3-9.3,5.9c-2.5-0.6-4.6-0.8-6.9-0.7
		C310.6-4.8,253.4,19.7,272.7,57c-1.6,1.5-2.9,3.2-4.1,5.2c-3.7,0-7.5,0.8-10.9,2.5c-13.2-14.5-30.1-13.3-41.4-1.5
		c-12.1,12.6-11.1,29.7,3.1,41.5c-1.1,2.5-1.7,5-1.9,7.8c-3.2,1.4-6.1,3.4-8.4,6c-38.4-17.7-59.7,40.7-19,52.1
		c-0.2,8.5,4,15.8,10.7,20.2c-2.1,1-4.1,2.4-5.8,4.1c-1.7,1.7-3.1,3.6-4.1,5.8c-4.4-6.8-11.8-10.9-20.2-10.7
		c-11.4-40.7-69.8-19.4-52.1,19c-2.6,2.3-4.6,5.2-6,8.4c-2.8,0.2-5.3,0.9-7.8,1.9c-11.8-14.2-28.9-15.2-41.5-3.1
		c-11.8,11.3-13,28.2,1.5,41.4c-1.7,3.5-2.5,7.2-2.5,10.9c-1.9,1.1-3.7,2.5-5.2,4.1c-37.3-19.3-61.8,37.9-21.4,51.2
		c-0.1,2.3,0.1,4.4,0.7,6.9c-2.6,2.5-4.6,5.7-5.9,9.3c-22-1-32,16-30.2,31.5v104.8v23.8h500V0.2z M425.9,61.4
		c0.2-11.3,2.3-37.1,19.1-27.9c15.1,8.2-4.9,26.1-12,32.1c0,0,0,0-0.1,0c-0.2,0.2-0.5,0.4-0.7,0.5c0,0,0,0,0,0
		c-0.2,0.1-0.5,0.2-0.7,0.3c-0.1,0-0.2,0-0.2,0.1c-2,0.5-4.4-0.3-5.2-2.5C425.7,63.2,425.6,62.3,425.9,61.4z M403.3,60.2
		c0.9-9.6,12.6-13,14.4-2.1c1.6,9.8,1.3,21.1-0.2,31.8c7.1-7.7,15.1-14.6,23.4-20.3c9.2-6.2,15.7,4.3,8.6,11.6
		c-6.2,6.4-14.3,11.1-21,17c-6.8,6-12.6,12.7-17.1,20.6c-8.1,14.3-12.9,30.2-23,43.4c-0.2,0.2-0.3,0.4-0.5,0.5c0,0,0,0-0.1,0.1
		c0,0-0.1,0.1-0.1,0.1c-1.5,1.7-4.2,1.5-5.9,0c-1.2-0.9-1.8-2.2-1.4-3.7c0-0.1,0-0.2,0-0.4c3.7-16.2,12.7-30.1,18.4-45.5
		c3.3-8.9,4.7-18,4.9-27.5C403.9,77.4,402.5,68.6,403.3,60.2z M421.6,265.8c11.3,11.6,28.5,15.5,39.2,28
		c25.5,29.7,0.3,68.8-3.3,101.1c0,0.4-0.2,0.8-0.3,1.1c0,0,0,0.1,0,0.1c0,5.4-8.4,5.4-8.4,0c0-21.3,11.4-40.6,11.7-61.7
		c0.3-21.3-15-35.3-30.4-47.6c-12.9-10.3-27.9-21.2-31.5-38.3c-3.8-17.6,4.1-34.3,11.8-49.7c2.4-4.9,9.5-0.6,7.3,4.3
		C408.3,223,404.9,248.6,421.6,265.8z M434.7,236.2c0.6,3.9,1.4,8,3.5,11.4c0.8,1,1.6,2,2.3,3c0.8,0.9,1.7,1.5,2.5,1.9
		c-0.1-0.3-0.3-0.7-0.4-1.1c-1.1-4.2,1.1-7.3,4.2-8.8c2.3-1.7,5.5-2.2,8.9-0.8c10,4.3,7.4,18.1-0.4,23.1c-10.5,6.8-23-1.2-27.5-11.3
		c-5.7-12.9-3.4-28.9,1.4-41.6c0.2-0.5,0.5-1,0.8-1.3c0-0.1,0-0.1,0.1-0.2c2.1-5,9.4-0.7,7.3,4.3
		C434.4,221.7,433.6,228.9,434.7,236.2z M311.5,423.2c2.1-5.3,6.3-8.6,11.3-10.2c-2.3-4.7-3-10-0.7-15.3c2.9-6.5,9.8-11,16.9-10.2
		c9.1,1,14.7,9,19.9,15.7c7.9,10.3,15.8,20.6,23.7,30.9c2.2,2.9-0.9,6-3.6,6.3c-12.9,1.7-25.7,3.4-38.6,5.1
		c-8.2,1.1-17.7,2.5-24.6-3.4C310.5,437.5,309,429.6,311.5,423.2z M309.9,409.4c-3.9,4.6-10.7,6.5-16.1,3.2c-4.9-3-7-8.9-4.6-14.1
		c2.3-5,8.3-7.1,13.5-5.5c5.8,1.7,8.9,7.7,8.5,13.5c0,0.5-0.2,0.9-0.3,1.4c0,0.1-0.1,0.1-0.1,0.2c0,0.1-0.1,0.1-0.1,0.2
		C310.5,408.6,310.3,409,309.9,409.4z M370.5,394.7c-14-19.3-34-22-56.3-19.8c-18.1,1.8-38.6,6.2-54.8-4.8
		c-14.6-9.8-20.7-27-26-42.9c-1.7-5.2,6.3-7.3,8.1-2.2c7.2,19.7,21.9,39.8,44.6,41.4c17.9,1.3,34.3-9.9,52.4-7.6
		c37.5,4.9,46.8,48.6,66.8,73.6c0.3,0.3,0.5,0.7,0.6,1c0,0,0.1,0.1,0.1,0.1c3.9,3.8-2.1,9.8-6,6C387,426.6,381.1,409.3,370.5,394.7z
		 M279.8,395.7c-1.7,3.1-5.8,4.3-9,2.7c-2.6-1.3-3.7-4.1-3.5-6.8c0-0.5,0.1-1.1,0.3-1.6c0.2-0.6,0.6-1.1,1.1-1.5
		c2.1-2.3,5.4-3.3,8.3-1.7C279.9,388.5,281.4,392.7,279.8,395.7z M344.1,311.4c-9,3.3-21.4-3.4-19-14.1c1-4.4,3.9-6.6,7-7.1
		c3.2-1.3,7.1-0.8,9.4,3.1c0.2,0.4,0.4,0.7,0.5,1c0.3-0.8,0.4-1.8,0.4-3c0-2.8-0.7-5.4-2-7.8c-1.3-2.7-3.1-5.4-5-7.7
		c-4.3-5.3-9.8-9.5-16.2-12c-5-2-2.8-10.2,2.2-8.1c0.1,0,0.2,0.1,0.2,0.1c0.5,0,1,0.1,1.4,0.4c12.2,5.5,24.4,14.8,29.9,27.3
		C357.6,293.3,355.4,307.2,344.1,311.4z M342.8,341.2c-0.2,0.3-0.4,0.6-0.7,0.9c-0.3,0.3-0.6,0.5-0.9,0.7c-4.2,3.2-10.1,3.2-14-0.7
		c-4.1-4.1-4-10.8,0-14.9c4-4,10.9-4,14.9,0C345.9,331.1,346,337,342.8,341.2z M321.7,316.5c0.8,3.2-2,5.9-5.2,5.2
		c-24.3-5.8-48.3-12.8-72-21c-2.7-0.7-3.4-3.3-2.7-5.4c0.5-2,2.4-3.7,5-2.8c19.5,5.3,39.1,9.7,59,13.2c-3.5-19.9-7.9-39.5-13.2-59
		c-0.9-2.6,0.7-4.4,2.8-5c2.1-0.7,4.6,0,5.4,2.7C308.9,268.2,315.9,292.2,321.7,316.5z M292.8,341.2c-3.8-2.7-4-6.6-2.4-9.8
		c0.8-3.1,3.4-5.9,7.9-6.5c10.2-1.4,16.1,10.6,13,19.2c-4.4,12-19.1,13.4-29.2,8.5c-11.9-5.8-20.8-17.5-26.1-29.4
		c-0.2-0.5-0.3-1-0.4-1.4c0-0.1-0.1-0.2-0.1-0.2c-2-5,6.1-7.2,8.1-2.2c2.6,6.4,6.7,11.9,12,16.2c2.3,1.9,5,3.7,7.7,5
		c2.4,1.3,5,2,7.8,2c1.2,0,2.2-0.1,3-0.4C293.8,341.8,293.4,341.5,292.8,341.2z M251.1,241c-0.2-0.9-0.1-1.6,0.1-2.3
		c0.5-1.8,2.3-2.6,4.1-2.4c1.7,0,3.3,0.9,4,2.9c2.4,6.9,4.4,13.9,6.1,21.1c0.8,3.2-2,5.9-5.2,5.2c-7.1-1.7-14.1-3.8-21.1-6.1
		c-2-0.7-2.9-2.3-2.9-4c-0.2-1.8,0.7-3.6,2.4-4.1c0.6-0.3,1.4-0.3,2.3-0.1c3.5,0.3,7,0.4,10.5,0.4C251.5,248,251.4,244.5,251.1,241z
		 M239.2,273.7c0.5-2.1,2.4-3.8,5-2.9c10.7,2.4,21.4,4.3,32.2,5.7c-1.4-10.8-3.3-21.5-5.7-32.2c-0.9-2.7,0.8-4.5,2.9-5
		c2.1-0.7,4.6,0,5.2,2.8c5,14.7,9.4,29.6,13,44.8c0.8,3.2-2,5.9-5.2,5.2c-15.1-3.6-30-8-44.8-13
		C239.2,278.3,238.5,275.8,239.2,273.7z M302.2,234c-1.3-0.4-2.7-0.8-4-1.2c-0.5-0.1-0.9-0.2-1.4-0.4c-0.9-0.2-1.7-0.4-2.6-0.6
		c-14.3-3.1-28.9-2.9-43.5-4.4c-0.2,0-0.3,0-0.5-0.1c-1.4-0.1-2.7-0.3-4.1-0.5c-5.9-0.8-12.5-3-17.4,1.9c-5,5-2.7,11.4-1.9,17.4
		c0.2,1.3,0.3,2.7,0.5,4c0,0.2,0,0.3,0.1,0.5c1.6,14.6,1.3,29.3,4.5,43.6c0.2,0.9,0.4,1.7,0.6,2.5c0.1,0.5,0.2,0.9,0.4,1.4
		c0.4,1.3,0.7,2.7,1.2,4c1.7,5.2-6.5,7.4-8.1,2.2c-0.3-0.9-0.6-1.9-0.9-2.8c-0.1-0.2-0.1-0.4-0.2-0.6c-0.2-0.7-0.4-1.5-0.6-2.2
		c0-0.2-0.1-0.3-0.1-0.5c-0.2-0.8-0.4-1.6-0.6-2.4c0-0.1,0-0.2,0-0.2c-2.6-11.8-3-23.9-3.8-35.9c-0.1-0.8-0.1-1.6-0.2-2.4
		c-0.4-4.8-1.6-10-2.1-15.2c-2.1-10.4-5.5-20.4-11.1-30.1c-2.1-3.7,2.1-7.9,5.8-5.8c9.7,5.5,19.6,9,30.1,11.1
		c5.1,0.5,10.3,1.6,15.1,2.1c0.8,0.1,1.6,0.1,2.4,0.2c12.1,0.8,24.2,1.2,36,3.8c0.1,0,0.1,0,0.2,0c0.8,0.2,1.6,0.4,2.4,0.6
		c0.2,0,0.3,0.1,0.5,0.1c0.7,0.2,1.5,0.4,2.2,0.6c0.2,0.1,0.4,0.1,0.6,0.2c0.9,0.3,1.9,0.6,2.8,0.9
		C309.6,227.6,307.4,235.7,302.2,234z M358.8,338.5c-2.4-18.5,9.4-35.4,7.5-53.8c-2.4-22.1-22-36.2-41.3-43.3c-5-1.8-3-9.9,2.2-8.1
		c16.4,5.5,34,11.8,43.6,27.1c10.1,16.1,5.8,36,4.1,53.7c-2.3,23,0.9,43.1,20.9,57.1c14.4,10,31.1,16.1,43.6,28.7
		c3.8,3.9-2.1,9.8-6,6c0,0-0.1-0.1-0.1-0.1c-0.3-0.2-0.7-0.3-1-0.6C407.4,385.3,363.7,376,358.8,338.5z M395.7,279.8
		c-3,1.7-7.4,0.1-8.9-2.9c-1.5-3-0.5-6.2,1.8-8.3c0.4-0.4,0.9-0.8,1.4-1c0.6-0.3,1.1-0.4,1.7-0.3c0,0,0.1,0,0.1,0c0,0,0,0,0.1,0
		c2.8-0.1,5.6,1.2,6.7,4C400,274.3,398.6,278.1,395.7,279.8z M412.8,294.2c3.1,5.4,1.1,11.9-3.4,15.8c-0.4,0.3-0.8,0.6-1.2,0.7
		c-0.1,0-0.1,0-0.2,0.1c-0.1,0-0.2,0.1-0.3,0.1c-0.4,0.2-0.9,0.3-1.4,0.3c-6,0.5-11.9-2.9-13.6-8.9c-1.4-5.1,0.7-10.8,5.6-13.1
		C403.8,286.7,409.9,289.1,412.8,294.2z M378.8,231.8c-0.2,1.7-1.2,2.6-2.4,2.9c-1.1,0.6-2.4,0.6-3.8-0.4
		c-15.4-11.7-44.1-13.7-47-37.2c-2-16.3,14.7-25.8,27.3-19.4c4.3-13.1,22.1-18.6,32.4-6.3C400.8,190,381.5,212.5,378.8,231.8z
		 M440.4,378.9c-0.4,2.7-3.5,5.8-6.3,3.6c-10.3-7.9-20.6-15.8-30.9-23.7c-6.7-5.1-14.7-10.8-15.7-19.9c-0.8-7.2,3.7-14.1,10.2-16.9
		c5.3-2.3,10.6-1.6,15.3,0.7c1.7-5,4.9-9.2,10.2-11.3c6.4-2.5,14.3-1,18.9,4.3c5.9,6.8,4.5,16.4,3.4,24.6
		C443.8,353.2,442.1,366.1,440.4,378.9z M368.3,17.4c18.5,0.5,7.1,25.6,2.7,34.7c-0.8,1.6-2.1,2.2-3.5,2.1c-1.5,0.3-3-0.3-3.8-2.1
		C359.7,42.6,349.3,16.8,368.3,17.4z M345.8,46.7c4.6-1.6,7.5,2.2,9.3,5.8c4.6,9.1,8.7,18.5,11.6,28.3c0.9-2.4,1.8-4.8,2.8-7.2
		c3-7.1,6.5-17.5,11.7-23.4c6.5-7.5,14.3,0.5,11.7,8.4c-2.6,7.8-8,15.2-11.6,22.6c-4,8.3-7,16.8-8.1,25.9
		c-2.1,17.2,0.1,34.5-3.9,51.4c-0.5,2.3-2.4,3.2-4.2,3c-1.8,0.2-3.7-0.6-4.2-3c-3.5-18.2,0.2-36.5-2-54.8c-1.1-9.5-4.5-18.4-8.4-27
		c-3-6.5-7.6-13.2-9.3-20.1C340.3,52.8,341.6,48.1,345.8,46.7z M292.1,33.5c17.2-8,17.9,18.2,17.6,29.1c0.1,0.8,0,1.6-0.4,2.4
		c-0.4,1-1.2,1.7-2.1,2.1c-0.1,0-0.2,0.1-0.2,0.1c-0.1,0-0.1,0-0.2,0.1c-0.9,0.4-2,0.4-3,0c-0.8-0.3-1.4-0.7-1.9-1.4
		C294.5,58.9,276.6,40.7,292.1,33.5z M294.6,70.1c7.9,6.1,15.6,13.2,22.3,21.1c-1.1-10.8-0.9-22.1,1.2-31.9c2-9.6,13.2-8.1,14.3,1.3
		c1,8.7-1.4,18.3-1.6,27c-0.3,9.1,0.6,18.1,3.3,26.8c5,16,13.7,30.5,16.7,47.2c0,0.2,0,0.4,0,0.6c0.4,2-1.1,3.7-2.9,4.4
		c-1.7,0.6-3.6,0.4-4.6-1.2c-0.1-0.1-0.2-0.3-0.3-0.4c-9.7-14-13.8-30.6-21.7-45.6c-4.3-8.1-10-14.9-16.6-21.1
		c-6.1-5.8-13.6-10.7-19.2-16.9C278.3,73.4,285.6,63.2,294.6,70.1z M262.2,89.4c-1-4.2-0.3-8.7,4.5-9.9c5.1-1.2,8.2,3,10,7
		c7.5,17.6,11.4,34.8,24.9,49.2c10.8,11.4,23.2,20.9,32,34.1c1.4,2,0.6,4-0.8,5.1c-1.2,1.4-3.1,2-5.1,0.8
		c-13.9-8.5-24.1-21-36.4-31.4c-14.4-12.1-31.5-15.4-48.8-21.6c-4.3-1.6-8.9-4.7-7.8-10c0.9-4.4,4.9-5.5,8.9-4.9
		c8.4,1.3,17.4,5.4,25.2,8.6c1.8,0.8,3.6,1.5,5.4,2.4C268.9,109.5,264.7,99.3,262.2,89.4z M228.7,75.1
		c12.7-13.3,23.7,11.8,27.5,21.5c0.8,1.9,0,3.4-1.2,4.3c-0.9,1-2.3,1.5-4,0.9C241,98.3,216,88.4,228.7,75.1z M234,130.3
		c6.9,5.7,12.3,13.3,18.8,19.5c6.6,6.3,13.8,11.4,22.1,15.2c15,6.9,31.2,10.3,45.2,19.2c0.1,0.1,0.2,0.1,0.3,0.2
		c1.2,0.6,1.8,1.9,1.7,3.2c0.1,2.3-1.8,4.7-4.2,4.6c-0.3,0-0.7,0-1,0c-16.7-2.3-31.6-10.4-47.8-14.7c-9.4-2.5-18.8-2.8-28.4-2
		c-8.2,0.6-17.8,3.6-26,2.6c-10.2-1.2-9.4-12.8,0.2-14.4c9.9-1.7,20.3-2.5,30.5-2.1c-8.7-6.5-16.9-14.3-22.8-22.5
		C215.9,130,226.6,124.1,234,130.3z M186.5,138.8c6.4-15.5,25.2,1.3,32.5,8.4c0.8,0.4,1.4,1.1,1.7,2c1.1,2.1-0.1,4.4-1.9,5.5
		c-0.1,0-0.1,0.1-0.2,0.1c-0.5,0.3-1.1,0.4-1.6,0.5c0,0,0,0-0.1,0C206.3,156,179,156.8,186.5,138.8z M197.1,325.6
		c23.5,2.9,25.6,31.7,37.2,47c1,1.4,1,2.7,0.4,3.8c-0.3,1.2-1.2,2.2-2.9,2.4c-19.2,2.6-41.8,22-60.3,6.4
		c-12.3-10.4-6.8-28.1,6.3-32.4C171.3,340.3,180.8,323.6,197.1,325.6z M138.8,186.5c18-7.7,17.3,20,16.4,30.4c0,0,0,0,0,0.1
		c0,0.6-0.2,1.1-0.5,1.6c0,0.1-0.1,0.1-0.1,0.2c-1.1,1.8-3.4,3-5.5,1.9c-0.8-0.3-1.6-0.9-2-1.7C140,211.6,123.3,193,138.8,186.5z
		 M139.7,223c7.8,6.4,15.3,14.1,21.7,22.4c-0.5-10.5,0.4-21.2,2.2-31.2c1.8-9.5,13.1-9.2,14.3,0.4c1.1,8.7-2.1,18.9-2.7,27.7
		c-0.7,9.6-0.1,18.8,2.5,28.1c4.4,15.7,12.1,30.2,14.3,46.5c0,0.4,0.1,0.7,0,1c0.1,2.4-2.2,4.3-4.6,4.2c-1.3,0.1-2.5-0.5-3.2-1.7
		c-0.1-0.1-0.1-0.2-0.2-0.3c-9.1-14.4-12.5-31.2-19.7-46.5c-7.9-16.8-22.6-25.8-34.1-39.6C123.5,225.9,130.9,215.8,139.7,223z
		 M119,274.4c-1.1-2.3-2.1-4.6-3.1-7c-3-7.4-7.7-16.8-8.3-24.8c-0.3-4,1.4-7.4,5.7-8c5.1-0.7,7.9,3.7,9.4,7.9
		c6.4,17.7,9.8,35.1,22.5,49.7c10.2,11.8,22.3,21.9,30.6,35.4c1.2,2,0.6,3.9-0.8,5.1c-1.1,1.5-3.1,2.2-5.1,0.8
		c-13.5-9.1-23.2-22-35-32.9c-14.1-13-31.2-16.7-48.2-24c-10.8-4.6-7.9-17.8,4.1-14C100.4,265.7,110,269.6,119,274.4z M75.1,228.7
		C88.4,216,98.3,241,101.7,251c0.6,1.7,0.1,3.1-0.9,4c-0.9,1.3-2.4,2-4.3,1.2C86.8,252.4,61.8,241.4,75.1,228.7z M81.3,285.4
		c6.6,5.9,11.7,13.8,17.9,20.3c6.3,6.5,13.3,12,21.3,16.2c14.6,7.5,30.7,11.6,44.4,21.1c0.2,0.1,0.3,0.2,0.4,0.3
		c1.6,1,1.9,2.9,1.2,4.6c-0.6,1.9-2.4,3.4-4.4,3c-0.2,0-0.4,0-0.6,0c-17.1-3.1-32-12.3-48.5-17.1c-8.8-2.6-17.8-3.2-27-2.9
		c-8.2,0.3-17.3,2.5-25.4,1.6c-9.7-1.1-10.8-12.8-0.7-14.4c10-1.5,20.8-1.9,31.4-0.9c-8.1-6.8-15.6-14.7-21.5-22.8
		C63.2,285.1,73.7,278.6,81.3,285.4z M158.6,369.3c-17.8,4.2-36,1.4-53.9,4.2c-8.7,1.4-16.9,4.5-24.8,8.5c-7,3.5-13.9,8.5-21.3,11
		c-8.7,2.9-15.8-6.1-7.6-12.2c6.5-4.8,15.6-8.2,23.1-11.4c2.1-0.9,4.2-1.7,6.3-2.5c-10.4-2.9-20.7-7.1-29.3-12.4
		c-8.1-5-4-15.6,5.6-13.3c7.4,1.8,14.6,6.8,21.4,9.9c8.7,3.9,17.6,7,27.2,8c17.8,1.8,35.5-1.5,53.2,1.8c2.4,0.5,3.2,2.3,3,4.2
		C161.8,366.9,160.9,368.7,158.6,369.3z M33.5,292.1c7.1-15.6,25.5,2.4,32.3,9.8c0.7,0.5,1.1,1.2,1.4,1.9c0.4,1,0.4,2.1,0,3
		c0,0,0,0.1,0,0.1c0,0.1-0.1,0.2-0.1,0.3c-0.4,0.9-1.1,1.7-2.1,2.1c-0.7,0.4-1.5,0.5-2.4,0.4C51.6,310.1,25.6,309.4,33.5,292.1z
		 M17.4,368.3c-0.7-19,25.4-8.6,34.7-4.5c1.9,0.8,2.4,2.4,2.1,3.8c0.1,1.3-0.5,2.7-2.1,3.4C42.9,375.5,18.1,386.8,17.4,368.3z
		 M66.5,431.3c0,0.1,0,0.2-0.1,0.3c-0.1,0.2-0.2,0.4-0.3,0.6c0,0,0,0.1,0,0.1c-0.1,0.3-0.3,0.5-0.5,0.7c0,0,0,0-0.1,0.1
		c-6,7-23.9,27-32.1,12c-9.2-16.9,16.6-19,27.9-19.1c0.9-0.3,1.8-0.2,2.6,0.2C66.2,426.8,67,429.2,66.5,431.3z M70,440.5
		c6-8.3,12.8-16.4,20.5-23.4c-2.9,0.3-5.8,0.6-8.7,0.7c-7.7,0.4-17,1.4-24.6-0.2c-10.5-2.3-5.6-13.5,3-14.3c9-0.8,18.3,0.7,27.3,0.5
		c9.5-0.2,18.4-1.9,27.3-5.3c14.9-5.8,28.5-14.4,44.3-17.9c0.1,0,0.2,0,0.4,0c1.5-0.5,2.8,0.2,3.7,1.3c1.5,1.7,1.7,4.4,0,5.9
		c0,0.1-0.1,0.1-0.1,0.1c0,0,0,0,0,0c-0.2,0.2-0.3,0.3-0.5,0.5c-13.6,10.3-30,15.1-44.6,23.7c-7.9,4.6-14.4,10.6-20.4,17.5
		c-5.5,6.4-10,14.1-16.1,19.9C73.6,457,63.5,449.6,70,440.5z M142.1,459c-1.4,1.2-2.9,2.4-4.4,3.5c-4.8,3.7-11.4,6.9-11.6,13.9H95.5
		c0.1-1.7,1.1-3.3,3-3.8c10.8-2.9,20.3-7.6,29.2-13.5c3.7-3,7.8-5.7,11.3-8.5c1.3-1.1,2.6-2.1,3.8-3.3c5.1-4.5,10.1-9,15.4-13.3
		c0.1,0,0.1-0.1,0.2-0.1c1.3-1,2.6-2,3.8-3c0.3-0.2,0.5-0.4,0.8-0.6c1.1-0.9,2.3-1.7,3.5-2.5c0.4-0.3,0.8-0.6,1.2-0.9
		c1.1-0.8,2.3-1.5,3.5-2.2c0.4-0.3,0.9-0.6,1.3-0.8c1.6-1,3.3-1.9,5-2.7c4.8-2.4,9.1,4.8,4.3,7.3c-1.3,0.6-2.5,1.3-3.8,2
		c-0.4,0.2-0.7,0.4-1.1,0.6c-1.1,0.6-2.1,1.3-3.2,2c-0.6,0.4-1.2,0.8-1.8,1.2c-0.4,0.3-0.8,0.6-1.3,0.9c-9.9,7-18.6,15.6-28,23.4
		C142.5,458.7,142.3,458.8,142.1,459z M157.9,476.4c-2.4-2.4-4.8-4.7-7.4-6.8c-0.8-0.5-1.3-1.1-1.5-1.8c-0.9-1.8,0.1-3.8,1.7-4.9
		c1.2-0.9,2.8-1.2,4.5-0.4c6.6,3.2,13,6.7,19.2,10.5c1.3,0.8,1.9,2,2,3.3H157.9z M193.1,476.4c-8.5-6.6-17.3-12.7-26.4-18.5
		c-2.5-1.2-2.6-3.7-1.5-5.5c1-2,3.3-3.3,5.7-1.8c14,6.8,27.6,14.3,40.9,22.4c1.3,0.8,1.9,2,2,3.3H193.1z M234.6,476.4
		c-16.4-11.5-33.3-22.2-50.7-32.1c-2.2-1.1-2.5-3.2-1.8-5c0.8-2.2,3.4-3.8,6-2.3c22.5,11,44.4,22.9,65.7,36.1c1.3,0.8,1.9,2,2,3.3
		H234.6z M241.7,455.1c-1.3-3.5-0.5-6.6,1.3-8.7c1.6-3.1,4.9-5.2,9.1-3.8c0.2,0.1,0.3,0.1,0.5,0.2c-0.4-0.8-1-1.5-1.8-2.4
		c-1.4-1.5-3.1-2.6-5-3.2c-3-1.4-6.2-2.1-9.4-2.6c-7.3-1.1-14.5-0.2-21.4,2.7c-4.9,2.1-9.2-5.2-4.3-7.3c0.1,0,0.1,0,0.2-0.1
		c0.4-0.3,0.8-0.6,1.3-0.8c13.1-4.9,29.8-7.2,42.8-0.8c9.6,4.7,16.6,16.9,10.1,26.9C259.9,463.1,245.5,465.7,241.7,455.1z
		 M265.2,476.4c0.2-5.6,4.9-10.2,10.5-10.2c5.4,0,9.5,4,10.4,9.1c0.1,0.3,0.2,0.7,0.2,1.1H265.2z M293.8,460.8
		c-12.7-11-16.7-28.6-28.9-40c-17-16-42.5-12.2-61.8-3.2c-4.9,2.3-9.1-4.8-4.3-7.3c15.7-7.8,33.2-16.1,51.2-11.5
		c16.4,4.2,26.9,18.7,36.9,31.2c12.7,15.9,27.1,31.3,49.1,30.3c20.6-0.9,39.3-11.6,60.2-11.6c5.4,0,5.4,8.4,0,8.4c0,0-0.1,0-0.1,0
		c-0.4,0.1-0.7,0.2-1.1,0.3C362.7,461.1,323.3,486.3,293.8,460.8z M378.8,476.4c0.1-1.6,1.1-3.1,3-3.8c23.3-8.1,45.4-10.9,68.2,0.4
		c1.6,0.8,2.2,2.1,2.1,3.3H378.8z M459.3,459.3c-0.9,1.1-2.3,1.7-4.1,1.1c-24.1-8-37.7-25.8-48.5-47.9c-1.9-3.9,1.9-7.6,5.8-5.8
		c22.1,10.8,39.8,24.4,47.9,48.5C461,457,460.4,458.4,459.3,459.3z M476.4,476.4h-7c0,0,0-0.1,0-0.1c0-0.9-0.1-1.8-0.2-2.7
		c0.8-0.6,1.6-1.3,2.3-2c0.7-0.7,1.4-1.5,2-2.3c0.9,0.1,1.8,0.2,2.7,0.2c0,0,0.1,0,0.1,0V476.4z M476.4,452.2
		c-1.3,0-2.6-0.6-3.3-2.1c-11.3-22.8-8.5-44.9-0.4-68.2c0.7-1.9,2.2-2.9,3.8-3V452.2z M476.4,286.3c-0.4,0-0.8-0.1-1.2-0.2
		c-5.2-0.9-9.3-5.1-9.1-10.7c0.2-5.5,4.7-10.1,10.2-10.2V286.3z M476.4,256c-1.3-0.1-2.6-0.8-3.3-2c-13.1-21.3-25.1-43.3-36.1-65.7
		c-1.5-2.7,0.1-5.2,2.3-6c1.7-0.8,3.9-0.5,4.9,1.8c9.9,17.4,20.6,34.3,32.1,50.7V256z M476.4,213.8c-1.3-0.1-2.6-0.8-3.3-2
		c-8.1-13.3-15.6-26.9-22.4-40.9c-1.5-2.4-0.2-4.7,1.7-5.7c1.8-1.1,4.3-1,5.5,1.4c5.8,9.1,11.9,17.9,18.5,26.4V213.8z M476.4,176.4
		c-1.3-0.1-2.6-0.8-3.3-2c-3.8-6.2-7.3-12.7-10.5-19.2c-0.8-1.7-0.5-3.3,0.4-4.5c1.1-1.6,3.1-2.6,4.9-1.7c0.7,0.3,1.3,0.8,1.8,1.5
		c2.2,2.6,4.5,5,6.8,7.4V176.4z M476.4,126.1c-7,0.2-10.1,6.8-13.9,11.6c-1.1,1.5-2.3,2.9-3.5,4.4c-0.2,0.2-0.3,0.4-0.5,0.6
		c-7.8,9.4-16.4,18.1-23.4,28c-0.3,0.5-0.7,1-1,1.4c-0.4,0.5-0.7,1.1-1.1,1.6c-0.7,1.1-1.4,2.2-2,3.3c-0.2,0.3-0.4,0.7-0.6,1
		c-0.7,1.2-1.4,2.5-2,3.8c-2.4,4.9-9.7,0.6-7.3-4.3c0.9-1.7,1.8-3.4,2.8-5.1c0.3-0.5,0.6-0.9,0.9-1.4c0.7-1.2,1.5-2.3,2.2-3.5
		c0.3-0.5,0.7-0.9,1-1.4c0.8-1.1,1.6-2.3,2.4-3.4c0.3-0.4,0.6-0.8,0.9-1.1c0.9-1.2,1.9-2.4,2.9-3.7c0.2-0.2,0.3-0.4,0.5-0.6
		c4-4.9,8.3-9.6,12.5-14.4c0.1-0.2,0.3-0.3,0.4-0.5c1.5-1.7,2.9-3.4,4.3-5.1c2.2-2.8,4.3-6,6.6-8.9c6.2-9.1,11.1-18.9,14.1-30
		c0.5-1.9,2.1-2.9,3.8-3V126.1z"/>
</g>
<g id="Ñëîé_2__x28_êîïèÿ_x29_" class="st4">
</g>
</svg>
