<?xml version="1.0" encoding="utf-8"?>
<!-- Generator: Adobe Illustrator 24.0.0, SVG Export Plug-In . SVG Version: 6.00 Build 0)  -->
<svg version="1.1" xmlns="http://www.w3.org/2000/svg" xmlns:xlink="http://www.w3.org/1999/xlink" x="0px" y="0px"
	 viewBox="0 0 500.2 500.2" style="enable-background:new 0 0 500.2 500.2;" xml:space="preserve">
<style type="text/css">
	.st0{fill:url(#SVGID_1_);}
	.st1{fill:url(#SVGID_2_);}
	.st2{fill:url(#SVGID_3_);}
	.st3{fill:url(#SVGID_4_);}
	.st4{display:none;}
	.st5{display:inline;}
	.st6{fill:none;stroke:#FFFFFF;stroke-width:1.5;stroke-miterlimit:10;}
	.st7{fill:none;stroke:#FFFFFF;stroke-width:1.5;stroke-miterlimit:10;stroke-dasharray:12.1214,12.1214;}
</style>
<g id="Ñëîé_2">
	
		<linearGradient id="SVGID_1_" gradientUnits="userSpaceOnUse" x1="69.9411" y1="569.9412" x2="569.9411" y2="69.9411" gradientTransform="matrix(-1 0 0 -1 500.2045 500.2045)">
		<stop  offset="0" style="stop-color:#BE965D"/>
		<stop  offset="0.2784" style="stop-color:#976F40"/>
		<stop  offset="0.4259" style="stop-color:#C99B61"/>
		<stop  offset="0.5584" style="stop-color:#F0BE7B"/>
		<stop  offset="0.6275" style="stop-color:#FFCB85"/>
		<stop  offset="0.7085" style="stop-color:#EEBC79"/>
		<stop  offset="0.8693" style="stop-color:#C0935B"/>
		<stop  offset="1" style="stop-color:#976F40"/>
	</linearGradient>
	<path class="st0" d="M0,500h23.8h104.8c15.5,1.8,32.5-8.2,31.5-30.2c3.6-1.3,6.8-3.3,9.3-5.9c2.5,0.6,4.6,0.8,6.9,0.7
		c13.3,40.4,70.5,15.9,51.2-21.4c1.6-1.5,2.9-3.2,4.1-5.2c3.7,0,7.5-0.8,10.9-2.5c13.2,14.5,30.1,13.3,41.4,1.5
		c12.1-12.6,11.1-29.7-3.1-41.5c1.1-2.5,1.7-5,1.9-7.8c3.2-1.4,6.1-3.4,8.4-6c38.4,17.7,59.7-40.7,19-52.1c0.2-8.5-4-15.8-10.7-20.2
		c2.1-1,4.1-2.4,5.8-4.1c1.7-1.7,3.1-3.6,4.1-5.8c4.4,6.8,11.8,10.9,20.2,10.7c11.4,40.7,69.8,19.4,52.1-19c2.6-2.3,4.6-5.2,6-8.4
		c2.8-0.2,5.3-0.9,7.8-1.9c11.8,14.2,28.9,15.2,41.5,3.1c11.8-11.3,13-28.2-1.5-41.4c1.7-3.5,2.5-7.2,2.5-10.9
		c1.9-1.1,3.7-2.5,5.2-4.1c37.3,19.3,61.8-37.9,21.4-51.2c0.1-2.3-0.1-4.4-0.7-6.9c2.6-2.5,4.6-5.7,5.9-9.3c22,1,32-16,30.2-31.5
		V23.8V0H0V500z M74.3,438.8c-0.2,11.3-2.3,37.1-19.1,27.9c-15.1-8.2,4.9-26.1,12-32.1c0,0,0,0,0.1,0c0.2-0.2,0.5-0.4,0.7-0.5
		c0,0,0,0,0,0c0.2-0.1,0.5-0.2,0.7-0.3c0.1,0,0.2,0,0.2-0.1c2-0.5,4.4,0.3,5.2,2.5C74.5,437,74.6,437.9,74.3,438.8z M96.9,440
		c-0.9,9.6-12.6,13-14.4,2.1c-1.6-9.8-1.3-21.1,0.2-31.8c-7.1,7.7-15.1,14.6-23.4,20.3c-9.2,6.2-15.7-4.3-8.6-11.6
		c6.2-6.4,14.3-11.1,21-17c6.8-6,12.6-12.7,17.1-20.6c8.1-14.3,12.9-30.2,23-43.4c0.2-0.2,0.3-0.4,0.5-0.5c0,0,0,0,0.1-0.1
		c0,0,0.1-0.1,0.1-0.1c1.5-1.7,4.2-1.5,5.9,0c1.2,0.9,1.8,2.2,1.4,3.7c0,0.1,0,0.2,0,0.4c-3.7,16.2-12.7,30.1-18.4,45.5
		c-3.3,8.9-4.7,18-4.9,27.5C96.3,422.8,97.7,431.6,96.9,440z M78.6,234.4c-11.3-11.6-28.5-15.5-39.2-28
		c-25.5-29.7-0.3-68.8,3.3-101.1c0-0.4,0.2-0.8,0.3-1.1c0,0,0-0.1,0-0.1c0-5.4,8.4-5.4,8.4,0c0,21.3-11.4,40.6-11.7,61.7
		c-0.3,21.3,15,35.3,30.4,47.6c12.9,10.3,27.9,21.2,31.5,38.3c3.8,17.6-4.1,34.3-11.8,49.7c-2.4,4.9-9.5,0.6-7.3-4.3
		C91.9,277.2,95.3,251.6,78.6,234.4z M65.5,264c-0.6-3.9-1.4-8-3.5-11.4c-0.8-1-1.6-2-2.3-3c-0.8-0.9-1.7-1.5-2.5-1.9
		c0.1,0.3,0.3,0.7,0.4,1.1c1.1,4.2-1.1,7.3-4.2,8.8c-2.3,1.7-5.5,2.2-8.9,0.8c-10-4.3-7.4-18.1,0.4-23.1c10.5-6.8,23,1.2,27.5,11.3
		c5.7,12.9,3.4,28.9-1.4,41.6c-0.2,0.5-0.5,1-0.8,1.3c0,0.1,0,0.1-0.1,0.2c-2.1,5-9.4,0.7-7.3-4.3C65.8,278.5,66.6,271.3,65.5,264z
		 M188.7,77c-2.1,5.3-6.3,8.6-11.3,10.2c2.3,4.7,3,10,0.7,15.3c-2.9,6.5-9.8,11-16.9,10.2c-9.1-1-14.7-9-19.9-15.7
		c-7.9-10.3-15.8-20.6-23.7-30.9c-2.2-2.9,0.9-6,3.6-6.3c12.9-1.7,25.7-3.4,38.6-5.1c8.2-1.1,17.7-2.5,24.6,3.4
		C189.7,62.7,191.2,70.6,188.7,77z M190.3,90.9c3.9-4.6,10.7-6.5,16.1-3.2c4.9,3,7,8.9,4.6,14.1c-2.3,5-8.3,7.1-13.5,5.5
		c-5.8-1.7-8.9-7.7-8.5-13.5c0-0.5,0.2-0.9,0.3-1.4c0-0.1,0.1-0.1,0.1-0.2c0-0.1,0.1-0.1,0.1-0.2C189.7,91.6,189.9,91.2,190.3,90.9z
		 M129.7,105.5c14,19.3,34,22,56.3,19.8c18.1-1.8,38.6-6.2,54.8,4.8c14.6,9.8,20.7,27,26,42.9c1.7,5.2-6.3,7.3-8.1,2.2
		c-7.2-19.7-21.9-39.8-44.6-41.4c-17.9-1.3-34.3,9.9-52.4,7.6c-37.5-4.9-46.8-48.6-66.8-73.6c-0.3-0.3-0.5-0.7-0.6-1
		c0,0-0.1-0.1-0.1-0.1c-3.9-3.8,2.1-9.8,6-6C113.2,73.6,119.2,90.9,129.7,105.5z M220.4,104.5c1.7-3.1,5.8-4.3,9-2.7
		c2.6,1.3,3.7,4.1,3.5,6.8c0,0.5-0.1,1.1-0.3,1.6c-0.2,0.6-0.6,1.1-1.1,1.5c-2.1,2.3-5.4,3.3-8.3,1.7
		C220.3,111.7,218.8,107.5,220.4,104.5z M156.1,188.9c9-3.3,21.4,3.4,19,14.1c-1,4.4-3.9,6.6-7,7.1c-3.2,1.3-7.1,0.8-9.4-3.1
		c-0.2-0.4-0.4-0.7-0.5-1c-0.3,0.8-0.4,1.8-0.4,3c0,2.8,0.7,5.4,2,7.8c1.3,2.7,3.1,5.4,5,7.7c4.3,5.3,9.8,9.5,16.2,12
		c5,2,2.8,10.2-2.2,8.1c-0.1,0-0.2-0.1-0.2-0.1c-0.5,0-1-0.1-1.4-0.4c-12.2-5.5-24.4-14.8-29.9-27.3
		C142.6,206.9,144.8,193,156.1,188.9z M157.4,159c0.2-0.3,0.4-0.6,0.7-0.9c0.3-0.3,0.6-0.5,0.9-0.7c4.2-3.2,10.1-3.2,14,0.7
		c4.1,4.1,4,10.8,0,14.9c-4,4-10.9,4-14.9,0C154.3,169.1,154.2,163.2,157.4,159z M178.5,183.7c-0.8-3.2,2-5.9,5.2-5.2
		c24.3,5.8,48.3,12.8,72,21c2.7,0.7,3.4,3.3,2.7,5.4c-0.5,2-2.4,3.7-5,2.8c-19.5-5.3-39.1-9.7-59-13.2c3.5,19.9,7.9,39.5,13.2,59
		c0.9,2.6-0.7,4.4-2.8,5c-2.1,0.7-4.6,0-5.4-2.7C191.3,232,184.3,208,178.5,183.7z M207.4,159c3.8,2.7,4,6.6,2.4,9.8
		c-0.8,3.1-3.4,5.9-7.9,6.5c-10.2,1.4-16.1-10.6-13-19.2c4.4-12,19.1-13.4,29.2-8.5c11.9,5.8,20.8,17.5,26.1,29.4
		c0.2,0.5,0.3,1,0.4,1.4c0,0.1,0.1,0.2,0.1,0.2c2,5-6.1,7.2-8.1,2.2c-2.6-6.4-6.7-11.9-12-16.2c-2.3-1.9-5-3.7-7.7-5
		c-2.4-1.3-5-2-7.8-2c-1.2,0-2.2,0.1-3,0.4C206.4,158.4,206.8,158.7,207.4,159z M249.1,259.2c0.2,0.9,0.1,1.6-0.1,2.3
		c-0.5,1.8-2.3,2.6-4.1,2.4c-1.7,0-3.3-0.9-4-2.9c-2.4-6.9-4.4-13.9-6.1-21.1c-0.8-3.2,2-5.9,5.2-5.2c7.1,1.7,14.1,3.8,21.1,6.1
		c2,0.7,2.9,2.3,2.9,4c0.2,1.8-0.7,3.6-2.4,4.1c-0.6,0.3-1.4,0.3-2.3,0.1c-3.5-0.3-7-0.4-10.5-0.4
		C248.7,252.2,248.8,255.7,249.1,259.2z M261,226.5c-0.5,2.1-2.4,3.8-5,2.9c-10.7-2.4-21.4-4.3-32.2-5.7c1.4,10.8,3.3,21.5,5.7,32.2
		c0.9,2.7-0.8,4.5-2.9,5c-2.1,0.7-4.6,0-5.2-2.8c-5-14.7-9.4-29.6-13-44.8c-0.8-3.2,2-5.9,5.2-5.2c15.1,3.6,30,8,44.8,13
		C261,222,261.7,224.4,261,226.5z M198,266.2c1.3,0.4,2.7,0.8,4,1.2c0.5,0.1,0.9,0.2,1.4,0.4c0.9,0.2,1.7,0.4,2.6,0.6
		c14.3,3.1,28.9,2.9,43.5,4.4c0.2,0,0.3,0,0.5,0.1c1.4,0.1,2.7,0.3,4.1,0.5c5.9,0.8,12.5,3,17.4-1.9c5-5,2.7-11.4,1.9-17.4
		c-0.2-1.3-0.3-2.7-0.5-4c0-0.2,0-0.3-0.1-0.5c-1.6-14.6-1.3-29.3-4.5-43.6c-0.2-0.9-0.4-1.7-0.6-2.5c-0.1-0.5-0.2-0.9-0.4-1.4
		c-0.4-1.3-0.7-2.7-1.2-4c-1.7-5.2,6.5-7.4,8.1-2.2c0.3,0.9,0.6,1.9,0.9,2.8c0.1,0.2,0.1,0.4,0.2,0.6c0.2,0.7,0.4,1.5,0.6,2.2
		c0,0.2,0.1,0.3,0.1,0.5c0.2,0.8,0.4,1.6,0.6,2.4c0,0.1,0,0.2,0,0.2c2.6,11.8,3,23.9,3.8,35.9c0.1,0.8,0.1,1.6,0.2,2.4
		c0.4,4.8,1.6,10,2.1,15.2c2.1,10.4,5.5,20.4,11.1,30.1c2.1,3.7-2.1,7.9-5.8,5.8c-9.7-5.5-19.6-9-30.1-11.1
		c-5.1-0.5-10.3-1.6-15.1-2.1c-0.8-0.1-1.6-0.1-2.4-0.2c-12.1-0.8-24.2-1.2-36-3.8c-0.1,0-0.1,0-0.2,0c-0.8-0.2-1.6-0.4-2.4-0.6
		c-0.2,0-0.3-0.1-0.5-0.1c-0.7-0.2-1.5-0.4-2.2-0.6c-0.2-0.1-0.4-0.1-0.6-0.2c-0.9-0.3-1.9-0.6-2.8-0.9
		C190.6,272.6,192.8,264.5,198,266.2z M141.4,161.7c2.4,18.5-9.4,35.4-7.5,53.8c2.4,22.1,22,36.2,41.3,43.3c5,1.8,3,9.9-2.2,8.1
		c-16.4-5.5-34-11.8-43.6-27.1c-10.1-16.1-5.8-36-4.1-53.7c2.3-23-0.9-43.1-20.9-57.1c-14.4-10-31.1-16.1-43.6-28.7
		c-3.8-3.9,2.1-9.8,6-6c0,0,0.1,0.1,0.1,0.1c0.3,0.2,0.7,0.3,1,0.6C92.8,114.9,136.5,124.2,141.4,161.7z M104.5,220.4
		c3-1.7,7.4-0.1,8.9,2.9c1.5,3,0.5,6.2-1.8,8.3c-0.4,0.4-0.9,0.8-1.4,1c-0.6,0.3-1.1,0.4-1.7,0.3c0,0-0.1,0-0.1,0c0,0,0,0-0.1,0
		c-2.8,0.1-5.6-1.2-6.7-4C100.3,225.9,101.6,222.1,104.5,220.4z M87.4,206c-3.1-5.4-1.1-11.9,3.4-15.8c0.4-0.3,0.8-0.6,1.2-0.7
		c0.1,0,0.1,0,0.2-0.1c0.1,0,0.2-0.1,0.3-0.1c0.4-0.2,0.9-0.3,1.4-0.3c6-0.5,11.9,2.9,13.6,8.9c1.4,5.1-0.7,10.8-5.6,13.1
		C96.4,213.5,90.4,211.1,87.4,206z M121.4,268.4c0.2-1.7,1.2-2.6,2.4-2.9c1.1-0.6,2.4-0.6,3.8,0.4c15.4,11.7,44.1,13.7,47,37.2
		c2,16.3-14.7,25.8-27.3,19.4c-4.3,13.1-22.1,18.6-32.4,6.3C99.4,310.2,118.7,287.7,121.4,268.4z M59.8,121.3
		c0.4-2.7,3.5-5.8,6.3-3.6c10.3,7.9,20.6,15.8,30.9,23.7c6.7,5.1,14.7,10.8,15.7,19.9c0.8,7.2-3.7,14.1-10.2,16.9
		c-5.3,2.3-10.6,1.6-15.3-0.7c-1.7,5-4.9,9.2-10.2,11.3c-6.4,2.5-14.3,1-18.9-4.3c-5.9-6.8-4.5-16.4-3.4-24.6
		C56.4,147,58.1,134.1,59.8,121.3z M131.9,482.8c-18.5-0.5-7.1-25.6-2.7-34.7c0.8-1.6,2.1-2.2,3.5-2.1c1.5-0.3,3,0.3,3.8,2.1
		C140.5,457.6,150.9,483.4,131.9,482.8z M154.4,453.5c-4.6,1.6-7.5-2.2-9.3-5.8c-4.6-9.1-8.7-18.5-11.6-28.3
		c-0.9,2.4-1.8,4.8-2.8,7.2c-3,7.1-6.5,17.5-11.7,23.4c-6.5,7.5-14.3-0.5-11.7-8.4c2.6-7.8,8-15.2,11.6-22.6c4-8.3,7-16.8,8.1-25.9
		c2.1-17.2-0.1-34.5,3.9-51.4c0.5-2.3,2.4-3.2,4.2-3c1.8-0.2,3.7,0.6,4.2,3c3.5,18.2-0.2,36.5,2,54.8c1.1,9.5,4.5,18.4,8.4,27
		c3,6.5,7.6,13.2,9.3,20.1C159.9,447.4,158.6,452.1,154.4,453.5z M208.1,466.7c-17.2,8-17.9-18.2-17.6-29.1c-0.1-0.8,0-1.6,0.4-2.4
		c0.4-1,1.2-1.7,2.1-2.1c0.1,0,0.2-0.1,0.2-0.1c0.1,0,0.1,0,0.2-0.1c0.9-0.4,2-0.4,3,0c0.8,0.3,1.4,0.7,1.9,1.4
		C205.7,441.3,223.6,459.5,208.1,466.7z M205.6,430.1c-7.9-6.1-15.6-13.2-22.3-21.1c1.1,10.8,0.9,22.1-1.2,31.9
		c-2,9.6-13.2,8.1-14.3-1.3c-1-8.7,1.4-18.3,1.6-27c0.3-9.1-0.6-18.1-3.3-26.8c-5-16-13.7-30.5-16.7-47.2c0-0.2,0-0.4,0-0.6
		c-0.4-2,1.1-3.7,2.9-4.4c1.7-0.6,3.6-0.4,4.6,1.2c0.1,0.1,0.2,0.3,0.3,0.4c9.7,14,13.8,30.6,21.7,45.6c4.3,8.1,10,14.9,16.6,21.1
		c6.1,5.8,13.6,10.7,19.2,16.9C221.9,426.8,214.6,437,205.6,430.1z M238,410.8c1,4.2,0.3,8.7-4.5,9.9c-5.1,1.2-8.2-3-10-7
		c-7.5-17.6-11.4-34.8-24.9-49.2c-10.8-11.4-23.2-20.9-32-34.1c-1.4-2-0.6-4,0.8-5.1c1.2-1.4,3.1-2,5.1-0.8
		c13.9,8.5,24.1,21,36.4,31.4c14.4,12.1,31.5,15.4,48.8,21.6c4.3,1.6,8.9,4.7,7.8,10c-0.9,4.4-4.9,5.5-8.9,4.9
		c-8.4-1.3-17.4-5.4-25.2-8.6c-1.8-0.8-3.6-1.5-5.4-2.4C231.3,390.7,235.5,400.9,238,410.8z M271.5,425.1
		c-12.7,13.3-23.7-11.8-27.5-21.5c-0.8-1.9,0-3.4,1.2-4.3c0.9-1,2.3-1.5,4-0.9C259.2,402,284.3,411.8,271.5,425.1z M266.2,370
		c-6.9-5.7-12.3-13.3-18.8-19.5c-6.6-6.3-13.8-11.4-22.1-15.2c-15-6.9-31.2-10.3-45.2-19.2c-0.1-0.1-0.2-0.1-0.3-0.2
		c-1.2-0.6-1.8-1.9-1.7-3.2c-0.1-2.3,1.8-4.7,4.2-4.6c0.3,0,0.7,0,1,0c16.7,2.3,31.6,10.4,47.8,14.7c9.4,2.5,18.8,2.8,28.4,2
		c8.2-0.6,17.8-3.6,26-2.6c10.2,1.2,9.4,12.8-0.2,14.4c-9.9,1.7-20.3,2.5-30.5,2.1c8.7,6.5,16.9,14.3,22.8,22.5
		C284.3,370.2,273.6,376.1,266.2,370z M313.7,361.5c-6.4,15.5-25.2-1.3-32.5-8.4c-0.8-0.4-1.4-1.1-1.7-2c-1.1-2.1,0.1-4.4,1.9-5.5
		c0.1,0,0.1-0.1,0.2-0.1c0.5-0.3,1.1-0.4,1.6-0.5c0,0,0,0,0.1,0C293.9,344.2,321.2,343.4,313.7,361.5z M303.1,174.6
		c-23.5-2.9-25.6-31.7-37.2-47c-1-1.4-1-2.7-0.4-3.8c0.3-1.2,1.2-2.2,2.9-2.4c19.2-2.6,41.8-22,60.3-6.4
		c12.3,10.4,6.8,28.1-6.3,32.4C328.9,159.9,319.4,176.6,303.1,174.6z M361.5,313.7c-18,7.7-17.3-20-16.4-30.4c0,0,0,0,0-0.1
		c0-0.6,0.2-1.1,0.5-1.6c0-0.1,0.1-0.1,0.1-0.2c1.1-1.8,3.4-3,5.5-1.9c0.8,0.3,1.6,0.9,2,1.7C360.2,288.6,376.9,307.2,361.5,313.7z
		 M360.5,277.2c-7.8-6.4-15.3-14.1-21.7-22.4c0.5,10.5-0.4,21.2-2.2,31.2c-1.8,9.5-13.1,9.2-14.3-0.4c-1.1-8.7,2.1-18.9,2.7-27.7
		c0.7-9.6,0.1-18.8-2.5-28.1c-4.4-15.7-12.1-30.2-14.3-46.5c0-0.4-0.1-0.7,0-1c-0.1-2.4,2.2-4.3,4.6-4.2c1.3-0.1,2.5,0.5,3.2,1.7
		c0.1,0.1,0.1,0.2,0.2,0.3c9.1,14.4,12.5,31.2,19.7,46.5c7.9,16.8,22.6,25.8,34.1,39.6C376.7,274.3,369.3,284.4,360.5,277.2z
		 M381.2,225.8c1.1,2.3,2.1,4.6,3.1,7c3,7.4,7.7,16.8,8.3,24.8c0.3,4-1.4,7.4-5.7,8c-5.1,0.7-7.9-3.7-9.4-7.9
		c-6.4-17.7-9.8-35.1-22.5-49.7c-10.2-11.8-22.3-21.9-30.6-35.4c-1.2-2-0.6-3.9,0.8-5.1c1.1-1.5,3.1-2.2,5.1-0.8
		c13.5,9.1,23.2,22,35,32.9c14.1,13,31.2,16.7,48.2,24c10.8,4.6,7.9,17.8-4.1,14C399.8,234.5,390.2,230.6,381.2,225.8z M425.1,271.5
		c-13.3,12.7-23.2-12.3-26.6-22.3c-0.6-1.7-0.1-3.1,0.9-4c0.9-1.3,2.4-2,4.3-1.2C413.4,247.8,438.4,258.8,425.1,271.5z M418.9,214.8
		c-6.6-5.9-11.7-13.8-17.9-20.3c-6.3-6.5-13.3-12-21.3-16.2c-14.6-7.5-30.7-11.6-44.4-21.1c-0.2-0.1-0.3-0.2-0.4-0.3
		c-1.6-1-1.9-2.9-1.2-4.6c0.6-1.9,2.4-3.4,4.4-3c0.2,0,0.4,0,0.6,0c17.1,3.1,32,12.3,48.5,17.1c8.8,2.6,17.8,3.2,27,2.9
		c8.2-0.3,17.3-2.5,25.4-1.6c9.7,1.1,10.8,12.8,0.7,14.4c-10,1.5-20.8,1.9-31.4,0.9c8.1,6.8,15.6,14.7,21.5,22.8
		C437,215.1,426.5,221.6,418.9,214.8z M341.6,130.9c17.8-4.2,36-1.4,53.9-4.2c8.7-1.4,16.9-4.5,24.8-8.5c7-3.5,13.9-8.5,21.3-11
		c8.7-2.9,15.8,6.1,7.6,12.2c-6.5,4.8-15.6,8.2-23.1,11.4c-2.1,0.9-4.2,1.7-6.3,2.5c10.4,2.9,20.7,7.1,29.3,12.4
		c8.1,5,4,15.6-5.6,13.3c-7.4-1.8-14.6-6.8-21.4-9.9c-8.7-3.9-17.6-7-27.2-8c-17.8-1.8-35.5,1.5-53.2-1.8c-2.4-0.5-3.2-2.3-3-4.2
		C338.4,133.3,339.3,131.5,341.6,130.9z M466.7,208.1c-7.1,15.6-25.5-2.4-32.3-9.8c-0.7-0.5-1.1-1.2-1.4-1.9c-0.4-1-0.4-2.1,0-3
		c0,0,0-0.1,0-0.1c0-0.1,0.1-0.2,0.1-0.3c0.4-0.9,1.1-1.7,2.1-2.1c0.7-0.4,1.5-0.5,2.4-0.4C448.6,190.2,474.7,190.8,466.7,208.1z
		 M482.8,131.9c0.7,19-25.4,8.6-34.7,4.5c-1.9-0.8-2.4-2.4-2.1-3.8c-0.1-1.3,0.5-2.7,2.1-3.4C457.3,124.7,482.1,113.5,482.8,131.9z
		 M433.7,68.9c0-0.1,0-0.2,0.1-0.3c0.1-0.2,0.2-0.4,0.3-0.6c0,0,0-0.1,0-0.1c0.1-0.3,0.3-0.5,0.5-0.7c0,0,0,0,0.1-0.1
		c6-7,23.9-27,32.1-12c9.2,16.9-16.6,19-27.9,19.1c-0.9,0.3-1.8,0.2-2.6-0.2C434,73.4,433.2,71,433.7,68.9z M430.2,59.7
		c-6,8.3-12.8,16.4-20.5,23.4c2.9-0.3,5.8-0.6,8.7-0.7c7.7-0.4,17-1.4,24.6,0.2c10.5,2.3,5.6,13.5-3,14.3c-9,0.8-18.3-0.7-27.3-0.5
		c-9.5,0.2-18.4,1.9-27.3,5.3c-14.9,5.8-28.5,14.4-44.3,17.9c-0.1,0-0.2,0-0.4,0c-1.5,0.5-2.8-0.2-3.7-1.3c-1.5-1.7-1.7-4.4,0-5.9
		c0-0.1,0.1-0.1,0.1-0.1c0,0,0,0,0,0c0.2-0.2,0.3-0.3,0.5-0.5c13.6-10.3,30-15.1,44.6-23.7c7.9-4.6,14.4-10.6,20.4-17.5
		c5.5-6.4,10-14.1,16.1-19.9C426.6,43.2,436.7,50.6,430.2,59.7z M358.1,41.2c1.4-1.2,2.9-2.4,4.4-3.5c4.8-3.7,11.4-6.9,11.6-13.9
		h30.6c-0.1,1.7-1.1,3.3-3,3.8c-10.8,2.9-20.3,7.6-29.2,13.5c-3.7,3-7.8,5.7-11.3,8.5c-1.3,1.1-2.6,2.1-3.8,3.3
		c-5.1,4.5-10.1,9-15.4,13.3c-0.1,0-0.1,0.1-0.2,0.1c-1.3,1-2.6,2-3.8,3c-0.3,0.2-0.5,0.4-0.8,0.6c-1.1,0.9-2.3,1.7-3.5,2.5
		c-0.4,0.3-0.8,0.6-1.2,0.9c-1.1,0.8-2.3,1.5-3.5,2.2c-0.4,0.3-0.9,0.6-1.3,0.8c-1.6,1-3.3,1.9-5,2.7c-4.8,2.4-9.1-4.8-4.3-7.3
		c1.3-0.6,2.5-1.3,3.8-2c0.4-0.2,0.7-0.4,1.1-0.6c1.1-0.6,2.1-1.3,3.2-2c0.6-0.4,1.2-0.8,1.8-1.2c0.4-0.3,0.8-0.6,1.3-0.9
		c9.9-7,18.6-15.6,28-23.4C357.7,41.5,357.9,41.4,358.1,41.2z M342.3,23.8c2.4,2.4,4.8,4.7,7.4,6.8c0.8,0.5,1.3,1.1,1.5,1.8
		c0.9,1.8-0.1,3.8-1.7,4.9c-1.2,0.9-2.8,1.2-4.5,0.4c-6.6-3.2-13-6.7-19.2-10.5c-1.3-0.8-1.9-2-2-3.3H342.3z M307.1,23.8
		c8.5,6.6,17.3,12.7,26.4,18.5c2.5,1.2,2.6,3.7,1.5,5.5c-1,2-3.3,3.3-5.7,1.8c-14-6.8-27.6-14.3-40.9-22.4c-1.3-0.8-1.9-2-2-3.3
		H307.1z M265.6,23.8C282,35.3,298.9,46,316.3,56c2.2,1.1,2.5,3.2,1.8,5c-0.8,2.2-3.4,3.8-6,2.3c-22.5-11-44.4-22.9-65.7-36.1
		c-1.3-0.8-1.9-2-2-3.3H265.6z M258.5,45.1c1.3,3.5,0.5,6.6-1.3,8.7c-1.6,3.1-4.9,5.2-9.1,3.8c-0.2-0.1-0.3-0.1-0.5-0.2
		c0.4,0.8,1,1.5,1.8,2.4c1.4,1.5,3.1,2.6,5,3.2c3,1.4,6.2,2.1,9.4,2.6c7.3,1.1,14.5,0.2,21.4-2.7c4.9-2.1,9.2,5.2,4.3,7.3
		c-0.1,0-0.1,0-0.2,0.1c-0.4,0.3-0.8,0.6-1.3,0.8c-13.1,4.9-29.8,7.2-42.8,0.8c-9.6-4.7-16.6-16.9-10.1-26.9
		C240.3,37.1,254.7,34.5,258.5,45.1z M235,23.8c-0.2,5.6-4.9,10.2-10.5,10.2c-5.4,0-9.5-4-10.4-9.1c-0.1-0.3-0.2-0.7-0.2-1.1H235z
		 M206.4,39.4c12.7,11,16.7,28.6,28.9,40c17,16,42.5,12.2,61.8,3.2c4.9-2.3,9.1,4.8,4.3,7.3c-15.7,7.8-33.2,16.1-51.2,11.5
		c-16.4-4.2-26.9-18.7-36.9-31.2c-12.7-15.9-27.1-31.3-49.1-30.3c-20.6,0.9-39.3,11.6-60.2,11.6c-5.4,0-5.4-8.4,0-8.4
		c0,0,0.1,0,0.1,0c0.4-0.1,0.7-0.2,1.1-0.3C137.5,39.1,176.9,13.9,206.4,39.4z M121.4,23.8c-0.1,1.6-1.1,3.1-3,3.8
		c-23.3,8.1-45.4,10.9-68.2-0.4c-1.6-0.8-2.2-2.1-2.1-3.3H121.4z M40.9,40.9c0.9-1.1,2.3-1.7,4.1-1.1c24.1,8,37.7,25.8,48.5,47.9
		c1.9,3.9-1.9,7.6-5.8,5.8C65.6,82.7,47.9,69.1,39.8,45C39.2,43.2,39.8,41.8,40.9,40.9z M23.8,23.8h7c0,0,0,0.1,0,0.1
		c0,0.9,0.1,1.8,0.2,2.7c-0.8,0.6-1.6,1.3-2.3,2c-0.7,0.7-1.4,1.5-2,2.3c-0.9-0.1-1.8-0.2-2.7-0.2c0,0-0.1,0-0.1,0V23.8z M23.8,48.1
		c1.3,0,2.6,0.6,3.3,2.1c11.3,22.8,8.5,44.9,0.4,68.2c-0.7,1.9-2.2,2.9-3.8,3V48.1z M23.8,213.9c0.4,0,0.8,0.1,1.2,0.2
		c5.2,0.9,9.3,5.1,9.1,10.7c-0.2,5.5-4.7,10.1-10.2,10.2V213.9z M23.8,244.2c1.3,0.1,2.6,0.8,3.3,2c13.1,21.3,25.1,43.3,36.1,65.7
		c1.5,2.7-0.1,5.2-2.3,6c-1.7,0.8-3.9,0.5-4.9-1.8C46,298.9,35.3,282,23.8,265.6V244.2z M23.8,286.4c1.3,0.1,2.6,0.8,3.3,2
		c8.1,13.3,15.6,26.9,22.4,40.9c1.5,2.4,0.2,4.7-1.7,5.7c-1.8,1.1-4.3,1-5.5-1.4c-5.8-9.1-11.9-17.9-18.5-26.4V286.4z M23.8,323.8
		c1.3,0.1,2.6,0.8,3.3,2c3.8,6.2,7.3,12.7,10.5,19.2c0.8,1.7,0.5,3.3-0.4,4.5c-1.1,1.6-3.1,2.6-4.9,1.7c-0.7-0.3-1.3-0.8-1.8-1.5
		c-2.2-2.6-4.5-5-6.8-7.4V323.8z M23.8,374.1c7-0.2,10.1-6.8,13.9-11.6c1.1-1.5,2.3-2.9,3.5-4.4c0.2-0.2,0.3-0.4,0.5-0.6
		c7.8-9.4,16.4-18.1,23.4-28c0.3-0.5,0.7-1,1-1.4c0.4-0.5,0.7-1.1,1.1-1.6c0.7-1.1,1.4-2.2,2-3.3c0.2-0.3,0.4-0.7,0.6-1
		c0.7-1.2,1.4-2.5,2-3.8c2.4-4.9,9.7-0.6,7.3,4.3c-0.9,1.7-1.8,3.4-2.8,5.1c-0.3,0.5-0.6,0.9-0.9,1.4c-0.7,1.2-1.5,2.3-2.2,3.5
		c-0.3,0.5-0.7,0.9-1,1.4c-0.8,1.1-1.6,2.3-2.4,3.4c-0.3,0.4-0.6,0.8-0.9,1.1c-0.9,1.2-1.9,2.4-2.9,3.7c-0.2,0.2-0.3,0.4-0.5,0.6
		c-4,4.9-8.3,9.6-12.5,14.4c-0.1,0.2-0.3,0.3-0.4,0.5c-1.5,1.7-2.9,3.4-4.3,5.1c-2.2,2.8-4.3,6-6.6,8.9c-6.2,9.1-11.1,18.9-14.1,30
		c-0.5,1.9-2.1,2.9-3.8,3V374.1z"/>
</g>
<g id="Ñëîé_2__x28_êîïèÿ_x29_" class="st4">
	<g class="st5">
		<g>
			<g>
				<path class="st6" d="M250.1,492.5c0-2,0-4,0-6"/>
				<path class="st7" d="M250.1,474.3c0-151.5,0-303,0-454.6"/>
				<path class="st6" d="M250.1,13.7c0-2,0-4,0-6"/>
			</g>
		</g>
	</g>
</g>
</svg>
