<?xml version="1.0" encoding="utf-8"?>
<!-- Generator: Adobe Illustrator 24.0.0, SVG Export Plug-In . SVG Version: 6.00 Build 0)  -->
<svg version="1.1" id="Capa_1" xmlns="http://www.w3.org/2000/svg" xmlns:xlink="http://www.w3.org/1999/xlink" x="0px" y="0px"
	 viewBox="0 0 63.9 200" style="enable-background:new 0 0 63.9 200;" xml:space="preserve">
<style type="text/css">
	.st0{fill:#B58387;}
	.st1{fill:#3D5362;}
	.st2{fill:#1A1B1E;}
	.st3{fill:#C9E3E2;}
	.st4{fill:#5F929D;}
</style>
<g>
	<path class="st2" d="M31.4,183.9c3.4,1.9,6.9,3.5,10.9,3.8c1.3,0.1,2.8,0.5,2.9,2c0.1,1.3-0.5,2.3-2,3.1c-5,2.7-10.2,2-15.1,0.4
		c-2.9-0.9-5.7-0.9-9.1-1.7c0.7,1.9,2.2,3.4,0.5,5.1c-1.2,1.2-2.6,2.2-4.1,2.8c-3.1,1.3-7.1-0.1-8.7-3.1c-0.6-1-0.2-1.7,0.4-2.4
		c2-2.4,2.5-5.3,2.6-8.3c0.1-2.8,0-5.5,3.4-6.7c0.8-0.3,0.8-1.1,0.6-2c-2.7-12.9-1.3-26.1-2.2-39.1c-1.1-17.2-0.9-34.4-1-52.6
		c-1.2,2.4-1.5,4.4-3.9,4.5c-4.5,0.2-5.9-0.9-6.3-6c-0.8-12.2,0.1-24.3,0.9-36.5c0.4-6,1.6-12,3.5-17.9c1.4-4.4,4-7.3,8.3-9
		c2.8-1.1,5.4-2.5,8.1-3.7c0.2,0.3,0.5,0.5,0.7,0.8c-1.1,0.7-1.5,1.8-1.6,3c-0.3,0.5-0.5,1.1-0.8,1.6c-0.3,0.5-0.5,1-0.8,1.5
		c-0.3,0.3-0.7,0.9-0.3,1.2c0.6,0.3,0.5-0.5,0.7-0.8c0.3-0.5,0.5-1,0.8-1.5c0.3-0.5,0.5-1,0.8-1.6c0.5-1,1-2.1,1.5-3.1
		c0.5-0.5,0.8-1,0.3-1.6c0.6-1,1.3-1.6,2.5-1.4c0.3,0.7,0.5,1.3,0.8,2c-0.3,8.5,1.7,16.9,1.5,25.4C27,51.9,27.7,61.6,26,71.2
		c-0.5,2.5-0.8,5.6,2.4,7.2c-0.2,4.6,0.1,4.8,4.7,4.1c-0.2-0.9-0.9-0.6-1.5-0.6c-0.8,0-1.9,0.5-1.6-1.2c0.2-0.9-0.1-2,1.5-1.6
		c0.7,0.2,1.5,0.1,2-0.7c2.1,0.2,2.4-1,2.6-2.8c2.1-19.7,3-39.5,4.1-59.3c0.2-0.2,0.4-0.5,0.6-0.7c5,2.3,10.1,4.4,15,6.9
		c1.8,0.9,2.1,3.1,2.7,5c2.3,7.6,3,15.5,3.8,23.3c1.3,11.4,1.8,23,1.5,34.5c-0.1,4.2-4.1,6.6-7.9,4.6c-1.4-0.8-1.1-2.3-1.2-3.5
		c-0.7-11.1-2.8-22.1-2.4-33.3c0-0.9-0.2-1.8-0.3-3c-1.5,1.1-1.1,2.4-1.1,3.5c-0.5,16.7,1.2,33.4,0.7,50.1
		c-0.7,24.3-1.3,48.7-6.4,72.6c-0.9,4.4-2.3,5.4-6.7,5c-3.1-0.3-4.3-1.5-4.3-4.9c0-19,1-38,0.1-57.1c-0.3-5.2-0.7-10.3-1.5-15.4
		c-0.2-1.2,0.1-3.1-1.7-2.9c-1.2,0.1-1.2,1.8-1.2,2.9c-0.6,9.8-0.6,19.7-1.8,29.5c-1.8,14.9-0.7,30-2.3,44.9
		c-0.3,2.4,0.8,3.2,2.4,4.2c-0.3,0.8-0.9,0.8-1.6,0.8c-2-1.8-4.8,0.3-6.5-1c-2-1.6-2.8-0.4-3.9,0.7c-0.8,0.4-2.1,0.1-2.4,1.5
		c1.4,0.8,2.3,0.6,2.7-1.1c3.1,0.2,6.2,0.5,9.3,0.7c-0.2,0.8-1.5,1.3,0.2,2.3C29.3,188.3,29.8,185.1,31.4,183.9z M22.1,90.1
		c0.3-0.5,0.6-1,0.9-1.5c3.1-7,2.7-14.1,0.6-21.3c0.4-4.8-1.3-9.2-2.5-13.8c-0.3,0.1-0.7,0.1-1,0.2c1.1,4.6,2.2,9.1,3.3,13.7
		c0.3,7,0.5,13.9-0.8,20.8c-0.3,0.5-0.6,0.9-0.9,1.4c-0.3,0.3-0.5,0.5-0.8,0.8c-0.5,0.3-0.9,0.6-1.4,0.9c-0.3,0.3-0.5,0.5-0.8,0.8
		c-1,0.3-2.2-0.2-3.3,0.9c1.5,0.4,2.6,0.2,3.5-0.7c0.3-0.2,0.6-0.4,0.9-0.6c0.5-0.3,1-0.6,1.4-0.9C21.6,90.6,21.9,90.4,22.1,90.1z
		 M45.9,24.1c0.3,0.5,0.5,1,0.8,1.5c0.2,0.5,0.4,1,0.6,1.5c0.7-0.7,0.2-1.3-0.2-1.9c-0.3-0.5-0.5-1-0.8-1.6c-0.3-0.5-0.6-1-0.8-1.5
		c-0.2-0.5-0.5-1.1-0.7-1.6c-0.2-0.6-0.4-1.2-0.6-1.7c0-0.1-0.4,0-0.6,0.1c0.3,0.7,0.6,1.3,0.8,2c0.3,0.5,0.6,1,0.9,1.5
		C45.4,23,45.7,23.5,45.9,24.1z M35.9,90.9c0.2,0.1,0.4,0.2,0.5,0.3c-0.1-0.2-0.2-0.4-0.2-0.6c0-2.7,0-5.4,0-8.1
		c-0.4,0-0.9,0-1.3,0.1C35.7,85.3,34.3,88.2,35.9,90.9z M12,59.6c-0.2,1.8-0.4,3.6-0.6,5.4c0,0.3,0,0.6-0.1,0.9
		C11,71,10.7,76.1,10.4,81.1c1.7-7.1,2.3-14.3,2.3-21.5c1-2.8,0.8-5.6,0-8.5C11.7,53.9,11.7,56.8,12,59.6z M20.2,33.5
		c-1.7,4.4-3.2,8.9-0.8,13.7C17.9,42.5,20.4,38.2,20.2,33.5z M40.9,61c1.3-4.5,2.6-9,2.5-13.7C42.2,51.8,40.9,56.3,40.9,61z
		 M44.1,45.9c0.5-2.2,1.6-3.2,0.6-4.6C43.4,42.4,43.7,43.6,44.1,45.9z M23.5,180.8c-0.9-0.4-1.7-1-2.5,0
		C21.9,180.8,22.7,180.8,23.5,180.8z M45.8,38.9c-0.1-0.5-0.2-0.9-0.7-0.6c-0.2,0.1-0.4,0.6-0.4,0.9c0,0.3,0.1,0.8,0.6,0.5
		C45.5,39.5,45.7,39.1,45.8,38.9z M46.1,36c-0.1-0.2-0.3-0.4-0.4-0.6c-0.1,0.2-0.3,0.4-0.3,0.6c0,0.2,0.2,0.4,0.3,0.6
		C45.9,36.4,46,36.2,46.1,36z M40.2,63.8c0.1-0.2,0.1-0.4,0.1-0.5c-0.1,0-0.2,0-0.2,0.1C40.1,63.5,40.2,63.6,40.2,63.8z"/>
	<path class="st0" d="M25.8,16.9c-0.3-0.7-0.5-1.3-0.8-2c5-1.2,8.6-5.9,8.2-10.8c-0.1-1.1-0.5-2.2-1.6-2.4C30,1.4,29.9,2.8,29.7,4
		c-0.1,0.8,0.2,2.2-1.2,1.9c-1.3-0.3-1.2-1.6-0.9-2.6c0.6-2,1.9-3.7,4.2-3.2c2.3,0.6,4.3,2.1,3.7,5c-0.2,0.9-0.7,1.6-1.1,2.5
		c-1.2,2.4-1,4.1,1.9,5.1c1.4,0.5,2.5,1.7,3.8,2.5c-0.2,0.2-0.4,0.4-0.5,0.6c-4.5-3.1-8.9-3-12.9,0.9C26.4,16.9,26,16.8,25.8,16.9z"
		/>
	<path class="st1" d="M26.7,183.3c0.7,0.1,1.3,0,1.6-0.8c1.3-0.1,2.5,0.1,3.2,1.4c-1.6,1.2-2.1,4.4-5.3,2.4c-1.6-1-0.4-1.6-0.2-2.3
		l0,0C26.1,183.8,26.4,183.5,26.7,183.3L26.7,183.3z"/>
	<path class="st1" d="M22.5,16.3c0.5,0.6,0.3,1.1-0.3,1.6c-0.1-0.1-0.2-0.2-0.4-0.3c-0.2-0.3-0.5-0.5-0.7-0.8
		C21.4,16.1,21.9,16,22.5,16.3z"/>
	<path class="st0" d="M40.8,15.5c-0.2,0.2-0.4,0.5-0.6,0.7c-0.3-0.1-0.5-0.2-0.8-0.4c0.2-0.2,0.4-0.4,0.5-0.6
		C40.3,15.3,40.5,15.4,40.8,15.5z"/>
	<path class="st3" d="M39.4,15.9c0.3,0.1,0.5,0.2,0.8,0.4c-1.1,19.8-2,39.6-4.1,59.3c-0.2,1.8-0.5,3-2.6,2.8c-1.7,0-3.4,0-5.2,0
		c-3.2-1.6-2.8-4.7-2.4-7.2c1.8-9.6,1.1-19.3,1.3-28.9c0.2-8.5-1.8-16.9-1.5-25.4c0.2-0.1,0.6,0,0.7-0.2
		C30.6,12.8,34.9,12.7,39.4,15.9z M36.4,47.6c-0.2-7.2,0.5-13.9-1.3-20.3c-0.5-1.7-1-3.1,0.2-4.7c1.2-1.6,0.1-2.9-1.1-4
		c-0.8-0.7-1.7-0.7-2.4,0.1c-1.1,1.2-2,2.6-0.6,4.1c1.4,1.6,1.1,3.2,0.1,4.9c-1,1.7-1.3,3.6-1.4,5.6c-0.2,5.3-0.3,10.6-0.6,15.9
		c-0.5,7.3-1.1,14.7-1.7,22c-0.2,2.6,1.1,5.3,3.2,5.5c1.9,0.2,4.1-2.2,4.3-4.7C35.7,63.7,36,55.3,36.4,47.6z"/>
	<path class="st1" d="M22.6,88.3c1.3-6.9,1.2-13.9,0.8-20.8l0.2-0.1c2.1,7.2,2.5,14.3-0.6,21.3C22.9,88.5,22.8,88.4,22.6,88.3z"/>
	<path class="st3" d="M11.4,65c0.2-1.8,0.4-3.6,0.6-5.4c0,0,0.4,0,0.4,0l0.4-0.1c0,7.2-0.6,14.4-2.3,21.5c0.3-5.1,0.6-10.1,0.9-15.2
		C11.9,65.7,12,65.4,11.4,65z"/>
	<path class="st4" d="M28.3,78.4c1.7,0,3.4,0,5.2,0c-0.5,0.8-1.3,0.8-2,0.7c-1.6-0.3-1.3,0.7-1.5,1.6c-0.3,1.7,0.8,1.1,1.6,1.2
		c0.6,0,1.3-0.3,1.5,0.6C28.5,83.2,28.2,82.9,28.3,78.4z"/>
	<path class="st1" d="M20.2,33.5c0.3,4.7-2.2,9.1-0.8,13.7C16.9,42.4,18.5,37.8,20.2,33.5z"/>
	<path class="st1" d="M40.9,61c0-4.7,1.3-9.2,2.5-13.7C43.5,52.1,42.2,56.5,40.9,61z"/>
	<path class="st1" d="M23.5,67.5c-1.1-4.6-2.2-9.1-3.3-13.7c0.3-0.1,0.7-0.1,1-0.2c1.1,4.5,2.8,8.9,2.5,13.8
		C23.6,67.4,23.5,67.5,23.5,67.5z"/>
	<path class="st1" d="M25.9,184.1c-3.1-0.2-6.2-0.5-9.3-0.7c-0.1-0.1-0.2-0.3-0.3-0.4c1.1-1.1,1.8-2.4,3.9-0.7
		c1.6,1.3,4.5-0.7,6.5,1c0,0,0,0,0,0C26.4,183.5,26.1,183.8,25.9,184.1L25.9,184.1z"/>
	<path class="st4" d="M12.7,59.6l-0.4,0.1c0,0-0.4,0-0.4,0c-0.3-2.9-0.3-5.7,0.7-8.5C13.5,54,13.7,56.8,12.7,59.6z"/>
	<path class="st1" d="M35.9,90.9c-1.6-2.7-0.2-5.6-1-8.3c0.4,0,0.9,0,1.3-0.1c0,2.7,0,5.4,0,8.1C36.1,90.7,36,90.8,35.9,90.9z"/>
	<path class="st1" d="M44.1,45.9c-0.4-2.3-0.7-3.5,0.6-4.6C45.7,42.6,44.6,43.6,44.1,45.9z"/>
	<path class="st1" d="M16.6,183.4c-0.4,1.7-1.3,1.9-2.7,1.1c0.3-1.4,1.5-1.1,2.4-1.5C16.4,183.1,16.5,183.2,16.6,183.4z"/>
	<path class="st1" d="M19,92.4c-1,0.9-2.1,1.1-3.5,0.7c1.1-1.1,2.3-0.6,3.3-0.9L19,92.4z"/>
	<path class="st1" d="M23.5,180.8c-0.8,0-1.6,0-2.5,0C21.8,179.7,22.6,180.4,23.5,180.8z"/>
	<path class="st1" d="M45.8,38.9c-0.1,0.2-0.3,0.6-0.5,0.8c-0.5,0.3-0.6-0.2-0.6-0.5c0-0.3,0.2-0.7,0.4-0.9
		C45.6,38,45.7,38.4,45.8,38.9z"/>
	<path class="st1" d="M22.2,17.8c-0.5,1-1,2.1-1.5,3.1c-0.2-0.1-0.3-0.3-0.5-0.4c0.2-1.2,0.5-2.3,1.6-3C22,17.6,22.1,17.7,22.2,17.8
		z"/>
	<path class="st1" d="M44.3,20.9c-0.3-0.7-0.6-1.3-0.8-2c0.2,0,0.6-0.1,0.6-0.1c0.2,0.6,0.4,1.2,0.6,1.7
		C44.6,20.7,44.5,20.8,44.3,20.9z"/>
	<path class="st1" d="M46.1,36c-0.1,0.2-0.3,0.4-0.4,0.6c-0.1-0.2-0.3-0.4-0.3-0.6c0-0.2,0.2-0.4,0.3-0.6C45.9,35.6,46,35.8,46.1,36
		z"/>
	<path class="st1" d="M47.1,25.2c0.4,0.6,0.9,1.2,0.2,1.9c-0.2-0.5-0.4-1-0.6-1.5C46.8,25.5,47,25.4,47.1,25.2z"/>
	<path class="st1" d="M20.7,21c-0.3,0.5-0.5,1-0.8,1.6c-0.2-0.1-0.3-0.3-0.5-0.4c0.3-0.5,0.5-1,0.8-1.6C20.4,20.7,20.5,20.8,20.7,21
		z"/>
	<path class="st1" d="M45.2,22.4c-0.3-0.5-0.6-1-0.9-1.5c0.1-0.1,0.3-0.2,0.4-0.4c0.2,0.5,0.5,1.1,0.7,1.6
		C45.5,22.2,45.2,22.4,45.2,22.4z"/>
	<path class="st1" d="M19.9,22.5c-0.3,0.5-0.5,1-0.8,1.5c-0.2-0.1-0.3-0.3-0.5-0.4c0.3-0.5,0.5-1,0.8-1.5
		C19.6,22.3,19.8,22.4,19.9,22.5z"/>
	<path class="st1" d="M45.9,24.1c-0.2-0.5-0.5-1.1-0.7-1.6c0,0,0.3-0.2,0.3-0.2c0.3,0.5,0.6,1,0.8,1.5C46.2,23.8,46,23.9,45.9,24.1z
		"/>
	<path class="st1" d="M19.1,24.1c-0.2,0.3-0.1,1.1-0.7,0.8c-0.4-0.3,0-0.8,0.3-1.2C18.8,23.8,18.9,23.9,19.1,24.1z"/>
	<path class="st1" d="M46.3,23.7c0.3,0.5,0.5,1,0.8,1.6c-0.1,0.1-0.3,0.2-0.4,0.4c-0.3-0.5-0.5-1-0.8-1.5
		C46,23.9,46.2,23.8,46.3,23.7z"/>
	<path class="st1" d="M40.2,63.8c-0.1-0.2-0.1-0.3-0.1-0.4c0,0,0.2-0.1,0.2-0.1C40.3,63.5,40.3,63.6,40.2,63.8z"/>
	<path class="st1" d="M19.5,91.4c0.5-0.3,0.9-0.6,1.4-0.9c0.1,0.1,0.3,0.3,0.4,0.4c-0.5,0.3-1,0.6-1.4,0.9
		C19.8,91.7,19.7,91.5,19.5,91.4z"/>
	<path class="st1" d="M23,88.6c-0.3,0.5-0.6,1-0.9,1.5c-0.1-0.1-0.3-0.3-0.4-0.4c0.3-0.5,0.6-0.9,0.9-1.4
		C22.8,88.4,22.9,88.5,23,88.6z"/>
	<path class="st1" d="M18.8,92.2c0.3-0.3,0.5-0.5,0.8-0.8c0.1,0.1,0.3,0.2,0.4,0.4c-0.3,0.2-0.6,0.4-0.9,0.6
		C19,92.4,18.8,92.2,18.8,92.2z"/>
	<path class="st1" d="M36.2,90.6c0.1,0.2,0.2,0.4,0.2,0.6c-0.2-0.1-0.4-0.2-0.5-0.3C36,90.8,36.1,90.7,36.2,90.6z"/>
	<path class="st1" d="M22.1,90.1c-0.3,0.3-0.5,0.5-0.8,0.8c-0.1-0.1-0.3-0.3-0.4-0.4c0.3-0.3,0.5-0.5,0.8-0.8
		C21.9,89.8,22,90,22.1,90.1z"/>
	<path class="st4" d="M11.4,65c0.6,0.3,0.5,0.6-0.1,0.9C11.4,65.6,11.4,65.3,11.4,65z"/>
	<path class="st2" d="M25.9,184.1c0.3-0.3,0.5-0.5,0.8-0.8C26.4,183.5,26.1,183.8,25.9,184.1z"/>
	<path class="st2" d="M36.4,47.6c-0.4,7.7-0.7,16.1-1.3,24.4c-0.2,2.5-2.4,4.8-4.3,4.7c-2.1-0.2-3.4-2.9-3.2-5.5
		c0.6-7.3,1.2-14.7,1.7-22c0.3-5.3,0.5-10.6,0.6-15.9c0.1-2,0.4-3.9,1.4-5.6c1-1.7,1.3-3.3-0.1-4.9c-1.4-1.6-0.4-2.9,0.6-4.1
		c0.7-0.8,1.6-0.9,2.4-0.1c1.2,1.1,2.2,2.3,1.1,4c-1.1,1.6-0.7,3-0.2,4.7C36.9,33.7,36.1,40.4,36.4,47.6z"/>
</g>
</svg>
