<?xml version="1.0" encoding="iso-8859-1"?>
<!-- Generator: Adobe Illustrator 24.0.0, SVG Export Plug-In . SVG Version: 6.00 Build 0)  -->
<svg version="1.1" id="Layer_1" xmlns="http://www.w3.org/2000/svg" xmlns:xlink="http://www.w3.org/1999/xlink" x="0px" y="0px"
	 viewBox="3.394 296.606 200 200" style="enable-background:new 3.394 296.606 200 200;" xml:space="preserve">
<path style="fill:#FFFFFF;" d="M176.443,296.605H30.345c-14.884,0-26.951,12.066-26.951,26.951v146.099
	c0,14.885,12.066,26.951,26.951,26.951H102.4l0.123-71.469H83.955c-2.413,0-4.371-1.951-4.381-4.364l-0.089-23.038
	c-0.009-2.426,1.955-4.398,4.381-4.398H102.4v-22.26c0-25.833,15.777-39.899,38.821-39.899h18.91c2.419,0,4.381,1.961,4.381,4.381
	v19.425c0,2.419-1.96,4.38-4.379,4.381l-11.605,0.005c-12.532,0-14.959,5.955-14.959,14.695v19.271h27.538
	c2.624,0,4.66,2.291,4.35,4.897l-2.731,23.038c-0.261,2.205-2.131,3.866-4.35,3.866h-24.684l-0.123,71.469h42.874
	c14.884,0,26.95-12.066,26.95-26.95V323.556C203.394,308.671,191.328,296.605,176.443,296.605z"/>
</svg>
