<?xml version="1.0" encoding="utf-8"?>
<!-- Generator: Adobe Illustrator 24.0.0, SVG Export Plug-In . SVG Version: 6.00 Build 0)  -->
<svg version="1.1" xmlns="http://www.w3.org/2000/svg" xmlns:xlink="http://www.w3.org/1999/xlink" x="0px" y="0px"
	 viewBox="0 0 100 100" style="enable-background:new 0 0 100 100;" xml:space="preserve">
<style type="text/css">
	.st0{fill:#FFFFFF;}
	.st1{fill:#A57127;}
	.st2{fill:#DC9C2E;}
	.st3{fill:none;}
	.st4{fill:#E6E6E6;}
</style>
<g id="BACKGROUND">
</g>
<g id="OBJECTS">
	<path class="st2" d="M56.7,15.7c0.2-0.1,0.3-0.3,0.5-0.4c0.6-0.6,0.8-1.1,0.6-1.4c-0.2-0.2-0.7-0.1-1.4,0.2
		c-0.7,0.2-1.6,0.6-2.7,0.9c-0.4,0.1-1.3,0.4-2.4,0.4c-1.1,0.1-2.4,0-3.8-0.4c-1.2-0.3-2.4-0.8-3.7-1.2c-0.4-0.1-0.7-0.2-1.1-0.3
		c-0.1-0.3-0.2-0.5-0.3-0.7c-0.2-0.3-0.5-0.6-0.9-0.7c-0.2-0.1-0.3-0.1-0.5-0.2c-0.2,0-0.3-0.1-0.5-0.1c-0.7-0.1-1.3-0.1-1.9,0
		c-0.6,0.1-1.2,0.2-1.7,0.4c-1.1,0.4-2,0.9-2.9,1.3c-2.7,1.2-4.9,1.9-6.6,2.2h-1.9c0.6-0.1,1.2-0.2,1.8-0.4c2-0.6,4-1.4,5.8-2.3
		c1.3-0.6,2.6-1.2,3.9-1.7c0.7-0.3,1.5-0.5,2.2-0.7c1.3,0.5,2.7,1.1,4.1,1.6c2,0.7,4.1,1.4,6.4,1.8c1.1,0.2,2.3,0.3,3.6,0.1
		c0.6-0.1,1.3-0.4,1.7-1c0.4-0.6,0.5-1.3,0.4-1.9c-0.1-0.7-0.4-1.3-0.9-1.8c-0.5-0.4-1.1-0.7-1.8-0.9c-1.3-0.3-2.6-0.4-3.9-0.3
		c-2.6,0.1-5.3,0.6-7.9,1.3c-0.5,0.1-1.1,0.3-1.6,0.5c-0.5-0.2-0.9-0.4-1.4-0.6C36.2,8.7,34.8,8,33.6,7c0.2-0.4,0.5-0.7,0.6-1.2
		c0.2-0.4,0.3-0.9,0.2-1.4c-0.1-0.5-0.3-0.9-0.7-1.2C33.5,3,33.3,2.9,33,2.9c-0.3-0.1-0.5,0-0.8,0.1c-0.5,0.2-0.8,0.8-0.8,1.3
		c-0.1,0.5,0.1,1,0.4,1.4c0.2,0.4,0.6,0.8,0.9,1.1c0.1,0.1,0.2,0.2,0.3,0.3c-0.1,0.2-0.3,0.4-0.4,0.6c-1,1.3-2,2.4-3.1,3.3
		c-1.1,0.9-2.4,1.6-3.7,2c-0.3,0.1-0.6,0.2-1,0.3c-0.3,0.1-0.6,0.1-1,0.2c-0.6,0.2-1.3,0.2-1.9,0.3c-1.2,0-2.4-0.1-3.4-0.6
		c-1-0.4-1.9-1.1-2.5-1.9C14.7,9.6,14.4,7.6,15,6c0.3-0.8,0.7-1.5,1.3-2c0.5-0.5,1.2-0.8,1.8-1c0.6-0.2,1.3-0.1,1.8,0.1
		c0.5,0.2,1,0.5,1.4,0.9c0.7,0.8,0.9,1.8,0.6,2.5c-0.1,0.2-0.2,0.4-0.3,0.6c0-0.1,0-0.2,0-0.3c0-0.9-0.7-1.6-1.6-1.6
		S18.6,6,18.6,6.8c0,0.9,0.7,1.6,1.6,1.6c0.6,0,1.1-0.4,1.4-0.9c0.2-0.3,0.4-0.6,0.5-1c0.1-0.4,0.2-0.8,0.1-1.3
		c-0.1-0.5-0.3-0.9-0.7-1.3c-0.4-0.4-0.8-0.7-1.4-1c-0.6-0.2-1.3-0.2-2-0.1c-0.7,0.2-1.4,0.5-2,1c-0.6,0.5-1.1,1.2-1.4,2.1
		c-0.7,1.6-0.4,3.8,0.9,5.5c0.6,0.9,1.5,1.6,2.6,2.1c1.1,0.5,2.3,0.6,3.6,0.6c0.6-0.1,1.3-0.1,1.9-0.3c0.3-0.1,0.7-0.1,1-0.2
		c0.3-0.1,0.6-0.2,1-0.3c1.3-0.4,2.6-1.1,3.8-2.1c1.2-0.9,2.2-2.1,3.2-3.4c0.1-0.2,0.3-0.3,0.4-0.5c1.2,1.1,2.8,1.8,4.4,2.5
		c0.3,0.1,0.5,0.2,0.8,0.3c-0.5,0.2-1,0.3-1.6,0.5c-1.3,0.5-2.6,1.1-4,1.7c-1.9,0.9-3.8,1.7-5.7,2.2c-2,0.5-4,0.7-6,0.5
		c-2-0.3-3.9-1-5.3-2.3c-1.5-1.3-2.4-3.1-2.5-5c-0.1-1.1,0.1-2.1,0.5-3c0.4-0.9,1.1-1.7,1.9-2.2c0.4-0.3,0.8-0.5,1.3-0.7
		c0.4-0.2,0.9-0.3,1.3-0.3c0.9-0.1,1.8,0,2.5,0.3c1.5,0.6,2.6,1.8,3,2.9c0.4,1.1,0.3,2.1,0.2,2.8c-0.2,0.8-0.6,1.4-1.1,1.9
		c-0.5,0.5-1.2,0.9-1.8,1.1c-0.7,0.2-1.3,0.2-1.9,0.1c-0.6-0.1-1.1-0.4-1.5-0.7c-0.9-0.7-1.3-1.5-1.5-2.1c-0.2-0.6-0.3-1-0.4-1
		c-0.1,0-0.3,0.4-0.3,1.1c0,0.8,0.4,1.9,1.4,2.9c0.5,0.5,1.2,1,2,1.2c0.8,0.3,1.8,0.3,2.7,0.1c0.9-0.2,1.9-0.7,2.6-1.4
		c0.8-0.7,1.4-1.7,1.6-2.8C26,7,26.1,5.7,25.5,4.1c-0.6-1.5-2.1-3.1-4.1-3.7c-1-0.3-2.1-0.5-3.3-0.3c-0.6,0.1-1.1,0.3-1.7,0.5
		c-0.5,0.2-1.1,0.5-1.5,0.9c-1,0.7-1.8,1.7-2.3,2.8C12.1,5.5,12,6.8,12.2,8c0.3,2.2,1.4,4.2,3.1,5.5c1.4,1.2,3.1,1.9,4.9,2.2h-4.3
		v4.6c-0.3-1.8-1.1-3.5-2.2-4.9c-1.4-1.7-3.4-2.8-5.5-3.1c-1.2-0.2-2.5,0-3.7,0.5c-1.2,0.5-2.1,1.3-2.8,2.3c-0.4,0.5-0.7,1-0.9,1.5
		c-0.2,0.5-0.4,1.1-0.5,1.7c-0.2,1.1-0.1,2.3,0.3,3.3c0.7,2,2.2,3.5,3.7,4.1C5.7,26.3,7,26.2,7.9,26c1.1-0.3,2.1-0.8,2.8-1.6
		c0.7-0.8,1.2-1.7,1.4-2.6c0.2-0.9,0.2-1.9-0.1-2.7c-0.2-0.8-0.7-1.5-1.2-2c-1-1-2.2-1.3-2.9-1.4c-0.8,0-1.2,0.2-1.1,0.3
		c0,0.1,0.4,0.2,1,0.4c0.6,0.2,1.4,0.7,2.1,1.5c0.3,0.4,0.6,0.9,0.7,1.5c0.1,0.6,0.1,1.3-0.1,1.9c-0.2,0.7-0.6,1.3-1.1,1.8
		C9,23.6,8.3,24,7.5,24.2c-0.6,0.2-1.6,0.2-2.8-0.2c-1.1-0.4-2.3-1.4-2.9-3c-0.3-0.8-0.4-1.6-0.3-2.5c0.1-0.4,0.2-0.9,0.3-1.3
		c0.2-0.4,0.4-0.9,0.7-1.3c0.6-0.8,1.3-1.5,2.2-1.9c0.9-0.4,2-0.6,3-0.5c1.9,0.2,3.7,1.1,5,2.5c1.3,1.5,2.1,3.4,2.3,5.3
		c0.3,2,0.1,4-0.5,6c-0.5,2-1.3,3.9-2.2,5.7c-0.6,1.3-1.2,2.6-1.7,4c-0.2,0.5-0.3,1-0.5,1.6c-0.1-0.3-0.2-0.5-0.3-0.8
		c-0.6-1.6-1.4-3.1-2.5-4.4c0.2-0.1,0.3-0.3,0.5-0.4c1.3-1,2.4-2.1,3.4-3.2c0.9-1.2,1.7-2.5,2.1-3.8c0.1-0.3,0.2-0.7,0.3-1
		c0.1-0.3,0.1-0.7,0.2-1c0.2-0.6,0.2-1.3,0.3-1.9c0-1.3-0.2-2.5-0.6-3.6c-0.5-1.1-1.2-2-2.1-2.6c-1.7-1.3-3.9-1.6-5.5-0.9
		c-0.8,0.3-1.5,0.8-2.1,1.4c-0.5,0.6-0.9,1.3-1,2c-0.2,0.7-0.1,1.4,0.1,2c0.2,0.6,0.6,1.1,1,1.4c0.4,0.4,0.9,0.6,1.3,0.7
		c0.5,0.1,0.9,0,1.3-0.1c0.4-0.1,0.7-0.3,1-0.5C8,21.5,8.4,21,8.4,20.4c0-0.9-0.7-1.6-1.6-1.6c-0.9,0-1.6,0.7-1.6,1.6
		c0,0.9,0.7,1.6,1.6,1.6c0.1,0,0.2,0,0.3,0c-0.2,0.1-0.4,0.2-0.6,0.3c-0.7,0.2-1.7,0.1-2.5-0.6c-0.4-0.4-0.7-0.8-0.9-1.4
		c-0.2-0.6-0.2-1.2-0.1-1.8c0.2-0.6,0.5-1.3,1-1.8c0.5-0.5,1.2-1,2-1.3c1.6-0.6,3.6-0.3,5.2,0.9c0.8,0.6,1.5,1.5,1.9,2.5
		c0.4,1,0.6,2.2,0.6,3.4c-0.1,0.6-0.1,1.2-0.3,1.9c-0.1,0.3-0.1,0.6-0.2,1c-0.1,0.3-0.2,0.6-0.3,1c-0.4,1.3-1.1,2.5-2,3.7
		c-0.9,1.1-2.1,2.2-3.3,3.1c-0.2,0.1-0.4,0.3-0.6,0.4C7,33,6.9,32.9,6.8,32.8c-0.4-0.3-0.7-0.6-1.1-0.9c-0.4-0.2-0.9-0.4-1.4-0.4
		c-0.5,0-1,0.3-1.3,0.8c-0.1,0.3-0.1,0.5-0.1,0.8c0.1,0.3,0.2,0.5,0.3,0.7c0.3,0.4,0.7,0.7,1.2,0.7c0.5,0.1,0.9,0,1.4-0.2
		C6.2,34.3,6.6,34,7,33.8C8,35,8.7,36.5,9.4,38c0.2,0.5,0.4,0.9,0.6,1.4c-0.2,0.5-0.3,1.1-0.5,1.6c-0.7,2.7-1.2,5.3-1.3,7.9
		c-0.1,1.3,0,2.6,0.3,3.9c0.2,0.6,0.4,1.3,0.9,1.8c0.4,0.5,1.1,0.9,1.8,0.9c0.6,0.1,1.4,0,1.9-0.4c0.6-0.4,0.9-1.1,1-1.7
		c0.3-1.2,0.1-2.4-0.1-3.6c-0.4-2.3-1.1-4.4-1.8-6.4c-0.5-1.4-1.1-2.8-1.6-4.1c0.2-0.8,0.5-1.5,0.7-2.2c0.5-1.3,1.1-2.6,1.7-3.9
		c0.9-1.9,1.8-3.8,2.3-5.8c0.2-0.6,0.3-1.2,0.4-1.9v1.9c-0.4,1.7-1,4-2.2,6.7c-0.4,0.9-0.9,1.8-1.3,2.9c-0.2,0.5-0.4,1.1-0.4,1.7
		c-0.1,0.6-0.1,1.3,0,1.9c0,0.2,0.1,0.3,0.1,0.5c0.1,0.2,0.1,0.3,0.2,0.5c0.2,0.3,0.4,0.6,0.7,0.9c0.2,0.1,0.4,0.2,0.7,0.3
		c0.1,0.4,0.2,0.7,0.3,1.1c0.4,1.3,0.9,2.5,1.2,3.7c0.4,1.4,0.5,2.7,0.4,3.8c-0.1,1.1-0.3,1.9-0.4,2.4c-0.3,1-0.6,2-0.9,2.7
		c-0.2,0.7-0.4,1.2-0.2,1.4c0.2,0.2,0.7,0,1.4-0.6c0.1-0.1,0.3-0.3,0.4-0.5V100h2V17.7H100v-2H56.7z M33,6.4
		c-0.6-0.6-1.2-1.4-1.1-2.2c0-0.4,0.2-0.7,0.5-0.9c0.3-0.1,0.7,0,1,0.2c0.3,0.2,0.5,0.6,0.5,0.9c0,0.4,0,0.8-0.2,1.1
		c-0.1,0.4-0.3,0.7-0.6,1C33.1,6.6,33.1,6.5,33,6.4z M41,10.1c2.6-0.7,5.3-1.2,7.8-1.3c1.3-0.1,2.5,0,3.7,0.3
		c0.6,0.2,1.1,0.4,1.5,0.8c0.4,0.4,0.7,0.9,0.7,1.4c0.1,0.5,0,1.1-0.3,1.5c-0.3,0.4-0.8,0.7-1.3,0.8c-1.1,0.2-2.2,0.1-3.3-0.1
		c-2.2-0.4-4.3-1.1-6.3-1.8c-1.2-0.4-2.3-0.9-3.4-1.3C40.5,10.3,40.7,10.2,41,10.1z M5.6,34c-0.4,0.1-0.7,0.2-1.1,0.2
		c-0.3,0-0.7-0.3-0.9-0.5c-0.2-0.3-0.3-0.7-0.2-1c0.1-0.3,0.5-0.5,0.9-0.5C5,32,5.8,32.6,6.4,33.2c0.1,0.1,0.1,0.1,0.2,0.2
		C6.3,33.7,6,33.9,5.6,34z M11.6,43.8c0.7,2,1.4,4.1,1.8,6.3c0.2,1.1,0.3,2.3,0.1,3.3c-0.1,0.5-0.4,1-0.8,1.3
		c-0.4,0.3-1,0.4-1.5,0.3c-0.5-0.1-1-0.3-1.4-0.7c-0.4-0.4-0.6-1-0.8-1.5c-0.3-1.2-0.3-2.4-0.3-3.7c0.1-2.5,0.6-5.2,1.3-7.8
		c0.1-0.3,0.2-0.6,0.2-0.9C10.8,41.5,11.2,42.6,11.6,43.8z M14,42c-0.1-0.6-0.1-1.2,0.1-1.8c0.1-0.3,0.3-0.6,0.5-0.9
		c0.2-0.2,0.5-0.4,0.7-0.5c0.2-0.1,0.3-0.1,0.4-0.1v2.7c-0.3,0.3-0.6,0.5-0.9,0.6c-0.2,0.1-0.3,0.1-0.5,0.2c-0.1,0-0.2,0.1-0.3,0.1
		C14.1,42.3,14.1,42.1,14,42z M13.2,42.2c-0.2-0.2-0.4-0.4-0.6-0.6c-0.1-0.1-0.1-0.3-0.2-0.4c0-0.1-0.1-0.3-0.1-0.4
		c-0.1-0.6-0.1-1.2,0-1.8c0-0.6,0.2-1.1,0.4-1.6c0.4-1,0.9-1.9,1.3-2.8c0.9-2,1.4-3.8,1.8-5.3v8.9c-0.2,0-0.5,0-0.7,0.1
		c-0.7,0.3-1.4,0.9-1.6,1.8c-0.2,0.7-0.2,1.4-0.1,2.1c0,0,0,0.1,0,0.1C13.3,42.2,13.2,42.2,13.2,42.2z M14.7,43.8
		c-0.1-0.3-0.2-0.5-0.3-0.8c0.1,0,0.2-0.1,0.3-0.1c0.2,0,0.4-0.1,0.5-0.2c0.2-0.1,0.4-0.2,0.6-0.4v3.9C15.4,45.4,15,44.6,14.7,43.8z
		 M46,15.7h-3.9c0.1-0.2,0.3-0.4,0.3-0.6c0.1-0.2,0.2-0.4,0.2-0.5c0-0.1,0-0.2,0.1-0.3c0.3,0.1,0.5,0.2,0.8,0.3
		C44.4,15,45.2,15.4,46,15.7z M38.5,15.7c0-0.1,0-0.3,0.1-0.4c0.1-0.3,0.3-0.5,0.5-0.7c0.2-0.2,0.5-0.4,0.9-0.5
		c0.6-0.2,1.2-0.2,1.8-0.1c0.1,0,0.2,0.1,0.4,0.1c0,0.1-0.1,0.2-0.1,0.3c0,0.2-0.1,0.3-0.2,0.5c-0.2,0.3-0.4,0.6-0.6,0.9H38.5z
		 M34.3,14c0.9-0.4,1.8-0.9,2.8-1.3c0.5-0.2,1.1-0.3,1.6-0.4c0.6-0.1,1.2-0.1,1.8,0c0.1,0,0.3,0.1,0.4,0.1c0.1,0.1,0.3,0.1,0.4,0.2
		c0.3,0.1,0.5,0.3,0.6,0.6c0,0,0,0.1,0.1,0.1c0,0-0.1,0-0.1,0c-0.7-0.1-1.4-0.1-2.1,0.1c-0.8,0.3-1.5,0.9-1.8,1.6
		c-0.1,0.2-0.1,0.5-0.1,0.7H29C30.5,15.4,32.2,14.8,34.3,14z"/>
</g>
</svg>
