<?xml version="1.0" encoding="utf-8"?>
<!-- Generator: Adobe Illustrator 24.0.0, SVG Export Plug-In . SVG Version: 6.00 Build 0)  -->
<svg version="1.1" xmlns="http://www.w3.org/2000/svg" xmlns:xlink="http://www.w3.org/1999/xlink" x="0px" y="0px"
	 viewBox="0 0 100 100" style="enable-background:new 0 0 100 100;" xml:space="preserve">
<style type="text/css">
	.st0{fill:#FFFFFF;}
	.st1{fill:#A57127;}
	.st2{fill:#DC9C2E;}
	.st3{fill:none;}
	.st4{fill:#E6E6E6;}
</style>
<g id="BACKGROUND">
</g>
<g id="OBJECTS">
	<path class="st2" d="M43.3,84.3c-0.2,0.1-0.3,0.3-0.5,0.4c-0.6,0.6-0.8,1.1-0.6,1.4c0.2,0.2,0.7,0.1,1.4-0.2
		c0.7-0.2,1.6-0.6,2.7-0.9c0.4-0.1,1.3-0.4,2.4-0.4c1.1-0.1,2.4,0,3.8,0.4c1.2,0.3,2.4,0.8,3.7,1.2c0.4,0.1,0.7,0.2,1.1,0.3
		c0.1,0.3,0.2,0.5,0.3,0.7c0.2,0.3,0.5,0.6,0.9,0.7c0.2,0.1,0.3,0.1,0.5,0.2c0.2,0,0.3,0.1,0.5,0.1c0.7,0.1,1.3,0.1,1.9,0
		c0.6-0.1,1.2-0.2,1.7-0.4c1.1-0.4,2-0.9,2.9-1.3c2.7-1.2,4.9-1.9,6.6-2.2h1.9c-0.6,0.1-1.2,0.2-1.8,0.4c-2,0.6-4,1.4-5.8,2.3
		c-1.3,0.6-2.6,1.2-3.9,1.7c-0.7,0.3-1.5,0.5-2.2,0.7c-1.3-0.5-2.7-1.1-4.1-1.6c-2-0.7-4.1-1.4-6.4-1.8c-1.1-0.2-2.3-0.3-3.6-0.1
		c-0.6,0.1-1.3,0.4-1.7,1c-0.4,0.6-0.5,1.3-0.4,1.9c0.1,0.7,0.4,1.3,0.9,1.8c0.5,0.4,1.1,0.7,1.8,0.9c1.3,0.3,2.6,0.4,3.9,0.3
		c2.6-0.1,5.3-0.6,7.9-1.3c0.5-0.1,1.1-0.3,1.6-0.5c0.5,0.2,0.9,0.4,1.4,0.6c1.6,0.6,3.1,1.4,4.2,2.4c-0.2,0.4-0.5,0.7-0.6,1.2
		c-0.2,0.4-0.3,0.9-0.2,1.4c0.1,0.5,0.3,0.9,0.7,1.2c0.2,0.2,0.4,0.3,0.7,0.3c0.3,0.1,0.5,0,0.8-0.1c0.5-0.2,0.8-0.8,0.8-1.3
		c0.1-0.5-0.1-1-0.4-1.4c-0.2-0.4-0.6-0.8-0.9-1.1c-0.1-0.1-0.2-0.2-0.3-0.3c0.1-0.2,0.3-0.4,0.4-0.6c1-1.3,2-2.4,3.1-3.3
		c1.1-0.9,2.4-1.6,3.7-2c0.3-0.1,0.6-0.2,1-0.3c0.3-0.1,0.6-0.1,1-0.2c0.6-0.2,1.3-0.2,1.9-0.3c1.2,0,2.4,0.1,3.4,0.6
		c1,0.4,1.9,1.1,2.5,1.9c1.2,1.6,1.5,3.7,0.9,5.2c-0.3,0.8-0.7,1.5-1.3,2c-0.5,0.5-1.2,0.8-1.8,1c-0.6,0.2-1.3,0.1-1.8-0.1
		c-0.5-0.2-1-0.5-1.4-0.9c-0.7-0.8-0.9-1.8-0.6-2.5c0.1-0.2,0.2-0.4,0.3-0.6c0,0.1,0,0.2,0,0.3c0,0.9,0.7,1.6,1.6,1.6
		s1.6-0.7,1.6-1.6c0-0.9-0.7-1.6-1.6-1.6c-0.6,0-1.1,0.4-1.4,0.9c-0.2,0.3-0.4,0.6-0.5,1c-0.1,0.4-0.2,0.8-0.1,1.3
		c0.1,0.5,0.3,0.9,0.7,1.3c0.4,0.4,0.8,0.7,1.4,1c0.6,0.2,1.3,0.2,2,0.1c0.7-0.2,1.4-0.5,2-1c0.6-0.5,1.1-1.2,1.4-2.1
		c0.7-1.6,0.4-3.8-0.9-5.5c-0.6-0.9-1.5-1.6-2.6-2.1c-1.1-0.5-2.3-0.6-3.6-0.6c-0.6,0.1-1.3,0.1-1.9,0.3c-0.3,0.1-0.7,0.1-1,0.2
		c-0.3,0.1-0.6,0.2-1,0.3c-1.3,0.4-2.6,1.1-3.8,2.1c-1.2,0.9-2.2,2.1-3.2,3.4c-0.1,0.2-0.3,0.3-0.4,0.5c-1.2-1.1-2.8-1.8-4.4-2.5
		c-0.3-0.1-0.5-0.2-0.8-0.3c0.5-0.2,1-0.3,1.6-0.5c1.3-0.5,2.6-1.1,4-1.7c1.9-0.9,3.8-1.7,5.7-2.2c2-0.5,4-0.7,6-0.5
		c2,0.3,3.9,1,5.3,2.3c1.5,1.3,2.4,3.1,2.5,5c0.1,1.1-0.1,2.1-0.5,3c-0.4,0.9-1.1,1.7-1.9,2.2c-0.4,0.3-0.8,0.5-1.3,0.7
		c-0.4,0.2-0.9,0.3-1.3,0.3c-0.9,0.1-1.8,0-2.5-0.3c-1.5-0.6-2.6-1.8-3-2.9c-0.4-1.1-0.3-2.1-0.2-2.8c0.2-0.8,0.6-1.4,1.1-1.9
		c0.5-0.5,1.2-0.9,1.8-1.1c0.7-0.2,1.3-0.2,1.9-0.1c0.6,0.1,1.1,0.4,1.5,0.7c0.9,0.7,1.3,1.5,1.5,2.1c0.2,0.6,0.3,1,0.4,1
		c0.1,0,0.3-0.4,0.3-1.1c0-0.8-0.4-1.9-1.4-2.9c-0.5-0.5-1.2-1-2-1.2c-0.8-0.3-1.8-0.3-2.7-0.1c-0.9,0.2-1.9,0.7-2.6,1.4
		c-0.8,0.7-1.4,1.7-1.6,2.8c-0.2,0.9-0.3,2.3,0.3,3.8c0.6,1.5,2.1,3.1,4.1,3.7c1,0.3,2.1,0.5,3.3,0.3c0.6-0.1,1.1-0.3,1.7-0.5
		c0.5-0.2,1.1-0.5,1.5-0.9c1-0.7,1.8-1.7,2.3-2.8c0.5-1.2,0.6-2.4,0.5-3.7c-0.3-2.2-1.4-4.2-3.1-5.5c-1.4-1.2-3.1-1.9-4.9-2.2h4.3
		v-4.6c0.3,1.8,1.1,3.5,2.2,4.9c1.4,1.7,3.4,2.8,5.5,3.1c1.2,0.2,2.5,0,3.7-0.5c1.2-0.5,2.1-1.3,2.8-2.3c0.4-0.5,0.7-1,0.9-1.5
		c0.2-0.5,0.4-1.1,0.5-1.7c0.2-1.1,0.1-2.3-0.3-3.3c-0.7-2-2.2-3.5-3.7-4.1c-1.5-0.6-2.9-0.5-3.8-0.3c-1.1,0.3-2.1,0.8-2.8,1.6
		c-0.7,0.8-1.2,1.7-1.4,2.6c-0.2,0.9-0.2,1.9,0.1,2.7c0.2,0.8,0.7,1.5,1.2,2c1,1,2.2,1.3,2.9,1.4c0.8,0,1.2-0.2,1.1-0.3
		c0-0.1-0.4-0.2-1-0.4c-0.6-0.2-1.4-0.7-2.1-1.5c-0.3-0.4-0.6-0.9-0.7-1.5c-0.1-0.6-0.1-1.3,0.1-1.9c0.2-0.7,0.6-1.3,1.1-1.8
		c0.5-0.5,1.2-0.9,1.9-1.1c0.6-0.2,1.6-0.2,2.8,0.2c1.1,0.4,2.3,1.4,2.9,3c0.3,0.8,0.4,1.6,0.3,2.5c-0.1,0.4-0.2,0.9-0.3,1.3
		c-0.2,0.4-0.4,0.9-0.7,1.3c-0.6,0.8-1.3,1.5-2.2,1.9c-0.9,0.4-2,0.6-3,0.5c-1.9-0.2-3.7-1.1-5-2.5c-1.3-1.5-2.1-3.4-2.3-5.3
		c-0.3-2-0.1-4,0.5-6c0.5-2,1.3-3.9,2.2-5.7c0.6-1.3,1.2-2.6,1.7-4c0.2-0.5,0.3-1,0.5-1.6c0.1,0.3,0.2,0.5,0.3,0.8
		c0.6,1.6,1.4,3.1,2.5,4.4c-0.2,0.1-0.3,0.3-0.5,0.4c-1.3,1-2.4,2.1-3.4,3.2c-0.9,1.2-1.7,2.5-2.1,3.8c-0.1,0.3-0.2,0.7-0.3,1
		c-0.1,0.3-0.1,0.7-0.2,1c-0.2,0.6-0.2,1.3-0.3,1.9c0,1.3,0.2,2.5,0.6,3.6c0.5,1.1,1.2,2,2.1,2.6c1.7,1.3,3.9,1.6,5.5,0.9
		c0.8-0.3,1.5-0.8,2.1-1.4c0.5-0.6,0.9-1.3,1-2c0.2-0.7,0.1-1.4-0.1-2c-0.2-0.6-0.6-1.1-1-1.4c-0.4-0.4-0.9-0.6-1.3-0.7
		c-0.5-0.1-0.9,0-1.3,0.1c-0.4,0.1-0.7,0.3-1,0.5c-0.5,0.3-0.9,0.8-0.9,1.4c0,0.9,0.7,1.6,1.6,1.6c0.9,0,1.6-0.7,1.6-1.6
		c0-0.9-0.7-1.6-1.6-1.6c-0.1,0-0.2,0-0.3,0c0.2-0.1,0.4-0.2,0.6-0.3c0.7-0.2,1.7-0.1,2.5,0.6c0.4,0.4,0.7,0.8,0.9,1.4
		c0.2,0.6,0.2,1.2,0.1,1.8c-0.2,0.6-0.5,1.3-1,1.8c-0.5,0.5-1.2,1-2,1.3c-1.6,0.6-3.6,0.3-5.2-0.9c-0.8-0.6-1.5-1.5-1.9-2.5
		c-0.4-1-0.6-2.2-0.6-3.4c0.1-0.6,0.1-1.2,0.3-1.9c0.1-0.3,0.1-0.6,0.2-1c0.1-0.3,0.2-0.6,0.3-1c0.4-1.3,1.1-2.5,2-3.7
		c0.9-1.1,2.1-2.2,3.3-3.1c0.2-0.1,0.4-0.3,0.6-0.4c0.1,0.1,0.2,0.2,0.3,0.3c0.4,0.3,0.7,0.6,1.1,0.9c0.4,0.2,0.9,0.4,1.4,0.4
		c0.5,0,1-0.3,1.3-0.8c0.1-0.3,0.1-0.5,0.1-0.8c-0.1-0.3-0.2-0.5-0.3-0.7c-0.3-0.4-0.7-0.7-1.2-0.7c-0.5-0.1-0.9,0-1.4,0.2
		c-0.4,0.2-0.8,0.4-1.2,0.6c-1-1.2-1.8-2.7-2.4-4.2c-0.2-0.5-0.4-0.9-0.6-1.4c0.2-0.5,0.3-1.1,0.5-1.6c0.7-2.7,1.2-5.3,1.3-7.9
		c0.1-1.3,0-2.6-0.3-3.9c-0.2-0.6-0.4-1.3-0.9-1.8c-0.4-0.5-1.1-0.9-1.8-0.9c-0.6-0.1-1.4,0-1.9,0.4c-0.6,0.4-0.9,1.1-1,1.7
		c-0.3,1.2-0.1,2.4,0.1,3.6c0.4,2.3,1.1,4.4,1.8,6.4c0.5,1.4,1.1,2.8,1.6,4.1c-0.2,0.8-0.5,1.5-0.7,2.2c-0.5,1.3-1.1,2.6-1.7,3.9
		c-0.9,1.9-1.8,3.8-2.3,5.8c-0.2,0.6-0.3,1.2-0.4,1.9v-1.9c0.4-1.7,1-4,2.2-6.7c0.4-0.9,0.9-1.8,1.3-2.9c0.2-0.5,0.4-1.1,0.4-1.7
		c0.1-0.6,0.1-1.3,0-1.9c0-0.2-0.1-0.3-0.1-0.5c-0.1-0.2-0.1-0.3-0.2-0.5c-0.2-0.3-0.4-0.6-0.7-0.9c-0.2-0.1-0.4-0.2-0.7-0.3
		c-0.1-0.4-0.2-0.7-0.3-1.1c-0.4-1.3-0.9-2.5-1.2-3.7c-0.4-1.4-0.5-2.7-0.4-3.8c0.1-1.1,0.3-1.9,0.4-2.4c0.3-1,0.6-2,0.9-2.7
		c0.2-0.7,0.4-1.2,0.2-1.4c-0.2-0.2-0.7,0-1.4,0.6c-0.1,0.1-0.3,0.3-0.4,0.5V0l-2,0v82.3H0l0,2H43.3z M67,93.6
		c0.6,0.6,1.2,1.4,1.1,2.2c0,0.4-0.2,0.7-0.5,0.9c-0.3,0.1-0.7,0-1-0.2c-0.3-0.2-0.5-0.6-0.5-0.9c0-0.4,0-0.8,0.2-1.1
		c0.1-0.4,0.3-0.7,0.6-1C66.9,93.4,66.9,93.5,67,93.6z M59,89.9c-2.6,0.7-5.3,1.2-7.8,1.3c-1.3,0.1-2.5,0-3.7-0.3
		c-0.6-0.2-1.1-0.4-1.5-0.8c-0.4-0.4-0.7-0.9-0.7-1.4c-0.1-0.5,0-1.1,0.3-1.5c0.3-0.4,0.8-0.7,1.3-0.8c1.1-0.2,2.2-0.1,3.3,0.1
		c2.2,0.4,4.3,1.1,6.3,1.8c1.2,0.4,2.3,0.9,3.4,1.3C59.5,89.7,59.3,89.8,59,89.9z M94.4,66c0.4-0.1,0.7-0.2,1.1-0.2
		c0.3,0,0.7,0.3,0.9,0.5c0.2,0.3,0.3,0.7,0.2,1c-0.1,0.3-0.5,0.5-0.9,0.5c-0.8,0.1-1.5-0.5-2.2-1.1c-0.1-0.1-0.1-0.1-0.2-0.2
		C93.7,66.3,94,66.1,94.4,66z M88.4,56.2c-0.7-2-1.4-4.1-1.8-6.3c-0.2-1.1-0.3-2.3-0.1-3.3c0.1-0.5,0.4-1,0.8-1.3
		c0.4-0.3,1-0.4,1.5-0.3c0.5,0.1,1,0.3,1.4,0.7c0.4,0.4,0.6,1,0.8,1.5c0.3,1.2,0.3,2.4,0.3,3.7c-0.1,2.5-0.6,5.2-1.3,7.8
		c-0.1,0.3-0.2,0.6-0.2,0.9C89.2,58.5,88.8,57.4,88.4,56.2z M86,58c0.1,0.6,0.1,1.2-0.1,1.8c-0.1,0.3-0.3,0.6-0.5,0.9
		c-0.2,0.2-0.5,0.4-0.7,0.5c-0.2,0.1-0.3,0.1-0.4,0.1v-2.7c0.3-0.3,0.6-0.5,0.9-0.6c0.2-0.1,0.3-0.1,0.5-0.2c0.1,0,0.2-0.1,0.3-0.1
		C85.9,57.7,85.9,57.9,86,58z M86.8,57.8c0.2,0.2,0.4,0.4,0.6,0.6c0.1,0.1,0.1,0.3,0.2,0.4c0,0.1,0.1,0.3,0.1,0.4
		c0.1,0.6,0.1,1.2,0,1.8c0,0.6-0.2,1.1-0.4,1.6c-0.4,1-0.9,1.9-1.3,2.8c-0.9,2-1.4,3.8-1.8,5.3v-8.9c0.2,0,0.5,0,0.7-0.1
		c0.7-0.3,1.4-0.9,1.6-1.8c0.2-0.7,0.2-1.4,0.1-2.1c0,0,0-0.1,0-0.1C86.7,57.8,86.8,57.8,86.8,57.8z M85.3,56.2
		c0.1,0.3,0.2,0.5,0.3,0.8c-0.1,0-0.2,0.1-0.3,0.1c-0.2,0-0.4,0.1-0.5,0.2c-0.2,0.1-0.4,0.2-0.6,0.4v-3.9
		C84.6,54.6,85,55.4,85.3,56.2z M54,84.3h3.9c-0.1,0.2-0.3,0.4-0.3,0.6c-0.1,0.2-0.2,0.4-0.2,0.5c0,0.1,0,0.2-0.1,0.3
		c-0.3-0.1-0.5-0.2-0.8-0.3C55.6,85,54.8,84.6,54,84.3z M61.5,84.3c0,0.1,0,0.3-0.1,0.4c-0.1,0.3-0.3,0.5-0.5,0.7
		c-0.2,0.2-0.5,0.4-0.9,0.5c-0.6,0.2-1.2,0.2-1.8,0.1c-0.1,0-0.2-0.1-0.4-0.1c0-0.1,0.1-0.2,0.1-0.3c0-0.2,0.1-0.3,0.2-0.5
		c0.2-0.3,0.4-0.6,0.6-0.9H61.5z M65.7,86c-0.9,0.4-1.8,0.9-2.8,1.3c-0.5,0.2-1.1,0.3-1.6,0.4c-0.6,0.1-1.2,0.1-1.8,0
		c-0.1,0-0.3-0.1-0.4-0.1c-0.1-0.1-0.3-0.1-0.4-0.2c-0.3-0.1-0.5-0.3-0.6-0.6c0,0,0-0.1-0.1-0.1c0,0,0.1,0,0.1,0
		c0.7,0.1,1.4,0.1,2.1-0.1c0.8-0.3,1.5-0.9,1.8-1.6c0.1-0.2,0.1-0.5,0.1-0.7H71C69.5,84.6,67.8,85.2,65.7,86z"/>
</g>
</svg>
