<?xml version="1.0" encoding="utf-8"?>
<!-- Generator: Adobe Illustrator 24.0.0, SVG Export Plug-In . SVG Version: 6.00 Build 0)  -->
<svg version="1.1" xmlns="http://www.w3.org/2000/svg" xmlns:xlink="http://www.w3.org/1999/xlink" x="0px" y="0px"
	 viewBox="0 0 100 100" style="enable-background:new 0 0 100 100;" xml:space="preserve">
<style type="text/css">
	.st0{fill:#FFFFFF;}
	.st1{fill:#A57127;}
	.st2{fill:#DC9C2E;}
	.st3{fill:none;}
	.st4{fill:#E6E6E6;}
</style>
<g id="BACKGROUND">
</g>
<g id="OBJECTS">
	<path class="st2" d="M100,84.3v-2H17.7V0l-2,0v43.1c-0.1-0.2-0.3-0.3-0.4-0.5C14.7,42,14.2,41.8,14,42c-0.2,0.2-0.1,0.7,0.2,1.4
		c0.2,0.7,0.6,1.6,0.9,2.7c0.1,0.4,0.4,1.3,0.4,2.4c0.1,1.1,0,2.4-0.4,3.8c-0.3,1.2-0.8,2.4-1.2,3.7c-0.1,0.4-0.2,0.7-0.3,1.1
		c-0.3,0.1-0.5,0.2-0.7,0.3c-0.3,0.2-0.6,0.5-0.7,0.9c-0.1,0.2-0.1,0.3-0.2,0.5c0,0.2-0.1,0.3-0.1,0.5c-0.1,0.7-0.1,1.3,0,1.9
		c0.1,0.6,0.2,1.2,0.4,1.7c0.4,1.1,0.9,2,1.3,2.9c1.2,2.7,1.9,4.9,2.2,6.7v1.9c-0.1-0.6-0.2-1.3-0.4-1.9c-0.6-2-1.4-4-2.3-5.8
		c-0.6-1.3-1.2-2.6-1.7-3.9c-0.3-0.7-0.5-1.5-0.7-2.2c0.5-1.3,1.1-2.7,1.6-4.1c0.7-2,1.4-4.1,1.8-6.4c0.2-1.1,0.3-2.3,0.1-3.6
		c-0.1-0.6-0.4-1.3-1-1.7c-0.6-0.4-1.3-0.5-1.9-0.4c-0.7,0.1-1.3,0.4-1.8,0.9c-0.4,0.5-0.7,1.1-0.9,1.8c-0.3,1.3-0.4,2.6-0.3,3.9
		c0.1,2.6,0.6,5.3,1.3,7.9c0.1,0.5,0.3,1.1,0.5,1.6C9.7,61,9.6,61.5,9.4,62C8.7,63.5,8,65,7,66.2c-0.4-0.2-0.7-0.5-1.2-0.6
		c-0.4-0.2-0.9-0.3-1.4-0.2c-0.5,0.1-0.9,0.3-1.2,0.7c-0.2,0.2-0.3,0.4-0.3,0.7c-0.1,0.3,0,0.5,0.1,0.8c0.2,0.5,0.8,0.8,1.3,0.8
		c0.5,0.1,1-0.1,1.4-0.4c0.4-0.2,0.8-0.6,1.1-0.9C6.9,67.1,7,67,7.1,66.9c0.2,0.1,0.4,0.3,0.6,0.4c1.3,1,2.4,2,3.3,3.1
		c0.9,1.1,1.6,2.4,2,3.7c0.1,0.3,0.2,0.6,0.3,1c0.1,0.3,0.1,0.6,0.2,1c0.2,0.6,0.2,1.3,0.3,1.9c0,1.2-0.1,2.4-0.6,3.4
		c-0.4,1-1.1,1.9-1.9,2.5c-1.6,1.2-3.7,1.5-5.2,0.9c-0.8-0.3-1.5-0.7-2-1.3c-0.5-0.5-0.8-1.2-1-1.8c-0.2-0.6-0.1-1.3,0.1-1.8
		c0.2-0.5,0.5-1,0.9-1.4c0.8-0.7,1.8-0.9,2.5-0.6c0.2,0.1,0.4,0.2,0.6,0.3c-0.1,0-0.2,0-0.3,0c-0.9,0-1.6,0.7-1.6,1.6
		c0,0.9,0.7,1.6,1.6,1.6c0.9,0,1.6-0.7,1.6-1.6c0-0.6-0.4-1.1-0.9-1.4c-0.3-0.2-0.6-0.4-1-0.5c-0.4-0.1-0.8-0.2-1.3-0.1
		c-0.5,0.1-0.9,0.3-1.3,0.7c-0.4,0.4-0.7,0.8-1,1.4c-0.2,0.6-0.2,1.3-0.1,2c0.2,0.7,0.5,1.4,1,2c0.5,0.6,1.2,1.1,2.1,1.4
		c1.6,0.7,3.8,0.4,5.5-0.9c0.9-0.6,1.6-1.5,2.1-2.6c0.5-1.1,0.6-2.3,0.6-3.6c-0.1-0.6-0.1-1.3-0.3-1.9c-0.1-0.3-0.1-0.7-0.2-1
		c-0.1-0.3-0.2-0.6-0.3-1c-0.4-1.3-1.1-2.6-2.1-3.8c-0.9-1.2-2.1-2.2-3.4-3.2c-0.2-0.1-0.3-0.3-0.5-0.4c1.1-1.2,1.8-2.8,2.5-4.4
		c0.1-0.3,0.2-0.5,0.3-0.8c0.2,0.5,0.3,1,0.5,1.6c0.5,1.3,1.1,2.6,1.7,4c0.9,1.9,1.7,3.8,2.2,5.7c0.5,2,0.7,4,0.5,6
		c-0.3,2-1,3.9-2.3,5.3c-1.3,1.5-3.1,2.4-5,2.5c-1.1,0.1-2.1-0.1-3-0.5c-0.9-0.4-1.7-1.1-2.2-1.9c-0.3-0.4-0.5-0.8-0.7-1.3
		c-0.2-0.4-0.3-0.9-0.3-1.3c-0.1-0.9,0-1.8,0.3-2.5c0.6-1.5,1.8-2.6,2.9-3c1.1-0.4,2.1-0.3,2.8-0.2C8.3,76,9,76.4,9.5,76.9
		c0.5,0.5,0.9,1.2,1.1,1.8c0.2,0.7,0.2,1.3,0.1,1.9c-0.1,0.6-0.4,1.1-0.7,1.5c-0.7,0.9-1.5,1.3-2.1,1.5c-0.6,0.2-1,0.3-1,0.4
		c0,0.1,0.4,0.3,1.1,0.3c0.8,0,1.9-0.4,2.9-1.4c0.5-0.5,1-1.2,1.2-2c0.3-0.8,0.3-1.8,0.1-2.7c-0.2-0.9-0.7-1.9-1.4-2.6
		C10,74.9,9,74.3,7.9,74c-0.9-0.2-2.3-0.3-3.8,0.3c-1.5,0.6-3.1,2.1-3.7,4.1c-0.3,1-0.5,2.1-0.3,3.3c0.1,0.6,0.3,1.1,0.5,1.7
		c0.2,0.5,0.5,1.1,0.9,1.5c0.7,1,1.7,1.8,2.8,2.3c1.2,0.5,2.4,0.6,3.7,0.5c2.2-0.3,4.2-1.4,5.5-3.1c1.2-1.4,1.9-3.1,2.2-4.9v4.6h4.3
		c-1.8,0.3-3.5,1.1-4.9,2.2c-1.7,1.4-2.8,3.4-3.1,5.5c-0.2,1.2,0,2.5,0.5,3.7c0.5,1.2,1.3,2.1,2.3,2.8c0.5,0.4,1,0.7,1.5,0.9
		c0.5,0.2,1.1,0.4,1.7,0.5c1.1,0.2,2.3,0.1,3.3-0.3c2-0.7,3.5-2.2,4.1-3.7c0.6-1.5,0.5-2.9,0.3-3.8c-0.3-1.1-0.8-2.1-1.6-2.8
		c-0.8-0.7-1.7-1.2-2.6-1.4c-0.9-0.2-1.9-0.2-2.7,0.1c-0.8,0.2-1.5,0.7-2,1.2c-1,1-1.3,2.2-1.4,2.9c0,0.8,0.2,1.2,0.3,1.1
		c0.1,0,0.2-0.4,0.4-1c0.2-0.6,0.7-1.4,1.5-2.1c0.4-0.3,0.9-0.6,1.5-0.7c0.6-0.1,1.3-0.1,1.9,0.1c0.7,0.2,1.3,0.6,1.8,1.1
		c0.5,0.5,0.9,1.2,1.1,1.9c0.2,0.6,0.2,1.6-0.2,2.8c-0.4,1.1-1.4,2.3-3,2.9c-0.8,0.3-1.6,0.4-2.5,0.3c-0.4-0.1-0.9-0.2-1.3-0.3
		c-0.4-0.2-0.9-0.4-1.3-0.7c-0.8-0.6-1.5-1.3-1.9-2.2c-0.4-0.9-0.6-2-0.5-3c0.2-1.9,1.1-3.7,2.5-5c1.5-1.3,3.4-2.1,5.3-2.3
		c2-0.3,4-0.1,6,0.5c2,0.5,3.9,1.3,5.7,2.2c1.3,0.6,2.6,1.2,4,1.7c0.5,0.2,1,0.3,1.6,0.5c-0.3,0.1-0.5,0.2-0.8,0.3
		c-1.6,0.6-3.1,1.4-4.4,2.5c-0.1-0.2-0.3-0.3-0.4-0.5c-1-1.3-2.1-2.4-3.2-3.4c-1.2-0.9-2.5-1.7-3.8-2.1c-0.3-0.1-0.7-0.2-1-0.3
		c-0.3-0.1-0.7-0.1-1-0.2c-0.6-0.2-1.3-0.2-1.9-0.3c-1.3,0-2.5,0.2-3.6,0.6c-1.1,0.5-2,1.2-2.6,2.1c-1.3,1.7-1.6,3.9-0.9,5.5
		c0.3,0.8,0.8,1.5,1.4,2.1c0.6,0.5,1.3,0.9,2,1c0.7,0.2,1.4,0.1,2-0.1c0.6-0.2,1.1-0.6,1.4-1c0.4-0.4,0.6-0.9,0.7-1.3
		c0.1-0.5,0-0.9-0.1-1.3c-0.1-0.4-0.3-0.7-0.5-1c-0.3-0.5-0.8-0.9-1.4-0.9c-0.9,0-1.6,0.7-1.6,1.6c0,0.9,0.7,1.6,1.6,1.6
		s1.6-0.7,1.6-1.6c0-0.1,0-0.2,0-0.3c0.1,0.2,0.2,0.4,0.3,0.6c0.2,0.7,0.1,1.7-0.6,2.5c-0.4,0.4-0.8,0.7-1.4,0.9
		c-0.6,0.2-1.2,0.2-1.8,0.1c-0.6-0.2-1.3-0.5-1.8-1c-0.5-0.5-1-1.2-1.3-2c-0.6-1.6-0.3-3.6,0.9-5.2c0.6-0.8,1.5-1.5,2.5-1.9
		c1-0.4,2.2-0.6,3.4-0.6c0.6,0.1,1.2,0.1,1.9,0.3c0.3,0.1,0.6,0.1,1,0.2c0.3,0.1,0.6,0.2,1,0.3c1.3,0.4,2.5,1.1,3.7,2
		c1.1,0.9,2.2,2.1,3.1,3.3c0.1,0.2,0.3,0.4,0.4,0.6c-0.1,0.1-0.2,0.2-0.3,0.3c-0.3,0.4-0.6,0.7-0.9,1.1c-0.2,0.4-0.4,0.9-0.4,1.4
		c0,0.5,0.3,1,0.8,1.3c0.3,0.1,0.5,0.1,0.8,0.1c0.3-0.1,0.5-0.2,0.7-0.3c0.4-0.3,0.7-0.7,0.7-1.2c0.1-0.5,0-0.9-0.2-1.4
		c-0.2-0.4-0.4-0.8-0.6-1.2c1.2-1,2.7-1.8,4.2-2.4c0.5-0.2,0.9-0.4,1.4-0.6c0.5,0.2,1.1,0.3,1.6,0.5c2.7,0.7,5.3,1.2,7.9,1.3
		c1.3,0.1,2.6,0,3.9-0.3c0.6-0.2,1.3-0.4,1.8-0.9c0.5-0.4,0.9-1.1,0.9-1.8c0.1-0.6,0-1.4-0.4-1.9c-0.4-0.6-1.1-0.9-1.7-1
		c-1.2-0.3-2.4-0.1-3.6,0.1c-2.3,0.4-4.4,1.1-6.4,1.8c-1.4,0.5-2.8,1.1-4.1,1.6c-0.8-0.2-1.5-0.5-2.2-0.7c-1.3-0.5-2.6-1.1-3.9-1.7
		c-1.9-0.9-3.8-1.8-5.8-2.3c-0.6-0.2-1.2-0.3-1.8-0.4h1.9c1.7,0.4,3.9,1,6.6,2.2c0.9,0.4,1.8,0.9,2.9,1.3c0.5,0.2,1.1,0.4,1.7,0.4
		c0.6,0.1,1.3,0.1,1.9,0c0.2,0,0.3-0.1,0.5-0.1c0.2-0.1,0.3-0.1,0.5-0.2c0.3-0.2,0.6-0.4,0.9-0.7c0.1-0.2,0.2-0.4,0.3-0.7
		c0.4-0.1,0.7-0.2,1.1-0.3c1.3-0.4,2.5-0.9,3.7-1.2c1.4-0.4,2.7-0.5,3.8-0.4c1.1,0.1,1.9,0.3,2.4,0.4c1,0.3,2,0.6,2.7,0.9
		c0.7,0.2,1.2,0.4,1.4,0.2c0.2-0.2,0-0.7-0.6-1.4c-0.1-0.1-0.3-0.3-0.5-0.4H100z M33.2,93.4c0.2,0.3,0.4,0.7,0.6,1
		c0.1,0.4,0.2,0.7,0.2,1.1c0,0.3-0.3,0.7-0.5,0.9c-0.3,0.2-0.7,0.3-1,0.2c-0.3-0.1-0.5-0.5-0.5-0.9c-0.1-0.8,0.5-1.5,1.1-2.2
		C33.1,93.5,33.1,93.4,33.2,93.4z M40.2,89.7c1.1-0.4,2.2-0.9,3.4-1.3c2-0.7,4.1-1.4,6.3-1.8c1.1-0.2,2.3-0.3,3.3-0.1
		c0.5,0.1,1,0.4,1.3,0.8c0.3,0.4,0.4,1,0.3,1.5c-0.1,0.5-0.3,1-0.7,1.4c-0.4,0.4-1,0.6-1.5,0.8c-1.2,0.3-2.4,0.3-3.7,0.3
		c-2.5-0.1-5.2-0.6-7.8-1.3C40.7,89.8,40.5,89.7,40.2,89.7z M6.6,66.6c-0.1,0.1-0.1,0.1-0.2,0.2C5.8,67.4,5,68,4.3,67.9
		c-0.4,0-0.7-0.2-0.9-0.5c-0.1-0.3,0-0.7,0.2-1c0.2-0.3,0.6-0.5,0.9-0.5c0.4,0,0.8,0,1.1,0.2C6,66.1,6.3,66.3,6.6,66.6z M10.3,59.6
		c-0.1-0.3-0.2-0.6-0.2-0.9c-0.7-2.6-1.2-5.3-1.3-7.8c-0.1-1.3,0-2.5,0.3-3.7c0.2-0.6,0.4-1.1,0.8-1.5c0.4-0.4,0.9-0.7,1.4-0.7
		c0.5-0.1,1.1,0,1.5,0.3c0.4,0.3,0.7,0.8,0.8,1.3c0.2,1.1,0.1,2.2-0.1,3.3c-0.4,2.2-1.1,4.3-1.8,6.3C11.2,57.4,10.8,58.5,10.3,59.6z
		 M14.2,57.6c0.1,0,0.2,0.1,0.3,0.1c0.2,0,0.3,0.1,0.5,0.2c0.3,0.2,0.6,0.4,0.9,0.6v2.7c-0.1,0-0.3,0-0.4-0.1
		c-0.3-0.1-0.5-0.3-0.7-0.5c-0.2-0.2-0.4-0.5-0.5-0.9c-0.2-0.6-0.2-1.2-0.1-1.8C14.1,57.9,14.1,57.7,14.2,57.6z M13.3,57.8
		C13.3,57.8,13.3,57.8,13.3,57.8c-0.1,0.8-0.1,1.5,0.1,2.2c0.3,0.8,0.9,1.5,1.6,1.8c0.2,0.1,0.5,0.1,0.7,0.1v8.9
		c-0.4-1.5-0.9-3.2-1.8-5.3c-0.4-0.9-0.9-1.8-1.3-2.8c-0.2-0.5-0.3-1.1-0.4-1.6c-0.1-0.6-0.1-1.2,0-1.8c0-0.1,0.1-0.3,0.1-0.4
		c0.1-0.1,0.1-0.3,0.2-0.4c0.1-0.3,0.3-0.5,0.6-0.6C13.2,57.8,13.3,57.8,13.3,57.8z M15.7,53.7v3.9c-0.2-0.1-0.4-0.3-0.6-0.4
		c-0.2-0.1-0.4-0.2-0.5-0.2c-0.1,0-0.2-0.1-0.3-0.1c0.1-0.3,0.2-0.5,0.3-0.8C15,55.4,15.4,54.6,15.7,53.7z M43.6,85.3
		c-0.3,0.1-0.5,0.2-0.8,0.3c0-0.1-0.1-0.2-0.1-0.3c0-0.2-0.1-0.4-0.2-0.5c-0.1-0.2-0.2-0.4-0.3-0.6H46C45.2,84.6,44.4,85,43.6,85.3z
		 M41.3,84.3c0.2,0.3,0.5,0.6,0.6,0.9c0.1,0.2,0.1,0.3,0.2,0.5c0,0.1,0.1,0.2,0.1,0.3c-0.1,0-0.3,0.1-0.4,0.1
		c-0.6,0.1-1.2,0.1-1.8-0.1c-0.3-0.1-0.6-0.3-0.9-0.5c-0.2-0.2-0.4-0.5-0.5-0.7c-0.1-0.1-0.1-0.3-0.1-0.4H41.3z M29,84.3h8.8
		c0,0.2,0.1,0.5,0.1,0.7c0.3,0.7,0.9,1.4,1.8,1.6c0.7,0.2,1.4,0.2,2.1,0.1c0,0,0.1,0,0.1,0c0,0,0,0.1-0.1,0.1
		c-0.2,0.2-0.4,0.4-0.6,0.6c-0.1,0.1-0.3,0.1-0.4,0.2c-0.1,0-0.3,0.1-0.4,0.1c-0.6,0.1-1.2,0.1-1.8,0c-0.6,0-1.1-0.2-1.6-0.4
		c-1-0.4-1.9-0.9-2.8-1.3C32.2,85.2,30.5,84.6,29,84.3z"/>
</g>
</svg>
