<?xml version="1.0" encoding="utf-8"?>
<!-- Generator: Adobe Illustrator 24.0.0, SVG Export Plug-In . SVG Version: 6.00 Build 0)  -->
<svg version="1.1" xmlns="http://www.w3.org/2000/svg" xmlns:xlink="http://www.w3.org/1999/xlink" x="0px" y="0px"
	 viewBox="0 0 260 260" style="enable-background:new 0 0 260 260;" xml:space="preserve">
<style type="text/css">
	.st0{fill:#FFFFFF;}
	.st1{fill:#A57127;}
	.st2{fill:#DC9C2E;}
	.st3{fill:none;}
	.st4{fill:#E6E6E6;}
	.st5{fill:#C59444;}
</style>
<g id="BACKGROUND">
</g>
<g id="OBJECTS">
	<g>
		<g>
			<path class="st2" d="M213.5,105.8c2.8-11.3,1.8-23.2-1.4-34.3c-1.5-5.3-3.6-10.4-6.4-15.1c-2.7-4.6-6-8.8-9.7-12.6
				c-2.1-2.1-4.2-4.1-6.5-6c-2.3-1.9-4.7-3.8-7.4-5.2c-0.8-0.4-1.3,0.6-0.7,1.2c2.1,1.6,4.2,3,6.3,4.6c2,1.6,3.9,3.3,5.8,5.1
				c3.7,3.6,7,7.6,9.8,12c5.9,9.2,9.2,20.2,10.3,31c0.6,6.3,0.4,12.8-0.9,19.1C212.6,106.1,213.4,106.3,213.5,105.8L213.5,105.8z"/>
		</g>
		<g>
			<path class="st2" d="M213.3,105.3c-7.3-7.2-13.5-15.4-18.1-24.6c-2.3-4.6-4.1-9.3-5.5-14.3c-1.4-5.1-2.1-10.4-2.9-15.7
				c-0.4-3.1-0.9-6.1-1.6-9.1c-0.7-3-1.6-5.9-3.1-8.6c-0.2-0.4-0.9-0.1-0.7,0.3c1,2.6,1.9,5.2,2.5,7.9c0.6,2.7,1.1,5.5,1.5,8.2
				c0.8,5.3,1.4,10.7,2.7,16c2.6,10,7.2,19.4,13.1,27.7c3.4,4.7,7.2,9,11.5,12.8C213.1,106.3,213.8,105.7,213.3,105.3L213.3,105.3z"
				/>
		</g>
		<g>
			<path class="st2" d="M213.2,104.8c-1.4-5.6,0.2-11.4-0.4-17.1c-0.6-5.4-2.6-10.5-4.5-15.5c-3.7-9.3-8.2-18.3-14.2-26.3
				c-1.6-2.2-3.4-4.3-5.2-6.2c-1.9-2-3.7-4.1-6-5.8c-0.2-0.1-0.3,0.1-0.2,0.3c1.7,1.8,3.5,3.5,5.2,5.3c1.7,1.8,3.2,3.8,4.7,5.8
				c2.9,3.9,5.6,8.1,7.9,12.4c2.4,4.4,4.5,8.9,6.4,13.6c1.9,4.9,3.8,9.9,4.7,15c1.1,6.2-0.7,12.6,0.9,18.8
				C212.5,105.5,213.3,105.3,213.2,104.8L213.2,104.8z"/>
		</g>
		<g>
			<path class="st2" d="M212.4,104.1c-1.9-9.6-4.7-19-8.3-28c-1.7-4.5-3.7-9-5.8-13.3c-2.1-4.4-4.5-8.7-6.9-12.9
				c-2.7-4.8-5.5-9.7-7.5-14.9c-0.1-0.3-0.6-0.2-0.5,0.1c1.6,4.6,3.7,8.9,6.1,13.2c2.4,4.3,4.8,8.5,7,12.9c4.4,8.8,8,17.9,10.9,27.2
				c1.6,5.2,3,10.6,4.2,15.9C211.8,104.8,212.4,104.6,212.4,104.1L212.4,104.1z"/>
		</g>
		<g>
			<path class="st2" d="M212.9,104.5c-2.3-3.9-4.6-7.9-6.7-11.9c-2.1-4-4.3-8-6.3-12.1c-3.9-8.3-7.3-16.7-10.5-25.3
				c-0.9-2.4-1.7-4.7-2.5-7.1c-0.4-1.2-0.8-2.5-1.2-3.7c-0.4-1.2-0.7-2.4-1.2-3.5c-0.1-0.2-0.3,0-0.3,0.1c0.2,1.1,0.6,2.2,0.9,3.3
				c0.3,1.1,0.7,2.2,1,3.3c0.7,2.2,1.3,4.4,2.1,6.5c1.5,4.3,3.1,8.5,4.9,12.7c1.7,4.2,3.5,8.3,5.4,12.4c1.9,4.1,3.8,8.3,6,12.3
				c2.4,4.6,5,9,7.7,13.4C212.4,105.5,213.2,105,212.9,104.5L212.9,104.5z"/>
		</g>
		<g>
			<path class="st2" d="M209.4,66.1c2.3,4,4.7,8,7.9,11.3c2.6,2.7,5.7,4.9,9,6.7c6.7,3.7,14.2,6,21.2,9c2,0.9,4,1.8,5.9,2.8
				c1.9,1,3.7,2.2,5.5,3.3c0.4,0.2,0.8-0.3,0.5-0.6c-2.7-2.6-6.2-4.4-9.6-5.9c-3.5-1.6-7.1-3-10.6-4.3c-7-2.7-14.2-5.6-19.9-10.7
				c-3.8-3.4-6.6-7.8-9.3-12C209.8,65.3,209.1,65.7,209.4,66.1L209.4,66.1z"/>
		</g>
		<g>
			<path class="st2" d="M259.9,99.3c-3.1-5.5-6.3-10.9-9.6-16.3c-2.9-4.8-6-9.3-10-13.2c-7.4-7.4-16.5-12.6-26.1-16.6
				c-2.6-1.1-5.2-2-7.8-2.8c-2.6-0.8-5.1-1.8-7.5-3.2c-0.5-0.3-1,0.4-0.6,0.8c1.8,1.5,4.1,2.3,6.3,3.1c2.3,0.8,4.5,1.6,6.8,2.5
				c4.8,1.9,9.5,4.1,14,6.7c4.5,2.6,8.7,5.6,12.5,9.1c4,3.7,7.4,8,10.3,12.6c3.7,5.9,7.2,11.9,10.9,17.8
				C259.5,100.3,260.2,99.8,259.9,99.3L259.9,99.3z"/>
		</g>
		<g>
			<path class="st2" d="M259.9,99.1c-6.8-7.9-12.9-16.3-20.2-23.8c-3.5-3.6-7.3-7-11.4-9.8c-4.2-2.9-8.7-5.5-13.2-8.1
				c-4.9-2.9-9.8-5.8-14.6-8.9c-0.4-0.2-0.9,0.3-0.5,0.6c3.9,3.1,8.3,5.7,12.6,8.2c4.5,2.6,9,5.1,13.4,8c4.2,2.8,8,5.9,11.6,9.4
				c3.7,3.7,7.1,7.6,10.4,11.6c3.7,4.5,7.3,9.1,11.2,13.5C259.6,100.2,260.3,99.6,259.9,99.1L259.9,99.1z"/>
		</g>
		<g>
			<path class="st2" d="M259.6,99.2c-7-7.4-14.3-14.8-22.5-20.9c-4.2-3-8.7-5.7-12.9-8.7c-4.1-3-8.1-6.1-11.9-9.5
				c-2.1-1.9-4.2-3.7-6.2-5.7c-2-2-3.7-4-5.6-6.1c-0.3-0.4-0.9,0.2-0.6,0.6c1.5,1.9,3.2,3.6,4.8,5.3c1.8,1.8,3.6,3.6,5.5,5.3
				c3.7,3.4,7.6,6.6,11.7,9.6c4.1,3.1,8.5,5.8,12.7,8.7c4.2,2.9,8.2,6.2,12,9.7c4.3,3.9,8.4,8.1,12.4,12.3
				C259.4,100.2,260,99.6,259.6,99.2L259.6,99.2z"/>
		</g>
		<g>
			<path class="st2" d="M259.6,99.2c-6.2-5.9-13.5-10.8-21.1-14.7c-2.2-1.1-4.3-2.2-6.4-3.4c-2-1.2-3.8-2.6-5.6-4
				c-3.5-2.9-6.7-6.3-9.9-9.7c-1.9-2.1-3.9-4.1-5.9-6.1c-1-1-2-2.1-3-3.1c-1-1-1.9-2.1-3.1-3c-0.2-0.2-0.5,0.1-0.4,0.4
				c0.7,1,1.6,1.9,2.4,2.8c0.9,0.9,1.7,1.9,2.6,2.8c1.7,1.9,3.4,3.8,5.2,5.7c3.1,3.4,6.4,6.8,9.8,9.9c1.7,1.5,3.5,2.9,5.3,4.2
				c2,1.3,4.1,2.5,6.2,3.5c4,2,7.9,4,11.6,6.5c4.1,2.7,8,5.6,11.6,8.9C259.4,100.2,260,99.6,259.6,99.2L259.6,99.2z"/>
		</g>
		<g>
			<path class="st1" d="M234.9,104.6c-0.5-3.2-1.6-6.1-3.3-8.8c-1.7-2.7-3.7-5.2-5.9-7.5c-3.7-4-7-8.4-10.1-12.9
				c-0.9-1.3-1.8-2.6-2.6-4c-0.7-1.2-1.4-2.3-2.2-3.4c-0.4-0.5-1.3-0.2-1.1,0.5c0.6,2.5,2.1,4.8,3.4,6.9c1.5,2.5,3.2,4.9,5,7.2
				c1.6,2.1,3.3,4.2,5.1,6.1c2.1,2.2,4.2,4.4,6,6.9c2,2.8,3.8,6,4.6,9.4C233.9,105.8,235.1,105.4,234.9,104.6L234.9,104.6z"/>
		</g>
		<g>
			<path class="st1" d="M183.1,33.3c-3.5-3.3-7.6-5.8-11.9-7.7c-4.5-2-9.2-3.6-13.9-4.9c-9.7-2.8-19.6-4.5-29.7-5.2
				c-10.1-0.7-20.2-0.4-30.3,0.5c-10.1,1-20.1,2.6-30,4.9c-9.6,2.3-19.2,5.2-27.7,10.3c-1,0.6-2,1.4-2.9,2.1c-0.8,0.6,0.2,1.7,1,1.3
				c4.2-2.3,8.4-4.5,12.9-6.3c4.5-1.8,9.2-3.2,13.9-4.4c9.6-2.4,19.3-4.3,29.1-5.4c9.8-1.2,19.8-1.6,29.7-1.2
				c9.9,0.4,19.7,1.7,29.3,4.1c4.8,1.2,9.5,2.6,14.2,4.3c4.3,1.6,8.7,3.6,12.5,6.2c1,0.7,1.9,1.4,2.8,2.2
				C182.8,34.8,183.7,33.9,183.1,33.3L183.1,33.3z"/>
		</g>
		<g>
			<path class="st2" d="M171.8,58.7c-3.2-8.9-8-17.1-14.6-23.9c-3.3-3.4-7-6.4-11.1-8.9c-4.5-2.7-9.4-4.7-14.4-6.2
				c-2.8-0.9-5.7-1.6-8.6-2.3c-2.9-0.7-5.8-1.3-8.8-1.6c-0.8-0.1-0.9,1.1-0.2,1.3c2.5,0.6,5.1,1.1,7.6,1.6c2.5,0.5,5,1.2,7.5,1.9
				c4.9,1.4,9.8,3.2,14.3,5.7c8.2,4.5,14.9,11.1,20,18.8c2.9,4.4,5.4,9.1,7.4,13.9C171.3,59.3,172,59.1,171.8,58.7L171.8,58.7z"/>
		</g>
		<g>
			<path class="st2" d="M171.7,58.9c-3.5-3.3-8.4-4.6-12.7-6.6c-4.3-2-8.4-4.2-12.4-6.7c-8-5-15.4-10.9-21.9-17.6
				c-3.7-3.8-7.1-7.9-10.2-12.1c-0.5-0.7-1.7,0-1.2,0.7c5.5,7.7,12.1,14.6,19.3,20.7c7.2,6,15.2,11.1,23.7,15.1
				c2.4,1.1,4.9,2.1,7.4,3.1c2.6,1,5.3,2.2,7.4,4.1C171.5,59.9,172.1,59.3,171.7,58.9L171.7,58.9z"/>
		</g>
		<g>
			<path class="st2" d="M171.6,58.7c-3.8-7.9-9.8-14.7-16.2-20.7c-3.3-3.1-6.6-6.2-10.2-8.9c-3.8-2.9-8.3-4.7-12.7-6.4
				c-5.2-2-10.5-3.7-15.8-5.1c-0.8-0.2-1.1,1-0.3,1.2c4.7,1.2,9.3,2.6,13.8,4.3c4.4,1.7,9,3.4,12.9,6c1.9,1.3,3.7,2.8,5.5,4.4
				c1.6,1.4,3.3,2.9,4.9,4.4c3.2,2.9,6.3,6,9.1,9.2c3.2,3.7,6.1,7.7,8.3,12C171.2,59.6,171.8,59.2,171.6,58.7L171.6,58.7z"/>
		</g>
		<g>
			<path class="st2" d="M170.5,57.9c-4.3-6.9-10.6-12.2-17.2-16.7c-3.6-2.4-7.2-4.7-10.9-7.1c-4.1-2.7-8.2-5.3-12.4-8
				c-2.3-1.5-4.7-3-7-4.5c-1.2-0.7-2.3-1.5-3.5-2.2c-1.2-0.8-2.4-1.6-3.6-2.2c-0.6-0.3-1.3,0.5-0.7,0.9c1.9,1.5,4.1,2.7,6.1,4
				c2.1,1.3,4.1,2.6,6.2,4c4.1,2.6,8.2,5.2,12.3,7.8c7.1,4.5,14.5,8.9,20.9,14.4c3.4,3,6.6,6.2,9.2,10
				C170.2,58.6,170.7,58.3,170.5,57.9L170.5,57.9z"/>
		</g>
		<g>
			<path class="st2" d="M169.9,57.3c-7.3-5-14.7-9.8-22-14.7c-3.6-2.4-7.1-4.8-10.5-7.4c-3.4-2.6-6.6-5.3-9.8-8.1
				c-3.6-3.1-7-6.4-10.6-9.4c-0.3-0.3-0.8,0.2-0.5,0.5c2.9,3,6.1,5.8,9.3,8.6c3.2,2.8,6.4,5.5,9.7,8.1c6.8,5.4,14.2,10.1,21.5,14.8
				c4.2,2.8,8.4,5.5,12.6,8.2C169.9,58.2,170.2,57.6,169.9,57.3L169.9,57.3z"/>
		</g>
		<g>
			<path class="st2" d="M150.7,4c-9.2,5.7-20.1,7.8-30.6,9.5c-1.5,0.2-3,0.5-4.5,0.7c-1.5,0.3-3,0.5-4.5,0.9c-0.5,0.1-0.4,1,0.1,1
				c2.7-0.2,5.4-0.8,8-1.2c2.7-0.5,5.4-0.9,8.1-1.5c5.4-1.1,10.7-2.4,15.8-4.5c2.8-1.1,5.5-2.5,8-4.1C151.7,4.5,151.2,3.7,150.7,4
				L150.7,4z"/>
		</g>
		<g>
			<path class="st2" d="M151.2,3.7C140,2.3,129-0.1,117.8,0c-10.1,0.1-20.5,2.2-28.9,8.1c-4.2,3-7.9,6.8-10.3,11.3
				c-0.5,0.8,0.8,1.6,1.3,0.7c4.4-8,12.3-13.4,20.9-16.1c10.3-3.2,21.4-2.9,32.1-1.7c6.2,0.7,12.3,1.7,18.4,2.4
				C151.9,4.8,151.8,3.8,151.2,3.7L151.2,3.7z"/>
		</g>
		<g>
			<path class="st2" d="M110,15.8c-7.8,2-16,3.3-24.1,3.6c-1.1,0-2.3,0-3.4,0.1c-1.1,0-2.3-0.1-3.4,0.2c-0.4,0.1-0.4,0.7,0,0.9
				c0.9,0.3,2,0.2,3,0.2c1,0,2-0.1,3-0.1c2-0.1,4.1-0.3,6.1-0.5c4-0.4,8.1-1.1,12-1.9c2.3-0.5,4.5-1.1,6.8-1.7
				C110.6,16.4,110.4,15.7,110,15.8L110,15.8z"/>
		</g>
		<g>
			<path class="st2" d="M80.7,20c2.4-0.6,4.7-1.2,7-1.8c2.3-0.5,4.5-0.9,6.8-1.4c4.5-0.9,9-1.8,13.4-2.7c9.3-1.9,18.5-4,27.8-5.9
				c2.6-0.6,5.2-1.1,7.8-1.6c2.6-0.5,5.3-1,7.9-1.6c0.6-0.2,0.3-1-0.3-0.9c-2.3,0.3-4.6,0.9-6.9,1.4c-2.3,0.5-4.7,1-7,1.5
				c-4.6,1-9.3,2-13.9,3c-9.1,2-18.2,3.9-27.3,5.7c-2.5,0.5-5,0.9-7.5,1.5c-2.7,0.6-5.3,1.4-8,2C80,19.4,80.2,20.2,80.7,20L80.7,20z
				"/>
		</g>
		<g>
			<path class="st2" d="M149.3,4c-9.6,1.4-19.4,0.5-29.1,1.7c-9.1,1.2-17.9,3.6-26.5,6.8c-2.4,0.9-4.7,1.9-7.1,2.9
				c-2.3,1-4.7,2-6.8,3.4c-0.3,0.2-0.1,0.7,0.3,0.6c2.1-0.7,4-1.8,6-2.7c2.1-0.9,4.2-1.8,6.4-2.6c4.3-1.7,8.7-3.1,13.1-4.3
				c4.4-1.2,8.8-2.1,13.3-2.8c4.6-0.7,9.3-1,14-1.1c5.6-0.1,11.1-0.2,16.6-1.1C150.1,4.7,149.8,3.9,149.3,4L149.3,4z"/>
		</g>
		<g>
			<path class="st2" d="M150.8,4.7c-4.1-0.6-8.4-0.7-12.5-1c-2.5-0.2-4.9-0.6-7.4-0.9c-2.7-0.3-5.4-0.4-8.1-0.3
				c-10.5,0.2-20.8,2.8-30.4,7c-1.3,0.6-2.7,1.2-4,1.9c-1.3,0.6-2.5,1.3-3.6,2.2c-1,0.8-1.8,1.8-2.6,2.8c-0.9,1-1.8,1.9-2.9,2.7
				c-0.2,0.1-0.1,0.6,0.2,0.4c2-0.8,3.2-2.8,4.7-4.2c1.8-1.8,4.2-2.9,6.5-3.9c4.8-2.2,9.7-4,14.8-5.3c5.1-1.3,10.2-2.3,15.4-2.5
				c2.6-0.1,5.2-0.1,7.8,0c2.7,0.2,5.4,0.6,8.1,0.9c4.6,0.5,9.2,0.2,13.8,0.8C151,5.2,151.1,4.8,150.8,4.7L150.8,4.7z"/>
		</g>
		<g>
			<path class="st2" d="M101.9,51c-4.2-7.1-10.6-12.8-17.8-16.6c-8-4.2-17.1-5.8-26.1-6c-2.6-0.1-5.3,0-7.9,0.2
				c-2.5,0.2-5.4,0.1-7.6,1.4c-0.5,0.3-0.2,1,0.4,0.9c2.2-0.4,4.5-0.7,6.7-0.8c2.2-0.1,4.5-0.2,6.8-0.2c4.5,0,9.1,0.4,13.6,1.3
				c4.2,0.8,8.3,2,12.2,3.8c3.6,1.7,7.1,3.9,10.1,6.5c3.5,2.9,6.6,6.2,9,9.9C101.5,51.8,102.2,51.4,101.9,51L101.9,51z"/>
		</g>
		<g>
			<path class="st2" d="M101.6,50.5c-8-1.2-16.1-2.6-23.9-4.8c-7.4-2.1-14.5-4.9-21.1-8.9c-1.8-1.1-3.6-2.2-5.3-3.5
				c-0.9-0.6-1.7-1.3-2.6-2c-0.8-0.7-1.6-1.4-2.5-1.9c-0.6-0.4-1.1,0.4-0.7,0.9c1.2,1.5,2.8,2.7,4.4,3.8c1.5,1.1,3.1,2.2,4.7,3.2
				c3.3,2,6.7,3.8,10.2,5.3c7.4,3.2,15.1,5.3,23,6.8c4.6,0.9,9.1,1.5,13.7,2.1C102,51.6,102.2,50.6,101.6,50.5L101.6,50.5z"/>
		</g>
		<g>
			<path class="st2" d="M101.3,50.5c-5.2-5.2-11.5-9.3-18.2-12.4c-7.3-3.3-15-5.5-22.8-7c-2.3-0.4-4.6-0.8-6.8-1.1
				c-1.2-0.2-2.3-0.3-3.5-0.5c-1.2-0.1-2.4-0.4-3.6-0.3c-0.6,0-0.7,0.9-0.1,1c1,0.3,2,0.3,3,0.4c1.1,0.1,2.1,0.3,3.2,0.4
				c2,0.3,4,0.6,6,1c4,0.7,8,1.5,12,2.6c7.2,2,14.3,4.8,20.6,8.8c3.5,2.2,6.8,4.7,9.8,7.5C101.2,51.3,101.6,50.8,101.3,50.5
				L101.3,50.5z"/>
		</g>
		<g>
			<path class="st2" d="M100.8,50.3c-3.3-2-6.8-3.8-10.3-5.3c-3.4-1.5-6.9-2.9-10.4-4.2c-7-2.6-14.2-4.8-21.4-7.1
				c-2.1-0.7-4.1-1.3-6.2-2c-2.1-0.7-4.1-1.5-6.2-2.1c-0.6-0.2-1,0.7-0.4,1c1.7,0.8,3.6,1.3,5.4,2c1.8,0.6,3.6,1.2,5.4,1.8
				c3.6,1.2,7.2,2.3,10.9,3.5c7.1,2.3,14.3,4.7,21.2,7.7c3.9,1.7,7.8,3.5,11.6,5.4C100.8,51,101.1,50.5,100.8,50.3L100.8,50.3z"/>
		</g>
		<g>
			<path class="st2" d="M100.5,50.3c-3.8-1.6-7.9-2.5-11.9-3.6c-4.1-1.1-8.2-2.3-12.4-3.4c-6.8-1.9-13.3-4.6-19.4-8
				c-1.7-0.9-3.4-1.9-5.1-3c-1.5-1-3-2.1-4.5-3.1c-0.4-0.3-0.9,0.3-0.5,0.7c1.1,1.1,2.5,2,3.8,2.9c1.5,1,3,1.9,4.5,2.8
				c3.2,1.8,6.4,3.4,9.8,4.9c3.1,1.3,6.3,2.5,9.6,3.4c4.1,1.1,8.2,2.2,12.3,3.3c2.3,0.6,4.6,1.2,6.9,1.9c2.3,0.6,4.5,1.2,6.7,2.1
				C100.8,51.4,101,50.5,100.5,50.3L100.5,50.3z"/>
		</g>
		<g>
			<path class="st2" d="M222.8,34.1c-9.3,1.2-18.7,0.1-27.8-2.3c-4.5-1.2-8.8-2.7-13.2-4.3c-4.3-1.6-8.5-3.5-12.8-5.1
				c-2.4-0.9-4.8-1.7-7.3-2.1c-1.2-0.2-2.3-0.3-3.5-0.2c-1.2,0-2.5,0.1-3.5,0.7c-0.3,0.2-0.2,0.7,0.2,0.7c1.1,0,2.1-0.2,3.2-0.3
				c1.1,0,2.2,0,3.3,0.2c2.2,0.4,4.4,1,6.5,1.8c4.3,1.6,8.4,3.5,12.7,5.1c8.6,3.3,17.5,5.9,26.7,6.9c5.2,0.5,10.4,0.5,15.6-0.4
				C223.4,34.9,223.3,34.1,222.8,34.1L222.8,34.1z"/>
		</g>
		<g>
			<path class="st2" d="M223.1,34.1c-4-1.8-7.4-4.4-11.1-6.8c-3.8-2.4-7.7-4.2-12-5.3c-4.5-1.2-9.1-2-13.7-2.6
				c-4.7-0.5-9.5-0.8-14.2-0.7c-2.7,0.1-5.4,0.2-8.1,0.5c-2.6,0.3-5.3,0.6-7.9,1.3c-0.5,0.1-0.4,1,0.1,0.9c2.3-0.2,4.6-0.5,6.9-0.8
				c2.4-0.2,4.7-0.4,7.1-0.5c4.7-0.2,9.3-0.1,14,0.3c4.6,0.4,9.3,1.1,13.8,2.3c4.3,1,8.4,2.6,12.2,4.8c4.1,2.4,8,5.4,12.5,7.3
				C223.2,35.2,223.6,34.4,223.1,34.1L223.1,34.1z"/>
		</g>
		<g>
			<path class="st2" d="M222.4,34.1c-8.7-2.9-17.3-5.8-26.1-8.3c-8.1-2.3-16.4-4.3-24.8-5.2c-1.9-0.2-3.8-0.4-5.7-0.5
				c-0.9,0-1.8-0.1-2.8-0.1c-0.8,0-1.6,0-2.3,0.3c-0.4,0.2-0.3,0.7,0.1,0.8c1.4,0.2,2.9,0,4.3,0c1.7,0,3.5,0.1,5.2,0.3
				c3.8,0.4,7.5,1,11.2,1.8c8.8,1.8,17.5,4.2,26.1,7c4.9,1.5,9.7,3.2,14.5,4.8C222.6,35.1,222.8,34.3,222.4,34.1L222.4,34.1z"/>
		</g>
		<g>
			<path class="st2" d="M222,34.2c-4.5-0.3-9-0.6-13.5-1.3c-4.4-0.7-8.7-1.6-13-2.8c-4.3-1.2-8.5-2.6-12.6-4.3
				c-3.4-1.4-6.8-2.6-10.3-3.6c-2-0.6-4.1-1.1-6.2-1.5c-1.9-0.4-3.8-0.7-5.7-0.7c-0.6,0-0.6,0.9,0,1c7.1,0.6,14.1,2.6,20.7,5.3
				c8.2,3.4,16.9,5.9,25.7,7.3c2.4,0.4,4.8,0.7,7.3,0.9c2.5,0.2,5.1,0.4,7.6,0.4C222.5,35,222.5,34.2,222,34.2L222,34.2z"/>
		</g>
		<g>
			<g>
				<path class="st1" d="M240.6,108.4c4.9,1,9.2,4.2,11.1,9c1,2.6,1.3,5.4,0.9,8.1c-0.3,2.9-1.5,5.6-2.8,8.1
					c-0.7,1.4-1.6,2.8-2.5,4.2c-0.9,1.4-2,2.6-2.8,4c-0.2,0.4,0.3,0.7,0.6,0.4c1.1-1,2-2.3,2.9-3.6c0.9-1.3,1.8-2.6,2.6-4
					c1.5-2.6,2.8-5.5,3.3-8.5c0.9-5.6-0.7-11.6-5-15.4c-2.2-1.9-5.1-3.3-8-3.3C240.2,107.5,240.1,108.3,240.6,108.4L240.6,108.4z"/>
			</g>
			<g>
				<path class="st1" d="M244.9,141.6C244.9,141.6,244.9,141.6,244.9,141.6C244.9,141.6,244.9,141.6,244.9,141.6
					c0,0-0.1-0.2-0.1-0.3c0,0,0,0.1,0,0.1c0-0.1,0-0.1-0.1-0.2c0,0,0-0.1,0-0.1c0,0,0,0,0,0c0-0.1-0.1-0.1-0.1-0.2
					c0,0,0,0.1,0.1,0.1c0,0-0.1-0.1-0.1-0.1c0,0,0,0,0,0c0,0,0,0.1,0,0c0,0,0,0,0,0c0,0,0,0.1,0,0c0-0.1-0.1-0.2-0.2-0.2
					c-0.1,0-0.2,0-0.3,0.1c-0.1,0.1-0.1,0.2-0.2,0.3c0,0.1,0,0.2,0,0.3c0,0.1,0,0.1,0,0.2c0.1,0.2,0.2,0.5,0.4,0.7
					c0.1,0.1,0.2,0.1,0.3,0.1c0.1,0,0.2,0,0.3-0.1C245,142,245,141.7,244.9,141.6L244.9,141.6z"/>
			</g>
			<g>
				<path class="st1" d="M243.4,141c-0.3,0.7-0.9,1.2-1.4,1.8c-0.6,0.5-1.4,1.2-1.3,2.1c0,0.3,0.3,0.4,0.5,0.2
					c0.4-0.3,0.5-0.6,0.8-0.9c0.2-0.3,0.5-0.6,0.8-0.9c0.6-0.6,1.1-1.3,1.4-2.1c0.1-0.2-0.1-0.4-0.3-0.5
					C243.7,140.7,243.5,140.8,243.4,141L243.4,141z"/>
			</g>
			<g>
				<path class="st1" d="M241.3,144.4c-0.4-0.1-0.6-0.2-1-0.4c-0.2-0.1-0.3-0.2-0.4-0.3c-0.2-0.1-0.3-0.2-0.4-0.3
					c-0.3-0.2-0.5-0.5-0.8-0.8c-0.1-0.1-0.1-0.1-0.1-0.1c-0.1-0.1-0.1-0.2-0.2-0.3c-0.1-0.1-0.3-0.3-0.5-0.3c-0.1,0-0.2,0-0.3,0.1
					c-0.2,0.4,0.1,0.9,0.3,1.2c0.3,0.3,0.5,0.6,0.9,0.9c0.7,0.5,1.4,0.9,2.2,1.1c0.2,0,0.5-0.1,0.5-0.3
					C241.6,144.7,241.5,144.5,241.3,144.4L241.3,144.4z"/>
			</g>
			<g>
				<path class="st1" d="M237.3,142.4c0,0.2,0,0.3,0,0.5c0,0,0-0.1,0-0.1c0,0.2-0.1,0.4-0.2,0.6c0,0,0-0.1,0.1-0.1c0,0,0,0,0,0
					c0,0.1-0.1,0.2-0.1,0.3c0,0,0,0.1,0,0.1c0,0.2,0.2,0.3,0.3,0.3c0.1,0.1,0.3,0.1,0.4,0c0.1,0,0.1-0.1,0.2-0.1
					c0.1-0.1,0.1-0.1,0.1-0.2c0.2-0.4,0.2-0.8,0.2-1.2c0-0.1,0-0.2-0.1-0.3c-0.1-0.1-0.2-0.1-0.3-0.1c-0.1,0-0.3,0-0.3,0.1
					C237.4,142.1,237.3,142.2,237.3,142.4L237.3,142.4z"/>
			</g>
			<g>
				<path class="st1" d="M238,143.4c-3.3-4.8-8.3-8.1-11.6-12.9c-1.6-2.3-2.7-4.9-2.7-7.7c-0.1-2.9,0.8-5.5,2.2-7.9
					c1.4-2.5,3.3-4.7,5.8-6c0.5-0.2,0.1-1-0.4-0.9c-2.5,0.8-4.4,2.9-5.8,5.1c-1.6,2.4-2.8,5-3.1,7.8c-0.3,3,0.3,5.9,1.7,8.6
					c1.4,2.6,3.4,4.8,5.5,6.8c2.6,2.5,5.3,4.8,7.4,7.7C237.5,144.4,238.4,143.9,238,143.4L238,143.4z"/>
			</g>
			<g>
				<path class="st1" d="M244.3,141.1c2.2-4.8,4.3-10,4.1-15.3c-0.2-4.4-1.5-8.8-4-12.5c-0.7-1-1.5-2-2.4-2.9
					c-0.5-0.5-1-0.9-1.5-1.3c-0.5-0.4-0.9-0.9-1.6-0.8c-0.2,0-0.3,0.2-0.3,0.4c0.1,0.5,0.5,0.8,0.9,1.1c0.4,0.3,0.8,0.7,1.2,1.1
					c0.8,0.8,1.5,1.6,2.2,2.6c1.2,1.7,2.2,3.7,2.9,5.7c1.4,4.1,1.6,8.5,0.6,12.8c-0.7,3.1-1.9,6-2.9,9
					C243.5,141.1,244.1,141.4,244.3,141.1L244.3,141.1z"/>
			</g>
			<g>
				<path class="st1" d="M238.4,142.5c-2.2-4-5.6-6.8-8.8-9.9c-2.1-2.1-3.6-4.6-4.5-7.4c-0.7-2.5-0.8-5.1-0.9-7.7
					c0-0.4-0.5-0.3-0.5,0c-0.5,4,0.2,8.4,2.1,11.9c1.5,2.7,3.9,4.6,6.1,6.7c2.2,2,4.2,4.2,5.7,6.9
					C237.9,143.5,238.7,143,238.4,142.5L238.4,142.5z"/>
			</g>
			<g>
				<path class="st1" d="M238.2,109.4c1.5,2.3,3,4.6,4.2,7c1.2,2.6,1.9,5.3,2.3,8.1c0,0.3,0.5,0.3,0.5,0c0.3-2.8-0.5-5.6-1.7-8.2
					c-1.2-2.6-2.8-5-4.5-7.4C238.7,108.5,237.9,109,238.2,109.4L238.2,109.4z"/>
			</g>
			<g>
				<path class="st1" d="M250.3,123.2c-0.5-3.1-1.7-6.1-3.5-8.8c-0.9-1.4-2-2.7-3.3-3.9c-0.6-0.5-1.3-1-2-1.5
					c-0.7-0.4-1.5-0.9-2.3-1.1c-0.3,0-0.5,0.3-0.2,0.5c0.7,0.5,1.4,0.7,2.1,1.2c0.7,0.5,1.4,1,2,1.6c1.2,1.1,2.2,2.4,3.1,3.8
					c1.6,2.5,2.9,5.4,3.5,8.3C249.9,123.7,250.4,123.6,250.3,123.2L250.3,123.2z"/>
			</g>
			<g>
				<path class="st1" d="M252,120.2c-0.5-3.1-2.3-5.9-4.4-8.1c-1.1-1.1-2.4-2.1-3.7-3c-0.7-0.4-1.4-0.8-2.2-1.1
					c-0.7-0.3-1.4-0.5-2.2-0.4c-0.4,0.1-0.5,0.6-0.2,0.9c0.5,0.5,1.2,0.7,1.8,1c0.6,0.3,1.3,0.6,1.9,1c1.3,0.8,2.5,1.7,3.6,2.7
					c2.1,2,3.8,4.5,4.4,7.3C251.1,121.2,252.1,120.9,252,120.2L252,120.2z"/>
			</g>
			<g>
				<path class="st1" d="M241.8,132.2c0.3-2.1,0.3-4.1-0.1-6.2c-0.4-2.1-1-4.1-1.7-6.1c-0.7-1.9-1.3-3.7-2-5.6
					c-0.3-1-0.6-1.9-0.9-2.9c-0.2-0.7-0.2-1.8-0.8-2.3c-0.1-0.1-0.3,0-0.3,0.1c-0.4,0.7,0.1,1.8,0.3,2.4c0.2,0.9,0.5,1.8,0.8,2.7
					c0.6,1.9,1.3,3.7,1.9,5.6c1.4,3.9,2.8,8.1,2.5,12.3C241.4,132.4,241.8,132.4,241.8,132.2L241.8,132.2z"/>
			</g>
			<g>
				<path class="st1" d="M238.9,129.5c0-3.1-0.8-6.1-1.7-9.1c-0.4-1.5-0.8-3-1.1-4.5c-0.2-0.8-0.3-1.6-0.3-2.4
					c-0.1-0.7,0-1.5-0.1-2.2c-0.1-0.3-0.4-0.2-0.5,0c-0.2,0.7-0.2,1.5-0.2,2.2c0,0.7,0.1,1.5,0.2,2.2c0.2,1.5,0.6,3,1.1,4.5
					c0.9,3,1.9,6.1,2,9.3C238.3,129.9,238.9,129.9,238.9,129.5L238.9,129.5z"/>
			</g>
			<g>
				<path class="st1" d="M236.7,136.1c-0.4-4.6-2.2-8.8-3.1-13.3c-0.4-2-0.7-4.2-0.6-6.3c0-1.1,0.1-2.1,0.2-3.2
					c0.1-0.9,0.5-1.9,0.5-2.8c0-0.4-0.5-0.5-0.7-0.2c-0.6,0.8-0.7,2-0.9,2.9c-0.2,1-0.2,2-0.3,3c0,2.1,0.2,4.2,0.7,6.3
					c1,4.6,3,8.9,3.7,13.6C236.3,136.4,236.7,136.3,236.7,136.1L236.7,136.1z"/>
			</g>
			<g>
				<path class="st1" d="M232.1,126.7c-0.9-3.2-1.8-6.4-1.7-9.7c0-1.4,0.3-2.7,0.8-4c0.2-0.7,0.6-1.3,0.9-1.9
					c0.4-0.6,0.9-1.1,1.3-1.6c0.2-0.2-0.2-0.5-0.4-0.4c-1.1,0.7-1.8,2.1-2.3,3.3c-0.6,1.3-0.9,2.8-1,4.2c-0.3,3.5,0.8,7,1.8,10.3
					C231.6,127.2,232.2,127.1,232.1,126.7L232.1,126.7z"/>
			</g>
			<g>
				<path class="st1" d="M227.8,125.8c-1.5-3.3-1.8-7.5,0.1-10.7c1.5-2.6,3.7-4.8,5.8-7c0.2-0.2-0.1-0.6-0.3-0.4
					c-1.3,0.9-2.3,2-3.4,3.2c-1.1,1.3-2.2,2.7-3,4.2c-1.8,3.4-1.3,7.7,0.3,11C227.4,126.4,227.9,126.1,227.8,125.8L227.8,125.8z"/>
			</g>
			<g>
				<path class="st2" d="M227.9,108.6c0.6,0.4,1.3,0.5,2,0.4c0.7-0.1,1.3-0.5,1.9-0.8c0.7-0.4,1.5-0.9,2.3-0.9l0-0.1
					c-0.7,0.8-0.8,2-0.5,3.1c0.2,1,0.8,2,1.3,2.9l0.1,0.3c-0.3-1.2-0.2-2.6,0.4-3.7c0.1-0.3,0.3-0.6,0.4-0.9c0.1-0.3,0.1-0.7,0-1
					l0.2,0c0.2,0.9,0.6,1.8,1.2,2.5c0.6,0.7,1.3,1.4,2,2l-0.1,0.2c-0.1-0.4,0-1-0.1-1.4c-0.3-1.1-0.6-2.8-1.5-3.5l-0.2-0.1
					c1,0.6,2.3,0.6,3.4,0.1c1-0.5,1.8-1.6,2-2.8l-0.2,0.1c-0.7,1-2,1.5-3.2,1.4c-1.3-0.2-2.4-1.1-3.7-1.3c-0.2,0-0.3,0-0.5,0.1
					l-0.2,0.2c-0.3-0.2-0.7-0.2-1.1-0.2c-1.1,0.1-2,1.1-2.8,1.9c-0.8,0.8-1.8,1.7-2.9,1.6"/>
				<g>
					<path class="st2" d="M227.8,108.8c0.9,0.6,1.9,0.6,2.9,0.2c1.2-0.4,2.2-1.4,3.5-1.5c0.2,0,0.3-0.2,0.2-0.3c0,0,0,0,0-0.1
						c-0.1-0.1-0.3-0.1-0.4,0c-0.7,0.9-0.8,2.1-0.6,3.2c0.3,1.2,1,2.1,1.5,3.2c0.1,0.2,0.5,0.1,0.4-0.2c-0.3-1.1-0.2-2.2,0.2-3.2
						c0.3-0.8,0.9-1.5,0.6-2.4c-0.1,0.1-0.1,0.2-0.2,0.3c0.1,0,0.1,0,0.2,0c-0.1-0.1-0.1-0.1-0.2-0.2c0.2,0.9,0.6,1.8,1.2,2.5
						c0.3,0.4,0.7,0.8,1.1,1.2c0.2,0.2,0.4,0.4,0.6,0.6c0.2,0.1,0.3,0.1,0.2,0.3c0.1,0,0.3,0,0.4,0.1c0-0.5,0-0.9-0.1-1.4
						c-0.1-0.5-0.2-1-0.4-1.6c-0.3-0.8-0.6-1.6-1.3-2.2c-0.1,0.1-0.2,0.2-0.3,0.4c2.4,1.3,5.2-0.1,5.7-2.8c0-0.2-0.2-0.4-0.4-0.3
						c-0.2,0.1-0.3,0.3-0.5,0.5c-0.3,0.3-0.7,0.5-1.1,0.7c-0.9,0.4-1.7,0.3-2.6,0c-0.9-0.4-2.8-1.7-3.7-0.7c0.1,0,0.2,0,0.3,0
						c-1.1-0.5-2.2,0-3.1,0.7c-1.2,1-2.1,2.5-3.8,2.6c-0.2,0-0.3,0.3,0,0.4c1.2,0.2,2.2-0.6,3-1.4c0.9-0.9,2.2-2.5,3.7-1.8
						c0.1,0,0.2,0,0.3,0c0.5-0.5,1.8,0.2,2.3,0.5c0.7,0.3,1.3,0.6,2.1,0.7c0.7,0.1,1.3-0.1,1.9-0.4c0.3-0.1,0.6-0.3,0.8-0.5
						c0.2-0.2,0.4-0.5,0.6-0.6c-0.1-0.1-0.2-0.2-0.4-0.3c-0.4,2.3-2.8,3.7-5,2.5c-0.3-0.1-0.4,0.2-0.2,0.4c0.7,0.5,1,1.4,1.2,2.2
						c0.1,0.4,0.2,0.8,0.3,1.1c0.1,0.5,0,1,0.1,1.4c0,0.2,0.4,0.3,0.4,0.1c0-0.1,0-0.1,0.1-0.2c0-0.1,0-0.2-0.1-0.2
						c-1.4-1.2-2.7-2.5-3.1-4.4c0-0.1-0.1-0.2-0.2-0.2c-0.1,0-0.1,0-0.2,0c-0.1,0-0.3,0.1-0.2,0.3c0.2,0.7-0.1,1.2-0.4,1.7
						c-0.2,0.4-0.3,0.8-0.4,1.3c-0.2,0.9-0.2,1.8,0,2.7c0.1-0.1,0.3-0.1,0.4-0.2c-0.4-0.9-1-1.7-1.3-2.7c-0.3-1.1-0.3-2.3,0.4-3.3
						c-0.1,0-0.2,0-0.4,0c0,0,0,0,0,0.1c0.1-0.1,0.1-0.2,0.2-0.3c-2.1,0.1-4,2.8-6.1,1.4C227.8,108.3,227.6,108.7,227.8,108.8
						L227.8,108.8z"/>
				</g>
			</g>
		</g>
	</g>
	<g>
		<g>
			<path class="st2" d="M46.5,154.2c-2.8,11.3-1.8,23.2,1.4,34.3c1.5,5.3,3.6,10.4,6.4,15.1c2.7,4.6,6,8.8,9.7,12.6
				c2.1,2.1,4.2,4.1,6.5,6c2.3,1.9,4.7,3.8,7.4,5.2c0.8,0.4,1.3-0.6,0.7-1.2c-2.1-1.6-4.2-3-6.3-4.6c-2-1.6-3.9-3.3-5.8-5.1
				c-3.7-3.6-7-7.6-9.8-12c-5.9-9.2-9.2-20.2-10.3-31c-0.6-6.3-0.4-12.8,0.9-19.1C47.4,153.9,46.6,153.7,46.5,154.2L46.5,154.2z"/>
		</g>
		<g>
			<path class="st2" d="M46.7,154.7c7.3,7.2,13.5,15.4,18.1,24.6c2.3,4.6,4.1,9.3,5.5,14.3c1.4,5.1,2.1,10.4,2.9,15.7
				c0.4,3.1,0.9,6.1,1.6,9.1c0.7,3,1.6,5.9,3.1,8.6c0.2,0.4,0.9,0.1,0.7-0.3c-1-2.6-1.9-5.2-2.5-7.9c-0.6-2.7-1.1-5.5-1.5-8.2
				c-0.8-5.3-1.4-10.7-2.7-16c-2.6-10-7.2-19.4-13.1-27.7c-3.4-4.7-7.2-9-11.5-12.8C46.9,153.7,46.2,154.3,46.7,154.7L46.7,154.7z"
				/>
		</g>
		<g>
			<path class="st2" d="M46.8,155.3c1.4,5.6-0.2,11.4,0.4,17.1c0.6,5.4,2.6,10.5,4.5,15.5c3.7,9.3,8.2,18.3,14.2,26.3
				c1.6,2.2,3.4,4.3,5.2,6.2c1.9,2,3.7,4.1,6,5.8c0.2,0.1,0.3-0.1,0.2-0.3c-1.7-1.8-3.5-3.5-5.2-5.3c-1.7-1.8-3.2-3.8-4.7-5.8
				c-2.9-3.9-5.6-8.1-7.9-12.4c-2.4-4.4-4.5-8.9-6.4-13.6c-1.9-4.9-3.8-9.9-4.7-15c-1.1-6.2,0.7-12.6-0.9-18.8
				C47.5,154.5,46.7,154.7,46.8,155.3L46.8,155.3z"/>
		</g>
		<g>
			<path class="st2" d="M47.6,155.9c1.9,9.6,4.7,19,8.3,28c1.7,4.5,3.7,9,5.8,13.3c2.1,4.4,4.5,8.7,6.9,12.9
				c2.7,4.8,5.5,9.7,7.5,14.9c0.1,0.3,0.6,0.2,0.5-0.1c-1.6-4.6-3.7-8.9-6.1-13.2c-2.4-4.3-4.8-8.5-7-12.9
				c-4.4-8.8-8-17.9-10.9-27.2c-1.6-5.2-3-10.6-4.2-15.9C48.2,155.2,47.6,155.4,47.6,155.9L47.6,155.9z"/>
		</g>
		<g>
			<path class="st2" d="M47.1,155.5c2.3,3.9,4.6,7.9,6.7,11.9c2.1,4,4.3,8,6.3,12.1c3.9,8.3,7.3,16.7,10.5,25.3
				c0.9,2.4,1.7,4.7,2.5,7.1c0.4,1.2,0.8,2.5,1.2,3.7c0.4,1.2,0.7,2.4,1.2,3.5c0.1,0.2,0.3,0,0.3-0.1c-0.2-1.1-0.6-2.2-0.9-3.3
				c-0.3-1.1-0.7-2.2-1-3.3c-0.7-2.2-1.3-4.4-2.1-6.5c-1.5-4.3-3.1-8.5-4.9-12.7c-1.7-4.2-3.5-8.3-5.4-12.4c-1.9-4.1-3.8-8.3-6-12.3
				c-2.4-4.6-5-9-7.7-13.4C47.6,154.5,46.8,155,47.1,155.5L47.1,155.5z"/>
		</g>
		<g>
			<path class="st2" d="M50.6,193.9c-2.3-4-4.7-8-7.9-11.3c-2.6-2.7-5.7-4.9-9-6.7c-6.7-3.7-14.2-6-21.2-9c-2-0.9-4-1.8-5.9-2.8
				c-1.9-1-3.7-2.2-5.5-3.3c-0.4-0.2-0.8,0.3-0.5,0.6c2.7,2.6,6.2,4.4,9.6,5.9c3.5,1.6,7.1,3,10.6,4.3c7,2.7,14.2,5.6,19.9,10.7
				c3.8,3.4,6.6,7.8,9.3,12C50.2,194.7,50.9,194.3,50.6,193.9L50.6,193.9z"/>
		</g>
		<g>
			<path class="st2" d="M0.1,160.7c3.1,5.5,6.3,10.9,9.6,16.3c2.9,4.8,6,9.3,10,13.2c7.4,7.4,16.5,12.6,26.1,16.6
				c2.6,1.1,5.2,2,7.8,2.8c2.6,0.8,5.1,1.8,7.5,3.2c0.5,0.3,1-0.4,0.6-0.8c-1.8-1.5-4.1-2.3-6.3-3.1c-2.3-0.8-4.5-1.6-6.8-2.5
				c-4.8-1.9-9.5-4.1-14-6.7c-4.5-2.6-8.7-5.6-12.5-9.1c-4-3.7-7.4-8-10.3-12.6c-3.7-5.9-7.2-11.9-10.9-17.8
				C0.5,159.7-0.2,160.2,0.1,160.7L0.1,160.7z"/>
		</g>
		<g>
			<path class="st2" d="M0.1,160.9c6.8,7.9,12.9,16.3,20.2,23.8c3.5,3.6,7.3,7,11.4,9.8c4.2,2.9,8.7,5.5,13.2,8.1
				c4.9,2.9,9.8,5.8,14.6,8.9c0.4,0.2,0.9-0.3,0.5-0.6c-3.9-3.1-8.3-5.7-12.6-8.2c-4.5-2.6-9-5.1-13.4-8c-4.2-2.8-8-5.9-11.6-9.4
				c-3.7-3.7-7.1-7.6-10.4-11.6c-3.7-4.5-7.3-9.1-11.2-13.5C0.4,159.8-0.3,160.4,0.1,160.9L0.1,160.9z"/>
		</g>
		<g>
			<path class="st2" d="M0.4,160.8c7,7.4,14.3,14.8,22.5,20.9c4.2,3,8.7,5.7,12.9,8.7c4.1,3,8.1,6.1,11.9,9.5
				c2.1,1.9,4.2,3.7,6.2,5.7c2,2,3.7,4,5.6,6.1c0.3,0.4,0.9-0.2,0.6-0.6c-1.5-1.9-3.2-3.6-4.8-5.3c-1.8-1.8-3.6-3.6-5.5-5.3
				c-3.7-3.4-7.6-6.6-11.7-9.6c-4.1-3.1-8.5-5.8-12.7-8.7c-4.2-2.9-8.2-6.2-12-9.7C9.1,168.6,5,164.4,1,160.2
				C0.6,159.8,0,160.4,0.4,160.8L0.4,160.8z"/>
		</g>
		<g>
			<path class="st2" d="M0.4,160.8c6.2,5.9,13.5,10.8,21.1,14.7c2.2,1.1,4.3,2.2,6.4,3.4c2,1.2,3.8,2.6,5.6,4
				c3.5,2.9,6.7,6.3,9.9,9.7c1.9,2.1,3.9,4.1,5.9,6.1c1,1,2,2.1,3,3.1c1,1,1.9,2.1,3.1,3c0.2,0.2,0.5-0.1,0.4-0.4
				c-0.7-1-1.6-1.9-2.4-2.8c-0.9-0.9-1.7-1.9-2.6-2.8c-1.7-1.9-3.4-3.8-5.2-5.7c-3.1-3.4-6.4-6.8-9.8-9.9c-1.7-1.5-3.5-2.9-5.3-4.2
				c-2-1.3-4.1-2.5-6.2-3.5c-4-2-7.9-4-11.6-6.5c-4.1-2.7-8-5.6-11.6-8.9C0.6,159.8,0,160.4,0.4,160.8L0.4,160.8z"/>
		</g>
		<g>
			<path class="st1" d="M25.1,155.4c0.5,3.2,1.6,6.1,3.3,8.8c1.7,2.7,3.7,5.2,5.9,7.5c3.7,4,7,8.4,10.1,12.9c0.9,1.3,1.8,2.6,2.6,4
				c0.7,1.2,1.4,2.3,2.2,3.4c0.4,0.5,1.3,0.2,1.1-0.5c-0.6-2.5-2.1-4.8-3.4-6.9c-1.5-2.5-3.2-4.9-5-7.2c-1.6-2.1-3.3-4.2-5.1-6.1
				c-2.1-2.2-4.2-4.4-6-6.9c-2-2.8-3.8-6-4.6-9.4C26.1,154.2,24.9,154.6,25.1,155.4L25.1,155.4z"/>
		</g>
		<g>
			<path class="st1" d="M76.9,226.7c3.5,3.3,7.6,5.8,11.9,7.7c4.5,2,9.2,3.6,13.9,4.9c9.7,2.8,19.6,4.5,29.7,5.2
				c10.1,0.7,20.2,0.4,30.3-0.5c10.1-1,20.1-2.6,30-4.9c9.6-2.3,19.2-5.2,27.7-10.3c1-0.6,2-1.4,2.9-2.1c0.8-0.6-0.2-1.7-1-1.3
				c-4.2,2.3-8.4,4.5-12.9,6.3c-4.5,1.8-9.2,3.2-13.9,4.4c-9.6,2.4-19.3,4.3-29.1,5.4c-9.8,1.2-19.8,1.6-29.7,1.2
				c-9.9-0.4-19.7-1.7-29.3-4.1c-4.8-1.2-9.5-2.6-14.2-4.3c-4.3-1.6-8.7-3.6-12.5-6.2c-1-0.7-1.9-1.4-2.8-2.2
				C77.2,225.2,76.3,226.1,76.9,226.7L76.9,226.7z"/>
		</g>
		<g>
			<path class="st2" d="M88.2,201.3c3.2,8.9,8,17.1,14.6,23.9c3.3,3.4,7,6.4,11.1,8.9c4.5,2.7,9.4,4.7,14.4,6.2
				c2.8,0.9,5.7,1.6,8.6,2.3c2.9,0.7,5.8,1.3,8.8,1.6c0.8,0.1,0.9-1.1,0.2-1.3c-2.5-0.6-5.1-1.1-7.6-1.6c-2.5-0.5-5-1.2-7.5-1.9
				c-4.9-1.4-9.8-3.2-14.3-5.7c-8.2-4.5-14.9-11.1-20-18.8c-2.9-4.4-5.4-9.1-7.4-13.9C88.7,200.7,88,200.9,88.2,201.3L88.2,201.3z"
				/>
		</g>
		<g>
			<path class="st2" d="M88.3,201.1c3.5,3.3,8.4,4.6,12.7,6.6c4.3,2,8.4,4.2,12.4,6.7c8,5,15.4,10.9,21.9,17.6
				c3.7,3.8,7.1,7.9,10.2,12.1c0.5,0.7,1.7,0,1.2-0.7c-5.5-7.7-12.1-14.6-19.3-20.7c-7.2-6-15.2-11.1-23.7-15.1
				c-2.4-1.1-4.9-2.1-7.4-3.1c-2.6-1-5.3-2.2-7.4-4.1C88.5,200.1,87.9,200.7,88.3,201.1L88.3,201.1z"/>
		</g>
		<g>
			<path class="st2" d="M88.4,201.3c3.8,7.9,9.8,14.7,16.2,20.7c3.3,3.1,6.6,6.2,10.2,8.9c3.8,2.9,8.3,4.7,12.7,6.4
				c5.2,2,10.5,3.7,15.8,5.1c0.8,0.2,1.1-1,0.3-1.2c-4.7-1.2-9.3-2.6-13.8-4.3c-4.4-1.7-9-3.4-12.9-6c-1.9-1.3-3.7-2.8-5.5-4.4
				c-1.6-1.4-3.3-2.9-4.9-4.4c-3.2-2.9-6.3-6-9.1-9.2c-3.2-3.7-6.1-7.7-8.3-12C88.8,200.4,88.2,200.8,88.4,201.3L88.4,201.3z"/>
		</g>
		<g>
			<path class="st2" d="M89.5,202.1c4.3,6.9,10.6,12.2,17.2,16.7c3.6,2.4,7.2,4.7,10.9,7.1c4.1,2.7,8.2,5.3,12.4,8
				c2.3,1.5,4.7,3,7,4.5c1.2,0.7,2.3,1.5,3.5,2.2c1.2,0.8,2.4,1.6,3.6,2.2c0.6,0.3,1.3-0.5,0.7-0.9c-1.9-1.5-4.1-2.7-6.1-4
				c-2.1-1.3-4.1-2.6-6.2-4c-4.1-2.6-8.2-5.2-12.3-7.8c-7.1-4.5-14.5-8.9-20.9-14.4c-3.4-3-6.6-6.2-9.2-10
				C89.8,201.4,89.3,201.7,89.5,202.1L89.5,202.1z"/>
		</g>
		<g>
			<path class="st2" d="M90.1,202.7c7.3,5,14.7,9.8,22,14.7c3.6,2.4,7.1,4.8,10.5,7.4c3.4,2.6,6.6,5.3,9.8,8.1
				c3.6,3.1,7,6.4,10.6,9.4c0.3,0.3,0.8-0.2,0.5-0.5c-2.9-3-6.1-5.8-9.3-8.6c-3.2-2.8-6.4-5.5-9.7-8.1c-6.8-5.4-14.2-10.1-21.5-14.8
				c-4.2-2.8-8.4-5.5-12.6-8.2C90.1,201.8,89.8,202.4,90.1,202.7L90.1,202.7z"/>
		</g>
		<g>
			<path class="st2" d="M109.3,256c9.2-5.7,20.1-7.8,30.6-9.5c1.5-0.2,3-0.5,4.5-0.7c1.5-0.3,3-0.5,4.5-0.9c0.5-0.1,0.4-1-0.1-1
				c-2.7,0.2-5.4,0.8-8,1.2c-2.7,0.5-5.4,0.9-8.1,1.5c-5.4,1.1-10.7,2.4-15.8,4.5c-2.8,1.1-5.5,2.5-8,4.1
				C108.3,255.5,108.8,256.3,109.3,256L109.3,256z"/>
		</g>
		<g>
			<path class="st2" d="M108.8,256.3c11.1,1.4,22.1,3.8,33.4,3.7c10.1-0.1,20.5-2.2,28.9-8.1c4.2-3,7.9-6.8,10.3-11.3
				c0.5-0.8-0.8-1.6-1.3-0.7c-4.4,8-12.3,13.4-20.9,16.1c-10.3,3.2-21.4,2.9-32.1,1.7c-6.2-0.7-12.3-1.7-18.4-2.4
				C108.1,255.2,108.2,256.2,108.8,256.3L108.8,256.3z"/>
		</g>
		<g>
			<path class="st2" d="M150,244.2c7.8-2,16-3.3,24.1-3.6c1.1,0,2.3,0,3.4-0.1c1.1,0,2.3,0.1,3.4-0.2c0.4-0.1,0.4-0.7,0-0.9
				c-0.9-0.3-2-0.2-3-0.2c-1,0-2,0.1-3,0.1c-2,0.1-4.1,0.3-6.1,0.5c-4,0.4-8.1,1.1-12,1.9c-2.3,0.5-4.5,1.1-6.8,1.7
				C149.4,243.6,149.6,244.3,150,244.2L150,244.2z"/>
		</g>
		<g>
			<path class="st2" d="M179.3,240c-2.4,0.6-4.7,1.2-7,1.8c-2.3,0.5-4.5,0.9-6.8,1.4c-4.5,0.9-9,1.8-13.4,2.7
				c-9.3,1.9-18.5,4-27.8,5.9c-2.6,0.6-5.2,1.1-7.8,1.6c-2.6,0.5-5.3,1-7.9,1.6c-0.6,0.2-0.3,1,0.3,0.9c2.3-0.3,4.6-0.9,6.9-1.4
				c2.3-0.5,4.7-1,7-1.5c4.6-1,9.3-2,13.9-3c9.1-2,18.2-3.9,27.3-5.7c2.5-0.5,5-0.9,7.5-1.5c2.7-0.6,5.3-1.4,8-2
				C180,240.6,179.8,239.8,179.3,240L179.3,240z"/>
		</g>
		<g>
			<path class="st2" d="M110.7,256c9.6-1.4,19.4-0.5,29.1-1.7c9.1-1.2,17.9-3.6,26.5-6.8c2.4-0.9,4.7-1.9,7.1-2.9
				c2.3-1,4.7-2,6.8-3.4c0.3-0.2,0.1-0.7-0.3-0.6c-2.1,0.7-4,1.8-6,2.7c-2.1,0.9-4.2,1.8-6.4,2.6c-4.3,1.7-8.7,3.1-13.1,4.3
				c-4.4,1.2-8.8,2.1-13.3,2.8c-4.6,0.7-9.3,1-14,1.1c-5.6,0.1-11.1,0.2-16.6,1.1C109.9,255.3,110.2,256.1,110.7,256L110.7,256z"/>
		</g>
		<g>
			<path class="st2" d="M109.2,255.3c4.1,0.6,8.4,0.7,12.5,1c2.5,0.2,4.9,0.6,7.4,0.9c2.7,0.3,5.4,0.4,8.1,0.3
				c10.5-0.2,20.8-2.8,30.4-7c1.3-0.6,2.7-1.2,4-1.9c1.3-0.6,2.5-1.3,3.6-2.2c1-0.8,1.8-1.8,2.6-2.8c0.9-1,1.8-1.9,2.9-2.7
				c0.2-0.1,0.1-0.6-0.2-0.4c-2,0.8-3.2,2.8-4.7,4.2c-1.8,1.8-4.2,2.9-6.5,3.9c-4.8,2.2-9.7,4-14.8,5.3c-5.1,1.3-10.2,2.3-15.4,2.5
				c-2.6,0.1-5.2,0.1-7.8,0c-2.7-0.2-5.4-0.6-8.1-0.9c-4.6-0.5-9.2-0.2-13.8-0.8C109,254.8,108.9,255.2,109.2,255.3L109.2,255.3z"/>
		</g>
		<g>
			<path class="st2" d="M158.1,209c4.2,7.1,10.6,12.8,17.8,16.6c8,4.2,17.1,5.8,26.1,6c2.6,0.1,5.3,0,7.9-0.2
				c2.5-0.2,5.4-0.1,7.6-1.4c0.5-0.3,0.2-1-0.4-0.9c-2.2,0.4-4.5,0.7-6.7,0.8c-2.2,0.1-4.5,0.2-6.8,0.2c-4.5,0-9.1-0.4-13.6-1.3
				c-4.2-0.8-8.3-2-12.2-3.8c-3.6-1.7-7.1-3.9-10.1-6.5c-3.5-2.9-6.6-6.2-9-9.9C158.5,208.2,157.8,208.6,158.1,209L158.1,209z"/>
		</g>
		<g>
			<path class="st2" d="M158.4,209.5c8,1.2,16.1,2.6,23.9,4.8c7.4,2.1,14.5,4.9,21.1,8.9c1.8,1.1,3.6,2.2,5.3,3.5
				c0.9,0.6,1.7,1.3,2.6,2c0.8,0.7,1.6,1.4,2.5,1.9c0.6,0.4,1.1-0.4,0.7-0.9c-1.2-1.5-2.8-2.7-4.4-3.8c-1.5-1.1-3.1-2.2-4.7-3.2
				c-3.3-2-6.7-3.8-10.2-5.3c-7.4-3.2-15.1-5.3-23-6.8c-4.6-0.9-9.1-1.5-13.7-2.1C158,208.4,157.8,209.4,158.4,209.5L158.4,209.5z"
				/>
		</g>
		<g>
			<path class="st2" d="M158.7,209.5c5.2,5.2,11.5,9.3,18.2,12.4c7.3,3.3,15,5.5,22.8,7c2.3,0.4,4.6,0.8,6.8,1.1
				c1.2,0.2,2.3,0.3,3.5,0.5c1.2,0.1,2.4,0.4,3.6,0.3c0.6,0,0.7-0.9,0.1-1c-1-0.3-2-0.3-3-0.4c-1.1-0.1-2.1-0.3-3.2-0.4
				c-2-0.3-4-0.6-6-1c-4-0.7-8-1.5-12-2.6c-7.2-2-14.3-4.8-20.6-8.8c-3.5-2.2-6.8-4.7-9.8-7.5C158.8,208.7,158.4,209.2,158.7,209.5
				L158.7,209.5z"/>
		</g>
		<g>
			<path class="st2" d="M159.2,209.7c3.3,2,6.8,3.8,10.3,5.3c3.4,1.5,6.9,2.9,10.4,4.2c7,2.6,14.2,4.8,21.4,7.1
				c2.1,0.7,4.1,1.3,6.2,2c2.1,0.7,4.1,1.5,6.2,2.1c0.6,0.2,1-0.7,0.4-1c-1.7-0.8-3.6-1.3-5.4-2c-1.8-0.6-3.6-1.2-5.4-1.8
				c-3.6-1.2-7.2-2.3-10.9-3.5c-7.1-2.3-14.3-4.7-21.2-7.7c-3.9-1.7-7.8-3.5-11.6-5.4C159.2,209,158.9,209.5,159.2,209.7
				L159.2,209.7z"/>
		</g>
		<g>
			<path class="st2" d="M159.5,209.7c3.8,1.6,7.9,2.5,11.9,3.6c4.1,1.1,8.2,2.3,12.4,3.4c6.8,1.9,13.3,4.6,19.4,8
				c1.7,0.9,3.4,1.9,5.1,3c1.5,1,3,2.1,4.5,3.1c0.4,0.3,0.9-0.3,0.5-0.7c-1.1-1.1-2.5-2-3.8-2.9c-1.5-1-3-1.9-4.5-2.8
				c-3.2-1.8-6.4-3.4-9.8-4.9c-3.1-1.3-6.3-2.5-9.6-3.4c-4.1-1.1-8.2-2.2-12.3-3.3c-2.3-0.6-4.6-1.2-6.9-1.9
				c-2.3-0.6-4.5-1.2-6.7-2.1C159.2,208.6,159,209.5,159.5,209.7L159.5,209.7z"/>
		</g>
		<g>
			<path class="st2" d="M37.2,225.9c9.3-1.2,18.7-0.1,27.8,2.3c4.5,1.2,8.8,2.7,13.2,4.3c4.3,1.6,8.5,3.5,12.8,5.1
				c2.4,0.9,4.8,1.7,7.3,2.1c1.2,0.2,2.3,0.3,3.5,0.2c1.2,0,2.5-0.1,3.5-0.7c0.3-0.2,0.2-0.7-0.2-0.7c-1.1,0-2.1,0.2-3.2,0.3
				c-1.1,0-2.2,0-3.3-0.2c-2.2-0.4-4.4-1-6.5-1.8c-4.3-1.6-8.4-3.5-12.7-5.1c-8.6-3.3-17.5-5.9-26.7-6.9c-5.2-0.5-10.4-0.5-15.6,0.4
				C36.6,225.1,36.7,225.9,37.2,225.9L37.2,225.9z"/>
		</g>
		<g>
			<path class="st2" d="M36.9,225.9c4,1.8,7.4,4.4,11.1,6.8c3.8,2.4,7.7,4.2,12,5.3c4.5,1.2,9.1,2,13.7,2.6
				c4.7,0.5,9.5,0.8,14.2,0.7c2.7-0.1,5.4-0.2,8.1-0.5c2.6-0.3,5.3-0.6,7.9-1.3c0.5-0.1,0.4-1-0.1-0.9c-2.3,0.2-4.6,0.5-6.9,0.8
				c-2.4,0.2-4.7,0.4-7.1,0.5c-4.7,0.2-9.3,0.1-14-0.3c-4.6-0.4-9.3-1.1-13.8-2.3c-4.3-1-8.4-2.6-12.2-4.8c-4.1-2.4-8-5.4-12.5-7.3
				C36.8,224.8,36.4,225.6,36.9,225.9L36.9,225.9z"/>
		</g>
		<g>
			<path class="st2" d="M37.6,225.9c8.7,2.9,17.3,5.8,26.1,8.3c8.1,2.3,16.4,4.3,24.8,5.2c1.9,0.2,3.8,0.4,5.7,0.5
				c0.9,0,1.8,0.1,2.8,0.1c0.8,0,1.6,0,2.3-0.3c0.4-0.2,0.3-0.7-0.1-0.8c-1.4-0.2-2.9,0-4.3,0c-1.7,0-3.5-0.1-5.2-0.3
				c-3.8-0.4-7.5-1-11.2-1.8c-8.8-1.8-17.5-4.2-26.1-7c-4.9-1.5-9.7-3.2-14.5-4.8C37.4,224.9,37.2,225.7,37.6,225.9L37.6,225.9z"/>
		</g>
		<g>
			<path class="st2" d="M38,225.8c4.5,0.3,9,0.6,13.5,1.3c4.4,0.7,8.7,1.6,13,2.8c4.3,1.2,8.5,2.6,12.6,4.3
				c3.4,1.4,6.8,2.6,10.3,3.6c2,0.6,4.1,1.1,6.2,1.5c1.9,0.4,3.8,0.7,5.7,0.7c0.6,0,0.6-0.9,0-1c-7.1-0.6-14.1-2.6-20.7-5.3
				c-8.2-3.4-16.9-5.9-25.7-7.3c-2.4-0.4-4.8-0.7-7.3-0.9c-2.5-0.2-5.1-0.4-7.6-0.4C37.5,225,37.5,225.8,38,225.8L38,225.8z"/>
		</g>
		<g>
			<g>
				<path class="st1" d="M19.4,151.6c-4.9-1-9.2-4.2-11.1-9c-1-2.6-1.3-5.4-0.9-8.1c0.3-2.9,1.5-5.6,2.8-8.1
					c0.7-1.4,1.6-2.8,2.5-4.2c0.9-1.4,2-2.6,2.8-4c0.2-0.4-0.3-0.7-0.6-0.4c-1.1,1-2,2.3-2.9,3.6c-0.9,1.3-1.8,2.6-2.6,4
					c-1.5,2.6-2.8,5.5-3.3,8.5c-0.9,5.6,0.7,11.6,5,15.4c2.2,1.9,5.1,3.3,8,3.3C19.8,152.5,19.9,151.7,19.4,151.6L19.4,151.6z"/>
			</g>
			<g>
				<path class="st1" d="M15.1,118.4C15.1,118.4,15.1,118.4,15.1,118.4C15.1,118.4,15.1,118.4,15.1,118.4c0,0,0.1,0.2,0.1,0.3
					c0,0,0-0.1,0-0.1c0,0.1,0,0.1,0.1,0.2c0,0,0,0.1,0,0.1c0,0,0,0,0,0c0,0.1,0.1,0.1,0.1,0.2c0,0,0-0.1-0.1-0.1
					c0,0,0.1,0.1,0.1,0.1c0,0,0,0,0,0c0,0,0-0.1,0,0c0,0,0,0,0,0c0,0,0-0.1,0,0c0,0.1,0.1,0.2,0.2,0.2c0.1,0,0.2,0,0.3-0.1
					c0.1-0.1,0.1-0.2,0.2-0.3c0-0.1,0-0.2,0-0.3c0-0.1,0-0.1,0-0.2c-0.1-0.2-0.2-0.5-0.4-0.7c-0.1-0.1-0.2-0.1-0.3-0.1
					c-0.1,0-0.2,0-0.3,0.1C15,118,15,118.3,15.1,118.4L15.1,118.4z"/>
			</g>
			<g>
				<path class="st1" d="M16.6,119c0.3-0.7,0.9-1.2,1.4-1.8c0.6-0.5,1.4-1.2,1.3-2.1c0-0.3-0.3-0.4-0.5-0.2
					c-0.4,0.3-0.5,0.6-0.8,0.9c-0.2,0.3-0.5,0.6-0.8,0.9c-0.6,0.6-1.1,1.3-1.4,2.1c-0.1,0.2,0.1,0.4,0.3,0.5
					C16.3,119.3,16.5,119.2,16.6,119L16.6,119z"/>
			</g>
			<g>
				<path class="st1" d="M18.7,115.6c0.4,0.1,0.6,0.2,1,0.4c0.2,0.1,0.3,0.2,0.4,0.3c0.2,0.1,0.3,0.2,0.4,0.3
					c0.3,0.2,0.5,0.5,0.8,0.8c0.1,0.1,0.1,0.1,0.1,0.1c0.1,0.1,0.1,0.2,0.2,0.3c0.1,0.1,0.3,0.3,0.5,0.3c0.1,0,0.2,0,0.3-0.1
					c0.2-0.4-0.1-0.9-0.3-1.2c-0.3-0.3-0.5-0.6-0.9-0.9c-0.7-0.5-1.4-0.9-2.2-1.1c-0.2,0-0.5,0.1-0.5,0.3
					C18.4,115.3,18.5,115.5,18.7,115.6L18.7,115.6z"/>
			</g>
			<g>
				<path class="st1" d="M22.7,117.6c0-0.2,0-0.3,0-0.5c0,0,0,0.1,0,0.1c0-0.2,0.1-0.4,0.2-0.6c0,0,0,0.1-0.1,0.1c0,0,0,0,0,0
					c0-0.1,0.1-0.2,0.1-0.3c0,0,0-0.1,0-0.1c0-0.2-0.2-0.3-0.3-0.3c-0.1-0.1-0.3-0.1-0.4,0c-0.1,0-0.1,0.1-0.2,0.1
					c-0.1,0.1-0.1,0.1-0.1,0.2c-0.2,0.4-0.2,0.8-0.2,1.2c0,0.1,0,0.2,0.1,0.3c0.1,0.1,0.2,0.1,0.3,0.1c0.1,0,0.3,0,0.3-0.1
					C22.6,117.9,22.7,117.8,22.7,117.6L22.7,117.6z"/>
			</g>
			<g>
				<path class="st1" d="M22,116.6c3.3,4.8,8.3,8.1,11.6,12.9c1.6,2.3,2.7,4.9,2.7,7.7c0.1,2.9-0.8,5.5-2.2,7.9
					c-1.4,2.5-3.3,4.7-5.8,6c-0.5,0.2-0.1,1,0.4,0.9c2.5-0.8,4.4-2.9,5.8-5.1c1.6-2.4,2.8-5,3.1-7.8c0.3-3-0.3-5.9-1.7-8.6
					c-1.4-2.6-3.4-4.8-5.5-6.8c-2.6-2.5-5.3-4.8-7.4-7.7C22.5,115.6,21.6,116.1,22,116.6L22,116.6z"/>
			</g>
			<g>
				<path class="st1" d="M15.7,118.9c-2.2,4.8-4.3,10-4.1,15.3c0.2,4.4,1.5,8.8,4,12.5c0.7,1,1.5,2,2.4,2.9c0.5,0.5,1,0.9,1.5,1.3
					c0.5,0.4,0.9,0.9,1.6,0.8c0.2,0,0.3-0.2,0.3-0.4c-0.1-0.5-0.5-0.8-0.9-1.1c-0.4-0.3-0.8-0.7-1.2-1.1c-0.8-0.8-1.5-1.6-2.2-2.6
					c-1.2-1.7-2.2-3.7-2.9-5.7c-1.4-4.1-1.6-8.5-0.6-12.8c0.7-3.1,1.9-6,2.9-9C16.5,118.9,15.9,118.6,15.7,118.9L15.7,118.9z"/>
			</g>
			<g>
				<path class="st1" d="M21.6,117.5c2.2,4,5.6,6.8,8.8,9.9c2.1,2.1,3.6,4.6,4.5,7.4c0.7,2.5,0.8,5.1,0.9,7.7c0,0.4,0.5,0.3,0.5,0
					c0.5-4-0.2-8.4-2.1-11.9c-1.5-2.7-3.9-4.6-6.1-6.7c-2.2-2-4.2-4.2-5.7-6.9C22.1,116.5,21.3,117,21.6,117.5L21.6,117.5z"/>
			</g>
			<g>
				<path class="st1" d="M21.8,150.6c-1.5-2.3-3-4.6-4.2-7c-1.2-2.6-1.9-5.3-2.3-8.1c0-0.3-0.5-0.3-0.5,0c-0.3,2.8,0.5,5.6,1.7,8.2
					c1.2,2.6,2.8,5,4.5,7.4C21.3,151.5,22.1,151,21.8,150.6L21.8,150.6z"/>
			</g>
			<g>
				<path class="st1" d="M9.7,136.8c0.5,3.1,1.7,6.1,3.5,8.8c0.9,1.4,2,2.7,3.3,3.9c0.6,0.5,1.3,1,2,1.5c0.7,0.4,1.5,0.9,2.3,1.1
					c0.3,0,0.5-0.3,0.2-0.5c-0.7-0.5-1.4-0.7-2.1-1.2c-0.7-0.5-1.4-1-2-1.6c-1.2-1.1-2.2-2.4-3.1-3.8c-1.6-2.5-2.9-5.4-3.5-8.3
					C10.1,136.3,9.6,136.4,9.7,136.8L9.7,136.8z"/>
			</g>
			<g>
				<path class="st1" d="M8,139.8c0.5,3.1,2.3,5.9,4.4,8.1c1.1,1.1,2.4,2.1,3.7,3c0.7,0.4,1.4,0.8,2.2,1.1c0.7,0.3,1.4,0.5,2.2,0.4
					c0.4-0.1,0.5-0.6,0.2-0.9c-0.5-0.5-1.2-0.7-1.8-1c-0.6-0.3-1.3-0.6-1.9-1c-1.3-0.8-2.5-1.7-3.6-2.7c-2.1-2-3.8-4.5-4.4-7.3
					C8.9,138.8,7.9,139.1,8,139.8L8,139.8z"/>
			</g>
			<g>
				<path class="st1" d="M18.2,127.8c-0.3,2.1-0.3,4.1,0.1,6.2c0.4,2.1,1,4.1,1.7,6.1c0.7,1.9,1.3,3.7,2,5.6c0.3,1,0.6,1.9,0.9,2.9
					c0.2,0.7,0.2,1.8,0.8,2.3c0.1,0.1,0.3,0,0.3-0.1c0.4-0.7-0.1-1.8-0.3-2.4c-0.2-0.9-0.5-1.8-0.8-2.7c-0.6-1.9-1.3-3.7-1.9-5.6
					c-1.4-3.9-2.8-8.1-2.5-12.3C18.6,127.6,18.2,127.6,18.2,127.8L18.2,127.8z"/>
			</g>
			<g>
				<path class="st1" d="M21.1,130.5c0,3.1,0.8,6.1,1.7,9.1c0.4,1.5,0.8,3,1.1,4.5c0.2,0.8,0.3,1.6,0.3,2.4c0.1,0.7,0,1.5,0.1,2.2
					c0.1,0.3,0.4,0.2,0.5,0c0.2-0.7,0.2-1.5,0.2-2.2c0-0.7-0.1-1.5-0.2-2.2c-0.2-1.5-0.6-3-1.1-4.5c-0.9-3-1.9-6.1-2-9.3
					C21.7,130.1,21.1,130.1,21.1,130.5L21.1,130.5z"/>
			</g>
			<g>
				<path class="st1" d="M23.3,123.9c0.4,4.6,2.2,8.8,3.1,13.3c0.4,2,0.7,4.2,0.6,6.3c0,1.1-0.1,2.1-0.2,3.2
					c-0.1,0.9-0.5,1.9-0.5,2.8c0,0.4,0.5,0.5,0.7,0.2c0.6-0.8,0.7-2,0.9-2.9c0.2-1,0.2-2,0.3-3c0-2.1-0.2-4.2-0.7-6.3
					c-1-4.6-3-8.9-3.7-13.6C23.7,123.6,23.3,123.7,23.3,123.9L23.3,123.9z"/>
			</g>
			<g>
				<path class="st1" d="M27.9,133.3c0.9,3.2,1.8,6.4,1.7,9.7c0,1.4-0.3,2.7-0.8,4c-0.2,0.7-0.6,1.3-0.9,1.9
					c-0.4,0.6-0.9,1.1-1.3,1.6c-0.2,0.2,0.2,0.5,0.4,0.4c1.1-0.7,1.8-2.1,2.3-3.3c0.6-1.3,0.9-2.8,1-4.2c0.3-3.5-0.8-7-1.8-10.3
					C28.4,132.8,27.8,132.9,27.9,133.3L27.9,133.3z"/>
			</g>
			<g>
				<path class="st1" d="M32.2,134.2c1.5,3.3,1.8,7.5-0.1,10.7c-1.5,2.6-3.7,4.8-5.8,7c-0.2,0.2,0.1,0.6,0.3,0.4
					c1.3-0.9,2.3-2,3.4-3.2c1.1-1.3,2.2-2.7,3-4.2c1.8-3.4,1.3-7.7-0.3-11C32.6,133.6,32.1,133.9,32.2,134.2L32.2,134.2z"/>
			</g>
			<g>
				<path class="st2" d="M32.1,151.4c-0.6-0.4-1.3-0.5-2-0.4c-0.7,0.1-1.3,0.5-1.9,0.8c-0.7,0.4-1.5,0.9-2.3,0.9l0,0.1
					c0.7-0.8,0.8-2,0.5-3.1c-0.2-1-0.8-2-1.3-2.9l-0.1-0.3c0.3,1.2,0.2,2.6-0.4,3.7c-0.1,0.3-0.3,0.6-0.4,0.9c-0.1,0.3-0.1,0.7,0,1
					l-0.2,0c-0.2-0.9-0.6-1.8-1.2-2.5c-0.6-0.7-1.3-1.4-2-2l0.1-0.2c0.1,0.4,0,1,0.1,1.4c0.3,1.1,0.6,2.8,1.5,3.5l0.2,0.1
					c-1-0.6-2.3-0.6-3.4-0.1c-1,0.5-1.8,1.6-2,2.8l0.2-0.1c0.7-1,2-1.5,3.2-1.4c1.3,0.2,2.4,1.1,3.7,1.3c0.2,0,0.3,0,0.5-0.1
					l0.2-0.2c0.3,0.2,0.7,0.2,1.1,0.2c1.1-0.1,2-1.1,2.8-1.9c0.8-0.8,1.8-1.7,2.9-1.6"/>
				<g>
					<path class="st2" d="M32.2,151.2c-0.9-0.6-1.9-0.6-2.9-0.2c-1.2,0.4-2.2,1.4-3.5,1.5c-0.2,0-0.3,0.2-0.2,0.3c0,0,0,0,0,0.1
						c0.1,0.1,0.3,0.1,0.4,0c0.7-0.9,0.8-2.1,0.6-3.2c-0.3-1.2-1-2.1-1.5-3.2c-0.1-0.2-0.5-0.1-0.4,0.2c0.3,1.1,0.2,2.2-0.2,3.2
						c-0.3,0.8-0.9,1.5-0.6,2.4c0.1-0.1,0.1-0.2,0.2-0.3c-0.1,0-0.1,0-0.2,0c0.1,0.1,0.1,0.1,0.2,0.2c-0.2-0.9-0.6-1.8-1.2-2.5
						c-0.3-0.4-0.7-0.8-1.1-1.2c-0.2-0.2-0.4-0.4-0.6-0.6c-0.2-0.1-0.3-0.1-0.2-0.3c-0.1,0-0.3,0-0.4-0.1c0,0.5,0,0.9,0.1,1.4
						c0.1,0.5,0.2,1,0.4,1.6c0.3,0.8,0.6,1.6,1.3,2.2c0.1-0.1,0.2-0.2,0.3-0.4c-2.4-1.3-5.2,0.1-5.7,2.8c0,0.2,0.2,0.4,0.4,0.3
						c0.2-0.1,0.3-0.3,0.5-0.5c0.3-0.3,0.7-0.5,1.1-0.7c0.9-0.4,1.7-0.3,2.6,0c0.9,0.4,2.8,1.7,3.7,0.7c-0.1,0-0.2,0-0.3,0
						c1.1,0.5,2.2,0,3.1-0.7c1.2-1,2.1-2.5,3.8-2.6c0.2,0,0.3-0.3,0-0.4c-1.2-0.2-2.2,0.6-3,1.4c-0.9,0.9-2.2,2.5-3.7,1.8
						c-0.1,0-0.2,0-0.3,0c-0.5,0.5-1.8-0.2-2.3-0.5c-0.7-0.3-1.3-0.6-2.1-0.7c-0.7-0.1-1.3,0.1-1.9,0.4c-0.3,0.1-0.6,0.3-0.8,0.5
						c-0.2,0.2-0.4,0.5-0.6,0.6c0.1,0.1,0.2,0.2,0.4,0.3c0.4-2.3,2.8-3.7,5-2.5c0.3,0.1,0.4-0.2,0.2-0.4c-0.7-0.5-1-1.4-1.2-2.2
						c-0.1-0.4-0.2-0.8-0.3-1.1c-0.1-0.5,0-1-0.1-1.4c0-0.2-0.4-0.3-0.4-0.1c0,0.1,0,0.1-0.1,0.2c0,0.1,0,0.2,0.1,0.2
						c1.4,1.2,2.7,2.5,3.1,4.4c0,0.1,0.1,0.2,0.2,0.2c0.1,0,0.1,0,0.2,0c0.1,0,0.3-0.1,0.2-0.3c-0.2-0.7,0.1-1.2,0.4-1.7
						c0.2-0.4,0.3-0.8,0.4-1.3c0.2-0.9,0.2-1.8,0-2.7c-0.1,0.1-0.3,0.1-0.4,0.2c0.4,0.9,1,1.7,1.3,2.7c0.3,1.1,0.3,2.3-0.4,3.3
						c0.1,0,0.2,0,0.4,0c0,0,0,0,0-0.1c-0.1,0.1-0.1,0.2-0.2,0.3c2.1-0.1,4-2.8,6.1-1.4C32.2,151.7,32.4,151.3,32.2,151.2
						L32.2,151.2z"/>
				</g>
			</g>
		</g>
	</g>
</g>
</svg>
