<?xml version="1.0" encoding="utf-8"?>
<!-- Generator: Adobe Illustrator 24.0.0, SVG Export Plug-In . SVG Version: 6.00 Build 0)  -->
<svg version="1.1" xmlns="http://www.w3.org/2000/svg" xmlns:xlink="http://www.w3.org/1999/xlink" x="0px" y="0px"
	 viewBox="0 0 400 218.7" style="enable-background:new 0 0 400 218.7;" xml:space="preserve">
<style type="text/css">
	.st0{fill:#FFFFFF;}
	.st1{fill:#A57127;}
	.st2{fill:#DC9C2E;}
	.st3{fill:none;}
	.st4{fill:#E6E6E6;}
	.st5{fill:#C59444;}
</style>
<g id="BACKGROUND">
</g>
<g id="OBJECTS">
	<g>
		<g>
			<path d="M9.8,76.3c-1.7,0-3.4-0.5-4.9-1.4c-1.5-0.9-2.7-2.2-3.6-3.7c-0.9-1.6-1.4-3.2-1.4-5c0-2.7,0.9-5.3,2.7-7.8
				c1.8-2.5,4.5-4.5,8.1-6c0.7-0.2,1.2-0.4,1.7-0.4c0.5,0,0.7,0.2,0.7,0.6c0,0.3-0.2,0.6-0.5,0.7c-1.6,1.1-3,2.4-4.2,4.1
				c-1.2,1.7-2.2,3.4-3,5.2c-0.7,1.8-1.1,3.6-1.1,5.2c0,1.8,0.6,3.3,1.7,4.6c1.1,1.2,3,1.9,5.6,1.9c3.7,0,7.1-1.1,10.2-3.2
				c3.1-2.1,6-5,8.7-8.6c2.6-3.6,5.1-7.6,7.3-12.2c2.2-4.5,4.3-9.2,6.3-14.1c1.9-4.9,3.7-9.6,5.3-14.1c1.4-3.8,2.3-6.6,2.7-8.5
				s0.6-2.8,0.5-2.8c-0.4,0-1.4,0.1-2.9,0.4c-1.5,0.2-3.5,0.6-6,1.1c-4.8,0.9-7.3,1.2-7.6,1c-0.7-0.3-1-0.8-1-1.4
				c0-0.6,0.3-1.2,0.8-1.8c0.6-0.6,1.2-0.8,1.8-0.8c0.2,0,0.4,0,0.6,0.1l0.1,0.1c0,0.1-0.1,0.3-0.3,0.5c-0.2,0.2-0.3,0.4-0.3,0.4
				c0.1,0.1,0.2,0.2,0.4,0.2c0.2,0,0.7-0.1,1.3-0.3c0.7-0.2,1.6-0.5,2.9-0.7C43.8,9.5,45.3,9.2,47,9c2.2-0.3,3.9-0.5,5-0.7
				c1.2-0.1,1.8-0.2,2-0.3l0.7-1.6c0.6-1.1,1.1-1.7,1.6-1.7c0.7,0,2.1,0.9,3.9,2.8c9.1,0,14.2,0.3,15.4,0.8c0.7,0.4,1.2,0.8,1.3,1.4
				c0,0.5-0.3,0.9-0.8,1.3c-0.5,0.3-0.8,0.3-0.8-0.1c-0.2-1.1-1.5-1.7-3.9-1.7c-0.6,0-1.4,0-2.5,0.1c-1.1,0.1-1.9,0.1-2.3,0.1
				c-1.5,0-4.1,0.3-7.9,1c-0.9,2.2-1.9,5-3,8.3c-1.1,3.3-2.3,6.7-3.6,10.2c-1.2,3.5-2.5,6.8-3.7,9.8c-2.2,5.2-4.6,10.1-7.2,14.6
				c-2.6,4.5-5.4,8.5-8.6,11.9c-3.1,3.4-6.6,6.1-10.3,8C18.6,75.3,14.4,76.3,9.8,76.3z"/>
			<path d="M78,64c-1.2,0-2.4-0.4-3.4-1.2c-1-0.8-1.6-1.6-1.8-2.3c-0.2-0.9,1-4,3.5-9.3l-2.1,3.1c-0.9,1.4-1.9,2.6-2.8,3.6
				c-0.9,1.1-1.8,2-2.6,2.8c-2.4,2.2-4.4,3.2-6,2.8c-3.7-0.9-5.6-3-5.6-6.4c0-2.7,1.3-6.1,3.8-10.3c0.8-1.2,1.8-2.5,3.1-3.7
				c1.2-1.2,2.7-2.5,4.3-3.6c4.2-3.1,8.2-4.6,12.1-4.6c2.4,0,4.6,0.6,6.7,1.9c0.7,0.5,1,1,1,1.6c0,0.4-0.1,0.7-0.4,0.7
				c-0.1,0-0.1,0-0.2-0.1c-1.3-1.4-3.1-2.1-5.2-2.1c-2.6,0-5.3,1-8.3,2.9c-3,1.9-5.7,4.5-8,7.8c-3.4,4.7-5,8.5-5,11.4
				c0,1.7,0.6,2.7,1.8,3.2c1.5,0.6,4.7-2.1,9.5-8.3c2-2.4,3.7-4.6,5-6.5c1.3-1.9,2.4-3.6,3.2-5c0.4-0.7,1.1-1,2.1-1
				c1.9,0,2.8,0.6,2.8,1.7c0,0.2,0,0.3-0.1,0.4c-5.4,8.6-8.1,14.4-8.1,17.5c0,0.7,0.2,1.2,0.7,1.2c1.3,0.4,3.5-0.6,6.5-2.9
				c3.7-2.7,7.1-6.4,10.4-10.9c0.7-0.9,1.3-1.4,1.9-1.4c0.2,0,0.3,0.1,0.3,0.2c0,0.3-0.3,0.9-0.8,1.8c-1.3,2.1-2.8,4-4.3,5.8
				c-1.6,1.8-3.3,3.5-5.3,5c-2.7,2.3-5,3.7-6.7,4.3C79.2,64,78.7,64,78,64z"/>
			<path d="M109.1,63.5c-0.4,0-0.9,0-1.4,0c-0.5,0-1,0-1.4,0c-2,0.1-4.3,0-6.8,0c-2.5-0.1-5.3-0.2-8.5-0.4c-0.7-0.1-1.3-0.7-1.8-1.7
				c-0.4-0.7-0.6-1.2-0.6-1.5c1.2-1.5,3.2-3.4,6-5.7c2.8-2.3,6.4-5.1,10.9-8.2c7.4-5.2,10.6-7.9,9.8-7.9c-0.7-0.1-1.4-0.1-2-0.1
				c-0.7,0-1.3,0-1.9,0c-4,0-7.1,0.6-9.3,1.8c-1.9,1-3.1,1.5-3.6,1.5c-0.7,0-1.1-0.4-1.1-1.2c0-0.6,0.3-1.4,0.9-2.2
				c0.6-0.8,1.2-1.3,1.8-1.4c1.9-0.5,5-0.8,9.3-0.8c0.7,0,1.5,0,2.1,0c0.7,0,1.3,0,2,0c2.1,0,3.8,0.1,5,0.3c0.6,0.1,1.2,0.7,1.8,1.7
				c0.7,1,1.1,1.8,1.1,2.5c0,0.2-0.1,0.4-0.2,0.6c-3,1.9-5.6,3.6-7.8,5.1c-2.2,1.5-4,2.7-5.4,3.7c-6.1,4.2-11,8-14.8,11.4
				c-0.1,0.2,0.9,0.5,3.2,0.7c2.6,0.4,5.1,0.6,7.6,0.6c3.4,0,6.1-0.3,8.1-0.9c4.3-1.2,6.7-2.9,7.3-5c0.1-0.4,0.3-0.6,0.6-0.6
				c0.9,0,1.4,0.9,1.4,2.7c0,1.1-0.4,2.1-1.3,3C118.6,62.6,114.9,63.5,109.1,63.5z"/>
			<path d="M159.8,64c-1.4,0.1-2.7-0.2-3.9-1.1c-1.2-0.8-1.9-1.8-1.9-2.9c0-1.9,1.8-5.6,5.5-11.1c4.1-6,6.1-9.5,6.1-10.5
				c0-0.6-0.3-0.9-0.8-0.9c-1.8,0.1-4.2,1.6-7.3,4.3c-4.7,4.3-9.4,10.8-14.1,19.4c-0.2,0.3-0.9,0.5-2.1,0.5c-1.4,0-2.1-0.6-2.1-1.7
				c0-1.9,1.8-5.6,5.5-11.1c4-6,6.1-9.5,6.1-10.5c0-0.6-0.3-0.9-0.8-0.9c-1.8,0.1-4.6,1.9-8.4,5.4C136,48,131,54.8,126.4,63.3
				c-0.1,0.1-0.2,0.2-0.4,0.3c-0.2,0.1-0.6,0.1-1.2,0.1c-2.4,0-3.4-0.4-3.2-1.1c0.7-1.8,1.9-4.5,3.6-8.1c1.7-3.6,3.9-8.2,6.7-13.6
				c1.9-3.7,3.8-5.5,5.7-5.5c0.6,0,1,0.2,1.2,0.5c0.1,0.2-1.2,2.9-3.9,8c-1.3,2.5-2.3,4.5-3.1,5.9c-0.7,1.5-1.3,2.4-1.6,2.9
				c1.1-1.1,2.3-2.4,3.8-3.9c1.5-1.6,3.2-3.4,5.1-5.4c3.1-3.4,6.4-6,10.1-7.7c0.7-0.3,1.5-0.5,2.3-0.5c2.7,0,4,1.2,4,3.5
				c0,1.3-0.5,2.9-1.6,4.7c2.9-3.4,6.2-5.9,10.1-7.7c0.9-0.4,1.9-0.6,3-0.6c2.6,0,3.8,0.9,3.8,2.8c0,1.2-0.6,2.6-1.8,4.2
				c-6.7,9.4-10.1,15.7-10.1,19c0,0.7,0.2,1.1,0.7,1.3c0.9,0.4,2.7-0.2,5.3-1.7c3.3-1.9,6.4-4.6,9.2-8.1c0.4-0.4,0.7-0.7,1.1-0.7
				c0.2,0,0.4,0.1,0.4,0.3c0,0.2-0.2,0.6-0.6,1.1c-3.1,4-6.2,6.9-9.3,8.8C163.3,63.5,161.3,64.2,159.8,64z"/>
			<path d="M179.3,64c-3.6-0.8-5.4-2.2-5.4-4.3c0-1,1.2-4.5,3.6-10.6c0.7-1.2,1.6-2.9,2.8-5.2c1.2-2.3,2.6-5.1,4.3-8.4
				c0.3-0.5,1-0.7,2.1-0.7c0.9,0,1.9,0.1,2.8,0.4c0.9,0.3,1.3,0.5,1.1,0.8c-8.2,11.7-12.3,19.7-12.3,24.2c0,1.3,0.4,2,1.3,2
				c1.7,0,4.3-1.2,7.9-3.6c4.3-2.9,7.9-6.4,10.8-10.6c0.6-1,1.2-1.5,1.9-1.5c0.2,0,0.3,0.1,0.3,0.3c0,0.3-0.3,0.9-0.8,1.8
				c-2.7,4.3-6.5,8.1-11.4,11.4C183.9,63,180.9,64.3,179.3,64z M185.1,29.9c-0.1,0-0.2-0.1-0.2-0.2c0-0.2,0.5-0.8,1.4-1.8
				c1.4-1.2,2.8-2.5,4.3-3.8c1.4-1.3,2.4-2.4,3-3.3c0.2-0.2,0.5-0.4,0.7-0.4c0.4,0,0.8,0.2,1.2,0.7c0.4,0.5,0.6,1,0.6,1.5
				c0,0.2-0.1,0.5-0.3,0.7c-1.4,1.1-2.9,2.2-4.5,3.4c-1.6,1.1-2.9,1.9-4.1,2.4C186.1,29.7,185.4,29.9,185.1,29.9z"/>
			<path d="M216.3,64c-1.4,0.1-2.7-0.2-3.9-1.1c-1.2-0.8-1.9-1.8-1.9-2.9c0-1.9,1.8-5.6,5.5-11.1c4.1-6,6.1-9.5,6.1-10.5
				c0-0.6-0.3-0.9-0.8-0.9c-1.8,0.1-4.6,1.9-8.4,5.4c-5.4,5-10.5,11.9-15.2,20.6c-0.1,0.1-0.5,0.2-1,0.2c-2.7,0-3.9-0.4-3.6-1.1
				c0.7-1.8,1.9-4.5,3.6-8.1c1.7-3.6,3.9-8.2,6.7-13.6c1.9-3.7,3.8-5.5,5.7-5.5c0.6,0,1,0.2,1.2,0.5c0.1,0.2-1.2,2.9-3.9,8
				c-1.3,2.5-2.3,4.5-3.1,5.9c-0.7,1.5-1.3,2.4-1.6,2.9c1.1-1.1,2.3-2.4,3.8-3.9c1.5-1.6,3.2-3.4,5.1-5.4c3.1-3.4,6.4-6,10.1-7.7
				c0.9-0.4,1.9-0.6,3-0.6c2.6,0,3.8,0.9,3.8,2.8c0,1.2-0.6,2.6-1.8,4.2c-6.7,9.4-10.1,15.7-10.1,19c0,0.7,0.2,1.1,0.7,1.3
				c1,0.4,3.5-0.6,7.4-3.1c4.6-3,8.5-6.7,11.8-11.1c0.7-0.9,1.3-1.4,1.9-1.4c0.2,0,0.3,0.1,0.3,0.2c0,0.3-0.3,0.9-0.8,1.8
				c-2.7,4.3-6.5,8.1-11.4,11.4C220.8,62.9,217.8,64.2,216.3,64z"/>
		</g>
		<path d="M206.5,114.3c-0.1,0-0.2,0-0.2-0.1c-0.5-0.6-1.1-1.3-1.8-2.2c-0.7-0.9-1.5-1.9-2.3-3.1c-1.1,0.6-2.3,1.3-3.6,1.8
			c-1.3,0.6-2.7,1.1-4.1,1.5c-3,0.9-5.8,1.4-8.3,1.4c-2.9,0-5.1-0.7-6.7-2c-1.4-1.2-2.1-2.8-2.1-4.7c0-1.9,0.7-4,2-6.1
			c1.3-2.1,3.1-4,5.4-5.7c1-0.6,2.2-1.4,3.7-2.4c1.5-1,3.3-2.2,5.3-3.5c-0.2-0.8-0.3-1.6-0.3-2.3c-0.1-0.7-0.1-1.4-0.1-2
			c0-5.3,2.5-8.3,7.4-8.9c0.1,0,0.2,0,0.3,0c0.1,0,0.2,0,0.3,0c1,0,1.8,0.3,2.3,0.9c0.6,0.6,0.9,1.4,0.9,2.4c0,1.7-0.8,3.4-2.3,5.1
			c-0.8,0.9-1.8,1.9-3,2.9c-1.1,1-2.4,2.1-3.9,3.2c0.1,1.2,0.2,2.4,0.5,3.6c0.8-0.2,1.8-0.4,2.9-0.5c1.1-0.2,2.3-0.3,3.6-0.4
			c1.6-0.2,2.9-0.3,3.8-0.4c0.9-0.1,1.4-0.2,1.6-0.2c1.2-0.2,2.2-0.4,3.1-0.6c0.9-0.2,1.6-0.4,2.1-0.6c2.7-0.9,4.1-2.2,4.2-3.8
			c0-0.6,0.2-0.9,0.7-0.9c0.4,0,0.6,0.5,0.6,1.6c0,1.7-1.7,3-5.1,4.1c-1.9,0.6-4,1-6.3,1.4c1.7,0.6,2.5,2.1,2.5,4.3
			c0,0.3,0,0.5,0,0.8c0,0.3,0,0.6-0.1,0.9c-0.4,3.1-2.3,5.8-5.8,8.3l3.7,4.5c0.1,0.2,0.1,0.3,0.1,0.5
			C207.2,113.9,207,114.3,206.5,114.3z M188.6,112c1.1,0,2.3-0.1,3.7-0.3c3.2-0.5,6.2-1.8,9-3.8c-3-4-5.1-7.9-6.2-11.8
			c-2.6,1.3-3.8,3-3.8,5.1c0,1,0.5,1.8,1.4,2.6c0.4,0.3,0.5,0.6,0.3,0.7c-0.2,0.1-0.2,0.1-0.3,0.1c-0.1,0-0.3-0.1-0.5-0.2
			c-0.6-0.5-1.2-1-1.6-1.3c-0.4-0.4-0.7-0.6-0.9-0.8c-0.6-0.6-0.9-1.3-0.8-2.1c0.3-2.7,2.2-4.6,5.7-5.8l-0.2-0.9l-0.5-2.1
			c-1.6,1.2-4,3.1-7.2,5.7c-1.3,1.1-2.4,2.6-3.4,4.5c-1.1,2-1.7,3.9-1.7,5.5C181.7,110.4,184,112,188.6,112z M195.2,88.2
			c4.5-3.2,7-6,7.3-8.3v-0.2c0-0.5-0.1-0.9-0.4-1.3c-0.4-0.7-1-1-1.9-1c-0.2,0-0.3,0-0.5,0c-0.2,0-0.3,0-0.5,0.1
			c-1.3,0.3-2.4,1.6-3.1,3.9C195.5,83.1,195.2,85.4,195.2,88.2z M202.5,106.9c2.6-2.2,4.2-4.5,4.6-7c0-0.3,0.1-0.6,0.1-0.9
			c0-0.3,0-0.5,0-0.8c0-2.4-1.1-3.8-3.3-4.2l-1.8,0.2c-1.1,0.2-2.2,0.3-3.2,0.5c-1,0.2-1.9,0.5-2.7,0.8c0.5,1.8,1.3,3.6,2.4,5.5
			C199.7,103,201,104.9,202.5,106.9z"/>
		<g>
			<path d="M211.8,194.2c-1.4,0-2.9-0.3-4.5-0.8c-6-2.1-12.6-6.7-19.7-13.6c-2.1-2-4.4-4.8-6.9-8.3c-3.7,7-6,11.8-6.7,14.5
				c-0.4,1.2-1.1,1.9-2.2,1.9c-1.3,0-1.8-0.7-1.6-2.1c0.1-0.9,0.9-2.8,2.4-5.7c1.5-2.8,3.6-6.6,6.4-11.4c-1.4-2.1-2.5-4-3.3-5.8
				c-1.1-2.2-1.7-3.7-1.7-4.4c0-0.6,0.5-1.2,1.4-2c0.9-0.7,1.7-1.1,2.3-1.1c0.1,0,0.2,0.1,0.4,0.2c0.9,1.9,2.6,3.6,5.3,5.3
				c4.7-8.4,7.7-15.2,8.9-20.5c-0.1-0.1-0.2-0.1-0.3-0.1l-1.3,0.7c-0.6,0.4-1.1,0.6-1.4,0.6c-0.2,0-0.4-0.1-0.4-0.4
				c0.7-1.2,1.6-2.6,2.8-3.9l2.3-2.7c0.5-0.5,1-0.9,1.5-1.4c0.5-0.4,1.1-0.7,1.7-0.9c0.4-0.1,0.7-0.2,0.8-0.2c0.9,0,1.3,0.6,1.3,1.9
				c0,1.2-0.4,2.9-1.3,5.1c-1.9,4.9-6,12.6-12.1,23.2c3.2,1.6,5.9,2.4,8,2.4c0.5,0.1,1,0.1,1.4,0.1s0.9,0,1.3,0
				c6.7,0,12.9-1.5,18.6-4.6c5.5-2.9,9.1-6.2,10.8-10c0.9-1.9,1.3-3.8,1.3-5.7c0-4.5-2.2-8.4-6.6-11.6c-4.6-3.4-10.8-5.3-18.7-5.7
				c-1.1-0.1-2.1-0.1-3.2-0.1c-1.1,0-2.1,0-3.2,0c-12.5,0-22.4,1.8-29.7,5.4c-6.2,3.1-9.3,6.4-9.3,10c0,0.9,0.2,1.6,0.7,2.2
				c0.3,0.7,1.1,1.2,2.4,1.5c0.4,0.1,0.9,0.2,1.3,0.2c0.4,0,0.8,0,1.1,0h0.9c0.7,0,1,0.1,1,0.4c0,0.6-0.6,0.9-1.9,0.9
				c-6,0-9.6-0.7-10.8-2.2c-0.6-0.7-0.8-1.5-0.8-2.4c0-4.1,3.8-7.9,11.4-11.4c9-4,21.2-6.1,36.4-6.1h3.9c8.8,0.2,16.1,2.1,21.8,5.7
				c5.7,3.7,8.6,8,8.6,13c0,2.1-0.5,4.1-1.6,6.3c-2.6,4.9-7,8.8-13.4,11.7c-6,2.8-12.6,4.2-19.8,4.2c-4.6,0-9-0.8-13.3-2.3
				c-0.7,1.3-1.3,2.3-1.8,3c1.8,2.7,3.5,5,5.1,7c1.6,2,3.1,3.6,4.5,4.9c9.2,8.5,16.1,12.8,20.7,12.8c0.9,0,2.1-0.2,3.6-0.6
				c0.9-0.2,1.8-0.8,2.7-1.6c0.9-0.8,1.4-1.3,1.7-1.3c0.7,0,1.1,0.4,1.1,1.3c0,0.7-1.4,1.6-4.1,2.6c-0.4,0.2-0.9,0.4-1.3,0.6
				c-0.4,0.2-0.8,0.3-1.3,0.5C214.3,194,213,194.2,211.8,194.2z M181.2,164.6c0.1-0.2,0.3-0.5,0.5-0.7c0.2-0.2,0.3-0.5,0.5-0.7
				l-2.1-1C180.3,162.7,180.7,163.6,181.2,164.6z"/>
			<path d="M231.6,186.1c-4.5,0-6.8-2.8-6.8-8.4c0-5.6,2.2-11,6.7-16.1c0.1-0.1,0-0.3-0.1-0.7c-0.1-0.4-0.2-0.7-0.2-0.9
				c0-0.4,0.1-0.7,0.4-0.8c2.2-1.7,4.7-2.6,7.7-2.6c0.8,0,1.5,0.2,2,0.5c0.6,0.2,1.2,0.5,1.8,0.7c0.6,0.2,1.1,0.5,1.6,0.8
				c2.4,1.4,4,2.9,5,4.5c1.6-0.1,2.9-0.1,3.9-0.2c1.1-0.1,1.9-0.1,2.4-0.2h0.4c0.6,0,0.8,0.2,0.8,0.7c0,0.1-0.1,0.2-0.4,0.3
				c-0.7,0.1-1.6,0.3-2.7,0.5c-1.1,0.2-2.4,0.4-4,0.6c0.2,0.4,0.3,0.9,0.3,1.5c0,0.4,0,0.7-0.1,0.9c-0.9,5-3.4,9.5-7.4,13.3
				C239,184.2,235.3,186.1,231.6,186.1z M231.9,184.6c2.7,0,5.9-2,9.4-5.9c3.6-3.9,5.8-7.7,6.4-11.4c0.1-0.3,0.1-0.6,0.1-0.8
				c0-0.2,0-0.4,0-0.6c0-0.4-0.1-0.7-0.2-1.1c-1.2,0.1-2.4,0.1-3.6,0.1c-1.2,0-2.5,0-3.7,0c-1.2,0-2.4,0-3.4,0c-1,0-1.9,0-2.8-0.1
				c-2.5,3.4-4.1,6.1-4.7,8.1c-0.7,2.3-1.1,4.5-1.1,6.6C228.4,182.9,229.6,184.6,231.9,184.6z M247.3,163.1c-1-1.6-3-2.3-5.9-2.3
				c-2.2,0-3.7,0.2-4.4,0.7c-0.2,0.1-0.4,0.2-0.6,0.4c-0.2,0.2-0.4,0.4-0.7,0.7C239.3,163,243.1,163.2,247.3,163.1z"/>
			<path d="M275.6,186.1c-1.2,0-2.3-0.3-3.3-0.9c-1-0.6-1.7-1.2-2-1.9c-0.2-0.5-0.3-1.2-0.3-2c0-1.1,0.1-2.3,0.4-3.7
				c0.2-1.4,0.6-2.9,1.1-4.5c-0.4,0.8-1,1.7-1.8,2.8c-0.8,1.1-1.7,2.3-2.8,3.7c-3.4,4-6.1,6-8.2,6c-0.3,0-0.6,0-0.7-0.1
				c-3.7-0.9-5.6-3-5.6-6.4c0-2.7,1.3-6.1,3.8-10.3c1.6-2.6,4.1-5,7.4-7.4c4.2-3.1,8.3-4.7,12.1-4.7c1.4,0,2.8,0.2,4,0.7l2.8-5
				c1.4-2.6,2.6-4.9,3.6-6.9c1-2.1,1.8-3.8,2.4-5.3c0.5-1.1,2.2-1.7,5.2-1.7c1.4,0,2,0.2,1.8,0.5L283,159.5c0.2,0.4,0.3,0.8,0.2,1.3
				c-0.1,0.4-0.2,0.4-0.5,0.2l-0.4-0.4l-1.2,2.1c-4.7,8-7.1,14.3-7.1,18.8c0,1.7,0.6,2.6,1.8,2.6c1.3,0,3.3-1,6-3
				c3.7-2.7,7.1-6.4,10.4-10.9c0.7-0.9,1.3-1.4,1.9-1.4c0.2,0,0.3,0.1,0.3,0.2c0,0.3-0.3,0.9-0.8,1.8c-2.7,4.1-5.8,7.7-9.3,10.8
				c-2.8,2.4-5,3.9-6.5,4.3C276.9,186,276.3,186.1,275.6,186.1z M257.9,184.1c1.5,0.6,4.7-2.1,9.5-8.3c1.9-2.4,3.5-4.5,4.9-6.4
				c1.4-1.9,2.5-3.6,3.4-5.1c0.2-0.5,0.6-1.2,1.2-2.1c0.5-0.9,1.2-2,2-3.2c-0.2-0.1-0.4-0.1-0.6-0.1c-0.2,0-0.4,0-0.6,0
				c-2.6,0-5.3,1-8.2,2.9c-2.9,1.9-5.7,4.5-8.2,7.8c-1.8,2.3-3.1,4.4-3.9,6.4c-0.8,1.9-1.2,3.6-1.2,5
				C256.1,182.6,256.7,183.6,257.9,184.1z"/>
			<path d="M286.7,186.2c-0.9,0-1.3-0.3-1.3-0.8c0-0.1,0.1-0.3,0.2-0.7c2.9-5.6,6.4-13.6,10.4-24c0.4-1.1,1.2-2.1,2.2-2.9
				c1.1-0.8,2-1.3,2.7-1.3c0.8,0,1.2,0.4,1,1.3c-0.6,1.3-1.4,3-2.2,5c-0.9,2.1-1.9,4.5-3.1,7.2c1.7-2.3,4.3-4.9,7.8-7.8
				c1.7-1.4,3.3-2.6,4.5-3.6c1.3-0.9,2.4-1.6,3.2-2.1c0.9-0.4,1.8-0.7,2.9-0.7c1.2,0,2.3,0.3,3.2,0.9c0.9,0.6,1.3,1.3,1.3,2.1
				c0,0.5-0.2,1-0.7,1.6c-0.5,0.6-1,0.9-1.4,0.9c-0.2,0-0.8-0.3-1.5-0.8c-0.8-0.5-1.6-0.8-2.5-0.8c-0.9,0-2,0.3-3.3,0.8
				c-7.9,3.6-14.7,11.6-20.5,24C289.3,185.8,288.3,186.2,286.7,186.2z"/>
			<path d="M318.9,186c-3.6-0.8-5.4-2.2-5.4-4.3c0-1,1.2-4.5,3.6-10.6c0.7-1.2,1.6-2.9,2.8-5.2c1.2-2.3,2.6-5.1,4.3-8.4
				c0.3-0.5,1-0.7,2.1-0.7c0.9,0,1.9,0.1,2.8,0.4c0.9,0.3,1.3,0.5,1.1,0.8c-8.2,11.7-12.3,19.7-12.3,24.2c0,1.3,0.4,2,1.3,2
				c1.7,0,4.3-1.2,7.9-3.6c4.3-2.9,7.9-6.4,10.8-10.6c0.6-1,1.2-1.5,1.9-1.5c0.2,0,0.3,0.1,0.3,0.3c0,0.3-0.3,0.9-0.8,1.8
				c-2.7,4.3-6.5,8.1-11.4,11.4C323.4,185.1,320.4,186.4,318.9,186z M333,152.3c-1,0.1-2.1,0-3.2-0.4c-1.2-0.4-1.7-0.8-1.7-1.4
				c0-0.4,0.1-0.8,0.4-1.2c0.2-0.4,0.6-0.8,0.9-1.3c1.1-1.3,1.7-2.1,1.9-2.5c0.2-0.3,0.5-0.5,1-0.5c1.4,0,2.6,0.7,3.4,2.1
				c0.1,0.1,0.1,0.2,0.1,0.4c0,0.6-0.3,1.4-0.9,2.4C334,151.4,333.4,152.2,333,152.3z"/>
			<path d="M330.3,213.9c-2.4,0-3.6-1.2-3.6-3.6c0-1.9,0.8-4.2,2.5-6.9c1.1-1.7,2.4-3.5,4.1-5.4c1.7-1.9,3.6-3.9,5.9-6
				c4.1-4,8.5-7.4,13.1-10.4c0.6-1.4,1.2-3.1,1.9-5c0.7-2,1.5-4.4,2.3-7.1c-0.2,0.4-0.9,1.3-2,2.7c-1.2,1.3-2.8,3.2-5,5.6
				c-5.2,5.8-8.9,8.4-11.1,7.9c-3.4-0.9-5-2.7-5-5.6c0-2.8,1.7-6.5,5-11c0.9-1.2,2.1-2.5,3.5-3.7c1.4-1.2,2.9-2.5,4.7-3.6
				c4.4-3.1,8.6-4.6,12.5-4.6c2.4,0,4.6,0.6,6.6,1.9c0.6,0.4,0.8,0.8,0.8,1.4c0,0.6-0.1,0.8-0.4,0.8c-0.1,0-0.1,0-0.2-0.1
				c-1.2-1.4-3-2.1-5.1-2.1c-2.6,0-5.4,1-8.6,2.9c-3.2,1.9-6.1,4.5-8.8,7.8c-4.2,5.1-6.3,9.1-6.3,12c0,1.3,0.5,2.2,1.5,2.6
				c1.4,0.6,4.8-2.2,10.4-8.3c2.2-2.4,4.1-4.6,5.7-6.5c1.6-1.9,2.9-3.6,3.8-5c0.4-0.6,1.1-0.9,1.9-0.9c1.5,0,2.2,0.6,2.2,1.7
				c0,0.2-0.1,0.5-0.3,0.8c-0.4,1.2-1,2.9-1.8,5c-0.7,2.1-1.7,4.6-2.7,7.5c2-1.2,3.6-1.8,4.8-1.8c0.5,0,0.7,0.1,0.7,0.4
				c0,0.6-0.8,1.2-2.3,1.8c-0.6,0.2-1.3,0.5-2,0.8c-0.7,0.3-1.5,0.7-2.3,1.1c-4.4,10.8-9.6,19.8-15.8,26.8
				C337.1,211.7,333.6,213.9,330.3,213.9z M332.2,211.9c1.2,0,2.6-1,4.3-2.9c5.5-6.2,10.4-14.4,14.6-24.5
				c-8.3,6.2-14.5,12.6-18.5,19.3c-1.4,2.2-2.1,4.1-2.1,5.8C330.6,211.1,331.1,211.9,332.2,211.9z"/>
			<path d="M374.5,186.1c-4.5,0-6.8-2.8-6.8-8.4c0-5.6,2.2-11,6.7-16.1c0.1-0.1,0-0.3-0.1-0.7c-0.1-0.4-0.2-0.7-0.2-0.9
				c0-0.4,0.1-0.7,0.4-0.8c2.2-1.7,4.7-2.6,7.7-2.6c0.8,0,1.5,0.2,2,0.5c0.6,0.2,1.2,0.5,1.8,0.7c0.6,0.2,1.1,0.5,1.6,0.8
				c2.4,1.4,4,2.9,5,4.5c1.6-0.1,2.9-0.1,3.9-0.2c1.1-0.1,1.9-0.1,2.4-0.2h0.4c0.6,0,0.8,0.2,0.8,0.7c0,0.1-0.1,0.2-0.4,0.3
				c-0.7,0.1-1.6,0.3-2.7,0.5c-1.1,0.2-2.4,0.4-4,0.6c0.2,0.4,0.3,0.9,0.3,1.5c0,0.4,0,0.7-0.1,0.9c-0.9,5-3.4,9.5-7.4,13.3
				C381.9,184.2,378.2,186.1,374.5,186.1z M374.8,184.6c2.7,0,5.9-2,9.4-5.9c3.6-3.9,5.8-7.7,6.4-11.4c0.1-0.3,0.1-0.6,0.1-0.8
				c0-0.2,0-0.4,0-0.6c0-0.4-0.1-0.7-0.2-1.1c-1.2,0.1-2.4,0.1-3.6,0.1c-1.2,0-2.5,0-3.7,0s-2.4,0-3.4,0s-1.9,0-2.8-0.1
				c-2.5,3.4-4.1,6.1-4.7,8.1c-0.7,2.3-1.1,4.5-1.1,6.6C371.3,182.9,372.5,184.6,374.8,184.6z M390.2,163.1c-1-1.6-3-2.3-5.9-2.3
				c-2.2,0-3.7,0.2-4.4,0.7c-0.2,0.1-0.4,0.2-0.6,0.4c-0.2,0.2-0.4,0.4-0.7,0.7C382.2,163,386,163.2,390.2,163.1z"/>
		</g>
	</g>
</g>
</svg>
