<?xml version="1.0" encoding="utf-8"?>
<!-- Generator: Adobe Illustrator 24.0.0, SVG Export Plug-In . SVG Version: 6.00 Build 0)  -->
<svg version="1.1" xmlns="http://www.w3.org/2000/svg" xmlns:xlink="http://www.w3.org/1999/xlink" x="0px" y="0px"
	 viewBox="0 0 386.1 287.4" style="enable-background:new 0 0 386.1 287.4;" xml:space="preserve">
<style type="text/css">
	.st0{fill:#FFFFFF;}
	.st1{fill:#ffffff;}
	.st2{fill:#ffffff;}
	.st3{fill:none;}
	.st4{fill:#E6E6E6;}
</style>
<g id="BACKGROUND">
</g>
<g id="OBJECTS">
	<g>
		<g>
			<g>
				<path class="st1" d="M219.5,182.2c0.5-0.9,1-1.8,1.4-2.7c0.4-0.9,0.7-1.9,1.1-2.8c0.7-1.8,1.5-3.6,2.2-5.4
					c0.6-1.8,1.1-3.6,1.6-5.4c0.5-1.8,1.2-3.5,1.5-5.3c1.6-7.1,2.6-13.9,3-20.6c0.1-2.1,0.2-4.2,0.3-6.3c0.1-2.1-0.1-4.1,0-6
					c0-2.9,0.4-4.2,1.1-3.8c0.8,0.4,1.4,3.3,1.9,6.7c0.1,0.5,0.2,0.9,0.2,1.4c2.6,16-0.2,32.9-7.5,47.5c-0.8,2-2.1,4-3.2,6.1
					c-1.2,2.1-2.1,4.3-3.5,6.2c-1.6,2.4-3.1,4.9-4.9,7.2l-5.5,6.7l-6.1,6.2c-2.1,2-4.4,3.8-6.6,5.6c-9.1,7.2-19.3,12.8-30.2,16.7
					c-12.4,4.5-25.8,6.3-38.9,5.7c-12.2-0.5-24.4-3.2-35.7-8.2c-11.2-4.9-21.5-12-30.2-20.7c-9.5-9.5-17-21.1-21.8-33.6
					C35,165,32.7,151.5,32.9,138c0.6-17.9,5.4-35.8,15.2-51c1-1.6,1.9-3.3,3.1-4.8l3.5-4.5c8.2-10.1,18.4-18.5,29.8-24.7
					c11.4-6.2,24-10.1,36.9-11.6c12.2-1.6,24.7-0.7,36.7,2.2c21.7,5.3,41.4,18.2,55,35.9l3.4,4.6c1.1,1.6,2,3.2,3.1,4.8l1.5,2.4
					l1.3,2.5c0.9,1.7,1.8,3.4,2.6,5.1c0.9,2.1,1.7,4.4,2.5,6.5c0.2,0.5,0.1,0.9,0,1.1c0,0.1-0.3-0.2-0.4-0.5
					c-0.8-1.5-1.6-2.9-2.3-4.5c-4-8.9-9.4-17.2-15.8-24.6c-6.4-7.4-13.9-13.8-22.2-18.9c-8.3-5.2-17.4-9-26.8-11.5
					c-10.3-2.7-21-3.6-31.6-3.2C114,44,99.8,47.7,87.2,54.4C74.6,61.1,63.6,70.7,55.1,82c-7.7,10.3-13.4,22.1-16.3,34.5
					c-5.7,24.1-2,50.1,10.1,71.4c6.1,10.9,14.4,20.5,24.2,28.1c9.8,7.7,21.2,13.3,33.2,16.6c7.8,2.3,16,3.1,24.1,3.4
					c11.8,0.2,23.6-1.8,34.7-5.7c11.1-3.9,21.4-9.9,30.2-17.6C206,203.6,214.5,192.6,219.5,182.2z"/>
			</g>
		</g>
		<g>
			<g>
				<path class="st1" d="M199.5,184.7c7.3-11.6,11.3-22.5,13.6-33.4c0.7-3.4,1.3-6.8,1.8-10c0.3-2.3,0.9-3.4,1.5-3
					c0.7,0.4,1,2.9,1.1,5.8c0,0.4,0,0.8,0,1.2c0.5,13.5-3.6,27.3-11.4,38.3c-0.5,0.7-0.9,1.6-1.5,2.3c-0.6,0.8-1.1,1.6-1.7,2.4
					c-1.1,1.6-2.2,3.3-3.4,4.9c-11.7,15.3-28.5,26.6-47.3,31c-10.7,2.5-22,2.4-32.7,0.4c-20-3.7-38.9-14.1-51.7-30.2
					c-14-17.5-20.5-40.5-18.2-62.7c1.4-14.8,6.6-29.3,15.5-41.4c0.8-1.3,2-2.5,3-3.7l3.1-3.6c15.1-15.5,36-24.7,57.6-26.4
					c10.2-0.8,20.6,0.5,30.4,3.7c17.7,5.7,33.2,17.6,43.5,33c3.5,5.2,6.5,10.8,8.8,16.7c0.7,1.8,1.3,3.7,1.7,5.5
					c0.1,0.4,0,0.7-0.1,1c0,0.1-0.2-0.2-0.3-0.4c-0.6-1.3-1.2-2.5-1.7-3.8c-1.5-3.8-3.2-7.4-5.2-11c-2-3.5-4.2-6.9-6.7-10.1
					c-9.8-12.9-23.4-22.8-38.7-28.1c-8.4-2.7-17.2-3.9-26-4.1c-11.9-0.1-23.8,2.5-34.5,7.3C89.2,71,79.5,78.1,71.7,86.9
					c-7.1,7.9-12.3,17.3-15.5,27.4c-6.2,19.5-4.8,41.1,3.5,59.6c4.2,9.4,10.1,18,17.6,25.2c7.4,7.2,16.2,12.7,25.8,16.4l2.3,1
					c0.8,0.3,1.6,0.5,2.4,0.8l4.8,1.5c1.6,0.5,3.3,0.8,4.9,1.1c1.7,0.3,3.3,0.8,4.9,1c9.6,1.5,19.5,1.3,28.9-0.8
					c9.4-2.1,18.4-6.2,26.1-12C186.9,201.3,194.6,192.8,199.5,184.7z"/>
			</g>
		</g>
	</g>
	<g>
		<g>
			<g>
				<path class="st2" d="M194,148.2c-6.7,15.1-9.1,29.2-9.5,42.7c-0.3,4.3-0.2,8.5,0,12.4c0.1,2.9-0.2,4.2-0.9,3.8
					c-0.8-0.4-1.6-3.3-2.2-6.7c-0.1-0.5-0.2-1-0.2-1.4c-0.8-4-0.9-8.1-1.2-12.2c-0.2-2,0-4.1,0.1-6.1c0.1-2,0.2-4.1,0.4-6.1
					c1.3-8.1,3.3-16.1,7-23.5c0.5-1,0.9-2,1.4-3.1c0.2-0.5,0.5-1.1,0.7-1.6c0.3-0.5,0.6-1,0.8-1.6c1.1-2.1,2.3-4.3,3.4-6.4
					c11.9-20.1,30.6-35.5,52.3-44c12.4-4.8,25.7-6.9,39-6.6c24.6,0.5,49,10.3,66.9,27.2c9.9,9.2,17.8,20.5,23.1,32.9
					c5.3,12.4,8.1,25.9,8,39.4c0.2,2.3-0.1,4.5-0.3,6.7c-0.2,2.2-0.3,4.5-0.7,6.7c-0.9,4.4-1.5,8.9-3,13.2
					c-2.4,8.7-6.4,16.9-11.1,24.5c-2.1,3.1-4.1,6.4-6.6,9.3c-16.3,20.3-40,34.6-65.9,38.5c-12.2,1.9-24.8,1.2-36.9-1.5
					c-21.8-4.9-42-17.3-55.9-34.9c-4.8-5.9-8.8-12.4-12.2-19.2c-0.9-2.1-1.8-4.4-2.6-6.5c-0.2-0.5-0.1-0.9,0-1.1
					c0-0.1,0.3,0.2,0.4,0.5c0.8,1.5,1.6,2.9,2.4,4.5c4.2,8.9,9.7,17.1,16.3,24.4c13.1,14.6,30.7,25.1,49.7,29.6
					c10.4,2.5,21.2,3.2,31.8,2.6c14.5-0.7,28.5-5.4,40.8-12.6c12.4-7.2,23.2-16.9,31.8-28.4c7.7-10.3,13.5-22.2,16.5-34.7
					c2.9-12.1,3.2-24.7,1.1-36.8c-2.1-12.2-6.5-23.9-12.9-34.4c-6.6-10.7-15.3-20-25.4-27.3c-10.1-7.3-21.7-12.7-33.9-15.6
					c-1-0.2-2-0.6-3-0.7l-3-0.5l-6.1-1l-6.1-0.4l-3.1-0.2c-1-0.1-2,0-3.1,0.1c-11.8,0.1-23.7,2.1-34.7,6.4
					c-11,4.2-21.3,10.5-29.9,18.4C207,126.4,198.7,137.7,194,148.2z"/>
			</g>
		</g>
		<g>
			<g>
				<path class="st2" d="M215.3,143.4c-7.6,11.4-11.5,22.5-13.8,33.5c-0.7,3.5-1.3,6.9-1.8,10.1c-0.3,2.4-0.9,3.4-1.5,3
					c-0.7-0.4-1-2.9-1.1-5.8c0-0.4,0-0.8,0-1.2c-0.5-13.6,3.6-27.4,11.6-38.5c0.9-1.6,2.2-3,3.3-4.7c1.2-1.6,2.2-3.4,3.6-4.8
					c6-7.6,13.5-13.9,21.7-18.9c8.2-5,17.2-8.7,26.7-10.9c10.7-2.5,22-2.7,32.8-0.7c10.1,1.8,19.9,5.3,28.6,10.6
					c8.8,5.3,16.6,12.1,22.9,20.2c14,17.6,20.5,40.9,17.5,63.2c-1.1,7.4-2.8,14.8-5.8,21.6c-2.7,7-6.7,13.4-11.1,19.4l-3,3.7
					l-1.5,1.8c-0.5,0.6-1.1,1.1-1.7,1.7c-15,15.6-35.9,25.4-57.6,26.8c-10.2,0.7-20.7-0.8-30.5-4.2c-2.2-0.7-4.3-1.7-6.5-2.6
					c-2.2-0.8-4.2-1.9-6.3-3c-4.1-2.3-7.9-4.9-11.6-7.8c-3.6-3-7-6.2-10.1-9.6c-3.1-3.5-5.9-7.2-8.4-11.1
					c-3.4-5.3-6.4-10.9-8.7-16.8c-0.7-1.8-1.3-3.7-1.7-5.5c-0.1-0.4,0-0.7,0.1-1c0-0.1,0.2,0.2,0.3,0.4c0.6,1.3,1.2,2.5,1.7,3.9
					c3,7.6,6.9,14.8,11.7,21.3c9.6,13.1,22.8,23.7,38.2,29c8.4,2.9,17.2,4.4,26,4.7c12,0.3,23.9-2.3,34.7-7.2
					c10.8-4.9,20.5-12.1,28.3-20.9c7.1-7.9,12.8-17.3,16.3-27.3c6.9-19.4,5.9-41.1-2.3-59.7c-4.1-9.5-10.1-18.2-17.4-25.4
					c-7.4-7.2-16.1-13-25.7-17c-6.2-2.8-12.8-4.2-19.4-5.4c-19.3-2.8-39.7,1.7-55.6,12.7C228.6,127.3,220.5,135.4,215.3,143.4z"/>
			</g>
		</g>
	</g>
	<g>
		<g>
			<g>
				<path class="st2" d="M12.3,61c-1.2-0.6-2.2-1.3-2.9-2.6C9.2,58.1,9,57.6,8.9,57c-0.1-0.4,0-1,0.3-1.6c0.3-0.6,0.6-0.8,0.9-0.8
					c0,0,0.1,0,0.1,0c1.6-0.6,2.8-0.1,3.5,1.5c0.2,0.4,0.6,0.6,0.9,0.8c1.6,1,3.1,2,4.9,2.6c1,0.3,1.9,0.8,2.9,1.2l5.4,2.3l5.9,2.5
					l4,1.5c0.3,0.1,0.6,0.2,0.8,0.3c1.9,0.9,3.8,1.6,5.8,2.1c1,0.2,1.8,0.7,2.7,1.1l4.8,2.2c0.5,0.2,1.1,0.4,1.7,0.6
					c0.2,0.1,0.3,0.2,0.4,0.4c0,0,0,0.3-0.1,0.4c0,0.1-0.1,0.2-0.1,0.2c-0.2,0.1-0.4,0.2-0.5,0.2c-0.8-0.1-1.6-0.2-2.4-0.4
					c-1.5-0.4-3-0.9-4.6-1.3c-0.8-0.2-1.7-0.3-2.5-0.7c-2.1-1.1-4.5-1.3-6.7-2c-1-0.3-1.9-0.8-3-1c-1.9-0.6-3.9-1-5.9-1.6
					c-2-0.6-3.9-1.4-5.8-2.1l-1.9-0.7c-1.8-0.7-3.5-1.6-5.5-2C14.1,62.2,13.2,61.4,12.3,61z"/>
			</g>
		</g>
		<g>
			<g>
				<path class="st2" d="M65.4,14.3c-0.1-1.4-0.1-2.5,0.6-3.8c0.2-0.4,0.6-0.8,1-1.1c0.3-0.3,0.9-0.5,1.5-0.5c0.7-0.1,1,0.1,1.2,0.4
					c0,0,0,0.1,0.1,0.1c1.3,1.1,1.5,2.3,0.6,3.8c-0.2,0.4-0.2,0.8-0.2,1.1c-0.1,1.9-0.1,3.7,0.4,5.5c0.3,1,0.3,2.1,0.5,3.1l1,5.7
					l1.1,6.3l0.8,4.2c0.1,0.3,0.1,0.6,0.2,0.9c0.3,2,0.6,4,1.3,6c0.3,0.9,0.4,1.9,0.5,2.9l0.7,5.2c0.1,0.6,0.3,1.2,0.4,1.7
					c0,0.2,0,0.4-0.1,0.6c0,0-0.2,0.1-0.4,0.2c-0.1,0-0.2,0-0.2,0c-0.2-0.1-0.4-0.2-0.5-0.3c-0.3-0.7-0.6-1.5-0.9-2.2
					c-0.4-1.5-0.9-3-1.3-4.5c-0.2-0.8-0.6-1.6-0.7-2.5c-0.2-2.3-1.3-4.5-1.9-6.7c-0.2-1-0.4-2.1-0.7-3.1c-0.6-2-1.3-3.9-1.8-5.8
					c-0.5-2-0.9-4-1.3-6l-0.4-2c-0.4-1.9-0.5-3.9-1.2-5.7C65.4,16.4,65.6,15.2,65.4,14.3z"/>
			</g>
		</g>
		<g>
			<g>
				<path class="st2" d="M52.2,17.7c3.8-3,7.1-5.3,10.7-7.1c1.1-0.5,2.3-1,3.4-1.3c0.8-0.2,1.5,0,1.8,0.6c0.3,0.7-0.2,1.4-0.8,2.1
					c-0.1,0.1-0.2,0.2-0.3,0.3c-2.8,3.7-6.2,6.5-10.5,8.5c-1.1,0.5-2.2,1.4-3.3,2.1c-5.2,3.8-10.4,7.6-15.4,11.8
					c-2.8,2.4-5.7,4.6-8.6,7L13.1,54.8L7.8,59L5,39l-0.5-3.4l10.2-8.4l2.4-2c5.7-4.5,11.3-9.1,16.7-13.9c2.6-2.3,5.3-4.4,7.9-6.5
					L47.7,0L60,4.5c2,0.7,4,1.3,6,2c0.6,0.2,1.2,0.5,1.8,0.8c0.1,0.1,0.1,0.3,0.1,0.5c0,0.1-0.1,0.1-0.2,0.1c-0.5,0-1,0-1.5-0.1
					c-2.7-0.7-5.3-1.5-8-2.3L48.1,2.3l-4.4,3.8c-2.3,2-4.5,4.1-6.9,5.9c-6.5,5-12.3,10.7-18.6,16c-2.8,2.4-5.7,4.7-8.5,7.1l-1.4,1.2
					l-0.6,0.6l0.1,0.5l0.1,0.2L8,38.1l0.4,2.2l0.8,4.4L10,49l0.2,1.1l0.1,0.5c0,0.2,0,0.1,0,0.2l0.1,0.5l0.1,0.6l0.8-0.7l3.2-2.7
					l7.3-6.1l5.5-4.6c5.3-4.4,10.8-8.6,15.8-13.1C46.2,22,49.6,19.8,52.2,17.7z"/>
			</g>
		</g>
		<g>
			<g>
				<path class="st2" d="M7.2,39.5c-0.5-0.2-0.9-0.6-1.1-1.7C6,37.5,6,37.1,6,36.7c0-0.3,0.1-0.9,0.4-1.5c0.2-0.7,0.4-0.9,0.6-1
					c0,0,0,0,0.1,0c0.9-0.9,1.4-0.8,1.5,0.5c0,0.3,0.2,0.4,0.3,0.5c0.6,0.6,1.3,1.1,2.1,1.2c0.5,0,0.8,0.3,1.3,0.4
					c0.8,0.3,1.6,0.5,2.4,0.7c0.9,0.3,1.7,0.5,2.6,0.8c0.6,0.2,1.2,0.3,1.8,0.4c0.1,0,0.3,0,0.4,0.1c0.8,0.3,1.7,0.5,2.6,0.5
					c0.4,0,0.8,0.2,1.2,0.3c0.7,0.3,1.4,0.6,2.1,0.8c0.2,0.1,0.5,0.1,0.8,0.1c0.1,0,0.1,0.1,0.2,0.2c0,0,0,0.3-0.1,0.4
					c0,0.1-0.1,0.2-0.1,0.2c-0.1,0.1-0.2,0.3-0.3,0.3c-0.4,0.1-0.8,0.2-1.1,0.2c-0.7,0-1.4,0-2.1-0.1c-0.4,0-0.8,0.1-1.1-0.1
					c-0.9-0.5-2.1,0-3-0.2c-0.4-0.1-0.9-0.2-1.3-0.2c-0.9,0-1.8,0.1-2.7,0c-0.9-0.1-1.7-0.3-2.6-0.5c-0.3-0.1-0.6-0.1-0.9-0.2
					c-0.8-0.2-1.5-0.6-2.4-0.5C7.9,40.2,7.6,39.6,7.2,39.5z"/>
			</g>
		</g>
		<g>
			<g>
				<path class="st2" d="M28.8,39.9c-0.1,0.6-0.3,1.1-1.2,1.6c-0.3,0.2-0.7,0.3-1.1,0.5c-0.3,0.1-0.9,0.2-1.6,0.2
					c-0.7,0-1-0.1-1.1-0.2c0,0,0,0-0.1,0c-1.2-0.5-1.2-1.1,0-1.7c0.3-0.2,0.3-0.3,0.4-0.5c0.3-0.8,0.7-1.6,0.4-2.4
					c-0.1-0.5,0-0.9,0-1.4c0-0.9,0-1.7,0-2.6c0-0.9,0-1.9-0.1-2.8c0-0.6-0.1-1.3-0.2-1.9c0-0.1-0.1-0.3,0-0.4c0.1-0.9,0-1.8-0.4-2.7
					c-0.2-0.4-0.1-0.9-0.1-1.3c0-0.8,0.1-1.6,0.1-2.3c0-0.3-0.1-0.5-0.1-0.8c0-0.1,0.1-0.2,0.2-0.2c0,0,0.3,0,0.4,0
					c0.1,0,0.2,0,0.2,0c0.2,0.1,0.4,0.1,0.4,0.2c0.2,0.3,0.4,0.7,0.5,1c0.2,0.7,0.4,1.4,0.6,2.1c0.1,0.4,0.4,0.8,0.3,1.1
					c-0.2,1,0.6,2,0.8,3.1c0.1,0.5,0.1,0.9,0.2,1.4c0.3,0.9,0.6,1.8,0.8,2.7c0.2,0.9,0.3,1.8,0.4,2.7c0,0.3,0.1,0.6,0.1,0.9
					c0.1,0.9-0.1,1.7,0.3,2.6C29.2,39,28.8,39.5,28.8,39.9z"/>
			</g>
		</g>
		<g>
			<g>
				<path class="st2" d="M27.6,23.8c-0.7-0.2-1.2-0.5-1.6-1.5c-0.1-0.3-0.2-0.7-0.3-1.2c0-0.3,0-0.9,0.2-1.6c0.2-0.7,0.3-0.9,0.5-1
					c0,0,0,0,0.1,0c0.8-1,1.3-0.9,1.7,0.3c0.1,0.3,0.3,0.4,0.4,0.5c0.8,0.5,1.6,0.9,2.5,0.8c0.5-0.1,1,0.1,1.5,0.2l2.8,0.3l3,0.3
					c0.7,0,1.4,0.1,2.1,0.1c0.1,0,0.3,0,0.4,0c1,0.2,2,0.3,3,0.2c0.5-0.1,1,0.1,1.4,0.2c0.8,0.2,1.7,0.5,2.5,0.8
					c0.3,0.1,0.6,0.1,0.9,0.1c0.1,0,0.2,0.1,0.2,0.2c0,0,0,0.3-0.1,0.4c0,0.1-0.1,0.2-0.1,0.2c-0.1,0.1-0.2,0.3-0.3,0.3
					c-0.4,0.1-0.8,0.2-1.2,0.2c-0.8,0-1.5,0-2.3,0c-0.4,0-0.9,0.2-1.2,0c-1-0.4-2.2,0.2-3.3,0.2c-0.5,0-1-0.1-1.5,0
					c-1,0.1-2,0.4-2.9,0.5c-1,0.1-2,0-3,0c-0.3,0-0.7,0-1,0c-0.9,0-1.9-0.3-2.8-0.1C28.5,24.4,28,23.9,27.6,23.8z"/>
			</g>
		</g>
		<g>
			<g>
				<path class="st2" d="M45.4,4.3c0.1-0.6,0.3-1.2,1.2-1.7c0.3-0.2,0.7-0.3,1.1-0.5c0.3-0.1,0.9-0.2,1.6-0.1c0.7,0,1,0.1,1.1,0.2
					c0,0,0,0,0.1,0c1.1,0.6,1.2,1.1,0,1.7c-0.3,0.2-0.3,0.3-0.4,0.5c-0.3,0.8-0.7,1.7-0.5,2.5c0.1,0.5,0,1,0,1.4c0,0.9,0,1.8,0,2.7
					c0,1,0,1.9,0,2.9c0,0.6,0.1,1.3,0.1,1.9c0,0.1,0,0.3,0,0.4c-0.1,0.9,0,1.9,0.3,2.8c0.2,0.4,0.1,0.9,0.1,1.3
					c0,0.8-0.1,1.6-0.1,2.4c0,0.3,0.1,0.5,0.1,0.8c0,0.1-0.1,0.2-0.2,0.3c0,0-0.3,0-0.4,0c-0.1,0-0.2,0-0.2,0
					c-0.2-0.1-0.4-0.1-0.4-0.2c-0.2-0.4-0.4-0.7-0.5-1.1c-0.2-0.7-0.4-1.4-0.6-2.1c-0.1-0.4-0.4-0.8-0.3-1.2
					c0.2-1.1-0.6-2.1-0.7-3.2c-0.1-0.5-0.1-1-0.2-1.4c-0.2-0.9-0.6-1.8-0.8-2.8c-0.2-0.9-0.2-1.9-0.4-2.8c0-0.3-0.1-0.6-0.1-0.9
					c-0.1-0.9,0.1-1.8-0.3-2.7C45,5.3,45.5,4.8,45.4,4.3z"/>
			</g>
		</g>
		<g>
			<g>
				<path class="st2" d="M27.5,47.1c-0.9-0.8-1.6-1.6-1.9-2.9c-0.1-0.4-0.1-0.9-0.1-1.4c0-0.4,0.3-0.9,0.7-1.4
					c0.4-0.6,0.8-0.6,1-0.6c0,0,0.1,0,0.1,0c1.6-0.3,2.5,0.4,2.7,2c0.1,0.4,0.3,0.6,0.6,0.9c1.1,1.2,2.2,2.4,3.6,3.2
					c0.8,0.4,1.5,1.1,2.2,1.6c1.4,1,2.8,2,4.2,3c1.5,1.1,3,2.2,4.6,3.3c1,0.7,2.1,1.4,3.1,2.1c0.2,0.1,0.5,0.3,0.7,0.4
					c1.4,1.1,2.9,2.1,4.6,2.9c0.8,0.4,1.4,0.9,2.1,1.4c1.2,0.9,2.4,1.9,3.7,2.8c0.4,0.3,0.9,0.5,1.4,0.8c0.1,0.1,0.2,0.3,0.3,0.4
					c0,0-0.1,0.2-0.2,0.4c0,0-0.1,0.1-0.2,0.1c-0.2,0.1-0.4,0.2-0.5,0.1c-0.7-0.2-1.4-0.5-2-0.8c-1.2-0.6-2.5-1.3-3.7-2
					c-0.7-0.4-1.4-0.6-2-1.1c-1.6-1.3-3.6-1.9-5.4-3c-0.8-0.5-1.5-1-2.3-1.5c-1.6-0.8-3.2-1.6-4.8-2.5c-1.6-0.9-3.1-1.9-4.6-2.9
					c-0.5-0.3-1-0.6-1.5-1c-1.4-1-2.7-2.1-4.3-2.8C28.8,48.5,28.2,47.6,27.5,47.1z"/>
			</g>
		</g>
		<g>
			<g>
				<path class="st2" d="M47.8,29.2c-0.5-1.1-0.7-2.1-0.3-3.4c0.1-0.4,0.3-0.8,0.6-1.3c0.2-0.3,0.7-0.7,1.3-0.9
					c0.7-0.3,1-0.2,1.2-0.1c0,0,0,0,0.1,0.1c1.5,0.5,2,1.4,1.5,3c-0.1,0.4,0,0.7,0.1,1c0.4,1.6,0.8,3.1,1.7,4.5
					c0.5,0.8,0.8,1.6,1.2,2.4c0.8,1.5,1.5,3,2.3,4.5c0.8,1.6,1.7,3.3,2.5,4.9c0.6,1.1,1.2,2.2,1.8,3.2c0.1,0.2,0.3,0.4,0.4,0.7
					c0.7,1.6,1.6,3.2,2.7,4.6c0.5,0.7,0.8,1.5,1.2,2.2c0.7,1.4,1.3,2.8,1.9,4.1c0.2,0.5,0.6,0.9,0.8,1.3c0.1,0.1,0.1,0.3,0.1,0.5
					c0,0-0.2,0.2-0.3,0.2c0,0-0.2,0.1-0.2,0.1c-0.2,0-0.4,0-0.5-0.1c-0.5-0.5-1-1-1.4-1.6c-0.8-1.1-1.5-2.3-2.3-3.4
					c-0.4-0.6-1-1.2-1.3-1.9c-0.7-1.9-2.3-3.3-3.3-5c-0.5-0.8-0.9-1.6-1.4-2.3c-1-1.5-2.1-2.8-3.1-4.3c-1-1.5-1.8-3.1-2.7-4.6
					c-0.3-0.5-0.6-1-0.9-1.5c-0.8-1.5-1.4-3.1-2.5-4.4C48.2,31,48.2,30,47.8,29.2z"/>
			</g>
		</g>
	</g>
	<g>
		<g>
			<g>
				<path class="st1" d="M364.9,69.1c1.1-0.8,2.2-1.3,3.6-1.3c0.4,0,0.9,0.1,1.5,0.3c0.4,0.1,0.8,0.5,1.2,1.1
					c0.4,0.6,0.4,0.9,0.3,1.2c0,0,0,0.1-0.1,0.1c-0.3,1.7-1.3,2.5-3,2.4c-0.5,0-0.8,0.2-1.1,0.4c-1.6,0.9-3.3,1.8-4.6,3.1
					c-0.7,0.7-1.6,1.3-2.4,2l-4.5,3.7l-4.9,4l-3.2,2.8c-0.2,0.2-0.4,0.4-0.7,0.6c-1.6,1.2-3.2,2.6-4.6,4.1c-0.6,0.7-1.4,1.3-2.2,1.9
					l-4.2,3.2c-0.5,0.4-0.9,0.8-1.3,1.2c-0.1,0.1-0.3,0.2-0.5,0.2c0,0-0.2-0.2-0.3-0.3c0,0-0.1-0.1-0.1-0.2c0-0.2,0-0.4,0.1-0.6
					c0.5-0.6,1-1.3,1.5-1.9c1.1-1.1,2.2-2.3,3.3-3.4c0.6-0.6,1.1-1.4,1.8-1.8c1.9-1.3,3.2-3.4,4.9-4.9c0.8-0.7,1.6-1.4,2.3-2.1
					c1.4-1.5,2.7-3,4.2-4.4c1.5-1.4,3.1-2.8,4.6-4.2l1.5-1.4c1.5-1.3,3.1-2.4,4.4-3.9C363.1,70.1,364.2,69.7,364.9,69.1z"/>
			</g>
		</g>
		<g>
			<g>
				<path class="st1" d="M298.7,44.4c-0.1-1.4,0-2.5,0.8-3.8c0.2-0.4,0.6-0.8,1-1.1c0.3-0.3,0.9-0.5,1.5-0.5c0.7-0.1,1,0.1,1.2,0.4
					c0,0,0,0.1,0.1,0.1c1.3,1.1,1.4,2.4,0.5,3.8c-0.3,0.4-0.2,0.8-0.3,1.2c-0.1,1.9-0.2,3.7,0.2,5.5c0.2,1,0.2,2.1,0.4,3.1l0.7,5.8
					l0.8,6.3l0.6,4.2c0,0.3,0.1,0.6,0.1,0.9c0.2,2,0.5,4.1,1.1,6.1c0.3,0.9,0.3,1.9,0.4,2.9l0.5,5.3c0.1,0.6,0.2,1.2,0.3,1.8
					c0,0.2,0,0.4-0.1,0.6c0,0-0.2,0.1-0.4,0.1c-0.1,0-0.2,0-0.2,0c-0.2-0.1-0.4-0.2-0.4-0.4c-0.3-0.8-0.6-1.5-0.8-2.3
					c-0.4-1.5-0.7-3.1-1.1-4.6c-0.2-0.8-0.6-1.7-0.6-2.5c-0.1-2.3-1.1-4.5-1.6-6.8c-0.2-1-0.3-2.1-0.6-3.1c-0.5-2-1.1-3.9-1.5-5.9
					c-0.4-2-0.7-4-1.1-6.1l-0.3-2c-0.3-1.9-0.3-3.9-0.9-5.7C298.5,46.6,298.8,45.4,298.7,44.4z"/>
			</g>
		</g>
		<g>
			<g>
				<path class="st1" d="M315.8,48.5c-4.4-1.9-8.1-3.7-11.3-6.1c-1-0.7-2-1.6-2.8-2.4c-0.6-0.6-0.7-1.3-0.3-1.8
					c0.4-0.6,1.3-0.5,2.2-0.3c0.1,0,0.3,0.1,0.4,0.1c4.6,0.7,8.7,2.4,12.4,5.2c1,0.7,2.3,1.3,3.4,1.9c5.8,2.8,11.6,5.6,17.7,7.9
					c3.4,1.3,6.8,2.9,10.2,4.3l18.7,7.8l2.5,1l-2.3-15.3l-0.3-1.8l-10.8-4.4l-2.9-1.2c-6.7-2.9-13.3-5.6-20.2-8.1
					c-3.2-1.2-6.4-2.6-9.5-3.9l-5.1-2.2l-9,6.4c-1.7,1.2-3.4,2.6-5,3.8c-0.5,0.4-1.1,0.7-1.7,1c-0.1,0.1-0.3-0.1-0.5-0.1
					c-0.1,0,0-0.2,0-0.3c0.3-0.4,0.5-0.8,0.9-1.2c2.1-1.8,4.2-3.6,6.4-5.3l8.6-6.7l5.6,2.1c2.8,1.1,5.7,2,8.5,3.2
					c7.5,3.3,15.3,5.8,22.9,8.8c3.4,1.4,6.8,2.8,10.3,4.1l4.3,1.6l0.5,3.1L370,52l0.8,4.4l0.8,4.4l0.4,2.5l0.6,3.8l0.8,5L352,63.4
					l-6.6-2.6c-6.4-2.6-12.6-5.4-19.1-7.7C322.4,51.7,318.9,49.8,315.8,48.5z"/>
			</g>
		</g>
		<g>
			<g>
				<path class="st1" d="M364.2,46.7c0.5-0.3,1.1-0.3,2,0.2c0.3,0.2,0.6,0.4,1,0.7c0.3,0.2,0.6,0.7,1,1.2c0.4,0.6,0.4,0.9,0.4,1
					c0,0,0,0,0,0.1c0.2,1.3-0.3,1.6-1.4,0.9c-0.3-0.2-0.4-0.1-0.6-0.1c-0.8,0.1-1.7,0.3-2.2,0.9c-0.3,0.3-0.8,0.5-1.1,0.7
					c-0.7,0.5-1.4,0.9-2.1,1.4c-0.8,0.5-1.5,1-2.3,1.5c-0.5,0.3-1,0.7-1.4,1.1c-0.1,0.1-0.2,0.2-0.3,0.2c-0.8,0.4-1.5,0.9-2,1.7
					c-0.3,0.4-0.6,0.5-1,0.7c-0.6,0.4-1.3,0.7-2,1.1c-0.2,0.1-0.4,0.4-0.6,0.5c-0.1,0-0.2,0-0.3,0c0,0-0.2-0.2-0.3-0.3
					c0,0-0.1-0.2-0.1-0.2c0-0.2-0.1-0.4-0.1-0.4c0.2-0.3,0.3-0.7,0.6-1c0.4-0.5,0.9-1,1.4-1.6c0.2-0.3,0.4-0.7,0.8-0.8
					c0.9-0.4,1.3-1.6,2.1-2.2c0.3-0.3,0.7-0.5,1-0.9c0.6-0.7,1.1-1.5,1.7-2.1c0.6-0.6,1.3-1.2,2-1.7c0.2-0.2,0.4-0.4,0.7-0.6
					c0.7-0.5,1.5-0.8,1.9-1.6C363.3,46.8,363.9,46.9,364.2,46.7z"/>
			</g>
		</g>
		<g>
			<g>
				<path class="st1" d="M352.2,56.5c0.1,0.6,0,1.2-0.8,1.9c-0.2,0.2-0.6,0.5-1,0.7c-0.3,0.2-0.9,0.4-1.5,0.5
					c-0.7,0.2-1,0.1-1.1,0.1c0,0,0,0-0.1,0c-1.3-0.2-1.4-0.8-0.4-1.6c0.3-0.2,0.2-0.4,0.3-0.6c0.1-0.9,0.2-1.7-0.2-2.5
					c-0.2-0.4-0.2-0.9-0.4-1.4c-0.2-0.8-0.5-1.7-0.7-2.5c-0.3-0.9-0.5-1.8-0.8-2.7c-0.2-0.6-0.4-1.2-0.6-1.8c0-0.1-0.1-0.2-0.1-0.4
					c-0.2-0.9-0.5-1.8-1-2.6c-0.3-0.4-0.3-0.8-0.4-1.2c-0.2-0.8-0.3-1.5-0.5-2.3c-0.1-0.3-0.2-0.5-0.3-0.7c0-0.1,0-0.2,0.1-0.3
					c0,0,0.2-0.1,0.4-0.1c0.1,0,0.2,0,0.2,0c0.2,0,0.4,0,0.4,0.1c0.3,0.3,0.6,0.6,0.8,0.9c0.4,0.6,0.7,1.2,1.1,1.9
					c0.2,0.3,0.5,0.6,0.6,1c0.1,1,1.1,1.8,1.5,2.8c0.2,0.4,0.3,0.9,0.5,1.3c0.5,0.8,1.1,1.6,1.5,2.4c0.4,0.8,0.7,1.7,1,2.6
					c0.1,0.3,0.2,0.6,0.3,0.8c0.3,0.8,0.3,1.7,0.9,2.4C352.3,55.5,352,56.1,352.2,56.5z"/>
			</g>
		</g>
		<g>
			<g>
				<path class="st1" d="M340.9,37c0.6-0.2,1.2-0.2,2,0.4c0.3,0.2,0.6,0.5,0.9,0.8c0.2,0.2,0.6,0.8,0.8,1.3c0.3,0.6,0.3,0.9,0.3,1.1
					c0,0,0,0,0,0.1c-0.1,1.3-0.6,1.6-1.7,0.8c-0.3-0.2-0.5-0.1-0.7-0.1c-1,0-1.9,0.1-2.6,0.6c-0.4,0.3-0.9,0.4-1.4,0.6l-2.6,1.1
					c-0.9,0.4-1.9,0.8-2.8,1.2c-0.6,0.3-1.2,0.6-1.8,0.9c-0.1,0.1-0.2,0.2-0.4,0.2c-0.9,0.3-1.8,0.8-2.5,1.5
					c-0.3,0.3-0.8,0.5-1.2,0.7c-0.7,0.3-1.5,0.7-2.2,1.1c-0.2,0.1-0.4,0.4-0.6,0.5c-0.1,0-0.2,0-0.3,0c0,0-0.2-0.2-0.3-0.3
					c0,0-0.1-0.2-0.1-0.2c0-0.2-0.1-0.4-0.1-0.4c0.2-0.4,0.4-0.7,0.7-1c0.5-0.6,1.1-1.1,1.7-1.6c0.3-0.3,0.6-0.7,1-0.8
					c1.1-0.3,1.8-1.5,2.7-2.1c0.4-0.3,0.9-0.5,1.3-0.8c0.8-0.6,1.5-1.3,2.4-1.9c0.8-0.6,1.7-1,2.6-1.4c0.3-0.2,0.6-0.3,0.8-0.5
					c0.8-0.4,1.7-0.6,2.4-1.3C339.9,37,340.6,37.2,340.9,37z"/>
			</g>
		</g>
		<g>
			<g>
				<path class="st1" d="M315.2,30.1c-0.1-0.6,0-1.2,0.7-1.9c0.2-0.2,0.6-0.5,1-0.7c0.3-0.2,0.9-0.4,1.5-0.6c0.7-0.2,1-0.1,1.1-0.1
					c0,0,0,0,0.1,0c1.3,0.2,1.4,0.8,0.5,1.7c-0.3,0.2-0.2,0.4-0.2,0.6c-0.1,0.9-0.2,1.8,0.2,2.5c0.2,0.4,0.2,0.9,0.4,1.4
					c0.2,0.9,0.5,1.7,0.7,2.6c0.3,0.9,0.5,1.9,0.8,2.8c0.2,0.6,0.4,1.2,0.7,1.8c0,0.1,0.1,0.3,0.1,0.4c0.2,0.9,0.5,1.8,1.1,2.6
					c0.3,0.4,0.3,0.8,0.4,1.3c0.2,0.8,0.3,1.6,0.5,2.4c0.1,0.3,0.2,0.5,0.3,0.8c0,0.1,0,0.2-0.1,0.3c0,0-0.2,0.1-0.4,0.1
					c-0.1,0-0.2,0-0.2,0c-0.2,0-0.4,0-0.4-0.1c-0.3-0.3-0.6-0.6-0.8-0.9c-0.4-0.6-0.7-1.3-1.1-1.9c-0.2-0.3-0.6-0.7-0.6-1.1
					c-0.1-1.1-1.1-1.9-1.6-2.9c-0.2-0.4-0.3-0.9-0.6-1.3c-0.5-0.8-1.1-1.6-1.5-2.4c-0.4-0.8-0.7-1.7-1.1-2.6
					c-0.1-0.3-0.3-0.6-0.4-0.9c-0.3-0.8-0.4-1.7-1-2.5C315.1,31.1,315.4,30.5,315.2,30.1z"/>
			</g>
		</g>
		<g>
			<g>
				<path class="st1" d="M345.5,61c0.8-0.9,1.6-1.5,2.9-1.8c0.4-0.1,0.9-0.1,1.4,0c0.4,0,0.9,0.3,1.4,0.8c0.5,0.5,0.6,0.8,0.6,1.1
					c0,0,0,0.1,0,0.1c0.2,1.6-0.5,2.5-2.1,2.6c-0.4,0-0.7,0.3-0.9,0.5c-1.3,1.1-2.5,2.1-3.4,3.5c-0.5,0.8-1.1,1.4-1.7,2.2
					c-1.1,1.3-2.1,2.7-3.2,4.1c-1.2,1.5-2.3,3-3.4,4.5c-0.8,1-1.5,2-2.2,3c-0.2,0.2-0.3,0.4-0.5,0.6c-1.2,1.4-2.2,2.8-3.1,4.5
					c-0.4,0.8-1,1.4-1.5,2.1c-1,1.2-2,2.4-3,3.6c-0.3,0.4-0.6,0.9-0.9,1.3c-0.1,0.1-0.3,0.2-0.4,0.3c0,0-0.2-0.1-0.4-0.2
					c0,0-0.1-0.1-0.1-0.2c0-0.2-0.1-0.4-0.1-0.5c0.3-0.7,0.5-1.3,0.9-1.9c0.7-1.2,1.4-2.4,2.1-3.6c0.4-0.7,0.7-1.4,1.2-2
					c1.4-1.5,2.1-3.6,3.2-5.3c0.5-0.8,1.1-1.5,1.6-2.3c0.9-1.5,1.7-3.2,2.6-4.7c1-1.5,2-3,3.1-4.5c0.3-0.5,0.7-1,1-1.5
					c1-1.4,2.2-2.6,3-4.2C344,62.2,345,61.7,345.5,61z"/>
			</g>
		</g>
		<g>
			<g>
				<path class="st1" d="M319.8,52c0.3-1.1,0.7-2.1,1.8-2.9c0.3-0.2,0.8-0.5,1.3-0.6c0.4-0.1,1-0.1,1.6,0c0.7,0.2,0.9,0.4,1,0.7
					c0,0,0,0.1,0,0.1c0.9,1.3,0.7,2.4-0.6,3.2c-0.4,0.2-0.4,0.6-0.6,0.9c-0.6,1.5-1.2,3-1.3,4.6c0,0.9-0.3,1.8-0.5,2.7
					c-0.3,1.7-0.6,3.3-0.9,5c-0.3,1.8-0.7,3.6-1,5.4c-0.2,1.2-0.4,2.4-0.5,3.7c0,0.3,0,0.5-0.1,0.8c-0.4,1.7-0.7,3.5-0.6,5.3
					c0,0.9-0.2,1.7-0.4,2.5c-0.3,1.5-0.7,3-1,4.5c-0.1,0.5-0.1,1-0.2,1.5c0,0.2-0.1,0.3-0.3,0.4c0,0-0.3,0-0.4,0
					c-0.1,0-0.2,0-0.2-0.1c-0.1-0.1-0.3-0.3-0.3-0.4c-0.1-0.7-0.2-1.4-0.1-2.1c0-1.4,0.1-2.7,0.2-4.1c0-0.7-0.1-1.5,0.1-2.2
					c0.5-1.9,0.2-4,0.4-6c0.1-0.9,0.3-1.8,0.3-2.7c0.1-1.8,0-3.5,0.2-5.3c0.1-1.8,0.4-3.5,0.6-5.3c0.1-0.6,0.1-1.2,0.2-1.7
					c0.2-1.7,0.7-3.3,0.7-5C319.1,53.7,319.7,52.9,319.8,52z"/>
			</g>
		</g>
	</g>
</g>
</svg>
