<?xml version="1.0" encoding="utf-8"?>
<!-- Generator: Adobe Illustrator 24.0.0, SVG Export Plug-In . SVG Version: 6.00 Build 0)  -->
<svg version="1.1" xmlns="http://www.w3.org/2000/svg" xmlns:xlink="http://www.w3.org/1999/xlink" x="0px" y="0px"
	 viewBox="0 0 200 200" style="enable-background:new 0 0 200 200;" xml:space="preserve">
<style type="text/css">
	.st0{fill:#FFFFFF;}
	.st1{fill:#A57127;}
	.st2{fill:#DC9C2E;}
	.st3{fill:none;}
	.st4{fill:#E6E6E6;}
	.st5{fill:#C59444;}
</style>
<g id="BACKGROUND">
</g>
<g id="OBJECTS">
	<g>
		<g>
			<path class="st2" d="M141.3,183c-10.9,6.8-22.1,12.9-35.2,14.3c-2.7,0.3-5.2,1.5-7.9,1.4c-2.3-0.6-4.4,0.7-6.6,0.7
				c-11.6-0.3-23-1.9-33.9-5.9c-2.2-0.8-4-2.6-6.4-2.9c-7.8-1.3-14.4-5-20.9-9.3c-8.2-5.5-13.9-13-18.9-21.2c-1.4-2.2-2.8-4.5-4-6.9
				c-2.3-4.5-2.9-9.6-5.4-14c-2.7-8-2.4-16.2-1.6-24.3C1.8,101.5,6,89.2,12.2,77.4c1.7-3.3,2.4-7.2,4.3-10.6c0.5,0.6,1,0.6,1.3-0.1
				c1.8-4.4,3.5-8.8,5.2-13.3c1.3-3.4,2-6.9,3.4-10.3C31.3,32,38,22.5,49.2,16.8c0.8-0.4,1.5-0.8,1.4-1.8c0,0,0,0,0,0
				c4,0,7.8-1.2,11.4-2.8c16.9-1.3,33.2-5.5,49.6-10c34.6-9.5,62.2,14.2,69.2,43.1c2.3,9.3,2.9,18.8,4.6,28.2c1.2,6.6,3.4,13,6,19.2
				c2.1,4.8,4.4,9.5,6.3,14.3c3.4,9,3.3,17.9-1.3,26.5c-1.6,0-1.1,1.3-1.5,2.1c0,0,0-0.1,0-0.1c-4.1,3.7-7.2,8.7-13.1,10.1
				c-0.6,0.1-1.1,0.8-1.6,1.4c-4.4,5.2-9.8,9.6-15.2,13.6c-5.8,4.4-10.8,9.6-16,14.5c-1.8,1.7-4.6,2.9-5.3,5.8l0,0
				C142.3,180.9,141.1,181.1,141.3,183z M66.2,190.9c-1.7-2.4-4.4-1.7-6.6-2.5C61.2,191,63.7,191,66.2,190.9
				c0.1,0.7,0.5,1.4,1.4,1.3c5-0.6,9.7,1.2,14.5,1.5c12.3,0.7,24.2-1.2,36.1-4.5c9.8-2.7,18-8,26-13.5c7.8-5.4,13.9-12.9,21.5-18.5
				c2.3-1.7,3.8-4.4,5.5-6.6c-3.4,2.2-6.8,4.8-10,7.7c-5.1,4.7-10.9,8.7-16.1,13.2c-18,15.7-39.5,20.4-62.5,19.2
				C77.1,190.4,71.7,190.9,66.2,190.9z M181.7,105.5c0.3,0,0.6,0.1,0.9,0.1c0,6.7,0.1,13.4-0.1,20c-0.1,1.9-1,3.9-2,5.6
				c-2.4,4.3-5.1,8.4-7.7,12.6c-0.3,0.5-0.9,1-0.1,1.5c0.6,0.4,1.1,0,1.5-0.5c5.4-5.8,9.4-12.3,11.3-20c2.7-10.8,2-21.4-1.2-32.1
				c-1.6-5.4-4.6-10.2-5.6-15.8c-1-5.1-3.1-9.9-5.1-14.6c-4.5-10.4-11.4-19-20.2-26.3c-9.5-7.9-20.6-11.6-32.3-14
				c-8.1-1.7-16.1,0.3-24.2,1.2c4.4,0.3,8.9,0.3,13.3,0.3c9.2,0,10.5,0.3,12.5,2.6c-0.6,0-1,0.2-1.5,0.1c-11.5-2.5-23-1.5-34.3,0.9
				c-4.9,1.1-9.7,3-14.5,4.3c-3.7,1-7.5,2.2-10.8,3.9c-7.7,3.8-13.2,10.6-18.8,16.9c-1.7,2-3.7,4.2-4.8,6.8c-2.1,5-4.3,9.9-5.2,15.4
				c-1.2,6.9-3,13.8-3.3,20.9c-0.6,14.6,2.1,28.5,8.8,41.7c5,9.8,11.6,18.2,20.5,24.8c10.8,8.1,23,12.7,36.3,14.7
				c8.3,1.2,16.6,0.5,24.6-1c6.7-1.3,13.3-3.9,19.6-7.2c1.2-0.6,3.2-1.8,3.9-1.3c2.5,1.7,4-0.3,5.5-1.3c5.2-3.4,9.9-7.6,14.3-12.1
				c3.9-3.9,5.4-9.3,8.7-13.5c3.9-4.9,5.6-10.8,7-16.7C179.9,117.5,180.6,111.5,181.7,105.5z M8,116.2c0,2.1-0.3,4.3,0.1,6.4
				c0.8,5.1,0.7,10.3,3.5,14.9c0.4,0.6,0.6,1.4,1.4,1.2c0.9-0.2,0.7-1.1,0.7-1.8c0-2,0-4,0-6c-0.1-10-0.1-20,1.4-29.9
				c1.1-7.3,3.8-14.1,5.7-21.1c2-7.5,4-15.1,7.7-22c0.8-1.5,1.4-2.6-0.5-3.4c-1.7-0.7-2.3,0.4-3,2c-3.5,7.8-6.6,15.7-9.3,23.7
				C11.6,91.8,7.4,103.5,8,116.2z M96.6,186.2c-7.2-0.4-14.2-2.3-21-4.2c-17-4.6-31.9-12.9-42.9-27.2c-7.4-9.6-12.1-20.4-13.5-32.4
				c-0.1-0.9,0.3-2.3-1-2.3c-1.3,0-0.9,1.5-0.9,2.3c0.2,2.8,0.3,5.7,0.9,8.4C21.4,146,29,158.5,41,168.4
				C57.2,181.6,75.7,187.6,96.6,186.2z M119.8,9.6c0,0.4,0,0.7,0,1.1c1.4,0,2.8-0.1,4.2,0c1.4,0.1,2.8,0.4,4.2,0.6
				c14.1,1.9,26.6,7.1,36.3,17.9c0.6,0.6,1.2,1.9,2.2,0.9c0.8-0.7-0.2-1.5-0.7-2.1c-6.5-9.4-15.3-15.5-26.4-18
				C133.1,8.7,126.4,9.3,119.8,9.6z M71.9,18.7c-5.6-0.6-10.2,0.5-14.6,2.1c-1.2,0.4-2.6,1.2-2.4,2.6c0.2,1.5,1.9,1,2.7,0.8
				C62.2,22.5,67.2,22,71.9,18.7z M191,114.1c0,0.9,0,1.6,0,2.3c0.1,1,0,2.2,1.5,2.3c1.6,0.1,1.8-1.1,1.8-2.3c0-0.6,0-1.2,0-1.7
				c-0.1-1.8-0.6-4.4-2.1-4.3C190,110.4,191.6,113,191,114.1z"/>
		</g>
		<path class="st5" d="M106.5,26.9c41-0.1,72.8,33.4,72.6,74.4c-0.2,40.8-33.1,73.7-75.3,73.7c-42.4,0.1-73.4-33.8-73-76
			C31.1,59.2,63.1,26.7,106.5,26.9z M130.2,159.6c0.8-0.2,1.6-0.4,2.4-0.7c22.7-10.4,34.9-28.4,37.1-52.8
			c1.6-17.4-3.2-33.3-14.8-46.9C143.5,45.9,129,38.7,112,36.6c-14.3-1.8-28,1.2-40.6,8.6c-12.9,7.4-21.2,18.5-26.7,32
			c-0.4,0.9-0.3,0.9,0.3,2.9c3.7-10.1,9.1-18.9,17-25.8c13.6-12,29.4-17.5,47.8-16.1c18.5,1.5,33.7,9.1,44.9,23.7
			c14.5,18.9,17.3,40,8.9,62.2c-4.6,12.1-13,21.4-23.6,28.9C136.8,155.3,132.7,156.3,130.2,159.6c-0.2,0.2-0.9-0.3-0.8,0.5
			C129.7,160,129.9,159.8,130.2,159.6z M38.3,86.4c-5.2,13.7-1.4,44.8,20.2,65.6c20.2,19.5,50.7,23.3,78.7,9.4
			c26.6-13.2,40.4-41.7,35-69.7c0,4.5,0.2,8.7,0,13c-0.9,15.9-6.4,30-17.5,41.5c-16.4,16.9-36.6,23.7-59.9,20.8
			c-20.6-2.5-35.9-13.7-46.5-30.8c-6.8-11-10.4-23.4-10-36.7C38.4,95.2,38.3,90.9,38.3,86.4z M70.8,42.2c-1.4-0.3-2.2,0.8-3.2,1.2
			c-4.6,1.8-7.9,5.5-11.3,8.8c-8.5,8.2-14.5,18.1-17.5,29.6c-0.2,0.9-1.3,2.4,0.1,2.8c1.8,0.4,1.2-1.6,1.4-2.5
			c4.3-16,13.7-28.2,27.4-37.3C68.7,44.1,70.2,43.7,70.8,42.2z"/>
		<g>
			<path class="st1" d="M2.2,139.1c2.5,4.4,3.1,9.5,5.4,14c1.2,2.4,2.6,4.7,4,6.9c5,8.2,10.7,15.8,18.9,21.2
				c6.5,4.3,13.1,8,20.9,9.3c2.4,0.4,4.2,2.2,6.4,2.9c10.9,4,22.3,5.6,33.9,5.9c2.2,0.1,4.3-1.3,6.6-0.7c-2,1.4-4.3,1.1-6.4,1.2
				c-22.6,0.7-44-3.8-62.6-17.3c-14.6-10.5-23.5-25.2-27.5-42.7C1.6,139.7,2,139.4,2.2,139.1z"/>
			<path class="st1" d="M143.7,181c0.6-2.9,3.5-4.1,5.3-5.8c5.2-5,10.2-10.2,16-14.5c5.4-4.1,10.8-8.4,15.2-13.6
				c0.4-0.5,1-1.2,1.6-1.4c5.9-1.4,9-6.4,13.1-10.1c-1.3,4.8-4.7,8.2-8.4,10.9c-14.3,10.1-27,22-40.4,33.1
				C145.4,180.2,144.8,181,143.7,181z"/>
			<path class="st1" d="M50.6,14.9c0.1,1-0.6,1.4-1.4,1.8C38,22.5,31.3,32,26.4,43.1c-1.5,3.3-2.2,6.9-3.4,10.3
				c-1.7,4.5-3.4,8.9-5.2,13.3c-0.3,0.7-0.8,0.7-1.3,0.1c3.5-9.3,5.2-19.1,9.9-27.9c5.3-10.1,12.2-18.7,22.9-23.6
				C49.7,15.1,50.1,15.1,50.6,14.9z"/>
			<path class="st2" d="M61.9,12.2c-3.6,1.6-7.4,2.8-11.4,2.8C54.1,13.2,57.9,12.2,61.9,12.2z"/>
			<path class="st2" d="M141.3,183c-0.3-1.9,1-2.1,2.4-2C143.3,182,142.2,182.4,141.3,183z"/>
			<path class="st2" d="M194.8,135.6c0.3-0.8-0.1-2.2,1.5-2.1C196,134.3,196,135.4,194.8,135.6z"/>
			<path class="st1" d="M181.7,105.5c-1.1,6-1.8,12-3.2,17.9c-1.4,5.9-3.1,11.8-7,16.7c-3.4,4.2-4.8,9.5-8.7,13.5
				c-4.4,4.5-9,8.7-14.3,12.1c-1.5,1-3,3-5.5,1.3c-0.7-0.5-2.6,0.7-3.9,1.3c-6.2,3.2-12.8,5.8-19.6,7.2c-8,1.6-16.3,2.3-24.6,1
				c-13.3-2-25.5-6.6-36.3-14.7c-8.9-6.6-15.5-15-20.5-24.8c-6.7-13.1-9.4-27.1-8.8-41.7c0.3-7.1,2.1-13.9,3.3-20.9
				c0.9-5.5,3.2-10.4,5.2-15.4c1.1-2.6,3.1-4.8,4.8-6.8c5.6-6.3,11.1-13.1,18.8-16.9c3.3-1.6,7.1-2.9,10.8-3.9
				c4.8-1.3,9.6-3.3,14.5-4.3c11.4-2.5,22.8-3.4,34.3-0.9c0.4,0.1,0.9-0.1,1.5-0.1c-1.9-2.3-3.3-2.5-12.5-2.6c-4.4,0-8.9,0-13.3-0.3
				c8-0.8,16-2.9,24.2-1.2c11.8,2.4,22.8,6.1,32.3,14c8.8,7.3,15.8,15.9,20.2,26.3c2,4.7,4.1,9.4,5.1,14.6c1,5.5,4,10.4,5.6,15.8
				c3.2,10.6,3.9,21.3,1.2,32.1c-1.9,7.7-5.9,14.2-11.3,20c-0.5,0.5-1,0.8-1.5,0.5c-0.7-0.5-0.2-1,0.1-1.5c2.6-4.2,5.3-8.3,7.7-12.6
				c1-1.7,1.9-3.7,2-5.6c0.2-6.7,0.1-13.3,0.1-20C182.3,105.6,182,105.5,181.7,105.5z M106.5,26.9C63.1,26.7,31.1,59.2,30.8,99
				c-0.4,42.2,30.6,76.1,73,76c42.2-0.1,75.1-33,75.3-73.7C179.3,60.3,147.5,26.7,106.5,26.9z"/>
			<path class="st1" d="M8,116.2c-0.6-12.7,3.5-24.3,7.6-36c2.8-8,5.8-16,9.3-23.7c0.7-1.5,1.3-2.6,3-2c1.9,0.8,1.2,1.9,0.5,3.4
				c-3.7,6.9-5.6,14.5-7.7,22c-1.9,7-4.6,13.8-5.7,21.1c-1.5,9.9-1.5,19.9-1.4,29.9c0,2,0,4,0,6c0,0.7,0.2,1.6-0.7,1.8
				c-0.9,0.2-1-0.6-1.4-1.2c-2.8-4.6-2.7-9.9-3.5-14.9C7.8,120.5,8,118.3,8,116.2z"/>
			<path class="st1" d="M96.6,186.2c-20.9,1.4-39.4-4.6-55.6-17.9c-12-9.8-19.5-22.3-22.7-37.4c-0.6-2.7-0.7-5.6-0.9-8.4
				c-0.1-0.8-0.5-2.3,0.9-2.3c1.3,0,0.9,1.4,1,2.3c1.4,12.1,6.1,22.9,13.5,32.4c10.9,14.2,25.9,22.6,42.9,27.2
				C82.4,183.9,89.4,185.8,96.6,186.2z"/>
			<path class="st1" d="M66.2,190.9c5.5,0,10.9-0.5,16.4-0.2c23.1,1.2,44.5-3.5,62.5-19.2c5.2-4.6,11-8.5,16.1-13.2
				c3.2-2.9,6.6-5.5,10-7.7c-1.7,2.1-3.2,4.9-5.5,6.6c-7.6,5.7-13.8,13.1-21.5,18.5c-8,5.6-16.2,10.8-26,13.5
				c-11.9,3.3-23.8,5.3-36.1,4.5c-4.9-0.3-9.6-2-14.5-1.5C66.7,192.3,66.4,191.6,66.2,190.9L66.2,190.9z"/>
			<path class="st1" d="M119.8,9.6c6.6-0.4,13.3-0.9,19.9,0.5c11.2,2.5,19.9,8.6,26.4,18c0.4,0.6,1.4,1.4,0.7,2.1
				c-1,0.9-1.7-0.3-2.2-0.9c-9.7-10.8-22.2-16-36.3-17.9c-1.4-0.2-2.8-0.5-4.2-0.6c-1.4-0.1-2.8,0-4.2,0
				C119.8,10.4,119.8,10,119.8,9.6z"/>
			<path class="st2" d="M71.9,18.7c-4.7,3.4-9.7,3.8-14.3,5.5c-0.8,0.3-2.4,0.7-2.7-0.8c-0.2-1.4,1.2-2.2,2.4-2.6
				C61.8,19.2,66.3,18,71.9,18.7z"/>
			<path class="st2" d="M191,114.1c0.6-1.1-1-3.7,1.2-3.8c1.5,0,2,2.5,2.1,4.3c0,0.6,0,1.2,0,1.7c0,1.2-0.2,2.4-1.8,2.3
				c-1.5-0.1-1.4-1.3-1.5-2.3C190.9,115.7,191,115,191,114.1z"/>
			<path class="st2" d="M66.2,190.8c-2.5,0.2-5,0.1-6.6-2.5C61.8,189.2,64.6,188.5,66.2,190.8C66.2,190.9,66.2,190.8,66.2,190.8z"/>
			<path class="st1" d="M130.2,159.7c2.5-3.4,6.6-4.4,9.9-6.7c10.6-7.4,19-16.8,23.6-28.9c8.4-22.2,5.6-43.3-8.9-62.2
				c-11.2-14.6-26.4-22.2-44.9-23.7c-18.4-1.5-34.2,4.1-47.8,16.1c-7.9,6.9-13.4,15.7-17,25.8c-0.6-2-0.6-2-0.3-2.9
				c5.5-13.5,13.8-24.6,26.7-32c12.6-7.3,26.3-10.3,40.6-8.6c16.9,2.1,31.5,9.3,42.8,22.6c11.6,13.6,16.4,29.5,14.8,46.9
				c-2.2,24.4-14.4,42.5-37.1,52.8C131.8,159.3,130.9,159.4,130.2,159.7C130.2,159.6,130.2,159.7,130.2,159.7z"/>
			<path class="st1" d="M38.3,86.4c0,4.5,0.1,8.8,0,13.2c-0.5,13.3,3.1,25.7,10,36.7c10.6,17.1,25.9,28.2,46.5,30.8
				c23.4,2.9,43.6-3.9,59.9-20.8c11.1-11.5,16.6-25.6,17.5-41.5c0.2-4.2,0-8.5,0-13c5.4,28-8.5,56.4-35,69.7
				c-28,13.9-58.5,10.1-78.7-9.4C36.9,131.2,33.1,100.1,38.3,86.4z"/>
			<path class="st1" d="M70.8,42.2c-0.6,1.6-2.1,1.9-3.2,2.6c-13.7,9.1-23.1,21.2-27.4,37.3c-0.2,0.9,0.3,2.9-1.4,2.5
				c-1.4-0.3-0.3-1.9-0.1-2.8c3-11.5,9-21.4,17.5-29.6c3.4-3.3,6.7-7,11.3-8.8C68.6,43,69.3,41.9,70.8,42.2z"/>
			<path class="st5" d="M130.2,159.6c-0.3,0.2-0.5,0.4-0.8,0.5C129.2,159.3,129.9,159.8,130.2,159.6
				C130.2,159.7,130.2,159.6,130.2,159.6z"/>
		</g>
	</g>
	<path class="st1" d="M56,97.2c-1.2,0-2.3-0.3-3.3-0.9c-1-0.6-1.8-1.5-2.4-2.5c-0.6-1-0.9-2.2-0.9-3.4c0-1.8,0.6-3.5,1.8-5.2
		c1.2-1.7,3-3,5.5-4c0.5-0.2,0.8-0.3,1.1-0.3c0.3,0,0.5,0.1,0.5,0.4c0,0.2-0.1,0.4-0.3,0.5c-1,0.7-2,1.6-2.8,2.7
		c-0.8,1.1-1.5,2.3-2,3.5c-0.5,1.2-0.8,2.4-0.8,3.5c0,1.2,0.4,2.2,1.1,3.1c0.8,0.8,2,1.3,3.8,1.3c2.5,0,4.8-0.7,6.9-2.1
		c2.1-1.4,4.1-3.3,5.8-5.7c1.8-2.4,3.4-5.1,4.9-8.1c1.5-3,2.9-6.2,4.2-9.4c1.3-3.3,2.5-6.4,3.6-9.5c0.9-2.5,1.5-4.5,1.8-5.7
		c0.3-1.3,0.4-1.9,0.3-1.9c-0.3,0-0.9,0.1-1.9,0.3c-1,0.2-2.3,0.4-4,0.8c-3.2,0.6-4.9,0.8-5.1,0.7c-0.5-0.2-0.7-0.5-0.7-0.9
		c0-0.4,0.2-0.8,0.6-1.2c0.4-0.4,0.8-0.6,1.2-0.6c0.2,0,0.3,0,0.4,0.1l0.1,0.1c0,0.1-0.1,0.2-0.2,0.3C75,52.9,74.9,53,74.9,53
		c0.1,0.1,0.2,0.1,0.3,0.1c0.2,0,0.5-0.1,0.9-0.2c0.5-0.2,1.1-0.3,1.9-0.4c0.8-0.1,1.8-0.3,3-0.4c1.5-0.2,2.6-0.4,3.4-0.4
		c0.8-0.1,1.2-0.1,1.3-0.2l0.5-1.1c0.4-0.8,0.7-1.1,1.1-1.1c0.5,0,1.4,0.6,2.6,1.9c6.1,0,9.5,0.2,10.3,0.6c0.5,0.3,0.8,0.6,0.9,0.9
		c0,0.3-0.2,0.6-0.6,0.9c-0.3,0.2-0.5,0.2-0.6-0.1c-0.1-0.8-1-1.1-2.6-1.1c-0.4,0-0.9,0-1.7,0.1c-0.8,0-1.3,0.1-1.6,0.1
		c-1,0-2.8,0.2-5.3,0.7c-0.6,1.5-1.3,3.4-2,5.6c-0.8,2.2-1.5,4.5-2.4,6.9c-0.8,2.4-1.7,4.5-2.5,6.6c-1.5,3.5-3.1,6.8-4.8,9.8
		c-1.7,3-3.6,5.7-5.7,8s-4.4,4.1-6.9,5.4C61.9,96.6,59.1,97.2,56,97.2z"/>
	<path class="st1" d="M102.7,101.7c-0.1,0-0.1,0-0.2-0.1c-0.3-0.4-0.7-0.9-1.2-1.5c-0.5-0.6-1-1.3-1.6-2.1c-0.7,0.4-1.5,0.8-2.4,1.2
		c-0.9,0.4-1.8,0.7-2.8,1c-2,0.6-3.9,0.9-5.6,0.9c-1.9,0-3.4-0.4-4.5-1.3c-0.9-0.8-1.4-1.9-1.4-3.2c0-1.3,0.4-2.7,1.3-4.1
		c0.9-1.4,2.1-2.7,3.6-3.8c0.6-0.4,1.5-0.9,2.5-1.6c1-0.7,2.2-1.4,3.5-2.3c-0.1-0.5-0.2-1-0.2-1.5c-0.1-0.5-0.1-0.9-0.1-1.3
		c0-3.6,1.6-5.5,4.9-5.9c0.1,0,0.1,0,0.2,0c0.1,0,0.1,0,0.2,0c0.7,0,1.2,0.2,1.6,0.6c0.4,0.4,0.6,0.9,0.6,1.6c0,1.2-0.5,2.3-1.5,3.4
		c-0.6,0.6-1.2,1.3-2,1.9c-0.8,0.7-1.6,1.4-2.6,2.1c0.1,0.8,0.2,1.6,0.3,2.4c0.6-0.1,1.2-0.2,1.9-0.4c0.7-0.1,1.5-0.2,2.4-0.3
		c1.1-0.1,2-0.2,2.6-0.2c0.6-0.1,1-0.1,1.1-0.1c0.8-0.1,1.5-0.3,2.1-0.4c0.6-0.1,1.1-0.3,1.4-0.4c1.8-0.6,2.8-1.5,2.8-2.5
		c0-0.4,0.2-0.6,0.5-0.6c0.3,0,0.4,0.4,0.4,1.1c0,1.1-1.2,2-3.5,2.7c-1.3,0.4-2.7,0.7-4.3,0.9c1.1,0.4,1.7,1.4,1.7,2.9
		c0,0.2,0,0.4,0,0.6c0,0.2,0,0.4-0.1,0.6c-0.3,2-1.6,3.9-3.9,5.6l2.5,3c0.1,0.1,0.1,0.2,0.1,0.3C103.2,101.4,103,101.7,102.7,101.7z
		 M90.7,100.2c0.7,0,1.6-0.1,2.5-0.2c2.1-0.4,4.2-1.2,6.1-2.6c-2-2.7-3.4-5.3-4.1-7.9c-1.7,0.9-2.6,2-2.6,3.4c0,0.6,0.3,1.2,0.9,1.7
		c0.3,0.2,0.3,0.4,0.2,0.5c-0.1,0.1-0.2,0.1-0.2,0.1c-0.1,0-0.2-0.1-0.3-0.2c-0.4-0.4-0.8-0.7-1.1-0.9c-0.3-0.2-0.5-0.4-0.6-0.6
		c-0.4-0.4-0.6-0.9-0.5-1.4c0.2-1.8,1.5-3.1,3.8-3.9l-0.1-0.6l-0.3-1.4c-1.1,0.8-2.7,2.1-4.8,3.8c-0.9,0.8-1.6,1.8-2.3,3
		c-0.7,1.4-1.1,2.6-1.1,3.7C86.1,99,87.6,100.2,90.7,100.2z M95.1,84.2c3-2.2,4.7-4,4.9-5.6v-0.2c0-0.3-0.1-0.6-0.3-0.9
		c-0.3-0.5-0.7-0.7-1.3-0.7c-0.1,0-0.2,0-0.3,0c-0.1,0-0.2,0-0.3,0.1c-0.9,0.2-1.6,1.1-2.1,2.6C95.3,80.8,95.1,82.3,95.1,84.2z
		 M100,96.7c1.8-1.5,2.8-3,3.1-4.7c0-0.2,0-0.4,0.1-0.6c0-0.2,0-0.4,0-0.5c0-1.6-0.7-2.6-2.2-2.8l-1.2,0.2c-0.8,0.1-1.5,0.2-2.1,0.4
		c-0.7,0.1-1.2,0.3-1.8,0.5c0.4,1.2,0.9,2.4,1.6,3.7C98.1,94.1,99,95.4,100,96.7z"/>
	<path class="st1" d="M131.7,149c-0.9,0-1.9-0.2-3-0.6c-4.1-1.4-8.5-4.5-13.2-9.2c-1.4-1.3-2.9-3.2-4.6-5.6c-2.5,4.7-4,7.9-4.5,9.7
		c-0.3,0.8-0.8,1.3-1.5,1.3c-0.9,0-1.2-0.5-1.1-1.4c0.1-0.6,0.6-1.9,1.6-3.8c1-1.9,2.4-4.4,4.3-7.6c-0.9-1.4-1.7-2.7-2.2-3.9
		c-0.8-1.5-1.1-2.5-1.1-2.9c0-0.4,0.3-0.8,0.9-1.3c0.6-0.5,1.1-0.8,1.5-0.8c0.1,0,0.2,0,0.3,0.1c0.6,1.3,1.8,2.4,3.6,3.6
		c3.2-5.6,5.2-10.2,6-13.7c0,0-0.1-0.1-0.2-0.1l-0.9,0.5c-0.4,0.3-0.7,0.4-0.9,0.4c-0.2,0-0.3-0.1-0.3-0.3c0.5-0.8,1.1-1.7,1.9-2.6
		l1.6-1.8c0.3-0.3,0.7-0.6,1-0.9c0.3-0.3,0.7-0.5,1.1-0.6c0.3-0.1,0.4-0.1,0.6-0.1c0.6,0,0.9,0.4,0.9,1.3c0,0.8-0.3,1.9-0.9,3.4
		c-1.3,3.3-4,8.5-8.1,15.5c2.1,1,3.9,1.6,5.4,1.6c0.3,0,0.6,0.1,0.9,0.1c0.3,0,0.6,0,0.9,0c4.5,0,8.7-1,12.5-3.1
		c3.7-1.9,6.1-4.2,7.3-6.7c0.6-1.3,0.9-2.6,0.9-3.8c0-3.1-1.5-5.6-4.5-7.8c-3.1-2.3-7.3-3.6-12.5-3.8c-0.7,0-1.4-0.1-2.1-0.1
		c-0.7,0-1.4,0-2.1,0c-8.4,0-15,1.2-19.9,3.6c-4.1,2-6.2,4.3-6.2,6.7c0,0.6,0.1,1.1,0.4,1.5c0.2,0.5,0.8,0.8,1.6,1
		c0.3,0.1,0.6,0.1,0.9,0.2c0.3,0,0.5,0,0.8,0H99c0.5,0,0.7,0.1,0.7,0.3c0,0.4-0.4,0.6-1.3,0.6c-4,0-6.4-0.5-7.3-1.5
		c-0.4-0.5-0.6-1-0.6-1.6c0-2.8,2.5-5.3,7.6-7.6c6.1-2.7,14.2-4.1,24.4-4.1h2.6c5.9,0.1,10.8,1.4,14.6,3.8c3.8,2.5,5.8,5.4,5.8,8.7
		c0,1.4-0.4,2.8-1.1,4.2c-1.7,3.3-4.7,5.9-9,7.8c-4.1,1.9-8.5,2.8-13.3,2.8c-3.1,0-6.1-0.5-8.9-1.6c-0.5,0.9-0.9,1.5-1.2,2
		c1.2,1.8,2.4,3.4,3.4,4.7c1.1,1.3,2.1,2.4,3,3.3c6.2,5.7,10.8,8.6,13.9,8.6c0.6,0,1.4-0.1,2.4-0.4c0.6-0.2,1.2-0.5,1.8-1.1
		c0.6-0.6,1-0.8,1.1-0.8c0.5,0,0.8,0.3,0.8,0.9c0,0.5-0.9,1-2.8,1.8c-0.3,0.1-0.6,0.3-0.8,0.4c-0.3,0.1-0.6,0.2-0.8,0.3
		C133.4,148.9,132.5,149,131.7,149z M111.2,129.2c0.1-0.2,0.2-0.3,0.3-0.5c0.1-0.2,0.2-0.3,0.3-0.5l-1.4-0.7
		C110.5,127.9,110.8,128.5,111.2,129.2z"/>
</g>
</svg>
