<?xml version="1.0" encoding="utf-8"?>
<!-- Generator: Adobe Illustrator 24.0.0, SVG Export Plug-In . SVG Version: 6.00 Build 0)  -->
<svg version="1.1" xmlns="http://www.w3.org/2000/svg" xmlns:xlink="http://www.w3.org/1999/xlink" x="0px" y="0px"
	 viewBox="0 0 800 163.9" style="enable-background:new 0 0 800 163.9;" xml:space="preserve">
<style type="text/css">
	.st0{fill:#FFFFFF;}
	.st1{fill:#A57127;}
	.st2{fill:#DC9C2E;}
	.st3{fill:none;}
	.st4{fill:#E6E6E6;}
</style>
<g id="BACKGROUND">
</g>
<g id="OBJECTS">
	<g>
		<g>
			<path class="st2" d="M343,66.7C343,66.7,343,66.7,343,66.7C343,66.7,343,66.7,343,66.7L343,66.7z"/>
			<path class="st2" d="M406.5,58.2c2.6-1.8,5.5-3.3,8.5-4.4c0.3-0.1,0.6-0.5,0.6-0.9c0-0.5-0.3-0.9-0.7-1.1c-2.7-0.9-5.5-1.5-8.3-2
				c-2.8-0.5-5.7-0.8-8.6-1c-1.3-0.1-2.7-0.1-4-0.1c-4.5,0-9,0.4-13.4,1.1c-5.8,0.9-11.5,2.4-17.1,4.3c-5.4,1.9-10.6,4.3-15.6,7.2
				c-3.7,2.1-7.2,4.6-10.5,7.2c-3.4,2.7-6.5,5.5-9.7,8.4c-6.5,5.9-13,11.8-20.2,16.9c0,0,0.1-0.1,0.1-0.1c-4.2,2.9-8.7,5.5-13.6,7.3
				c0,0,0,0,0,0c-1,0.4-2.1,0.7-3.1,1c-0.6,0-1.2,0.1-1.9,0.1h0c-0.2,0-0.3,0-0.5,0c0.1,0,0.2,0,0.3,0c-4,0-8-0.2-12-0.7
				c-4.4-0.5-8.8-1.4-13-2.5c-7.3-2-14.3-4.6-21.2-7.7c3.4,0.6,6.8,1.2,10.2,1.5c2.6,0.3,5.2,0.3,7.8,0.2c2.6-0.1,5.2-0.4,7.7-0.9
				c2.6-0.5,5.1-1.2,7.6-2.1c2.4-0.9,4.7-1.9,6.9-3.2c2.2-1.3,4.3-2.8,6.2-4.6c1.9-1.8,3.6-3.7,5-5.9c2-3.1,3.5-6.5,4.7-9.9
				c1.3-3.8,2.4-7.6,3.4-11.5c1-4,2.1-7.9,3.3-11.8c1.1-3.6,2.5-7.2,4.3-10.5c1.2-2.1,2.6-4.1,4.3-5.8c1.3-1.3,2.6-2.4,4.1-3.3
				c0.3-0.2,0.6-0.3,0.9-0.5c0.4-0.2,0.6-0.6,0.6-1c-0.1-0.5-0.5-0.8-1-0.8c0,0-0.1,0-0.1,0c-1.2,0.2-2.5,0.3-3.7,0.5
				c-1.3,0.2-2.6,0.5-3.9,0.8c-2.5,0.6-4.9,1.5-7.2,2.5c-4.8,2.1-9.4,4.9-13.5,8.1c-4.3,3.3-8.2,7-11.9,11
				c-3.7,3.9-7.1,8.1-10.2,12.4c-1.4,1.9-2.7,3.8-4,5.7c-1.3,2-2.6,4-4,6c-2.6,3.9-5.4,7.7-8.7,11.1c-2.1,2.1-4.3,4-6.8,5.5
				c-1.9,1.1-3.9,2-6.1,2.7c-0.9,0.3-1.9,0.5-2.9,0.6c-8-4-15.8-8.5-23.6-12.9c-6.1-3.5-12.3-7-18.6-10.3c2.7,0.9,5.5,1.7,8.3,2.4
				c3.3,0.8,6.7,1.4,10.1,1.7c3.3,0.3,6.7,0.2,10-0.3c3-0.4,5.9-1.1,8.7-2c2.8-0.9,5.6-2.1,8.2-3.6c2.6-1.4,5.1-3.1,7.4-5
				c2-1.6,3.7-3.4,5.5-5.2c2.6-2.7,5.4-5.3,8.6-7.3c1.3-0.7,2.7-1.4,4.1-1.8c0.5-0.1,1.1-0.3,1.6-0.4c0.6-0.1,1.2-0.2,1.9-0.2
				c0.4,0,0.6-0.4,0.7-0.7c0-0.3-0.2-0.7-0.5-0.8c-1.4-0.4-2.7-0.7-4.1-1c-1.6-0.3-3.1-0.5-4.7-0.6c-1.2-0.1-2.3-0.1-3.5-0.1
				c-1.9,0-3.7,0.1-5.6,0.3c-6.2,0.7-12.2,2.5-18,4.7c-5.7,2.2-11.2,5-16.7,7.8c-5.3,2.7-10.7,5.3-16.4,7c-3.1,0.9-6.4,1.5-9.6,1.6
				c-1,0-2,0-3-0.1c-4.2-2-8.4-3.8-12.7-5.5c-4.6-1.7-9.3-3.2-14-4.4c-4.9-1.2-9.9-2.1-15-2.6c-3.9-0.4-7.9-0.6-11.8-0.6
				c-1.1,0-2.1,0-3.2,0c-9.7,0.2-19.3,1.7-28.7,4.3c3.3-1.8,6.4-3.8,9.3-6.1c1.8-1.4,3.5-2.9,5-4.6c0.8-0.8,1.4-1.7,2.2-2.6
				c0.8-0.9,1.5-1.8,2.3-2.7c2.8-3.1,5.7-6.1,9.1-8.6c1.4-1,2.9-2,4.4-2.9c1.6-0.9,3.3-1.7,5-2.4c1-0.4,1.9-0.7,2.9-1
				c1.1-0.3,2.2-0.6,3.3-0.9c0.4-0.1,0.6-0.4,0.6-0.8c0-0.4-0.2-0.7-0.6-0.8c-1.3-0.4-2.7-0.7-4-0.9c-1.4-0.2-2.8-0.4-4.2-0.4
				c-0.4,0-0.7,0-1.1,0c-2.4,0-4.8,0.3-7.2,0.8c-2.7,0.5-5.4,1.4-7.9,2.5c-2.6,1.1-5.1,2.5-7.4,4.2c-2.2,1.5-4.3,3.3-6.1,5.2
				c-1.6,1.7-3,3.6-4.3,5.5c-2.7,4-4.9,8.4-7.5,12.6c-0.9,1.4-1.8,2.7-2.8,4c0,0,0,0,0,0c-1.3,1.7-2.8,3.2-4.4,4.5
				C82.2,58.7,77,61,72,63.8c-4.4,2.4-8.6,5-12.7,7.8c-1.9,1.3-3.7,2.6-5.5,4c-1.9,1.5-3.7,3.2-5.5,4.9c-3.4,3.4-6.5,7.1-9.1,11.2
				c-2.6,4.1-4.6,8.4-6.1,13c0,0,0,0.1,0,0c0.3-0.5,0.6-1,0.8-1.5c0,0,0,0,0,0c1.6-2.7,3.4-5.4,5.4-7.9c1.9-2.4,4-4.7,6.1-6.8
				c3.7-3.7,7.7-7,11.8-10.2c4.2-3.3,8.7-6.3,13.4-9.1c9.6-5.6,19.8-10,30.4-13.1c5-1.4,10.1-2.5,15.2-3.2c0.8-0.1,1.5-0.2,2.3-0.3
				c1.1,0.5,2.2,1,3.3,1.6c4.4,2.4,8.2,5.6,11.8,9.1c1.9,1.9,3.8,3.9,5.5,5.9c1.9,2.1,3.6,4.3,5.4,6.4c3.4,4,7,7.8,10.9,11.3
				c3.6,3.2,7.5,6,11.6,8.4c4.5,2.6,9.2,4.8,14.1,6.7c0.9,0.3,1.7,0.7,2.6,1c0.4,0.1,0.8,0,1.1-0.3c0.3-0.4,0.2-1-0.2-1.3
				c-1.2-0.9-2.2-1.8-3.3-2.8c0,0,0.1,0.1,0.1,0.1c0,0-0.1-0.1-0.1-0.1c0,0,0,0,0,0c-1.3-1.3-2.4-2.6-3.5-4c-1.1-1.4-2-2.8-2.9-4.3
				c-2.7-4.5-4.9-9.4-7.4-14c-1.3-2.3-2.6-4.5-4.2-6.7c-1.6-2.2-3.4-4.3-5.5-6.2c-3.9-3.5-8.6-6.1-13.5-7.8
				c-4.9-1.6-10.1-2.4-15.3-2.9c-2.2-0.2-4.4-0.4-6.6-0.5c3-0.3,6.1-0.4,9.1-0.5c4.7,0,9.5,0.2,14.2,0.8c4.8,0.6,9.5,1.5,14.1,2.7
				c10,2.7,19.4,6.7,28.6,11.4c0.4,0.4,0.7,0.7,1.1,1.1c0.6,0.8,1.2,1.7,1.7,2.5l0,0c0,0,0,0,0,0.1c0,0,0,0,0,0
				c1.5,2.6,2.6,5.3,3.5,8.1c2.9,10.1,2.2,20.8,4.7,31c0.6,2.5,1.4,4.9,2.5,7.2c1.1,2.4,2.5,4.6,4.2,6.7c1.7,2.1,3.7,3.9,5.8,5.5
				c2.1,1.6,4.4,3,6.7,4.3c8.6,4.7,18.2,7.4,26.8,12.1c0.3,0.2,0.6,0.3,0.9,0.5c0.2,0.1,0.3,0.2,0.5,0.2c0.3,0,0.5-0.1,0.8-0.2
				c0.3-0.3,0.5-0.8,0.3-1.3c-2.3-4-5.5-7.4-8.8-10.6c-1.6-1.6-3.3-3.1-5-4.6c-1.8-1.6-3.5-3.2-5.2-4.9c-1.3-1.3-2.6-2.7-3.9-4.1
				c-1.3-1.5-2.5-3.2-3.5-4.9c0,0,0,0,0,0c0,0,0,0,0,0c0-0.1-0.1-0.1-0.1-0.2c0,0,0,0,0,0.1c-0.7-1.3-1.4-2.6-2-4
				c-0.7-1.7-1.3-3.4-1.8-5.2c0,0.1,0,0.1,0.1,0.2c-1.2-4.3-2.1-8.6-3.4-12.9c-0.7-2.2-1.5-4.4-2.5-6.5c-0.9-1.9-2.1-3.7-3.5-5.3
				c-2.5-3-5.6-5.3-8.7-7.5c-2.5-1.8-5-3.5-7.3-5.4c6.6,3.5,13.1,7.2,19.5,10.9c8.3,4.8,16.7,9.6,25.3,13.7c0.3,0.1,0.6,0.3,0.9,0.4
				c1.4,1.9,2.9,3.9,4.3,5.8c1.8,2.6,3.4,5.3,5,8c0,0,0,0,0,0c2.5,4.2,4.9,8.4,7.5,12.6c2.5,4.1,5.2,8.2,8.1,12.1
				c2.9,3.8,6,7.5,9.5,10.8c1.7,1.6,3.6,3.1,5.5,4.5c2,1.4,4.1,2.7,6.3,3.9c4.5,2.4,9.3,4.1,14.3,5.1c6,1.2,12.3,0.9,18.3-0.3
				c2.9-0.6,5.8-1.4,8.6-2.4c3-1,5.9-2.3,8.8-3.6c2.8-1.3,5.6-2.5,8.5-3.6c2.9-1.1,5.8-2,8.7-2.9c-0.1,0-0.2,0.1-0.3,0.1
				c2.5-0.7,4.9-1.4,7.4-2c2.6-0.7,5.1-1.3,7.7-1.9c0.4-0.1,0.8-0.3,0.9-0.7c0.2-0.5,0-1.1-0.4-1.4c-2.4-1.8-5.2-3.1-8.1-4
				c-1.4-0.5-2.8-0.8-4.2-1.2c-1.6-0.4-3.2-0.7-4.8-1c-6.4-1.1-12.9-1.4-19.4-1.4c-2.7,0-5.4,0-8,0c-3.8,0-7.6,0-11.4-0.1
				c-6.4-0.2-12.9-0.7-19.2-2c-0.4-0.1-0.8-0.2-1.2-0.3c-1.6-0.4-3.2-0.9-4.8-1.4c-1.6-0.5-3.3-1.2-4.9-1.9
				c-2.8-1.2-5.6-2.6-8.3-4.1c-2.4-1.3-4.7-2.7-6.9-4.2c-2.3-1.5-4.6-3.1-6.8-4.7c-3.6-2.7-6.9-5.5-10.2-8.6
				c-2.4-2.7-4.9-5.3-7.4-7.9c3.1,1.4,6.2,2.7,9.3,3.9c4.5,1.7,9.1,3.1,13.8,4.3c9.2,2.3,18.7,3.3,28.1,2.8c0.9,0,1.8-0.1,2.6-0.2
				c1.2,0.3,2.4,0.7,3.6,1c2.9,0.9,5.9,1.7,8.9,2.4c2.9,0.6,5.8,1.1,8.7,1.4c2.9,0.3,5.8,0.4,8.8,0.4c11.6,0,23.2-2.4,33.6-7.5
				c4.1-2,8-4.4,11.7-7.1c1.8-1.3,3.4-2.7,5.1-4.2c1.5-1.3,2.8-2.7,4.2-4.2c5.4-5.9,10.1-12.5,15.3-18.7
				C398.2,65.3,402.1,61.4,406.5,58.2z M138.2,20.3c-1.8,0.7-3.6,1.5-5.3,2.4c-3.4,1.8-6.4,4.1-9.3,6.6c-3,2.7-5.7,5.7-8.3,8.8
				c-1.4,1.6-2.9,3.2-4.4,4.6c-1.6,1.5-3.2,2.8-4.9,4.1c-3.2,2.4-6.5,4.5-10,6.5c-0.4,0.2-0.8,0.4-1.1,0.6c-1,0.3-1.9,0.6-2.9,1
				c0.8-0.7,1.7-1.4,2.5-2.2c1-0.9,1.9-1.8,2.8-2.7c1.2-0.5,2.3-1,3.4-1.5c1.6-0.9,3.2-1.8,4.7-2.8c0,0,0,0,0,0c0,0,0,0,0,0
				c-1.5,0.7-3.1,1.5-4.6,2.3c-1,0.5-2,1-3,1.6c1.5-1.5,3-3,4.4-4.5c0.2-0.2,0.3-0.3,0.5-0.5c1.3-0.5,2.6-1.1,3.9-1.7
				c2.1-1,4.2-2.3,6.2-3.5c0,0,0,0,0,0c0,0,0,0,0,0c-2,1-4,2-6,3c-1.2,0.6-2.3,1.1-3.5,1.7c2.1-2.2,4.2-4.5,6.4-6.7
				c0.3-0.1,0.7-0.2,1-0.4c1-0.4,1.9-0.9,2.8-1.4c1-0.5,2-1.1,3-1.7c1-0.6,2-1.1,3-1.7c0,0,0,0,0,0c0,0,0,0,0,0
				c-1.8,0.7-3.5,1.6-5.2,2.5c-1.3,0.7-2.6,1.4-3.8,2c1-1,2-1.9,3-2.9c1.1-1,2.2-1.9,3.4-2.8c0,0,0,0,0,0c1.1-0.8,2.2-1.6,3.3-2.4
				c0.3-0.1,0.7-0.2,1-0.2c1.2-0.3,2.4-0.6,3.6-1c0,0,0-0.1,0-0.1c-1.1,0.2-2.2,0.4-3.3,0.7c-0.2,0.1-0.5,0.1-0.7,0.2
				c1.2-0.8,2.4-1.5,3.6-2.1c2.6-1.4,5.3-2.7,8.1-3.8l-0.1,0c2.8-1.1,5.6-2,8.4-2.9c0.1,0,0.1,0,0.2,0C139.9,19.7,139,20,138.2,20.3
				z M90.1,54.8c2-1.9,3.7-4.2,5.3-6.5c3.3-4.8,5.9-10,9.5-14.6c0,0,0,0,0,0c0.9-1.2,1.9-2.3,3-3.4c1.2-1.2,2.6-2.3,4-3.4
				c3-2.2,6.2-4,9.7-5.4c-0.1,0-0.1,0.1-0.2,0.1c1.6-0.6,3.2-1.1,4.8-1.6c1.6-0.4,3.2-0.7,4.9-0.9c0,0-0.1,0-0.1,0
				c2.7-0.3,5.5-0.3,8.3,0.1c0.3,0.1,0.7,0.1,1,0.2c-4.7,1.2-9.3,2.5-13.7,4.3c0.4-0.3,0.9-0.6,1.3-0.9c1.3-1,2.6-2.2,3.8-3.3
				c0,0,0,0,0,0c0,0,0,0,0,0c-1.4,1-2.7,2-4,3c-0.7,0.5-1.4,1.1-2,1.6c-2.3,0.9-4.5,2-6.7,3.2c0,0,0,0,0,0c0.2-0.2,0.4-0.4,0.6-0.6
				c0.8-0.9,1.5-1.8,2.2-2.7c0.8-1,1.6-2,2.4-3c0,0,0,0,0,0c0,0,0,0,0,0c-1.5,1.5-2.9,3.1-4.2,4.7c-0.7,0.8-1.4,1.6-2.1,2.4
				c0,0,0,0,0,0c-0.7,0.4-1.4,0.8-2.1,1.2c-1.2,0.8-2.3,1.6-3.5,2.5c-0.6,0.4-1.1,0.9-1.6,1.3c0.2-0.3,0.5-0.7,0.7-1
				c0.5-0.8,1-1.7,1.4-2.6c0.5-0.8,1-1.7,1.5-2.5c0,0,0,0,0,0c0,0,0,0,0,0c-0.9,1.2-1.7,2.4-2.5,3.7c-0.6,1-1.2,2-1.8,3
				c-0.3,0.2-0.6,0.5-0.9,0.7c-1.1,1-2.2,2-3.3,3.1c-0.8,0.8-1.5,1.6-2.3,2.4c0.1-0.2,0.2-0.4,0.4-0.7c0.5-1,1-2.1,1.5-3.2
				c0.5-1,1.1-2.1,1.7-3l0,0c0.4-0.6,0.9-1.2,1.4-1.7c0,0,0,0,0,0c0,0,0,0,0,0c-0.3,0.3-0.6,0.6-0.9,0.9c-0.5,0.4-0.8,0.9-1.2,1.5
				c-0.6,0.9-1.1,1.8-1.6,2.8c-0.5,1-1,2.1-1.5,3.2c-0.2,0.5-0.5,1-0.7,1.4c-1.1,1.2-2.2,2.5-3.2,3.7c-2.1,2.5-4.2,5-6.3,7.5
				c-1,1.2-2,2.3-3,3.5c-0.4,0.2-0.8,0.3-1.2,0.5C89.1,55.7,89.6,55.3,90.1,54.8z M177.1,98.1c-2.3-1-4.5-2.1-6.6-3.3
				c-2.9-1.6-5.8-3.5-8.4-5.5c-2.8-2.1-5.4-4.3-7.8-6.7c-3.2-3.1-6.2-6.5-9-10c-1.5-1.8-2.9-3.6-4.5-5.3c-1.6-1.8-3.3-3.6-5-5.2
				c-1.7-1.6-3.4-3.1-5.3-4.5c-1.7-1.2-3.5-2.3-5.3-3.3c1,0.3,2.1,0.7,3.1,1.1c2.7,1.1,5.3,2.4,7.9,3.8c0.6,0.3,1.1,0.7,1.7,1.1
				c1.1,1.9,2.2,3.6,3.5,5.4c0.8,1.1,1.6,2.1,2.5,3.1c0.9,1.1,1.9,2.3,2.8,3.4c0,0,0.1,0,0.1,0c-1.5-2.2-3.1-4.4-4.7-6.5
				c-1.2-1.7-2.5-3.4-3.7-5c1.9,1.2,3.8,2.4,5.6,3.8c1.7,1.3,3.3,2.6,4.9,4c0.3,0.3,0.6,0.6,0.9,0.9c0.3,0.5,0.5,1,0.7,1.6
				c0.3,0.7,0.4,1.4,0.6,2.1c0.3,1.2,0.7,2.5,1.1,3.7c0.3,0.7,0.6,1.3,0.9,2c0.3,0.6,0.7,1.1,1.1,1.5c0,0,0.1,0,0,0
				c-0.2-0.3-0.3-0.5-0.5-0.8c0,0,0,0,0,0c-0.5-0.9-0.9-1.9-1.2-2.9c-0.3-1-0.6-2-0.9-3c-0.3-1-0.6-2-1.1-2.9
				c-0.1-0.3-0.3-0.5-0.4-0.8c1.1,1.1,2.3,2.2,3.3,3.3c1.4,1.5,2.8,3.1,4.2,4.7c0.6,1.6,1.2,3.2,1.9,4.8c0.4,1,0.9,1.9,1.5,2.8
				c0.7,1.1,1.5,2.2,2.4,3.2c0,0,0.1,0,0,0c-0.5-0.7-1-1.4-1.4-2.1c0,0,0,0,0,0c-0.5-0.8-0.9-1.6-1.3-2.5c-0.4-0.9-0.8-1.9-1.2-2.8
				c-0.4-0.8-0.7-1.6-1.1-2.5c1.3,1.5,2.6,2.9,3.8,4.4c1.5,1.7,2.9,3.3,4.5,5c0.4,0.8,0.8,1.7,1.2,2.4c0.7,1.2,1.5,2.3,2.7,3.2
				c0,0,0.1,0,0,0c-0.1-0.1-0.1-0.1-0.2-0.2c-1.2-1.3-2.1-2.8-3-4.3c0,0,0,0,0,0c-0.1-0.2-0.3-0.5-0.4-0.7c1.4,1.5,2.8,2.9,4.3,4.3
				c2.5,2.3,5.1,4.4,8,6.3c0.1,0.1,0.3,0.3,0.4,0.5C178.9,98.9,178,98.5,177.1,98.1z M177.3,96.3c0.5,0.7,1.1,1.3,1.6,1.9
				c-0.1-0.1-0.3-0.2-0.4-0.3l0,0c-2.2-1.7-4.2-3.5-6.1-5.4c-1.9-1.9-3.6-3.9-5.3-5.9c0.5,0.4,0.9,0.8,1.5,1.1
				c1,0.6,2.1,1.1,3.1,1.6c0,0,0.1,0,0,0c-1.8-1.1-3.6-2.1-5.3-3.5c-1.6-2-3.3-4-4.9-6.1c0.1,0,0.1,0.1,0.2,0.2
				c0.7,0.4,1.4,0.8,2.2,1.1c0.8,0.3,1.7,0.6,2.6,0.9c0.9,0.2,1.7,0.5,2.6,0.8c1.1,2.2,2.2,4.4,3.4,6.6
				C174,91.7,175.5,94.1,177.3,96.3z M139,55.3c4,1,7.9,2.3,11.5,4.3c1.3,0.7,2.5,1.5,3.7,2.3c1.3,0.9,2.5,2,3.7,3.1c0,0,0,0,0,0
				c1.4,1.4,2.6,2.8,3.8,4.3c1.1,1.4,2,2.9,2.9,4.4c0,0,0,0,0,0c1.7,2.9,3.2,5.8,4.7,8.8c-1.2-0.6-2.5-1-3.7-1.4
				c-0.6-0.2-1.3-0.4-1.9-0.7c-0.8-0.3-1.5-0.6-2.2-1c0,0,0,0,0,0c-0.1,0-0.1-0.1-0.2-0.1c-1.6-2-3.2-4-4.8-5.9
				c-0.3-0.4-0.7-0.8-1-1.2c0.3,0.1,0.7,0.3,1,0.4c1.3,0.4,2.7,0.7,4.1,1.1c0,0,0,0,0,0c1.1,0.3,2.2,0.7,3.2,1.2c0,0,0,0,0,0
				c0.1,0.1,0.2,0.1,0.3,0.2c0,0,0.1,0,0,0c-0.4-0.3-0.8-0.5-1.2-0.8c-0.6-0.3-1.2-0.6-1.9-0.8c-1.2-0.5-2.4-0.8-3.7-1.1l0,0
				c-0.8-0.2-1.5-0.4-2.3-0.7c0,0-0.1,0-0.1,0c-1.3-1.5-2.6-2.9-4-4.3c-0.9-0.9-1.8-1.7-2.7-2.5c0.1,0,0.1,0,0.2,0.1
				c1,0.3,1.9,0.5,2.9,0.7c2,0.4,4.1,0.6,6.2,1.1h0c0.8,0.2,1.7,0.5,2.5,0.9c0,0,0,0,0-0.1c-0.4-0.3-0.9-0.5-1.4-0.7
				c-0.4-0.2-0.9-0.4-1.4-0.5c-0.9-0.3-1.9-0.5-2.9-0.7c-1.1-0.2-2.2-0.3-3.3-0.5c-1.1-0.2-2.2-0.3-3.2-0.6c0,0,0,0,0,0
				c-1.1-0.9-2.2-1.8-3.4-2.7c-1.8-1.3-3.8-2.5-5.8-3.6c0.3,0.1,0.6,0.2,0.9,0.3c0.7,0.3,1.4,0.5,2.1,0.7c0.4,0.1,0.7,0.2,1.1,0.2
				c0.5,0.1,1,0.1,1.5,0.1c0.7,0,1.5,0,2.2,0h-0.1c0.6,0,1.2,0,1.8,0c0.7,0,1.5,0.2,2.2,0.4h0c0.1,0,0.3,0.1,0.4,0.1c0,0,0.1,0,0,0
				c-0.4-0.2-0.7-0.3-1.1-0.4c-0.4-0.1-0.7-0.2-1.1-0.3c-0.8-0.2-1.7-0.2-2.5-0.2c-0.9,0-1.7,0-2.6-0.1c-1,0-1.9-0.2-2.9-0.5
				c0,0,0,0,0,0c-0.9-0.2-1.8-0.5-2.7-0.7c-3.1-1.6-6.3-2.9-9.6-3.9c-1.6-0.4-3.1-0.8-4.7-1C128.7,53.4,133.9,54.1,139,55.3z
				 M260.1,43.2c-2.5,1.2-4.6,3-6.7,4.8c-2.1,1.9-4.1,3.9-6.1,5.8c-2.3,2.1-4.8,4-7.5,5.6c-3.4,2-7,3.6-10.8,4.7
				c-1.8,0.5-3.6,0.9-5.5,1.2c-2.1,0.3-4.2,0.5-6.4,0.6c-9.4,0.2-18.6-1.6-27.8-3.6c1.3,0.3,2.6,0.5,3.9,0.7
				c3.3,0.5,6.6,0.7,9.9,0.7c2.8,0,5.7-0.3,8.5-0.7c0.9,0,1.7,0.1,2.6,0.2c1.2,0.2,2.4,0.4,3.6,0.6c1.2,0.2,2.4,0.3,3.6,0.3
				c1.2,0,2.4-0.1,3.6-0.3c0,0,0-0.1,0-0.1c-2.4,0.1-4.8-0.3-7.2-0.6c-1.6-0.2-3.2-0.3-4.8-0.3c3.1-0.5,6.1-1.3,9.1-2.1
				c1.5-0.4,2.9-0.8,4.4-1.3c1.7,0.3,3.5,0.4,5.3,0.4c1.2-0.1,2.3-0.2,3.4-0.4c1.1-0.2,2.1-0.5,3.1-0.9c0,0,0,0,0,0
				c-2.7,0.4-5.4,0.8-8.1,1h0c-1.1,0-2.3,0-3.4-0.1c4-1.4,8-3.1,11.6-5.2c0.9-0.1,1.9-0.2,2.8-0.4c1-0.2,1.9-0.5,2.8-0.9
				c1-0.4,2-0.9,3-1.3c1-0.5,2-1,3-1.4c0,0,0,0,0,0c0,0,0,0,0,0c-1.5,0.5-3,1-4.5,1.6c-1.6,0.6-3.1,1.3-4.7,1.9c0,0,0,0,0,0
				c-0.7,0.2-1.4,0.4-2.1,0.5c0.2-0.1,0.4-0.2,0.6-0.3c2.4-1.5,4.8-3.1,7.2-4.7c0.7-0.5,1.5-0.9,2.2-1.4c0.2,0,0.4,0,0.7,0
				c0.6-0.1,1.2-0.2,1.8-0.4c1-0.3,1.9-0.6,2.8-0.9h0c0.4-0.1,0.7-0.2,1.1-0.3c0,0,0-0.1,0-0.1h0c-0.7,0.1-1.5,0.2-2.2,0.4
				c-0.7,0.2-1.4,0.4-2.1,0.7c0,0,0,0,0,0c-0.6,0.2-1.2,0.3-1.8,0.5c1.4-0.9,2.9-1.7,4.4-2.4c0.4-0.2,0.8-0.3,1.1-0.5c0,0,0,0,0,0
				c1.2-0.5,2.4-0.9,3.6-1.3c1.3-0.4,2.7-0.6,4-0.9h0c0.1,0,0.2,0,0.3,0C261.7,42.5,260.9,42.8,260.1,43.2z M194.1,61.3
				c2.5-0.3,4.9-0.9,7.2-1.6c2.6-0.8,5.2-1.8,7.7-2.9c2.4-1.1,4.8-2.3,7.1-3.4c2.5-1.3,5.1-2.6,7.6-3.8c5.1-2.4,10.4-4.6,15.9-6.2
				c0,0,0,0,0,0c4.7-1.3,9.6-2.2,14.5-2.4c1.8,0,3.5,0,5.3,0.2c1.5,0.1,2.9,0.4,4.4,0.7c-0.2,0.1-0.5,0.2-0.7,0.2
				c-0.9,0.1-1.8,0.1-2.7,0.3c-1.4,0.2-2.8,0.5-4.2,1c-2.5,0.8-4.9,1.9-7.2,3.1c0.3-0.2,0.5-0.5,0.8-0.7c0.6-0.6,1.1-1.2,1.7-1.7
				c0.6-0.6,1.3-1.2,2.1-1.7c0,0,0,0,0,0c0.1-0.1,0.2-0.1,0.3-0.2c0,0,0-0.1,0-0.1c0,0,0,0,0,0c-0.6,0.3-1.1,0.6-1.6,0.9
				c-0.7,0.5-1.3,1-1.8,1.6c-0.6,0.6-1.1,1.2-1.7,1.7c-0.4,0.4-0.9,0.8-1.4,1.1c-2,1.1-3.9,2.3-5.8,3.5c-1,0.6-2.1,1.2-3.1,1.8
				c0.2-0.1,0.4-0.3,0.6-0.4c0.8-0.7,1.5-1.5,2.2-2.2c0.7-0.9,1.4-1.8,2.1-2.7c0.7-0.9,1.4-1.9,2.2-2.7l0,0c0.2-0.2,0.3-0.3,0.5-0.5
				c0,0,0,0,0,0c0,0,0,0,0,0c-0.7,0.5-1.3,1.1-1.9,1.7c-0.5,0.5-1,1.1-1.5,1.7c-1.1,1.4-2.1,2.8-3.3,4.1l0,0c-0.7,0.7-1.4,1.4-2.3,2
				c-1.3,0.7-2.7,1.4-4.1,2c-1.2,0.5-2.5,1-3.7,1.4c0.2-0.2,0.4-0.3,0.6-0.5c0.6-0.5,1.1-1.1,1.5-1.7c1-1.4,1.8-2.9,2.6-4.4
				c0,0,0,0,0,0.1c0.8-1.4,1.6-2.8,2.6-3.9c0.3-0.3,0.5-0.5,0.8-0.8c0,0,0,0,0,0c0,0,0,0,0,0c-0.6,0.4-1.2,0.9-1.8,1.4
				c-0.5,0.5-1,1.2-1.4,1.8c-0.9,1.3-1.6,2.8-2.3,4.2l0,0c-0.6,1.1-1.3,2.2-2.2,3.2c-0.3,0.3-0.7,0.6-1,0.9c-2,0.7-4,1.3-6,1.9
				c-1.6,0.4-3.1,0.8-4.7,1.1c1.1-0.7,2.1-1.5,3-2.4c0.9-0.8,1.7-1.8,2.5-2.7c0.9-1,1.8-2,2.7-3c0,0,0,0,0,0c0.5-0.5,1-1,1.5-1.6
				c0,0,0-0.1,0-0.1c0,0,0,0,0,0c-3.8,3.2-6.9,7.1-10.8,10c-1.7,0.3-3.3,0.7-5,0.9c0,0,0,0,0,0c0,0-0.1,0-0.1,0c0,0-0.1,0-0.1,0
				c0,0,0,0,0,0c-1.3,0.2-2.6,0.3-3.9,0.4c0.9-0.4,1.8-1,2.6-1.6c0.9-0.7,1.8-1.5,2.6-2.2c0.8-0.8,1.6-1.7,2.4-2.6c0,0,0,0,0,0
				c0,0,0,0,0,0c-2.3,2.1-4.7,4-7.4,5.7c0,0,0,0,0.1,0c-0.5,0.3-1.1,0.6-1.6,0.9c-0.2,0-0.3,0-0.5,0.1c-2,0.1-4.1,0.2-6.1,0.2
				c-3.4,0-6.8-0.2-10.3-0.6C190.9,61.5,192.5,61.5,194.1,61.3z M233.2,137.6c-4.9-1.9-9.8-3.8-14.5-6.4c0,0,0,0,0,0
				c-3.3-1.8-6.4-4-9.1-6.6c-0.9-0.9-1.7-1.8-2.5-2.8c-0.8-1-1.5-2.1-2.2-3.1c-1.4-2.3-2.4-4.8-3.2-7.4c0,0,0,0,0,0v0c0,0,0,0,0,0
				c0-0.1,0-0.1-0.1-0.2c0,0,0,0.1,0,0.1c-2.3-8.1-2.2-16.6-3.6-24.8c-0.7-4.1-1.7-8.2-3.4-12c-0.4-1-0.9-1.9-1.5-2.8
				c0.5,0.6,1.1,1.2,1.6,1.9c1.6,2.1,3.1,4.3,4.4,6.7c0.9,1.5,1.6,3.1,2.4,4.7c0.1,1,0.2,1.9,0.3,2.9c0.2,1.3,0.4,2.6,0.4,3.9
				c0,0.6-0.1,1.2-0.1,1.9c-0.1,0.7-0.3,1.5-0.5,2.2c-0.3,1.3-0.6,2.6-0.7,4c0,0,0,0,0,0c0.1-0.4,0.2-0.7,0.3-1.1v0
				c0.3-1.2,0.8-2.3,1.1-3.5c0.3-1,0.5-2.1,0.5-3.1c0-0.7-0.1-1.3-0.2-2c-0.1-0.7-0.2-1.3-0.4-2c-0.2-0.9-0.4-1.8-0.5-2.8
				c0.2,0.5,0.5,1.1,0.7,1.6c1.7,4.2,3.2,8.5,4.6,12.8c-0.1,0.5-0.2,1-0.3,1.5c0,0,0-0.1,0-0.1c-0.4,1.5-0.9,3-1.2,4.5
				c-0.2,0.7-0.3,1.5-0.4,2.2c-0.1,0.7-0.1,1.5-0.1,2.2c0,1.6,0.3,3.2,0.7,4.7c0.4,1.5,0.9,3,1.5,4.5c0,0,0.1,0,0,0
				c-0.3-0.8-0.5-1.6-0.7-2.4v0c-0.3-1.1-0.5-2.2-0.6-3.2c-0.1-1.1-0.2-2.2-0.2-3.2c0-1.1,0.1-2.1,0.3-3.2c0.2-1.2,0.5-2.5,0.8-3.7
				c0.2-0.9,0.4-1.8,0.5-2.7c0.3,1,0.6,1.9,0.9,2.9c0.9,2.8,1.8,5.6,2.9,8.3c0.4,0.9,0.8,1.7,1.3,2.6c-0.1,0.7-0.1,1.3-0.2,2
				c-0.1,1-0.2,2.1-0.2,3.1c0,1.1,0.1,2.3,0.3,3.4c0.2,1.1,0.5,2.1,0.9,3.1c0,0,0.1,0,0,0c-0.3-1.5-0.5-3.1-0.6-4.7
				c-0.1-1.5-0.1-3-0.1-4.5c0-0.7,0-1.4,0-2.1c0.7,1.4,1.5,2.7,2.4,4c0.8,1.1,1.6,2.1,2.5,3.1c0,0.1,0,0.1,0,0.2
				c0.1,0.5,0.2,0.9,0.3,1.4c0.3,1,0.7,2,1.3,2.9c0.5,0.9,1.2,1.7,1.8,2.6c0.7,0.9,1.6,1.8,2.4,2.6c0,0,0.1,0,0,0
				c-1.3-1.8-2.7-3.5-3.8-5.5c-0.7-1.2-1.2-2.5-1.6-3.8c3.1,3.5,6.8,6.4,10.7,9.1c0,0.1,0.1,0.1,0.1,0.2c0.2,0.4,0.5,0.7,0.7,1
				c0.5,0.6,1.1,1.1,1.6,1.6c0.7,0.6,1.4,1.1,2.1,1.6c0.7,0.5,1.4,1,2,1.6c0,0,0.1,0,0,0c-1.7-1.8-3.8-3.2-5.6-4.9c0,0,0,0,0,0
				c-0.2-0.3-0.5-0.5-0.7-0.8c2.7,1.9,5.6,3.7,8.3,5.6c1.8,1.2,3.6,2.5,5.3,3.8c0,0,0,0,0,0c0.4,0.3,0.7,0.6,1.1,0.8
				c-1.1-0.5-2.2-1-3.3-1.5C238.1,139.5,235.7,138.6,233.2,137.6z M218.6,113.2c0.8,1.8,1.8,3.5,2.9,5.1c2.2,3.3,4.9,6.1,7.7,8.9
				c2.9,2.8,6,5.5,8.9,8.3c0,0,0,0,0,0c1.5,1.5,2.9,3,4.3,4.5c0.5,0.5,0.9,1.1,1.3,1.6c-1.9-1.6-3.9-3.2-5.9-4.8
				c-2.3-1.7-4.6-3.4-6.9-5.1c0.4,0.2,0.7,0.3,1.1,0.5c0.5,0.2,0.9,0.4,1.4,0.5c0.6,0.2,1.2,0.5,1.7,0.8c0,0,0.1,0,0,0
				c-0.3-0.2-0.7-0.4-1-0.6c-0.5-0.3-1.1-0.5-1.7-0.8c-0.6-0.2-1.2-0.4-1.8-0.7c-0.1,0-0.2-0.1-0.3-0.1c-0.1-0.1-0.3-0.2-0.4-0.3
				c-2.1-1.6-4.3-3.3-6.2-5.1c-0.2-0.2-0.4-0.4-0.6-0.6c0.9,0.5,1.8,0.9,2.8,1.2c1,0.4,1.9,0.8,2.8,1.2c0,0,0,0,0-0.1
				c-1-0.7-2.1-1.3-3.2-1.9c-1.2-0.6-2.4-1.1-3.6-1.7c-1.3-1.3-2.6-2.7-3.8-4.2c0,0,0,0,0,0c0,0,0-0.1-0.1-0.1c0,0,0,0-0.1-0.1
				c0,0,0,0,0,0c-0.9-1.2-1.8-2.5-2.6-3.8c-0.1-0.1-0.1-0.2-0.2-0.3c0.5,0.5,1,0.9,1.5,1.3c0.7,0.5,1.5,1,2.2,1.5
				c0.8,0.5,1.5,1,2.3,1.6c0,0,0.1,0,0,0c-1-1-2-1.8-3.1-2.7c-1.1-0.8-2.3-1.6-3.3-2.6c-0.6-1.1-1.2-2.2-1.7-3.4
				c-0.8-2-1.5-4.1-2.1-6.2c-0.5-1.6-1-3.2-1.4-4.8c0.6,0.7,1.2,1.4,1.8,2c0.8,0.8,1.6,1.4,2.4,2.1c0.9,0.7,1.8,1.5,2.8,2.2
				C217,109.1,217.7,111.2,218.6,113.2z M196.6,72.5c2.8,2.2,5.7,4.3,8.3,6.8c1.8,1.7,3.3,3.6,4.6,5.7c0.8,1.3,1.5,2.7,2.1,4.1
				c0.6,1.4,1.1,2.9,1.5,4.3c0,0,0,0.1,0,0.1c0,0,0-0.1,0-0.1c1.3,4.4,2.1,8.9,3.3,13.3c-1-1-2-2-3-2.9c-1.1-1-2.3-2-3.4-3.1
				c0,0,0,0,0,0c-0.3-0.3-0.6-0.7-0.9-1c-0.1-0.4-0.2-0.7-0.3-1.1c-0.7-2.2-1.3-4.3-2-6.5c-0.7-2.2-1.5-4.3-2.5-6.4
				c0.1,0.1,0.2,0.2,0.3,0.3c0.7,0.7,1.5,1.4,2.2,2c0.9,0.7,1.7,1.4,2.6,2.1c0.9,0.8,1.9,1.5,2.7,2.4c0,0,0,0,0,0l0,0l0,0
				c0,0,0,0,0,0c0.2,0.2,0.5,0.5,0.7,0.7c0,0,0.1,0,0,0c-0.6-0.8-1.2-1.6-1.9-2.3c-0.6-0.6-1.3-1.2-2-1.8c-0.8-0.6-1.6-1.2-2.4-1.8
				c-0.9-0.7-1.7-1.4-2.5-2.2c0,0,0,0,0,0c0,0-0.1-0.1-0.1-0.1c-0.8-1.8-1.7-3.6-2.7-5.4c-1.2-2.1-2.6-4-4.1-5.9
				c-1.6-1.9-3.3-3.7-5.2-5.3c-0.2-0.2-0.5-0.4-0.7-0.6c0.1,0.1,0.2,0.1,0.3,0.2C193.2,69.7,194.8,71.1,196.6,72.5z M304,40
				c-1.6,4.2-2.8,8.6-4.1,12.9c-1.2,4.3-2.4,8.5-4,12.7c-0.8,2-1.7,4.1-2.7,6c-1.3,2.4-3,4.5-4.8,6.5c-2,2-4.3,3.8-6.7,5.3
				c-1.4,0.8-2.8,1.5-4.3,2.2c-1.6,0.7-3.2,1.3-4.9,1.8c-3,0.9-6.1,1.4-9.3,1.9c-3.1,0.4-6.2,0.6-9.3,0.7h0.1c-0.1,0-0.2,0-0.3,0
				c0.1,0,0.1,0,0.2,0c-0.1,0-0.2,0-0.2,0c-3.2,0.1-6.3,0-9.5-0.2c-1.6-0.1-3.3-0.2-4.9-0.2c-0.3-0.2-0.7-0.3-1-0.5
				c0.2,0,0.4,0,0.6,0c1.8-0.1,3.5-0.2,5.3-0.3c2.6-0.1,5.2-0.4,7.8-0.8c1.8-0.3,3.5-0.6,5.2-1.1c0.1,0,0.1,0,0.2,0
				c0.8,0.1,1.7,0.2,2.5,0.3c1.8,0.1,3.6-0.1,5.3-0.4c0,0,0-0.1,0,0c-1.1,0.1-2.2,0.2-3.3,0.2c-1.2,0-2.5-0.1-3.7-0.2h0
				c-0.1,0-0.2,0-0.3,0c3.1-0.8,6.2-1.8,9.2-3c0.7,0.1,1.5,0.1,2.3,0.1c1.3,0,2.6-0.2,4-0.4c1.4-0.3,2.8-0.7,4.1-1.2
				c1.4-0.5,2.7-1.1,3.9-1.8c0,0,0,0,0,0c0,0,0,0,0,0c-1.3,0.6-2.7,1.1-4,1.5c-1.4,0.4-2.8,0.7-4.2,1c0,0,0.1,0,0.1,0
				c-1.7,0.3-3.4,0.4-5.1,0.5c2.5-1.1,4.9-2.3,7.2-3.7c1.9-1.2,3.7-2.4,5.5-3.8c1.4-0.5,2.7-1,4-1.6c2.5-1.2,4.9-2.7,7.2-4.3
				c0,0,0,0,0,0c0,0,0,0,0,0c-1.6,0.9-3.2,1.8-4.9,2.6c0,0,0,0,0,0c-1.6,0.7-3.2,1.4-4.8,2.1c3.8-3.2,7-6.9,9.5-11.1
				c0,0,0-0.1,0.1-0.1c0.7-0.5,1.3-1.1,1.9-1.7c1.4-1.3,2.6-2.8,3.9-4.3c0,0,0,0,0,0c0,0,0,0,0,0c-1.7,1.8-3.5,3.5-5.3,5.2
				c2-3.7,3.4-7.7,4.8-11.7c0.6-1.9,1.2-3.7,1.8-5.6c0.5-0.4,1-0.9,1.4-1.3c0.8-0.8,1.4-1.7,2-2.6c0,0,0,0,0,0c0,0,0,0,0,0
				c-1,1.3-2.1,2.6-3.3,3.8c0.8-2.4,1.7-4.8,2.7-7.1c0,0,0,0,0,0.1c1.3-2.8,2.8-5.4,4.7-7.7c0,0,0,0,0,0.1c1.5-1.8,3.3-3.4,5.2-4.8
				l0,0c0.7-0.5,1.5-1,2.3-1.5C309.3,28,306.2,34.1,304,40z M238,87.6c2.3-0.5,4.5-1.3,6.6-2.4c4.2-2.2,7.7-5.6,10.8-9.1
				c3.3-3.8,6-8,8.8-12.2c2.9-4.3,5.9-8.4,9.2-12.4c2.3-2.8,4.7-5.5,7.1-8c0,0-0.1,0.1-0.1,0.1c5.1-5.3,10.8-10.1,17.1-13.9
				c3.8-2.2,7.8-4.1,12-5.3c1.8-0.5,3.5-0.9,5.4-1.2c-0.1,0.1-0.3,0.2-0.4,0.3c-1.4,0.7-2.8,1.4-4,2.3c-1.4,1-2.8,2.2-4,3.4
				c-2.4,2.5-4.3,5.4-5.8,8.5c-1.1,2.1-2,4.3-2.8,6.5c0.1-1,0.2-2,0.2-3c0.1-1.9,0.2-3.8,0.4-5.7c0.1-0.8,0.2-1.6,0.4-2.4
				c0.2-0.8,0.4-1.6,0.7-2.3v0c0-0.1,0.1-0.2,0.1-0.3c0,0,0,0,0,0c0,0,0,0,0,0c-0.3,0.5-0.5,1.1-0.7,1.6c-0.3,0.7-0.4,1.3-0.6,2
				c-0.3,1.3-0.5,2.6-0.6,3.9c-0.2,2.3-0.1,4.7-0.2,7c-1.6,4.1-2.9,8.3-4.7,12.2c-0.8,1.7-1.7,3.4-2.7,5.1c0-0.2,0.1-0.3,0.1-0.5
				c0.2-0.9,0.3-1.8,0.4-2.8c0.2-2.1,0.1-4.3-0.2-6.5c-0.2-2.1-0.5-4.3-0.8-6.4c-0.2-2.2-0.3-4.4-0.2-6.6c0,0,0,0,0,0s0,0,0,0
				c-0.3,1.8-0.4,3.7-0.3,5.5c0,2,0.2,4.1,0.3,6.1c0.2,2,0.3,4,0.4,6.1c0.1,2,0,4-0.2,5.9c-0.7,1.1-1.4,2.2-2.3,3.2
				c-2.4,2.8-5.1,5.2-8,7.4c0.1-0.1,0.2-0.3,0.3-0.4c0.6-0.9,1-1.9,1.3-3c0.8-2.3,0.9-4.8,0.9-7.3c0-1.3-0.1-2.5-0.2-3.7
				c-0.1-1.3-0.2-2.7-0.4-4c-0.2-2.4-0.4-4.7-0.3-7.1c0,0,0,0,0,0c0,0,0,0,0,0c-0.4,3.1-0.2,6.2-0.1,9.3c0.1,3.5,0.2,6.9-0.2,10.4
				l0,0c0,0,0,0.1,0,0.1c0,0,0,0,0,0v0c-0.2,1.7-0.6,3.3-1.2,4.9c-0.2,0.5-0.4,1-0.7,1.4c0,0-0.1,0-0.1,0.1
				c-2.5,1.8-5.2,3.3-7.9,4.7c-1.5,0.7-3,1.4-4.6,2.1c0.3-0.4,0.5-0.7,0.8-1.1c0.4-0.6,0.7-1.3,1-2c0.3-0.9,0.6-1.8,0.7-2.7
				c0.3-1.7,0.4-3.4,0.4-5.1c0-1.9,0-3.7,0.1-5.6c0,0,0,0,0,0c0,0,0,0,0,0c-0.3,2.5-0.4,4.9-0.7,7.4v0c-0.3,2.3-0.7,4.6-1.6,6.8
				c0,0,0,0.1,0,0.1c0,0,0,0,0,0c-0.2,0.6-0.5,1.1-0.8,1.7c-0.2,0.3-0.4,0.6-0.6,0.9c-1.2,0.5-2.3,1-3.5,1.4
				c-1.8,0.7-3.7,1.2-5.5,1.8c0.2-0.3,0.5-0.6,0.7-0.9c0.5-0.7,0.9-1.6,1.2-2.4c0.3-0.9,0.6-1.9,0.7-2.9c0.2-1,0.3-2,0.4-3.1
				c0,0,0,0,0,0c0,0,0,0,0,0c-0.4,2.2-0.9,4.4-1.8,6.5c-0.2,0.6-0.5,1.2-0.8,1.8c-0.2,0.4-0.5,0.8-0.8,1.2c-2.2,0.6-4.4,1.2-6.7,1.7
				c-2.2,0.5-4.4,0.9-6.6,1.2c-1.8,0.3-3.6,0.6-5.3,0.9c-0.3-0.2-0.7-0.3-1-0.5C236.8,87.9,237.4,87.8,238,87.6z M239.6,94.4
				c0.2,0.3,0.4,0.5,0.6,0.8c-0.3-0.3-0.6-0.6-0.8-0.9C239.5,94.3,239.6,94.3,239.6,94.4z M360.1,139c-1.9,0.5-3.7,0.9-5.6,1.4
				c-3.7,1-7.3,2-10.9,3.3c-1.9,0.6-3.7,1.3-5.5,2.1c-1.9,0.8-3.7,1.6-5.6,2.4c-3.5,1.6-7.1,3-10.9,4.1c-4.4,1.3-8.8,2.1-13.4,2.2
				c-1.7,0-3.4,0-5.1-0.2c-1.9-0.2-3.8-0.5-5.6-0.9c0,0,0,0,0.1,0c-4.4-1.1-8.6-2.7-12.6-4.9c-4.3-2.4-8.2-5.4-11.8-8.9
				c0,0,0,0,0.1,0.1c-3.3-3.3-6.3-6.9-9.1-10.7c-2.9-3.9-5.5-8-8.2-12.1c-1.8-2.7-3.5-5.4-5.4-8.1c1.5,1.9,3.1,3.7,4.8,5.4
				c2.1,2.2,4.3,4.2,6.6,6.2c1.5,1.3,2.9,2.5,4.5,3.8c0.7,1,1.3,2,1.8,3.1c0,0,0,0,0-0.1c0.8,1.6,1.4,3.3,2.3,4.9
				c0.9,1.6,2,3,3.3,4.2c0,0,0.1,0,0,0c-0.1-0.1-0.1-0.2-0.2-0.2l0,0c-1.8-2.3-2.9-5-4.2-7.6c-0.6-1.2-1.2-2.3-2-3.4
				c2.8,2.2,5.7,4.4,8.7,6.3c1,0.7,2.1,1.3,3.1,1.9c0.1,0.4,0.3,0.7,0.4,1.1c0.2,0.8,0.4,1.6,0.6,2.5c0.2,0.8,0.4,1.6,0.8,2.4
				c0.3,0.7,0.6,1.4,1,2c0.8,1.3,1.9,2.4,3,3.4c1.2,1.1,2.5,2,3.8,2.9c0,0,0,0,0,0c0.3,0.2,0.6,0.4,0.8,0.6c0,0,0.1,0,0,0
				c-0.9-0.8-1.9-1.6-2.9-2.5c-1-0.9-2-1.8-2.8-2.9c0,0,0,0,0,0c-0.4-0.4-0.7-0.9-1-1.4c-0.4-0.6-0.7-1.2-1-1.9c0,0,0,0.1,0.1,0.1
				c-0.6-1.3-1-2.7-1.5-4.1c-0.2-0.7-0.5-1.3-0.8-2c3.9,2.3,7.9,4.3,12.1,5.9c0.8,0.3,1.6,0.6,2.4,0.8c0.3,0.5,0.6,0.9,1,1.4
				c0.7,0.8,1.4,1.5,2.2,2.2c1.5,1.4,3.3,2.5,5.1,3.3c1.8,0.8,3.7,1.4,5.6,1.9c2.2,0.5,4.4,0.9,6.7,1.1c0,0,0,0,0-0.1
				c-1.5-0.3-3-0.6-4.5-0.9c-1.4-0.4-2.8-0.8-4.2-1.3c0,0,0,0,0,0c-1.3-0.5-2.5-1.1-3.8-1.7c-1.3-0.7-2.6-1.5-3.8-2.3c0,0,0,0,0,0
				c0,0,0,0-0.1-0.1c-1.4-1-2.6-2.1-3.8-3.3c1.5,0.5,3,0.9,4.5,1.3c2.7,0.7,5.5,1.1,8.2,1.3c2.6,0.2,5.1,0.1,7.7-0.1
				c0.7,0.4,1.3,0.7,2,0.9c0.7,0.3,1.4,0.5,2.2,0.7c0.7,0.2,1.5,0.3,2.2,0.5c1.4,0.2,2.8,0.4,4.2,0.5c1.5,0.1,3,0.3,4.5,0.4h0
				l0.8,0.1c0,0,0,0,0-0.1c-2.7-0.5-5.5-0.9-8.2-1.4c-1.4-0.2-2.7-0.5-4-0.9c-1-0.2-1.9-0.5-2.8-0.8c2.4-0.2,4.9-0.6,7.3-1
				c3.9-0.7,7.8-1.6,11.7-2.4c0.6,0.2,1.1,0.3,1.7,0.4c1,0.2,2.1,0.3,3.1,0.3c1.2,0.1,2.4,0.1,3.5,0.1c1.2,0,2.3,0.1,3.5,0.2h0
				c0.1,0,0.3,0,0.4,0c0,0,0.1-0.1,0-0.1c-3.3-0.6-6.7-0.5-10.1-0.9c0,0,0,0,0,0c-0.5-0.1-1.1-0.1-1.6-0.2
				c6.4-1.3,12.7-2.5,19.3-2.3c0,0,0,0,0,0c2.5,0.1,5,0.4,7.5,0.9c0.2,0.1,0.4,0.2,0.6,0.3C362,138.5,361.1,138.7,360.1,139z
				 M262,115.9c4.9,3.6,10,6.8,15.4,9.5c2.7,1.4,5.5,2.6,8.4,3.5c3,1,6.2,1.8,9.3,2.4c9.9,1.9,20.1,1.7,30.2,1.7
				c10.1,0,20.4,0.1,30.3,2.5c2.1,0.5,4.2,1.2,6.2,2.1c-1.3-0.3-2.7-0.6-4-0.8c-2.1-0.3-4.3-0.4-6.4-0.4c-4.6,0-9.1,0.6-13.6,1.4
				c-0.7,0.1-1.3,0.2-2,0.4c0.3-0.1,0.6-0.3,0.9-0.4c1.2-0.6,2.4-1.3,3.6-1.9c0,0,0,0,0,0c0.3-0.1,0.6-0.3,0.9-0.4
				c0.4-0.2,0.8-0.3,1.3-0.4c0,0,0,0,0,0c0,0,0,0,0,0c-0.6,0.1-1.1,0.2-1.6,0.3c-0.6,0.2-1.3,0.5-1.9,0.8c-0.6,0.3-1.2,0.6-1.8,1
				c-0.7,0.4-1.4,0.8-2.1,1.1h0c0,0,0,0,0,0c-3.6,0.7-7.2,1.4-10.8,2c-2.2,0.3-4.3,0.7-6.5,0.9c0.1,0,0.1,0,0.2-0.1
				c1.1-0.4,2.2-1,3.2-1.6c2.1-1.2,4.2-2.6,6.4-3.6c1-0.5,2.1-0.9,3.2-1.1c0,0,0,0,0,0c-0.5,0-1.1,0.1-1.6,0.2
				c-0.6,0.1-1.2,0.3-1.8,0.5c-1.1,0.4-2.2,0.9-3.2,1.5c-1.1,0.6-2.2,1.3-3.3,2c-1.1,0.7-2.3,1.5-3.6,2c0,0,0,0,0,0
				c-0.1,0.1-0.3,0.1-0.4,0.2c-2,0.2-4,0.2-6.1,0.2c-2.1-0.1-4.3-0.3-6.4-0.6c-2.1-0.4-4.1-0.9-6.2-1.5c0,0,0,0-0.1,0
				c0.6,0,1.1,0,1.7,0c1.6,0,3.2-0.2,4.8-0.6c0.7-0.2,1.4-0.5,2-0.7c0.8-0.3,1.5-0.7,2.3-1c0.7-0.3,1.3-0.6,2-0.9
				c0.8-0.3,1.6-0.6,2.5-0.8c0,0,0-0.1,0-0.1c-0.9,0.1-1.7,0.2-2.6,0.5c-0.9,0.2-1.8,0.6-2.7,0.9c-0.9,0.3-1.8,0.7-2.7,1
				c-1,0.4-2.1,0.7-3.2,0.9c-1.6,0.3-3.2,0.4-4.8,0.4c-2.8-0.9-5.5-1.9-8.1-3.1c-2.2-1-4.3-2.2-6.4-3.4c0.1,0,0.3,0.1,0.4,0.1
				c1,0.2,2.1,0.3,3.2,0.3c2.4,0.1,4.8-0.2,7.1-0.5c0,0,0-0.1,0-0.1c-1.7,0-3.4,0.1-5.2,0.1c-1.7,0-3.4,0-5-0.1h0
				c-0.4,0-0.8-0.1-1.2-0.2c-0.5-0.3-1-0.6-1.5-0.9c-2.7-1.7-5.2-3.5-7.7-5.4c-2.6-2-5.2-4.2-7.7-6.4c-2.5-2.2-4.9-4.5-7.4-6.8
				c0,0-0.1-0.1-0.1-0.1C259.1,113.7,260.6,114.8,262,115.9z M375.1,89.5c-2.3,2.2-4.9,4.3-7.5,6.1c-2.6,1.8-5.2,3.4-8,4.8
				c-2.7,1.4-5.5,2.6-8.3,3.6c-6.5,2.3-13.3,3.7-20.1,4.2c-9,0.6-18.2-0.2-27-1.9c-1.6-0.3-3.3-0.7-4.9-1c2-0.3,3.9-0.6,5.9-1
				c3-0.6,6-1.5,9-2.4c1,0.2,2,0.5,3,0.6c1.9,0.4,3.8,0.6,5.7,0.7c4,0.2,7.9-0.1,11.8-1c0,0,0-0.1,0-0.1c-1.8,0.3-3.6,0.4-5.4,0.4
				c-1.7,0-3.4,0-5.1-0.2c-2.1-0.2-4.3-0.4-6.4-0.7c-0.8-0.1-1.6-0.2-2.4-0.3c0.7-0.2,1.4-0.4,2-0.6c3.9-1.4,7.8-3.1,11.5-5
				c1.3-0.6,2.6-1.3,3.9-2c2.4,0.3,4.8,0.9,7.2,1.3c1.4,0.2,2.7,0.3,4.1,0.3c1.5,0,3-0.1,4.4-0.3c5.7-0.7,11.2-2.7,16.5-4.7
				c0,0,0,0,0,0c0,0,0,0,0,0c-4.1,1.2-8.2,2.3-12.3,3.1c0,0,0.1,0,0.1,0c-1.8,0.3-3.7,0.5-5.5,0.7c-0.9,0.1-1.9,0.1-2.8,0.1
				c-1,0-2,0-3.1-0.1c-1.8-0.2-3.6-0.4-5.5-0.6c-0.8-0.1-1.5-0.1-2.3-0.1c2.2-1.2,4.4-2.3,6.5-3.6c3.7-2.1,7.3-4.3,10.9-6.5
				c0.5-0.3,0.9-0.6,1.4-0.9c0.7,0.1,1.3,0.1,2,0.1c1.3,0,2.5-0.1,3.8-0.2c1.1-0.1,2.3-0.4,3.4-0.6c1.2-0.3,2.4-0.6,3.6-0.9
				c2.2-0.7,4.5-1.5,6.7-2.2c2.4-0.8,4.8-1.6,7.3-2.2c0,0,0-0.1,0-0.1c-3.7,0.7-7.4,1.6-11,2.6c-1.8,0.5-3.6,0.9-5.3,1.4
				c-1.9,0.5-3.8,0.9-5.7,1.2c0,0,0,0,0,0c-1.4,0.2-2.8,0.4-4.2,0.5c3.1-1.9,6.2-3.9,9.3-5.8c3.5-2.2,7-4.4,10.5-6.5
				c2.4,0.2,4.8-0.2,7.1-0.7c3.2-0.7,6.2-1.8,9.4-2.6c0,0,0,0,0,0c0,0,0,0,0,0c-1.9,0.3-3.8,0.7-5.7,1.2c-2.3,0.5-4.6,1-6.9,1.4
				c0,0,0,0,0.1,0c-1.1,0.2-2.3,0.3-3.4,0.4c2.4-1.5,4.8-3,7.3-4.4c0,0,0,0,0,0c3.8-2.2,7.6-4.4,11.5-6.4c0,0,0-0.1,0,0
				c-6.2,2.8-12.2,6-18.1,9.3c0.5-0.5,0.9-0.9,1.4-1.4c1-1.2,2-2.4,3-3.6c1-1.2,2-2.3,3.1-3.5c1.2-1.3,2.5-2.5,3.8-3.6h0
				c0.1-0.1,0.2-0.2,0.3-0.2c0,0,0-0.1,0-0.1c0,0,0,0,0,0c-2.6,1.9-5,4-7.2,6.4c-1.1,1.2-2.2,2.5-3.3,3.8c-0.7,0.9-1.3,1.8-2,2.7
				c-0.6,0.4-1.2,0.7-1.9,1.1c0,0-0.1,0-0.1,0c0,0,0,0,0,0.1c0,0,0,0,0.1,0c-5.3,3-10.6,6.2-15.9,9.3c0,0,0.1,0,0.1-0.1
				c-0.3,0.2-0.7,0.4-1,0.6c1.3-1.6,2.4-3.4,3.4-5.2c1.1-2,2-4,2.9-6c1-2.1,2.1-4.2,3.4-6.1c0,0,0,0,0,0c0.4-0.5,0.7-1.1,1.1-1.6
				c0,0,0,0,0,0c0,0,0,0,0,0c-2.4,2.7-4.3,5.9-6.1,9.1c-1.8,3.2-3.5,6.5-5.6,9.5c-0.3,0.5-0.7,0.9-1.1,1.4
				c-5.8,3.4-11.6,6.6-17.7,9.5c0,0,0.1-0.1,0.1-0.1c1.6-1.7,3-3.7,4.2-5.7c1.2-2,2.2-4.1,3.3-6.2c1.2-2.3,2.3-4.6,3.7-6.8
				c0,0,0,0,0,0c0,0,0,0,0,0c-1.8,2.5-3.3,5.1-4.8,7.7c-0.8,1.3-1.6,2.7-2.4,4c-0.8,1.3-1.6,2.6-2.5,3.9c0,0,0-0.1,0-0.1
				c-1,1.4-1.9,2.7-3,4c0,0-0.1,0.1-0.1,0.1c-3,1.4-6.1,2.7-9.2,3.9c-2.6,1-5.2,1.8-7.9,2.7c1.6-1.3,3-2.7,4.4-4.3
				c1.9-2.3,3.4-4.9,4.6-7.6c0,0,0,0,0,0c0,0,0,0,0,0c-0.6,1.3-1.4,2.5-2.2,3.6l0,0c-1.3,1.8-2.7,3.5-4.2,5.1
				c-1.1,1.2-2.2,2.3-3.3,3.5c-0.8,0.2-1.5,0.5-2.3,0.7c-3.8,1-7.6,1.9-11.5,2.5c-2.6,0.4-5.3,0.6-8,0.8c1.9-0.5,3.8-1.1,5.6-1.9
				c4.6-1.9,8.9-4.5,12.9-7.4c4.2-3,8.1-6.4,12-9.8c3.9-3.4,7.7-6.8,11.7-10.2c2.5-2.1,5-4,7.6-5.9c0,0,0,0,0,0c0,0,0.1,0,0.1-0.1
				c0,0,0.1-0.1,0.1-0.1c0,0,0,0-0.1,0c6.3-4.4,13.3-7.8,20.6-10.4c7.6-2.7,15.4-4.4,23.4-5c6.8-0.5,13.7-0.2,20.4,1.1
				c0,0,0,0-0.1,0c1.3,0.3,2.6,0.6,3.8,0.9c-0.8,0.4-1.5,0.8-2.3,1.2c-1.6,0.9-3.1,1.9-4.6,3c-3.1,2.3-5.8,5-8.4,7.8
				c-5.3,5.7-9.8,12.1-14.8,18c0,0,0.1-0.1,0.1-0.1C379.3,85.3,377.3,87.5,375.1,89.5z"/>
			<path class="st2" d="M191.4,70.3C191.4,70.3,191.4,70.4,191.4,70.3C191.4,70.4,191.4,70.4,191.4,70.3
				C191.4,70.3,191.4,70.3,191.4,70.3z"/>
			<path class="st2" d="M201.8,111.3C201.8,111.3,201.8,111.3,201.8,111.3C201.8,111.3,201.8,111.3,201.8,111.3
				C201.8,111.3,201.8,111.3,201.8,111.3z"/>
			<path class="st2" d="M191.4,70.4C191.4,70.4,191.4,70.4,191.4,70.4C191.4,70.4,191.4,70.4,191.4,70.4
				C191.4,70.4,191.4,70.4,191.4,70.4z"/>
			<path class="st2" d="M221.7,115.3c0,0,0-0.1-0.1-0.1L221.7,115.3C221.7,115.3,221.7,115.3,221.7,115.3z"/>
			<path class="st2" d="M181.5,98.6C181.5,98.6,181.5,98.6,181.5,98.6C181.5,98.6,181.5,98.6,181.5,98.6
				C181.5,98.6,181.5,98.6,181.5,98.6z"/>
			<path class="st2" d="M217.8,120C217.8,120,217.9,120,217.8,120C217.9,120,217.8,119.9,217.8,120
				C217.8,119.9,217.8,119.9,217.8,120z"/>
			<path class="st2" d="M211.5,61.3C211.5,61.3,211.5,61.3,211.5,61.3C211.5,61.3,211.5,61.3,211.5,61.3
				C211.4,61.3,211.5,61.3,211.5,61.3z"/>
			<path class="st2" d="M280.6,67.7C280.6,67.7,280.6,67.7,280.6,67.7C280.6,67.7,280.6,67.7,280.6,67.7
				C280.6,67.7,280.6,67.7,280.6,67.7z"/>
			<path class="st2" d="M689.9,66C689.9,66,689.9,66,689.9,66C689.9,66,690,66,689.9,66C690,65.9,690,66,689.9,66z"/>
			<path class="st2" d="M761.8,51.1c-2.7-0.9-5.5-1.5-8.3-2c-2.8-0.5-5.7-0.8-8.6-1c-1.3-0.1-2.7-0.1-4-0.1c-4.5,0-9,0.4-13.4,1.1
				c-5.8,0.9-11.5,2.4-17.1,4.3c-5.4,1.9-10.6,4.3-15.6,7.2c-3.7,2.1-7.2,4.6-10.5,7.2c-3.4,2.7-6.5,5.5-9.7,8.4
				c-6.5,5.9-13,11.8-20.2,16.9c0,0,0.1-0.1,0.1-0.1c-4.2,2.9-8.7,5.5-13.6,7.3c0,0,0,0,0,0c-1,0.4-2.1,0.7-3.1,1
				c-0.6,0-1.2,0.1-1.9,0.1h0c-0.2,0-0.3,0-0.5,0c0.1,0,0.2,0,0.3,0c-4,0-8-0.2-12-0.7c-4.4-0.5-8.8-1.4-13-2.5
				c-7.3-2-14.3-4.6-21.2-7.7c3.4,0.6,6.8,1.2,10.2,1.5c2.6,0.3,5.2,0.3,7.8,0.2c2.6-0.1,5.2-0.4,7.7-0.9c2.6-0.5,5.1-1.2,7.6-2.1
				c2.4-0.9,4.7-1.9,6.9-3.2c2.2-1.3,4.3-2.8,6.2-4.6c1.9-1.8,3.6-3.7,5-5.9c2-3.1,3.5-6.5,4.7-9.9c1.3-3.8,2.4-7.6,3.4-11.5
				c1-4,2.1-7.9,3.3-11.8c1.1-3.6,2.5-7.1,4.3-10.5c1.2-2.1,2.6-4.1,4.3-5.9c1.3-1.3,2.6-2.4,4.2-3.3c0.3-0.2,0.6-0.3,0.9-0.5
				c0.4-0.2,0.6-0.6,0.6-1c-0.1-0.5-0.5-0.8-1-0.8c0,0-0.1,0-0.1,0c-1.2,0.2-2.5,0.3-3.7,0.5c-1.3,0.2-2.6,0.5-3.9,0.8
				c-2.5,0.6-4.9,1.5-7.2,2.5c-4.8,2.1-9.3,4.9-13.5,8.1c-4.3,3.3-8.2,7-11.9,11c-3.7,3.9-7.1,8.1-10.2,12.4c-1.4,1.9-2.7,3.8-4,5.7
				c-1.3,2-2.6,4-4,6c-2.6,3.9-5.4,7.7-8.7,11.1c-2.1,2.1-4.3,4-6.8,5.5c-1.9,1.1-3.9,2-6.1,2.7c-0.9,0.3-1.9,0.5-2.9,0.6
				c-8-4-15.8-8.5-23.6-12.9c-6.1-3.5-12.3-7-18.6-10.3c2.7,0.9,5.5,1.7,8.3,2.4c3.3,0.8,6.7,1.4,10.1,1.7c3.3,0.3,6.7,0.2,10-0.3
				c3-0.4,5.9-1.1,8.7-2c2.8-0.9,5.6-2.1,8.2-3.6c2.6-1.4,5.1-3.1,7.4-5c2-1.6,3.7-3.4,5.5-5.2c2.6-2.7,5.4-5.3,8.6-7.3
				c1.3-0.7,2.7-1.4,4.1-1.8c0.5-0.1,1.1-0.3,1.6-0.4c0.6-0.1,1.2-0.2,1.9-0.2c0.4,0,0.6-0.4,0.7-0.7c0-0.3-0.2-0.7-0.5-0.8
				c-1.4-0.4-2.7-0.7-4.1-1c-1.6-0.3-3.1-0.5-4.7-0.6c-1.2-0.1-2.3-0.1-3.5-0.1c-1.9,0-3.8,0.1-5.6,0.3c-6.2,0.7-12.2,2.5-18,4.7
				c-5.7,2.2-11.2,5-16.7,7.8c-5.3,2.7-10.7,5.3-16.4,7c-3.2,0.9-6.4,1.5-9.6,1.6c-1,0-2,0-3-0.1c-4.2-2-8.4-3.8-12.7-5.5
				c-4.6-1.7-9.3-3.2-14-4.4c-4.9-1.2-9.9-2.1-15-2.6c-3.9-0.4-7.9-0.6-11.8-0.6c-1.1,0-2.1,0-3.2,0c-9.7,0.2-19.3,1.7-28.7,4.3
				c3.3-1.8,6.4-3.8,9.3-6.1c1.8-1.4,3.5-2.9,5-4.6c0.8-0.8,1.4-1.7,2.2-2.6c0.8-0.9,1.5-1.8,2.3-2.7c2.8-3.1,5.7-6.1,9.1-8.6
				c1.4-1,2.9-2,4.4-2.9c1.6-0.9,3.3-1.7,5-2.4c1-0.4,1.9-0.7,2.9-1c1.1-0.3,2.2-0.6,3.3-0.9c0.4-0.1,0.6-0.4,0.6-0.8
				c0-0.4-0.2-0.7-0.6-0.8c-1.3-0.4-2.7-0.7-4-0.9c-1.4-0.2-2.8-0.4-4.2-0.4c-0.4,0-0.7,0-1.1,0c-2.4,0-4.8,0.3-7.2,0.8
				c-2.7,0.5-5.4,1.4-7.9,2.5c-2.6,1.1-5.1,2.5-7.4,4.2c-2.2,1.5-4.3,3.3-6.1,5.2c-1.6,1.7-3,3.6-4.3,5.5c-2.7,4-4.9,8.4-7.5,12.6
				c-0.9,1.4-1.8,2.7-2.8,4c0,0,0,0,0,0c-1.3,1.7-2.8,3.2-4.4,4.5C429.1,58,424,60.3,419,63c-4.4,2.4-8.6,5-12.7,7.8
				c-1.9,1.3-3.7,2.6-5.5,4c-1.9,1.5-3.7,3.2-5.5,4.9c-3.4,3.4-6.5,7.1-9.1,11.2c-2.6,4.1-4.6,8.4-6.1,13c0,0,0,0.1,0.1,0
				c0.3-0.5,0.6-1,0.8-1.5c0,0,0,0,0,0c1.6-2.7,3.4-5.4,5.4-7.9c1.9-2.4,3.9-4.7,6.1-6.8c3.7-3.7,7.7-7,11.8-10.2
				c4.2-3.3,8.7-6.3,13.4-9.1c9.6-5.6,19.8-10,30.4-13.1c5-1.4,10.1-2.5,15.2-3.2c0.8-0.1,1.5-0.2,2.3-0.3c1.1,0.5,2.2,1,3.3,1.6
				c4.4,2.4,8.2,5.6,11.8,9.1c1.9,1.9,3.8,3.9,5.5,5.9c1.9,2.1,3.6,4.3,5.4,6.4c3.4,4,7,7.8,10.9,11.3c3.6,3.2,7.5,6,11.6,8.4
				c4.5,2.6,9.2,4.8,14.1,6.7c0.9,0.3,1.7,0.7,2.6,1c0.4,0.1,0.8,0,1.1-0.3c0.3-0.4,0.2-1-0.2-1.3c-1.2-0.9-2.2-1.8-3.3-2.8
				c0,0,0.1,0.1,0.1,0.1c0,0-0.1-0.1-0.1-0.1c0,0,0,0,0,0c0,0,0,0,0,0c-1.3-1.3-2.4-2.6-3.5-4c-1.1-1.4-2-2.8-2.9-4.3
				c-2.7-4.5-4.9-9.4-7.4-14c-1.3-2.3-2.6-4.5-4.2-6.7c-1.6-2.2-3.4-4.3-5.5-6.2c-3.9-3.5-8.6-6.1-13.5-7.8
				c-4.9-1.6-10.1-2.4-15.3-2.9c-2.2-0.2-4.4-0.4-6.6-0.5c3-0.3,6.1-0.4,9.1-0.5c4.7,0,9.5,0.2,14.2,0.8c4.8,0.6,9.5,1.5,14.1,2.7
				c10,2.7,19.4,6.7,28.6,11.4c0.4,0.4,0.7,0.7,1.1,1.1c0.6,0.8,1.2,1.7,1.7,2.5l0,0l0,0.1c0,0,0,0,0,0c1.5,2.6,2.6,5.3,3.5,8.1
				c2.9,10.1,2.2,20.8,4.7,31c0.6,2.5,1.4,4.9,2.5,7.2c1.1,2.4,2.5,4.6,4.2,6.7c1.7,2.1,3.7,3.9,5.8,5.5c2.1,1.6,4.4,3,6.7,4.3
				c8.6,4.7,18.2,7.4,26.8,12.1c0.3,0.2,0.6,0.3,0.9,0.5c0.2,0.1,0.3,0.2,0.5,0.2c0.3,0,0.5,0,0.8-0.2c0.3-0.3,0.5-0.8,0.3-1.3
				c-2.3-4-5.5-7.4-8.8-10.6c-1.6-1.6-3.3-3.1-5-4.6c-1.8-1.6-3.5-3.2-5.2-4.9c0,0,0,0,0,0c-1.4-1.3-2.6-2.7-3.9-4.1
				c-1.3-1.5-2.5-3.2-3.5-4.9c0,0,0,0,0,0c0,0,0,0,0,0c0-0.1-0.1-0.1-0.1-0.2c0,0,0,0,0,0.1c-0.7-1.3-1.4-2.6-2-4
				c-0.7-1.7-1.3-3.4-1.8-5.2c0,0.1,0,0.1,0.1,0.2c-1.2-4.3-2.1-8.6-3.4-12.9c-0.7-2.2-1.5-4.4-2.5-6.5c-0.9-1.9-2.1-3.7-3.5-5.3
				c-2.5-3-5.6-5.3-8.7-7.5c-2.5-1.8-5-3.5-7.3-5.4c6.6,3.5,13.1,7.2,19.5,10.9c8.3,4.8,16.7,9.6,25.3,13.7c0.3,0.1,0.6,0.3,0.9,0.4
				c1.4,1.9,2.9,3.9,4.3,5.8c1.8,2.6,3.4,5.3,5,8c0,0,0,0,0,0c2.5,4.2,4.9,8.4,7.5,12.6c2.5,4.1,5.2,8.2,8.1,12.1
				c2.9,3.8,6,7.5,9.5,10.8c1.7,1.6,3.6,3.1,5.5,4.5c2,1.4,4.1,2.7,6.3,3.9c4.5,2.4,9.3,4.1,14.3,5.1c6,1.2,12.3,0.9,18.3-0.3
				c2.9-0.6,5.8-1.4,8.6-2.4c3-1,5.9-2.3,8.8-3.6c2.8-1.3,5.6-2.5,8.5-3.6c2.9-1.1,5.8-2,8.7-2.9c-0.1,0-0.2,0.1-0.3,0.1
				c2.5-0.7,4.9-1.4,7.4-2c2.6-0.7,5.1-1.3,7.7-1.9c0.4-0.1,0.8-0.3,0.9-0.7c0.2-0.5,0-1.1-0.4-1.4c-2.4-1.8-5.2-3.1-8.1-4
				c-1.4-0.5-2.8-0.8-4.2-1.2c-1.6-0.4-3.2-0.7-4.8-1c-6.4-1.1-12.9-1.4-19.4-1.4c-2.7,0-5.4,0-8,0c-3.8,0-7.6,0-11.4-0.1
				c-6.4-0.2-12.9-0.7-19.2-2c-0.4-0.1-0.8-0.2-1.2-0.3c-1.6-0.4-3.2-0.9-4.8-1.4c-1.6-0.5-3.3-1.2-4.9-1.9
				c-2.8-1.2-5.6-2.6-8.3-4.1c-2.4-1.3-4.7-2.7-6.9-4.2c-2.3-1.5-4.6-3.1-6.8-4.7c-3.6-2.7-6.9-5.5-10.2-8.6
				c-2.4-2.7-4.9-5.3-7.4-7.9c3.1,1.4,6.2,2.7,9.3,3.9c4.5,1.7,9.1,3.1,13.8,4.3c9.2,2.3,18.7,3.3,28.1,2.8c0.9,0,1.8-0.1,2.6-0.2
				c1.2,0.3,2.4,0.7,3.6,1c2.9,0.9,5.9,1.7,8.9,2.4c2.9,0.6,5.8,1.1,8.7,1.4c2.9,0.3,5.8,0.4,8.8,0.4c11.6,0,23.2-2.4,33.6-7.5
				c4.1-2,8-4.4,11.7-7.1c1.8-1.3,3.4-2.7,5.1-4.2c1.5-1.3,2.8-2.7,4.2-4.2c5.4-5.9,10.1-12.5,15.3-18.7c3.5-4.1,7.3-8.1,11.8-11.2
				c2.6-1.8,5.5-3.3,8.5-4.4c0.3-0.1,0.6-0.5,0.6-0.9C762.6,51.7,762.3,51.3,761.8,51.1z M485.1,19.6c-1.8,0.7-3.6,1.5-5.3,2.4
				c-3.4,1.8-6.4,4.1-9.3,6.6c-3,2.7-5.7,5.7-8.3,8.8c-1.4,1.6-2.9,3.2-4.4,4.7c-1.6,1.5-3.2,2.8-4.9,4.1c-3.2,2.4-6.5,4.5-10,6.5
				c-0.4,0.2-0.8,0.4-1.1,0.6c-1,0.3-1.9,0.6-2.9,1c0.8-0.7,1.7-1.4,2.5-2.2c1-0.9,1.9-1.8,2.8-2.7c1.2-0.5,2.3-1,3.4-1.5
				c1.6-0.9,3.2-1.8,4.7-2.8c0,0,0,0,0,0c0,0,0,0,0,0c-1.5,0.7-3.1,1.5-4.6,2.3c-1,0.5-2,1-3,1.6c1.5-1.5,3-3,4.4-4.5
				c0.2-0.2,0.3-0.3,0.5-0.5c1.3-0.5,2.6-1.1,3.9-1.7c2.1-1,4.2-2.3,6.2-3.5c0,0,0,0,0,0c0,0,0,0,0,0c-2,1-4,2-6,3
				c-1.2,0.6-2.3,1.1-3.5,1.7c2.1-2.2,4.2-4.5,6.4-6.7c0.3-0.1,0.7-0.2,1-0.4c1-0.4,1.9-0.9,2.8-1.4c1-0.5,2-1.1,3-1.7
				c1-0.6,2-1.1,3-1.7c0,0,0,0,0,0c0,0,0,0,0,0c-1.8,0.7-3.5,1.6-5.2,2.5c-1.3,0.7-2.6,1.4-3.8,2c1-1,2-1.9,3-2.9
				c1.1-1,2.2-1.9,3.4-2.8c1.1-0.8,2.2-1.6,3.3-2.4c0.3-0.1,0.7-0.2,1-0.2c1.2-0.3,2.4-0.6,3.6-1c0,0,0-0.1,0-0.1
				c-1.1,0.2-2.2,0.4-3.3,0.7c-0.2,0.1-0.5,0.1-0.7,0.2c1.2-0.8,2.4-1.5,3.6-2.1c2.6-1.4,5.3-2.7,8.1-3.8l-0.1,0
				c2.8-1.1,5.6-2,8.4-2.9c0.1,0,0.1,0,0.2,0C486.9,19,486,19.3,485.1,19.6z M437.1,54.1c2-1.9,3.7-4.2,5.3-6.5
				c3.3-4.8,5.9-10,9.5-14.6c0,0,0,0,0,0c0.9-1.2,1.9-2.3,3-3.4c1.2-1.2,2.6-2.3,4-3.4c3-2.2,6.2-4,9.7-5.4c-0.1,0-0.1,0.1-0.2,0.1
				c1.6-0.6,3.2-1.1,4.8-1.6c1.6-0.4,3.2-0.7,4.9-0.9c0,0-0.1,0-0.1,0c2.7-0.3,5.5-0.3,8.3,0.1c0.3,0.1,0.7,0.1,1,0.2
				c-4.7,1.2-9.3,2.5-13.7,4.3c0.4-0.3,0.9-0.6,1.3-0.9c1.3-1,2.6-2.2,3.8-3.3c0,0,0,0,0,0c0,0,0,0,0,0c-1.4,1-2.7,2-4,3
				c-0.7,0.5-1.4,1.1-2,1.6c-2.3,0.9-4.5,2-6.7,3.2c0,0,0,0,0,0c0.2-0.2,0.4-0.4,0.6-0.6c0.8-0.9,1.5-1.8,2.2-2.7c0.8-1,1.6-2,2.4-3
				c0,0,0,0,0,0c0,0,0,0,0,0c-1.5,1.5-2.9,3.1-4.2,4.7c-0.7,0.8-1.4,1.6-2.1,2.4c0,0,0,0,0,0c-0.7,0.4-1.4,0.8-2.1,1.2
				c-1.2,0.8-2.3,1.6-3.5,2.5c-0.6,0.4-1.1,0.9-1.6,1.3c0.2-0.3,0.5-0.7,0.7-1c0.5-0.8,1-1.7,1.4-2.6c0.5-0.8,1-1.7,1.5-2.5
				c0,0,0,0,0,0c0,0,0,0,0,0c-0.9,1.2-1.7,2.4-2.5,3.7c-0.6,1-1.2,2-1.8,3c-0.3,0.2-0.6,0.5-0.9,0.7c-1.1,1-2.2,2-3.3,3.1
				c-0.8,0.8-1.5,1.6-2.3,2.4c0.1-0.2,0.2-0.4,0.4-0.7c0.5-1,1-2.1,1.5-3.2c0.5-1,1.1-2.1,1.7-3l0,0c0.4-0.6,0.9-1.2,1.4-1.7
				c0,0,0,0,0,0c0,0,0,0,0,0c-0.3,0.3-0.6,0.6-0.9,0.9c-0.5,0.4-0.8,0.9-1.2,1.5c-0.6,0.9-1.1,1.8-1.6,2.8c-0.5,1-1,2.1-1.5,3.2
				c-0.2,0.5-0.5,1-0.7,1.4c-1.1,1.2-2.2,2.5-3.2,3.7c-2.1,2.5-4.2,5-6.3,7.5c-1,1.2-2,2.3-3,3.5c-0.4,0.2-0.8,0.3-1.2,0.5
				C436.1,55,436.6,54.5,437.1,54.1z M524.1,97.4c-2.3-1-4.5-2.1-6.6-3.3c-2.9-1.6-5.8-3.5-8.4-5.5c-2.8-2.1-5.4-4.3-7.8-6.7
				c-3.2-3.1-6.2-6.5-9-10c-1.5-1.8-2.9-3.6-4.5-5.3c-1.6-1.8-3.3-3.6-5-5.2c-1.7-1.6-3.4-3.1-5.3-4.5c-1.7-1.2-3.5-2.3-5.3-3.3
				c1,0.3,2.1,0.7,3.1,1.1c2.7,1.1,5.3,2.4,7.9,3.8c0.6,0.3,1.1,0.7,1.7,1.1c1.1,1.9,2.2,3.6,3.5,5.4c0.8,1.1,1.6,2.1,2.5,3.1
				c0.9,1.1,1.9,2.3,2.8,3.4c0,0,0.1,0,0.1,0c-1.5-2.2-3.1-4.4-4.7-6.5c-1.2-1.7-2.5-3.4-3.7-5c1.9,1.2,3.8,2.4,5.6,3.8
				c1.7,1.3,3.3,2.6,4.9,4c0.3,0.3,0.6,0.6,0.9,0.9c0.3,0.5,0.5,1,0.7,1.6c0.3,0.7,0.4,1.4,0.6,2c0.3,1.2,0.7,2.5,1.1,3.7
				c0.3,0.7,0.6,1.3,0.9,2c0.3,0.6,0.7,1.1,1.1,1.5c0,0,0.1,0,0,0c-0.2-0.3-0.3-0.5-0.5-0.8c0,0,0,0,0,0c-0.5-0.9-0.9-1.9-1.2-2.9
				c-0.3-1-0.6-2-0.9-3c-0.3-1-0.6-2-1.1-2.9c-0.1-0.3-0.3-0.5-0.4-0.8c1.1,1.1,2.3,2.2,3.3,3.3c1.5,1.5,2.8,3.1,4.2,4.7
				c0.6,1.6,1.2,3.2,1.9,4.8c0.4,1,0.9,1.9,1.5,2.8c0.7,1.1,1.5,2.2,2.4,3.2c0,0,0.1,0,0,0c-0.5-0.7-1-1.4-1.4-2.1c0,0,0,0,0,0
				c-0.5-0.8-0.9-1.6-1.3-2.5c-0.4-0.9-0.8-1.9-1.2-2.8c-0.4-0.8-0.7-1.6-1.1-2.5c1.3,1.5,2.6,2.9,3.8,4.4c1.5,1.7,2.9,3.3,4.5,5
				c0.4,0.8,0.8,1.7,1.2,2.4c0.7,1.2,1.5,2.3,2.7,3.2c0,0,0.1,0,0,0l-0.2-0.2c-1.2-1.3-2.1-2.8-3-4.3c0,0,0,0,0,0
				c-0.1-0.2-0.3-0.5-0.4-0.7c1.4,1.5,2.8,2.9,4.3,4.3c2.5,2.3,5.1,4.5,8,6.3c0.1,0.1,0.3,0.3,0.4,0.5
				C525.9,98.2,525,97.8,524.1,97.4z M524.2,95.6c0.5,0.7,1.1,1.3,1.6,1.9c-0.1-0.1-0.3-0.2-0.4-0.3l0,0c-2.2-1.7-4.2-3.5-6.1-5.4
				c-1.9-1.9-3.6-3.9-5.3-5.9c0.5,0.4,0.9,0.8,1.5,1.1c1,0.6,2.1,1.1,3.1,1.6c0,0,0.1,0,0,0c-1.8-1.1-3.6-2.1-5.3-3.5
				c-1.6-2-3.3-4-4.9-6.1c0.1,0,0.1,0.1,0.2,0.2c0.7,0.4,1.4,0.8,2.2,1.1c0.8,0.3,1.7,0.6,2.6,0.9c0.9,0.2,1.7,0.5,2.6,0.8
				c1.1,2.2,2.2,4.4,3.4,6.6C521,90.9,522.5,93.3,524.2,95.6z M485.9,54.5c4,1,7.9,2.3,11.5,4.3c1.3,0.7,2.5,1.5,3.7,2.3
				c1.3,0.9,2.5,2,3.7,3.1c0,0,0,0,0,0c1.4,1.4,2.6,2.8,3.8,4.3c1.1,1.4,2,2.9,2.9,4.4c0,0,0,0,0,0c1.7,2.9,3.2,5.8,4.7,8.8
				c-1.2-0.6-2.5-1-3.7-1.4c-0.6-0.2-1.3-0.4-1.9-0.7c-0.8-0.3-1.5-0.6-2.2-1c0,0,0,0,0,0c-0.1,0-0.1-0.1-0.2-0.1
				c-1.6-2-3.2-4-4.8-5.9c-0.3-0.4-0.7-0.8-1-1.2c0.3,0.1,0.7,0.3,1,0.4c1.3,0.4,2.7,0.7,4.1,1.1c0,0,0,0,0,0
				c1.1,0.3,2.2,0.7,3.2,1.2c0,0,0,0,0,0c0.1,0.1,0.2,0.1,0.3,0.2c0,0,0.1,0,0,0c-0.4-0.3-0.8-0.5-1.2-0.8c-0.6-0.3-1.2-0.6-1.9-0.8
				c-1.2-0.5-2.4-0.8-3.7-1.1c-0.8-0.2-1.5-0.4-2.3-0.7c0,0-0.1,0-0.1,0c-1.3-1.5-2.6-2.9-4-4.3c-0.9-0.9-1.8-1.7-2.7-2.5
				c0.1,0,0.1,0,0.2,0.1c1,0.3,1.9,0.5,2.9,0.7c2,0.4,4.1,0.6,6.2,1.1c0,0,0,0,0,0c0.8,0.2,1.7,0.5,2.5,0.9c0,0,0.1,0,0,0
				c-0.4-0.3-0.9-0.5-1.4-0.7c-0.4-0.2-0.9-0.4-1.4-0.5c-0.9-0.3-1.9-0.5-2.9-0.7c-1.1-0.2-2.2-0.3-3.3-0.5
				c-1.1-0.2-2.2-0.3-3.2-0.6c0,0,0,0,0,0c-1.1-0.9-2.2-1.8-3.4-2.7c-1.8-1.3-3.8-2.5-5.8-3.6c0.3,0.1,0.6,0.2,0.9,0.3
				c0.7,0.3,1.4,0.5,2.1,0.7c0.4,0.1,0.7,0.2,1.1,0.2c0.5,0.1,1,0.1,1.5,0.1c0.7,0,1.5,0,2.2,0h-0.1c0.6,0,1.2,0,1.8,0
				c0.7,0,1.5,0.2,2.2,0.4h0c0.1,0,0.3,0.1,0.4,0.1c0,0,0.1,0,0,0c-0.4-0.2-0.7-0.3-1.1-0.4c-0.4-0.1-0.7-0.2-1.1-0.3
				c-0.8-0.2-1.7-0.2-2.5-0.2c-0.9,0-1.7,0-2.6-0.1c-1,0-1.9-0.2-2.9-0.5c0,0,0,0,0,0c-0.9-0.2-1.8-0.5-2.7-0.7
				c-3.1-1.6-6.3-2.9-9.6-3.9c-1.6-0.4-3.1-0.8-4.7-1C475.7,52.7,480.9,53.3,485.9,54.5z M607.1,42.5c-2.5,1.2-4.6,3-6.7,4.8
				c-2.1,1.9-4.1,3.9-6.1,5.8c-2.3,2.1-4.8,4-7.5,5.6c-3.4,2-7,3.6-10.8,4.7c-1.8,0.5-3.6,0.9-5.5,1.2c-2.1,0.3-4.2,0.5-6.4,0.6
				c-9.4,0.2-18.6-1.6-27.8-3.6c1.3,0.2,2.6,0.5,3.9,0.7c3.3,0.5,6.6,0.7,9.9,0.7c2.8,0,5.7-0.3,8.5-0.7c0.9,0,1.7,0.1,2.6,0.2
				c1.2,0.2,2.4,0.4,3.6,0.6c1.2,0.2,2.4,0.3,3.6,0.3c1.2,0,2.4-0.1,3.6-0.3c0,0,0-0.1,0-0.1c-2.4,0.1-4.8-0.3-7.2-0.6
				c-1.6-0.2-3.2-0.3-4.8-0.3c3.1-0.5,6.1-1.3,9.1-2.1c1.5-0.4,2.9-0.8,4.4-1.3c1.7,0.3,3.5,0.4,5.3,0.4c1.2-0.1,2.3-0.2,3.4-0.4
				c1.1-0.2,2.1-0.5,3.1-0.9c0,0,0,0,0,0c-2.7,0.4-5.4,0.8-8.1,1h0c-1.1,0-2.3,0-3.4-0.1c4-1.4,8-3.1,11.6-5.2
				c0.9-0.1,1.9-0.2,2.8-0.4c1-0.2,1.9-0.5,2.8-0.9c1-0.4,2-0.9,3-1.3c1-0.5,2-1,3-1.4c0,0,0,0,0,0c0,0,0,0,0,0
				c-1.5,0.5-3,1-4.5,1.6c-1.6,0.6-3.1,1.3-4.7,1.9c0,0,0,0,0,0c-0.7,0.2-1.4,0.4-2.1,0.5c0.2-0.1,0.4-0.2,0.6-0.3
				c2.4-1.5,4.8-3.1,7.2-4.7c0.7-0.5,1.5-0.9,2.2-1.4c0.2,0,0.4,0,0.7,0c0.6-0.1,1.2-0.2,1.8-0.4c1-0.3,1.9-0.6,2.8-0.9h0
				c0.4-0.1,0.7-0.2,1.1-0.3c0,0,0-0.1,0-0.1c0,0,0,0,0,0c-0.7,0.1-1.5,0.2-2.2,0.4c-0.7,0.2-1.4,0.4-2.1,0.7h0
				c-0.6,0.2-1.2,0.3-1.8,0.5c1.4-0.9,2.9-1.7,4.4-2.4c0.4-0.2,0.8-0.3,1.1-0.5c0,0,0,0,0,0c1.2-0.5,2.4-0.9,3.6-1.3
				c1.3-0.4,2.7-0.6,4-0.9h0c0.1,0,0.2,0,0.3,0C608.6,41.8,607.9,42.1,607.1,42.5z M541.1,60.5c2.5-0.3,4.9-0.9,7.2-1.6
				c2.6-0.8,5.2-1.8,7.7-2.9c2.4-1.1,4.8-2.3,7.1-3.4c2.5-1.3,5.1-2.6,7.6-3.8c5.1-2.4,10.4-4.6,15.9-6.2c0,0,0,0,0,0
				c4.7-1.3,9.6-2.2,14.5-2.4c1.8,0,3.5,0,5.3,0.2c1.5,0.1,2.9,0.4,4.4,0.7c-0.2,0.1-0.5,0.2-0.7,0.2c-0.9,0.1-1.8,0.1-2.7,0.3
				c-1.4,0.2-2.8,0.5-4.2,1c-2.5,0.8-4.9,1.9-7.1,3.1c0.3-0.2,0.5-0.5,0.8-0.7c0.6-0.6,1.1-1.2,1.7-1.7c0.6-0.6,1.3-1.2,2.1-1.7v0
				c0.1-0.1,0.2-0.1,0.3-0.2c0,0,0-0.1,0-0.1c0,0,0,0,0,0c-0.6,0.3-1.1,0.6-1.6,0.9c-0.7,0.5-1.3,1-1.8,1.6
				c-0.6,0.6-1.1,1.2-1.7,1.7c-0.4,0.4-0.9,0.8-1.4,1.1c-2,1.1-3.9,2.3-5.8,3.5c-1,0.6-2.1,1.2-3.1,1.8c0.2-0.1,0.4-0.3,0.6-0.4
				c0.8-0.7,1.5-1.5,2.2-2.2c0.7-0.9,1.4-1.8,2.1-2.7c0.7-0.9,1.4-1.9,2.2-2.7l0,0c0.2-0.2,0.3-0.3,0.5-0.5c0,0,0,0,0,0c0,0,0,0,0,0
				c-0.7,0.5-1.3,1.1-1.9,1.7c-0.5,0.5-1,1.1-1.5,1.7c-1.1,1.4-2.1,2.8-3.3,4.1c0,0,0,0,0,0c-0.7,0.7-1.4,1.4-2.3,2
				c-1.3,0.7-2.7,1.4-4.1,2c-1.2,0.5-2.5,1-3.7,1.4c0.2-0.2,0.4-0.3,0.6-0.5c0.6-0.5,1.1-1.1,1.5-1.7c1-1.4,1.8-2.9,2.6-4.4
				c0,0,0,0,0,0.1c0.8-1.4,1.6-2.8,2.6-3.9c0.3-0.3,0.5-0.5,0.8-0.8c0,0,0,0,0,0c0,0,0,0,0,0c-0.6,0.4-1.2,0.9-1.8,1.4
				c-0.5,0.5-1,1.2-1.4,1.8c-0.9,1.3-1.6,2.8-2.3,4.2c0,0,0,0,0,0c-0.6,1.1-1.3,2.2-2.2,3.2c-0.3,0.3-0.7,0.6-1,0.9
				c-2,0.7-4,1.3-6,1.9c-1.6,0.4-3.1,0.8-4.7,1.1c1.1-0.7,2.1-1.5,3-2.4c0.9-0.8,1.7-1.8,2.5-2.7c0.9-1,1.8-2,2.7-3c0,0,0,0,0,0
				c0.5-0.5,1-1,1.5-1.6c0,0,0,0,0,0c0,0,0,0,0,0c-3.8,3.2-6.9,7.1-10.8,10c-1.7,0.3-3.3,0.7-5,0.9c0,0,0,0,0,0c0,0-0.1,0-0.1,0
				c0,0-0.1,0-0.1,0c0,0,0,0,0,0c-1.3,0.2-2.6,0.3-3.9,0.4c0.9-0.4,1.8-1,2.6-1.6c0.9-0.7,1.8-1.5,2.6-2.2c0.8-0.8,1.6-1.7,2.4-2.6
				c0,0,0,0,0,0c0,0,0,0,0,0c-2.3,2.1-4.7,4-7.4,5.7c0,0,0,0,0.1,0c-0.5,0.3-1.1,0.6-1.6,0.9c-0.2,0-0.3,0-0.5,0.1
				c-2,0.1-4.1,0.2-6.1,0.2c-3.4,0-6.8-0.2-10.3-0.6C537.8,60.8,539.5,60.7,541.1,60.5z M580.2,136.9c-4.9-1.9-9.8-3.8-14.5-6.4
				c0,0,0,0,0,0c-3.3-1.8-6.4-4-9.1-6.6c-0.9-0.9-1.7-1.8-2.5-2.8c-0.8-1-1.5-2.1-2.2-3.1c-1.4-2.3-2.4-4.8-3.2-7.4c0,0,0,0,0,0
				c0-0.1,0-0.1,0-0.2c0,0,0,0.1,0,0.1c-2.3-8.1-2.2-16.6-3.6-24.8c-0.7-4.1-1.7-8.2-3.4-12c-0.4-1-0.9-1.9-1.5-2.8
				c0.5,0.6,1.1,1.2,1.6,1.9c1.6,2.1,3.1,4.3,4.4,6.7c0.9,1.5,1.6,3.1,2.4,4.7c0.1,1,0.2,1.9,0.3,2.9c0.2,1.3,0.4,2.6,0.4,3.9
				c0,0.6-0.1,1.2-0.1,1.9c-0.1,0.7-0.3,1.5-0.5,2.2c-0.3,1.3-0.6,2.6-0.7,4c0,0,0,0,0,0c0.1-0.4,0.2-0.7,0.3-1.1v0
				c0.3-1.2,0.8-2.3,1.1-3.5c0.3-1,0.5-2.1,0.5-3.1c0-0.7-0.1-1.3-0.2-2c-0.1-0.7-0.2-1.3-0.4-2c-0.2-0.9-0.4-1.8-0.5-2.8
				c0.2,0.5,0.5,1.1,0.7,1.6c1.7,4.2,3.2,8.5,4.6,12.8c-0.1,0.5-0.2,1-0.3,1.5c0,0,0-0.1,0-0.1c-0.4,1.5-0.9,3-1.2,4.5
				c-0.2,0.7-0.3,1.5-0.4,2.2c-0.1,0.7-0.1,1.5-0.1,2.2c0,1.6,0.3,3.2,0.7,4.7c0.4,1.5,0.9,3,1.5,4.5c0,0,0.1,0,0,0
				c-0.3-0.8-0.5-1.6-0.7-2.4v0c-0.3-1.1-0.5-2.2-0.6-3.2c-0.1-1.1-0.2-2.2-0.2-3.2c0-1.1,0.1-2.1,0.3-3.2c0.2-1.2,0.5-2.5,0.8-3.7
				c0.2-0.9,0.4-1.8,0.5-2.7c0.3,1,0.6,1.9,0.9,2.9c0.9,2.8,1.8,5.6,2.9,8.3c0.4,0.9,0.8,1.7,1.3,2.6c-0.1,0.7-0.1,1.3-0.2,2
				c-0.1,1-0.2,2.1-0.2,3.1c0,1.1,0.1,2.3,0.3,3.4c0.2,1.1,0.5,2.1,0.9,3.1c0,0,0.1,0,0,0c-0.3-1.5-0.5-3.1-0.6-4.7
				c-0.1-1.5-0.1-3-0.1-4.5c0-0.7,0-1.4,0-2.1c0.7,1.4,1.5,2.7,2.4,4c0.8,1.1,1.6,2.1,2.5,3.1c0,0.1,0,0.1,0,0.2
				c0.1,0.5,0.2,0.9,0.3,1.4c0.3,1,0.7,2,1.3,2.9c0.5,0.9,1.2,1.7,1.8,2.6c0.7,0.9,1.6,1.8,2.4,2.6c0,0,0.1,0,0,0
				c-1.3-1.8-2.7-3.5-3.8-5.5c-0.7-1.2-1.2-2.5-1.6-3.8c3.1,3.5,6.8,6.4,10.7,9.1c0,0.1,0.1,0.1,0.1,0.2c0.2,0.4,0.5,0.7,0.7,1
				c0.5,0.6,1.1,1.1,1.6,1.6c0.7,0.6,1.4,1.1,2.1,1.6c0.7,0.5,1.4,1,2,1.6c0,0,0.1,0,0,0c-1.7-1.8-3.8-3.2-5.6-4.9c0,0,0,0,0,0
				c-0.2-0.3-0.5-0.5-0.7-0.8c2.7,1.9,5.6,3.7,8.3,5.6c1.8,1.2,3.6,2.5,5.3,3.8c0,0,0,0,0,0c0.4,0.3,0.7,0.6,1.1,0.8
				c-1.1-0.5-2.2-1-3.3-1.5C585.1,138.8,582.6,137.9,580.2,136.9z M565.6,112.5c0.8,1.8,1.8,3.5,2.9,5.1c2.2,3.3,4.9,6.1,7.7,8.9
				c2.9,2.8,6,5.5,8.9,8.3c0,0,0,0,0,0c1.5,1.5,2.9,3,4.3,4.5c0.5,0.5,0.9,1.1,1.3,1.6c-1.9-1.6-3.9-3.2-5.9-4.8
				c-2.3-1.7-4.6-3.4-6.9-5.1c0.4,0.2,0.7,0.3,1.1,0.5c0.5,0.2,0.9,0.4,1.4,0.5c0.6,0.2,1.2,0.5,1.7,0.8c0,0,0.1,0,0,0
				c-0.3-0.2-0.7-0.4-1-0.6c-0.5-0.3-1.1-0.5-1.7-0.8c-0.6-0.2-1.2-0.4-1.8-0.7c-0.1,0-0.2-0.1-0.3-0.1c-0.1-0.1-0.3-0.2-0.4-0.3
				c-2.1-1.6-4.3-3.3-6.2-5.1c-0.2-0.2-0.4-0.4-0.6-0.6c0.9,0.5,1.8,0.9,2.8,1.2c1,0.4,1.9,0.8,2.8,1.2c0,0,0,0,0-0.1
				c-1-0.7-2.1-1.3-3.2-1.9c-1.2-0.6-2.4-1.1-3.6-1.7c-1.3-1.3-2.6-2.7-3.8-4.2c0,0,0,0,0,0c0,0,0-0.1-0.1-0.1c0,0,0,0-0.1-0.1l0,0
				c-0.9-1.2-1.8-2.5-2.6-3.8c-0.1-0.1-0.1-0.2-0.2-0.3c0.5,0.5,1,0.9,1.5,1.3c0.7,0.5,1.5,1,2.2,1.5c0.8,0.5,1.5,1,2.3,1.6
				c0,0,0.1,0,0,0c-1-1-2-1.8-3.1-2.7c-1.1-0.8-2.3-1.6-3.3-2.6c-0.6-1.1-1.2-2.2-1.7-3.4c-0.8-2-1.5-4.1-2.1-6.2
				c-0.5-1.6-1-3.2-1.4-4.8c0.6,0.7,1.2,1.4,1.8,2c0.8,0.8,1.6,1.4,2.4,2.1c0.9,0.7,1.8,1.5,2.8,2.2
				C564,108.4,564.7,110.5,565.6,112.5z M543.5,71.7c2.8,2.2,5.7,4.3,8.3,6.8c1.8,1.7,3.3,3.6,4.6,5.7c0.8,1.3,1.5,2.7,2.1,4.1
				c0.6,1.4,1.1,2.9,1.5,4.3c0,0,0,0,0,0v0c0,0,0,0,0,0c0,0,0,0.1,0,0.1c0,0,0-0.1,0-0.1c1.3,4.4,2.1,8.9,3.3,13.3c-1-1-2-2-3-2.9
				c-1.1-1-2.3-2-3.4-3.1c0,0,0,0,0,0c-0.3-0.3-0.6-0.7-0.9-1c-0.1-0.4-0.2-0.7-0.3-1.1c-0.7-2.2-1.3-4.3-2-6.5
				c-0.7-2.2-1.5-4.3-2.5-6.4c0.1,0.1,0.2,0.2,0.3,0.3c0.7,0.7,1.5,1.4,2.2,2c0.9,0.7,1.7,1.4,2.6,2.1c0.9,0.8,1.9,1.5,2.7,2.4
				c0,0,0,0,0,0c0.2,0.2,0.5,0.5,0.7,0.7c0,0,0.1,0,0,0c-0.6-0.8-1.2-1.6-1.9-2.3c-0.6-0.6-1.3-1.2-2-1.8c-0.8-0.6-1.6-1.2-2.4-1.8
				c-0.9-0.7-1.7-1.4-2.5-2.2c0,0,0,0,0,0c0,0-0.1-0.1-0.1-0.1c-0.8-1.8-1.7-3.6-2.7-5.4c-1.2-2.1-2.6-4-4.1-5.9
				c-1.6-1.9-3.3-3.7-5.2-5.3c-0.2-0.2-0.5-0.4-0.7-0.6c0.1,0.1,0.2,0.1,0.3,0.2C540.1,69,541.8,70.4,543.5,71.7z M651,39.3
				c-1.6,4.2-2.8,8.6-4.1,12.9c-1.2,4.3-2.4,8.5-4,12.7c-0.8,2-1.7,4.1-2.7,6c-1.3,2.4-3,4.5-4.8,6.5c-2,2-4.3,3.8-6.7,5.3
				c-1.4,0.8-2.8,1.5-4.3,2.2c-1.6,0.7-3.2,1.3-4.9,1.8c-3,0.9-6.1,1.4-9.3,1.9c-3.1,0.4-6.2,0.6-9.3,0.7h0.1c-0.1,0-0.2,0-0.3,0
				c0.1,0,0.1,0,0.2,0c-0.1,0-0.2,0-0.2,0c-3.2,0.1-6.3,0-9.5-0.2c-1.7-0.1-3.3-0.2-5-0.2c-0.3-0.2-0.7-0.3-1-0.5c0.2,0,0.4,0,0.6,0
				c1.8-0.1,3.5-0.2,5.3-0.3c2.6-0.1,5.2-0.4,7.8-0.8c1.8-0.3,3.5-0.6,5.2-1.1c0.1,0,0.1,0,0.2,0c0.8,0.1,1.7,0.2,2.5,0.3
				c1.8,0.1,3.6-0.1,5.3-0.4c0,0,0-0.1,0,0c-1.1,0.1-2.2,0.2-3.3,0.2c-1.2,0-2.5-0.1-3.7-0.2h0c-0.1,0-0.2,0-0.3,0
				c3.1-0.8,6.2-1.8,9.2-3c0.7,0.1,1.5,0.1,2.3,0.1c1.3,0,2.6-0.2,4-0.4c1.4-0.3,2.8-0.7,4.1-1.2c1.4-0.5,2.7-1.1,3.9-1.8
				c0,0,0,0,0,0c0,0,0,0,0,0c-1.3,0.6-2.7,1.1-4,1.5c-1.4,0.4-2.8,0.7-4.2,1c0,0,0.1,0,0.1,0c-1.7,0.3-3.4,0.4-5.1,0.5
				c2.5-1.1,4.9-2.3,7.2-3.7c1.9-1.2,3.7-2.4,5.5-3.8c1.4-0.5,2.7-1,4-1.6c2.5-1.2,4.9-2.7,7.2-4.3c0,0,0,0,0,0c0,0,0,0,0,0
				c-1.6,0.9-3.2,1.8-4.9,2.6c0,0,0,0,0,0c-1.6,0.7-3.2,1.4-4.8,2.1c3.8-3.2,7-6.9,9.5-11.1c0,0,0-0.1,0.1-0.1
				c0.7-0.5,1.3-1.1,1.9-1.7c1.4-1.3,2.6-2.8,3.9-4.3c0,0,0-0.1,0-0.1c0,0,0,0,0,0c-1.7,1.8-3.5,3.5-5.3,5.2c2-3.7,3.4-7.7,4.8-11.7
				c0.6-1.9,1.2-3.7,1.8-5.6c0.5-0.4,1-0.9,1.4-1.3c0.8-0.8,1.4-1.7,2-2.6c0,0,0,0,0,0c0,0,0,0,0,0c-1,1.3-2.1,2.6-3.3,3.8
				c0.8-2.4,1.7-4.8,2.7-7.2c0,0,0,0,0,0.1c1.3-2.8,2.8-5.4,4.7-7.7c0,0,0,0,0,0.1c1.5-1.8,3.3-3.4,5.2-4.8l0,0
				c0.7-0.5,1.5-1,2.3-1.5C656.2,27.2,653.2,33.3,651,39.3z M585,86.9c2.3-0.5,4.5-1.3,6.6-2.4c4.2-2.2,7.7-5.6,10.8-9.1
				c3.3-3.8,6-8,8.8-12.2c2.9-4.3,5.9-8.4,9.2-12.4c2.2-2.7,4.6-5.4,7-7.9c5.1-5.3,10.8-10.1,17.1-13.9c3.8-2.2,7.8-4.1,12-5.3
				c1.8-0.5,3.6-0.9,5.4-1.2c-0.1,0.1-0.3,0.2-0.4,0.3c-1.4,0.7-2.8,1.4-4,2.3c-1.4,1-2.8,2.2-4,3.4c-2.4,2.5-4.3,5.4-5.8,8.5
				c-1.1,2.1-2,4.3-2.8,6.5c0.1-1,0.2-2,0.2-3c0.1-1.9,0.2-3.8,0.4-5.7c0.1-0.8,0.2-1.6,0.4-2.4c0.2-0.8,0.4-1.6,0.7-2.3v0
				c0-0.1,0.1-0.2,0.1-0.3c0,0,0,0,0,0c0,0,0,0,0,0c-0.3,0.5-0.5,1.1-0.7,1.6c-0.3,0.7-0.4,1.3-0.6,2c-0.3,1.3-0.5,2.6-0.6,3.9
				c-0.2,2.3-0.1,4.7-0.2,7c-1.6,4.1-2.9,8.3-4.7,12.2c-0.8,1.7-1.7,3.4-2.7,5.1c0-0.2,0.1-0.3,0.1-0.5c0.2-0.9,0.3-1.8,0.4-2.8
				c0.2-2.1,0.1-4.3-0.2-6.5c-0.2-2.1-0.5-4.3-0.8-6.4c-0.2-2.2-0.3-4.4-0.2-6.6c0,0,0,0,0,0c0,0,0,0,0,0c-0.3,1.8-0.4,3.7-0.3,5.5
				c0,2,0.2,4.1,0.3,6.1c0.2,2,0.3,4,0.4,6.1c0.1,2,0,4-0.2,5.9c-0.7,1.1-1.4,2.2-2.3,3.2c-2.4,2.8-5.1,5.2-8,7.4
				c0.1-0.1,0.2-0.3,0.3-0.4c0.6-0.9,1-1.9,1.3-3c0.8-2.3,0.9-4.8,0.9-7.3c0-1.3-0.1-2.5-0.2-3.7c-0.1-1.3-0.2-2.7-0.4-4
				c-0.2-2.4-0.4-4.7-0.3-7.1c0,0,0,0,0,0c0,0,0,0,0,0c-0.4,3.1-0.2,6.2-0.1,9.3c0.1,3.5,0.2,6.9-0.2,10.4c0,0,0,0,0,0
				c0,0,0,0.1,0,0.1c0,0,0,0,0,0v0c-0.2,1.7-0.6,3.3-1.2,4.9c-0.2,0.5-0.4,1-0.7,1.4c0,0-0.1,0-0.1,0.1c-2.5,1.8-5.2,3.3-7.9,4.7
				c-1.5,0.7-3,1.4-4.6,2.1c0.3-0.4,0.5-0.7,0.8-1.1c0.4-0.6,0.7-1.3,1-2c0.3-0.9,0.6-1.8,0.7-2.7c0.3-1.7,0.4-3.4,0.4-5.1
				c0-1.9,0-3.7,0.1-5.6c0,0,0,0,0,0s0,0,0,0c-0.3,2.5-0.4,4.9-0.7,7.4v0c-0.3,2.3-0.7,4.6-1.6,6.8c0,0,0,0.1,0,0.1c0,0,0,0,0,0
				c-0.2,0.6-0.5,1.1-0.8,1.7c-0.2,0.3-0.4,0.6-0.6,0.9c-1.2,0.5-2.3,1-3.5,1.4c-1.8,0.7-3.7,1.2-5.5,1.8c0.2-0.3,0.5-0.6,0.7-0.9
				c0.5-0.7,0.9-1.6,1.2-2.4c0.3-0.9,0.6-1.9,0.7-2.9c0.2-1,0.3-2,0.4-3.1c0,0,0,0,0,0c0,0,0,0,0,0c-0.4,2.2-0.9,4.4-1.8,6.5l0,0
				c-0.3,0.6-0.5,1.2-0.9,1.8c-0.2,0.4-0.5,0.8-0.8,1.2c-2.2,0.6-4.4,1.2-6.7,1.7c-2.2,0.5-4.4,0.9-6.6,1.2
				c-1.8,0.3-3.6,0.6-5.3,0.9c-0.3-0.2-0.7-0.3-1-0.5C583.8,87.1,584.4,87,585,86.9z M586.6,93.6c0.2,0.3,0.4,0.5,0.6,0.8
				c-0.3-0.3-0.6-0.6-0.9-0.9C586.5,93.6,586.5,93.6,586.6,93.6z M707,138.2c-1.9,0.5-3.7,0.9-5.6,1.4c-3.7,1-7.3,2-10.9,3.3
				c-1.9,0.6-3.7,1.3-5.5,2.1c-1.9,0.8-3.7,1.6-5.6,2.4c-3.5,1.6-7.1,3-10.9,4.1c-4.4,1.3-8.8,2.1-13.4,2.2c-1.7,0-3.4,0-5.1-0.2
				c-1.9-0.2-3.8-0.5-5.6-0.9c0,0,0,0,0.1,0c-4.4-1.1-8.6-2.7-12.6-4.9c-4.3-2.4-8.2-5.4-11.8-8.9c0,0,0,0,0.1,0.1
				c-3.3-3.3-6.3-6.9-9.1-10.7c-2.9-3.9-5.5-8-8.2-12.1c-1.8-2.7-3.5-5.4-5.4-8.1c1.5,1.9,3.1,3.7,4.8,5.4c2.1,2.2,4.3,4.2,6.6,6.2
				c1.5,1.3,2.9,2.5,4.5,3.8c0.7,1,1.3,2,1.8,3.1c0,0,0,0,0-0.1c0.8,1.6,1.4,3.3,2.3,4.9c0.9,1.6,2,3,3.3,4.2c0,0,0.1,0,0,0
				c-0.1-0.1-0.1-0.2-0.2-0.2l0,0c-1.8-2.3-2.9-5-4.2-7.6c-0.6-1.2-1.2-2.3-2-3.4c2.8,2.2,5.7,4.4,8.7,6.3c1,0.7,2.1,1.3,3.1,1.9
				c0.1,0.4,0.3,0.7,0.4,1.1c0.2,0.8,0.4,1.6,0.6,2.5c0.2,0.8,0.4,1.6,0.8,2.4c0.3,0.7,0.6,1.4,1,2c0.8,1.3,1.9,2.4,3,3.4
				c1.2,1.1,2.5,2,3.8,2.9c0,0,0,0,0,0c0.3,0.2,0.6,0.4,0.8,0.6c0,0,0.1,0,0,0c-0.9-0.8-1.9-1.6-2.9-2.5c-1-0.9-2-1.8-2.8-2.9
				c0,0,0,0,0,0c-0.4-0.4-0.7-0.9-1-1.4c-0.4-0.6-0.7-1.2-1-1.9c0,0,0,0.1,0.1,0.1c-0.6-1.3-1-2.7-1.5-4.1c-0.2-0.7-0.5-1.3-0.8-2
				c3.9,2.3,7.9,4.3,12.1,5.9c0.8,0.3,1.6,0.6,2.4,0.8c0.3,0.5,0.6,0.9,1,1.4c0.7,0.8,1.4,1.5,2.2,2.2c1.5,1.4,3.3,2.5,5.1,3.3
				c1.8,0.8,3.7,1.4,5.6,1.9c2.2,0.5,4.4,0.9,6.7,1.1c0,0,0,0,0-0.1c-1.5-0.3-3-0.6-4.5-0.9c-1.4-0.4-2.8-0.8-4.2-1.3c0,0,0,0,0,0
				c-1.3-0.5-2.5-1.1-3.8-1.7c-1.3-0.7-2.6-1.5-3.8-2.3l0,0c0,0,0,0-0.1-0.1c-1.4-1-2.6-2.1-3.8-3.3c1.5,0.5,3,0.9,4.5,1.3
				c2.7,0.7,5.5,1.1,8.2,1.3c2.6,0.2,5.1,0.1,7.7-0.1c0.7,0.4,1.3,0.7,2,0.9c0.7,0.3,1.4,0.5,2.2,0.7c0.7,0.2,1.5,0.3,2.2,0.5
				c1.4,0.2,2.8,0.4,4.2,0.5c1.5,0.1,3,0.3,4.5,0.4h0l0.8,0.1c0,0,0,0,0-0.1c-2.7-0.5-5.5-0.9-8.2-1.4c-1.4-0.2-2.7-0.5-4-0.9
				c-1-0.2-1.9-0.5-2.8-0.8c2.4-0.2,4.9-0.6,7.3-1c3.9-0.7,7.8-1.6,11.7-2.4c0.6,0.2,1.1,0.3,1.7,0.4c1,0.2,2.1,0.3,3.1,0.3
				c1.2,0.1,2.3,0.1,3.5,0.1c1.2,0,2.3,0.1,3.5,0.2h0c0.1,0,0.3,0,0.4,0c0,0,0.1-0.1,0-0.1c-3.3-0.6-6.7-0.5-10.1-0.9c0,0,0,0,0,0
				c-0.5-0.1-1.1-0.1-1.6-0.2c6.4-1.3,12.7-2.5,19.3-2.3c0,0,0,0,0,0c2.5,0.1,5,0.4,7.5,0.9c0.2,0.1,0.4,0.2,0.6,0.3
				C709,137.8,708,138,707,138.2z M609,115.1c4.9,3.6,10,6.8,15.4,9.5c2.7,1.4,5.5,2.6,8.4,3.5c3,1,6.2,1.8,9.3,2.4
				c9.9,1.9,20.1,1.7,30.2,1.7c10.1,0,20.4,0.1,30.3,2.5c2.1,0.5,4.2,1.2,6.2,2.1c-1.3-0.3-2.7-0.6-4-0.8c-2.1-0.3-4.3-0.4-6.4-0.4
				c-4.6,0-9.1,0.6-13.6,1.4c-0.7,0.1-1.3,0.2-2,0.4c0.3-0.1,0.6-0.3,0.9-0.4c1.2-0.6,2.4-1.3,3.6-1.9c0,0,0,0,0,0
				c0.3-0.1,0.6-0.3,0.9-0.4c0.4-0.2,0.8-0.3,1.3-0.4c0,0,0,0,0,0c0,0,0,0,0,0c-0.6,0.1-1.1,0.2-1.6,0.3c-0.6,0.2-1.3,0.5-1.9,0.8
				c-0.6,0.3-1.2,0.6-1.8,1c-0.7,0.4-1.4,0.8-2.1,1.1h0c0,0,0,0,0,0c-3.6,0.7-7.2,1.4-10.8,2c-2.2,0.3-4.3,0.7-6.5,0.9
				c0.1,0,0.1,0,0.2-0.1c1.1-0.4,2.2-1,3.2-1.6c2.1-1.2,4.2-2.6,6.4-3.6c0,0,0,0,0,0c1.1-0.5,2.1-0.9,3.3-1.1c0,0,0,0,0,0
				c-0.5,0-1.1,0.1-1.6,0.2c-0.6,0.1-1.2,0.3-1.8,0.5c-1.1,0.4-2.2,0.9-3.2,1.5c-1.1,0.6-2.2,1.3-3.3,2c-1.1,0.7-2.3,1.5-3.6,2l0,0
				c-0.1,0.1-0.3,0.1-0.4,0.2c-2,0.2-4,0.2-6.1,0.2c-2.1-0.1-4.3-0.3-6.4-0.6c-2.1-0.4-4.1-0.9-6.2-1.5c0,0,0,0-0.1,0
				c0.6,0,1.1,0,1.7,0c1.6,0,3.2-0.2,4.8-0.6c0.7-0.2,1.4-0.5,2-0.7c0.8-0.3,1.5-0.7,2.3-1c0.7-0.3,1.3-0.6,2-0.9
				c0.8-0.3,1.6-0.6,2.5-0.8c0,0,0-0.1,0-0.1c-0.9,0.1-1.7,0.2-2.6,0.5c-0.9,0.2-1.8,0.6-2.7,0.9c-0.9,0.3-1.8,0.7-2.7,1
				c-1,0.4-2.1,0.7-3.2,0.9c-1.6,0.3-3.2,0.4-4.8,0.4c-2.8-0.9-5.5-1.9-8.1-3.1c-2.2-1-4.3-2.2-6.4-3.4c0.1,0,0.3,0.1,0.4,0.1
				c1,0.2,2.1,0.3,3.2,0.3c2.4,0.1,4.8-0.2,7.1-0.5c0,0,0-0.1,0-0.1c-1.7,0-3.4,0.1-5.2,0.1c-1.7,0-3.4,0-5-0.1h0
				c-0.4,0-0.8-0.1-1.2-0.2c-0.5-0.3-1-0.6-1.5-0.9c-2.7-1.7-5.2-3.5-7.7-5.4c-2.6-2-5.2-4.2-7.7-6.4c-2.5-2.2-4.9-4.5-7.4-6.8
				c0,0-0.1-0.1-0.1-0.1C606.1,112.9,607.5,114,609,115.1z M755.9,53.6c-1.6,0.9-3.1,1.9-4.6,3c-3.1,2.3-5.8,5-8.4,7.8
				c-5.3,5.7-9.8,12.1-14.8,18c0,0,0.1-0.1,0.1-0.1c-1.9,2.2-3.9,4.4-6,6.5c-2.3,2.2-4.9,4.3-7.5,6.1c-2.6,1.8-5.2,3.4-8,4.8
				c-2.7,1.4-5.5,2.6-8.3,3.6c-6.5,2.3-13.3,3.7-20.1,4.2c-9,0.6-18.2-0.2-27-1.9c-1.6-0.3-3.3-0.7-4.9-1c2-0.3,3.9-0.6,5.9-1
				c3-0.6,6-1.5,9-2.4c1,0.2,2,0.5,3,0.7c1.9,0.4,3.8,0.6,5.7,0.7c4,0.2,7.9-0.1,11.8-1c0,0,0-0.1,0-0.1c-1.8,0.3-3.6,0.4-5.4,0.4
				c-1.7,0-3.4,0-5.1-0.2c-2.1-0.2-4.3-0.4-6.4-0.7c-0.8-0.1-1.6-0.2-2.4-0.3c0.7-0.2,1.4-0.4,2-0.6c3.9-1.4,7.8-3.1,11.5-5
				c1.3-0.6,2.6-1.3,3.9-2c2.4,0.3,4.8,0.9,7.2,1.3c1.4,0.2,2.7,0.3,4.1,0.3c1.5,0,3-0.1,4.4-0.3c5.7-0.7,11.2-2.7,16.5-4.7
				c0,0,0,0,0,0c0,0,0,0,0,0c-4.1,1.2-8.2,2.3-12.3,3.1c0,0,0.1,0,0.1,0c-1.8,0.3-3.7,0.5-5.5,0.7c-0.9,0.1-1.9,0.1-2.8,0.1
				c-1,0-2,0-3.1-0.1c-1.8-0.2-3.6-0.4-5.5-0.6c-0.8-0.1-1.5-0.1-2.3-0.1c2.2-1.2,4.4-2.3,6.5-3.6c3.7-2.1,7.3-4.3,10.9-6.5
				c0.5-0.3,0.9-0.6,1.4-0.9c0.7,0.1,1.3,0.1,2,0.1c1.3,0,2.5-0.1,3.8-0.2c1.1-0.1,2.3-0.4,3.4-0.6c1.2-0.3,2.4-0.6,3.6-0.9
				c2.2-0.7,4.5-1.5,6.7-2.2c2.4-0.8,4.8-1.6,7.3-2.2c0,0,0-0.1,0-0.1c-3.7,0.7-7.4,1.6-11,2.6c-1.8,0.5-3.6,0.9-5.3,1.4
				c-1.9,0.5-3.8,0.9-5.7,1.2c0,0,0,0,0,0c-1.4,0.2-2.8,0.4-4.2,0.5c3.1-1.9,6.2-3.9,9.3-5.8c3.5-2.2,7-4.4,10.5-6.5
				c2.4,0.2,4.8-0.2,7.1-0.7c3.2-0.7,6.2-1.8,9.4-2.6c0,0,0,0,0,0c0,0,0,0,0,0c-1.9,0.3-3.8,0.7-5.7,1.2c-2.3,0.5-4.6,1-6.9,1.4
				c0,0,0,0,0.1,0c-1.1,0.2-2.3,0.3-3.5,0.4c2.4-1.5,4.8-3,7.3-4.4c0,0,0,0,0,0c3.8-2.2,7.6-4.4,11.5-6.4c0,0,0-0.1,0,0
				c-6.2,2.8-12.2,6-18.1,9.3c0.5-0.5,0.9-0.9,1.4-1.4c1-1.2,2-2.4,3-3.6c1-1.2,2-2.3,3.1-3.5c1.2-1.3,2.5-2.5,3.8-3.6h0
				c0.1-0.1,0.2-0.2,0.3-0.2c0,0,0-0.1,0-0.1c0,0,0,0,0,0c-2.6,1.9-5,4-7.2,6.4c-1.1,1.2-2.2,2.5-3.3,3.8c-0.7,0.9-1.3,1.8-2,2.7
				c-0.6,0.4-1.2,0.7-1.9,1.1c0,0-0.1,0-0.1,0c0,0,0,0,0,0.1c0,0,0,0,0.1,0c-5.3,3-10.6,6.2-15.9,9.3c0,0,0.1,0,0.1-0.1
				c-0.3,0.2-0.7,0.4-1,0.6c1.3-1.6,2.4-3.4,3.4-5.2c1.1-2,2-4,2.9-6c1-2.1,2.1-4.2,3.4-6.1c0,0,0,0,0,0c0.4-0.5,0.7-1.1,1.1-1.6
				c0,0,0,0,0,0c0,0,0,0,0,0c-2.4,2.7-4.3,5.9-6.1,9.1c-1.8,3.2-3.5,6.5-5.6,9.5c-0.3,0.5-0.7,0.9-1.1,1.4
				c-5.8,3.4-11.6,6.6-17.7,9.5c0,0,0.1-0.1,0.1-0.1c1.6-1.7,3-3.7,4.2-5.7c1.2-2,2.2-4.1,3.3-6.2c1.2-2.3,2.3-4.6,3.7-6.8
				c0,0,0,0,0,0c0,0,0,0,0,0c-1.8,2.5-3.3,5.1-4.8,7.7c-0.8,1.3-1.6,2.7-2.4,4c-0.8,1.3-1.6,2.6-2.5,3.9c0,0,0-0.1,0-0.1
				c-0.9,1.4-1.9,2.7-3,4c0,0-0.1,0.1-0.1,0.1c-3,1.4-6.1,2.7-9.2,3.9c-2.6,1-5.2,1.8-7.9,2.7c1.6-1.3,3-2.7,4.4-4.3
				c1.9-2.3,3.4-4.9,4.6-7.6c0,0,0,0,0,0c0,0,0,0,0,0c-0.6,1.3-1.4,2.5-2.2,3.6l0,0c-1.3,1.8-2.7,3.5-4.2,5.1
				c-1.1,1.2-2.2,2.3-3.3,3.5c-0.8,0.2-1.5,0.5-2.3,0.7c-3.8,1-7.6,1.9-11.5,2.5c-2.6,0.4-5.3,0.6-8,0.8c1.9-0.5,3.8-1.1,5.6-1.9
				c4.6-1.9,8.9-4.5,12.9-7.4c4.2-3,8.1-6.4,12-9.8c3.9-3.4,7.7-6.8,11.7-10.2c2.5-2.1,5-4,7.6-5.9c0,0,0,0,0,0c0,0,0.1,0,0.1-0.1
				c0,0,0.1-0.1,0.1-0.1c0,0,0,0-0.1,0c6.3-4.4,13.3-7.8,20.6-10.4c7.6-2.7,15.4-4.4,23.4-5c6.8-0.5,13.7-0.2,20.4,1.1
				c0,0,0,0-0.1,0c1.3,0.3,2.6,0.6,3.8,0.9C757.4,52.8,756.6,53.2,755.9,53.6z"/>
			<path class="st2" d="M538.4,69.7C538.4,69.7,538.4,69.7,538.4,69.7C538.4,69.7,538.4,69.6,538.4,69.7
				C538.4,69.7,538.4,69.7,538.4,69.7z"/>
			<path class="st2" d="M538.4,69.6L538.4,69.6L538.4,69.6C538.4,69.6,538.4,69.6,538.4,69.6z"/>
			<path class="st2" d="M568.6,114.6c0,0,0-0.1-0.1-0.1C568.6,114.5,568.6,114.6,568.6,114.6C568.6,114.6,568.6,114.6,568.6,114.6z"
				/>
			<path class="st2" d="M548.7,110.5C548.7,110.5,548.7,110.6,548.7,110.5c0,0.1,0,0.1,0,0.1C548.7,110.6,548.7,110.5,548.7,110.5z"
				/>
			<polygon class="st2" points="548.7,110.6 548.7,110.6 548.7,110.6 			"/>
			<path class="st2" d="M560,92.7C560,92.7,560,92.7,560,92.7C560,92.7,560,92.7,560,92.7C560,92.7,560,92.7,560,92.7z"/>
			<path class="st2" d="M564.8,119.2C564.8,119.2,564.8,119.3,564.8,119.2C564.8,119.2,564.8,119.2,564.8,119.2
				C564.8,119.2,564.8,119.2,564.8,119.2z"/>
			<path class="st2" d="M558.5,60.6C558.5,60.6,558.5,60.6,558.5,60.6C558.5,60.6,558.4,60.6,558.5,60.6
				C558.4,60.6,558.4,60.6,558.5,60.6z"/>
			<path class="st2" d="M627.6,67C627.6,67,627.6,67,627.6,67C627.6,67,627.6,67,627.6,67C627.6,67,627.6,67,627.6,67z"/>
		</g>
		<g>
			<path class="st1" d="M42.8,52.9c-1.2,0-2.3,0.2-3.4,0.5c-1.8,0.6-3.4,1.5-4.9,2.9c-1.6,1.4-2.9,3.3-4.2,5.8
				c-1.2,2.5-2.1,5.2-2.7,8.3c-0.2,1-0.3,2.1-0.4,3.3c-0.6-0.6-1.3-1.3-2-1.8c-1-0.8-2.2-1.6-3.4-2.3c-1.2-0.7-2.5-1.2-4-1.8
				c-1.1-0.4-2.3-0.6-3.8-0.8c-0.4,0-0.7-0.1-1.1-0.1c-0.9,0-1.9,0.1-3,0.3c-1.2,0.2-2.3,0.7-3.2,1.1c-0.8,0.4-1.7,0.9-2.7,1.8
				c-1.3,1.1-2.4,2.6-3.2,4.5c-0.7,1.7-1,3.5-1.1,5.6c0,1.8,0.2,3.6,0.7,5.9c0.4,1.7,1,3.5,2,5.7c0.8,1.8,1.7,3.4,2.7,4.9
				c1.1,1.6,2.4,3.1,4.2,4.9c3.3,3.3,7.4,6.2,12.4,9.1c4.5,2.6,9.5,4.7,14.8,6.3c5,1.6,10,2.5,14.7,2.7c0.4,0,0.7,0,1.1,0
				c0.1,0,0.2,0,0.3-0.1c0.2,0,0.4-0.1,0.5-0.4c2.3-3.9,4.4-8.3,6-13.2c1.7-5.2,3-10.5,3.6-15.7c0.7-5.5,0.7-10.7,0-15.3
				c-0.7-4.4-2.3-8.7-4.8-12.3c-2.4-3.6-5.3-6.3-8.4-8C47.5,53.5,45.1,52.9,42.8,52.9"/>
			<path class="st1" d="M77.7,15.2c-0.9,0.5-1.9,1.2-3,2.1c-1,0.8-2,1.7-2.8,2.6c-0.6,0.6-1.2,1.3-1.8,1.9c-0.1-0.4-0.3-0.9-0.6-1.3
				c-0.4-0.9-1-1.8-1.9-2.8c-0.6-0.7-1.3-1.4-2.1-2.1c-0.4-0.3-0.8-0.6-1.3-0.9c-0.5-0.3-1-0.5-1.5-0.7c-0.7-0.3-1.5-0.4-2.3-0.4
				h-0.3c-0.9,0-1.9,0.3-2.8,0.9c-0.8,0.5-1.4,1.1-2.1,2.2c-0.4,0.5-0.6,1.1-0.9,1.6c-0.3,0.6-0.5,1.2-0.6,1.8
				c-0.2,0.9-0.3,1.9-0.3,3c0,1,0.2,2.1,0.5,3.3c0.5,1.9,1.5,3.8,3.1,6.1c1.2,1.7,2.7,3.5,4.7,5.6c1,1,2,2,3.2,3
				c0.8,0.6,1.6,1.3,2.4,1.9c1,0.7,1.9,1.4,2.9,2.1c0.1,0,0.1,0,0.2,0c4-1.7,7.8-4.3,11.4-7.7c1.8-1.7,3.4-3.6,4.8-5.7
				c1.4-2,2.4-4.1,3-6.2c0.3-0.9,0.4-1.9,0.5-3c0.1-1.2-0.1-2.5-0.3-3.4c-0.4-2-1.3-3.6-2.6-4.6c-1-0.7-2.1-1.1-3.4-1.1
				C82,13.2,79.9,13.9,77.7,15.2"/>
			<path class="st1" d="M80.9,86.2c-0.4,0.1-0.8,0.2-1.2,0.4c-0.4,0.2-0.8,0.5-1.2,0.8c-0.4,0.3-0.8,0.8-1.1,1.2
				c-0.3,0.4-0.6,0.8-0.9,1.4c-0.7,1.5-0.9,3.3-0.5,5.3c0.2,1,0.6,1.9,0.9,2.6c0.5,1,1.1,1.9,1.6,2.8c1.1,1.6,2.5,3.3,4.3,5
				c0.7,0.7,1.5,1.4,2.3,2c0.4,0.3,0.9,0.7,1.3,1c0.7,0.4,1.4,0.9,2,1.3c0.6,0.4,1.2,0.7,1.8,1c0,0,0.1-0.1,0.1-0.1
				c0.4-0.3,0.8-0.6,1.2-1c0.4-0.3,0.7-0.7,1.1-1c0.8-0.8,1.6-1.6,2.4-2.4c0.8-0.9,1.6-1.7,2.3-2.6c0.2-0.3,0.4-0.5,0.6-0.8l0.5-0.6
				c0.4-0.5,0.8-1.1,1.2-1.7c1.4-2.1,2.2-4.1,2.4-6c0.1-1-0.1-2.1-0.2-2.9c-0.2-0.9-0.5-1.7-1-2.3c-0.4-0.5-0.9-0.9-1.4-1.2
				c-0.5-0.3-1.2-0.4-1.9-0.4c-1.3,0-2.6,0.5-4.1,1.5c-1.4,0.9-2.6,2.2-3.7,3.8c-0.2,0.2-0.3,0.5-0.5,0.8c-0.1-0.4-0.3-0.8-0.4-1.1
				c-0.4-0.9-0.9-1.7-1.4-2.5c-0.7-1-1.3-1.7-1.9-2.3c-0.7-0.6-1.4-1.1-2.2-1.5c-0.5-0.2-1.1-0.3-1.7-0.3
				C81.5,86.1,81.2,86.1,80.9,86.2"/>
			<path class="st1" d="M389.8,52.1c-1.2,0-2.3,0.2-3.4,0.5c-1.8,0.6-3.4,1.5-4.9,2.9c-1.6,1.4-2.9,3.3-4.2,5.8
				c-1.2,2.5-2.1,5.2-2.7,8.3c-0.2,1-0.3,2.1-0.4,3.3c-0.6-0.6-1.3-1.2-2-1.8c-1-0.8-2.2-1.6-3.4-2.3c-1.2-0.7-2.5-1.2-4-1.8
				c-1.1-0.4-2.3-0.6-3.8-0.8c-0.4,0-0.7-0.1-1.1-0.1c-0.9,0-1.9,0.1-3,0.3c-1.2,0.2-2.3,0.7-3.2,1.1c-0.8,0.4-1.7,0.9-2.7,1.8
				c-1.3,1.1-2.4,2.6-3.2,4.5c-0.7,1.7-1,3.5-1.1,5.6c0,1.8,0.2,3.6,0.7,5.9c0.4,1.7,1,3.5,2,5.7c0.8,1.8,1.7,3.4,2.7,4.9
				c1.1,1.6,2.4,3.1,4.2,4.9c3.3,3.3,7.4,6.2,12.4,9.1c4.5,2.6,9.5,4.7,14.8,6.3c5,1.6,10,2.5,14.7,2.7c0.4,0,0.7,0,1.1,0
				c0.1,0,0.2,0,0.3-0.1c0.2,0,0.4-0.1,0.5-0.4c2.3-3.9,4.4-8.3,6-13.2c1.7-5.2,3-10.5,3.6-15.7c0.7-5.5,0.7-10.7,0-15.3
				c-0.7-4.4-2.3-8.7-4.8-12.3c-2.4-3.6-5.3-6.3-8.4-8C394.5,52.8,392,52.1,389.8,52.1"/>
			<path class="st1" d="M424.7,14.4c-0.9,0.5-1.9,1.2-3,2.1c-1,0.8-2,1.7-2.8,2.6c-0.6,0.6-1.2,1.3-1.8,1.9
				c-0.1-0.4-0.3-0.9-0.6-1.3c-0.4-0.9-1-1.8-1.9-2.8c-0.6-0.7-1.3-1.4-2.1-2.1c-0.4-0.3-0.8-0.6-1.3-0.9c-0.5-0.3-1-0.5-1.5-0.7
				c-0.7-0.3-1.5-0.4-2.3-0.4h-0.3c-0.9,0-1.9,0.3-2.8,0.9c-0.8,0.5-1.4,1.1-2.1,2.2c-0.4,0.5-0.6,1.1-0.9,1.6
				c-0.3,0.6-0.5,1.2-0.6,1.8c-0.2,0.9-0.3,1.9-0.3,3c0,1,0.2,2.1,0.5,3.3c0.5,1.9,1.5,3.8,3.1,6.1c1.2,1.7,2.7,3.5,4.7,5.6
				c1,1,2,2,3.2,3c0.8,0.6,1.6,1.3,2.4,1.9c1,0.7,1.9,1.4,2.9,2.1c0.1,0,0.1,0,0.2,0c4-1.7,7.8-4.3,11.4-7.7
				c1.8-1.7,3.4-3.6,4.8-5.7c1.4-2,2.4-4.1,3-6.2c0.3-0.9,0.4-1.9,0.5-3c0.1-1.2-0.1-2.5-0.3-3.4c-0.4-2-1.3-3.6-2.6-4.6
				c-1-0.7-2.1-1.1-3.4-1.1C428.9,12.5,426.9,13.1,424.7,14.4"/>
			<path class="st1" d="M427.8,85.4c-0.4,0.1-0.8,0.2-1.2,0.4c-0.4,0.2-0.8,0.5-1.2,0.8c-0.4,0.3-0.8,0.8-1.1,1.2
				c-0.3,0.4-0.6,0.8-0.9,1.4c-0.7,1.5-0.9,3.3-0.5,5.3c0.2,1,0.6,1.9,0.9,2.6c0.5,1,1.1,1.9,1.6,2.8c1.1,1.6,2.5,3.3,4.3,5
				c0.7,0.7,1.5,1.4,2.3,2c0.4,0.3,0.9,0.7,1.3,1c0.7,0.4,1.4,0.9,2,1.3c0.6,0.4,1.2,0.7,1.8,1c0,0,0.1-0.1,0.1-0.1
				c0.4-0.3,0.8-0.6,1.2-1c0.4-0.3,0.7-0.7,1.1-1c0.8-0.8,1.6-1.6,2.4-2.4c0.8-0.9,1.6-1.7,2.3-2.6c0.2-0.3,0.4-0.5,0.6-0.8l0.5-0.6
				c0.4-0.5,0.8-1.1,1.2-1.7c1.4-2.1,2.2-4.1,2.4-6c0.1-1-0.1-2.1-0.2-2.9c-0.2-0.9-0.5-1.7-1-2.3c-0.4-0.5-0.9-0.9-1.4-1.2
				c-0.5-0.3-1.2-0.4-1.9-0.4c-1.3,0-2.6,0.5-4.1,1.5c-1.4,0.9-2.6,2.2-3.7,3.8c-0.2,0.2-0.3,0.5-0.5,0.8c-0.1-0.4-0.3-0.8-0.4-1.1
				c-0.4-0.9-0.9-1.7-1.4-2.5c-0.7-1-1.3-1.7-1.9-2.3c-0.7-0.6-1.4-1.1-2.2-1.5c-0.5-0.2-1.1-0.3-1.7-0.3
				C428.5,85.3,428.1,85.4,427.8,85.4"/>
			<path class="st1" d="M737.1,51.5c-1.8,0.6-3.4,1.5-4.9,2.9c-1.6,1.4-2.9,3.3-4.2,5.8c-1.2,2.5-2.1,5.2-2.7,8.3
				c-0.2,1-0.3,2.1-0.4,3.3c-0.6-0.6-1.3-1.3-2-1.8c-1-0.8-2.2-1.6-3.4-2.3c-1.2-0.7-2.5-1.3-4-1.8c-1.1-0.4-2.3-0.6-3.8-0.8
				c-0.4,0-0.7,0-1.1,0c-0.9,0-1.9,0.1-3,0.3c-1.2,0.3-2.3,0.7-3.2,1.1c-0.8,0.4-1.7,0.9-2.6,1.8c-1.3,1.1-2.4,2.6-3.2,4.5
				c-0.7,1.7-1,3.5-1.1,5.6c0,1.8,0.2,3.6,0.7,5.9c0.4,1.7,1,3.5,2,5.7c0.8,1.8,1.7,3.4,2.7,4.9c1.1,1.6,2.4,3.1,4.3,4.9
				c3.3,3.3,7.4,6.2,12.4,9.1c4.5,2.6,9.5,4.7,14.8,6.3c5,1.6,10,2.5,14.7,2.7c0.4,0,0.7,0,1.1,0c0.1,0,0.2,0,0.3-0.1
				c0.2,0,0.4-0.1,0.5-0.4c2.3-3.9,4.4-8.3,6-13.2c1.7-5.2,3-10.5,3.6-15.7c0.7-5.5,0.7-10.7,0-15.3c0-0.3-0.1-0.6-0.1-0.9l0,0
				c-0.2-1.4-0.6-2.9-1.1-4.5c0,0,0,0,0,0c-0.9-2.5-2-4.9-3.5-7c-2.4-3.6-5.3-6.3-8.4-8c-2.3-1.3-4.7-1.9-7-1.9
				C739.3,51,738.2,51.2,737.1,51.5"/>
			<path class="st1" d="M775.4,13.3c-0.9,0.5-1.9,1.2-3,2.1c-1,0.8-2,1.7-2.8,2.6c-0.6,0.6-1.2,1.3-1.8,1.9
				c-0.1-0.4-0.3-0.9-0.6-1.3c-0.4-0.9-1-1.8-1.9-2.8c-0.6-0.7-1.3-1.4-2.1-2.1c-0.4-0.3-0.8-0.6-1.3-0.9c-0.5-0.3-1-0.5-1.5-0.7
				c-0.7-0.3-1.5-0.4-2.3-0.4h-0.3c-0.9,0-1.9,0.3-2.8,0.9c-0.8,0.5-1.4,1.1-2.1,2.2c-0.4,0.5-0.6,1.1-0.9,1.6
				c-0.3,0.6-0.5,1.2-0.6,1.8c-0.2,0.9-0.3,1.9-0.3,3c0,1,0.2,2.1,0.5,3.3c0.5,1.9,1.5,3.8,3.1,6.1c1.2,1.7,2.7,3.5,4.7,5.6
				c1,1,2,2,3.2,3c0.8,0.6,1.6,1.3,2.4,1.9c1,0.7,1.9,1.4,2.9,2.1c0.1,0,0.1,0,0.2,0c4-1.7,7.8-4.3,11.4-7.7
				c1.8-1.7,3.4-3.6,4.8-5.7c1.4-2,2.4-4.1,3-6.2c0.3-0.9,0.4-1.9,0.5-3c0.1-1.2-0.1-2.5-0.3-3.4c-0.4-2-1.3-3.6-2.6-4.6
				c-1-0.7-2.1-1.1-3.4-1.1C779.6,11.4,777.6,12,775.4,13.3"/>
			<path class="st1" d="M778.6,84.3c-0.4,0.1-0.8,0.2-1.2,0.4c-0.4,0.2-0.8,0.5-1.2,0.8c-0.4,0.3-0.8,0.8-1.1,1.2
				c-0.3,0.4-0.6,0.8-0.9,1.4c-0.7,1.5-0.9,3.3-0.5,5.3c0.2,1,0.6,1.9,0.9,2.6c0.5,1,1.1,1.9,1.6,2.8c1.1,1.6,2.5,3.3,4.3,5
				c0.7,0.7,1.5,1.4,2.3,2c0.4,0.3,0.9,0.7,1.3,1c0.7,0.4,1.4,0.9,2,1.3c0.6,0.4,1.2,0.7,1.8,1c0,0,0.1-0.1,0.1-0.1
				c0.4-0.3,0.8-0.6,1.2-1c0.4-0.3,0.7-0.7,1.1-1c0.8-0.8,1.6-1.6,2.4-2.4c0.8-0.9,1.6-1.7,2.3-2.6c0.2-0.3,0.4-0.5,0.6-0.8l0.5-0.6
				c0.4-0.5,0.8-1.1,1.2-1.7c1.4-2.1,2.2-4.1,2.4-6c0.1-1-0.1-2.1-0.2-2.9c-0.2-0.9-0.5-1.7-1-2.3c-0.4-0.5-0.9-0.9-1.4-1.2
				c-0.5-0.3-1.2-0.4-1.9-0.4c-1.3,0-2.6,0.5-4.1,1.5c-1.4,0.9-2.6,2.2-3.7,3.8c-0.2,0.2-0.3,0.5-0.5,0.8c-0.1-0.4-0.3-0.8-0.4-1.1
				c-0.4-0.9-0.9-1.7-1.4-2.5c-0.7-1-1.3-1.7-1.9-2.3c-0.7-0.6-1.4-1.1-2.2-1.5c-0.5-0.2-1.1-0.3-1.7-0.3
				C779.2,84.2,778.9,84.3,778.6,84.3"/>
		</g>
	</g>
</g>
</svg>
