<?xml version="1.0" encoding="utf-8"?>
<!-- Generator: Adobe Illustrator 24.0.0, SVG Export Plug-In . SVG Version: 6.00 Build 0)  -->
<svg version="1.1" xmlns="http://www.w3.org/2000/svg" xmlns:xlink="http://www.w3.org/1999/xlink" x="0px" y="0px"
	 viewBox="0 0 800 226.1" style="enable-background:new 0 0 800 226.1;" xml:space="preserve">
<style type="text/css">
	.st0{fill:#FFFFFF;}
	.st1{fill:#A57127;}
	.st2{fill:#DC9C2E;}
	.st3{fill:none;}
	.st4{fill:#E6E6E6;}
</style>
<g id="BACKGROUND">
</g>
<g id="OBJECTS">
	<g>
		<g>
			<g>
				<g>
					<g>
						<g>
							<path class="st2" d="M142.9,108.6c-3.7-12.7-9.5-24.8-16.6-35.9c-7.2-11.2-15.8-21.5-25.5-30.6c-4.9-4.5-10-8.7-15.5-12.6
								c-2.6-1.9-5.3-3.6-8.1-5.3c-2.9-1.8-5.9-3.8-9.2-4.7c-3.2-0.9-6.9-0.2-8.5,3c-1.3,2.5-1.3,5.7-0.3,8.3c1.3,3.4,3.8,6.3,5,9.8
								c1,2.8,0.9,5.9,0,8.7c-0.9,2.8-2.7,5.2-5.1,6.9c-2.9,2-6.2,3.1-9,5.2c-5.1,3.9-6.8,10.4-6.6,16.6c0.1,3.4,0.7,6.7,1.5,10
								c0.8,3.5,1.4,7,0.6,10.6c-1.4,5.8-6.2,10.5-12.1,11.7c-3.8,0.8-7.8,0.2-11.7,0c-3.6-0.2-7.4,0.1-10.8,1.6
								c-2.9,1.3-5.2,3.9-6.1,7c-0.4,1.5-0.5,3.1,0,4.6c0.4,1.5,1.4,2.7,2.3,3.9c0.8,1,1.8,2.2,2,3.5c0.2,1.2-1,2.1-1.8,2.8
								c-1.2,1-2.2,2.2-2.3,3.9c-0.1,1.8,0.8,3.4,1.9,4.7c4.5,5.1,12.3,5.2,18.6,5.4c15.2,0.4,30.5-1.3,45.6-3
								c15.3-1.8,30.7-3.8,46.1-4.2c3.6-0.1,7.2-0.1,10.7,0.1c1.6,0.1,1.6-2.4,0-2.5c-15-0.6-30,0.8-44.9,2.5
								c-15.1,1.7-30.1,3.7-45.3,4.3c-3.7,0.1-7.4,0.2-11.1,0.2c-3.2,0-6.5,0-9.7-0.6c-2.9-0.5-5.9-1.5-7.9-3.7
								c-0.8-0.9-1.9-2.4-1.3-3.7c0.5-1.2,1.9-1.9,2.7-2.8c1.1-1.2,1.5-2.7,1.2-4.3c-0.3-1.4-1.2-2.7-2.1-3.8
								c-0.8-1.1-1.8-2.3-2.2-3.6c-0.3-1.3-0.1-2.6,0.4-3.8c2.7-6.6,11.2-6,17.1-5.6c3.8,0.2,7.7,0.4,11.3-0.9c2.9-1,5.5-2.8,7.5-5
								c2-2.3,3.6-5,4.3-8c0.9-3.6,0.4-7.2-0.4-10.7c-0.7-3.2-1.4-6.4-1.6-9.7c-0.1-3,0.1-6,1-8.8c0.9-2.7,2.6-5.2,4.9-6.8
								c2.8-2,6-3.1,8.8-5.1c5-3.7,7.4-10.1,6.3-16.2c-0.7-3.5-2.8-6.3-4.4-9.4C61,30,60.1,27.1,61,24.3c0.4-1.1,1.2-2.1,2.3-2.6
								c1.5-0.7,3.3-0.2,4.8,0.3c1.6,0.6,3.1,1.5,4.5,2.3c1.4,0.8,2.7,1.6,4.1,2.4c5.5,3.4,10.7,7.1,15.7,11.2
								c10,8.3,19,17.8,26.7,28.3c7.7,10.5,14.2,21.9,19,34c1.2,2.9,2.3,5.8,3.4,8.8C141.8,109.8,143.1,109.5,142.9,108.6
								L142.9,108.6z"/>
						</g>
					</g>
					<g>
						<g>
							<path class="st2" d="M145.1,104.5c1.6-12.3,0.1-24.9-2.6-37c-2.7-12.2-6.9-24.1-11.6-35.7c-2.4-5.8-4.9-11.5-7.5-17.1
								c-1.1-2.5-2.3-5.1-4.5-6.9c-1.9-1.6-4.5-2.4-6.9-1.7c-2.3,0.7-3.3,2.6-4.2,4.6c-0.4,0.8-0.7,1.7-1.4,2.2
								c-0.2,0.1-0.5,0.3-0.7,0.3c-0.6,0-1.1-0.3-1.5-0.6c-1.1-0.9-2.1-2-3.2-2.9c-1.2-1-2.4-1.9-3.7-2.8c-2.4-1.7-5-3.3-7.8-4.4
								c-2.3-0.9-5.1-0.9-6.8,1.1c-1.3,1.5-1.6,3.6-2.1,5.5c-0.4,1.9-0.9,3.9-2.5,5.2c-1,0.8-2.3,1.4-3.3,2.3
								c-0.9,0.8-1.6,1.9-1.8,3.1c-0.2,1.2,0,2.4,1,3.3c1,0.9,2.5-0.6,1.5-1.5c-0.7-0.6-0.4-1.6,0-2.4c0.6-1,1.6-1.6,2.6-2.2
								c1.1-0.7,2.1-1.4,2.9-2.5c0.6-0.8,0.9-1.7,1.2-2.7c0.6-1.8,0.8-3.8,1.5-5.5c0.2-0.6,0.7-1.3,1.1-1.6c0.9-0.7,1.9-0.7,3-0.4
								c1.4,0.4,2.6,1.1,3.8,1.8c1.3,0.7,2.5,1.5,3.7,2.3c2.3,1.6,4.5,3.4,6.6,5.2c1,0.9,2.2,1.9,3.7,1.9c1,0,1.9-0.4,2.6-1.2
								c1.3-1.4,1.7-3.5,2.8-5c1.2-1.6,3.5-1.5,5.1-0.7c2.2,1.1,3.5,3.5,4.5,5.6c2.5,5.3,4.9,10.8,7.1,16.3
								c4.6,11.1,8.7,22.5,11.5,34.3c1.4,5.7,2.6,11.5,3.3,17.4c0.4,3,0.6,5.9,0.8,8.9c0.1,3,0.1,6,0.2,9c0,1.5,0,2.9,0,4.4
								C143.5,105.6,145,105.5,145.1,104.5L145.1,104.5z"/>
						</g>
					</g>
					<g>
						<g>
							<path class="st2" d="M112.8,144.3c-0.9,0.2-1.8,0.4-2.7,0.4c-0.9,0-1.7,0.2-2.6,0.4c-1.8,0.4-3.5,1-5.3,1.5
								c-3.7,1.2-7.2,2.6-10.8,3.9c-7.5,2.9-14.9,6-22.5,8.8c-7.3,2.7-14.8,5.2-22.4,6.8c-3.5,0.7-7,1.3-10.5,1.5
								c-4.1,0.2-8.3,0.2-12.2-1.3c-3.2-1.2-6.2-3.7-7.4-7c-1.2-3.3-0.2-6.9,2.3-9.2c0.6-0.6,1.3-1,2.1-1.4c0.5-0.3,0.7-1,0.4-1.5
								c-0.3-0.6-1-0.7-1.5-0.4c-3.4,1.7-5.7,5.2-6.1,9c-0.3,3.9,1.8,7.6,4.7,10c6.5,5.4,15.9,4.7,23.7,3.5
								c7.8-1.2,15.4-3.5,22.8-6.1c7.9-2.8,15.6-6,23.4-9.1c3.8-1.5,7.6-3,11.4-4.5c1.8-0.7,3.6-1.4,5.4-2c0.9-0.3,1.8-0.7,2.6-1
								c0.9-0.3,1.7-0.6,2.5-1.1c0.8-0.5,1.7-0.7,2.6-1C113,144.4,113,144.3,112.8,144.3L112.8,144.3z"/>
						</g>
					</g>
					<g>
						<path class="st2" d="M49.8,31.5c1.1,0.4,1.6,1.8,1.1,2.9c-0.5,1.1-1.7,1.7-2.8,1.8c-1.4,0.1-3.1-0.7-3.2-2.1
							c-0.1-0.6,0.2-1.2,0.4-1.7c0.3-0.7,0.8-1.4,1.5-1.8c0.7-0.3,1.8-0.1,2,0.6"/>
						<g>
							<path class="st2" d="M49.8,31.7c0.9,0.3,1.3,1.5,1,2.4c-0.4,1.1-1.5,1.7-2.6,1.8c-0.9,0.1-2-0.2-2.6-0.9
								c-0.8-1-0.2-2.3,0.4-3.2c0.3-0.5,0.8-1,1.5-1c0.2,0,0.5,0,0.7,0.1c0.2,0.1,0.4,0.3,0.6,0.5c0.1,0.1,0.3,0,0.3-0.1
								c0-0.6-0.7-1-1.2-1c-0.7-0.1-1.3,0.1-1.7,0.6c-0.5,0.5-0.9,1.2-1.2,1.8c-0.3,0.7-0.4,1.4-0.1,2.1c0.5,1.1,1.8,1.7,2.9,1.7
								c1.3,0,2.8-0.6,3.4-1.9c0.6-1.2,0.1-2.9-1.2-3.3C49.6,31.1,49.5,31.6,49.8,31.7L49.8,31.7z"/>
						</g>
					</g>
					<g>
						<path class="st2" d="M59.4,56.2C59,54.2,56.5,53,54.8,54c-1.7,1-2,3.7-0.5,5"/>
						<g>
							<path class="st2" d="M59.5,56.1c-0.3-1.6-2-2.8-3.6-2.7c-1.7,0.1-2.8,1.7-2.8,3.4c0,0.9,0.3,1.8,1.1,2.3
								c0.1,0.1,0.2-0.1,0.1-0.2c-0.9-1.1-1.1-2.7-0.3-3.9c0.8-1.3,2.5-1.4,3.7-0.7c0.7,0.4,1.3,1.1,1.5,1.9
								C59.3,56.4,59.6,56.3,59.5,56.1L59.5,56.1z"/>
						</g>
					</g>
					<g>
						<path class="st2" d="M40.7,41c1.3,0.1,2.7,0.3,3.6,1.3c1.2,1.3,0.9,3.6-0.5,4.7c-1.4,1.1-3.5,1-5,0.1c-0.5-0.3-1-0.7-1.3-1.3
							c-0.6-1-0.4-2.4,0.4-3.3c0.8-0.9,2.2-1.1,3.3-0.6"/>
						<g>
							<path class="st2" d="M40.7,41.2c1.4,0.2,3.1,0.4,3.8,1.8c0.5,1.1,0.2,2.6-0.6,3.4c-1,1.1-2.7,1.2-4,0.8
								c-1.4-0.5-2.6-1.6-2.4-3.2c0.3-1.8,2.1-2.4,3.6-1.9c0.2,0.1,0.3-0.2,0.1-0.3c-1.4-1-3.5-0.2-4.1,1.3
								c-0.3,0.7-0.4,1.6-0.1,2.4c0.3,0.9,1,1.5,1.8,2c1.5,0.8,3.5,0.9,5-0.1c1.3-0.9,1.9-2.6,1.4-4.1c-0.6-2-2.7-2.4-4.5-2.6
								C40.5,40.8,40.5,41.2,40.7,41.2L40.7,41.2z"/>
						</g>
					</g>
					<g>
						<path class="st2" d="M20,78.3c2.4-0.1,4.2,2.8,3.4,5.1c-0.8,2.3-3.8,3.3-6,2.5c-0.7-0.3-1.4-0.7-1.8-1.4
							c-0.8-1.4-0.1-3.1,0.9-4.3c0.8-1,2-1.9,3.2-1.6"/>
						<g>
							<path class="st2" d="M20,78.5c1.5,0,2.6,1.1,3.1,2.4c0.5,1.4,0.2,2.8-0.9,3.8c-1,0.9-2.5,1.4-3.9,1.1c-0.8-0.1-1.5-0.5-2.1-1
								c-0.6-0.6-0.8-1.5-0.6-2.4c0.4-1.8,2.1-3.9,4.1-3.7c0.2,0,0.3-0.3,0.1-0.4c-2-0.6-3.8,1.5-4.4,3.1c-0.4,0.9-0.5,1.9-0.1,2.8
								c0.4,0.9,1.2,1.5,2,1.8c3.1,1.2,7.3-1.2,6.5-4.8c-0.4-1.7-1.9-3.3-3.8-3.2C19.7,78.2,19.7,78.5,20,78.5L20,78.5z"/>
						</g>
					</g>
					<g>
						<path class="st2" d="M38.5,69.5c1.5,1.2,1.5,3.8,0.1,5c-1.5,1.2-4.1,0.4-4.6-1.4c-0.2-0.6-0.1-1.2,0-1.8c0.2-1,0.7-2,1.6-2.5
							c0.9-0.5,2.2-0.3,2.7,0.5"/>
						<g>
							<path class="st2" d="M38.4,69.6c0.9,0.7,1.2,2,1,3.1c-0.2,1.1-1,1.9-2.1,2.1c-1,0.1-2.1-0.3-2.6-1.1
								c-0.8-1.1-0.4-2.7,0.2-3.7c0.4-0.6,0.9-1,1.7-1.1c0.6-0.1,1.3,0.1,1.7,0.6c0.1,0.2,0.4,0,0.3-0.2c-0.3-0.6-0.9-0.9-1.6-1
								c-0.7-0.1-1.4,0.2-1.9,0.7c-0.6,0.5-0.9,1.2-1.1,2c-0.2,0.8-0.3,1.7,0,2.6c0.5,1.1,1.7,1.8,2.9,1.8c1.3,0,2.4-0.7,2.9-1.9
								c0.5-1.4,0.1-3-1-4C38.5,69.3,38.2,69.5,38.4,69.6L38.4,69.6z"/>
						</g>
					</g>
					<g>
						<path class="st2" d="M27.4,68.9c0.7,0.6,0.6,1.8-0.1,2.4c-0.7,0.6-1.8,0.5-2.5,0c-0.9-0.7-1.2-2.2-0.5-3.1s2.4-0.9,3,0.1"/>
						<g>
							<path class="st2" d="M27.3,69.1c0.5,0.5,0.5,1.4,0.1,1.9c-0.5,0.6-1.5,0.6-2.2,0.3c-0.6-0.4-1-1.1-1-1.8
								c0-0.7,0.4-1.3,1.1-1.5c0.7-0.2,1.5,0,1.9,0.6c0.1,0.2,0.4,0,0.3-0.2c-0.2-0.4-0.5-0.7-0.9-0.8c-0.4-0.1-0.8-0.2-1.2-0.1
								c-0.9,0.2-1.5,0.9-1.6,1.8c-0.1,0.9,0.3,1.8,1,2.4c0.8,0.6,2,0.6,2.8-0.1c0.7-0.7,0.8-2,0-2.6C27.4,68.6,27.1,68.9,27.3,69.1
								L27.3,69.1z"/>
						</g>
					</g>
					<g>
						<path class="st2" d="M32.3,96.2c0.6,0.6,0.3,1.9-0.5,2.2C31,98.6,30,97.8,30,97c0.1-0.9,1.3-1.4,2-1"/>
						<g>
							<path class="st2" d="M32.1,96.3c0.3,0.3,0.3,0.8,0.2,1.1c-0.1,0.4-0.5,0.7-0.9,0.7c-0.5,0-0.9-0.3-1.1-0.7
								c-0.2-0.4-0.1-0.8,0.3-1.1c0.2-0.2,0.4-0.3,0.6-0.3c0.2,0,0.5,0,0.7,0.1c0.1,0,0.2,0,0.2,0c0-0.1,0.1-0.2,0-0.2
								c-0.2-0.2-0.5-0.3-0.8-0.3c-0.3,0-0.6,0.1-0.8,0.3c-0.5,0.3-0.8,1-0.7,1.6c0.2,0.6,0.7,1.1,1.4,1.2c0.6,0.1,1.2-0.3,1.4-0.8
								c0.3-0.6,0.2-1.3-0.2-1.8C32.2,95.8,32,96.1,32.1,96.3L32.1,96.3z"/>
						</g>
					</g>
					<g>
						<path class="st2" d="M33.3,110.9c-0.2-2.8-2.7-5.4-5.5-5.5c-2.8-0.1-5.6,2.4-5.4,5.2"/>
						<g>
							<path class="st2" d="M33.5,110.9c-0.3-2.9-2.7-5.6-5.8-5.8c-1.5-0.1-3,0.6-4,1.6c-1,1-1.9,2.5-1.6,4c0.1,0.3,0.5,0.2,0.5-0.1
								c0.1-0.7,0.1-1.3,0.4-2c0.3-0.6,0.6-1.1,1.1-1.5c1-0.9,2.3-1.5,3.6-1.5c2.8,0.1,5,2.5,5.3,5.2
								C33.2,111.1,33.5,111.1,33.5,110.9L33.5,110.9z"/>
						</g>
					</g>
					<g>
						<g>
							<path class="st2" d="M82.2,4.9c-3.8-2.1-8.1-3.4-12.5-3.7c-2.2-0.1-4.4-0.1-6.5,0.3c-1.9,0.3-3.8,1.1-5,2.7
								c-1,1.3-1.6,2.9-2.2,4.5c-0.5,1.5-1,3.1-2.1,4.3c-1.3,1.4-3.3,1.8-4.8,3c-1.3,1-2.4,2.3-3.2,3.7c-1.7,3.3-1.6,7.5,0.5,10.7
								c0.5,0.8,1.8,0.1,1.3-0.7c-1.6-2.5-1.6-5.7-0.5-8.5c0.5-1.3,1.4-2.6,2.5-3.5c1.4-1.2,3.3-1.6,4.7-2.8
								c2.4-2.1,2.8-5.4,4.1-8.1c0.8-1.5,1.9-2.6,3.5-3.1c1.9-0.6,4-0.7,6-0.7c4.7,0.1,9.3,1.2,13.5,3.3C82.3,6.5,83,5.3,82.2,4.9
								L82.2,4.9z"/>
						</g>
					</g>
					<g>
						<g>
							<path class="st2" d="M49.2,37.2c0.7,3,1.5,5.9,3.3,8.6c0.8,1.2,1.7,2.4,2.3,3.8c0.3,0.7,0.6,1.5,0.8,2.2
								c0.2,0.7,0.3,1.4,0.6,2.1c0.2,0.5,0.9,0.2,1-0.3c0.2-1.4-0.5-3-1-4.3c-0.6-1.4-1.4-2.7-2.2-3.9c-0.8-1.3-1.5-2.6-2-4
								c-0.5-1.5-0.9-3.1-1.2-4.6C50.6,35.7,49,36.1,49.2,37.2L49.2,37.2z"/>
						</g>
					</g>
					<g>
						<g>
							<path class="st2" d="M50.3,41.6c-1.1,0-2.3,0-3.4,0.2c-0.5,0.1-1.1,0.2-1.6,0.4c-0.3,0.1-0.5,0.2-0.8,0.3
								c-0.3,0.1-0.6,0.3-0.8,0.6c-0.2,0.3,0,0.7,0.3,0.7c0.3,0.1,0.5,0.1,0.8,0c0.3-0.1,0.5-0.2,0.8-0.2c0.5-0.1,1-0.3,1.5-0.4
								c1-0.2,2.1-0.3,3.1-0.4C51,42.6,51,41.6,50.3,41.6L50.3,41.6z"/>
						</g>
					</g>
					<g>
						<g>
							<path class="st2" d="M36.6,45.8c-1.8,0.6-3.5,1.5-5.1,2.5c-1.6,1-3.1,2.3-4.1,3.9C25,56,29,59.9,30.8,63
								c1.2,2,2.1,4.2,2.9,6.5c0.4,1.1,2.1,0.7,1.8-0.5c-1.1-3.7-2.9-7-5.1-10.2c-0.9-1.3-2.2-3-1.9-4.7c0.2-0.8,0.7-1.5,1.3-2.2
								c0.6-0.6,1.2-1.3,1.8-1.8c1.5-1.4,3.3-2.4,5.3-3.1C37.7,46.7,37.3,45.5,36.6,45.8L36.6,45.8z"/>
						</g>
					</g>
					<g>
						<g>
							<path class="st2" d="M33.6,68.5c-1.7,0.4-3.5,0.7-5.2,1.1c-0.4,0.1-0.6,0.5-0.5,0.9c0.1,0.4,0.5,0.6,0.9,0.5
								c1.7-0.4,3.5-0.8,5.2-1.3c0.3-0.1,0.5-0.5,0.4-0.8C34.3,68.6,33.9,68.4,33.6,68.5L33.6,68.5z"/>
						</g>
					</g>
					<g>
						<g>
							<path class="st2" d="M25.7,71.5c-1,1.1-1,2.6-0.6,4c0.5,1.5,1.7,2.6,2.2,4.1c0.4,1.2,0.5,2.5,0.5,3.7c0,0.7-0.1,1.3-0.2,2
								c-0.1,0.5-0.3,1.1-0.2,1.5c0.1,0.2,0.3,0.3,0.5,0.2c0.9-0.4,0.9-2.3,0.9-3.1c0.1-1.3,0-2.6-0.3-3.8c-0.3-1.4-1.1-2.5-1.8-3.7
								c-0.7-1.2-1.5-3-0.5-4.2C26.8,71.8,26.1,71,25.7,71.5L25.7,71.5z"/>
						</g>
					</g>
					<g>
						<g>
							<path class="st2" d="M27.7,86.4c-0.9,1.5-2.2,2.8-3.9,3.4c-1.4,0.5-2.8,0.5-4.2,0.4c-1.4-0.1-2.8-0.3-4.1-0.3
								c-1.6,0-3.2,0.5-4.7,1.1c-1.9,0.8-3.4,2.2-4,4.2c-0.3,1.1-0.4,2.2-0.4,3.3c0,1,0,2.1,0.1,3.1c0.1,1.1,0.4,2.1,1,3
								c0.5,0.7,1.4,1.4,1.5,2.3c0.1,1-0.9,1.8-1.7,2.3c-0.9,0.6-1.9,1-2.7,1.8c-2.7,2.6-3,8,0.1,10.3c0.6,0.4,1.4-0.4,1-1
								c-0.9-1.3-1.5-2.7-1.5-4.4c0.1-1.5,0.7-3,1.9-4c1.6-1.3,3.9-1.9,4.5-4.2c0.2-1,0-1.9-0.6-2.7c-0.6-0.8-1.3-1.4-1.6-2.4
								c-0.3-1-0.4-2-0.4-3c0-1,0-2.1,0.1-3.1c0.1-1,0.5-2,1.1-2.8c0.6-0.7,1.4-1.2,2.3-1.5c1.4-0.6,2.8-1,4.3-1
								c1.3,0,2.7,0.1,4,0.1c1.6,0,3.2-0.2,4.6-0.8c1.7-0.8,3-2.2,3.9-3.8C28.7,86.3,28,85.9,27.7,86.4L27.7,86.4z"/>
						</g>
					</g>
					<g>
						<path class="st2" d="M54,21.4c0.7-0.1,1.4,0.3,1.7,1c0.2,0.6,0,1.2-0.3,1.7c-0.7,1.1-2.1,1.6-3.3,1.1c-1.2-0.5-1.8-2-1.3-3.1
							c0.5-1.2,2.2-1.6,3.2-0.8"/>
						<g>
							<path class="st2" d="M54,21.5c0.5-0.1,1,0.2,1.3,0.6c0.3,0.5,0.3,1.1,0.1,1.5c-0.4,0.9-1.3,1.5-2.3,1.5
								c-0.9,0.1-1.8-0.4-2.2-1.3c-0.4-0.8-0.3-1.8,0.3-2.4c0.7-0.6,1.8-0.8,2.5-0.2c0.1,0.1,0.2-0.1,0.1-0.2
								c-0.8-0.7-1.9-0.6-2.7,0c-0.9,0.6-1.1,1.8-0.7,2.7c0.4,1,1.4,1.7,2.5,1.7c1.1,0,2.2-0.7,2.7-1.8c0.3-0.6,0.3-1.3-0.2-1.8
								c-0.4-0.5-1-0.7-1.6-0.6C53.8,21.3,53.8,21.6,54,21.5L54,21.5z"/>
						</g>
					</g>
					<g>
						<path class="st2" d="M15.4,71.5c0.6-0.3,1.5,0.1,1.6,0.8c0.2,0.7-0.2,1.4-0.7,1.9c-0.7,0.6-1.7,0.9-2.5,0.6
							c-0.9-0.3-1.5-1.2-1.4-2.1c0.1-0.9,1.1-1.6,2-1.4"/>
						<g>
							<path class="st2" d="M15.5,71.6c0.6-0.3,1.3,0.3,1.4,0.9c0.1,0.8-0.6,1.5-1.2,1.8c-0.7,0.3-1.5,0.4-2.1-0.1
								c-0.6-0.4-1-1.1-0.8-1.8c0.2-0.7,1-1.2,1.7-1.2c0.2,0,0.2-0.3,0-0.3c-0.9-0.3-1.8,0.3-2.1,1.1C12,73,12.3,74,13,74.5
								c0.8,0.6,1.8,0.7,2.7,0.3c0.8-0.4,1.6-1.3,1.5-2.3c-0.1-0.9-1.1-1.7-2-1.3C15,71.4,15.2,71.8,15.5,71.6L15.5,71.6z"/>
						</g>
					</g>
					<g>
						<path class="st2" d="M36,30.9c0.6-0.3,1.5,0.1,1.6,0.8c0.2,0.7-0.2,1.4-0.7,1.9c-0.7,0.6-1.7,0.9-2.5,0.6S32.9,32.9,33,32
							c0.1-0.9,1.1-1.6,2-1.4"/>
						<g>
							<path class="st2" d="M36.1,31.1c0.6-0.3,1.3,0.3,1.4,0.9c0.1,0.8-0.6,1.5-1.2,1.8c-0.7,0.3-1.5,0.4-2.1-0.1
								c-0.6-0.4-1-1.1-0.8-1.8c0.2-0.7,1-1.2,1.7-1.2c0.2,0,0.2-0.3,0-0.3c-0.9-0.3-1.8,0.3-2.1,1.1c-0.4,0.8,0,1.8,0.7,2.4
								c0.8,0.6,1.8,0.7,2.7,0.3c0.8-0.4,1.6-1.3,1.5-2.3c-0.1-0.9-1.1-1.7-2-1.3C35.6,30.8,35.8,31.2,36.1,31.1L36.1,31.1z"/>
						</g>
					</g>
					<g>
						<path class="st2" d="M20.2,52.7c0.6-0.3,1.5,0.1,1.6,0.8c0.2,0.7-0.2,1.4-0.7,1.9c-0.7,0.6-1.7,0.9-2.5,0.6
							c-0.9-0.3-1.5-1.2-1.4-2.1c0.1-0.9,1.1-1.6,2-1.4"/>
						<g>
							<path class="st2" d="M20.3,52.9c0.6-0.3,1.3,0.3,1.4,0.9c0.1,0.8-0.6,1.5-1.2,1.8c-0.7,0.3-1.5,0.4-2.1-0.1
								c-0.6-0.4-1-1.1-0.8-1.8c0.2-0.7,1-1.2,1.7-1.2c0.2,0,0.2-0.3,0-0.3c-0.9-0.3-1.8,0.3-2.1,1.1c-0.4,0.8,0,1.8,0.7,2.4
								c0.8,0.6,1.8,0.7,2.7,0.3c0.8-0.4,1.6-1.3,1.5-2.3c-0.1-0.9-1.1-1.7-2-1.3C19.8,52.7,20,53,20.3,52.9L20.3,52.9z"/>
						</g>
					</g>
					<g>
						<path class="st2" d="M40,88.5c0.6,0.1,1,0.7,1,1.3s-0.5,1.2-1,1.4c-0.8,0.4-2,0-2.3-0.9c-0.3-0.9,0.7-1.9,1.6-1.6"/>
						<g>
							<path class="st2" d="M40,88.7c0.6,0.1,0.9,0.7,0.9,1.2c-0.1,0.6-0.5,1-1.1,1.2c-0.5,0.1-1,0.1-1.4-0.2
								c-0.4-0.3-0.6-0.8-0.4-1.2c0.1-0.2,0.3-0.5,0.5-0.6C38.7,89,39,89,39.3,89c0.1,0,0.2-0.2,0.1-0.3c-0.2-0.3-0.6-0.2-0.9-0.1
								c-0.3,0.1-0.6,0.4-0.8,0.6c-0.4,0.6-0.3,1.3,0.2,1.8c0.5,0.5,1.2,0.7,1.8,0.5c0.7-0.1,1.3-0.7,1.5-1.4
								c0.2-0.8-0.3-1.7-1.1-1.8C39.8,88.3,39.7,88.6,40,88.7L40,88.7z"/>
						</g>
					</g>
					<g>
						<g>
							<path class="st2" d="M142.7,115.3c-6.1-12-14.6-22.6-24.8-31.4c-2.9-2.5-5.9-4.7-9-6.8c-0.5-0.3-0.9,0.4-0.4,0.7
								c10.7,7.8,20.1,17.4,27.5,28.4c2.1,3.1,4,6.3,5.8,9.5C142.1,116.5,143.1,116,142.7,115.3L142.7,115.3z"/>
						</g>
					</g>
					<g>
						<g>
							<path class="st2" d="M141.8,123.3c-2.7-4.9-6.6-9.1-10.4-13.1c-3.6-3.8-7.5-7.4-11.5-10.7c-8.1-6.7-17-12.5-26.5-17.1
								c-5.3-2.6-10.8-4.8-16.4-6.4c-0.4-0.1-0.5,0.4-0.2,0.6c9.7,3.8,19.1,8.2,28,13.7c8.8,5.5,17,12,24.3,19.3c2,2,4,4.2,5.9,6.3
								c2.2,2.5,4.3,5,6,7.8C141.3,124.3,142.1,123.8,141.8,123.3L141.8,123.3z"/>
						</g>
					</g>
					<g>
						<g>
							<path class="st2" d="M133.1,126.1c-0.3-1.1-1.1-1.8-2-2.5c-1.1-0.8-2.4-1.4-3.6-2.1c-2.7-1.5-5.3-2.9-8-4.3
								c-5.4-2.8-10.8-5.6-16.2-8.3c-3.1-1.5-6.2-3-9.3-4.5c-0.4-0.2-0.8,0.4-0.4,0.6c10.5,5.4,20.9,10.8,31.2,16.4
								c1.4,0.8,2.9,1.6,4.3,2.3c1.1,0.6,2.6,1.2,3.1,2.5C132.4,126.8,133.2,126.6,133.1,126.1L133.1,126.1z"/>
						</g>
					</g>
					<g>
						<g>
							<path class="st2" d="M135.3,131.1c-10.7-2.3-21.4-4.6-32-7.5c-10.5-2.9-20.8-6.6-30.5-11.4c-5.4-2.7-10.5-6-15.7-9.1
								c-0.3-0.2-0.8,0.3-0.4,0.6c4.1,3.6,8.9,6.4,13.6,8.9c4.8,2.6,9.8,4.7,14.9,6.7c10.3,3.9,20.9,6.7,31.6,9.2
								c6.1,1.4,12.2,2.6,18.3,3.7C135.6,132.1,135.9,131.2,135.3,131.1L135.3,131.1z"/>
						</g>
					</g>
					<g>
						<g>
							<path class="st2" d="M121.9,134c-6.8-1.8-13.8-2.3-20.9-2.4c-6.8-0.1-13.7,0-20.5-0.2c-13.3-0.4-26.6-1.4-39.6-4.4
								c-7.3-1.7-14.3-4.1-21.2-6.8c-0.4-0.2-0.7,0.5-0.3,0.7c5.8,3.1,12.2,5.2,18.6,6.8c6.4,1.7,13,2.8,19.6,3.5
								c13.4,1.5,26.9,1.5,40.4,1.4c7.9,0,16,0.1,23.8,2C122.2,134.8,122.4,134.1,121.9,134L121.9,134z"/>
						</g>
					</g>
					<g>
						<g>
							<path class="st2" d="M143.4,102.3c-2.6-10.9-5.6-21.8-9.7-32.2c-3.7-9.5-8.3-18.7-14.5-26.8c-3.3-4.4-7.1-8.6-11.5-12
								c-0.2-0.2-0.6,0.1-0.3,0.3c3.5,3.5,6.9,7,9.9,11c3,3.9,5.6,8.1,7.9,12.3c5.2,9.4,8.8,19.4,12,29.6c1.9,6,3.6,12,5.4,17.9
								C142.9,102.9,143.5,102.7,143.4,102.3L143.4,102.3z"/>
						</g>
					</g>
					<g>
						<g>
							<path class="st2" d="M123.7,140.5c-3.1-0.6-6.1-0.2-9.1,0.4c-3,0.6-6.1,1.4-9.1,2.2c-6,1.6-11.9,3.6-17.8,5.6
								c-11.8,4-23.5,8.3-35.8,10.5C45,160.5,38,160.9,31,161c-0.4,0-0.4,0.6,0,0.6c6.1,0.8,12.4,0.2,18.4-0.8
								c6.1-1,12.1-2.5,18.1-4.3c11.8-3.5,23.4-8.1,35.2-11.6c3.3-1,6.7-1.9,10-2.6c3.5-0.8,7.1-1.5,10.7-0.9
								C124.1,141.7,124.4,140.6,123.7,140.5L123.7,140.5z"/>
						</g>
					</g>
					<g>
						<path class="st1" d="M144.8,139.2c4.4-11,4.1-23.8-0.9-34.6c-2.6,5.9,0.7,12.9-0.6,19.2c-0.1,0.5-0.3,1.1-0.8,1.4
							c-0.4,0.2-0.9,0.1-1.3-0.1c-3.7-1.4-6.7-5.5-10.6-4.8c1.8,3.4,3.6,6.9,5.4,10.3c0.7,1.4,1.4,3.3,0.2,4.4c-1,0.9-2.5,0.5-3.7,0
							c-3.5-1.4-7.2-3.3-10.8-2.2c0.1,1.8,2.2,2.6,3.9,3.2c1.7,0.6,3.6,1.8,3.3,3.5c-0.2,1.3-1.6,2-2.9,2.4
							c-7.1,2.5-14.8,3.4-21.3,7.2c2.5,2.1,6.2,1.3,9.4,0.5c6.1-1.6,12.2-3.3,18.3-4.9c2.5-0.7,4.9-1.3,7.2-2.5
							c1.2-0.6,2.3-1.4,3.3-2.2"/>
						<g>
							<path class="st1" d="M146,139.5c3.6-8.8,4.2-18.8,1.8-28c-0.7-2.6-1.6-5.1-2.8-7.6c-0.2-0.5-0.9-0.7-1.4-0.7
								c-0.6,0.1-0.9,0.5-1.1,1c-1.9,4.5-0.6,9.5-0.3,14.2c0.1,1.2,0.1,2.4,0,3.6c0,0.5-0.1,1.1-0.2,1.6c0,0.1-0.1,0.4-0.2,0.5
								c0,0.2,0.1-0.1,0.1-0.1c0,0-0.5-0.2-0.6-0.2c-0.2-0.1-0.4-0.2-0.6-0.3c-0.5-0.3-0.9-0.5-1.4-0.8c-0.8-0.6-1.7-1.2-2.5-1.8
								c-2-1.3-4.1-2.3-6.6-1.8c-0.9,0.2-1.2,1.3-0.8,2c1,2,2.1,3.9,3.1,5.9c0.5,1,1,2,1.6,3c0.4,0.8,0.9,1.6,1.2,2.4
								c0.1,0.3,0.2,0.7,0.2,0.9c0,0.1,0,0.5,0,0.4c0,0.1,0,0.2-0.1,0.2c-0.3,0.4-0.9,0.3-1.4,0.1c-1.9-0.5-3.7-1.5-5.5-2.1
								c-2.3-0.7-4.7-1.1-7.1-0.4c-0.5,0.2-1.1,0.7-1,1.4c0.3,2.6,2.5,3.7,4.7,4.5c0.8,0.3,1.8,0.7,2.3,1.3c0.1,0.1,0.1,0.2,0.2,0.3
								c0,0.1,0,0.2,0,0.2c0,0-0.1,0.4-0.1,0.3c0.1-0.1-0.1,0.2,0,0.1c-0.1,0.1-0.3,0.3-0.4,0.4c-0.9,0.6-1.9,0.9-3,1.2
								c-1.3,0.4-2.6,0.8-3.9,1.1c-2.6,0.7-5.1,1.3-7.7,2.1c-2.9,0.9-5.8,2-8.5,3.5c-0.8,0.5-1.1,1.8-0.3,2.4
								c4.3,3.4,10.3,1.1,15-0.2c2.8-0.8,5.7-1.5,8.5-2.3c2.8-0.7,5.7-1.4,8.4-2.3c3.1-0.9,6-2.2,8.4-4.4c0.6-0.6,0.6-1.7,0-2.3
								c-0.7-0.7-1.6-0.5-2.3,0c-4,3.2-9.2,4.2-14.1,5.5c-2.7,0.7-5.4,1.5-8.1,2.2c-2.5,0.7-5,1.5-7.6,2c-2,0.4-4.5,0.8-6.2-0.5
								c-0.1,0.8-0.2,1.6-0.3,2.4c4.8-2.8,10.2-4,15.5-5.5c1.3-0.4,2.7-0.7,4-1.2c1.2-0.4,2.4-0.7,3.5-1.4c1.1-0.8,2-1.9,1.9-3.3
								c0-1.3-0.8-2.4-1.8-3.1c-1.1-0.8-2.3-1.2-3.6-1.7c-0.3-0.1-1-0.5-1.3-0.7c-0.1-0.1-0.2-0.1-0.2-0.2c0,0-0.3-0.3-0.2-0.2
								c0,0-0.2-0.4-0.1-0.2c0.1,0.1-0.1-0.4-0.1-0.2c-0.3,0.5-0.7,0.9-1,1.4c2.1-0.6,4.2-0.1,6.2,0.6c2,0.7,3.9,1.9,6.1,2.1
								c2.2,0.2,4.1-1.5,3.9-3.8c-0.2-2.2-1.6-4.1-2.6-6c-1.3-2.5-2.6-5-3.9-7.4c-0.3,0.7-0.6,1.4-0.8,2c0.7-0.1,1.6,0,2.3,0.3
								c0.9,0.4,1.8,0.9,2.6,1.5c0.9,0.6,1.7,1.2,2.6,1.8c1,0.6,2.1,1.2,3.3,1.4c3.1,0.3,3.2-3.9,3.2-6c0-2.5-0.4-5-0.6-7.5
								c-0.2-2.6-0.3-5.4,0.8-7.8c-0.8,0-1.6,0-2.4,0c3.7,8.2,4.6,17.4,3,26.2c-0.5,2.5-1.2,5-2.1,7.4c-0.2,0.6,0.3,1.4,0.9,1.6
								C145.2,140.6,145.7,140.1,146,139.5L146,139.5z"/>
						</g>
					</g>
				</g>
				<g>
					<g>
						<g>
							<path class="st2" d="M286.7,191.1c-5.6-13.3-7.8-27.7-11.2-41.6c-3-12.5-7.4-24.5-13.4-35.9c-5.8-11-12.9-21.4-21.1-30.7
								c-8.3-9.4-17.7-17.7-27.9-24.9c-10.7-7.5-22-14.2-31.2-23.6c-1.1-1.1-2.2-2.3-3.2-3.5c-0.8-0.9-2.3,0.3-1.6,1.2
								c3.9,5.2,8.9,9.5,14.1,13.4c5.2,4,10.7,7.5,16.2,11.2c5.3,3.5,10.5,7.2,15.3,11.3c4.8,4,9.3,8.2,13.5,12.8
								c8.5,9.1,15.9,19.3,22,30.2c6.1,11,10.9,22.7,14.1,34.8c3.7,13.8,5.8,28.1,10.8,41.6c0.6,1.6,1.3,3.2,2,4.8
								C285.7,193,287.1,192.1,286.7,191.1L286.7,191.1z"/>
						</g>
					</g>
					<g>
						<g>
							<path class="st2" d="M285.8,190.6c-12-3.8-23.5-9.2-34-16.1c-10.6-6.9-20.2-15.1-28.7-24.5c-8.8-9.7-16.1-20.6-22.2-32.2
								c-6.6-12.5-11.8-25.7-15.4-39.4c-3.6-13.6-5.7-27.7-6-41.8c0-1.8-0.1-3.5-0.1-5.3c0-1.3-1.9-1.3-2,0
								c-0.3,14.3,1.4,28.7,4.7,42.6c3.3,14,8.1,27.7,14.5,40.6c5.9,12,13.1,23.4,21.8,33.6c8.3,9.7,17.8,18.4,28.3,25.7
								c10.4,7.2,22.1,13.1,34.2,16.7c1.5,0.4,3,0.9,4.6,1.3C286.3,192.2,286.6,190.9,285.8,190.6L285.8,190.6z"/>
						</g>
					</g>
					<g>
						<g>
							<path class="st2" d="M286.3,189c-4.1-4.5-6.9-10-9.2-15.5c-2.6-6-4.9-12.1-7.4-18.2c-4.9-12.3-10.3-24.5-16.6-36.1
								c-6-10.9-13-21.1-20.6-30.9c-7.7-9.8-16-19-24.7-28c-8.6-8.9-17.6-17.6-26.6-26.2c-1.1-1.1-2.2-2.1-3.3-3.2
								c-0.7-0.7-1.8,0.4-1.1,1.1c9,8.6,18,17.2,26.7,26c8.7,8.8,17.1,18,24.9,27.6c7.8,9.6,15,19.7,21.2,30.4
								c6.7,11.6,12,23.7,17.2,36c2.6,6.1,5.2,12.3,7.7,18.5c2.3,5.5,4.7,11.1,8.2,15.9c0.8,1.2,1.8,2.3,2.7,3.3
								C286,190.4,286.8,189.6,286.3,189L286.3,189z"/>
						</g>
					</g>
					<g>
						<g>
							<path class="st2" d="M284.3,189.9c-8.9-6.5-15.3-15.5-21.2-24.7c-3-4.7-6-9.4-9.1-14c-3.7-5.4-7.3-10.7-10.9-16.1
								c-7.2-10.7-14.3-21.5-21.3-32.3c-7-10.9-14-21.8-20.9-32.8c-6.8-10.9-13.6-22-20.3-33c-0.8-1.4-1.7-2.8-2.5-4.2
								c-0.5-0.8-1.7-0.1-1.2,0.7c6.7,11.2,13.5,22.4,20.4,33.5c6.9,11.1,13.9,22,20.9,33c7.1,10.9,14.2,21.8,21.5,32.6
								c6.9,10.2,13.9,20.3,20.5,30.6c5.8,9.1,11.9,18.3,20.3,25.3c1,0.9,2.1,1.7,3.2,2.5C284.3,191.3,284.9,190.3,284.3,189.9
								L284.3,189.9z"/>
						</g>
					</g>
					<g>
						<g>
							<path class="st2" d="M286.7,190.5c-10.7-5.7-21.1-12.3-30.5-19.9c-9.7-7.9-18.3-17-25.6-27.1c-7.5-10.4-14.1-21.4-20.3-32.6
								c-6.1-11.2-11.6-22.6-16.4-34.4c-4.8-11.8-8.9-23.9-12.2-36.1c-0.4-1.5-0.8-3-1.3-4.6c-0.3-0.9-1.6-0.5-1.4,0.4
								c1.4,6.2,3.5,12.4,5.5,18.4c2,6.1,4.2,12.1,6.5,18.1c4.7,11.9,9.9,23.6,15.9,34.9c6,11.4,12.7,22.5,20,33.1
								c3.7,5.4,7.7,10.6,12,15.5c4.1,4.5,8.5,8.8,13.1,12.7c9.3,7.9,19.5,14.7,30.2,20.6c1.3,0.7,2.6,1.4,4,2.1
								C286.8,191.9,287.4,190.9,286.7,190.5L286.7,190.5z"/>
						</g>
					</g>
				</g>
				<g>
					<g>
						<g>
							<path class="st2" d="M251.2,186.3c-8.8,8.4-19.1,15.4-30,20.8c-11,5.5-22.7,9.5-34.7,12.1c-12.6,2.7-25.4,3.9-38.3,3.8
								c-14.4-0.1-28.8-1.8-43-4.5c-14.2-2.8-28.2-6.5-42.1-10.9c-1.7-0.5-3.5-1-5.2-1.4c-1.2-0.3-1.7,1.5-0.5,1.9
								c6.9,2.6,14,4.7,21.1,6.6c7.1,2,14.3,3.7,21.5,5.2c14.3,3,28.8,5,43.4,5.4c13.2,0.4,26.4-0.5,39.4-3
								c12.2-2.4,24.1-6.1,35.4-11.4c11.2-5.2,21.5-12.1,30.5-20.5c1.2-1.1,2.3-2.2,3.4-3.3C252.7,186.6,251.8,185.7,251.2,186.3
								L251.2,186.3z"/>
						</g>
					</g>
					<g>
						<g>
							<path class="st2" d="M250.7,185.7c-12.9-3.1-25.9-6.3-39-8.5c-13-2.2-26.2-3.7-39.4-4c-13.1-0.3-26.3,0.5-39.3,3
								c-12.6,2.4-24.9,6.3-36.8,11.1c-11.9,4.8-23.5,10.3-35,16c-1.4,0.7-2.9,1.4-4.3,2.2c-1.5,0.7-0.2,3,1.3,2.2
								c11.4-5.6,22.8-11.3,34.5-16.3c11.6-4.9,23.6-9.2,35.9-12c12.8-2.9,25.8-4.1,38.9-4.2c13.2,0,26.3,1.1,39.3,3
								c6.5,0.9,13,2.1,19.5,3.3c6.5,1.2,13,2.4,19.5,3.9c1.6,0.4,3.1,0.7,4.7,1.1C251,186.7,251.2,185.8,250.7,185.7L250.7,185.7z"
								/>
						</g>
					</g>
					<g>
						<g>
							<path class="st2" d="M250.5,186.6c-11.1,6.7-23.2,11.5-35.7,15.1c-12.8,3.7-25.9,6.2-39,8c-14.1,1.9-28.3,2.8-42.4,3.2
								c-11.9,0.4-23.9,0.7-35.8,0.1c-10.7-0.6-21.8-1.8-31.8-5.9c-1.1-0.4-2.2-0.9-3.2-1.4c-1.2-0.6-2.2,1.1-1,1.8
								c4.4,2.5,9.4,3.9,14.4,5c5.5,1.2,11.2,1.9,16.8,2.4c11.7,0.9,23.4,0.7,35,0.4c14.3-0.4,28.7-1.1,42.9-2.8
								c13.5-1.6,26.9-4.1,40-7.6c12.6-3.4,24.9-7.9,36.3-14.3c1.4-0.8,2.8-1.6,4.2-2.5C252.1,187.4,251.3,186.1,250.5,186.6
								L250.5,186.6z"/>
						</g>
					</g>
					<g>
						<g>
							<path class="st2" d="M250.1,186.8c-11.9,1.7-23.8,3.7-35.8,5.4c-11.8,1.7-23.6,3.2-35.4,4.6c-11.8,1.4-23.7,2.5-35.5,3.6
								c-12.4,1.1-24.7,2-37.1,2.8c-13.1,0.8-26.2,1.5-39.4,2.1c-1.7,0.1-3.5,0.2-5.2,0.3c-1.3,0.1-1.3,2.1,0,2
								c6.8-0.1,13.6-0.6,20.4-0.9c6.5-0.3,13-0.7,19.5-1.1c12.5-0.8,24.9-1.7,37.4-2.8c12-1,24-2.3,36-3.6
								c11.7-1.4,23.5-2.9,35.2-4.6c11.9-1.7,23.9-3.5,35.7-5.8c1.5-0.3,3-0.6,4.5-0.9C251,187.6,250.7,186.8,250.1,186.8
								L250.1,186.8z"/>
						</g>
					</g>
					<g>
						<g>
							<path class="st2" d="M251.1,186.5c-13.1-1.8-26.3-3-39.6-3.6c-13.1-0.6-26.3-0.5-39.5,0.3c-13.1,0.8-26.1,2.3-39,4.7
								c-13,2.3-25.9,5.5-38.6,9.5c-5,1.6-9.9,2.8-15,3.8c-5.3,1.1-10.6,2-15.9,3.1c-1.1,0.2-2.2,0.5-3.3,0.8
								c-1.2,0.3-0.7,2,0.5,1.8c5-0.8,10.1-1.8,15.1-2.7c5-0.9,10.1-1.9,15-3.4c6-1.8,12-3.7,18.1-5.4c6.4-1.7,12.8-3.2,19.3-4.5
								c12.8-2.6,25.8-4.3,38.9-5.4c13-1.1,26.1-1.4,39.2-1.1c13.2,0.3,26.4,1.2,39.6,2.6c1.6,0.2,3.3,0.3,4.9,0.5
								C251.6,187.6,251.7,186.6,251.1,186.5L251.1,186.5z"/>
						</g>
					</g>
				</g>
				<g>
					<path class="st1" d="M434.2,163.6c-12.3,4.1-24.6,8.3-37,12.2c-12.4,3.9-24.9,7.5-37.6,10.2c-6.4,1.4-12.8,2.4-19.3,3.2
						c-6.5,0.8-13,1.5-19.5,1.9c-13,0.9-26.1,0.9-39.1,0.5c-6.6-0.2-13.2-0.9-19.7-2c-6.5-1-12.9-2.4-19.3-4
						c-12.7-3.3-25.1-7.2-37.3-11.8c-12.2-4.6-24.3-9.8-35.7-16.3c-11.4-6.5-22.2-14.3-30.8-24.1l0.4-0.4
						c9.8,8.5,20.8,15.2,32.3,20.9c5.8,2.8,11.7,5.4,17.6,7.7c6,2.4,12,4.6,18.1,6.6c6.1,2.1,12.2,4.1,18.4,6
						c6.1,2,12.3,3.9,18.5,5.6c12.3,3.5,24.9,6.2,37.6,6.9c12.9,0.8,25.8,1.1,38.7,0.6c6.4-0.2,12.9-0.7,19.3-1.4
						c6.4-0.7,12.8-1.5,19.1-2.7c12.7-2.3,25.2-5.6,37.7-9.2c12.5-3.6,24.8-7.4,37.3-11.1L434.2,163.6z"/>
				</g>
			</g>
		</g>
		<g>
			<g>
				<g>
					<g>
						<g>
							<path class="st2" d="M660.4,109c4.3-12.3,10-24,17-35c7-10.9,15.5-21,25-29.9c4.7-4.4,9.7-8.4,14.9-12.2
								c2.6-1.9,5.3-3.7,8.1-5.4c1.4-0.8,2.8-1.7,4.2-2.5c1.5-0.8,3-1.7,4.6-2.3c1.5-0.5,3.2-0.8,4.7,0c1.1,0.6,1.8,1.6,2.1,2.7
								c0.9,2.9-0.2,5.7-1.6,8.3c-1.7,3-3.6,5.8-4.2,9.2c-0.5,3-0.2,6.1,0.9,8.9c1.2,2.9,3.1,5.4,5.7,7.2c2.8,2,6.1,3.1,8.8,5.1
								c4.8,3.7,5.9,10,5.5,15.7c-0.4,6.9-3.7,13.6-1.9,20.5c1.6,5.9,6.3,10.9,12.1,12.7c7.1,2.3,14.7-0.9,21.8,1.2
								c2.8,0.8,5.3,2.7,6.3,5.5c0.4,1.2,0.5,2.6,0.1,3.8c-0.4,1.3-1.5,2.5-2.3,3.6c-0.9,1.1-1.7,2.4-1.9,3.8
								c-0.2,1.6,0.3,3.1,1.5,4.2c0.8,0.8,2.3,1.6,2.6,2.8c0.3,1.4-0.7,2.7-1.6,3.6c-2.1,2.1-5.1,3-7.9,3.5c-3.3,0.5-6.7,0.5-10,0.6
								c-15,0.2-30-1.5-44.9-3.2c-15-1.7-30.1-3.6-45.2-3.9c-3.5-0.1-7.1,0-10.6,0.1c-1.6,0.1-1.6,2.5,0,2.5
								c15.2-0.6,30.5,1.1,45.6,2.8c15.3,1.8,30.7,3.8,46.1,4.3c3.7,0.1,7.4,0.1,11.2,0c3.4-0.1,6.8-0.2,10.2-1c3-0.7,6-2.1,8.1-4.5
								c1.2-1.4,2.1-3.2,1.8-5.1c-0.2-1.6-1.4-2.6-2.5-3.6c-0.9-0.7-1.8-1.6-1.5-2.7c0.3-1.4,1.4-2.6,2.2-3.6c0.9-1.2,1.8-2.5,2.2-4
								c0.4-1.5,0.3-3.1-0.2-4.5c-1-3.1-3.4-5.6-6.4-6.9c-3.4-1.5-7.2-1.6-10.8-1.4c-3.9,0.2-7.9,0.8-11.7-0.1
								c-2.9-0.7-5.5-2.2-7.5-4.3c-2-2.1-3.4-4.6-4.1-7.4c-0.9-3.6-0.1-7.3,0.7-10.9c1.4-6.1,2.3-12.8,0-18.9c-1.1-3-3-5.6-5.6-7.5
								c-2.8-2.1-6.2-3.1-9-5.2c-4.8-3.5-6.7-10.3-4.6-15.8c1.3-3.4,3.7-6.2,4.9-9.6c0.9-2.6,0.9-5.9-0.5-8.4
								c-1.9-3.1-5.6-3.6-8.8-2.5c-3.2,1-6.1,3-9,4.7c-5.7,3.5-11.1,7.4-16.3,11.6c-10.3,8.4-19.4,18.2-27.2,28.9
								c-7.8,10.7-14.3,22.5-19.1,34.8c-1.1,2.9-2.1,6-3,9C658.8,109.5,660.1,109.8,660.4,109L660.4,109z"/>
						</g>
					</g>
					<g>
						<g>
							<path class="st2" d="M658.4,104.5c-0.2-6-0.1-12,0.5-17.9c0.5-5.9,1.4-11.7,2.7-17.5c2.6-11.8,6.4-23.2,10.8-34.4
								c2.2-5.6,4.6-11.1,7-16.6c1.1-2.5,2.1-5.1,3.7-7.3c1.3-1.7,3.2-3,5.4-2.7c4.2,0.5,3.1,7.7,7.8,7.4c1.4-0.1,2.5-1,3.5-1.9
								c1.1-1,2.2-2,3.3-2.9c2.2-1.8,4.6-3.3,7-4.7c1.9-1,4.7-2.9,6.7-1.3c0.5,0.4,0.9,1.1,1.1,1.7c0.3,0.9,0.5,1.7,0.7,2.6
								c0.4,1.9,0.8,3.9,2,5.5c0.8,1.1,1.8,1.8,2.9,2.5c1,0.6,2,1.2,2.6,2.3c0.4,0.7,0.6,1.6-0.1,2.2c-1,0.9,0.5,2.4,1.5,1.5
								c2-1.8,0.9-5-0.9-6.5c-1-0.9-2.2-1.4-3.3-2.3c-0.7-0.6-1.3-1.4-1.6-2.3c-1.3-3.4-1-8.8-5.4-9.9c-3-0.8-6,1.2-8.5,2.6
								c-2.6,1.5-5,3.2-7.3,5.1c-1.1,0.9-2.1,2-3.2,2.9c-0.4,0.3-0.9,0.6-1.4,0.6c-0.2,0-0.5-0.1-0.7-0.3c-0.6-0.5-1-1.5-1.4-2.3
								c-0.4-0.9-0.8-1.9-1.5-2.7c-1.5-2-4.1-2.5-6.5-1.9c-2.6,0.7-4.5,2.7-5.8,4.9c-1.5,2.5-2.6,5.3-3.8,8
								c-1.3,2.9-2.5,5.8-3.8,8.6c-4.9,11.5-9.3,23.3-12.3,35.4c-1.5,6-2.6,12.1-3.4,18.3c-0.4,3.1-0.6,6.2-0.8,9.2
								c-0.1,3-0.2,6.1,0.1,9.2c0.1,1.5,0.3,3.1,0.5,4.6C657,105.5,658.5,105.6,658.4,104.5L658.4,104.5z"/>
						</g>
					</g>
					<g>
						<g>
							<path class="st2" d="M689.1,144.5c0.9,0.3,1.8,0.5,2.6,1c0.8,0.5,1.6,0.8,2.5,1.1c1.8,0.7,3.6,1.3,5.3,2
								c3.8,1.4,7.5,2.8,11.3,4.3c7.8,3.1,15.5,6.3,23.3,9.2c7.5,2.7,15.1,5.2,23,6.7c3.7,0.7,7.5,1.2,11.3,1.2
								c4.4,0.1,9-0.4,12.8-2.6c3.3-1.8,6.1-5,6.9-8.8c0.7-3.8-0.7-7.8-3.5-10.3c-0.7-0.6-1.5-1.2-2.3-1.6c-0.5-0.3-1.2-0.1-1.5,0.4
								c-0.3,0.5-0.1,1.3,0.4,1.5c3.1,1.5,5.1,4.7,4.9,8.2c-0.2,3.4-2.6,6.5-5.4,8.2c-3.5,2.2-7.8,2.7-11.9,2.7
								c-3.6,0-7.1-0.4-10.6-1c-7.6-1.4-15-3.7-22.3-6.3c-7.6-2.7-15-5.8-22.5-8.7c-3.6-1.4-7.3-2.8-10.9-4.1
								c-1.8-0.6-3.5-1.2-5.3-1.7c-0.9-0.3-1.7-0.5-2.6-0.7c-0.9-0.2-1.7-0.4-2.6-0.4c-0.9,0-1.8-0.3-2.7-0.4
								C689,144.3,688.9,144.4,689.1,144.5L689.1,144.5z"/>
						</g>
					</g>
					<g>
						<path class="st2" d="M752.1,31.5c-1.1,0.4-1.6,1.8-1.1,2.9c0.5,1.1,1.7,1.7,2.8,1.8c1.4,0.1,3.1-0.7,3.2-2.1
							c0.1-0.6-0.2-1.2-0.4-1.7c-0.3-0.7-0.8-1.4-1.5-1.8c-0.7-0.3-1.8-0.1-2,0.6"/>
						<g>
							<path class="st2" d="M752.1,31.2c-1.2,0.4-1.7,1.8-1.4,2.9c0.4,1.3,1.8,2.1,3.1,2.3c1.2,0.1,2.5-0.3,3.2-1.3
								c0.4-0.6,0.4-1.3,0.3-1.9c-0.2-0.7-0.6-1.5-1-2c-0.5-0.6-1.1-1-1.9-1c-0.6,0-1.4,0.4-1.4,1.1c0,0.2,0.2,0.2,0.3,0.1
								c0.2-0.1,0.3-0.3,0.4-0.4c0.2-0.1,0.5-0.2,0.7-0.2c0.5,0,1,0.3,1.3,0.7c0.4,0.5,0.7,1.1,0.9,1.7c0.2,0.5,0.2,1.1,0,1.6
								c-0.5,0.8-1.5,1.2-2.5,1.2c-1.1,0-2.2-0.5-2.8-1.4c-0.5-0.9-0.3-2.4,0.8-2.8C752.5,31.6,752.3,31.1,752.1,31.2L752.1,31.2z"
								/>
						</g>
					</g>
					<g>
						<path class="st2" d="M742.6,56.2c0.4-1.9,2.9-3.1,4.6-2.1c1.7,1,2,3.7,0.5,5"/>
						<g>
							<path class="st2" d="M742.7,56.2c0.3-1.5,1.8-2.4,3.3-2.3c1.5,0.1,2.4,1.5,2.4,2.9c0,0.8-0.3,1.6-0.8,2.2
								c-0.1,0.1,0,0.3,0.1,0.2c1.4-0.9,1.4-3.1,0.6-4.3c-1-1.5-2.9-1.7-4.3-0.9c-0.8,0.5-1.4,1.2-1.6,2.2
								C742.4,56.3,742.7,56.4,742.7,56.2L742.7,56.2z"/>
						</g>
					</g>
					<g>
						<path class="st2" d="M761.2,41c-1.3,0.1-2.7,0.3-3.6,1.3c-1.2,1.3-0.9,3.6,0.5,4.7c1.4,1.1,3.5,1,5,0.1c0.5-0.3,1-0.7,1.3-1.3
							c0.6-1,0.4-2.4-0.4-3.3c-0.8-0.9-2.2-1.1-3.3-0.6"/>
						<g>
							<path class="st2" d="M761.2,40.9c-1.6,0.2-3.6,0.4-4.3,2c-0.7,1.4-0.3,3.1,0.8,4.2c1.3,1.2,3.3,1.4,4.9,0.7
								c1.7-0.7,2.9-2.2,2.4-4.1c-0.4-1.8-2.7-3-4.3-1.9c-0.2,0.1-0.1,0.4,0.1,0.3c1.4-0.4,3,0,3.5,1.4c0.2,0.6,0.2,1.4-0.1,2
								c-0.4,0.7-1,1.2-1.7,1.5c-1.3,0.6-3,0.6-4.1-0.3c-1-0.7-1.4-2.1-1.1-3.3c0.5-1.7,2.4-2.1,4-2.2
								C761.5,41.2,761.5,40.8,761.2,40.9L761.2,40.9z"/>
						</g>
					</g>
					<g>
						<path class="st2" d="M782,78.3c-2.4-0.1-4.2,2.8-3.4,5.1c0.8,2.3,3.8,3.3,6,2.5c0.7-0.3,1.4-0.7,1.8-1.4
							c0.8-1.4,0.1-3.1-0.9-4.3c-0.8-1-2-1.9-3.2-1.6"/>
						<g>
							<path class="st2" d="M782,78.1c-1.6,0-3,1.1-3.5,2.6c-0.6,1.6-0.2,3.3,1,4.4c1.2,1.1,3,1.6,4.6,1.2c0.9-0.2,1.7-0.7,2.3-1.4
								c0.6-0.8,0.7-1.7,0.5-2.6c-0.2-1.1-0.9-2.1-1.7-2.9c-0.8-0.8-1.9-1.4-3-1c-0.2,0.1-0.2,0.4,0.1,0.4c1.8-0.2,3.3,1.5,3.9,3
								c0.3,0.8,0.4,1.7,0,2.5c-0.4,0.7-1.2,1.2-1.9,1.4c-2.7,0.8-6.2-1.2-5.5-4.3c0.3-1.5,1.6-2.9,3.3-2.9
								C782.2,78.5,782.2,78.2,782,78.1L782,78.1z"/>
						</g>
					</g>
					<g>
						<path class="st2" d="M763.4,69.5c-1.5,1.2-1.5,3.8-0.1,5c1.5,1.2,4.1,0.4,4.6-1.4c0.2-0.6,0.1-1.2,0-1.8c-0.2-1-0.7-2-1.6-2.5
							c-0.9-0.5-2.2-0.3-2.7,0.5"/>
						<g>
							<path class="st2" d="M763.3,69.4c-1,0.8-1.4,2.2-1.1,3.5c0.3,1.3,1.3,2.2,2.6,2.4c1.2,0.1,2.5-0.4,3.1-1.4
								c0.9-1.3,0.4-3.3-0.5-4.5c-0.5-0.6-1.2-1.1-2-1.1c-0.7,0-1.5,0.3-1.8,1c-0.1,0.2,0.1,0.4,0.3,0.2c0.8-0.9,2.2-0.8,3,0.1
								c0.4,0.5,0.7,1.1,0.9,1.7c0.2,0.7,0.2,1.5-0.1,2.1c-0.5,0.9-1.5,1.4-2.5,1.4c-1.1,0-2-0.7-2.3-1.7c-0.4-1.2-0.1-2.6,0.9-3.5
								C763.7,69.5,763.5,69.3,763.3,69.4L763.3,69.4z"/>
						</g>
					</g>
					<g>
						<path class="st2" d="M774.5,68.9c-0.7,0.6-0.6,1.8,0.1,2.4c0.7,0.6,1.8,0.5,2.5,0c0.9-0.7,1.2-2.2,0.5-3.1s-2.4-0.9-3,0.1"/>
						<g>
							<path class="st2" d="M774.4,68.8c-0.7,0.6-0.7,1.7-0.2,2.4c0.6,0.8,1.8,0.9,2.7,0.5c0.8-0.4,1.4-1.3,1.4-2.2
								c0-0.9-0.5-1.7-1.4-2c-0.4-0.2-0.9-0.2-1.4,0c-0.5,0.1-0.9,0.4-1,0.9c-0.1,0.2,0.1,0.4,0.3,0.2c0.4-0.5,1.1-0.8,1.7-0.6
								c0.7,0.1,1.2,0.6,1.3,1.3c0.1,0.7-0.2,1.5-0.7,1.9c-0.6,0.5-1.6,0.6-2.2,0.1c-0.6-0.5-0.7-1.5-0.1-2.1
								C774.9,68.9,774.6,68.6,774.4,68.8L774.4,68.8z"/>
						</g>
					</g>
					<g>
						<path class="st2" d="M769.7,96.2c-0.6,0.6-0.3,1.9,0.5,2.2c0.8,0.3,1.8-0.5,1.7-1.4s-1.3-1.4-2-1"/>
						<g>
							<path class="st2" d="M769.5,96c-0.9,0.9-0.3,2.6,1,2.6c0.6,0,1.3-0.4,1.5-1c0.3-0.6,0.1-1.3-0.4-1.7
								c-0.3-0.2-0.6-0.4-0.9-0.4c-0.3,0-0.7,0.1-0.9,0.3c-0.1,0.1-0.1,0.2,0,0.2c0.1,0.1,0.1,0.1,0.2,0c0.2-0.1,0.4-0.1,0.6-0.1
								c0.2,0,0.4,0.1,0.6,0.2c0.4,0.2,0.5,0.6,0.4,1.1c-0.1,0.4-0.5,0.8-1,0.8c-0.4,0.1-0.8-0.2-1-0.6c-0.2-0.4-0.2-0.9,0.1-1.3
								C770,96.1,769.7,95.8,769.5,96L769.5,96z"/>
						</g>
					</g>
					<g>
						<path class="st2" d="M768.6,110.9c0.2-2.8,2.7-5.4,5.5-5.5c2.8-0.1,5.6,2.4,5.4,5.2"/>
						<g>
							<path class="st2" d="M768.8,110.9c0.3-2.7,2.6-5.1,5.3-5.2c1.3,0,2.6,0.5,3.5,1.4c0.5,0.4,0.9,0.9,1.1,1.5
								c0.3,0.7,0.4,1.3,0.5,2c0,0.3,0.5,0.4,0.5,0.1c0.3-1.4-0.6-3-1.6-4c-1.1-1-2.5-1.7-4-1.6c-3,0.1-5.5,2.8-5.8,5.8
								C768.4,111.1,768.8,111.1,768.8,110.9L768.8,110.9z"/>
						</g>
					</g>
					<g>
						<g>
							<path class="st2" d="M720.4,6.1c3.7-1.9,7.7-3,11.8-3.3c2-0.1,4.1-0.1,6.1,0.2c1.8,0.3,3.4,1,4.5,2.5
								c1.7,2.6,1.9,5.9,3.9,8.3c1.2,1.5,3,2,4.5,3c1.3,0.7,2.2,1.8,3,3.1c1.6,2.9,1.8,6.6,0,9.5c-0.5,0.8,0.7,1.5,1.3,0.7
								c1.9-2.7,2.2-6.3,1.1-9.4c-0.5-1.5-1.5-3-2.7-4.1c-0.6-0.6-1.3-1.1-2-1.5c-0.9-0.5-1.9-0.9-2.8-1.4c-1.4-0.9-2.1-2.4-2.7-3.9
								c-0.6-1.6-1.1-3.2-1.9-4.6c-0.9-1.6-2.4-2.8-4.1-3.4c-2-0.7-4.3-0.8-6.4-0.7c-5,0-9.9,1.4-14.3,3.8
								C718.9,5.3,719.6,6.5,720.4,6.1L720.4,6.1z"/>
						</g>
					</g>
					<g>
						<g>
							<path class="st2" d="M751.1,36.7c-0.3,1.5-0.7,3-1.2,4.5c-0.5,1.5-1.2,2.8-2,4.1c-0.8,1.2-1.6,2.5-2.1,3.8
								c-0.6,1.3-1.2,3-1.1,4.4c0.1,0.4,0.8,0.8,1,0.3c0.3-0.7,0.4-1.3,0.6-2c0.2-0.8,0.5-1.5,0.8-2.2c0.6-1.4,1.5-2.6,2.3-3.9
								c1.7-2.6,2.5-5.5,3.3-8.6C752.9,36.1,751.4,35.7,751.1,36.7L751.1,36.7z"/>
						</g>
					</g>
					<g>
						<g>
							<path class="st2" d="M751.6,42.6c1,0,2.1,0.1,3.1,0.4c0.5,0.1,1,0.3,1.5,0.4c0.3,0.1,0.5,0.2,0.8,0.2c0.3,0.1,0.5,0.1,0.8,0
								c0.3-0.1,0.5-0.5,0.3-0.7c-0.2-0.3-0.4-0.5-0.8-0.6c-0.2-0.1-0.5-0.2-0.8-0.3c-0.5-0.2-1.1-0.3-1.6-0.4
								c-1.1-0.2-2.3-0.3-3.4-0.2C750.9,41.6,750.9,42.6,751.6,42.6L751.6,42.6z"/>
						</g>
					</g>
					<g>
						<g>
							<path class="st2" d="M765,47c1.7,0.6,3.3,1.4,4.6,2.5c0.7,0.6,1.3,1.2,1.9,1.8c0.6,0.6,1.2,1.3,1.6,2.1
								c0.8,1.6-0.3,3.4-1.2,4.7c-1,1.6-2.1,3.1-3,4.7c-1,1.9-1.9,4-2.5,6.1c-0.3,1.2,1.4,1.6,1.8,0.5c0.6-2,1.5-3.9,2.4-5.7
								c1-1.8,2.3-3.4,3.3-5.2c1-1.7,1.7-3.7,0.9-5.6c-0.7-1.7-2.3-3.1-3.8-4.2c-1.8-1.3-3.7-2.3-5.8-3
								C764.6,45.5,764.3,46.7,765,47L765,47z"/>
						</g>
					</g>
					<g>
						<g>
							<path class="st2" d="M768,69.7c1.7,0.4,3.5,0.8,5.2,1.3c0.4,0.1,0.8-0.1,0.9-0.5c0.1-0.4-0.1-0.8-0.5-0.9
								c-1.7-0.4-3.5-0.7-5.2-1.1c-0.3-0.1-0.7,0.1-0.8,0.4C767.5,69.2,767.7,69.6,768,69.7L768,69.7z"/>
						</g>
					</g>
					<g>
						<g>
							<path class="st2" d="M775.6,72.3c1,1.3,0.2,3.1-0.5,4.2c-0.7,1.2-1.5,2.3-1.8,3.7c-0.3,1.3-0.3,2.6-0.3,3.8
								c0,0.8,0,2.7,0.9,3.1c0.2,0.1,0.4,0,0.5-0.2c0.2-0.5-0.1-1.1-0.2-1.5c-0.1-0.7-0.2-1.3-0.2-2c0-1.2,0.1-2.6,0.5-3.7
								c0.6-1.5,1.7-2.6,2.2-4.1c0.5-1.3,0.4-2.9-0.6-4C775.8,71,775.1,71.8,775.6,72.3L775.6,72.3z"/>
						</g>
					</g>
					<g>
						<g>
							<path class="st2" d="M773.5,86.8c0.8,1.5,1.9,2.7,3.4,3.5c1.3,0.7,2.7,1,4.1,1c1.4,0.1,2.7,0,4.1-0.1c1.4,0,2.5,0.1,3.9,0.5
								c1.8,0.5,3.7,1.4,4.4,3.2c0.4,1,0.5,2.1,0.5,3.1c0,1,0.1,2.1-0.1,3.1c-0.1,1-0.4,1.9-1,2.6c-0.6,0.8-1.3,1.4-1.6,2.4
								c-0.5,2.3,1.5,3.8,3.2,4.8c0.9,0.5,1.7,1,2.2,1.9c0.5,0.7,0.8,1.5,0.9,2.4c0.3,1.8-0.4,3.5-1.4,4.9c-0.4,0.6,0.4,1.4,1,1
								c2.8-2.1,2.9-6.6,1-9.3c-0.6-0.8-1.2-1.4-2.1-1.9c-0.9-0.6-2.1-1-2.8-1.9c-0.6-0.8-0.5-1.6,0.1-2.4c0.7-0.8,1.3-1.6,1.6-2.6
								c0.3-1,0.4-2.1,0.4-3.1c0-1.1,0-2.2-0.1-3.3c-0.2-2.1-1.1-4-3-5.2c-1.5-0.9-3.4-1.5-5.1-1.7c-1.3-0.2-2.6,0-4,0.1
								c-1.6,0.1-3.2,0.2-4.8-0.2c-2-0.5-3.4-1.8-4.4-3.5C773.9,85.9,773.2,86.3,773.5,86.8L773.5,86.8z"/>
						</g>
					</g>
					<g>
						<path class="st2" d="M748,21.4c-0.7-0.1-1.4,0.3-1.7,1c-0.2,0.6,0,1.2,0.3,1.7c0.7,1.1,2.1,1.6,3.3,1.1c1.2-0.5,1.8-2,1.3-3.1
							c-0.5-1.2-2.2-1.6-3.2-0.8"/>
						<g>
							<path class="st2" d="M748,21.3c-0.5-0.1-1.1,0.1-1.4,0.5c-0.4,0.4-0.5,1-0.4,1.6c0.2,1.1,1.3,2,2.4,2.2
								c1.1,0.2,2.2-0.3,2.7-1.3c0.5-0.9,0.5-2.1-0.3-2.9c-0.8-0.8-2.1-0.9-3-0.2c-0.1,0.1,0,0.2,0.1,0.2c0.7-0.5,1.6-0.4,2.3,0.1
								c0.8,0.5,1,1.4,0.7,2.2c-0.3,0.9-1,1.5-2,1.6c-0.9,0.1-1.9-0.4-2.4-1.2c-0.3-0.5-0.5-1.2-0.2-1.8c0.3-0.5,0.8-0.8,1.4-0.7
								C748.1,21.6,748.2,21.3,748,21.3L748,21.3z"/>
						</g>
					</g>
					<g>
						<path class="st2" d="M786.6,71.5c-0.6-0.3-1.5,0.1-1.6,0.8c-0.2,0.7,0.2,1.4,0.7,1.9c0.7,0.6,1.7,0.9,2.5,0.6
							c0.9-0.3,1.5-1.2,1.4-2.1c-0.1-0.9-1.1-1.6-2-1.4"/>
						<g>
							<path class="st2" d="M786.7,71.3c-0.8-0.4-1.7,0.1-1.9,0.9c-0.3,1,0.4,1.9,1.2,2.4c0.8,0.5,1.9,0.6,2.8,0.1
								c0.8-0.5,1.2-1.4,1-2.3c-0.2-1-1.2-1.7-2.2-1.4c-0.2,0.1-0.1,0.3,0,0.3c0.7-0.1,1.3,0.3,1.6,0.9c0.3,0.7,0,1.4-0.5,1.9
								c-1.2,1.1-3.3,0.2-3.6-1.3c-0.1-0.4,0-0.8,0.4-1.1c0.3-0.2,0.7-0.4,1-0.2C786.7,71.8,786.9,71.4,786.7,71.3L786.7,71.3z"/>
						</g>
					</g>
					<g>
						<path class="st2" d="M766,30.9c-0.6-0.3-1.5,0.1-1.6,0.8c-0.2,0.7,0.2,1.4,0.7,1.9c0.7,0.6,1.7,0.9,2.5,0.6s1.5-1.2,1.4-2.1
							c-0.1-0.9-1.1-1.6-2-1.4"/>
						<g>
							<path class="st2" d="M766.1,30.7c-0.8-0.4-1.7,0.1-1.9,0.9c-0.3,1,0.4,1.9,1.2,2.4c0.8,0.5,1.9,0.6,2.8,0.1
								c0.8-0.5,1.2-1.4,1-2.3c-0.2-1-1.2-1.7-2.2-1.4c-0.2,0.1-0.1,0.3,0,0.3c0.7-0.1,1.3,0.3,1.6,0.9c0.3,0.7,0,1.4-0.5,1.9
								c-1.2,1.1-3.3,0.2-3.6-1.3c-0.1-0.4,0-0.8,0.4-1.1c0.3-0.2,0.7-0.4,1-0.2C766.1,31.2,766.3,30.8,766.1,30.7L766.1,30.7z"/>
						</g>
					</g>
					<g>
						<path class="st2" d="M781.8,52.7c-0.6-0.3-1.5,0.1-1.6,0.8c-0.2,0.7,0.2,1.4,0.7,1.9c0.7,0.6,1.7,0.9,2.5,0.6
							c0.9-0.3,1.5-1.2,1.4-2.1c-0.1-0.9-1.1-1.6-2-1.4"/>
						<g>
							<path class="st2" d="M781.9,52.5c-0.8-0.4-1.7,0.1-1.9,0.9c-0.3,1,0.4,1.9,1.2,2.4c0.8,0.5,1.9,0.6,2.8,0.1
								c0.8-0.5,1.2-1.4,1-2.3c-0.2-1-1.2-1.7-2.2-1.4c-0.2,0.1-0.1,0.3,0,0.3c0.7-0.1,1.3,0.3,1.6,0.9c0.3,0.7,0,1.4-0.5,1.9
								c-1.2,1.1-3.3,0.2-3.6-1.3c-0.1-0.4,0-0.8,0.4-1.1c0.3-0.2,0.7-0.4,1-0.2C781.9,53,782.1,52.7,781.9,52.5L781.9,52.5z"/>
						</g>
					</g>
					<g>
						<path class="st2" d="M761.9,88.5c-0.6,0.1-1,0.7-1,1.3s0.5,1.2,1,1.4c0.8,0.4,2,0,2.3-0.9c0.3-0.9-0.7-1.9-1.6-1.6"/>
						<g>
							<path class="st2" d="M761.9,88.3c-0.7,0.1-1.2,0.9-1.2,1.6c0.1,0.8,0.6,1.4,1.4,1.6c0.6,0.2,1.4,0.1,1.9-0.4
								c0.5-0.4,0.7-1.1,0.4-1.8c-0.2-0.3-0.4-0.6-0.8-0.8c-0.3-0.2-0.8-0.2-1,0.1c-0.1,0.1,0,0.2,0.1,0.3c0.2,0,0.5,0,0.7,0.1
								c0.2,0.1,0.4,0.3,0.5,0.5c0.3,0.4,0.2,0.9-0.2,1.3c-0.8,0.7-2.2,0.4-2.6-0.6c-0.2-0.6,0.2-1.3,0.8-1.5
								C762.2,88.6,762.1,88.3,761.9,88.3L761.9,88.3z"/>
						</g>
					</g>
					<g>
						<g>
							<path class="st2" d="M660.2,115.9c6.3-11.6,14.6-22.2,24.5-30.9c2.8-2.5,5.7-4.8,8.7-7.1c0.4-0.3,0-1.1-0.4-0.7
								c-11.2,7.4-20.7,17.2-28.1,28.3c-2.1,3.2-4,6.4-5.7,9.8C658.9,116,659.8,116.5,660.2,115.9L660.2,115.9z"/>
						</g>
					</g>
					<g>
						<g>
							<path class="st2" d="M660.9,123.7c1.5-2.5,3.4-4.8,5.3-7c1.7-2,3.5-3.9,5.3-5.8c3.6-3.7,7.4-7.2,11.4-10.4
								c8-6.6,16.8-12.2,26.1-16.9c5.3-2.6,10.6-4.9,16.1-7.1c0.3-0.1,0.2-0.7-0.2-0.6c-10.1,3-19.7,7.6-28.6,13.2
								c-8.9,5.6-17.2,12.3-24.6,19.8c-2,2.1-4,4.2-5.9,6.4c-2.2,2.5-4.2,5.1-5.8,8C659.8,123.8,660.6,124.3,660.9,123.7
								L660.9,123.7z"/>
						</g>
					</g>
					<g>
						<g>
							<path class="st2" d="M669.7,126.3c0.4-1.1,1.5-1.6,2.5-2.2c1.3-0.7,2.5-1.4,3.8-2.1c2.6-1.4,5.2-2.8,7.8-4.2
								c5.2-2.8,10.4-5.5,15.6-8.2c3-1.5,5.9-3.1,8.9-4.6c0.4-0.2,0-0.8-0.4-0.6c-11,5.2-21.9,10.7-32.5,16.6
								c-1.4,0.8-2.9,1.5-4.3,2.4c-1,0.7-1.9,1.5-2.3,2.7C668.7,126.6,669.5,126.8,669.7,126.3L669.7,126.3z"/>
						</g>
					</g>
					<g>
						<g>
							<path class="st2" d="M666.9,132c10.9-2.1,21.7-4.3,32.4-7.3c10.5-2.9,20.9-6.5,30.6-11.4c5.4-2.8,10.8-5.8,15.4-9.8
								c0.3-0.3-0.1-0.8-0.4-0.6c-4.6,2.8-9.2,5.8-14,8.3c-4.8,2.5-9.7,4.7-14.8,6.6c-10.2,3.9-20.8,6.8-31.5,9.2
								c-6,1.4-12,2.7-18,4C666.1,131.2,666.3,132.1,666.9,132L666.9,132z"/>
						</g>
					</g>
					<g>
						<g>
							<path class="st2" d="M680.3,134.7c6.9-1.7,14.1-2,21.1-2.1c6.8,0,13.7,0.1,20.5,0c13.3-0.3,26.7-1.3,39.7-4.4
								c7.2-1.7,14.4-3.9,20.9-7.4c0.4-0.2,0.1-0.9-0.3-0.7c-6.2,2.3-12.4,4.6-18.8,6.2c-6.5,1.6-13,2.7-19.6,3.5
								c-13.4,1.6-26.8,1.6-40.2,1.6c-7.9,0-15.8,0.4-23.5,2.5C679.6,134.1,679.8,134.8,680.3,134.7L680.3,134.7z"/>
						</g>
					</g>
					<g>
						<g>
							<path class="st2" d="M659.2,102.5c3.3-10.6,6.2-21.3,10.2-31.7c3.6-9.4,8.2-18.6,14.2-26.7c3.3-4.5,7-8.5,11-12.4
								c0.2-0.2-0.1-0.5-0.3-0.3c-3.9,3-7.3,6.7-10.4,10.6c-3.1,3.9-5.8,8-8.2,12.3c-5.2,9.4-9.1,19.5-12.2,29.8
								c-1.8,6.1-3.4,12.2-4.9,18.3C658.5,102.7,659.1,102.9,659.2,102.5L659.2,102.5z"/>
						</g>
					</g>
					<g>
						<g>
							<path class="st2" d="M678.6,141.5c3.2-0.6,6.4-0.1,9.5,0.6c3,0.7,6,1.4,9,2.3c5.9,1.7,11.8,3.7,17.6,5.7
								c11.7,4,23.4,8.2,35.6,10.4c6.8,1.2,13.8,2,20.7,1.2c0.4,0,0.4-0.6,0-0.6c-6.2-0.1-12.4-0.4-18.6-1.4
								c-6.1-1-12.2-2.5-18.2-4.3c-11.9-3.6-23.5-8.1-35.4-11.6c-3.4-1-6.8-1.9-10.2-2.6c-3.4-0.7-6.9-1.3-10.3-0.6
								C677.6,140.6,677.9,141.7,678.6,141.5L678.6,141.5z"/>
						</g>
					</g>
					<g>
						<path class="st1" d="M657.2,139.2c-4.4-11-4.1-23.8,0.9-34.6c2.6,5.9-0.7,12.9,0.6,19.2c0.1,0.5,0.3,1.1,0.8,1.4
							c0.4,0.2,0.9,0.1,1.3-0.1c3.7-1.4,6.7-5.5,10.6-4.8c-1.8,3.4-3.6,6.9-5.4,10.3c-0.7,1.4-1.4,3.3-0.2,4.4c1,0.9,2.5,0.5,3.7,0
							c3.5-1.4,7.2-3.3,10.8-2.2c-0.1,1.8-2.2,2.6-3.9,3.2c-1.7,0.6-3.6,1.8-3.3,3.5c0.2,1.3,1.6,2,2.9,2.4
							c7.1,2.5,14.8,3.4,21.3,7.2c-2.5,2.1-6.2,1.3-9.4,0.5c-6.1-1.6-12.2-3.3-18.3-4.9c-2.5-0.7-4.9-1.3-7.2-2.5
							c-1.2-0.6-2.3-1.4-3.3-2.2"/>
						<g>
							<path class="st1" d="M658.4,138.8c-3.2-8.4-3.8-17.7-1.6-26.4c0.6-2.4,1.4-4.8,2.5-7.1c-0.8,0-1.6,0-2.4,0
								c1,2.1,1,4.6,0.9,6.9c-0.2,2.5-0.6,5-0.7,7.5c0,1.3,0,2.6,0.2,3.9c0.2,1.2,0.6,2.6,1.9,2.9c1.2,0.3,2.4-0.3,3.5-0.8
								c0.9-0.5,1.8-1.1,2.7-1.7c1-0.7,1.9-1.3,3-1.8c0.8-0.4,1.8-0.6,2.6-0.5c-0.3-0.7-0.6-1.4-0.8-2c-1.2,2.2-2.3,4.4-3.5,6.6
								c-0.6,1.1-1.2,2.2-1.7,3.3c-0.5,0.9-0.9,1.8-1.1,2.7c-0.2,1-0.2,2.1,0.3,3c0.6,1,1.6,1.6,2.7,1.7c2,0.2,4.1-1.1,5.9-1.8
								c2.2-0.9,4.7-1.6,7.1-1c-0.3-0.5-0.7-0.9-1-1.4c0-0.2,0,0.1-0.1,0.2c-0.1,0.2,0.2-0.2-0.1,0.1c-0.2,0.2-0.1,0.1,0,0.1
								c-0.1,0.1-0.2,0.2-0.3,0.3c-0.3,0.2-0.8,0.5-1.2,0.7c-0.9,0.4-2.1,0.7-3,1.2c-1.1,0.6-2.1,1.5-2.4,2.8
								c-0.4,1.3,0.1,2.6,1,3.6c0.9,0.9,2.1,1.3,3.2,1.7c1.3,0.4,2.6,0.8,3.9,1.2c2.7,0.8,5.4,1.4,8.1,2.2c2.9,0.9,5.8,2,8.5,3.5
								c-0.1-0.8-0.2-1.6-0.3-2.4c-1.4,1.1-3.6,1-5.3,0.6c-2.5-0.5-4.9-1.3-7.4-1.9c-5.3-1.4-10.6-2.8-15.9-4.4
								c-2.6-0.8-5.1-1.9-7.3-3.6c-0.7-0.5-1.6-0.7-2.3,0c-0.6,0.6-0.6,1.7,0,2.3c4.3,3.9,10.3,5,15.7,6.4c2.8,0.8,5.7,1.5,8.5,2.3
								c2.6,0.7,5.3,1.6,8,2c2.9,0.5,5.7,0.4,8.1-1.5c0.8-0.6,0.5-2-0.3-2.4c-4.7-2.7-10-4-15.2-5.4c-1.3-0.3-2.5-0.7-3.8-1
								c-1.1-0.3-2.4-0.7-3.4-1.1c-0.4-0.2-0.8-0.4-1.1-0.7c-0.1-0.1-0.1-0.1-0.1-0.3c-0.1-0.2,0-0.1,0-0.3c0-0.1,0-0.1,0.2-0.3
								c-0.1,0.1,0.1-0.1,0.1-0.1c0.1-0.1,0.2-0.2,0.3-0.3c0.3-0.2,0.8-0.5,1.2-0.7c1-0.4,2.2-0.8,3.2-1.4c1.2-0.8,1.9-1.8,2.1-3.3
								c0.1-0.6-0.5-1.2-1-1.4c-4.2-1.2-8,0.9-11.9,2.3c-0.6,0.2-1.5,0.5-1.9,0.3c-0.4-0.2-0.4-0.6-0.3-1c0.1-0.8,0.6-1.5,0.9-2.3
								c0.5-1,1-2,1.6-3c1.2-2.3,2.4-4.5,3.6-6.8c0.4-0.7,0.1-1.9-0.8-2c-2.1-0.4-4.1,0.3-5.9,1.4c-1.7,1.1-3.3,2.4-5.1,3.3
								c-0.2,0.1-0.9,0.2-0.6,0.4c-0.2-0.2-0.3-0.9-0.3-1.2c-0.2-1.1-0.2-2.3-0.2-3.4c0.1-2.4,0.5-4.9,0.7-7.3
								c0.2-2.7,0.1-5.4-0.9-7.9c-0.2-0.5-0.5-0.9-1.1-1c-0.5-0.1-1.1,0.2-1.4,0.7c-4.1,8.6-5.3,18.7-3.3,28.1
								c0.5,2.6,1.3,5.1,2.3,7.6c0.3,0.6,0.9,1.1,1.6,0.9C658.1,140.2,658.7,139.5,658.4,138.8L658.4,138.8z"/>
						</g>
					</g>
				</g>
				<g>
					<g>
						<g>
							<path class="st2" d="M516.7,192c5.8-13.2,8.1-27.5,11.5-41.4c3-12.4,7.3-24.4,13.2-35.7c5.8-11.1,12.9-21.4,21.1-30.8
								c8.3-9.4,17.7-17.7,28.1-24.8c10.7-7.3,22.2-13.9,31.1-23.6c1.1-1.2,2.1-2.4,3.1-3.7c0.7-0.9-0.8-2.1-1.6-1.2
								c-4.3,4.9-9.1,9.3-14.3,13.2c-5.2,4-10.7,7.5-16.2,11.2c-10.5,7.1-20.3,15.1-28.9,24.4c-8.5,9.1-15.9,19.3-21.9,30.1
								c-6.1,10.9-10.9,22.6-14.2,34.7c-3.8,13.9-5.7,28.2-10.5,41.8c-0.6,1.7-1.2,3.3-1.9,5C514.8,192.1,516.3,193,516.7,192
								L516.7,192z"/>
						</g>
					</g>
					<g>
						<g>
							<path class="st2" d="M516.6,191.9c12.4-3.2,24.1-8.5,34.9-15.4c10.8-6.9,20.6-15.3,29.2-24.8c8.9-9.8,16.3-20.8,22.5-32.5
								c6.7-12.7,11.9-26.1,15.5-40c3.6-13.9,5.7-28.2,6-42.5c0-1.8,0-3.5,0-5.3c0-1.3-2-1.3-2,0c0,14.2-1.6,28.2-4.8,42
								c-3.3,13.8-8.1,27.3-14.4,40c-5.9,11.9-13,23.1-21.5,33.2c-8.1,9.6-17.5,18.2-27.8,25.3c-10.3,7.2-21.5,12.9-33.4,17.1
								c-1.5,0.5-3,1-4.5,1.5C515.3,190.9,515.7,192.2,516.6,191.9L516.6,191.9z"/>
						</g>
					</g>
					<g>
						<g>
							<path class="st2" d="M516.4,189.8c4.1-4.4,6.9-9.8,9.2-15.2c2.6-5.9,5-11.9,7.5-17.8c5.2-12.3,10.4-24.6,16.8-36.3
								c6-10.9,13-21.3,20.7-31.1c7.7-9.8,16-19,24.7-28c8.6-8.9,17.6-17.6,26.6-26.2c1.1-1.1,2.2-2.1,3.3-3.2
								c0.7-0.7-0.4-1.7-1.1-1.1c-9,8.6-18,17.2-26.7,26.1c-8.7,8.8-17.1,18-24.9,27.6c-7.8,9.6-15,19.6-21.1,30.3
								c-6.7,11.5-12.1,23.6-17.2,35.8c-2.6,6.1-4.9,12.4-7.5,18.5c-2.3,5.6-4.7,11.3-8.2,16.2c-0.9,1.2-1.8,2.4-2.9,3.5
								C515.1,189.6,515.9,190.4,516.4,189.8L516.4,189.8z"/>
						</g>
					</g>
					<g>
						<g>
							<path class="st2" d="M518.2,190.9c8.8-6.5,15.4-15.3,21.3-24.4c3-4.6,5.9-9.3,9.1-13.9c3.7-5.4,7.4-10.8,11-16.2
								c7.3-10.8,14.5-21.6,21.6-32.6c7.1-10.9,14.1-21.9,21-32.9c6.9-11,13.7-22.1,20.4-33.3c0.8-1.4,1.7-2.8,2.5-4.2
								c0.5-0.8-0.7-1.5-1.2-0.7c-6.7,11.1-13.4,22.2-20.3,33.2c-6.9,11-13.8,22-20.8,32.9c-7,10.9-14.1,21.7-21.2,32.4
								c-6.8,10.2-13.9,20.3-20.5,30.6c-5.8,9.1-11.8,18.3-20.1,25.4c-1.1,0.9-2.2,1.8-3.4,2.7C517.1,190.3,517.6,191.3,518.2,190.9
								L518.2,190.9z"/>
						</g>
					</g>
					<g>
						<g>
							<path class="st2" d="M515.9,191.6c10.8-5.7,21.1-12.2,30.7-19.9c9.8-7.9,18.4-16.9,25.7-27.1c7.6-10.5,14.4-21.6,20.6-33
								c6.1-11.2,11.5-22.8,16.3-34.7c4.8-11.9,9-24,12.5-36.3c0.4-1.5,0.8-3,1.2-4.6c0.2-0.9-1.1-1.3-1.4-0.4
								c-1.8,6.1-3.4,12.3-5.4,18.3c-2,6.1-4.1,12-6.4,18c-4.6,11.9-10,23.5-16,34.8c-6,11.3-12.5,22.2-19.7,32.8
								c-3.7,5.4-7.7,10.7-12,15.6c-4,4.5-8.3,8.7-12.9,12.6c-9.2,7.9-19.4,14.7-30,20.7c-1.3,0.7-2.6,1.5-4,2.2
								C514.5,190.9,515.1,191.9,515.9,191.6L515.9,191.6z"/>
						</g>
					</g>
				</g>
				<g>
					<g>
						<g>
							<path class="st2" d="M549.8,187.2c8.7,8.8,18.8,16,29.8,21.7c11,5.7,22.9,9.7,35,12.4c12.6,2.8,25.6,4,38.5,4
								c14.6-0.1,29.2-1.7,43.5-4.5c14.4-2.7,28.6-6.6,42.6-11c1.8-0.6,3.5-1.3,5.2-1.9c1.2-0.4,0.7-2.2-0.5-1.9
								c-7,1.9-13.9,4.1-20.9,6.1c-7,1.9-14,3.7-21.1,5.2c-14.1,3-28.5,5-42.9,5.5c-13.1,0.4-26.3-0.4-39.2-2.8
								c-12.1-2.3-23.9-5.9-35.1-11c-11.1-5.1-21.6-11.6-30.7-19.7c-1.1-1-2.2-2-3.3-3.1C550.1,185.7,549.2,186.6,549.8,187.2
								L549.8,187.2z"/>
						</g>
					</g>
					<g>
						<g>
							<path class="st2" d="M551.5,186.5c12.8-3.1,25.8-5.5,38.9-7.6c12.9-2,26-3.4,39.1-3.7c13.1-0.3,26.2,0.6,39,3.1
								c12.5,2.4,24.6,6.4,36.4,11.2c11.8,4.8,23.2,10.4,34.7,16c1.4,0.7,2.8,1.4,4.2,2.1c1.5,0.7,2.8-1.5,1.3-2.2
								c-11.5-5.7-23-11.4-34.9-16.4c-11.8-5-23.9-9.2-36.4-12c-12.8-2.8-26-4-39.2-4c-13.2,0-26.4,1.3-39.5,3.3
								c-6.6,1-13.2,2.2-19.7,3.6c-6.5,1.4-12.9,3-19.3,4.5c-1.6,0.4-3.2,0.8-4.9,1.2C550.7,185.8,551,186.7,551.5,186.5
								L551.5,186.5z"/>
						</g>
					</g>
					<g>
						<g>
							<path class="st2" d="M550.7,187.9c11.2,6.9,23.4,11.8,36,15.5c12.8,3.8,26.1,6.4,39.3,8.2c14.2,1.9,28.5,2.9,42.8,3.3
								c12.1,0.4,24.2,0.8,36.3,0.1c10.8-0.6,22-1.9,32.1-6.1c1.1-0.5,2.1-1,3.2-1.6c1.2-0.7,0.1-2.4-1-1.8
								c-9.5,4.6-20.3,6.2-30.7,7c-11.6,0.9-23.2,0.7-34.8,0.4c-14.2-0.4-28.3-1.1-42.4-2.7c-13.3-1.6-26.6-3.9-39.5-7.3
								c-12.5-3.3-24.8-7.7-36.2-13.9c-1.4-0.8-2.8-1.6-4.2-2.4C550.6,186.1,549.8,187.4,550.7,187.9L550.7,187.9z"/>
						</g>
					</g>
					<g>
						<g>
							<path class="st2" d="M551.6,187.7c11.9,2.4,23.8,4.3,35.8,6.1c11.7,1.7,23.4,3.3,35.2,4.7c11.9,1.4,23.9,2.7,35.8,3.7
								c12.4,1.1,24.7,2.1,37.1,2.9c13.2,0.9,26.3,1.6,39.5,2.2c1.7,0.1,3.5,0.2,5.2,0.2c1.3,0,1.3-1.9,0-2
								c-6.7-0.5-13.5-0.7-20.2-1c-6.5-0.3-13-0.7-19.5-1.1c-12.5-0.8-24.9-1.6-37.4-2.7c-11.9-1-23.8-2.1-35.7-3.5
								c-11.8-1.3-23.6-2.8-35.4-4.4c-11.9-1.7-23.7-3.7-35.6-5.4c-1.5-0.2-3.1-0.4-4.6-0.7C551.2,186.8,551,187.6,551.6,187.7
								L551.6,187.7z"/>
						</g>
					</g>
					<g>
						<g>
							<path class="st2" d="M551,187.6c13.2-1.4,26.4-2.5,39.6-2.9c13.1-0.4,26.2-0.3,39.3,0.6c13.1,0.9,26.1,2.5,38.9,4.8
								c13,2.4,25.8,5.6,38.4,9.6c10,3.2,20.3,4.9,30.6,6.7c1.1,0.2,2.2,0.4,3.3,0.6c1.2,0.2,1.7-1.5,0.5-1.8
								c-10-2.5-20.3-3.6-30.1-6.5c-6.1-1.8-12.2-3.8-18.3-5.4c-6.4-1.7-12.8-3.1-19.3-4.4c-12.9-2.5-25.9-4.3-38.9-5.2
								c-13.1-1-26.3-1.2-39.4-0.9c-13.3,0.4-26.7,1.4-39.9,3.1c-1.6,0.2-3.1,0.4-4.7,0.6C550.2,186.6,550.4,187.6,551,187.6
								L551,187.6z"/>
						</g>
					</g>
				</g>
				<g>
					<path class="st1" d="M367.9,163c12.4,3.7,24.8,7.6,37.3,11.1c12.5,3.5,25,6.8,37.7,9.2c6.3,1.2,12.7,2,19.1,2.7
						c6.4,0.7,12.8,1.1,19.3,1.4c12.9,0.5,25.8,0.2,38.7-0.6c12.7-0.8,25.3-3.4,37.6-6.9c6.2-1.7,12.3-3.6,18.5-5.6
						c6.2-2,12.3-3.9,18.4-6c6.1-2.1,12.1-4.3,18.1-6.6c6-2.3,11.9-4.9,17.6-7.7c11.5-5.6,22.6-12.3,32.3-20.9l0.4,0.4
						c-8.6,9.8-19.4,17.7-30.8,24.1c-11.4,6.5-23.5,11.7-35.7,16.3c-12.3,4.5-24.6,8.5-37.3,11.8c-6.4,1.6-12.8,3-19.3,4
						c-6.5,1.1-13.1,1.8-19.7,2c-13,0.4-26.1,0.4-39.1-0.5c-6.5-0.4-13-1.1-19.5-1.9c-6.5-0.8-12.9-1.9-19.3-3.2
						c-12.8-2.7-25.3-6.3-37.6-10.2c-12.4-3.9-24.7-8.1-37-12.2L367.9,163z"/>
				</g>
			</g>
		</g>
	</g>
</g>
</svg>
