<?xml version="1.0" encoding="utf-8"?>
<!-- Generator: Adobe Illustrator 24.0.0, SVG Export Plug-In . SVG Version: 6.00 Build 0)  -->
<svg version="1.1" xmlns="http://www.w3.org/2000/svg" xmlns:xlink="http://www.w3.org/1999/xlink" x="0px" y="0px"
	 viewBox="0 0 798.4 226.7" style="enable-background:new 0 0 798.4 226.7;" xml:space="preserve">
<style type="text/css">
	.st0{fill:#FFFFFF;}
	.st1{fill:#A57127;}
	.st2{fill:#DC9C2E;}
	.st3{fill:none;}
	.st4{fill:#E6E6E6;}
</style>
<g id="BACKGROUND">
</g>
<g id="OBJECTS">
	<g>
		<g>
			<path class="st1" d="M469.8,104.3c-4.8-3.7-9.9-6.9-15.3-9.6c-5.7-2.8-11.7-5-17.8-6.5c-3-0.8-6-1.4-9-2
				c-3.2-0.7-6.5-1.2-9.8-1.7c-6.4-1-12.8-1.6-19.2-2.1c-5.7-0.4-11.5-0.6-17.2-0.6c-7.9,0-15.7,0.4-23.6,1.1
				c-8.6,0.8-17.1,1.9-25.6,3.3c-3.8-0.6-7.6-1.4-11.2-2.5c0,0,0,0,0,0c0,0-0.1,0-0.1,0c-0.1,0-0.2-0.1-0.3-0.1c0,0,0.1,0,0.1,0
				c-2.5-0.8-5-1.8-7.5-2.8c-0.2-0.3-0.3-0.6-0.5-0.9c0,0,0,0,0,0c-0.9-1.8-1.6-3.8-2.2-5.8c-0.6-2.2-1.2-4.4-1.7-6.7
				c-0.8-3.6-1.6-7.2-2.4-10.8c-0.9-3.6-1.9-7.2-3-10.8c-1.1-3.4-2.2-6.8-3.7-10c-1.3-3-2.9-5.9-4.9-8.4c-1.8-2.3-4-4.2-6.6-5.6
				c-2.1-1-4.4-1.5-6.7-1.5c-0.6,0-1.2,0-1.8,0.1c-0.8,0.1-1.5,0.2-2.3,0.4c-0.4,0.1-0.9,0.2-1.3,0.3c-0.4,0.1-0.7,0.3-1,0.4
				c-1.3,0.7-2.2,1.8-2.9,3c-0.9,1.4-1.6,3-2.1,4.6c-0.7,1.9-1.2,3.9-1.6,6c-0.9,4.2-1.4,8.4-1.7,12.6c-0.1,1.8-0.2,3.5-0.1,5.3
				c0,1.6,0.2,3.2,0.6,4.7c0.4,2,1.1,4,2.1,5.8c0.9,1.7,2,3.3,3.3,4.8c2.7,2.9,6,5.2,9.5,6.9c2.7,1.3,5.5,2.3,8.4,3.2
				c3.1,0.9,6.2,1.6,9.3,2.3c3.5,0.7,7,1.3,10.5,1.9c0.5,0.3,1,0.5,1.6,0.8c2.5,1.1,5.1,2,7.8,2.7c1.8,0.5,3.7,0.8,5.6,1.1
				c-2.4,0.4-4.7,0.8-7.1,1.3c-15.7,2.9-31.4,6.3-47,9.4c-4-0.5-7.9-1.2-11.9-1.9c-3.4-0.7-6.7-1.4-10-2.2
				c-3.4-0.8-6.8-1.7-10.2-2.8c0,0,0.1,0,0.1,0c-0.4-0.1-0.8-0.3-1.3-0.4c-1-2.2-2-4.4-3-6.7c-1.4-3.2-2.6-6.3-3.9-9.5
				c-1.1-2.9-2.2-5.9-3.3-8.8c-1-2.5-2.1-5-3.2-7.5c-2.2-4.8-4.7-9.5-7.6-13.9c-2.9-4.3-6.4-8.3-10.3-11.7
				c-3.8-3.3-8.2-6.1-12.8-8.3c-1.7-0.8-3.5-1.6-5.3-2.2c-2.3-0.8-4.7-1.5-7.1-2c-1.5-0.3-3.1-0.5-4.7-0.5c-0.7,0-1.4,0-2.1,0.1
				c-2.1,0.2-4.3,1-5.9,2.4c-0.5,0.4-0.9,0.9-1.4,1.4c-0.4,0.6-0.8,1.2-1.1,1.8c-0.3,0.6-0.5,1.3-0.6,1.9c-0.1,0.6-0.2,1.3-0.2,1.9
				c0,1.3,0.3,2.6,0.6,3.8c0.3,1.3,0.7,2.6,1,3.9c0.2,1,0.3,1.9,0.4,2.9c0.1,1.1,0.1,2.2,0.2,3.3c0.1,2,0,3.9,0,5.9c0,0,0-0.1,0-0.1
				c-0.2,4.1-0.5,8.2-0.2,12.2c0.1,1.9,0.4,3.8,0.9,5.7c0.5,1.9,1.3,3.7,2.4,5.4c1.2,1.9,2.7,3.6,4.3,5.2c2,2,4.4,3.6,6.7,5.1
				c2.8,1.8,5.8,3.2,8.9,4.4c2.9,1.1,5.9,1.9,9,2.5c4,0.8,8.1,1.1,12.2,1.4c4.2,0.2,8.3,0.3,12.5,0.5c0,0,0,0,0,0
				c3.1,0.1,6.3,0.3,9.4,0.7c2.6,1,5.2,1.9,7.9,2.8c4.1,1.3,8.4,2.4,12.6,3.2c3.8,0.7,7.7,1.1,11.5,1.3c-7.9,1.5-15.8,2.9-23.7,4.1
				c-4.3,0.7-8.6,1.3-12.9,1.7c-4.1,0.4-8.2,0.7-12.3,0.9c-8.2,0.4-16.5,0.3-24.7,0.1c-1.4,0-2.8-0.1-4.1-0.2
				c-1.4-0.7-2.7-1.4-4.1-2.1c-3-1.6-5.9-3.4-8.8-5.2c-2.9-1.8-5.8-3.7-8.7-5.6c-2.8-1.9-5.7-3.7-8.5-5.6c0.1,0.1,0.2,0.2,0.4,0.2
				c-3-2-5.9-4-8.9-5.9c-0.2-0.1-0.3-0.2-0.5-0.3c-8.8-5.8-17.8-11.4-27.7-15.2c-4.9-1.9-10-3.3-15.3-4c-2.8-0.4-5.5-0.6-8.3-0.6
				c-0.5,0-0.9,0-1.4,0c-2.5,0-5,0.1-7.4,0.3c-5.4,0.4-10.7,1.4-15.9,2.8c-4.8,1.4-9.4,3.3-13.8,5.6c-8.9,4.7-16.6,11.3-23.7,18.4
				c-1.8,1.8-3.6,3.7-5.4,5.6c-0.9,1-1.8,2-2.7,3c-0.6,0.6-1.2,1.3-1.8,1.8c-2.9,2.5-6.2,4.4-9.5,6.3c-3.5,2-7,4-10.3,6.4
				c-1.4,1.1-2.8,2.2-4,3.6c-0.5,0.6-1,1.3-1.4,1.9c-0.5,0.7-0.7,1.4-1,2.2c-0.5,1.5-0.4,3.1,0,4.6c0.2,0.8,0.6,1.6,1,2.3
				c0.5,0.9,1.2,1.8,1.9,2.6c3.2,3.5,7,6.4,11,8.9c4.2,2.6,8.7,4.6,13.4,6.2c4.9,1.7,10,2.9,15.1,3.8c5.2,0.9,10.4,1.3,15.7,1.4
				c9.8,0.2,19.8-0.9,29.3-3.3c10.2-2.6,19.6-7.6,28.7-12.7c9.3-5.3,18.5-11,28.2-15.8c0,0,0,0,0,0c0,0,0.1,0,0.2-0.1c0,0,0,0,0,0
				c7.7-3.8,15.8-7.2,24.3-8.8c0,0,0,0,0,0c1.6-0.3,3.2-0.5,4.8-0.7c8.9,0.7,17.7,1.3,26.6,1.5c11.5,0.3,23.1,0,34.6-1.4
				c11.4-1.4,22.8-3.3,34.1-5.4c-1.6,0.6-3.2,1.3-4.8,2c-10.5,4.6-20.5,10.2-30.3,16.2c-2.3,1.4-4.5,2.8-6.8,4.2
				c-2.2,0.2-4.3,0.3-6.5,0.3c-3.6,0.1-7.1,0.1-10.7,0c-6.9-0.2-13.9-0.5-20.8-0.5c-3.4,0-6.7,0.1-10.1,0.5c-3.4,0.4-6.8,1-10.1,1.9
				c-3.1,0.8-6.2,2-9.2,3.3c-2.7,1.2-5.3,2.5-7.8,4c-4.6,2.8-8.9,6.1-13,9.7c-2.1,1.9-4.1,3.8-6.1,5.8c-1.5,1.5-2.9,3-4.5,4.4
				c-3,2.6-6,5.1-8.9,7.8c-3.1,2.8-6.3,5.8-8.7,9.3c-0.5,0.7-1,1.5-1.4,2.3c-0.4,0.8-0.7,1.6-1,2.5c-0.5,1.5-0.5,3.2,0,4.7
				c0.5,1.8,1.9,3.2,3.3,4.4c0.8,0.7,1.7,1.2,2.6,1.8c1,0.6,2.1,1.1,3.2,1.5c4.5,1.9,9.4,2.9,14.2,3.8c2.1,0.4,4.1,0.7,6.2,1.1
				c1.3,0.2,2.5,0.5,3.8,0.7c1.8,0.3,3.6,0.6,5.4,0.7c3.4,0.3,6.9,0.4,10.3,0.2c3.4-0.2,6.8-0.8,10.1-1.5c6.1-1.3,12.1-3.5,17.5-6.7
				c4.4-2.5,8.3-5.7,11.8-9.3c3.6-3.7,6.6-7.9,9.2-12.4c1.3-2.2,2.4-4.5,3.5-6.8c1.2-2.6,2.2-5.2,3.3-7.7c2.2-5.1,4.4-10.2,7.5-14.9
				c1.8-2.7,3.8-5.2,6.2-7.4c8.6-5.2,17.3-10.3,26.2-14.8c0,0,0,0,0,0c0,0,0,0,0,0c0,0,0,0,0,0c0,0,0,0,0.1,0c0,0,0,0,0,0
				c0.1,0,0.2-0.1,0.3-0.1c-0.1,0-0.2,0.1-0.3,0.1c3.5-1.7,7.1-3.4,10.7-5c3.7-1.6,7.4-3.1,11.1-4.6c3.7-1.5,7.5-2.9,11.3-4.1
				c2.1-0.7,4.3-1.4,6.5-2c14.2-2.8,28.5-5.5,42.9-7.5c1.5-0.2,2.9-0.4,4.4-0.6c-0.5,0.2-1,0.3-1.5,0.4c-3.2,1.1-6.4,2.4-9.5,3.8
				c-3.1,1.4-6.1,3.1-9.1,4.7c-2.9,1.6-5.8,3.4-8.6,5.1c-1.3,0.8-2.6,1.6-3.8,2.4c-1.2,0.8-2.4,1.6-3.6,2.5
				c-2.2,1.6-4.4,3.4-6.4,5.3c-0.3,0.3-0.6,0.5-0.8,0.8c-2.1,0.7-4.2,1.4-6.3,2.2c-3.2,1.2-6.3,2.5-9.5,3.8
				c-6.3,2.6-12.6,5.2-19.1,7.3c-1.3,0.4-2.6,1-3.9,1.5c-1.8,0.8-3.5,1.6-5.2,2.4c-4,2-7.9,4.3-11.5,6.9c-1.7,1.3-3.3,2.6-4.8,4.2
				c-1.3,1.3-2.5,2.8-3.3,4.4c-0.4,0.7-0.7,1.4-0.9,2.2c-0.2,0.8-0.3,1.6-0.4,2.4c0,1.4,0.4,2.6,1.3,3.7c0.9,1.2,2.2,2.1,3.4,2.8
				c1.6,0.9,3.3,1.5,4.9,2.1c1.9,0.6,3.9,1.1,5.8,1.4c2,0.4,4,0.7,6.1,0.9c1.8,0.2,3.7,0.3,5.5,0.4c1.5,0,2.9,0,4.3-0.1
				c1.8-0.2,3.7-0.7,5.4-1.4c2.5-0.9,4.8-2.3,6.9-3.9c4.3-3.3,7.7-7.6,10.5-12.2c1.4-2.3,2.6-4.7,3.7-7.2c1-2.3,1.8-4.7,2.5-7.1
				c0.6-1.8,1.1-3.6,1.7-5.4l0-0.1c0,0,0,0,0,0c0,0,0,0,0,0c1-3,2.3-6,4-8.7c0,0,0,0,0,0c0.6-0.9,1.2-1.7,1.9-2.4
				c0.4-0.3,0.8-0.7,1.2-1c2.3-1.8,4.6-3.5,7.1-5c1.3-0.8,2.7-1.6,4.1-2.4c1.5-0.9,3-1.7,4.5-2.6c3.1-1.7,6.2-3.4,9.4-5
				c0,0,0,0-0.1,0c0,0,0,0,0.1,0c0.1-0.1,0.2-0.1,0.3-0.2c0,0-0.1,0-0.1,0c5.1-2.5,10.2-4.9,15.4-7.1c3-1.2,6-2.3,9.1-3.3
				c5-0.5,10-0.9,15.1-1.2c10.6-0.6,21.2-0.5,31.7,0.2c11.4,0.9,22.7,2.5,33.9,5.1c2.7,0.6,5.5,1.3,8.2,2c2.7,0.7,5.4,1.4,8.1,2.1
				c5.4,1.5,10.9,3.1,16.2,4.9C465.2,102.5,467.5,103.4,469.8,104.3C469.8,104.3,469.9,104.3,469.8,104.3z M305.3,81.1
				c-4.4-1-8.8-2-13.1-3.3c0,0,0,0,0,0c0,0,0,0,0,0c0,0-0.1,0-0.1,0c0,0,0,0,0.1,0c0,0,0,0-0.1,0c-4.4-1.4-8.7-3.1-12.6-5.6
				c0,0,0,0,0,0l0,0c0,0,0,0,0,0c0,0,0,0,0,0c0,0,0,0,0,0c-2-1.3-3.8-2.8-5.4-4.5c-1.3-1.4-2.3-2.9-3.2-4.6
				c-0.8-1.6-1.4-3.2-1.8-4.9c-0.3-1.3-0.5-2.5-0.5-3.8c-0.1-1.1,0-2.3,0-3.4c0,0,0,0,0,0c0,0,0,0,0,0c0,0,0,0,0-0.1c0,0,0,0,0,0
				c0.1-3,0.4-5.9,0.9-8.9c0.5-3.2,1.2-6.3,2.1-9.3l0,0.1c0-0.1,0-0.1,0.1-0.2c0,0,0-0.1,0-0.1c0,0,0,0,0,0c0.7-2.2,1.5-4.3,2.7-6.3
				c0.4-0.6,0.9-1.2,1.4-1.7c0.3-0.2,0.5-0.4,0.8-0.6c0.2-0.1,0.4-0.2,0.7-0.2c1.4-0.3,2.8-0.5,4.2-0.4c1.2,0.1,2.3,0.2,3.5,0.6
				c1,0.3,1.9,0.8,2.8,1.3c1,0.7,1.9,1.5,2.7,2.4c1.4,1.6,2.5,3.3,3.4,5.1l0-0.1c0,0,0,0.1,0.1,0.1l0.2,0.3c0-0.1-0.1-0.1-0.1-0.2
				c3.1,6.2,4.9,12.9,6.6,19.6c1.8,6.9,3.7,13.8,6.8,20.3c1,2.2,2.2,4.3,3.6,6.2c0.3,0.4,0.7,0.9,1.1,1.3c-0.1,0-0.1,0-0.2-0.1
				c-3-1.3-5.9-2.9-8.7-4.7c-5.2-3.3-10-7.3-14.1-11.8l0,0c-3.5-3.9-6.5-8.2-8.9-12.9c-0.3-0.6-0.6-1.2-0.9-1.8c0,0,0,0,0,0
				c0,0,0,0,0,0c2,5,4.7,9.6,7.9,14c3.2,4.4,6.9,8.4,11.1,11.9c2.1,1.7,4.4,3.3,6.7,4.8c1.3,0.8,2.7,1.6,4.1,2.3
				C307.9,81.7,306.6,81.4,305.3,81.1z M220.5,89.5c-4.3-0.3-8.7-0.5-13-1c-4.5-0.5-8.9-1.3-13.2-2.6c-3.9-1.3-7.7-3-11.1-5.2
				c0,0,0.1,0,0.1,0.1c-2.8-1.9-5.5-3.9-7.8-6.5c-1.2-1.3-2.2-2.7-3-4.3c0,0,0,0.1,0.1,0.1c0-0.1-0.1-0.1-0.1-0.2c0,0,0-0.1-0.1-0.1
				c0,0,0,0,0,0.1c-0.7-1.4-1.2-2.9-1.6-4.4c-0.6-2.7-0.6-5.4-0.6-8.1c0.2-3.8,0.5-7.5,0.7-11.2c0.1-2.2,0.1-4.3,0-6.5
				c-0.1-1.2-0.2-2.4-0.4-3.6c-0.2-1.2-0.6-2.4-0.8-3.6c0,0,0,0.1,0,0.1c0,0,0-0.1,0-0.1c0-0.1,0-0.2-0.1-0.3c0,0.1,0,0.1,0,0.2
				c-0.2-1.1-0.4-2.3-0.4-3.5c0-0.5,0.1-0.9,0.2-1.4c0.2-0.5,0.4-0.9,0.6-1.3c0.3-0.5,0.7-0.9,1.2-1.3c0.4-0.3,0.8-0.6,1.2-0.8
				c0.6-0.3,1.2-0.5,1.8-0.6c1.1-0.2,2.2-0.3,3.4-0.3c2.7,0.1,5.3,0.7,7.9,1.5c4.7,1.5,9.1,3.6,13.3,6.2c-0.1,0-0.1-0.1-0.2-0.1
				c0.1,0,0.1,0.1,0.2,0.1c0,0,0.1,0,0.1,0.1c0,0,0,0,0,0c0,0,0,0,0.1,0c3.9,2.5,7.4,5.5,10.5,9c4.1,4.6,7.4,9.8,10.2,15.3
				c1.4,2.7,2.6,5.5,3.9,8.2c1.4,3.1,2.8,6.2,4.1,9.3c1.6,3.6,3.3,7.2,5.2,10.7c0.9,1.7,1.9,3.3,2.9,4.9c0.4,0.7,0.9,1.3,1.4,2
				c-4.8-1.6-9.5-3.4-14.1-5.6c-5.4-2.5-10.6-5.3-15.6-8.5c0.1,0,0.1,0.1,0.2,0.1c-7.8-5-15.1-10.8-21.4-17.6l0.1,0.1
				c-2.1-2.3-4-4.7-5.8-7.3c0,0,0,0,0,0c0,0,0,0,0,0c5.4,8.7,12.7,16.2,20.8,22.4c4.3,3.3,8.9,6.2,13.6,8.9c2.4,1.4,4.8,2.7,7.3,3.9
				c2.5,1.2,5,2.3,7.6,3.4c0.3,0.1,0.6,0.2,0.9,0.3C227.2,90,223.9,89.7,220.5,89.5z M149.6,112.8c-5.4,2.2-10.7,4.8-15.9,7.6
				c-5.3,2.8-10.5,5.7-15.8,8.6c-3.8,2.1-7.6,4.1-11.4,6c-4.2,2.1-8.4,4-12.7,5.6c-3.7,1.3-7.5,2.4-11.3,3.1
				c-9.4,1.8-19,2.2-28.5,1.5c0,0,0.1,0,0.1,0c-0.1,0-0.2,0-0.3,0c0,0-0.1,0-0.1,0l0.1,0c-8.6-0.7-17.2-2.3-25.4-5
				c-5.3-1.8-10.3-4.2-15-7.2c-1.6-1.1-3.1-2.2-4.6-3.4c-1.4-1.2-2.8-2.4-4-3.7c-0.6-0.7-1.1-1.3-1.5-2.1c-0.2-0.5-0.4-0.9-0.5-1.4
				c-0.1-0.4-0.1-0.8-0.1-1.2c0-0.4,0.1-0.8,0.2-1.2c0.2-0.6,0.5-1.1,0.8-1.7c0.7-1,1.5-1.8,2.4-2.6c2.6-2.2,5.5-4,8.4-5.8
				c3.2-1.9,6.5-3.7,9.7-5.8c1.4-1,2.8-2,4.1-3.2c0.6-0.5,1.1-1.1,1.7-1.7c0.9-1,1.8-2,2.7-3c3.4-3.6,6.8-7,10.5-10.3
				c3-2.6,6-5.1,9.3-7.4c3.1-2.2,6.5-4.2,9.9-5.9c5.6-2.7,11.4-4.7,17.5-5.9c3.4-0.6,6.9-1.1,10.3-1.3c3.7-0.2,7.5-0.3,11.2-0.1
				c5.2,0.4,10.4,1.5,15.4,3.2c9.6,3.3,18.3,8.5,26.7,14.1c3.9,2.6,7.7,5.2,11.5,7.8c4,2.7,8,5.4,12.2,7.8c4,2.3,8.2,4.3,12.5,5.9
				c1.3,0.5,2.6,0.9,4,1.4c-5.5-0.3-11.1-0.6-16.6-1l0.3,0c-24.3-1.8-48.6-4.1-72.9-3.7c-11.6,0.2-23.3,1.2-34.7,3.4
				c-5.7,1.1-11.3,2.6-16.7,4.4c-5.3,1.8-10.4,3.9-15.4,6.4c-1.2,0.6-2.5,1.3-3.7,2c0,0,0,0.1,0,0.1c5.4-2.6,11-4.9,16.7-6.7
				c5.7-1.8,11.4-3.3,17.3-4.4c0,0,0.1,0,0.1,0c0,0,0,0,0.1,0c0,0,0,0,0,0c22.8-4.4,46.2-3.8,69.3-2.2c-0.1,0-0.2,0-0.3,0
				c12.3,0.9,24.5,2.1,36.8,3.2c2.1,0.2,4.2,0.4,6.2,0.5C163.1,108.1,156.2,110.1,149.6,112.8z M220.3,133.4
				c-2.6,3.2-4.8,6.9-6.7,10.6c-2,3.9-3.7,7.9-5.5,11.8c-1.7,3.7-3.6,7.3-5.8,10.7c-2.9,4.3-6.2,8.3-10.1,11.8
				c-1.6,1.5-3.4,2.8-5.2,4.1c-1.9,1.3-4,2.5-6.1,3.6c-4.7,2.3-9.7,4-14.9,5c0,0,0.1,0,0.1,0c-0.1,0-0.2,0-0.3,0.1l-0.1,0
				c0,0,0,0,0,0c-5.3,1-10.8,1.3-16.2,1c-3.3-0.3-6.6-0.7-9.9-1.4c-2-0.4-4.1-0.8-6.1-1.2c-4.5-0.8-9-1.7-13.4-3.1
				c-2.2-0.8-4.4-1.6-6.4-2.9c-0.9-0.6-1.7-1.2-2.4-2c-0.3-0.4-0.6-0.8-0.8-1.2c-0.1-0.3-0.2-0.6-0.3-0.9c-0.1-0.4-0.1-0.9-0.1-1.3
				c0.1-0.6,0.2-1.1,0.4-1.7c0.4-1.2,1-2.3,1.7-3.3c2.3-3.4,5.3-6.3,8.4-9.1c2.8-2.5,5.7-4.8,8.5-7.3c0.6-0.5,1.2-1,1.7-1.5
				c0.8-0.8,1.6-1.6,2.4-2.3c1.9-1.9,3.9-3.8,6-5.7c2.7-2.4,5.4-4.6,8.3-6.7c3-2.2,6.3-4.1,9.6-5.8c5-2.4,10.2-4.4,15.6-5.5
				c4.5-0.9,9.2-1.2,13.8-1.3c2.6,0,5.2,0,7.7,0c2.2,0,4.4,0.1,6.6,0.1c2.4,0,4.8-0.1,7.2-0.2c2.6-0.1,5.1-0.2,7.7-0.5
				c2.6-0.2,5.1-0.6,7.6-1c0.4-0.1,0.9-0.2,1.3-0.3c-2,1.3-4,2.6-6.1,3.9c-4.8,3.1-9.6,6.3-14.5,9.4c-9.6,6.2-19.3,12.2-29.4,17.7
				c-2.2,1.2-4.4,2.3-6.6,3.5c-12.1,6-24.7,10.9-37.9,13.8c0,0,0,0.1,0,0.1c5.6-0.9,11-2.2,16.4-3.8c5.4-1.6,10.7-3.6,15.9-5.9
				c5.2-2.2,10.2-4.7,15.2-7.3c2.5-1.3,5-2.7,7.5-4.1c2.5-1.4,5-2.9,7.4-4.3c4.9-2.9,9.8-6,14.7-9c2.4-1.5,4.9-3,7.3-4.6
				c2.4-1.5,4.9-3.1,7.3-4.6c0.7-0.4,1.4-0.8,2-1.2C222.8,130.5,221.5,131.9,220.3,133.4z M295.2,119c-1.8,2.9-3,6.1-4.1,9.2
				c-1.1,3.1-2.1,6.3-3.5,9.3c-1.4,3.1-3,6.1-4.8,9c0,0,0,0,0,0c0,0,0,0,0,0c0,0-0.1,0.1-0.1,0.1c0,0,0,0,0,0
				c-2,3.1-4.4,5.9-7.1,8.4c0,0,0,0,0,0c-1.9,1.7-4.1,3.2-6.4,4.4c-1.9,0.9-3.8,1.6-5.9,2c-1,0.2-2.1,0.2-3.1,0.3
				c-1.5,0-3.1,0-4.6-0.1c0,0,0,0,0.1,0c-2.6-0.2-5.2-0.5-7.8-1c-2.6-0.5-5.2-1.1-7.7-1.9c-1.7-0.6-3.3-1.3-4.8-2.3
				c-0.6-0.4-1.1-0.8-1.6-1.4c-0.3-0.4-0.6-0.8-0.9-1.2c-0.1-0.3-0.2-0.6-0.3-0.8c-0.1-0.4-0.1-0.9-0.1-1.3c0-0.6,0.2-1.3,0.4-1.9
				c0.3-0.9,0.7-1.7,1.2-2.4c1.1-1.6,2.4-3,3.8-4.3c4.2-3.7,9.1-6.6,14-9.1c0,0-0.1,0-0.1,0.1c2.4-1.2,4.9-2.3,7.5-3.3
				c1.2-0.5,2.5-0.8,3.7-1.3c2.5-0.8,5-1.7,7.5-2.7c4.8-1.9,9.5-4.2,14.2-6.4c2.4-1.1,4.7-2.3,7.1-3.4c0.9-0.4,1.8-0.9,2.7-1.3
				c-1.4,1.3-2.9,2.6-4.2,4c-5.6,5.5-11,11.3-16.9,16.6c0,0,0,0,0.1,0c-2.5,2.2-5.1,4.3-7.7,6.2c-2.7,2-5.6,3.7-8.6,5.2c0,0,0,0,0,0
				c-0.9,0.5-1.9,0.9-2.8,1.3c0,0,0,0.1,0,0.1c3.8-1.4,7.5-3.2,10.9-5.4c3.6-2.2,6.9-4.8,10.1-7.5c6.3-5.4,12.1-11.4,18.3-16.9
				c0,0,0,0-0.1,0.1c1.2-1,2.4-2,3.6-3C296.4,117.1,295.8,118,295.2,119z"/>
			<path class="st1" d="M58.1,105.9C58,105.9,58,105.9,58.1,105.9c-0.1,0-0.1,0-0.2,0C58,105.9,58,105.9,58.1,105.9z"/>
			<path class="st1" d="M143.7,117.2l0.2-0.1C143.9,117.1,143.8,117.1,143.7,117.2C143.8,117.2,143.8,117.2,143.7,117.2z"/>
			<path class="st1" d="M53.8,145.2l0.2,0C53.9,145.2,53.8,145.2,53.8,145.2C53.7,145.2,53.8,145.2,53.8,145.2z"/>
			<path class="st1" d="M252,113.5C252,113.5,252,113.5,252,113.5C252,113.5,252,113.5,252,113.5C252.1,113.5,252.1,113.5,252,113.5
				C252,113.5,252,113.5,252,113.5z"/>
			<path class="st1" d="M321.2,83.6c-0.1,0-0.1,0-0.2-0.1C321,83.5,321,83.5,321.2,83.6C321.1,83.5,321.1,83.6,321.2,83.6z"/>
			<path class="st1" d="M292.2,77.7C292.2,77.7,292.2,77.7,292.2,77.7C292.2,77.7,292.2,77.7,292.2,77.7
				C292.2,77.7,292.2,77.7,292.2,77.7z"/>
			<path class="st1" d="M268.6,50.9C268.6,50.9,268.6,50.9,268.6,50.9C268.6,50.9,268.6,50.8,268.6,50.9
				C268.6,50.8,268.6,50.8,268.6,50.9z"/>
			<path class="st1" d="M294,32.7C294,32.6,294,32.6,294,32.7c0,0,0,0.1,0.1,0.1C294,32.7,294,32.7,294,32.7z"/>
			<path class="st1" d="M271.7,32.5c0,0,0,0.1,0,0.1C271.7,32.6,271.7,32.5,271.7,32.5C271.7,32.5,271.7,32.5,271.7,32.5z"/>
			<path class="st1" d="M169.7,32.4C169.7,32.4,169.7,32.4,169.7,32.4C169.7,32.4,169.7,32.3,169.7,32.4
				C169.7,32.3,169.7,32.4,169.7,32.4z"/>
			<path class="st1" d="M198.8,30.8C198.8,30.8,198.8,30.8,198.8,30.8C198.8,30.8,198.9,30.8,198.8,30.8
				C198.9,30.8,198.8,30.8,198.8,30.8z"/>
			<path class="st1" d="M172.5,70C172.5,70,172.5,70,172.5,70C172.5,70,172.5,70,172.5,70C172.5,70,172.5,70,172.5,70z"/>
			<path class="st1" d="M165.9,190.9c0.1,0,0.1,0,0.2,0C166,190.9,165.9,190.9,165.9,190.9C165.8,190.9,165.9,190.9,165.9,190.9z"/>
			<path class="st1" d="M282.8,146.5C282.8,146.5,282.8,146.5,282.8,146.5C282.8,146.5,282.7,146.5,282.8,146.5
				C282.7,146.5,282.8,146.5,282.8,146.5z"/>
			<path class="st1" d="M292.7,126.1L292.7,126.1C292.7,126.1,292.7,126.1,292.7,126.1L292.7,126.1z"/>
			<path class="st1" d="M196.4,160.6c-1.2,0-2.2,1.3-2.1,2.5c0.1,0.6,0.4,1.2,0.8,1.6c0.5,0.4,1,0.5,1.6,0.5c1.2,0,2.2-1.3,2.1-2.5
				c-0.1-0.6-0.4-1.2-0.8-1.6C197.5,160.7,197,160.6,196.4,160.6z"/>
			<path class="st1" d="M189.4,172c-1,0-1.8,1.1-1.7,2c0,0.5,0.3,1,0.7,1.3c0.4,0.3,0.8,0.4,1.3,0.4c1,0,1.8-1.1,1.7-2
				c0-0.5-0.3-1-0.7-1.3C190.4,172.1,189.9,172,189.4,172z"/>
			<path class="st1" d="M188.3,168.2c0-0.3-0.2-0.5-0.4-0.7c-0.2-0.2-0.4-0.2-0.7-0.2c-0.5,0-0.9,0.6-0.9,1c0,0.3,0.1,0.5,0.4,0.7
				c0.2,0.2,0.4,0.2,0.7,0.2C187.9,169.2,188.3,168.7,188.3,168.2z"/>
			<path class="st1" d="M176.3,175.9c-0.7,0-1.3,0.8-1.2,1.4c0,0.4,0.2,0.7,0.5,0.9c0.3,0.2,0.6,0.3,1,0.3c0.7,0,1.3-0.8,1.2-1.4
				c0-0.4-0.2-0.7-0.5-0.9C177,176,176.7,175.9,176.3,175.9z"/>
			<path class="st1" d="M160.5,183.1c-0.7,0-1.3,0.8-1.2,1.4c0,0.4,0.2,0.7,0.5,0.9c0.3,0.2,0.6,0.3,1,0.3c0.7,0,1.3-0.8,1.2-1.4
				c0-0.4-0.2-0.7-0.5-0.9C161.1,183.2,160.8,183.1,160.5,183.1z"/>
			<path class="st1" d="M155,176c-0.8,0-1.5,0.9-1.4,1.7c0,0.4,0.2,0.8,0.6,1.1c0.3,0.3,0.7,0.3,1.1,0.3c0.8,0,1.5-0.9,1.4-1.7
				c0-0.4-0.2-0.8-0.6-1.1C155.8,176.1,155.4,176,155,176z"/>
			<path class="st1" d="M167.3,178.5c-0.5,0-0.9,0.5-0.8,1c0,0.2,0.1,0.5,0.3,0.6c0.2,0.2,0.4,0.2,0.6,0.2c0.5,0,0.9-0.5,0.8-1
				c0-0.2-0.1-0.5-0.3-0.6C167.7,178.5,167.5,178.5,167.3,178.5z"/>
			<path class="st1" d="M145.4,183.8c-0.7,0-1.2,0.7-1.2,1.4c0,0.3,0.2,0.7,0.5,0.9c0.3,0.2,0.6,0.3,0.9,0.3c0.7,0,1.2-0.7,1.2-1.4
				c0-0.3-0.2-0.7-0.5-0.9C146,183.8,145.7,183.8,145.4,183.8z"/>
			<path class="st1" d="M174.2,136.6c0.5,0,0.9-0.5,0.8-1c0-0.2-0.1-0.5-0.3-0.6c-0.2-0.2-0.4-0.2-0.7-0.2c-0.5,0-0.9,0.5-0.8,1
				c0,0.2,0.1,0.5,0.3,0.6C173.7,136.6,173.9,136.6,174.2,136.6z"/>
			<path class="st1" d="M158.5,143.4c0.3,0,0.6-0.4,0.6-0.7c0-0.2-0.1-0.3-0.2-0.4c-0.1-0.1-0.3-0.1-0.4-0.1c-0.3,0-0.6,0.4-0.6,0.7
				c0,0.2,0.1,0.3,0.2,0.4C158.2,143.4,158.3,143.4,158.5,143.4z"/>
			<path class="st1" d="M161.7,139.1c0.6,0,1-0.6,1-1.2c0-0.3-0.2-0.6-0.4-0.7c-0.2-0.2-0.5-0.2-0.8-0.2c-0.6,0-1,0.6-1,1.2
				c0,0.3,0.2,0.6,0.4,0.7C161.1,139,161.4,139.1,161.7,139.1z"/>
			<path class="st1" d="M165.1,146.2c0.7,0,1.3-0.8,1.2-1.4c0-0.4-0.2-0.7-0.5-0.9c-0.3-0.2-0.6-0.3-1-0.3c-0.7,0-1.3,0.8-1.2,1.4
				c0,0.4,0.2,0.7,0.5,0.9C164.5,146.2,164.8,146.2,165.1,146.2z"/>
			<path class="st1" d="M181.4,136.5c0.5,0,0.9-0.6,0.9-1c0-0.2-0.2-0.5-0.3-0.7c-0.2-0.2-0.4-0.2-0.7-0.2c-0.5,0-0.9,0.6-0.9,1
				c0,0.2,0.1,0.5,0.3,0.7C181,136.5,181.2,136.5,181.4,136.5z"/>
			<path class="st1" d="M113.2,81.1c1.6,0,2.7-1.7,2.6-3.1c-0.1-0.8-0.4-1.5-1-2c-0.6-0.5-1.3-0.6-2.1-0.6c-1.6,0-2.7,1.7-2.6,3.1
				c0.1,0.8,0.4,1.5,1,2C111.8,81,112.4,81.1,113.2,81.1z"/>
			<path class="st1" d="M94.2,87.5c1.2,0,2-1.2,1.9-2.3c0-0.6-0.3-1.1-0.8-1.5c-0.5-0.4-1-0.5-1.5-0.5c-1.2,0-2,1.2-1.9,2.3
				c0,0.6,0.3,1.1,0.8,1.5C93.1,87.4,93.6,87.5,94.2,87.5z"/>
			<path class="st1" d="M97,77.3c0.8,0,1.4-0.8,1.3-1.6c0-0.4-0.2-0.8-0.5-1c-0.3-0.3-0.7-0.3-1.1-0.3c-0.8,0-1.4,0.8-1.3,1.6
				c0,0.4,0.2,0.8,0.5,1C96.2,77.3,96.6,77.3,97,77.3z"/>
			<path class="st1" d="M83.8,77.4c0.9,0,1.6-1,1.6-1.9c0-0.5-0.3-0.9-0.6-1.2c-0.4-0.3-0.8-0.4-1.2-0.4c-0.9,0-1.6,1-1.6,1.9
				c0,0.5,0.3,0.9,0.6,1.2C82.9,77.3,83.3,77.4,83.8,77.4z"/>
			<path class="st1" d="M66.3,85c1.1,0,1.9-1.1,1.8-2.1c-0.1-0.5-0.3-1-0.7-1.4c-0.4-0.3-0.9-0.4-1.4-0.4c-1.1,0-1.9,1.1-1.8,2.1
				c0.1,0.5,0.3,1,0.7,1.4C65.3,84.9,65.8,85,66.3,85z"/>
			<path class="st1" d="M52.3,91.8c0.7,0,1.2-0.7,1.1-1.3c0-0.3-0.2-0.6-0.4-0.9c-0.3-0.2-0.6-0.3-0.9-0.3c-0.7,0-1.2,0.7-1.1,1.3
				c0,0.3,0.2,0.6,0.4,0.9C51.6,91.8,51.9,91.8,52.3,91.8z"/>
			<path class="st1" d="M70.6,75.8c0.3,0,0.6-0.4,0.6-0.7c0-0.2-0.1-0.3-0.2-0.4c-0.1-0.1-0.3-0.1-0.4-0.1c-0.3,0-0.6,0.4-0.6,0.7
				c0,0.2,0.1,0.3,0.2,0.4C70.3,75.7,70.4,75.8,70.6,75.8z"/>
			<path class="st1" d="M75.3,82.6c0.5,0,0.9-0.5,0.8-1c0-0.2-0.1-0.5-0.3-0.6c-0.2-0.2-0.4-0.2-0.7-0.2c-0.5,0-0.9,0.5-0.8,1
				c0,0.2,0.1,0.5,0.3,0.6C74.8,82.6,75.1,82.6,75.3,82.6z"/>
			<path class="st1" d="M55.9,133.6c-1.2,0-2,1.2-1.9,2.3c0,0.6,0.3,1.1,0.8,1.5c0.5,0.4,1,0.5,1.5,0.5c1.2,0,2-1.2,1.9-2.3
				c0-0.6-0.3-1.1-0.8-1.5C57,133.7,56.5,133.6,55.9,133.6z"/>
			<path class="st1" d="M40.4,135c-0.8,0-1.5,0.9-1.4,1.6c0,0.4,0.2,0.8,0.6,1c0.3,0.3,0.7,0.3,1.1,0.3c0.8,0,1.5-0.9,1.4-1.6
				c0-0.4-0.2-0.8-0.6-1C41.2,135,40.8,135,40.4,135z"/>
			<path class="st1" d="M40.1,131.1c0-0.3-0.2-0.6-0.4-0.8c-0.2-0.2-0.5-0.2-0.8-0.2c-0.6,0-1.1,0.6-1,1.2c0,0.3,0.2,0.6,0.4,0.8
				c0.2,0.2,0.5,0.2,0.8,0.2C39.7,132.3,40.1,131.7,40.1,131.1z"/>
			<path class="st1" d="M23.8,127.5c-1.2,0-2.1,1.3-2,2.4c0.1,0.6,0.3,1.1,0.8,1.5c0.5,0.4,1,0.5,1.6,0.5c1.2,0,2.1-1.3,2-2.4
				c-0.1-0.6-0.3-1.1-0.8-1.5C24.9,127.6,24.3,127.5,23.8,127.5z"/>
			<path class="st1" d="M45.6,124.7c-0.8,0-1.4,0.9-1.3,1.6c0,0.4,0.2,0.8,0.5,1c0.3,0.3,0.7,0.3,1.1,0.3c0.8,0,1.4-0.9,1.3-1.6
				c0-0.4-0.2-0.8-0.5-1C46.4,124.7,46,124.7,45.6,124.7z"/>
			<path class="st1" d="M68.8,132.3c-1,0-1.7,1-1.6,1.9c0,0.5,0.3,0.9,0.7,1.2c0.4,0.3,0.8,0.4,1.3,0.4c1,0,1.7-1,1.6-1.9
				c0-0.5-0.3-0.9-0.7-1.2C69.7,132.4,69.3,132.3,68.8,132.3z"/>
			<path class="st1" d="M211.4,57.7c0.9,0,1.6-0.9,1.5-1.8c0-0.4-0.3-0.8-0.6-1.1c-0.4-0.3-0.7-0.4-1.2-0.4c-0.9,0-1.5,0.9-1.5,1.8
				c0,0.4,0.3,0.8,0.6,1.1C210.6,57.6,211,57.7,211.4,57.7z"/>
			<path class="st1" d="M199.5,56.5c0.6,0,1.1-0.7,1-1.2c0-0.3-0.2-0.6-0.4-0.8c-0.2-0.2-0.5-0.3-0.8-0.3c-0.6,0-1.1,0.7-1,1.2
				c0,0.3,0.2,0.6,0.4,0.8C198.9,56.4,199.2,56.5,199.5,56.5z"/>
			<path class="st1" d="M206.3,47.9c0.6,0,1.1-0.6,1-1.2c0-0.3-0.2-0.6-0.4-0.8c-0.2-0.2-0.5-0.2-0.8-0.2c-0.6,0-1.1,0.6-1,1.2
				c0,0.3,0.2,0.6,0.4,0.8C205.8,47.9,206,47.9,206.3,47.9z"/>
			<path class="st1" d="M194.9,39.6c0.6,0,1.1-0.7,1-1.2c0-0.3-0.2-0.6-0.4-0.8c-0.2-0.2-0.5-0.2-0.8-0.2c-0.6,0-1.1,0.7-1,1.2
				c0,0.3,0.2,0.6,0.4,0.8C194.4,39.5,194.6,39.6,194.9,39.6z"/>
			<path class="st1" d="M183,35.6c0.6,0,1-0.6,1-1.1c0-0.3-0.2-0.5-0.4-0.7c-0.2-0.2-0.5-0.2-0.8-0.2c-0.6,0-1,0.6-1,1.1
				c0,0.3,0.2,0.5,0.4,0.7C182.4,35.5,182.7,35.6,183,35.6z"/>
			<path class="st1" d="M192.6,47.2c0.5,0,0.9-0.6,0.9-1c0-0.3-0.2-0.5-0.4-0.7c-0.2-0.2-0.4-0.2-0.7-0.2c-0.5,0-0.9,0.6-0.9,1
				c0,0.3,0.1,0.5,0.4,0.7C192.1,47.1,192.3,47.2,192.6,47.2z"/>
			<path class="st1" d="M203.5,42c0.8,0,1.3-0.8,1.3-1.5c0-0.4-0.2-0.7-0.5-1c-0.3-0.2-0.6-0.3-1-0.3c-0.8,0-1.3,0.8-1.3,1.5
				c0,0.4,0.2,0.7,0.5,1C202.8,41.9,203.1,42,203.5,42z"/>
			<path class="st1" d="M194.9,79.9c-0.8,0-1.4,0.9-1.4,1.6c0,0.4,0.2,0.8,0.5,1c0.3,0.3,0.7,0.3,1.1,0.3c0.8,0,1.4-0.9,1.4-1.6
				c0-0.4-0.2-0.8-0.5-1C195.7,80,195.3,79.9,194.9,79.9z"/>
			<path class="st1" d="M184,77.1c-0.5,0-0.9,0.6-0.9,1.1c0,0.3,0.2,0.5,0.4,0.7c0.2,0.2,0.4,0.2,0.7,0.2c0.5,0,0.9-0.6,0.9-1.1
				c0-0.3-0.2-0.5-0.4-0.7C184.5,77.2,184.3,77.1,184,77.1z"/>
			<path class="st1" d="M188.9,74.1c-0.3,0-0.6,0.4-0.6,0.7c0,0.2,0.1,0.3,0.2,0.4c0.1,0.1,0.3,0.1,0.4,0.1c0.3,0,0.6-0.4,0.6-0.7
				c0-0.2-0.1-0.3-0.2-0.4C189.2,74.2,189.1,74.1,188.9,74.1z"/>
			<path class="st1" d="M255.1,141.5c0-0.4-0.2-0.7-0.5-0.9c-0.3-0.2-0.6-0.3-1-0.3c-0.7,0-1.3,0.8-1.2,1.5c0,0.4,0.2,0.7,0.5,0.9
				c0.3,0.2,0.6,0.3,1,0.3C254.6,143,255.2,142.2,255.1,141.5z"/>
			<path class="st1" d="M244.4,146c-0.9,0-1.6,1-1.6,1.9c0,0.5,0.3,0.9,0.6,1.2c0.4,0.3,0.8,0.4,1.2,0.4c0.9,0,1.6-1,1.6-1.9
				c0-0.5-0.3-0.9-0.6-1.2C245.2,146.1,244.8,146,244.4,146z"/>
			<path class="st1" d="M245.8,141.7c-0.6,0-1,0.6-1,1.2c0,0.3,0.2,0.6,0.4,0.7c0.2,0.2,0.5,0.2,0.8,0.2c0.6,0,1-0.6,1-1.2
				c0-0.3-0.2-0.6-0.4-0.7C246.3,141.7,246.1,141.7,245.8,141.7z"/>
			<path class="st1" d="M236.7,147.9c-0.5,0-1,0.6-0.9,1.1c0,0.3,0.2,0.5,0.4,0.7c0.2,0.2,0.4,0.2,0.7,0.2c0.5,0,1-0.6,0.9-1.1
				c0-0.3-0.2-0.5-0.4-0.7C237.2,148,237,147.9,236.7,147.9z"/>
			<path class="st1" d="M277.4,144.5c-0.9,0-1.6,1-1.5,1.8c0,0.4,0.3,0.9,0.6,1.1c0.4,0.3,0.7,0.4,1.2,0.4c0.9,0,1.6-1,1.5-1.8
				c0-0.4-0.3-0.9-0.6-1.1C278.2,144.6,277.8,144.5,277.4,144.5z"/>
			<path class="st1" d="M270.2,153c-0.4,0-0.6,0.4-0.6,0.7c0,0.2,0.1,0.4,0.2,0.5c0.2,0.1,0.3,0.1,0.5,0.1c0.4,0,0.6-0.4,0.6-0.7
				c0-0.2-0.1-0.4-0.2-0.5C270.6,153,270.4,153,270.2,153z"/>
			<path class="st1" d="M270.3,149.7c0.3,0,0.6-0.4,0.6-0.7c0-0.2-0.1-0.3-0.2-0.4c-0.1-0.1-0.3-0.1-0.4-0.1c-0.3,0-0.6,0.4-0.6,0.7
				c0,0.2,0.1,0.3,0.2,0.4C270,149.7,270.2,149.7,270.3,149.7z"/>
			<path class="st1" d="M263.7,153.6c-0.5,0-0.9,0.6-0.9,1.1c0,0.3,0.1,0.5,0.4,0.7c0.2,0.2,0.4,0.2,0.7,0.2c0.5,0,0.9-0.6,0.9-1.1
				c0-0.3-0.1-0.5-0.4-0.7C264.2,153.7,264,153.6,263.7,153.6z"/>
			<path class="st1" d="M294.2,53c1.1,0,1.8-1.1,1.8-2.1c0-0.5-0.3-1-0.7-1.3c-0.4-0.3-0.9-0.4-1.4-0.4c-1.1,0-1.8,1.1-1.8,2.1
				c0,0.5,0.3,1,0.7,1.3C293.2,52.9,293.7,53,294.2,53z"/>
			<path class="st1" d="M286.2,52.1c0.8,0,1.4-0.8,1.3-1.5c0-0.4-0.2-0.7-0.5-1c-0.3-0.2-0.6-0.3-1-0.3c-0.8,0-1.4,0.8-1.3,1.5
				c0,0.4,0.2,0.7,0.5,1C285.5,52,285.8,52.1,286.2,52.1z"/>
			<path class="st1" d="M291.2,45.2c0.5,0,1-0.6,0.9-1.1c0-0.3-0.2-0.5-0.4-0.7c-0.2-0.2-0.5-0.2-0.7-0.2c-0.5,0-1,0.6-0.9,1.1
				c0,0.3,0.2,0.5,0.4,0.7C290.7,45.1,290.9,45.2,291.2,45.2z"/>
			<path class="st1" d="M287,37c0.6,0,1.1-0.7,1-1.3c0-0.3-0.2-0.6-0.4-0.8c-0.2-0.2-0.5-0.3-0.8-0.3c-0.6,0-1.1,0.7-1,1.3
				c0,0.3,0.2,0.6,0.4,0.8C286.4,36.9,286.7,37,287,37z"/>
			<path class="st1" d="M283,43.2c0.6,0,1-0.6,1-1.2c0-0.3-0.2-0.5-0.4-0.7c-0.2-0.2-0.5-0.2-0.8-0.2c-0.6,0-1,0.6-1,1.2
				c0,0.3,0.2,0.5,0.4,0.7C282.4,43.1,282.7,43.2,283,43.2z"/>
			<path class="st1" d="M283.6,31.9c0.5,0,0.8-0.5,0.8-1c0-0.2-0.1-0.5-0.3-0.6c-0.2-0.2-0.4-0.2-0.6-0.2c-0.5,0-0.8,0.5-0.8,1
				c0,0.2,0.1,0.4,0.3,0.6C283.2,31.9,283.4,31.9,283.6,31.9z"/>
			<path class="st1" d="M295.3,58.9c-0.3,0-0.6,0.4-0.6,0.7c0,0.2,0.1,0.3,0.2,0.4c0.1,0.1,0.3,0.1,0.4,0.1c0.3,0,0.6-0.4,0.6-0.7
				c0-0.2-0.1-0.3-0.2-0.4C295.6,58.9,295.5,58.9,295.3,58.9z"/>
		</g>
		<g>
			<path class="st2" d="M371,48c-0.9,0.2-1.8,0.5-2.6,0.8c-1.3,0.4-2.6,0.9-3.8,1.4c-0.6,0.2-1.2,0.4-1.7,0.7c-0.7,0.3-1.3,0.6-2,1
				c-1.7,0.9-3.2,1.8-4.4,2.7c-1.1,0.8-2.2,1.8-2.8,3.1c-0.2,0.5-0.2,1.2,0,1.7c0.3,0.7,1,1,1.5,1.2c0.4,0.2,0.8,0.2,1.2,0.3
				c0.7,0.1,1.3,0.2,2,0.2c1.1,0,2.2-0.1,3.5-0.4l0.5-0.1c2.5-0.7,5-2,7.8-4c0.5-0.4,1-0.8,1.5-1.2c1.1-0.5,2.2-1,3.4-1.6
				c0.8-0.4,1.6-0.8,2.3-1.3c0.6-0.4,1.2-0.8,1.7-1.4c0.4-0.5,0.6-0.9,0.6-1.4c0-0.5-0.2-1-0.8-1.4c-0.3-0.2-0.6-0.3-1-0.5
				c-0.5-0.2-1-0.3-1.4-0.3c-0.6-0.1-1.2-0.1-1.8-0.1c-0.7,0-1.4,0.1-2.1,0.2C371.9,47.8,371.5,47.9,371,48"/>
			<path class="st2" d="M369.6,18.7c-0.6,0.1-1.1,0.6-1.4,1.2c-0.3,0.5-0.5,1-0.6,1.7c-0.2,0.9-0.3,1.8-0.4,2.8
				c-0.1,3.6,1.3,7.5,4.2,11.8c0.8,1.2,1.7,2.4,2.8,3.6c0.2,0.7,0.4,1.3,0.7,1.9c0.3,0.8,0.7,1.6,1,2.4c0.4,0.8,0.8,1.5,1.3,2
				c0.3,0.3,0.8,0.8,1.4,0.9c0.2,0,0.4,0,0.7,0c0.3-0.1,0.6-0.3,0.9-0.5c0.4-0.4,0.7-1,0.9-1.7c0.2-0.9,0.2-1.9,0.2-2.7
				c-0.1-2.2-0.6-4.5-1.2-6.4c-0.4-1.5-0.9-3.2-1.6-5c-0.4-1.1-0.9-2.2-1.4-3.3c-0.8-1.7-1.6-3.2-2.4-4.5c-0.8-1.3-1.5-2.2-2.2-3
				c-0.6-0.6-1.3-1.3-2.3-1.4C370,18.7,369.8,18.7,369.6,18.7 M376.3,43.4c-0.5-0.9-1-1.8-1.4-2.8l0.7,0.8l0.3,0.3
				c1.1,1.2,2.3,2.4,3.7,3.6c-0.1,0.1-0.1,0.2-0.2,0.3c-0.2,0.2-0.3,0.3-0.3,0.3l-0.2,0.1l0,0c0,0,0,0,0,0l-0.1,0
				c-0.1,0-0.2-0.1-0.3-0.1c-0.2-0.1-0.4-0.3-0.6-0.4C377.2,44.8,376.7,44.1,376.3,43.4"/>
			<path class="st2" d="M382,52.5c-0.2,0.1-0.4,0.2-0.6,0.3c-0.9,0.8-0.6,2.3-0.5,3c0.3,1.6,0.9,3.1,1.4,4.5c0.5,1.2,1,2.3,1.5,3.3
				c0.1,0.6,0.2,1.3,0.4,1.9c0.4,2,1,4,1.6,5.7c0.7,1.9,1.6,3.4,2.6,4.6c0.5,0.6,1.1,1.1,1.7,1.5c0.7,0.4,1.4,0.7,2.3,0.9
				c0.7,0.1,1.3,0.1,1.9,0c0.3-0.1,0.6-0.2,0.9-0.3c0.3-0.2,0.6-0.4,0.9-0.7c0.4-0.4,0.6-1,0.7-1.6c0.2-0.7,0.1-1.4,0.1-2
				c-0.1-0.7-0.2-1.4-0.4-2c-0.2-0.9-0.5-1.8-0.9-2.7c-0.6-1.5-1.3-3-2.4-4.8c-0.9-1.5-1.9-3.1-2.9-4.6c-0.9-1.3-1.7-2.4-2.5-3.3
				c-0.9-1.1-2-2-3.2-2.8C383.5,52.6,382.6,52.3,382,52.5"/>
			<path class="st2" d="M404.7,35l-0.4,0.1c-1.3,0.3-2.6,0.8-4.2,1.4c-1.1,0.4-2.1,0.9-3.1,1.5c-1.3,0.7-2.5,1.4-3.5,2.1
				c-3.7,2.5-6.2,5-7.6,7.8c-0.4-0.1-0.6-0.2-0.8-0.3c-0.2-0.1-0.3-0.2-0.4-0.3l-0.2-0.3l0,0l0-0.2c0,0,0,0,0,0c0,0,0,0,0,0l0-0.1
				l0,0c0-0.1,0.1-0.1,0.1-0.2c0.1-0.2,0.3-0.3,0.4-0.5c0.8-0.7,1.8-1.3,2.9-1.9l0.5-0.3l-0.5,0.1c-0.8,0.3-1.6,0.6-2.3,1
				c-0.4,0.2-0.7,0.4-1,0.6c-0.3,0.2-0.6,0.5-0.7,0.8c-0.1,0.3-0.2,0.5-0.1,0.8c0,0.3,0.2,0.6,0.4,0.8c0.3,0.3,0.6,0.5,1,0.7
				c0.2,0.1,0.4,0.2,0.6,0.2c0.6,0.2,1.2,0.2,1.6,0.2c0.7,0,1.4,0,2.1-0.1c0.9-0.1,1.8-0.3,2.9-0.5c0.7-0.2,1.4-0.4,2.2-0.6
				c1.8-0.5,3.6-1.2,5.6-2c1.8-0.7,3.5-1.6,5.2-2.5c1.7-0.9,2.9-1.7,4-2.6c0.8-0.7,1.7-1.5,2-2.7c0.1-0.3,0.1-0.6,0.1-0.9
				c-0.1-0.4-0.2-0.8-0.6-1.2c-0.7-1-2-1.3-2.9-1.4C406.8,34.6,405.5,34.8,404.7,35"/>
			<path class="st2" d="M355.4,27.8c-0.9,0.3-1.7,0.8-2.4,1.4c-0.7,0.6-1.4,1.3-1.9,2.1c-0.7,1-1.1,2.1-1.5,3.2
				c-0.4,1.2-0.7,2.5-0.9,3.8c-0.2,1.2-0.2,2.4-0.2,3.6c0.1,1.7,0.5,3.4,1.5,4.9c2.7,4.2,8.5,4.3,12.9,3.9c5.2-0.5,10.1-2,15.1-3.3
				c0,0,0-0.1,0-0.1c-2.1,0.3-4.1,0.8-6.2,1.1c-2.5,0.4-5.1,0.8-7.6,0.9c-2.3,0.1-4.6,0.1-6.8-0.3c0,0,0,0,0,0c0,0,0,0,0,0
				c-0.1,0-0.1,0-0.2,0c0,0,0,0,0.1,0c-1-0.2-2-0.5-2.9-1c-0.5-0.3-1-0.6-1.4-0.9c-0.4-0.4-0.8-0.8-1.1-1.3
				c-0.3-0.5-0.5-0.9-0.7-1.4c-0.2-0.7-0.3-1.5-0.4-2.2c-0.1-1.4,0.1-2.8,0.4-4.2c0.3-1.4,0.7-2.7,1.3-3.9c0.4-0.7,0.8-1.3,1.2-1.8
				c0.4-0.4,0.8-0.8,1.3-1.1c0.5-0.3,0.9-0.5,1.4-0.7c0.5-0.1,1-0.2,1.5-0.3c0.8,0,1.6,0,2.4,0.2c1.1,0.2,2.1,0.6,3.1,1.1
				c1.7,0.9,3.3,2,4.7,3.2c1.8,1.7,3.4,3.6,4.9,5.6c1.9,2.4,3.6,4.9,5.4,7.4c0,0,0.1,0,0,0c-1.6-3.1-3.2-6.2-5-9.1
				c-0.7-1.2-1.5-2.4-2.4-3.5c-0.7-0.9-1.5-1.8-2.4-2.6c-0.8-0.7-1.6-1.4-2.5-2c-0.9-0.6-1.9-1.2-2.9-1.6c-1.7-0.8-3.6-1.2-5.4-1.2
				c-0.6,0-1.2,0.1-1.7,0.2C356,27.6,355.7,27.7,355.4,27.8 M360.1,30.1c0,0,0.1,0,0.1,0C360.2,30.1,360.1,30.1,360.1,30.1
				 M352.5,34.1c0,0,0,0.1-0.1,0.1C352.4,34.2,352.4,34.1,352.5,34.1 M357.4,48.9C357.4,48.9,357.5,48.9,357.4,48.9
				C357.4,48.9,357.4,48.9,357.4,48.9C357.4,48.9,357.4,48.9,357.4,48.9"/>
			<path class="st2" d="M380.4,20.5c-1.5,1.4-2.3,3.3-2.6,5.4c-0.3,2.4-0.1,4.9,0.4,7.3c0.9,4.9,2.6,9.6,4.2,14.3
				c-0.1,0.1-0.2,0.1-0.3,0.2c0,0,0,0.1,0,0c0.1,0,0.2-0.1,0.3-0.1l0.1,0.3c0,0,0.1,0,0.1,0c0-0.1-0.1-0.2-0.1-0.3
				c1.4-0.8,2.7-1.6,4.1-2.4c1.3-0.8,2.6-1.6,3.9-2.4c2.1-1.4,4.1-2.9,5.9-4.7c1.7-1.6,3.2-3.4,4.3-5.5c0.9-1.7,1.4-3.7,1.1-5.7
				c-0.2-1-0.6-1.8-1.1-2.6c-0.3-0.4-0.6-0.8-1-1.2c-0.4-0.5-1-0.8-1.5-1.2c-1.1-0.8-2.4-1.4-3.7-1.8c-1.4-0.5-2.9-0.9-4.4-1.2
				c-1.9-0.4-3.9-0.5-5.8-0.2c-0.2,0-0.3,0.1-0.5,0.1C382.5,19.1,381.3,19.6,380.4,20.5 M384,21.1c-0.1,0-0.1,0-0.2,0
				C383.9,21.1,384,21.1,384,21.1 M383.8,21.1c0.8-0.2,1.6-0.2,2.5-0.2c1.9,0.1,3.8,0.5,5.6,1.1c1.5,0.5,3,1.1,4.4,1.9
				c0.6,0.4,1.1,0.8,1.5,1.3c0.3,0.3,0.5,0.7,0.8,1.1c0.2,0.3,0.3,0.6,0.4,1c0.1,0.4,0.1,0.8,0.1,1.1c0,0.6-0.2,1.2-0.3,1.8
				c-0.4,1.2-1,2.3-1.6,3.3c0-0.1,0.1-0.1,0.1-0.2c-1.8,2.7-4.1,5.1-6.5,7.3c-1.2,1.1-2.4,2.1-3.7,3.1c-1.5,1.2-3.1,2.5-4.7,3.7
				c-0.6-2.4-1.2-4.7-1.8-7.1c0,0,0,0.1,0,0.1c-0.8-3.7-1.6-7.6-1.5-11.5c0.1-1.3,0.2-2.6,0.6-3.9c0.2-0.6,0.4-1.1,0.7-1.6
				c0.3-0.4,0.5-0.7,0.9-1.1c0.3-0.3,0.7-0.5,1-0.7C382.9,21.4,383.3,21.3,383.8,21.1 M382.6,21.6c-0.1,0-0.1,0.1-0.2,0.1
				C382.5,21.6,382.5,21.6,382.6,21.6 M398.7,26.3c0,0,0,0.1,0.1,0.1C398.7,26.4,398.7,26.4,398.7,26.3 M399,27.3c0,0.1,0,0.1,0,0.2
				C399,27.5,399,27.4,399,27.3 M399.1,28.5v0.2C399.1,28.6,399.1,28.6,399.1,28.5"/>
			<path class="st2" d="M378.6,51.1c0,0.1,0.1,0.3,0.1,0.4c-3,1.2-5.9,2.8-8.6,4.6c-1.6,1.1-3.1,2.3-4.5,3.7
				c-1.2,1.2-2.3,2.6-2.9,4.2c-0.3,0.7-0.5,1.4-0.5,2.1c-0.1,0.8,0,1.6,0.2,2.4c0.4,1.8,1.8,3.3,3.2,4.5c3.4,2.8,8.2,4.3,12.5,2.7
				c1.7-0.6,3.2-1.8,4.3-3.2c1.3-1.6,1.9-3.6,2.1-5.6c0.3-2.6-0.3-5.1-1.2-7.5c-1-2.7-2.7-5.2-4.3-7.6c0.2-0.1,0.5-0.2,0.7-0.3
				c0,0,0-0.1,0-0.1c-0.2,0.1-0.5,0.2-0.7,0.3C378.8,51.3,378.7,51.2,378.6,51.1C378.6,51,378.6,51,378.6,51.1
				C378.6,51,378.6,51.1,378.6,51.1 M378.8,51.6c1.2,3,2.7,6,3.4,9.2c0-0.1,0-0.1,0-0.2c0.3,1.4,0.5,2.9,0.5,4.4c0,0,0,0,0,0
				c0,1-0.2,2-0.5,3c0,0,0,0,0-0.1c0,0,0,0,0,0.1c0,0.1,0,0.1-0.1,0.2c0-0.1,0-0.1,0.1-0.2c-0.3,0.8-0.6,1.6-1.1,2.4
				c-0.4,0.6-0.8,1.1-1.3,1.6c-0.5,0.5-1.1,0.9-1.8,1.2c-0.6,0.3-1.2,0.5-1.8,0.7c-0.8,0.2-1.6,0.2-2.5,0.2c0.1,0,0.2,0,0.3,0
				c-1-0.1-1.9-0.2-2.9-0.5c-1.2-0.4-2.4-1-3.4-1.6c0.1,0,0.1,0.1,0.2,0.1c-1-0.6-1.9-1.3-2.6-2.2c-0.4-0.4-0.7-0.9-1-1.4
				c-0.2-0.4-0.3-0.8-0.5-1.2c-0.1-0.4-0.1-0.8-0.1-1.2c0-0.6,0.1-1.1,0.3-1.6c0.3-0.8,0.6-1.5,1-2.1c0.9-1.4,2.1-2.7,3.3-3.8
				c2.9-2.6,6.2-4.7,9.7-6.5c0,0,0,0,0,0C378.1,51.9,378.4,51.7,378.8,51.6 M363.8,64.5C363.8,64.6,363.8,64.6,363.8,64.5
				C363.8,64.6,363.8,64.6,363.8,64.5 M363.5,66c0,0,0,0.1,0,0.1C363.5,66.1,363.5,66.1,363.5,66 M382.6,65c0,0.1,0,0.1,0,0.2
				C382.6,65.1,382.6,65,382.6,65 M381,70.3c0,0.1-0.1,0.1-0.1,0.2C380.9,70.5,381,70.4,381,70.3 M370.7,73.6c0.1,0,0.2,0,0.2,0.1
				C370.9,73.6,370.8,73.6,370.7,73.6 M382.1,68C382.1,68,382.1,67.9,382.1,68C382.1,67.9,382.1,67.9,382.1,68
				C382.1,67.9,382.1,67.9,382.1,68"/>
			<path class="st2" d="M388.7,48.5c-1.9,0.6-3.7,1.2-5.5,1.9c0,0,0,0.1,0,0.1c1.2-0.4,2.5-0.8,3.8-1.1c0,0,0,0,0,0
				c4.1-1.1,8.3-1.9,12.5-1.9c0,0-0.1,0-0.1,0c1.6,0,3.2,0.2,4.7,0.5c0,0,0,0,0,0l0,0c0,0,0.1,0,0.1,0c0,0-0.1,0-0.1,0
				c0.7,0.2,1.5,0.5,2.1,0.9c0.5,0.3,0.9,0.6,1.3,1c0.3,0.3,0.6,0.7,0.8,1c0.2,0.4,0.4,0.8,0.5,1.2c0.1,0.6,0.2,1.2,0.2,1.8
				c0,1.1-0.2,2.3-0.5,3.4c0-0.1,0-0.1,0-0.2c-0.5,1.9-1.3,3.6-2.2,5.3c0-0.1,0.1-0.2,0.1-0.3c-0.2,0.4-0.5,0.8-0.8,1.2
				c-0.3,0.4-0.7,0.8-1.1,1.2c-0.4,0.4-0.8,0.7-1.2,0.9c-0.4,0.2-0.8,0.4-1.2,0.5c-0.5,0.1-0.9,0.2-1.4,0.2c-0.6,0-1.2-0.1-1.7-0.3
				c-1-0.3-1.9-0.7-2.8-1.2c-2-1.2-3.8-2.8-5.5-4.5c0,0,0,0,0.1,0.1c-1.3-1.3-2.4-2.7-3.6-4.1c-0.7-0.9-1.5-1.9-2.2-2.8
				c-0.8-1-1.6-2-2.3-3c0,0-0.1,0,0,0c0.7,1.4,1.6,2.8,2.4,4.1c0.8,1.3,1.6,2.7,2.4,4c1.4,2.2,3.1,4.2,5,6c3,2.9,7.7,5.5,11.8,3.2
				c2.3-1.3,3.8-3.7,4.8-6.1c0.5-1.2,0.9-2.4,1.2-3.6c0.3-1,0.4-2,0.5-3c0.1-1.5-0.1-3.1-0.9-4.4c-0.3-0.6-0.7-1.1-1.2-1.5
				c-0.5-0.5-1-0.8-1.6-1.2c-0.8-0.4-1.6-0.7-2.5-0.9c-1-0.2-1.9-0.3-2.9-0.4c-2.2-0.1-4.5,0.1-6.7,0.5c-1.1,0.2-2.2,0.4-3.2,0.7
				C390.8,47.9,389.7,48.2,388.7,48.5 M408.3,51C408.3,51,408.3,51,408.3,51C408.3,51,408.3,51,408.3,51 M396.2,64.6
				C396.2,64.6,396.2,64.7,396.2,64.6L396.2,64.6z M403.4,65.5c0,0-0.1,0.1-0.1,0.1C403.3,65.6,403.3,65.6,403.4,65.5 M404,48.1
				C404,48.1,404,48.1,404,48.1C404,48.1,404,48.1,404,48.1C404,48.1,404,48.1,404,48.1"/>
			<path class="st2" d="M384.1,50.7c1.2,0.3,2.4,0.5,3.7,0.6c1.2,0.1,2.4,0.1,3.6,0.1c2.6,0,5.1-0.3,7.7-0.3c0,0,0,0,0,0
				c0.9,0,1.8,0,2.8,0.1c1,0.1,2,0.3,3,0.6c1.2,0.4,2.4,0.8,3.5,1.5c0.5,0.3,0.9,0.6,1.4,0.9c0,0,0.1,0,0,0
				c-0.8-0.7-1.6-1.3-2.5-1.8c-0.9-0.5-1.8-0.9-2.8-1.3c-1.9-0.6-3.8-0.9-5.8-1c-2-0.1-4.1,0-6.1,0.1c-2.2,0.2-4.3,0.4-6.5,0.4
				c0,0,0,0,0.1,0C385.3,50.7,384.7,50.6,384.1,50.7C384.1,50.6,384.1,50.6,384.1,50.7C384.1,50.6,384.1,50.6,384.1,50.7
				 M399.1,51.1C399.1,51.1,399.1,51.1,399.1,51.1C399.1,51.1,399.1,51.1,399.1,51.1"/>
			<path class="st2" d="M383.7,51.6c1.8,0.6,3.6,1.3,5.4,2c1.8,0.7,3.7,1.3,5.6,1.8c0.9,0.3,1.9,0.5,2.8,0.7
				c0.9,0.2,1.7,0.3,2.6,0.4c1.7,0.2,3.3,0.4,5,0.9l0,0c0.9,0.3,1.8,0.6,2.7,1.1l0,0c0.2,0.1,0.4,0.2,0.6,0.4c0,0,0.1,0,0,0
				c-0.5-0.4-1-0.8-1.6-1.2c-0.6-0.3-1.2-0.6-1.8-0.9c-1.4-0.5-2.9-0.8-4.3-1.1c-0.8-0.1-1.5-0.3-2.3-0.4c-0.9-0.2-1.8-0.3-2.7-0.5
				c-1.9-0.4-3.7-0.9-5.5-1.4c0,0,0,0,0,0C388,52.7,385.9,52.1,383.7,51.6C383.7,51.6,383.7,51.6,383.7,51.6
				C383.7,51.6,383.7,51.6,383.7,51.6 M390.1,53.3C390.1,53.3,390.1,53.3,390.1,53.3L390.1,53.3z"/>
			<path class="st2" d="M384.1,51.4c1.7,1.6,3.3,3.2,5,4.8c1.6,1.5,3.3,3,5.1,4.2c1.7,1.1,3.5,1.8,5.3,2.3c2.3,0.6,4.8,0.6,7.1,0.3
				c0,0,0-0.1,0-0.1c-0.3,0-0.5,0-0.7,0l0,0c-1.8,0-3.6-0.2-5.4-0.7c-1.5-0.4-2.8-1-4.1-1.8c0,0,0.1,0,0.1,0.1
				c-2.1-1.3-4-2.8-5.9-4.3C388.5,54.5,386.4,52.8,384.1,51.4C384.1,51.3,384.1,51.3,384.1,51.4C384.1,51.4,384.1,51.4,384.1,51.4
				 M400.6,62.3C400.6,62.3,400.6,62.3,400.6,62.3C400.6,62.3,400.6,62.3,400.6,62.3"/>
			<path class="st2" d="M353.8,30.6c1,0.1,2,0.3,2.9,0.5c0,0,0,0,0,0c1.4,0.4,2.8,1,4.1,1.8c0,0,0,0-0.1,0c3.1,1.9,5.6,4.5,8.2,6.9
				c1.3,1.3,2.6,2.5,4.1,3.7c1.4,1.1,2.9,2.1,4.5,3c0,0,0.1,0,0-0.1c-1.2-0.8-2.4-1.8-3.5-2.8c-1.2-1.1-2.4-2.3-3.5-3.4
				c0,0,0,0.1,0.1,0.1c-1.2-1.2-2.4-2.4-3.6-3.5c-1.2-1.2-2.6-2.2-4-3.2c-1.3-0.9-2.8-1.6-4.3-2.1C357.2,30.8,355.5,30.6,353.8,30.6
				C353.8,30.6,353.8,30.6,353.8,30.6C353.8,30.6,353.8,30.6,353.8,30.6 M356.7,31.1L356.7,31.1C356.7,31.1,356.7,31.1,356.7,31.1"
				/>
			<path class="st2" d="M351.6,35.7c1.8,1.4,3.7,2.6,5.8,3.7c2.1,1.1,4.3,2,6.6,2.9c2.3,0.9,4.5,1.6,6.8,2.4
				c2.3,0.8,4.5,1.7,6.7,2.7c0,0,0.1,0,0,0c-4.1-2.3-8.4-4-12.7-5.8c-2.2-0.9-4.4-1.7-6.6-2.7C355.8,37.8,353.7,36.8,351.6,35.7
				C351.6,35.6,351.6,35.6,351.6,35.7C351.6,35.6,351.6,35.7,351.6,35.7"/>
			<path class="st2" d="M350.3,43.4c0.6,0.7,1.3,1.3,2.1,1.9c0.9,0.6,1.9,1.1,3,1.5c1.1,0.4,2.3,0.8,3.5,1c1.3,0.3,2.7,0.5,4,0.6
				c2.7,0.2,5.4,0.2,8,0c2.4-0.2,4.7-0.6,7-1c0,0,0-0.1,0-0.1c-3.3,0.3-6.7,0.5-10,0.5c0,0,0.1,0,0.1,0c-2,0-3.9-0.1-5.9-0.2
				c-2-0.2-3.9-0.5-5.8-1v0c-1.4-0.4-2.7-0.9-3.9-1.6C351.6,44.4,350.9,43.9,350.3,43.4C350.3,43.3,350.3,43.3,350.3,43.4
				C350.3,43.3,350.2,43.3,350.3,43.4"/>
			<path class="st2" d="M384.9,20.3c-0.5,1-0.8,1.9-1.2,2.9c-0.3,1-0.5,2-0.7,3c-0.4,1.9-0.5,3.9-0.5,5.9c0,1,0,2,0,2.9
				c0,1.1,0.1,2.2,0.1,3.3c0.1,2.2,0.2,4.4,0.1,6.6c0,0,0,0,0,0c0,0.6-0.1,1.3-0.2,1.9c0,0,0,0.1,0.1,0c0.2-0.7,0.4-1.5,0.6-2.2
				c0.2-0.8,0.3-1.7,0.4-2.6c0.2-1.5,0.2-3,0.2-4.5c0-1.6-0.1-3.2-0.3-4.7c-0.1-1.7-0.2-3.4-0.1-5.1v0c0.1-1,0.1-1.9,0.3-2.9
				c0.2-1.1,0.5-2.3,0.8-3.4v0C384.7,21,384.8,20.7,384.9,20.3C385,20.3,385,20.2,384.9,20.3C384.9,20.3,384.9,20.3,384.9,20.3
				 M382.8,45C382.8,44.9,382.8,44.9,382.8,45C382.8,44.9,382.8,44.9,382.8,45"/>
			<path class="st2" d="M391.6,21.5c-0.5,0.6-0.9,1.3-1.3,2c-0.4,0.8-0.8,1.6-1.2,2.4c-0.7,1.7-1.2,3.4-1.7,5.2
				c-1,3.7-1.5,7.5-2.7,11.2c0,0,0,0,0-0.1c-0.6,1.7-1.2,3.3-2.1,4.9c0,0,0,0.1,0.1,0c0.9-1.4,1.7-2.9,2.4-4.4
				c0.7-1.7,1.2-3.4,1.7-5.2c1-3.7,1.7-7.5,2.8-11.2c0,0,0,0,0,0.1C390.2,24.7,390.8,23.1,391.6,21.5
				C391.7,21.5,391.7,21.4,391.6,21.5C391.7,21.5,391.6,21.5,391.6,21.5"/>
			<path class="st2" d="M397.5,23.4c-1.3,2-2.2,4.2-3.1,6.4c-0.5,1.1-0.9,2.2-1.4,3.2c-0.5,1.1-1.1,2.1-1.7,3.1c0,0,0,0,0-0.1
				c0,0,0,0.1-0.1,0.1c0,0,0,0,0,0c0,0,0,0,0,0c-0.6,0.8-1.2,1.6-1.8,2.4c-0.8,1-1.6,2-2.4,2.9c-1.5,1.9-3,3.8-4.4,5.7
				c0,0,0,0.1,0,0c1.8-1.8,3.6-3.5,5.3-5.4c0.9-0.9,1.7-1.9,2.5-2.9c0.7-0.9,1.4-1.9,2-2.9c0.5-0.9,0.9-1.9,1.3-2.9
				c0.4-1.1,0.8-2.2,1.2-3.3C395.8,27.6,396.5,25.5,397.5,23.4C397.6,23.4,397.6,23.4,397.5,23.4C397.5,23.4,397.5,23.4,397.5,23.4
				 M391.3,36.1C391.3,36.1,391.3,36.1,391.3,36.1C391.3,36.1,391.3,36.1,391.3,36.1C391.3,36.1,391.3,36.1,391.3,36.1"/>
			<path class="st2" d="M378.7,51.7c-1.4,1.4-2.9,2.7-4.3,4c-1.8,1.7-3.5,3.4-5,5.3c-1.4,1.7-2.5,3.6-3.2,5.7
				c-0.3,0.9-0.4,1.8-0.4,2.8c0,0.9,0.3,1.7,0.7,2.5c0,0,0.1,0,0.1,0c-0.1-0.2-0.1-0.4-0.2-0.6c-0.1-0.5-0.1-1-0.1-1.5c0,0,0,0,0,0
				c0.1-0.7,0.2-1.4,0.4-2.1l0,0.1c0.5-1.6,1.3-3,2.2-4.4c0,0,0,0,0,0c1.6-2.3,3.4-4.5,5.2-6.6C375.6,55.1,377.3,53.5,378.7,51.7
				C378.8,51.7,378.8,51.7,378.7,51.7C378.8,51.7,378.7,51.7,378.7,51.7 M366.3,69.9C366.3,69.9,366.3,69.9,366.3,69.9
				C366.3,69.9,366.3,69.9,366.3,69.9"/>
			<path class="st2" d="M378.4,52.2c-0.3,1.2-0.7,2.3-1.1,3.5c0,0,0,0,0,0c-1,3-2,6-3.1,9c-1.1,2.9-2.4,5.7-4.1,8.4
				c-0.1,0.2-0.3,0.4-0.4,0.6c0,0,0,0.1,0,0c2.4-3,4.4-6.5,5.8-10.1c0.7-1.8,1.3-3.7,1.8-5.5C377.8,56.1,378.1,54.1,378.4,52.2
				C378.4,52.1,378.4,52.1,378.4,52.2C378.4,52.1,378.4,52.1,378.4,52.2 M377.3,55.7C377.3,55.7,377.3,55.7,377.3,55.7
				C377.3,55.7,377.3,55.7,377.3,55.7"/>
			<path class="st2" d="M379.2,52.1c0,1.8,0.1,3.7,0.2,5.5c0.1,2,0.2,4.1,0.1,6.1c0,0,0,0,0,0c-0.1,1-0.1,2-0.3,3.1
				c-0.1,1.1-0.4,2.1-0.7,3.1c-0.4,1.1-0.9,2.2-1.5,3.2c-0.4,0.6-0.8,1.1-1.2,1.6c0,0,0,0.1,0,0c0.8-0.6,1.5-1.3,2.1-2
				c0.6-0.7,1-1.6,1.4-2.5c0.8-1.8,1-3.8,1.1-5.7c0-1.1,0-2.1-0.1-3.2c-0.1-1.1-0.2-2.1-0.3-3.2C379.7,56.1,379.4,54.1,379.2,52.1
				C379.2,52.1,379.2,52,379.2,52.1C379.2,52.1,379.2,52.1,379.2,52.1 M378.5,70L378.5,70C378.5,70,378.5,70,378.5,70"/>
			<path class="st1" d="M378.1,36.5L378.1,36.5c-1.5,0.4-1.5,2.2-1.4,3.5c0.1,0.8,0.2,1.6,0.5,2.6c-0.7-0.9-1.3-1.5-2-1.9
				c-0.4-0.3-0.9-0.6-1.4-0.5c-0.2,0-0.4,0-0.6,0.1c-0.1,0-0.2,0.1-0.4,0.1c-0.2,0.1-0.4,0.2-0.5,0.3c-0.2,0.3-0.3,0.6-0.3,0.9
				c0.1,0.5,0.4,1,0.7,1.4c0.5,0.6,1,1.1,1.5,1.4l0.2,0.1c-0.8-0.3-1.4-0.6-2-0.7c-0.4-0.1-0.8-0.1-1.2-0.1c-0.1,0-0.2,0-0.3,0.1
				c-0.3,0.1-0.5,0.2-0.8,0.3c-0.3,0.2-0.5,0.5-0.7,0.8c-0.2,0.4-0.4,0.8-0.4,1.2c0,0.6,0.2,1.1,0.8,1.6c0.6,0.5,1.4,0.6,2.1,0.8
				c0.3,0,0.6,0.1,0.9,0.1c-0.3,0.1-0.6,0.3-0.9,0.5c-0.6,0.5-1,1.1-1.2,1.8c-0.2,0.7-0.2,1.5,0.1,2.3c0.2,0.5,0.7,1,1.3,1.3
				c0.5,0.2,1.1,0.3,1.9,0.2c0.1,0,0.3,0,0.4-0.1c0.3-0.1,0.6-0.2,0.9-0.3c-0.2,0.4-0.2,0.9-0.2,1.5c0,0.6,0.1,1.2,0.4,1.7
				c0.2,0.5,0.6,1,1.1,1.3c0.4,0.3,0.8,0.5,1.3,0.5c0.2,0,0.4,0,0.6-0.1c0.3-0.1,0.6-0.2,0.9-0.4c0.3-0.2,0.6-0.5,0.8-0.9l0,0.3
				l0.1,0.3c0.2,0.7,0.6,1.4,1,2.1c0.5,0.7,1.2,1.1,1.9,1.2c0.3,0,0.7,0,1-0.1c0.5-0.1,1-0.4,1.3-0.7c0.3-0.3,0.5-0.6,0.7-1
				c0.2-0.5,0.3-1,0.3-1.5c0-0.1,0-0.2,0-0.3c0.1,0.1,0.2,0.1,0.3,0.1c0.5,0.2,1,0.3,1.5,0.3c0.2,0,0.4,0,0.6-0.1
				c0.6-0.1,1.1-0.5,1.5-0.9c0.6-0.7,0.9-1.5,0.9-2.4c0-0.7-0.3-1.5-0.8-2.2c-0.2-0.3-0.4-0.5-0.7-0.7c0.2-0.3,0.5-0.4,0.7-0.6
				c0.2-0.2,0.4-0.4,0.6-0.6c0.2-0.2,0.3-0.4,0.5-0.6c0.3-0.5,0.4-1,0.4-1.7c0-0.5-0.2-1-0.5-1.4c-0.2-0.4-0.7-0.8-1.3-1.1
				c-0.3-0.2-0.8-0.3-1.2-0.4c0.4-0.4,0.6-0.9,0.8-1.3c0.4-1,0.2-2.1-0.4-2.8c-0.6-0.7-1.6-1-2.6-0.8c0,0,0,0,0,0
				c-0.3,0.1-0.5,0.1-0.6,0.2c0.2-0.4,0.3-0.9,0.3-1.4c0.1-0.6,0.1-1.5-0.3-2.1c-0.2-0.3-0.4-0.5-0.6-0.6c-0.3-0.2-0.7-0.3-1.1-0.4
				c-0.2,0-0.5,0-0.7,0.1c-0.4,0.1-0.8,0.3-1.2,0.6c-0.6,0.6-1,1.4-1.2,2l-0.2,0.5c0-0.3-0.1-0.5-0.1-0.8
				C380.5,38.2,379.8,36.1,378.1,36.5"/>
		</g>
		<g>
			<path class="st1" d="M740.3,120.9c0,0,0.1,0,0.1,0c0,0,0,0,0,0C740.4,120.8,740.4,120.8,740.3,120.9z"/>
			<path class="st1" d="M798.9,102.9c-0.2-0.8-0.6-1.6-1-2.3c-0.5-0.9-1.2-1.8-1.9-2.6c-3.2-3.5-7-6.4-11-8.9
				c-4.2-2.6-8.7-4.6-13.4-6.2c-4.9-1.7-10-2.9-15.1-3.8c-5.2-0.9-10.4-1.3-15.7-1.4c-9.8-0.2-19.8,0.9-29.3,3.3
				c-10.2,2.6-19.6,7.6-28.7,12.7c-9.3,5.3-18.5,11-28.2,15.8c0,0-0.1,0-0.1,0c0,0-0.1,0-0.1,0.1c0,0,0,0,0,0
				c-7.7,3.8-15.8,7.2-24.3,8.8h0c-1.6,0.3-3.2,0.5-4.8,0.7c-8.9-0.7-17.7-1.3-26.6-1.5c-11.5-0.3-23.1,0-34.6,1.4
				c-11.4,1.4-22.8,3.3-34.1,5.4c1.6-0.6,3.2-1.3,4.8-2c10.5-4.6,20.5-10.2,30.3-16.2c2.3-1.4,4.5-2.8,6.8-4.2
				c2.2-0.2,4.3-0.3,6.5-0.3c3.6-0.1,7.1-0.1,10.7,0c6.9,0.2,13.9,0.5,20.8,0.5c3.4,0,6.7-0.1,10.1-0.5c3.4-0.4,6.8-1,10.1-1.9
				c3.1-0.8,6.2-2,9.2-3.3c2.7-1.2,5.3-2.5,7.8-4c4.6-2.8,8.9-6.1,13-9.7c2.1-1.9,4.1-3.8,6.1-5.8c1.5-1.5,2.9-3,4.5-4.4
				c3-2.6,6-5.1,8.9-7.8c3.1-2.8,6.3-5.8,8.7-9.3c0.5-0.7,1-1.5,1.4-2.3c0.4-0.8,0.7-1.6,1-2.5c0.5-1.5,0.5-3.2,0-4.7
				c-0.5-1.8-1.9-3.2-3.3-4.4c-0.8-0.7-1.7-1.2-2.6-1.8c-1-0.6-2.1-1.1-3.2-1.5c-4.5-1.9-9.4-2.9-14.2-3.8c-2.1-0.4-4.1-0.7-6.2-1.1
				c-1.3-0.2-2.5-0.5-3.8-0.7c-1.8-0.3-3.6-0.6-5.4-0.7c-3.4-0.3-6.9-0.4-10.3-0.2c-3.4,0.2-6.8,0.8-10.1,1.5
				c-6.1,1.3-12.1,3.5-17.5,6.7c-4.4,2.5-8.3,5.7-11.8,9.3c-3.6,3.7-6.6,7.9-9.2,12.4c-1.3,2.2-2.4,4.5-3.5,6.8
				c-1.2,2.6-2.2,5.2-3.3,7.7c-2.2,5.1-4.4,10.2-7.5,14.9c-1.8,2.7-3.8,5.2-6.2,7.4c-8.6,5.2-17.3,10.3-26.2,14.8c0,0,0,0,0,0
				c0,0,0,0,0,0c0,0,0,0-0.1,0c0,0,0,0,0,0l0,0c-3.5,1.7-7.1,3.4-10.7,5c-3.7,1.6-7.4,3.1-11.1,4.6c-3.7,1.5-7.5,2.9-11.3,4.1
				c-2.1,0.7-4.3,1.4-6.5,2c-14.2,2.8-28.5,5.5-42.8,7.5c-1.5,0.2-2.9,0.4-4.4,0.6c0.5-0.2,1-0.3,1.5-0.4c3.2-1.1,6.4-2.4,9.5-3.8
				c3.1-1.4,6.1-3.1,9.1-4.7c2.9-1.6,5.8-3.4,8.6-5.1c1.3-0.8,2.6-1.6,3.8-2.4c1.2-0.8,2.4-1.6,3.6-2.5c2.2-1.6,4.4-3.4,6.4-5.3
				c0.3-0.3,0.6-0.5,0.8-0.8c2.1-0.7,4.2-1.4,6.3-2.2c3.2-1.2,6.3-2.5,9.5-3.8c6.3-2.6,12.6-5.2,19.1-7.3c1.3-0.4,2.6-1,3.9-1.5
				c1.8-0.8,3.5-1.6,5.2-2.4c4-2,7.9-4.3,11.5-6.9c1.7-1.3,3.3-2.6,4.8-4.2c1.3-1.3,2.5-2.8,3.3-4.4c0.4-0.7,0.7-1.4,0.9-2.2
				c0.2-0.8,0.3-1.6,0.4-2.4c0-1.4-0.4-2.6-1.3-3.7c-0.9-1.2-2.2-2.1-3.5-2.8c-1.6-0.9-3.3-1.5-4.9-2.1c-1.9-0.6-3.9-1.1-5.8-1.4
				c-2-0.4-4-0.7-6.1-0.9c-1.8-0.2-3.7-0.3-5.5-0.4c-1.5,0-2.9,0-4.3,0.1c-1.8,0.2-3.7,0.7-5.4,1.4c-2.5,0.9-4.8,2.3-6.9,3.9
				c-4.3,3.3-7.7,7.6-10.5,12.2c-1.4,2.3-2.6,4.7-3.7,7.2c-1,2.3-1.8,4.7-2.5,7.1c-0.6,1.8-1.1,3.6-1.7,5.4c0,0,0,0.1,0,0.1l0,0
				c0,0,0,0,0,0.1c0,0,0,0,0,0c-1,3-2.3,6-4,8.7c0,0,0,0,0,0c-0.6,0.9-1.2,1.7-1.9,2.4c-0.4,0.3-0.8,0.7-1.2,1
				c-2.3,1.8-4.6,3.5-7.1,5c-1.3,0.8-2.7,1.6-4.1,2.4c-1.5,0.9-3,1.7-4.5,2.6c-3.1,1.7-6.2,3.4-9.4,5c0,0,0,0,0.1,0c0,0,0,0-0.1,0
				c0,0,0,0,0,0c-0.1,0.1-0.2,0.1-0.3,0.2c0,0,0.1,0,0.1,0c-5.1,2.5-10.2,4.9-15.4,7.1c-3,1.2-6,2.3-9.1,3.3c-5,0.5-10,0.9-15.1,1.2
				c-10.6,0.6-21.2,0.5-31.7-0.2c-11.4-0.9-22.7-2.5-33.9-5.1c-2.7-0.6-5.5-1.3-8.2-2c-2.7-0.7-5.4-1.4-8.1-2.1
				c-5.5-1.5-11-3.1-16.4-5c0.1,0,0.2,0.1,0.2,0.1c-2.4-0.8-4.7-1.7-7-2.6c0,0-0.1,0,0,0c4.8,3.7,9.9,6.9,15.3,9.6
				c5.7,2.8,11.7,5,17.8,6.5c3,0.8,6,1.4,9,2c3.2,0.7,6.5,1.2,9.8,1.7c6.4,1,12.8,1.6,19.2,2.1c5.7,0.4,11.5,0.6,17.2,0.6
				c7.9,0,15.7-0.4,23.6-1.1c8.6-0.8,17.1-1.9,25.6-3.3c3.8,0.6,7.6,1.4,11.2,2.5c0,0,0,0,0.1,0c0,0,0,0-0.1,0c0.1,0,0.1,0,0.2,0.1
				c-0.1,0-0.1,0-0.2,0c0.1,0,0.1,0,0.2,0.1c2.5,0.8,5,1.8,7.5,2.8c0.2,0.3,0.3,0.6,0.5,0.8c0,0,0,0,0,0c0.9,1.8,1.6,3.8,2.2,5.8
				c0.7,2.2,1.2,4.4,1.7,6.7c0.8,3.6,1.6,7.2,2.4,10.8c0.9,3.6,1.9,7.2,3,10.8c1.1,3.4,2.2,6.8,3.7,10c1.3,3,2.9,5.9,4.9,8.4
				c1.8,2.3,4,4.2,6.6,5.6c2.1,1,4.4,1.5,6.7,1.5c0.6,0,1.2,0,1.8-0.1c0.8-0.1,1.5-0.2,2.3-0.4c0.4-0.1,0.9-0.2,1.3-0.3
				c0.4-0.1,0.7-0.3,1-0.4c1.2-0.7,2.2-1.8,2.9-3c0.9-1.4,1.6-3,2.1-4.6c0.7-1.9,1.2-3.9,1.6-5.9c0.9-4.2,1.4-8.4,1.7-12.6
				c0.1-1.8,0.2-3.5,0.1-5.3c0-1.6-0.2-3.2-0.6-4.7c-0.4-2-1.1-4-2.1-5.8c-0.9-1.7-2-3.3-3.3-4.8c-2.7-2.9-6-5.2-9.5-6.9
				c-2.7-1.3-5.5-2.3-8.4-3.2c-3.1-0.9-6.2-1.6-9.3-2.3c-3.5-0.7-7-1.3-10.5-1.9c-0.5-0.3-1-0.5-1.6-0.8c-2.5-1.1-5.1-2-7.8-2.7
				c-1.8-0.5-3.7-0.8-5.6-1.1c2.4-0.4,4.7-0.8,7.1-1.3c15.7-2.9,31.4-6.3,47-9.4c4,0.5,7.9,1.2,11.9,1.9c3.4,0.7,6.7,1.4,10,2.2
				c3.4,0.8,6.8,1.7,10.2,2.8c0,0-0.1,0-0.1,0c0.4,0.1,0.8,0.3,1.3,0.4c1,2.2,2,4.4,3,6.7c1.4,3.2,2.6,6.3,3.9,9.5
				c1.1,2.9,2.2,5.9,3.3,8.8c1,2.5,2.1,5,3.2,7.5c2.2,4.8,4.7,9.5,7.7,13.9c2.9,4.3,6.4,8.3,10.3,11.7c3.8,3.3,8.2,6.1,12.8,8.3
				c1.7,0.8,3.5,1.6,5.3,2.2c2.3,0.8,4.7,1.5,7.1,2c1.5,0.3,3.1,0.5,4.7,0.5c0.7,0,1.4,0,2.1-0.1c2.1-0.2,4.3-1,5.9-2.4
				c0.5-0.4,0.9-0.9,1.4-1.4c0.4-0.6,0.8-1.2,1.1-1.8c0.3-0.6,0.5-1.3,0.6-1.9c0.1-0.6,0.1-1.3,0.2-1.9c0-1.3-0.3-2.6-0.6-3.8
				c-0.3-1.3-0.7-2.5-1-3.8c-0.2-1-0.3-1.9-0.4-2.9c-0.1-1.1-0.1-2.2-0.2-3.3c-0.1-2,0-3.9,0-5.9c0,0,0,0.1,0,0.1
				c0.2-4.1,0.5-8.2,0.2-12.2c-0.1-1.9-0.4-3.8-0.9-5.7c-0.5-1.9-1.3-3.7-2.4-5.4c-1.2-1.9-2.7-3.6-4.3-5.2c-2-2-4.4-3.6-6.7-5.1
				c-2.8-1.8-5.8-3.2-8.9-4.4c-2.9-1.1-5.9-1.9-9-2.5c-4-0.8-8.1-1.1-12.2-1.4c-4.2-0.2-8.3-0.3-12.5-0.5c0,0,0,0,0,0
				c-3.1-0.1-6.3-0.3-9.4-0.7c-2.6-1-5.2-1.9-7.9-2.8c-4.1-1.3-8.4-2.4-12.6-3.2c-3.8-0.7-7.7-1.1-11.5-1.3
				c7.9-1.5,15.8-2.9,23.7-4.1c4.3-0.7,8.6-1.3,12.9-1.7c4.1-0.4,8.2-0.7,12.3-0.9c8.2-0.4,16.5-0.3,24.7-0.1c1.4,0,2.8,0.1,4.1,0.2
				c1.4,0.7,2.7,1.4,4.1,2.1c3,1.6,5.9,3.4,8.8,5.2c2.9,1.8,5.8,3.7,8.7,5.6c2.8,1.9,5.7,3.7,8.5,5.6c-0.1-0.1-0.2-0.2-0.4-0.2
				c3,2,5.9,4,8.9,5.9c0.2,0.1,0.3,0.2,0.5,0.3c8.8,5.8,17.8,11.4,27.7,15.2c4.9,1.9,10,3.3,15.3,4c2.8,0.4,5.5,0.6,8.3,0.6
				c0.5,0,0.9,0,1.4,0c2.5,0,5-0.1,7.4-0.3c5.4-0.4,10.7-1.4,15.9-2.8c4.8-1.4,9.4-3.3,13.8-5.6c8.9-4.7,16.6-11.3,23.7-18.4
				c1.8-1.8,3.6-3.7,5.4-5.6c0.9-1,1.8-2,2.7-3c0.6-0.6,1.2-1.3,1.8-1.8c2.9-2.5,6.2-4.4,9.5-6.3c3.5-2,7-4,10.3-6.4
				c1.4-1.1,2.8-2.2,4-3.6c0.5-0.6,1-1.3,1.4-1.9c0.5-0.7,0.7-1.4,1-2.2C799.3,106,799.3,104.4,798.9,102.9z M578.1,93.4
				c2.6-3.2,4.8-6.9,6.7-10.6c2-3.9,3.7-7.9,5.5-11.8c1.7-3.7,3.6-7.3,5.8-10.7c2.9-4.3,6.2-8.3,10.1-11.8c1.7-1.5,3.4-2.8,5.2-4.1
				c1.9-1.3,4-2.5,6.1-3.6c4.7-2.3,9.7-4,14.9-5c0,0-0.1,0-0.1,0l0.3-0.1c0,0,0,0,0,0c0,0,0,0,0,0c0,0,0,0,0,0
				c5.3-1,10.8-1.3,16.2-1c3.3,0.2,6.6,0.7,9.9,1.4c2,0.4,4.1,0.8,6.1,1.2c4.5,0.8,9.1,1.7,13.5,3.2c2.2,0.8,4.4,1.6,6.3,2.9
				c0.9,0.6,1.7,1.2,2.4,2c0.3,0.4,0.6,0.8,0.8,1.2c0.1,0.3,0.2,0.6,0.3,0.9c0.1,0.4,0.1,0.9,0.1,1.3c-0.1,0.6-0.2,1.1-0.4,1.7
				c-0.4,1.2-1,2.3-1.7,3.3c-2.3,3.4-5.3,6.3-8.4,9.1c-2.8,2.5-5.7,4.8-8.5,7.3c-0.6,0.5-1.2,1-1.7,1.5c-0.8,0.8-1.6,1.6-2.4,2.3
				c-1.9,1.9-3.9,3.8-6,5.7c-2.7,2.4-5.4,4.6-8.3,6.7c-3,2.2-6.3,4.1-9.6,5.8c-5,2.4-10.2,4.3-15.6,5.5c-4.5,0.9-9.2,1.2-13.8,1.3
				c-2.6,0-5.2,0-7.7,0c-2.2,0-4.4-0.1-6.6-0.1c-2.4,0-4.8,0.1-7.2,0.2c-2.6,0.1-5.1,0.2-7.7,0.5c-2.6,0.2-5.1,0.6-7.6,1
				c-0.4,0.1-0.9,0.2-1.3,0.3c2-1.3,4-2.6,6.1-3.9c4.8-3.1,9.6-6.3,14.5-9.4c9.6-6.2,19.3-12.2,29.4-17.7c2.2-1.2,4.4-2.4,6.6-3.5
				c0,0,0,0,0,0c12.1-6,24.7-10.9,37.9-13.8c0,0,0-0.1,0-0.1c-5.6,0.9-11,2.2-16.4,3.8c-5.4,1.6-10.7,3.6-15.9,5.9
				c-5.2,2.2-10.2,4.7-15.2,7.3c-2.5,1.3-5,2.7-7.5,4.1c-2.5,1.4-5,2.9-7.4,4.3c-4.9,2.9-9.8,6-14.7,9c-2.4,1.5-4.9,3-7.3,4.6
				c-2.4,1.5-4.9,3.1-7.3,4.6c-0.7,0.4-1.4,0.8-2,1.2C575.6,96.2,576.9,94.8,578.1,93.4z M503.2,107.8c1.8-2.9,3-6.1,4.1-9.2
				c1.1-3.1,2.1-6.3,3.5-9.3c1.4-3.1,3-6.1,4.8-9c0,0,0,0,0,0c0,0,0,0,0,0c0,0,0,0,0,0c0,0,0-0.1,0.1-0.1c0,0,0,0,0,0
				c2.1-3.1,4.4-5.9,7.1-8.4c0,0,0,0,0,0c1.9-1.7,4.1-3.2,6.4-4.4c1.9-0.9,3.8-1.6,5.9-2c1-0.2,2.1-0.2,3.1-0.3c1.5,0,3.1,0,4.6,0.1
				c0,0-0.1,0-0.1,0c2.6,0.2,5.2,0.5,7.8,1c2.6,0.5,5.2,1.1,7.7,1.9c1.7,0.6,3.3,1.3,4.8,2.3c0.6,0.4,1.1,0.8,1.6,1.4
				c0.3,0.4,0.6,0.8,0.9,1.2c0.1,0.3,0.2,0.5,0.3,0.8c0.1,0.4,0.1,0.9,0.1,1.3c0,0.6-0.2,1.2-0.4,1.9c-0.3,0.9-0.7,1.7-1.2,2.4
				c-1.1,1.6-2.4,3-3.8,4.3c-4.2,3.7-9.1,6.6-14,9.1c0,0,0.1,0,0.1-0.1c-2.4,1.2-4.9,2.3-7.5,3.3c-1.2,0.5-2.5,0.8-3.7,1.3
				c-2.5,0.8-5,1.7-7.5,2.7c-4.8,1.9-9.5,4.2-14.2,6.4c-2.4,1.1-4.7,2.3-7.1,3.4c-0.9,0.4-1.8,0.9-2.7,1.3c1.4-1.3,2.9-2.6,4.2-4
				c5.6-5.5,11-11.3,16.9-16.6c0,0,0,0,0,0c2.5-2.2,5-4.3,7.7-6.2c2.7-2,5.6-3.7,8.6-5.2c0,0,0,0,0,0c0.9-0.5,1.9-0.9,2.8-1.3
				c0,0,0-0.1,0-0.1c-3.8,1.4-7.5,3.2-10.9,5.4c-3.6,2.2-6.9,4.8-10.1,7.5c-6.3,5.4-12.1,11.4-18.3,16.9c0,0,0,0,0.1-0.1
				c-1.2,1-2.4,2-3.6,3C501.9,109.6,502.6,108.7,503.2,107.8z M493,145.6c4.4,1,8.8,2,13.1,3.3c0,0,0.1,0,0.1,0
				c4.4,1.4,8.7,3.1,12.6,5.6c0,0,0,0,0,0c0,0,0,0,0,0c0,0,0,0,0,0c0,0,0,0,0,0c0,0,0,0,0,0c2,1.3,3.8,2.8,5.4,4.5
				c1.2,1.4,2.3,2.9,3.2,4.6c0.8,1.6,1.4,3.2,1.8,4.9c0.3,1.3,0.5,2.5,0.5,3.8c0.1,1.1,0,2.3,0,3.4c0,0,0,0,0,0c0,0,0,0,0,0
				c0,0,0,0,0,0c0,0,0,0,0,0.1v0c-0.1,3-0.4,5.9-0.9,8.9c-0.5,3.2-1.2,6.3-2.1,9.3c0,0,0,0,0-0.1c0,0.1,0,0.1-0.1,0.2c0,0,0,0,0,0
				c0,0,0,0.1,0,0.1c0,0,0,0,0,0c-0.7,2.2-1.5,4.3-2.7,6.3c-0.4,0.6-0.9,1.2-1.4,1.7c-0.3,0.2-0.5,0.4-0.8,0.6
				c-0.2,0.1-0.4,0.2-0.7,0.2c-1.4,0.3-2.8,0.5-4.2,0.4c-1.2-0.1-2.3-0.2-3.5-0.6c-1-0.3-1.9-0.8-2.8-1.3c-1-0.7-1.9-1.5-2.7-2.4
				c-1.4-1.6-2.5-3.3-3.4-5.1c0,0,0,0,0-0.1c0,0,0,0,0,0.1c0,0,0-0.1,0-0.1c0-0.1-0.1-0.2-0.1-0.3c0,0.1,0.1,0.1,0.1,0.2
				c-3.1-6.2-4.9-12.9-6.6-19.6c-1.8-6.9-3.7-13.8-6.8-20.3c-1-2.2-2.2-4.3-3.6-6.2c-0.3-0.4-0.7-0.9-1.1-1.3c0.1,0,0.1,0,0.2,0.1
				c3,1.3,5.9,2.9,8.7,4.7c5.2,3.3,10,7.3,14.1,11.8c0,0,0,0,0,0c3.5,3.9,6.5,8.2,8.9,12.9c0.3,0.6,0.6,1.2,0.9,1.8c0,0,0,0,0,0
				c0,0,0,0,0,0c-2-5-4.7-9.6-7.9-14c-3.2-4.4-6.9-8.4-11.1-11.9c-2.1-1.7-4.4-3.3-6.7-4.8c-1.3-0.8-2.7-1.6-4.1-2.3
				C490.5,145.1,491.8,145.3,493,145.6z M577.8,137.2c4.3,0.3,8.7,0.5,13,1c4.5,0.5,8.9,1.3,13.2,2.6c3.9,1.3,7.6,3,11,5.1
				c2.8,1.9,5.5,3.9,7.8,6.4c1.2,1.3,2.2,2.7,3,4.3c0,0,0-0.1-0.1-0.1c0,0.1,0.1,0.1,0.1,0.2c0,0,0,0.1,0.1,0.1c0,0,0,0,0-0.1
				c0.7,1.4,1.2,2.9,1.6,4.4c0.6,2.7,0.6,5.4,0.6,8.1c-0.2,3.8-0.5,7.5-0.7,11.2c-0.1,2.2-0.1,4.3,0,6.5c0.1,1.2,0.2,2.4,0.4,3.6
				c0.2,1.2,0.6,2.4,0.8,3.6c0,0,0-0.1,0-0.1c0,0,0,0.1,0,0.1c0,0,0,0,0,0c0,0.1,0,0.2,0.1,0.3c0-0.1,0-0.1,0-0.2
				c0.2,1.2,0.4,2.3,0.4,3.5c0,0.5-0.1,0.9-0.2,1.4c-0.2,0.5-0.4,0.9-0.6,1.3c-0.3,0.5-0.7,0.9-1.2,1.3c-0.4,0.3-0.8,0.6-1.2,0.8
				c-0.6,0.3-1.2,0.5-1.8,0.6c-1.1,0.2-2.2,0.3-3.4,0.3c-2.7-0.1-5.3-0.7-7.9-1.5c-4.7-1.5-9.1-3.6-13.3-6.2c0.1,0,0.1,0.1,0.2,0.1
				c-0.1,0-0.2-0.1-0.2-0.1c0,0-0.1,0-0.1-0.1l0,0c0,0,0,0,0,0c-3.9-2.5-7.4-5.5-10.5-9c-4.1-4.6-7.4-9.8-10.2-15.3
				c-1.4-2.7-2.6-5.5-3.9-8.2c-1.4-3.1-2.8-6.2-4.1-9.3c-1.6-3.6-3.3-7.2-5.2-10.7c-0.9-1.7-1.9-3.3-2.9-4.9c-0.4-0.7-0.9-1.3-1.4-2
				c4.8,1.6,9.5,3.4,14.1,5.6c5.4,2.5,10.6,5.3,15.6,8.5c-0.1,0-0.1-0.1-0.2-0.1c7.8,5,15.1,10.8,21.4,17.6l-0.1-0.1
				c2.1,2.3,4,4.7,5.8,7.3c0,0,0,0,0,0c0,0,0,0,0,0c-5.4-8.7-12.7-16.2-20.8-22.4c-4.3-3.3-8.9-6.2-13.6-8.9
				c-2.4-1.4-4.8-2.7-7.3-3.9c-2.5-1.2-5-2.3-7.6-3.4c-0.3-0.1-0.6-0.2-0.9-0.3C571.1,136.7,574.5,137,577.8,137.2z M795.4,106.9
				c-0.2,0.6-0.5,1.1-0.8,1.7c-0.7,1-1.5,1.8-2.4,2.6c-2.6,2.2-5.5,4-8.4,5.8c-3.2,1.9-6.5,3.7-9.7,5.8c-1.4,1-2.8,2-4.1,3.2
				c-0.6,0.5-1.1,1.1-1.7,1.7c-0.9,1-1.8,2-2.7,3c-3.4,3.6-6.8,7-10.5,10.3c-3,2.6-6,5.1-9.3,7.4c-3.1,2.2-6.5,4.2-9.9,5.9
				c-5.6,2.7-11.4,4.7-17.5,5.9c-3.4,0.6-6.8,1.1-10.3,1.3c-3.7,0.2-7.5,0.3-11.2,0.1c-5.2-0.4-10.4-1.5-15.4-3.2
				c-9.6-3.3-18.3-8.5-26.7-14.1c-3.9-2.6-7.7-5.2-11.5-7.8c-4-2.7-8-5.4-12.2-7.8c-4-2.3-8.2-4.3-12.5-5.9c-1.3-0.5-2.6-0.9-4-1.4
				c5.5,0.3,11.1,0.6,16.6,1l-0.3,0c24.3,1.8,48.6,4.1,72.9,3.7c11.6-0.2,23.3-1.2,34.7-3.4c5.7-1.1,11.3-2.6,16.7-4.4
				c5.3-1.8,10.4-3.9,15.4-6.4c1.2-0.6,2.5-1.3,3.7-2c0,0,0-0.1,0-0.1c-5.4,2.6-11,4.9-16.7,6.7c-5.7,1.8-11.4,3.3-17.3,4.4
				c0,0,0,0,0,0c-0.1,0-0.1,0-0.2,0l0,0c-22.8,4.4-46.2,3.8-69.3,2.2c0.1,0,0.2,0,0.3,0c-12.3-0.9-24.5-2.1-36.8-3.2
				c-2.1-0.2-4.2-0.4-6.3-0.5c7-0.7,13.9-2.8,20.5-5.5c5.4-2.2,10.7-4.8,15.9-7.6c5.3-2.8,10.5-5.7,15.8-8.6c3.8-2.1,7.6-4.1,11.4-6
				c4.1-2.1,8.4-4,12.7-5.6c3.7-1.3,7.5-2.4,11.3-3.1c9.4-1.8,19-2.2,28.5-1.5c0,0-0.1,0-0.1,0c0.1,0,0.2,0,0.3,0c0,0,0.1,0,0.1,0
				l-0.1,0c8.6,0.7,17.2,2.3,25.4,5c5.3,1.8,10.3,4.2,15,7.2c1.6,1.1,3.1,2.2,4.6,3.4c1.4,1.2,2.8,2.4,4,3.7
				c0.6,0.7,1.1,1.3,1.5,2.1c0.2,0.5,0.4,0.9,0.5,1.4c0.1,0.4,0.1,0.8,0.1,1.2C795.6,106.1,795.6,106.5,795.4,106.9z"/>
			<path class="st1" d="M654.6,109.6c-0.1,0-0.1,0.1-0.2,0.1C654.5,109.6,654.5,109.6,654.6,109.6
				C654.6,109.6,654.6,109.6,654.6,109.6z"/>
			<path class="st1" d="M744.6,81.5c-0.1,0-0.2,0-0.2,0C744.4,81.5,744.5,81.5,744.6,81.5C744.6,81.5,744.6,81.5,744.6,81.5z"/>
			<path class="st1" d="M546.4,113.2C546.4,113.2,546.4,113.2,546.4,113.2C546.4,113.2,546.4,113.2,546.4,113.2
				C546.4,113.2,546.4,113.2,546.4,113.2z"/>
			<path class="st1" d="M546,113.4c0.1,0,0.2-0.1,0.3-0.1c0,0,0,0,0,0C546.2,113.3,546.1,113.3,546,113.4z"/>
			<path class="st1" d="M473.5,127.7c-0.1,0-0.2,0.1-0.2,0.1C473.3,127.8,473.4,127.8,473.5,127.7
				C473.5,127.7,473.5,127.7,473.5,127.7z"/>
			<polygon class="st1" points="473.5,127.7 473.5,127.7 473.5,127.7 			"/>
			<path class="st1" d="M506.3,149C506.3,149,506.3,149,506.3,149C506.3,149,506.2,149,506.3,149C506.2,149,506.3,149,506.3,149z"/>
			<path class="st1" d="M526.7,194.3C526.7,194.3,526.7,194.2,526.7,194.3C526.7,194.2,526.7,194.2,526.7,194.3L526.7,194.3z"/>
			<path class="st1" d="M529.7,175.9C529.7,175.9,529.7,175.9,529.7,175.9C529.7,175.9,529.7,175.9,529.7,175.9
				C529.7,175.9,529.7,175.9,529.7,175.9z"/>
			<path class="st1" d="M506.2,149C506.2,149,506.2,149,506.2,149C506.1,149,506.1,149,506.2,149C506.2,149,506.2,149,506.2,149z"/>
			<path class="st1" d="M526.7,194.2C526.7,194.2,526.7,194.1,526.7,194.2C526.7,194.1,526.7,194.2,526.7,194.2
				C526.7,194.2,526.7,194.2,526.7,194.2z"/>
			<path class="st1" d="M504.4,194.1C504.4,194.1,504.4,194.1,504.4,194.1c0,0,0-0.1-0.1-0.1C504.3,194,504.3,194,504.4,194.1z"/>
			<path class="st1" d="M599.5,195.9C599.6,195.9,599.6,195.9,599.5,195.9C599.5,195.9,599.5,195.9,599.5,195.9
				C599.5,195.9,599.5,195.9,599.5,195.9z"/>
			<path class="st1" d="M628.7,194.4C628.7,194.4,628.7,194.4,628.7,194.4C628.6,194.3,628.6,194.3,628.7,194.4
				C628.7,194.4,628.7,194.4,628.7,194.4z"/>
			<path class="st1" d="M628.6,194.3C628.6,194.3,628.6,194.3,628.6,194.3C628.6,194.3,628.6,194.3,628.6,194.3
				C628.6,194.3,628.6,194.3,628.6,194.3z"/>
			<path class="st1" d="M625.8,156.7C625.8,156.7,625.8,156.7,625.8,156.7C625.8,156.7,625.8,156.7,625.8,156.7
				C625.8,156.8,625.8,156.7,625.8,156.7z"/>
			<path class="st1" d="M632.5,35.8C632.5,35.8,632.5,35.8,632.5,35.8C632.5,35.8,632.5,35.8,632.5,35.8L632.5,35.8z"/>
			<path class="st1" d="M632.5,35.8c-0.1,0-0.1,0-0.2,0C632.4,35.8,632.4,35.8,632.5,35.8L632.5,35.8z"/>
			<path class="st1" d="M515.6,80.1C515.6,80.2,515.6,80.2,515.6,80.1C515.6,80.2,515.6,80.2,515.6,80.1
				C515.6,80.2,515.6,80.2,515.6,80.1z"/>
			<path class="st1" d="M515.6,80.2C515.6,80.2,515.6,80.2,515.6,80.2C515.6,80.2,515.6,80.2,515.6,80.2
				C515.6,80.2,515.6,80.2,515.6,80.2z"/>
			<path class="st1" d="M602,66.1c1.2,0,2.2-1.3,2.1-2.5c-0.1-0.6-0.4-1.2-0.8-1.6c-0.5-0.4-1-0.5-1.6-0.5c-1.2,0-2.2,1.3-2.1,2.5
				c0.1,0.6,0.4,1.2,0.8,1.6C600.8,66,601.4,66.1,602,66.1z"/>
			<path class="st1" d="M608.9,54.7c1,0,1.8-1.1,1.7-2c0-0.5-0.3-1-0.7-1.3c-0.4-0.3-0.8-0.4-1.3-0.4c-1,0-1.8,1.1-1.7,2
				c0,0.5,0.3,1,0.7,1.3C608,54.6,608.4,54.7,608.9,54.7z"/>
			<path class="st1" d="M610.1,58.5c0,0.3,0.2,0.5,0.4,0.7c0.2,0.2,0.4,0.2,0.7,0.2c0.5,0,0.9-0.6,0.9-1c0-0.3-0.1-0.5-0.4-0.7
				c-0.2-0.2-0.4-0.2-0.7-0.2C610.5,57.5,610.1,58,610.1,58.5z"/>
			<path class="st1" d="M622.1,50.8c0.7,0,1.3-0.8,1.2-1.4c0-0.4-0.2-0.7-0.5-0.9c-0.3-0.2-0.6-0.3-1-0.3c-0.7,0-1.3,0.8-1.2,1.4
				c0,0.4,0.2,0.7,0.5,0.9C621.4,50.7,621.7,50.8,622.1,50.8z"/>
			<path class="st1" d="M637.9,43.6c0.7,0,1.3-0.8,1.2-1.4c0-0.4-0.2-0.7-0.5-0.9c-0.3-0.2-0.6-0.3-1-0.3c-0.7,0-1.3,0.8-1.2,1.4
				c0,0.4,0.2,0.7,0.5,0.9C637.2,43.6,637.5,43.6,637.9,43.6z"/>
			<path class="st1" d="M643.4,50.7c0.8,0,1.5-0.9,1.4-1.7c0-0.4-0.2-0.8-0.6-1.1c-0.3-0.3-0.7-0.3-1.1-0.3c-0.8,0-1.5,0.9-1.4,1.7
				c0,0.4,0.2,0.8,0.6,1.1C642.6,50.6,643,50.7,643.4,50.7z"/>
			<path class="st1" d="M631.1,48.3c0.5,0,0.9-0.5,0.8-1c0-0.2-0.1-0.5-0.3-0.6c-0.2-0.2-0.4-0.2-0.6-0.2c-0.5,0-0.9,0.5-0.8,1
				c0,0.2,0.1,0.5,0.3,0.6C630.6,48.2,630.8,48.3,631.1,48.3z"/>
			<path class="st1" d="M653,42.9c0.7,0,1.2-0.7,1.2-1.4c0-0.3-0.2-0.7-0.5-0.9c-0.3-0.2-0.6-0.3-0.9-0.3c-0.7,0-1.2,0.7-1.2,1.4
				c0,0.3,0.2,0.7,0.5,0.9C652.3,42.9,652.6,42.9,653,42.9z"/>
			<path class="st1" d="M624.2,90.1c-0.5,0-0.9,0.5-0.8,1c0,0.2,0.1,0.5,0.3,0.6c0.2,0.2,0.4,0.2,0.7,0.2c0.5,0,0.9-0.5,0.8-1
				c0-0.2-0.1-0.5-0.3-0.6C624.6,90.2,624.4,90.1,624.2,90.1z"/>
			<path class="st1" d="M639.9,83.3c-0.3,0-0.6,0.4-0.6,0.7c0,0.2,0.1,0.3,0.2,0.4c0.1,0.1,0.3,0.1,0.4,0.1c0.3,0,0.6-0.4,0.6-0.7
				c0-0.2-0.1-0.3-0.2-0.4C640.2,83.4,640.1,83.3,639.9,83.3z"/>
			<path class="st1" d="M636.7,87.6c-0.6,0-1,0.6-1,1.2c0,0.3,0.2,0.6,0.4,0.7c0.2,0.2,0.5,0.2,0.8,0.2c0.6,0,1-0.6,1-1.2
				c0-0.3-0.2-0.6-0.4-0.7C637.2,87.7,637,87.6,636.7,87.6z"/>
			<path class="st1" d="M633.2,80.5c-0.7,0-1.3,0.8-1.2,1.4c0,0.4,0.2,0.7,0.5,0.9c0.3,0.2,0.6,0.3,1,0.3c0.7,0,1.3-0.8,1.2-1.4
				c0-0.4-0.2-0.7-0.5-0.9C633.9,80.5,633.6,80.5,633.2,80.5z"/>
			<path class="st1" d="M616.9,90.2c-0.5,0-0.9,0.6-0.9,1c0,0.2,0.2,0.5,0.3,0.7c0.2,0.2,0.4,0.2,0.7,0.2c0.5,0,0.9-0.6,0.9-1
				c0-0.2-0.1-0.5-0.3-0.7C617.4,90.3,617.2,90.2,616.9,90.2z"/>
			<path class="st1" d="M685.1,145.6c-1.6,0-2.7,1.7-2.6,3.1c0.1,0.8,0.4,1.5,1,2c0.6,0.5,1.3,0.6,2.1,0.6c1.6,0,2.7-1.7,2.6-3.1
				c-0.1-0.8-0.4-1.5-1-2C686.6,145.8,685.9,145.6,685.1,145.6z"/>
			<path class="st1" d="M704.2,139.2c-1.2,0-2,1.2-1.9,2.3c0,0.6,0.3,1.1,0.8,1.5c0.5,0.4,1,0.5,1.5,0.5c1.2,0,2-1.2,1.9-2.3
				c0-0.6-0.3-1.1-0.8-1.5C705.3,139.3,704.7,139.2,704.2,139.2z"/>
			<path class="st1" d="M701.4,149.4c-0.8,0-1.4,0.8-1.3,1.6c0,0.4,0.2,0.8,0.5,1c0.3,0.3,0.7,0.3,1.1,0.3c0.8,0,1.4-0.8,1.3-1.6
				c0-0.4-0.2-0.8-0.5-1C702.1,149.5,701.8,149.4,701.4,149.4z"/>
			<path class="st1" d="M714.6,149.3c-0.9,0-1.6,1-1.6,1.9c0,0.5,0.3,0.9,0.6,1.2c0.4,0.3,0.8,0.4,1.2,0.4c0.9,0,1.6-1,1.6-1.9
				c0-0.5-0.3-0.9-0.6-1.2C715.4,149.4,715,149.3,714.6,149.3z"/>
			<path class="st1" d="M732,141.7c-1.1,0-1.9,1.1-1.8,2.1c0.1,0.5,0.3,1,0.7,1.4c0.4,0.3,0.9,0.4,1.4,0.4c1.1,0,1.9-1.1,1.8-2.1
				c-0.1-0.5-0.3-1-0.7-1.4C733.1,141.8,732.6,141.7,732,141.7z"/>
			<path class="st1" d="M746.1,134.9c-0.7,0-1.2,0.7-1.1,1.3c0,0.3,0.2,0.6,0.4,0.9c0.3,0.2,0.6,0.3,0.9,0.3c0.7,0,1.2-0.7,1.1-1.3
				c0-0.3-0.2-0.6-0.4-0.9C746.7,134.9,746.4,134.9,746.1,134.9z"/>
			<path class="st1" d="M727.8,151c-0.3,0-0.6,0.4-0.6,0.7c0,0.2,0.1,0.3,0.2,0.4c0.1,0.1,0.3,0.1,0.4,0.1c0.3,0,0.6-0.4,0.6-0.7
				c0-0.2-0.1-0.3-0.2-0.4C728.1,151,727.9,151,727.8,151z"/>
			<path class="st1" d="M723.1,144.1c-0.5,0-0.9,0.5-0.8,1c0,0.2,0.1,0.5,0.3,0.6c0.2,0.2,0.4,0.2,0.7,0.2c0.5,0,0.9-0.5,0.8-1
				c0-0.2-0.1-0.5-0.3-0.6C723.5,144.1,723.3,144.1,723.1,144.1z"/>
			<path class="st1" d="M742.1,88.8c-1.2,0-2,1.2-1.9,2.3c0,0.6,0.3,1.1,0.8,1.5c0.5,0.4,1,0.5,1.5,0.5c1.2,0,2-1.2,1.9-2.3
				c0-0.6-0.3-1.1-0.8-1.5C743.2,88.9,742.7,88.8,742.1,88.8z"/>
			<path class="st1" d="M759.4,90.1c0-0.4-0.2-0.8-0.6-1c-0.3-0.3-0.7-0.3-1.1-0.3c-0.8,0-1.5,0.9-1.4,1.6c0,0.4,0.2,0.8,0.6,1
				c0.3,0.3,0.7,0.3,1.1,0.3C758.8,91.8,759.4,90.9,759.4,90.1z"/>
			<path class="st1" d="M759.3,94.4c-0.6,0-1.1,0.6-1,1.2c0,0.3,0.2,0.6,0.4,0.8c0.2,0.2,0.5,0.2,0.8,0.2c0.6,0,1.1-0.6,1-1.2
				c0-0.3-0.2-0.6-0.4-0.8C759.9,94.5,759.6,94.4,759.3,94.4z"/>
			<path class="st1" d="M774.2,94.9c-1.2,0-2.1,1.3-2,2.4c0.1,0.6,0.3,1.1,0.8,1.5c0.5,0.4,1,0.5,1.6,0.5c1.2,0,2.1-1.3,2-2.4
				c-0.1-0.6-0.3-1.1-0.8-1.5C775.3,95,774.8,94.9,774.2,94.9z"/>
			<path class="st1" d="M752.5,99.1c-0.8,0-1.4,0.9-1.3,1.6c0,0.4,0.2,0.8,0.5,1c0.3,0.3,0.7,0.3,1.1,0.3c0.8,0,1.4-0.9,1.3-1.6
				c0-0.4-0.2-0.8-0.5-1C753.2,99.2,752.9,99.1,752.5,99.1z"/>
			<path class="st1" d="M729.2,90.9c-1,0-1.7,1-1.6,1.9c0,0.5,0.3,0.9,0.7,1.2c0.4,0.3,0.8,0.4,1.3,0.4c1,0,1.7-1,1.6-1.9
				c0-0.5-0.3-0.9-0.7-1.2C730.1,90.9,729.7,90.9,729.2,90.9z"/>
			<path class="st1" d="M586.9,169c-0.9,0-1.6,0.9-1.5,1.8c0,0.4,0.3,0.8,0.6,1.1c0.4,0.3,0.7,0.4,1.2,0.4c0.9,0,1.5-0.9,1.5-1.8
				c0-0.4-0.3-0.8-0.6-1.1C587.7,169.1,587.4,169,586.9,169z"/>
			<path class="st1" d="M598.9,170.3c-0.6,0-1.1,0.7-1,1.2c0,0.3,0.2,0.6,0.4,0.8c0.2,0.2,0.5,0.3,0.8,0.3c0.6,0,1.1-0.7,1-1.2
				c0-0.3-0.2-0.6-0.4-0.8C599.4,170.3,599.2,170.3,598.9,170.3z"/>
			<path class="st1" d="M592,178.8c-0.6,0-1.1,0.6-1,1.2c0,0.3,0.2,0.6,0.4,0.8c0.2,0.2,0.5,0.2,0.8,0.2c0.6,0,1.1-0.6,1-1.2
				c0-0.3-0.2-0.6-0.4-0.8C592.6,178.9,592.3,178.8,592,178.8z"/>
			<path class="st1" d="M603.4,187.2c-0.6,0-1.1,0.7-1,1.2c0,0.3,0.2,0.6,0.4,0.8c0.2,0.2,0.5,0.2,0.8,0.2c0.6,0,1.1-0.7,1-1.2
				c0-0.3-0.2-0.6-0.4-0.8C604,187.2,603.7,187.2,603.4,187.2z"/>
			<path class="st1" d="M615.4,191.1c-0.6,0-1,0.6-1,1.1c0,0.3,0.2,0.5,0.4,0.7c0.2,0.2,0.5,0.2,0.8,0.2c0.6,0,1-0.6,1-1.1
				c0-0.3-0.2-0.5-0.4-0.7C615.9,191.2,615.7,191.1,615.4,191.1z"/>
			<path class="st1" d="M605.8,179.6c-0.5,0-0.9,0.6-0.9,1c0,0.3,0.2,0.5,0.4,0.7c0.2,0.2,0.4,0.2,0.7,0.2c0.5,0,0.9-0.6,0.9-1
				c0-0.3-0.1-0.5-0.4-0.7C606.3,179.6,606.1,179.6,605.8,179.6z"/>
			<path class="st1" d="M594.9,184.7c-0.8,0-1.3,0.8-1.3,1.5c0,0.4,0.2,0.7,0.5,1c0.3,0.2,0.6,0.3,1,0.3c0.8,0,1.3-0.8,1.3-1.5
				c0-0.4-0.2-0.7-0.5-1C595.6,184.8,595.3,184.7,594.9,184.7z"/>
			<path class="st1" d="M603.4,146.8c0.8,0,1.4-0.9,1.4-1.6c0-0.4-0.2-0.8-0.5-1c-0.3-0.3-0.7-0.3-1.1-0.3c-0.8,0-1.4,0.9-1.4,1.6
				c0,0.4,0.2,0.8,0.5,1C602.7,146.8,603,146.8,603.4,146.8z"/>
			<path class="st1" d="M614.4,149.6c0.5,0,0.9-0.6,0.9-1.1c0-0.3-0.2-0.5-0.4-0.7c-0.2-0.2-0.4-0.2-0.7-0.2c-0.5,0-0.9,0.6-0.9,1.1
				c0,0.3,0.2,0.5,0.4,0.7C613.9,149.5,614.1,149.6,614.4,149.6z"/>
			<path class="st1" d="M609.5,152.6c0.3,0,0.6-0.4,0.6-0.7c0-0.2-0.1-0.3-0.2-0.4c-0.1-0.1-0.3-0.1-0.4-0.1c-0.3,0-0.6,0.4-0.6,0.7
				c0,0.2,0.1,0.3,0.2,0.4C609.2,152.6,609.3,152.6,609.5,152.6z"/>
			<path class="st1" d="M543.2,85.2c0,0.4,0.2,0.7,0.5,0.9c0.3,0.2,0.6,0.3,1,0.3c0.7,0,1.3-0.8,1.2-1.5c0-0.4-0.2-0.7-0.5-0.9
				c-0.3-0.2-0.6-0.3-1-0.3C543.7,83.7,543.2,84.5,543.2,85.2z"/>
			<path class="st1" d="M554,80.7c0.9,0,1.6-1,1.6-1.9c0-0.5-0.3-0.9-0.6-1.2c-0.4-0.3-0.8-0.4-1.2-0.4c-0.9,0-1.6,1-1.6,1.9
				c0,0.5,0.3,0.9,0.6,1.2C553.1,80.6,553.5,80.7,554,80.7z"/>
			<path class="st1" d="M552.6,85c0.6,0,1-0.6,1-1.2c0-0.3-0.2-0.6-0.4-0.7c-0.2-0.2-0.5-0.2-0.8-0.2c-0.6,0-1,0.6-1,1.2
				c0,0.3,0.2,0.6,0.4,0.7C552,85,552.3,85,552.6,85z"/>
			<path class="st1" d="M561.6,78.8c0.5,0,1-0.6,0.9-1.1c0-0.3-0.2-0.5-0.4-0.7c-0.2-0.2-0.4-0.2-0.7-0.2c-0.5,0-1,0.6-0.9,1.1
				c0,0.3,0.2,0.5,0.4,0.7C561.1,78.8,561.4,78.8,561.6,78.8z"/>
			<path class="st1" d="M521,82.2c0.9,0,1.6-1,1.5-1.8c0-0.4-0.3-0.9-0.6-1.1c-0.4-0.3-0.7-0.4-1.2-0.4c-0.9,0-1.6,1-1.5,1.8
				c0,0.4,0.3,0.9,0.6,1.1C520.2,82.1,520.5,82.2,521,82.2z"/>
			<path class="st1" d="M528.1,73.8c0.4,0,0.6-0.4,0.6-0.7c0-0.2-0.1-0.4-0.2-0.5c-0.2-0.1-0.3-0.1-0.5-0.1c-0.4,0-0.6,0.4-0.6,0.7
				c0,0.2,0.1,0.4,0.2,0.5C527.8,73.7,527.9,73.8,528.1,73.8z"/>
			<path class="st1" d="M528,77c-0.3,0-0.6,0.4-0.6,0.7c0,0.2,0.1,0.3,0.2,0.4c0.1,0.1,0.3,0.1,0.4,0.1c0.3,0,0.6-0.4,0.6-0.7
				c0-0.2-0.1-0.3-0.2-0.4C528.4,77.1,528.2,77,528,77z"/>
			<path class="st1" d="M534.6,73.1c0.5,0,0.9-0.6,0.9-1.1c0-0.3-0.1-0.5-0.4-0.7c-0.2-0.2-0.4-0.2-0.7-0.2c-0.5,0-0.9,0.6-0.9,1.1
				c0,0.3,0.1,0.5,0.4,0.7C534.1,73.1,534.4,73.1,534.6,73.1z"/>
			<path class="st1" d="M504.1,173.7c-1.1,0-1.8,1.1-1.8,2.1c0,0.5,0.3,1,0.7,1.3c0.4,0.3,0.9,0.4,1.4,0.4c1.1,0,1.8-1.1,1.8-2.1
				c0-0.5-0.3-1-0.7-1.3C505.1,173.8,504.7,173.7,504.1,173.7z"/>
			<path class="st1" d="M512.2,174.7c-0.8,0-1.4,0.8-1.3,1.5c0,0.4,0.2,0.7,0.5,1c0.3,0.2,0.6,0.3,1,0.3c0.8,0,1.4-0.8,1.3-1.5
				c0-0.4-0.2-0.7-0.5-1C512.9,174.7,512.5,174.7,512.2,174.7z"/>
			<path class="st1" d="M507.2,181.6c-0.5,0-1,0.6-0.9,1.1c0,0.3,0.2,0.5,0.4,0.7c0.2,0.2,0.5,0.2,0.7,0.2c0.5,0,1-0.6,0.9-1.1
				c0-0.3-0.2-0.5-0.4-0.7C507.7,181.6,507.5,181.6,507.2,181.6z"/>
			<path class="st1" d="M511.4,189.8c-0.6,0-1.1,0.7-1,1.3c0,0.3,0.2,0.6,0.4,0.8c0.2,0.2,0.5,0.3,0.8,0.3c0.6,0,1.1-0.7,1-1.3
				c0-0.3-0.2-0.6-0.4-0.8C511.9,189.8,511.7,189.8,511.4,189.8z"/>
			<path class="st1" d="M515.4,183.6c-0.6,0-1,0.6-1,1.2c0,0.3,0.2,0.5,0.4,0.7c0.2,0.2,0.5,0.2,0.8,0.2c0.6,0,1-0.6,1-1.2
				c0-0.3-0.2-0.5-0.4-0.7C515.9,183.6,515.7,183.6,515.4,183.6z"/>
			<path class="st1" d="M514.7,194.8c-0.5,0-0.8,0.5-0.8,1c0,0.2,0.1,0.5,0.3,0.6c0.2,0.2,0.4,0.2,0.6,0.2c0.5,0,0.8-0.5,0.8-1
				c0-0.2-0.1-0.4-0.3-0.6C515.2,194.8,515,194.8,514.7,194.8z"/>
			<path class="st1" d="M503,167.8c0.3,0,0.6-0.4,0.6-0.7c0-0.2-0.1-0.3-0.2-0.4c-0.1-0.1-0.3-0.1-0.4-0.1c-0.3,0-0.6,0.4-0.6,0.7
				c0,0.2,0.1,0.3,0.2,0.4C502.7,167.8,502.9,167.8,503,167.8z"/>
		</g>
		<g>
			<path class="st2" d="M427.4,178.7c0.9-0.2,1.8-0.5,2.6-0.8c1.3-0.4,2.6-0.9,3.8-1.4c0.6-0.2,1.2-0.4,1.7-0.7c0.7-0.3,1.3-0.6,2-1
				c1.7-0.9,3.2-1.8,4.4-2.7c1.1-0.8,2.2-1.8,2.8-3.1c0.2-0.5,0.2-1.2,0-1.7c-0.3-0.7-1-1-1.5-1.2c-0.4-0.2-0.8-0.2-1.2-0.3
				c-0.7-0.1-1.3-0.2-2-0.2c-1.1,0-2.2,0.1-3.5,0.4l-0.5,0.1c-2.5,0.7-5,2-7.8,4c-0.5,0.4-1,0.8-1.5,1.2c-1.1,0.5-2.2,1-3.4,1.6
				c-0.8,0.4-1.6,0.8-2.3,1.3c-0.6,0.4-1.2,0.8-1.7,1.4c-0.4,0.5-0.6,0.9-0.6,1.4c0,0.5,0.2,1,0.8,1.4c0.3,0.2,0.6,0.3,1,0.5
				c0.5,0.2,1,0.3,1.4,0.3c0.6,0.1,1.2,0.1,1.8,0.1c0.7,0,1.4-0.1,2.1-0.2C426.5,178.9,426.9,178.8,427.4,178.7"/>
			<path class="st2" d="M428.8,208c0.6-0.1,1.1-0.6,1.4-1.2c0.3-0.5,0.5-1,0.6-1.7c0.2-0.9,0.3-1.8,0.4-2.8
				c0.1-3.6-1.3-7.5-4.2-11.8c-0.8-1.2-1.7-2.4-2.8-3.6c-0.2-0.7-0.4-1.3-0.7-1.9c-0.3-0.8-0.7-1.7-1-2.4c-0.4-0.8-0.8-1.5-1.3-2
				c-0.3-0.3-0.8-0.8-1.4-0.9c-0.2,0-0.4,0-0.7,0c-0.3,0.1-0.6,0.3-0.9,0.5c-0.4,0.4-0.7,1-0.9,1.7c-0.2,0.9-0.2,1.9-0.2,2.7
				c0.1,2.2,0.6,4.5,1.2,6.4c0.4,1.5,0.9,3.2,1.6,5c0.4,1.1,0.9,2.2,1.4,3.3c0.8,1.7,1.6,3.2,2.4,4.5c0.8,1.3,1.5,2.2,2.2,3
				c0.6,0.6,1.3,1.3,2.3,1.4C428.4,208,428.6,208,428.8,208 M422.1,183.4c0.5,0.9,1,1.8,1.4,2.8l-0.7-0.8l-0.3-0.3
				c-1.1-1.2-2.3-2.4-3.7-3.6c0.1-0.1,0.1-0.2,0.2-0.3c0.2-0.2,0.3-0.3,0.3-0.3l0.2-0.1l0,0h0l0.1,0c0.1,0,0.2,0.1,0.3,0.1
				c0.2,0.1,0.4,0.3,0.6,0.4C421.2,181.9,421.6,182.6,422.1,183.4"/>
			<path class="st2" d="M416.4,174.2c0.2-0.1,0.4-0.2,0.6-0.3c0.9-0.8,0.6-2.3,0.5-3c-0.3-1.6-0.9-3.1-1.4-4.5
				c-0.5-1.2-1-2.3-1.5-3.3c-0.1-0.6-0.2-1.3-0.4-1.9c-0.4-2-1-4-1.6-5.7c-0.7-1.9-1.6-3.4-2.6-4.6c-0.5-0.6-1.1-1.1-1.7-1.5
				c-0.7-0.4-1.4-0.7-2.3-0.9c-0.7-0.1-1.3-0.1-1.9,0c-0.3,0.1-0.6,0.2-0.9,0.3c-0.3,0.2-0.6,0.4-0.9,0.7c-0.4,0.4-0.6,1-0.7,1.6
				c-0.2,0.7-0.1,1.4-0.1,2c0.1,0.7,0.2,1.4,0.4,2c0.2,0.9,0.5,1.8,0.9,2.7c0.6,1.5,1.3,3,2.4,4.8c0.9,1.5,1.9,3.1,2.9,4.6
				c0.9,1.3,1.7,2.4,2.5,3.3c0.9,1.1,2,2,3.2,2.8C414.8,174.1,415.7,174.4,416.4,174.2"/>
			<path class="st2" d="M393.7,191.7l0.4-0.1c1.3-0.3,2.6-0.8,4.2-1.4c1.1-0.4,2.1-0.9,3.1-1.5c1.3-0.7,2.5-1.4,3.5-2.1
				c3.7-2.5,6.2-5,7.6-7.8c0.4,0.1,0.6,0.2,0.8,0.3c0.2,0.1,0.3,0.2,0.4,0.4l0.2,0.3l0,0l0,0.2c0,0,0,0,0,0c0,0,0,0,0,0v0.1l0,0
				c0,0.1-0.1,0.1-0.1,0.2c-0.1,0.2-0.3,0.3-0.4,0.5c-0.8,0.7-1.8,1.3-2.9,1.9l-0.5,0.3l0.5-0.1c0.8-0.3,1.6-0.6,2.3-1
				c0.4-0.2,0.7-0.4,1-0.6c0.3-0.2,0.6-0.5,0.7-0.8c0.1-0.3,0.2-0.5,0.1-0.8c0-0.3-0.2-0.6-0.4-0.8c-0.3-0.3-0.6-0.5-1-0.7
				c-0.2-0.1-0.4-0.2-0.6-0.2c-0.6-0.2-1.2-0.2-1.6-0.2c-0.7,0-1.4,0-2.1,0.1c-0.9,0.1-1.8,0.3-2.9,0.5c-0.7,0.2-1.4,0.4-2.2,0.6
				c-1.8,0.5-3.6,1.1-5.6,2c-1.8,0.7-3.5,1.6-5.2,2.5c-1.7,0.9-2.9,1.7-4,2.6c-0.8,0.7-1.7,1.5-2,2.7c-0.1,0.3-0.1,0.6-0.1,0.9
				c0.1,0.4,0.2,0.8,0.6,1.2c0.7,1,2,1.3,2.9,1.4C391.6,192.2,392.8,191.9,393.7,191.7"/>
			<path class="st2" d="M443,198.9c0.9-0.3,1.7-0.8,2.4-1.4c0.7-0.6,1.4-1.3,1.9-2.1c0.7-1,1.2-2.1,1.5-3.2c0.4-1.2,0.7-2.5,0.9-3.8
				c0.2-1.2,0.3-2.4,0.2-3.6c-0.1-1.7-0.5-3.4-1.5-4.9c-2.7-4.2-8.5-4.3-12.9-3.9c-5.2,0.5-10.1,2-15.1,3.3c0,0,0,0.1,0,0.1
				c2.1-0.3,4.1-0.8,6.2-1.1c2.5-0.4,5.1-0.8,7.6-0.9c2.3-0.1,4.6-0.1,6.8,0.3c0,0,0,0,0,0c0,0,0,0,0,0c0.1,0,0.1,0,0.2,0
				c0,0,0,0-0.1,0c1,0.2,2,0.5,2.9,1c0.5,0.3,1,0.6,1.4,0.9c0.4,0.4,0.8,0.8,1.1,1.3c0.3,0.5,0.5,0.9,0.7,1.4
				c0.2,0.7,0.3,1.5,0.4,2.2c0.1,1.4-0.1,2.8-0.4,4.2c-0.3,1.4-0.7,2.7-1.3,3.9c-0.4,0.7-0.7,1.3-1.2,1.8c-0.4,0.4-0.8,0.8-1.3,1.1
				c-0.5,0.3-0.9,0.5-1.4,0.7c-0.5,0.1-1,0.2-1.5,0.3c-0.8,0-1.6,0-2.4-0.2c-1.1-0.2-2.1-0.6-3.1-1.1c-1.7-0.9-3.3-2-4.7-3.2
				c-1.8-1.7-3.4-3.6-4.9-5.6c-1.9-2.4-3.6-4.9-5.4-7.4c0,0-0.1,0,0,0c1.6,3.1,3.2,6.2,5,9.1c0.7,1.2,1.5,2.4,2.4,3.5
				c0.7,0.9,1.5,1.8,2.4,2.6c0.8,0.7,1.6,1.4,2.5,2c0.9,0.6,1.9,1.2,2.9,1.6c1.7,0.8,3.6,1.3,5.4,1.2c0.6,0,1.2-0.1,1.7-0.2
				C442.3,199.2,442.6,199.1,443,198.9 M438.3,196.6c0,0-0.1,0-0.1,0C438.2,196.6,438.3,196.6,438.3,196.6 M445.9,192.6
				c0,0,0-0.1,0.1-0.1C446,192.5,445.9,192.6,445.9,192.6 M440.9,177.8C440.9,177.8,440.9,177.8,440.9,177.8
				C440.9,177.8,441,177.8,440.9,177.8C441,177.8,441,177.8,440.9,177.8"/>
			<path class="st2" d="M418,206.2c1.5-1.4,2.3-3.3,2.6-5.4c0.3-2.4,0.1-4.9-0.4-7.3c-0.9-4.9-2.6-9.6-4.2-14.3
				c0.1-0.1,0.2-0.1,0.3-0.2c0,0,0-0.1,0,0c-0.1,0-0.2,0.1-0.3,0.1c0-0.1-0.1-0.2-0.1-0.3c0,0-0.1,0-0.1,0c0,0.1,0.1,0.2,0.1,0.3
				c-1.4,0.8-2.7,1.6-4.1,2.4c-1.3,0.8-2.6,1.6-3.9,2.4c-2.1,1.4-4.1,2.9-5.9,4.7c-1.7,1.6-3.2,3.4-4.3,5.5
				c-0.9,1.7-1.4,3.7-1.1,5.7c0.2,1,0.6,1.8,1.1,2.6c0.3,0.4,0.6,0.8,1,1.2c0.4,0.5,1,0.8,1.5,1.2c1.1,0.8,2.4,1.4,3.7,1.8
				c1.4,0.5,2.9,0.9,4.4,1.2c1.9,0.4,3.9,0.5,5.8,0.2c0.2,0,0.3-0.1,0.5-0.1C415.8,207.6,417,207.1,418,206.2 M414.3,205.7
				c0.1,0,0.1,0,0.2,0C414.4,205.6,414.4,205.6,414.3,205.7 M414.6,205.6c-0.8,0.2-1.6,0.2-2.5,0.2c-1.9-0.1-3.8-0.5-5.6-1.1
				c-1.5-0.5-3-1.1-4.4-1.9c-0.6-0.4-1.1-0.8-1.5-1.3c-0.3-0.3-0.5-0.7-0.8-1.1c-0.2-0.3-0.3-0.6-0.4-1c-0.1-0.4-0.1-0.8-0.1-1.1
				c0-0.6,0.2-1.2,0.3-1.8c0.4-1.2,1-2.3,1.6-3.3c0,0.1-0.1,0.1-0.1,0.2c1.8-2.7,4.1-5.1,6.5-7.3c1.2-1.1,2.4-2.1,3.6-3.1
				c1.5-1.2,3.1-2.5,4.7-3.7c0.6,2.4,1.2,4.7,1.8,7.1c0,0,0-0.1,0-0.1c0.8,3.7,1.6,7.6,1.5,11.5c-0.1,1.3-0.2,2.6-0.6,3.9
				c-0.2,0.6-0.4,1.1-0.7,1.6c-0.3,0.4-0.5,0.7-0.9,1.1c-0.3,0.3-0.7,0.5-1,0.7C415.5,205.3,415.1,205.5,414.6,205.6 M415.8,205.2
				c0.1,0,0.1-0.1,0.2-0.1C415.9,205.1,415.9,205.1,415.8,205.2 M399.7,200.4c0,0,0-0.1-0.1-0.1
				C399.7,200.3,399.7,200.4,399.7,200.4 M399.4,199.4c0-0.1,0-0.1,0-0.2C399.3,199.3,399.3,199.3,399.4,199.4 M399.3,198.2
				c0-0.1,0-0.1,0-0.2C399.3,198.1,399.3,198.2,399.3,198.2"/>
			<path class="st2" d="M419.8,175.7c0-0.1-0.1-0.3-0.1-0.4c3-1.2,5.9-2.8,8.6-4.6c1.6-1.1,3.1-2.3,4.5-3.7c1.2-1.2,2.3-2.6,2.9-4.2
				c0.3-0.7,0.5-1.4,0.5-2.1c0.1-0.8,0-1.6-0.2-2.4c-0.5-1.8-1.8-3.3-3.2-4.5c-3.4-2.8-8.2-4.3-12.5-2.7c-1.7,0.6-3.2,1.8-4.3,3.2
				c-1.3,1.6-1.9,3.6-2.1,5.6c-0.3,2.6,0.3,5.1,1.2,7.5c1,2.7,2.7,5.2,4.3,7.6c-0.2,0.1-0.5,0.2-0.7,0.3c0,0,0,0.1,0,0
				c0.2-0.1,0.5-0.2,0.7-0.3C419.6,175.4,419.7,175.6,419.8,175.7C419.8,175.7,419.8,175.7,419.8,175.7
				C419.8,175.7,419.8,175.7,419.8,175.7 M419.6,175.2c-1.2-3.1-2.7-6-3.4-9.2c0,0.1,0,0.1,0,0.2c-0.3-1.4-0.5-2.9-0.5-4.4v0
				c0-1,0.2-2,0.5-3c0,0,0,0,0,0.1c0,0,0,0,0-0.1c0-0.1,0-0.1,0.1-0.2c0,0.1,0,0.1-0.1,0.2c0.3-0.8,0.6-1.6,1.1-2.4
				c0.4-0.6,0.8-1.1,1.3-1.6c0.5-0.5,1.1-0.9,1.8-1.2c0.6-0.3,1.2-0.5,1.8-0.7c0.8-0.2,1.6-0.2,2.5-0.2c-0.1,0-0.2,0-0.3,0
				c1,0.1,1.9,0.2,2.9,0.5c1.2,0.4,2.4,1,3.4,1.6c-0.1,0-0.1-0.1-0.2-0.1c1,0.6,1.9,1.3,2.6,2.2c0.4,0.4,0.7,0.9,1,1.4
				c0.2,0.4,0.3,0.8,0.5,1.2c0.1,0.4,0.1,0.8,0.1,1.2c0,0.6-0.1,1.1-0.3,1.6c-0.3,0.8-0.6,1.5-1,2.1c-0.9,1.4-2.1,2.7-3.3,3.9
				c-2.9,2.6-6.2,4.7-9.7,6.5c0,0,0,0,0,0C420.2,174.9,419.9,175,419.6,175.2 M434.6,162.2C434.6,162.2,434.6,162.1,434.6,162.2
				C434.6,162.1,434.6,162.2,434.6,162.2 M434.8,160.7c0,0,0-0.1,0-0.1C434.8,160.6,434.8,160.7,434.8,160.7 M415.8,161.7
				c0-0.1,0-0.1,0-0.2C415.8,161.6,415.8,161.7,415.8,161.7 M417.4,156.4c0-0.1,0.1-0.1,0.1-0.2
				C417.4,156.2,417.4,156.3,417.4,156.4 M427.6,153.2c-0.1,0-0.2,0-0.2-0.1C427.5,153.1,427.5,153.1,427.6,153.2 M416.3,158.8
				C416.3,158.8,416.3,158.8,416.3,158.8C416.3,158.8,416.3,158.8,416.3,158.8C416.3,158.8,416.3,158.8,416.3,158.8"/>
			<path class="st2" d="M409.7,178.2c1.9-0.6,3.7-1.2,5.5-1.9c0,0,0-0.1,0-0.1c-1.2,0.4-2.5,0.8-3.8,1.2c0,0,0,0,0,0
				c-4.1,1.1-8.3,1.9-12.5,1.9c0,0,0.1,0,0.1,0c-1.6,0-3.2-0.2-4.7-0.5c0,0,0,0,0,0c0,0,0,0,0,0l-0.1,0c0,0,0.1,0,0.1,0
				c-0.7-0.2-1.5-0.5-2.1-0.9c-0.5-0.3-0.9-0.6-1.3-1c-0.3-0.3-0.6-0.7-0.8-1c-0.2-0.4-0.4-0.8-0.5-1.2c-0.1-0.6-0.2-1.2-0.2-1.8
				c0-1.1,0.2-2.3,0.5-3.4c0,0.1,0,0.1,0,0.2c0.5-1.9,1.3-3.6,2.2-5.3c0,0.1-0.1,0.2-0.1,0.3c0.2-0.4,0.5-0.8,0.8-1.2
				c0.3-0.4,0.7-0.8,1.1-1.2c0.4-0.4,0.8-0.7,1.2-0.9c0.4-0.2,0.8-0.4,1.2-0.5c0.5-0.1,0.9-0.2,1.4-0.2c0.6,0,1.2,0.1,1.7,0.3
				c1,0.3,1.9,0.7,2.8,1.2c2,1.2,3.8,2.8,5.5,4.5c0,0,0,0-0.1-0.1c1.3,1.3,2.4,2.7,3.6,4.1c0.7,0.9,1.5,1.9,2.2,2.8
				c0.8,1,1.6,2,2.4,3c0,0,0.1,0,0,0c-0.7-1.4-1.6-2.8-2.4-4.1c-0.8-1.3-1.6-2.7-2.4-4c-1.4-2.2-3.1-4.2-5-6
				c-3-2.9-7.7-5.5-11.8-3.2c-2.3,1.3-3.8,3.7-4.8,6.1c-0.5,1.2-0.9,2.4-1.2,3.6c-0.3,1-0.4,2-0.5,3c-0.1,1.5,0.1,3.1,0.9,4.4
				c0.3,0.6,0.7,1.1,1.2,1.5c0.5,0.5,1,0.8,1.6,1.2c0.8,0.4,1.6,0.7,2.5,0.9c1,0.2,1.9,0.3,2.9,0.4c2.2,0.1,4.5-0.1,6.7-0.5
				c1.1-0.2,2.2-0.4,3.2-0.7C407.6,178.8,408.6,178.5,409.7,178.2 M390.1,175.8C390.1,175.7,390,175.7,390.1,175.8
				C390,175.7,390.1,175.7,390.1,175.8 M402.2,162.1C402.2,162.1,402.1,162.1,402.2,162.1C402.1,162.1,402.2,162.1,402.2,162.1
				 M395,161.2c0,0,0.1-0.1,0.1-0.1C395.1,161.1,395,161.2,395,161.2 M394.3,178.7C394.3,178.7,394.3,178.7,394.3,178.7
				C394.3,178.7,394.3,178.7,394.3,178.7C394.3,178.7,394.3,178.7,394.3,178.7"/>
			<path class="st2" d="M414.3,176.1c-1.2-0.3-2.4-0.5-3.7-0.6c-1.2-0.1-2.4-0.1-3.6-0.1c-2.6,0-5.1,0.3-7.7,0.3c0,0,0,0,0,0
				c-0.9,0-1.8,0-2.8-0.1c-1-0.1-2-0.3-3-0.6c-1.2-0.4-2.4-0.8-3.5-1.5c-0.5-0.3-0.9-0.6-1.4-0.9c0,0-0.1,0,0,0
				c0.8,0.7,1.6,1.3,2.5,1.8c0.9,0.5,1.8,0.9,2.8,1.3c1.9,0.6,3.8,0.9,5.8,1c2,0.1,4.1,0,6.1-0.2c2.2-0.2,4.3-0.4,6.5-0.4
				c0,0,0,0-0.1,0C413,176.1,413.7,176.1,414.3,176.1C414.3,176.1,414.3,176.1,414.3,176.1C414.3,176.1,414.3,176.1,414.3,176.1
				 M399.3,175.6L399.3,175.6C399.3,175.6,399.3,175.6,399.3,175.6"/>
			<path class="st2" d="M414.7,175.1c-1.8-0.6-3.6-1.3-5.4-2c-1.8-0.7-3.7-1.3-5.6-1.8c-0.9-0.3-1.9-0.5-2.8-0.7
				c-0.9-0.2-1.7-0.3-2.6-0.4c-1.7-0.2-3.3-0.4-5-0.9c0,0,0,0,0,0c-1-0.3-1.8-0.6-2.7-1.1c0,0,0,0,0,0c-0.2-0.1-0.4-0.2-0.6-0.4
				c0,0-0.1,0,0,0c0.5,0.4,1.1,0.8,1.6,1.2c0.6,0.3,1.2,0.6,1.8,0.9c1.4,0.5,2.9,0.8,4.3,1.1c0.8,0.1,1.5,0.3,2.3,0.4
				c0.9,0.2,1.8,0.3,2.7,0.5c1.9,0.4,3.7,0.9,5.5,1.4c0,0,0,0,0,0C410.4,174,412.5,174.6,414.7,175.1
				C414.7,175.2,414.7,175.2,414.7,175.1C414.7,175.2,414.7,175.1,414.7,175.1 M408.3,173.4C408.3,173.4,408.3,173.4,408.3,173.4
				C408.3,173.4,408.3,173.4,408.3,173.4"/>
			<path class="st2" d="M414.3,175.3c-1.7-1.6-3.3-3.2-5-4.8c-1.6-1.5-3.3-3-5.1-4.2c-1.7-1.1-3.5-1.8-5.4-2.3
				c-2.3-0.6-4.8-0.6-7.1-0.3c0,0,0,0.1,0,0.1c0.3,0,0.5,0,0.7,0c0,0,0,0,0,0c1.8,0,3.6,0.2,5.4,0.7c1.5,0.4,2.8,1,4.1,1.8
				c0,0-0.1,0-0.1-0.1c2.1,1.3,4,2.8,5.9,4.3C409.9,172.2,412,173.9,414.3,175.3C414.2,175.4,414.2,175.4,414.3,175.3
				C414.3,175.4,414.3,175.3,414.3,175.3 M397.8,164.4C397.8,164.4,397.8,164.4,397.8,164.4C397.8,164.4,397.8,164.4,397.8,164.4"/>
			<path class="st2" d="M444.5,196.1c-1-0.1-2-0.3-2.9-0.5c0,0,0,0,0,0c-1.4-0.4-2.8-1-4.1-1.8c0,0,0.1,0,0.1,0
				c-3.1-1.9-5.6-4.5-8.2-6.9c-1.3-1.3-2.6-2.5-4.1-3.7c-1.4-1.1-2.9-2.1-4.5-3c0,0-0.1,0,0,0c1.2,0.8,2.4,1.8,3.5,2.8
				c1.2,1.1,2.4,2.3,3.5,3.4c0,0,0-0.1-0.1-0.1c1.2,1.2,2.4,2.4,3.6,3.5c1.2,1.2,2.6,2.2,4,3.2c1.3,0.9,2.8,1.6,4.3,2.1
				C441.2,195.9,442.9,196.1,444.5,196.1C444.5,196.1,444.5,196.1,444.5,196.1C444.6,196.1,444.6,196.1,444.5,196.1 M441.6,195.6
				C441.6,195.6,441.6,195.6,441.6,195.6C441.7,195.6,441.6,195.6,441.6,195.6"/>
			<path class="st2" d="M446.8,191c-1.8-1.4-3.7-2.6-5.8-3.7c-2.1-1.1-4.3-2-6.6-2.9c-2.3-0.9-4.5-1.6-6.8-2.4
				c-2.3-0.8-4.5-1.7-6.7-2.7c0,0-0.1,0,0,0.1c4.1,2.3,8.4,4,12.7,5.8c2.2,0.9,4.4,1.8,6.6,2.7C442.5,188.9,444.7,189.9,446.8,191
				C446.7,191.1,446.7,191.1,446.8,191C446.8,191.1,446.8,191,446.8,191"/>
			<path class="st2" d="M448.1,183.4c-0.6-0.7-1.3-1.3-2.1-1.9c-0.9-0.6-1.9-1.1-3-1.5c-1.1-0.4-2.3-0.8-3.5-1
				c-1.3-0.3-2.7-0.5-4-0.6c-2.7-0.2-5.4-0.2-8,0c-2.4,0.2-4.7,0.6-7,1c0,0,0,0.1,0,0.1c3.3-0.3,6.7-0.5,10-0.5c0,0-0.1,0-0.1,0
				c2,0,3.9,0.1,5.9,0.2c2,0.2,3.9,0.5,5.8,1h0c1.4,0.4,2.7,0.9,3.9,1.6C446.8,182.3,447.5,182.8,448.1,183.4
				C448.1,183.4,448.1,183.4,448.1,183.4C448.1,183.4,448.1,183.4,448.1,183.4"/>
			<path class="st2" d="M413.4,206.5c0.5-1,0.8-1.9,1.2-2.9c0.3-1,0.5-2,0.7-3c0.4-1.9,0.5-3.9,0.5-5.9c0-1,0-2,0-2.9
				c0-1.1-0.1-2.2-0.1-3.3c-0.1-2.2-0.2-4.4-0.1-6.6c0,0,0,0,0,0c0-0.6,0.1-1.3,0.2-1.9c0,0,0-0.1-0.1,0c-0.2,0.7-0.4,1.5-0.6,2.2
				c-0.2,0.8-0.3,1.7-0.4,2.6c-0.2,1.5-0.2,3-0.2,4.5c0,1.6,0.1,3.2,0.3,4.7c0.1,1.7,0.2,3.4,0.1,5.1c0,0,0,0,0,0
				c-0.1,1-0.1,1.9-0.3,2.9c-0.2,1.1-0.5,2.3-0.8,3.4v0C413.7,205.7,413.5,206.1,413.4,206.5C413.4,206.5,413.4,206.5,413.4,206.5
				C413.4,206.5,413.4,206.5,413.4,206.5 M415.6,181.8C415.6,181.8,415.6,181.8,415.6,181.8C415.6,181.8,415.6,181.8,415.6,181.8"/>
			<path class="st2" d="M406.7,205.3c0.5-0.6,0.9-1.3,1.3-2c0.4-0.8,0.8-1.6,1.2-2.4c0.7-1.7,1.2-3.4,1.7-5.2
				c1-3.7,1.5-7.5,2.7-11.2c0,0,0,0,0,0.1c0.6-1.7,1.2-3.3,2.1-4.9c0,0,0-0.1-0.1,0c-0.9,1.4-1.7,2.9-2.4,4.4
				c-0.7,1.7-1.2,3.4-1.7,5.2c-1,3.7-1.6,7.5-2.8,11.2c0,0,0,0,0-0.1C408.2,202,407.5,203.7,406.7,205.3
				C406.7,205.3,406.7,205.3,406.7,205.3C406.7,205.3,406.7,205.3,406.7,205.3"/>
			<path class="st2" d="M400.9,203.3c1.3-2,2.2-4.2,3.1-6.4c0.5-1.1,0.9-2.2,1.4-3.2c0.5-1.1,1.1-2.1,1.7-3.1c0,0,0,0,0,0.1
				c0,0,0-0.1,0.1-0.1c0,0,0,0,0,0c0,0,0,0,0,0c0.6-0.8,1.2-1.6,1.8-2.4c0.8-1,1.6-2,2.4-2.9c1.5-1.9,3-3.8,4.4-5.7c0,0,0-0.1,0,0
				c-1.8,1.8-3.6,3.5-5.3,5.4c-0.9,0.9-1.7,1.9-2.5,2.9c-0.7,0.9-1.4,1.9-2,2.9c-0.5,0.9-0.9,1.9-1.3,2.9c-0.4,1.1-0.8,2.2-1.2,3.3
				C402.6,199.1,401.9,201.3,400.9,203.3C400.8,203.3,400.8,203.3,400.9,203.3C400.8,203.3,400.8,203.3,400.9,203.3 M407.1,190.6
				C407.1,190.6,407.1,190.6,407.1,190.6C407.1,190.6,407.1,190.6,407.1,190.6L407.1,190.6z"/>
			<path class="st2" d="M419.6,175c1.4-1.4,2.9-2.7,4.3-4c1.8-1.7,3.5-3.4,5-5.3c1.4-1.7,2.5-3.6,3.2-5.7c0.3-0.9,0.4-1.8,0.4-2.8
				c0-0.9-0.3-1.7-0.7-2.5c0,0-0.1,0-0.1,0c0.1,0.2,0.1,0.4,0.2,0.6c0.1,0.5,0.1,1,0.1,1.5c0,0,0,0,0,0c-0.1,0.7-0.2,1.4-0.4,2.1
				c0,0,0-0.1,0-0.1c-0.5,1.6-1.3,3-2.2,4.4c0,0,0,0,0,0c-1.6,2.3-3.4,4.5-5.2,6.6C422.7,171.6,421.1,173.3,419.6,175
				C419.6,175,419.6,175.1,419.6,175C419.6,175,419.6,175,419.6,175 M432.1,156.8C432.1,156.8,432.1,156.8,432.1,156.8
				C432.1,156.8,432.1,156.8,432.1,156.8"/>
			<path class="st2" d="M420,174.6c0.3-1.2,0.7-2.3,1.1-3.5c0,0,0,0,0,0c1-3,2-6,3.1-9c1.1-2.9,2.4-5.7,4.1-8.4
				c0.1-0.2,0.3-0.4,0.4-0.6c0,0,0-0.1,0,0c-2.4,3-4.4,6.5-5.8,10.1c-0.7,1.8-1.3,3.7-1.8,5.5C420.6,170.6,420.2,172.6,420,174.6
				C419.9,174.6,420,174.6,420,174.6C420,174.6,420,174.6,420,174.6 M421.1,171C421.1,171,421.1,171,421.1,171
				C421.1,171,421.1,171,421.1,171"/>
			<path class="st2" d="M419.2,174.6c0-1.8-0.1-3.7-0.2-5.5c-0.1-2-0.2-4.1-0.1-6.1c0,0,0,0,0,0c0.1-1,0.1-2,0.3-3.1
				c0.1-1.1,0.4-2.1,0.7-3.1c0.4-1.1,0.8-2.2,1.5-3.2c0.4-0.6,0.8-1.1,1.2-1.6c0,0,0-0.1,0,0c-0.8,0.6-1.5,1.3-2.1,2
				c-0.6,0.7-1,1.6-1.4,2.5c-0.8,1.8-1,3.8-1.1,5.7c0,1.1,0,2.1,0.1,3.2c0.1,1.1,0.2,2.1,0.3,3.2C418.7,170.6,419,172.6,419.2,174.6
				C419.2,174.7,419.2,174.7,419.2,174.6C419.2,174.7,419.2,174.7,419.2,174.6 M419.9,156.8C419.9,156.8,419.9,156.7,419.9,156.8
				C419.9,156.7,419.9,156.8,419.9,156.8"/>
			<path class="st1" d="M420.2,190.3L420.2,190.3c1.5-0.4,1.5-2.2,1.4-3.5c-0.1-0.8-0.2-1.6-0.5-2.6c0.7,0.9,1.3,1.5,2,1.9
				c0.4,0.3,0.9,0.6,1.4,0.5c0.2,0,0.4,0,0.6-0.1c0.1,0,0.2-0.1,0.4-0.1c0.2-0.1,0.4-0.2,0.5-0.3c0.2-0.3,0.3-0.6,0.3-0.9
				c0-0.5-0.4-1-0.7-1.4c-0.5-0.6-1-1.1-1.5-1.4l-0.2-0.1c0.8,0.3,1.4,0.6,2,0.7c0.4,0.1,0.8,0.1,1.2,0.1c0.1,0,0.2,0,0.3-0.1
				c0.3-0.1,0.5-0.2,0.8-0.3c0.3-0.2,0.5-0.5,0.7-0.8c0.2-0.4,0.4-0.8,0.4-1.2c0-0.6-0.2-1.1-0.8-1.6c-0.6-0.5-1.4-0.6-2.1-0.8
				c-0.3,0-0.6-0.1-0.9-0.1c0.3-0.1,0.6-0.3,0.9-0.5c0.6-0.5,1-1.1,1.2-1.8c0.2-0.7,0.2-1.5-0.1-2.3c-0.2-0.5-0.7-1-1.3-1.3
				c-0.5-0.2-1.1-0.3-1.9-0.2c-0.1,0-0.3,0-0.4,0.1c-0.3,0.1-0.6,0.2-0.9,0.3c0.2-0.4,0.2-0.9,0.2-1.5c0-0.6-0.1-1.2-0.4-1.7
				c-0.2-0.5-0.6-1-1.1-1.3c-0.4-0.3-0.8-0.5-1.3-0.5c-0.2,0-0.4,0-0.6,0.1c-0.3,0.1-0.6,0.2-0.9,0.4c-0.3,0.2-0.5,0.5-0.8,0.9
				l0-0.3l-0.1-0.3c-0.2-0.7-0.6-1.4-1-2.1c-0.5-0.7-1.2-1.1-1.9-1.2c-0.3,0-0.7,0-1,0.1c-0.5,0.1-1,0.4-1.3,0.7
				c-0.3,0.3-0.5,0.6-0.7,1c-0.2,0.5-0.3,1-0.3,1.5c0,0.1,0,0.2,0,0.3c-0.1-0.1-0.2-0.1-0.3-0.1c-0.5-0.2-1-0.3-1.5-0.3
				c-0.2,0-0.4,0-0.6,0.1c-0.6,0.1-1.1,0.5-1.5,0.9c-0.6,0.7-0.9,1.5-0.9,2.4c0,0.7,0.3,1.5,0.8,2.2c0.2,0.3,0.4,0.5,0.7,0.7
				c-0.2,0.3-0.5,0.4-0.7,0.6c-0.2,0.2-0.4,0.4-0.6,0.6c-0.2,0.2-0.3,0.4-0.5,0.6c-0.3,0.5-0.4,1-0.4,1.7c0,0.5,0.2,1,0.5,1.4
				c0.2,0.4,0.7,0.8,1.3,1.1c0.3,0.2,0.8,0.3,1.2,0.4c-0.4,0.4-0.6,0.9-0.8,1.3c-0.4,1-0.2,2.1,0.4,2.8c0.6,0.7,1.6,1,2.6,0.8
				c0,0,0,0,0,0c0.3-0.1,0.5-0.1,0.6-0.2c-0.2,0.4-0.3,0.9-0.3,1.4c-0.1,0.6-0.1,1.5,0.3,2.1c0.2,0.3,0.4,0.5,0.6,0.6
				c0.3,0.2,0.7,0.3,1.1,0.4c0.2,0,0.5,0,0.7-0.1c0.4-0.1,0.8-0.3,1.2-0.6c0.6-0.6,1-1.4,1.2-2l0.2-0.5c0,0.3,0.1,0.5,0.1,0.8
				C417.8,188.6,418.6,190.7,420.2,190.3"/>
		</g>
	</g>
</g>
</svg>
